<?xml version="1.0" encoding="UTF-8" standalone="no"?>
<!-- Created with Inkscape (http://www.inkscape.org/) -->

<svg
   xmlns:dc="http://purl.org/dc/elements/1.1/"
   xmlns:cc="http://creativecommons.org/ns#"
   xmlns:rdf="http://www.w3.org/1999/02/22-rdf-syntax-ns#"
   xmlns:svg="http://www.w3.org/2000/svg"
   xmlns="http://www.w3.org/2000/svg"
   xmlns:sodipodi="http://sodipodi.sourceforge.net/DTD/sodipodi-0.dtd"
   xmlns:inkscape="http://www.inkscape.org/namespaces/inkscape"
   version="1.1"
   id="svg2"
   xml:space="preserve"
   width="240"
   height="336"
   viewBox="0 0 240 336"
   sodipodi:docname="band_structure.svg"
   inkscape:version="0.92.5 (2060ec1f9f, 2020-04-08)"><metadata
     id="metadata8"><rdf:RDF><cc:Work
         rdf:about=""><dc:format>image/svg+xml</dc:format><dc:type
           rdf:resource="http://purl.org/dc/dcmitype/StillImage" /><dc:title></dc:title></cc:Work></rdf:RDF></metadata><defs
     id="defs6" /><sodipodi:namedview
     pagecolor="#ffffff"
     bordercolor="#666666"
     borderopacity="1"
     objecttolerance="10"
     gridtolerance="10"
     guidetolerance="10"
     inkscape:pageopacity="0"
     inkscape:pageshadow="2"
     inkscape:window-width="1359"
     inkscape:window-height="1187"
     id="namedview4"
     showgrid="false"
     inkscape:zoom="1.9866333"
     inkscape:cx="260.94608"
     inkscape:cy="153.52966"
     inkscape:window-x="8"
     inkscape:window-y="31"
     inkscape:window-maximized="0"
     inkscape:current-layer="g10" /><g
     id="g10"
     inkscape:groupmode="layer"
     inkscape:label="ink_ext_XXXXXX"
     transform="matrix(1.3333333,0,0,-1.3333333,0,336)"><g
       id="g12"
       transform="scale(0.1)"><path
         d="m 301,267.5 h 31.5 m 1341,0 H 1642"
         style="fill:none;stroke:#000000;stroke-width:5;stroke-linecap:butt;stroke-linejoin:miter;stroke-miterlimit:3.79999995;stroke-dasharray:none;stroke-opacity:1"
         id="path14"
         inkscape:connector-curvature="0" /><g
         id="g16"
         transform="scale(10)"><text
           transform="matrix(1,0,0,-1,15.7855,24.4148)"
           style="font-variant:normal;font-weight:normal;font-size:7px;font-family:Helvetica;-inkscape-font-specification:Helvetica;writing-mode:lr-tb;fill:#000000;fill-opacity:1;fill-rule:nonzero;stroke:none"
           id="text20"><tspan
             x="0 2.3310001 6.223"
             y="0"
             sodipodi:role="line"
             id="tspan18">-12</tspan></text>
</g><path
         d="m 301,522.5 h 31.5 m 1341,0 H 1642"
         style="fill:none;stroke:#000000;stroke-width:5;stroke-linecap:butt;stroke-linejoin:miter;stroke-miterlimit:3.79999995;stroke-dasharray:none;stroke-opacity:1"
         id="path22"
         inkscape:connector-curvature="0" /><g
         id="g24"
         transform="scale(10)"><text
           transform="matrix(1,0,0,-1,15.7855,49.9148)"
           style="font-variant:normal;font-weight:normal;font-size:7px;font-family:Helvetica;-inkscape-font-specification:Helvetica;writing-mode:lr-tb;fill:#000000;fill-opacity:1;fill-rule:nonzero;stroke:none"
           id="text28"><tspan
             x="0 2.3310001 6.223"
             y="0"
             sodipodi:role="line"
             id="tspan26">-10</tspan></text>
</g><path
         d="m 301,777.5 h 31.5 m 1341,0 H 1642"
         style="fill:none;stroke:#000000;stroke-width:5;stroke-linecap:butt;stroke-linejoin:miter;stroke-miterlimit:3.79999995;stroke-dasharray:none;stroke-opacity:1"
         id="path30"
         inkscape:connector-curvature="0" /><g
         id="g32"
         transform="scale(10)"><text
           transform="matrix(1,0,0,-1,19.6773,75.4148)"
           style="font-variant:normal;font-weight:normal;font-size:7px;font-family:Helvetica;-inkscape-font-specification:Helvetica;writing-mode:lr-tb;fill:#000000;fill-opacity:1;fill-rule:nonzero;stroke:none"
           id="text36"><tspan
             x="0 2.3310001"
             y="0"
             sodipodi:role="line"
             id="tspan34">-8</tspan></text>
</g><path
         d="m 301,1032.5 h 31.5 m 1341,0 H 1642"
         style="fill:none;stroke:#000000;stroke-width:5;stroke-linecap:butt;stroke-linejoin:miter;stroke-miterlimit:3.79999995;stroke-dasharray:none;stroke-opacity:1"
         id="path38"
         inkscape:connector-curvature="0" /><g
         id="g40"
         transform="scale(10)"><text
           transform="matrix(1,0,0,-1,19.6773,100.915)"
           style="font-variant:normal;font-weight:normal;font-size:7px;font-family:Helvetica;-inkscape-font-specification:Helvetica;writing-mode:lr-tb;fill:#000000;fill-opacity:1;fill-rule:nonzero;stroke:none"
           id="text44"><tspan
             x="0 2.3310001"
             y="0"
             sodipodi:role="line"
             id="tspan42">-6</tspan></text>
</g><path
         d="m 301,1288 h 31.5 m 1341,0 H 1642"
         style="fill:none;stroke:#000000;stroke-width:5;stroke-linecap:butt;stroke-linejoin:miter;stroke-miterlimit:3.79999995;stroke-dasharray:none;stroke-opacity:1"
         id="path46"
         inkscape:connector-curvature="0" /><g
         id="g48"
         transform="scale(10)"><text
           transform="matrix(1,0,0,-1,19.6773,126.465)"
           style="font-variant:normal;font-weight:normal;font-size:7px;font-family:Helvetica;-inkscape-font-specification:Helvetica;writing-mode:lr-tb;fill:#000000;fill-opacity:1;fill-rule:nonzero;stroke:none"
           id="text52"><tspan
             x="0 2.3310001"
             y="0"
             sodipodi:role="line"
             id="tspan50">-4</tspan></text>
</g><path
         d="m 301,1543 h 31.5 m 1341,0 H 1642"
         style="fill:none;stroke:#000000;stroke-width:5;stroke-linecap:butt;stroke-linejoin:miter;stroke-miterlimit:3.79999995;stroke-dasharray:none;stroke-opacity:1"
         id="path54"
         inkscape:connector-curvature="0" /><g
         id="g56"
         transform="scale(10)"><text
           transform="matrix(1,0,0,-1,19.6773,151.965)"
           style="font-variant:normal;font-weight:normal;font-size:7px;font-family:Helvetica;-inkscape-font-specification:Helvetica;writing-mode:lr-tb;fill:#000000;fill-opacity:1;fill-rule:nonzero;stroke:none"
           id="text60"><tspan
             x="0 2.3310001"
             y="0"
             sodipodi:role="line"
             id="tspan58">-2</tspan></text>
</g><path
         d="m 301,1798 h 31.5 m 1341,0 H 1642"
         style="fill:none;stroke:#000000;stroke-width:5;stroke-linecap:butt;stroke-linejoin:miter;stroke-miterlimit:3.79999995;stroke-dasharray:none;stroke-opacity:1"
         id="path62"
         inkscape:connector-curvature="0" /><g
         id="g64"
         transform="scale(10)"><text
           transform="matrix(1,0,0,-1,22.0085,177.465)"
           style="font-variant:normal;font-weight:normal;font-size:7px;font-family:Helvetica;-inkscape-font-specification:Helvetica;writing-mode:lr-tb;fill:#000000;fill-opacity:1;fill-rule:nonzero;stroke:none"
           id="text68"><tspan
             x="0"
             y="0"
             id="tspan66">0</tspan></text>
</g><path
         d="m 301,2053 h 31.5 m 1341,0 H 1642"
         style="fill:none;stroke:#000000;stroke-width:5;stroke-linecap:butt;stroke-linejoin:miter;stroke-miterlimit:3.79999995;stroke-dasharray:none;stroke-opacity:1"
         id="path70"
         inkscape:connector-curvature="0" /><g
         id="g72"
         transform="scale(10)"><text
           transform="matrix(1,0,0,-1,22.0085,202.965)"
           style="font-variant:normal;font-weight:normal;font-size:7px;font-family:Helvetica;-inkscape-font-specification:Helvetica;writing-mode:lr-tb;fill:#000000;fill-opacity:1;fill-rule:nonzero;stroke:none"
           id="text76"><tspan
             x="0"
             y="0"
             id="tspan74">2</tspan></text>
</g><path
         d="m 301,2308 h 31.5 m 1341,0 H 1642"
         style="fill:none;stroke:#000000;stroke-width:5;stroke-linecap:butt;stroke-linejoin:miter;stroke-miterlimit:3.79999995;stroke-dasharray:none;stroke-opacity:1"
         id="path78"
         inkscape:connector-curvature="0" /><g
         id="g80"
         transform="scale(10)"><text
           transform="matrix(1,0,0,-1,22.0085,228.465)"
           style="font-variant:normal;font-weight:normal;font-size:7px;font-family:Helvetica;-inkscape-font-specification:Helvetica;writing-mode:lr-tb;fill:#000000;fill-opacity:1;fill-rule:nonzero;stroke:none"
           id="text84"><tspan
             x="0"
             y="0"
             id="tspan82">4</tspan></text>
</g><path
         d="m 301,140 v 31.5 m 0,2264 V 2404"
         style="fill:none;stroke:#000000;stroke-width:5;stroke-linecap:butt;stroke-linejoin:miter;stroke-miterlimit:3.79999995;stroke-dasharray:none;stroke-opacity:1"
         id="path86"
         inkscape:connector-curvature="0" /><g
         id="g88"
         transform="scale(10)"><text
           transform="matrix(1,0,0,-1,28.739,4.66484)"
           style="font-variant:normal;font-weight:normal;font-size:7px;font-family:Helvetica;-inkscape-font-specification:Helvetica;writing-mode:lr-tb;fill:#000000;fill-opacity:1;fill-rule:nonzero;stroke:none"
           id="text92"><tspan
             x="0"
             y="0"
             id="tspan90">X</tspan></text>
</g><path
         d="m 785.5,140 v 31.5 m 0,2264 V 2404"
         style="fill:none;stroke:#000000;stroke-width:5;stroke-linecap:butt;stroke-linejoin:miter;stroke-miterlimit:3.79999995;stroke-dasharray:none;stroke-opacity:1"
         id="path94"
         inkscape:connector-curvature="0" /><g
         id="g96"
         transform="scale(10)"><text
           transform="matrix(1,0,0,-1,77.41289,4.66484)"
           style="font-variant:normal;font-weight:normal;font-size:7px;font-family:Symbol;-inkscape-font-specification:Symbol;writing-mode:lr-tb;fill:#000000;fill-opacity:1;fill-rule:nonzero;stroke:none"
           id="text100"><tspan
             x="0"
             y="0"
             id="tspan98">Γ</tspan></text>
</g><path
         d="m 1205.5,140 v 31.5 m 0,2264 V 2404"
         style="fill:none;stroke:#000000;stroke-width:5;stroke-linecap:butt;stroke-linejoin:miter;stroke-miterlimit:3.79999995;stroke-dasharray:none;stroke-opacity:1"
         id="path102"
         inkscape:connector-curvature="0" /><g
         id="g104"
         transform="scale(10)"><text
           transform="matrix(1,0,0,-1,119.577,4.66484)"
           style="font-variant:normal;font-weight:normal;font-size:7px;font-family:Helvetica;-inkscape-font-specification:Helvetica;writing-mode:lr-tb;fill:#000000;fill-opacity:1;fill-rule:nonzero;stroke:none"
           id="text108"><tspan
             x="0"
             y="0"
             id="tspan106">L</tspan></text>
</g><path
         d="m 1502,140 v 31.5 m 0,2264 V 2404"
         style="fill:none;stroke:#000000;stroke-width:5;stroke-linecap:butt;stroke-linejoin:miter;stroke-miterlimit:3.79999995;stroke-dasharray:none;stroke-opacity:1"
         id="path110"
         inkscape:connector-curvature="0" /><g
         id="g112"
         transform="scale(10)"><text
           transform="matrix(1,0,0,-1,148.646,4.66484)"
           style="font-variant:normal;font-weight:normal;font-size:7px;font-family:Helvetica;-inkscape-font-specification:Helvetica;writing-mode:lr-tb;fill:#000000;fill-opacity:1;fill-rule:nonzero;stroke:none"
           id="text116"><tspan
             x="0"
             y="0"
             id="tspan114">U</tspan></text>
</g><path
         d="m 1673.5,140 v 31.5 m 0,2264 V 2404"
         style="fill:none;stroke:#000000;stroke-width:5;stroke-linecap:butt;stroke-linejoin:miter;stroke-miterlimit:3.79999995;stroke-dasharray:none;stroke-opacity:1"
         id="path118"
         inkscape:connector-curvature="0" /><g
         id="g120"
         transform="scale(10)"><text
           transform="matrix(1,0,0,-1,165.989,4.66484)"
           style="font-variant:normal;font-weight:normal;font-size:7px;font-family:Helvetica;-inkscape-font-specification:Helvetica;writing-mode:lr-tb;fill:#000000;fill-opacity:1;fill-rule:nonzero;stroke:none"
           id="text124"><tspan
             x="0"
             y="0"
             id="tspan122">X</tspan></text>
</g><path
         d="M 301,2435.5 V 140 h 1372.5 v 2295.5 z"
         style="fill:none;stroke:#000000;stroke-width:5;stroke-linecap:butt;stroke-linejoin:miter;stroke-miterlimit:3.79999995;stroke-dasharray:none;stroke-opacity:1"
         id="path126"
         inkscape:connector-curvature="0" /><g
         id="g128"
         transform="scale(10)"><text
           transform="matrix(0,1,1,0,7.93516,110.079)"
           style="font-variant:normal;font-weight:normal;font-size:7px;font-family:Helvetica;-inkscape-font-specification:Helvetica;writing-mode:lr-tb;fill:#000000;fill-opacity:1;fill-rule:nonzero;stroke:none"
           id="text132"><tspan
             x="0 4.6690001 8.5609999 12.453 14.784 18.676001 22.176001 24.122 26.452999 30.344999 35.014"
             y="0"
             sodipodi:role="line"
             id="tspan130">Energy (eV)</tspan></text>
</g><path
         d="M 785.5,140 V 2435.5"
         style="fill:none;stroke:#000000;stroke-width:5;stroke-linecap:butt;stroke-linejoin:miter;stroke-miterlimit:3.79999995;stroke-dasharray:none;stroke-opacity:1"
         id="path134"
         inkscape:connector-curvature="0" /><path
         d="M 1205.5,140 V 2435.5"
         style="fill:none;stroke:#000000;stroke-width:5;stroke-linecap:butt;stroke-linejoin:miter;stroke-miterlimit:3.79999995;stroke-dasharray:none;stroke-opacity:1"
         id="path136"
         inkscape:connector-curvature="0" /><path
         d="M 1502,140 V 2435.5"
         style="fill:none;stroke:#000000;stroke-width:5;stroke-linecap:butt;stroke-linejoin:miter;stroke-miterlimit:3.79999995;stroke-dasharray:none;stroke-opacity:1"
         id="path138"
         inkscape:connector-curvature="0" /><path
         d="M 301,1798 H 1673.5"
         style="fill:none;stroke:#000000;stroke-width:1.25;stroke-linecap:butt;stroke-linejoin:miter;stroke-miterlimit:3.79999995;stroke-dasharray:5, 10;stroke-dashoffset:0;stroke-opacity:1"
         id="path140"
         inkscape:connector-curvature="0" /><path
         d="m 301,802 9.5,-19.5 10,-19.5 9.5,-19 10,-19 9.5,-18 9.5,-18.5 10,-17.5 9.5,-17.5 9.5,-17.5 10,-17 9.5,-16.5 10,-16 9.5,-15.5 9.5,-15.5 10,-15 9.5,-15 10,-14 9.5,-14 9.5,-13.5 10,-13.5 9.5,-12.5 9.5,-12.5 10,-12 9.5,-11.5 10,-11 9.5,-10.5 9.5,-10.5 10,-10 9.5,-9.5 10,-9 9.5,-8.5 9.5,-8 10,-7.5 9.5,-7.5 10,-7 9.5,-6.5 9.5,-6 10,-5.5 9.5,-5 9.5,-4.5 10,-4.5 9.5,-3.5 10,-3.5 9.5,-3 9.5,-2.5 10,-2 9.5,-1.5 10,-1 9.5,-1 h 9.5 10 l 9.5,1 10,1 9.5,1.5 10,2 9.5,2.5 10,3 9.5,3.5 10,4 10,4 9.5,4.5 10,5.5 9.5,5.5 10,6 9.5,6.5 10,7 9.5,7 10,7.5 9.5,8.5 10,8 9.5,9 10,9 9.5,10 10,9.5 9.5,10.5 10,10 9.5,11 10,11 9.5,11 10,11.5 9.5,11 10,11.5 10,11 9.5,11.5 10,10.5 9.5,10.5 10,9.5 9.5,9 10,7.5 9.5,6.5 10,4.5 9.5,3 10,1 10,0.5 9.5,0.5 10,1 10,2 10,2 9.5,2.5 10,3 10,3.5 10,4 10,4 9.5,5"
         style="fill:none;stroke:#ff0000;stroke-width:1.25;stroke-linecap:butt;stroke-linejoin:miter;stroke-miterlimit:3.79999995;stroke-dasharray:none;stroke-opacity:1"
         id="path142"
         inkscape:connector-curvature="0" /><path
         d="m 1314,599 10,5.5 10,5.5 10,6 10,7 9.5,7 10,7 10,8 10,8 9.5,8.5 10,9 10,9 10,9.5 10,9.5 9.5,10 10,9.5 10,9.5 10,8.5 10,7.5 9.5,6 10,8 10.5,7 10,6.5 10,5.5 10,5 10,4 10,3.5 10.5,3 10,2.5 10,2 10,1.5 10,1.5 10,1 10.5,0.5 10,0.5 10,0.5 h 10"
         style="fill:none;stroke:#ff0000;stroke-width:1.25;stroke-linecap:butt;stroke-linejoin:miter;stroke-miterlimit:3.79999995;stroke-dasharray:none;stroke-opacity:1"
         id="path144"
         inkscape:connector-curvature="0" /><path
         d="m 301,802 9.5,20 10,20 9.5,20.5 10,20.5 9.5,21 9.5,21 10,21.5 9.5,21.5 9.5,21.5 10,22 9.5,22 10,22 9.5,22 9.5,22.5 10,22.5 9.5,22.5 10,22.5 9.5,23 9.5,22.5 10,23 9.5,23 9.5,23 10,22.5 9.5,23 10,23 9.5,23 9.5,22.5 10,23 9.5,22.5 10,23 9.5,22.5 9.5,22 10,22.5 9.5,22 10,22 9.5,21.5 9.5,21 10,21 9.5,20 9.5,20 10,18.5 9.5,18 10,17 9.5,16 9.5,14 10,12 9.5,10 10,7.5 9.5,4.5 9.5,1.5 10,-3 9.5,-8 10,-12.5 9.5,-16.5 10,-20 9.5,-21.5 10,-24 9.5,-25 10,-26 10,-27 9.5,-27.5 10,-27.5 9.5,-28 10,-28 9.5,-28 10,-28 9.5,-27.5 10,-28 9.5,-27.5 10,-27 9.5,-27 10,-26.5 9.5,-26.5 10,-25.5 9.5,-25.5 10,-25 9.5,-24.5 10,-24 9.5,-23 10,-22.5 9.5,-22 10,-21 10,-20 9.5,-19.5 10,-18 9.5,-16.5 10,-15 9.5,-13.5 10,-11.5 9.5,-9.5 10,-7 9.5,-4 10,-1.5 h 10 l 9.5,0.5 10,0.5 10,1 10,1 9.5,1.5 10,1.5 10,1.5 10,2 10,1.5 9.5,2"
         style="fill:none;stroke:#ff0000;stroke-width:1.25;stroke-linecap:butt;stroke-linejoin:miter;stroke-miterlimit:3.79999995;stroke-dasharray:none;stroke-opacity:1"
         id="path146"
         inkscape:connector-curvature="0" /><path
         d="m 1314,921.5 10,2 10,2 10,2 10,2 9.5,1 10,1.5 10,0.5 10,-0.5 9.5,-0.5 10,-2 10,-2.5 10,-4 10,-5 9.5,-5.5 10,-7 10,-7.5 10,-7.5 10,-7.5 9.5,-6 10,-8.5 10.5,-8 10,-7.5 10,-7 10,-6.5 10,-6 10,-5.5 10.5,-5 10,-4.5 10,-3.5 10,-3.5 10,-3 10,-2.5 10.5,-1.5 10,-1.5 10,-0.5 10,-0.5"
         style="fill:none;stroke:#ff0000;stroke-width:1.25;stroke-linecap:butt;stroke-linejoin:miter;stroke-miterlimit:3.79999995;stroke-dasharray:none;stroke-opacity:1"
         id="path148"
         inkscape:connector-curvature="0" /><path
         d="m 301,1432.5 h 9.5 l 10,1 9.5,1 10,1 9.5,2 9.5,2.5 10,2.5 9.5,3 9.5,3.5 10,3.5 9.5,4.5 10,4.5 9.5,5 9.5,5.5 10,5.5 9.5,6.5 10,6.5 9.5,6.5 9.5,7.5 10,7.5 9.5,8 9.5,8.5 10,8.5 9.5,9.5 10,9 9.5,10 9.5,10 10,10 9.5,10.5 10,11 9.5,11 9.5,11.5 10,11.5 9.5,12 10,11.5 9.5,12 9.5,12 10,12 9.5,12 9.5,11.5 10,11.5 9.5,11 10,10.5 9.5,9.5 9.5,9 10,7.5 9.5,6.5 10,4.5 9.5,3 9.5,1 10,-0.5 9.5,-1 10,-2 9.5,-3 10,-3 9.5,-4 10,-4.5 9.5,-4.5 10,-5 10,-5.5 9.5,-5.5 10,-6 9.5,-5.5 10,-6 9.5,-6 10,-5.5 9.5,-6 10,-5.5 9.5,-5.5 10,-5.5 9.5,-5 10,-5 9.5,-5 10,-4.5 9.5,-4.5 10,-4.5 9.5,-4 10,-3.5 9.5,-4 10,-3 9.5,-3 10,-3 10,-2.5 9.5,-2.5 10,-2 9.5,-2 10,-1.5 9.5,-1.5 10,-1 9.5,-1 10,-0.5 9.5,-0.5 h 10 l 10,-2.5 9.5,-6.5 10,-10 10,-14 10,-16 9.5,-18 10,-19.5 10,-20 10,-21.5 10,-21.5 9.5,-21.5"
         style="fill:none;stroke:#ff0000;stroke-width:1.25;stroke-linecap:butt;stroke-linejoin:miter;stroke-miterlimit:3.79999995;stroke-dasharray:none;stroke-opacity:1"
         id="path150"
         inkscape:connector-curvature="0" /><path
         d="m 1314,1473 10,-21.5 10,-21.5 10,-21 10,-20.5 9.5,-20 10,-19 10,-17.5 10,-17 9.5,-15 10,-14 10,-12 10,-10 10,-8 9.5,-6 10,-4.5 10,-2 h 10 l 10,1 9.5,3 10,7.5 10.5,8.5 10,10 10,11.5 10,12 10,13.5 10,14 10.5,14.5 10,14.5 10,15 10,14 10,13.5 10,12 10.5,10 10,8 10,5 10,1.5"
         style="fill:none;stroke:#ff0000;stroke-width:1.25;stroke-linecap:butt;stroke-linejoin:miter;stroke-miterlimit:3.79999995;stroke-dasharray:none;stroke-opacity:1"
         id="path152"
         inkscape:connector-curvature="0" /><path
         d="m 301,1432.5 h 9.5 l 10,1 9.5,1 10,1 9.5,2 9.5,2.5 10,2.5 9.5,3 9.5,3.5 10,3.5 9.5,4.5 10,4.5 9.5,5 9.5,5.5 10,5.5 9.5,6.5 10,6.5 9.5,6.5 9.5,7.5 10,7.5 9.5,8 9.5,8.5 10,8.5 9.5,9.5 10,9 9.5,10 9.5,10 10,10 9.5,10.5 10,11 9.5,11 9.5,11.5 10,11.5 9.5,12 10,11.5 9.5,12 9.5,12 10,12 9.5,12 9.5,11.5 10,11.5 9.5,11 10,10.5 9.5,9.5 9.5,9 10,7.5 9.5,6.5 10,4.5 9.5,3 9.5,1 10,-0.5 9.5,-1 10,-2 9.5,-3 10,-3 9.5,-4 10,-4.5 9.5,-4.5 10,-5 10,-5.5 9.5,-5.5 10,-6 9.5,-5.5 10,-6 9.5,-6 10,-5.5 9.5,-6 10,-5.5 9.5,-5.5 10,-5.5 9.5,-5 10,-5 9.5,-5 10,-4.5 9.5,-4.5 10,-4.5 9.5,-4 10,-3.5 9.5,-4 10,-3 9.5,-3 10,-3 10,-2.5 9.5,-2.5 10,-2 9.5,-2 10,-1.5 9.5,-1.5 10,-1 9.5,-1 10,-0.5 9.5,-0.5 h 10 l 10,-0.5 9.5,-1.5 10,-2 10,-3 10,-3.5 9.5,-4.5 10,-5 10,-5.5 10,-5.5 10,-6.5 9.5,-6.5"
         style="fill:none;stroke:#ff0000;stroke-width:1.25;stroke-linecap:butt;stroke-linejoin:miter;stroke-miterlimit:3.79999995;stroke-dasharray:none;stroke-opacity:1"
         id="path154"
         inkscape:connector-curvature="0" /><path
         d="m 1314,1600 10,-6.5 10,-7 10,-7 10,-7 9.5,-7 10,-7 10,-7 10,-6.5 9.5,-6.5 10,-6.5 10,-6 10,-6 10,-5.5 9.5,-5.5 10,-5 10,-4.5 10,-4.5 10,-4 9.5,-4 10,-6 10.5,-5.5 10,-5.5 10,-5 10,-5 10,-4 10,-4 10.5,-4 10,-3 10,-3 10,-2.5 10,-2 10,-2 10.5,-1 10,-1 10,-1 h 10"
         style="fill:none;stroke:#ff0000;stroke-width:1.25;stroke-linecap:butt;stroke-linejoin:miter;stroke-miterlimit:3.79999995;stroke-dasharray:none;stroke-opacity:1"
         id="path156"
         inkscape:connector-curvature="0" /><path
         d="m 301,1890.5 9.5,-4 10,-4 9.5,-3 10,-2.5 9.5,-2 9.5,-1.5 10,-0.5 h 9.5 9.5 l 10,0.5 9.5,1.5 10,2 9.5,2.5 9.5,2.5 10,3.5 9.5,4 10,4 9.5,5 9.5,5 10,6 9.5,6 9.5,6.5 10,6.5 9.5,7.5 10,7.5 9.5,8 9.5,8 10,8.5 9.5,8.5 10,9 9.5,9 9.5,9.5 10,9.5 9.5,9 10,9.5 9.5,9.5 9.5,9.5 10,9 9.5,9 9.5,8.5 10,8 9.5,7.5 10,7 9.5,6.5 9.5,5.5 10,4.5 9.5,4 10,2.5 9.5,2 9.5,0.5 10,0.5 9.5,1.5 10,3 9.5,2 10,1 h 9.5 l 10,-2 9.5,-2.5 10,-3.5 10,-4 9.5,-5 10,-5 9.5,-5.5 10,-5.5 9.5,-5.5 10,-6 9.5,-5.5 10,-6 9.5,-5.5 10,-6 9.5,-5.5 10,-5.5 9.5,-5 10,-5 9.5,-5 10,-4.5 9.5,-4.5 10,-4 9.5,-4 10,-3.5 9.5,-3.5 10,-3 10,-3 9.5,-3 10,-2 9.5,-2 10,-2 9.5,-1.5 10,-1 9.5,-1 10,-1 h 9.5 l 10,-0.5 10,2 9.5,6 10,9.5 10,12 10,13 9.5,13.5 10,12.5 10,10 10,6 10,2.5 9.5,-0.5"
         style="fill:none;stroke:#ff0000;stroke-width:1.25;stroke-linecap:butt;stroke-linejoin:miter;stroke-miterlimit:3.79999995;stroke-dasharray:none;stroke-opacity:1"
         id="path158"
         inkscape:connector-curvature="0" /><path
         d="m 1314,2082.5 10,-4 10,-5.5 10,-7 10,-7.5 9.5,-8 10,-8.5 10,-8.5 10,-8.5 9.5,-8 10,-8 10,-8 10,-7.5 10,-7 9.5,-6.5 10,-6 10,-6 10,-5 10,-5 9.5,-4.5 10,-7 10.5,-6.5 10,-6 10,-6 10,-5.5 10,-5 10,-4.5 10.5,-4.5 10,-3.5 10,-3.5 10,-3 10,-2.5 10,-2 10.5,-1.5 10,-1 10,-0.5 10,-0.5"
         style="fill:none;stroke:#ff0000;stroke-width:1.25;stroke-linecap:butt;stroke-linejoin:miter;stroke-miterlimit:3.79999995;stroke-dasharray:none;stroke-opacity:1"
         id="path160"
         inkscape:connector-curvature="0" /><path
         d="m 301,1890.5 9.5,5 10,5.5 9.5,6 10,7 9.5,7 9.5,8 10,9 9.5,9.5 9.5,9.5 10,10.5 9.5,11.5 10,12 9.5,12.5 9.5,12.5 10,14 9.5,14.5 10,15 9.5,15.5 9.5,16.5 10,17 9.5,17 9.5,18 10,18.5 9.5,19 10,19 9.5,19 9.5,19.5 10,19.5 9.5,19 10,19 9.5,17.5 9.5,15.5 10,14 9.5,-2.5 10,-20.5 9.5,-19.5 9.5,-19.5 10,-18.5 9.5,-18 9.5,-17.5 10,-16.5 9.5,-16 10,-14.5 9.5,-13 9.5,-12 10,-10.5 9.5,-8 10,-6 9.5,-4 9.5,-1 10,0.5 9.5,1.5 10,3 9.5,4 10,4.5 9.5,6 10,6.5 9.5,7 10,7.5 10,8 9.5,8 10,8 9.5,8 10,8 9.5,7.5 10,7 9.5,6.5 10,5.5 9.5,5 10,4 9.5,3.5 10,2.5 9.5,2 10,1 9.5,0.5 10,-0.5 9.5,-1 10,-1 9.5,-1.5 10,-2 9.5,-2 10,-2 10,-2 9.5,-2.5 10,-1.5 9.5,-2 10,-1.5 9.5,-1.5 10,-1.5 9.5,-1 10,-0.5 9.5,-0.5 h 10 l 10,-0.5 9.5,-1 10,-2 10,-2 10,-1.5 9.5,-0.5 10,2 10,5 10,9 10,14 9.5,17.5"
         style="fill:none;stroke:#ff0000;stroke-width:1.25;stroke-linecap:butt;stroke-linejoin:miter;stroke-miterlimit:3.79999995;stroke-dasharray:none;stroke-opacity:1"
         id="path162"
         inkscape:connector-curvature="0" /><path
         d="m 1314,2266.5 10,21 10,23.5 10,25 10,26.5 9.5,27 10,28 6.5,18 m 74.5,0 8,-19 10,-23 10,-22.5 10,-22 9.5,-22 10,-37 10.5,-37 10,-36 10,-35.5 10,-34.5 10,-33.5 10,-32 10.5,-30.5 10,-29 10,-27.5 10,-25 10,-22 10,-19.5 10.5,-16 10,-11.5 10,-7.5 10,-2.5"
         style="fill:none;stroke:#ff0000;stroke-width:1.25;stroke-linecap:butt;stroke-linejoin:miter;stroke-miterlimit:3.79999995;stroke-dasharray:none;stroke-opacity:1"
         id="path164"
         inkscape:connector-curvature="0" /><path
         d="m 586.5,2435.5 5.5,-11.5 9.5,-21.5 9.5,-21 10,-20.5 9.5,-20.5 10,-20.5 9.5,-19.5 9.5,-19.5 10,-18.5 9.5,-18 9.5,-17.5 10,-16.5 9.5,-16 10,-14.5 9.5,-13 9.5,-12 10,-10.5 9.5,-8 10,-6 9.5,-4 9.5,-1 10,0.5 9.5,2 10,2.5 9.5,4 10,4.5 9.5,6 10,6.5 9.5,7 10,7.5 10,8 9.5,8 10,8 9.5,8 10,8 9.5,7.5 10,7 9.5,6.5 10,5.5 9.5,5 10,4 9.5,3.5 10,2.5 9.5,2 10,1 9.5,0.5 10,-0.5 9.5,-1 10,-1 9.5,-1.5 10,-2 9.5,-2 10,-2 10,-2 9.5,-2.5 10,-1.5 9.5,-2 10,-1.5 9.5,-1.5 10,-1.5 9.5,-1 10,-0.5 9.5,-0.5 h 10 l 10,1 9.5,2.5 10,4.5 10,6.5 10,8 9.5,9 10,11 10,12.5 10,14 10,15 9.5,17 10,17.5 10,18.5 10,19.5 10,20.5 9.5,21.5 5,10.5"
         style="fill:none;stroke:#ff0000;stroke-width:1.25;stroke-linecap:butt;stroke-linejoin:miter;stroke-miterlimit:3.79999995;stroke-dasharray:none;stroke-opacity:1"
         id="path166"
         inkscape:connector-curvature="0" /><path
         d="m 586.5,2435.5 5.5,-11.5 9.5,-21.5 9.5,-21 10,-20.5 9.5,-7.5 10,6.5 9.5,2 9.5,-2.5 10,-7 9.5,-10 9.5,-12.5 10,-14 9.5,-15 10,-14.5 9.5,-14 9.5,-13 10,-11.5 9.5,-9.5 10,-7.5 9.5,-4 9.5,-1.5 10,1.5 9.5,4.5 10,8.5 9.5,11.5 10,15.5 9.5,18 10,21 9.5,22.5 10,24 10,24.5 9.5,26 10,26 2,6.5"
         style="fill:none;stroke:#ff0000;stroke-width:1.25;stroke-linecap:butt;stroke-linejoin:miter;stroke-miterlimit:3.79999995;stroke-dasharray:none;stroke-opacity:1"
         id="path168"
         inkscape:connector-curvature="0" /><path
         d="M 301,2435.5 V 140 h 1372.5 v 2295.5 z"
         style="fill:none;stroke:#000000;stroke-width:5;stroke-linecap:butt;stroke-linejoin:miter;stroke-miterlimit:3.79999995;stroke-dasharray:none;stroke-opacity:1"
         id="path170"
         inkscape:connector-curvature="0" /></g></g></svg>