<svg width="1984" height="1429" xmlns="http://www.w3.org/2000/svg" xmlns:xlink="http://www.w3.org/1999/xlink" overflow="hidden"><defs><clipPath id="clip0"><rect x="638" y="354" width="1984" height="1429"/></clipPath></defs><g clip-path="url(#clip0)" transform="translate(-638 -354)"><path d="M638.5 354.5 2621.5 354.5 2621.5 1782.5 638.5 1782.5Z" stroke="#000000" stroke-width="0.600164" stroke-linecap="round" stroke-linejoin="round" stroke-miterlimit="10" fill="none" fill-rule="evenodd"/><path d="M1010.5 1593.5 1027.5 1593.5" stroke="#000000" stroke-width="3.0001" stroke-linecap="round" stroke-linejoin="round" stroke-miterlimit="10" fill="none" fill-rule="evenodd"/><path d="M2537.5 1593.5 2520.5 1593.5" stroke="#000000" stroke-width="3.0001" stroke-linecap="round" stroke-linejoin="round" stroke-miterlimit="10" fill="none" fill-rule="evenodd"/><path d="M814.5 1599.5 814.5 1595.5 828.5 1595.5 828.5 1599.5 814.5 1599.5Z" stroke="#000000" stroke-width="0.600164" stroke-linecap="round" stroke-linejoin="round" stroke-miterlimit="10" fill-rule="evenodd"/><path d="M847.5 1610.5 843.166 1610.5 843.166 1582.44 841.309 1583.65 838.834 1585.48 836.357 1586.7 834.5 1587.93 834.5 1583.65 837.595 1581.21 840.691 1579.38 843.166 1576.94 844.405 1574.5 847.5 1574.5 847.5 1610.5Z" stroke="#000000" stroke-width="0.600164" stroke-linecap="round" stroke-linejoin="round" stroke-miterlimit="10" fill-rule="evenodd"/><path d="M881.5 1605.62 881.5 1610.5 858.5 1610.5 859.09 1608.67 859.09 1607.45 860.269 1605.01 862.038 1602.57 863.218 1600.74 864.987 1598.91 867.346 1597.08 869.705 1594.64 872.064 1592.81 873.244 1590.98 874.423 1589.15 876.192 1586.7 876.782 1584.27 876.192 1583.04 875.602 1581.21 875.013 1579.99 873.244 1579.38 872.064 1578.77 870.294 1578.77 868.525 1578.77 866.756 1579.38 865.577 1579.99 864.398 1581.21 863.808 1583.04 863.808 1584.87 859.09 1584.27 859.679 1581.21 860.859 1578.77 862.628 1576.94 864.987 1575.72 867.346 1574.5 870.294 1574.5 873.244 1574.5 876.192 1575.72 877.961 1576.94 879.73 1579.38 880.91 1581.82 880.91 1584.27 880.91 1586.7 880.32 1588.53 879.14 1590.36 877.961 1592.81 876.192 1594.64 873.833 1596.47 871.474 1598.91 869.115 1600.74 867.346 1602.57 866.756 1603.18 864.398 1605.62 881.5 1605.62Z" stroke="#000000" stroke-width="0.600164" stroke-linecap="round" stroke-linejoin="round" stroke-miterlimit="10" fill-rule="evenodd"/><path d="M887.5 1579.72 887.5 1575.5 910.5 1575.5 910.5 1579.12 906.869 1583.34 903.843 1588.77 899.001 1600.85 897.185 1610.5 892.342 1610.5 892.948 1605.67 894.158 1600.24 899.001 1589.38 902.027 1583.95 905.658 1579.72 887.5 1579.72Z" stroke="#000000" stroke-width="0.600164" stroke-linecap="round" stroke-linejoin="round" stroke-miterlimit="10" fill-rule="evenodd"/><path d="M929.5 1610.5 924.929 1610.5 924.929 1582.44 923.215 1583.65 921.5 1585.48 919.214 1586.7 917.5 1587.93 917.5 1583.65 920.358 1581.21 923.215 1579.38 925.501 1576.94 926.643 1574.5 929.5 1574.5 929.5 1610.5Z" stroke="#000000" stroke-width="0.600164" stroke-linecap="round" stroke-linejoin="round" stroke-miterlimit="10" fill-rule="evenodd"/><path d="M943.5 1610.5 943.5 1605.5 948.5 1605.5 948.5 1610.5 943.5 1610.5Z" stroke="#000000" stroke-width="0.600164" stroke-linecap="round" stroke-linejoin="round" stroke-miterlimit="10" fill-rule="evenodd"/><path d="M977.5 1605.62 977.5 1610.5 954.5 1610.5 954.5 1608.67 955.089 1607.45 956.269 1605.01 957.448 1602.57 959.218 1600.74 960.987 1598.91 963.346 1597.08 965.705 1594.64 968.064 1592.81 969.243 1590.98 970.423 1589.15 972.192 1586.7 972.192 1584.27 972.192 1583.04 971.602 1581.21 970.423 1579.99 969.243 1579.38 968.064 1578.77 966.295 1578.77 964.526 1578.77 962.756 1579.38 961.577 1579.99 960.397 1581.21 959.808 1583.04 959.808 1584.87 955.089 1584.27 955.679 1581.21 956.858 1578.77 958.628 1576.94 960.397 1575.72 963.346 1574.5 966.295 1574.5 969.243 1574.5 972.192 1575.72 973.962 1576.94 975.731 1579.38 976.91 1581.82 976.91 1584.27 976.91 1586.7 976.32 1588.53 975.141 1590.36 973.372 1592.81 972.192 1594.64 969.833 1596.47 967.474 1598.91 965.116 1600.74 963.346 1602.57 962.166 1603.18 960.397 1605.62 977.5 1605.62Z" stroke="#000000" stroke-width="0.600164" stroke-linecap="round" stroke-linejoin="round" stroke-miterlimit="10" fill-rule="evenodd"/><path d="M1010.5 1475.5 1027.5 1475.5" stroke="#000000" stroke-width="3.0001" stroke-linecap="round" stroke-linejoin="round" stroke-miterlimit="10" fill="none" fill-rule="evenodd"/><path d="M2537.5 1475.5 2520.5 1475.5" stroke="#000000" stroke-width="3.0001" stroke-linecap="round" stroke-linejoin="round" stroke-miterlimit="10" fill="none" fill-rule="evenodd"/><path d="M787.5 1481.5 787.5 1477.5 800.5 1477.5 800.5 1481.5 787.5 1481.5Z" stroke="#000000" stroke-width="0.600164" stroke-linecap="round" stroke-linejoin="round" stroke-miterlimit="10" fill-rule="evenodd"/><path d="M820.5 1492.5 815.773 1492.5 815.773 1464.43 814 1465.65 812.228 1467.48 809.864 1468.71 807.5 1469.31 807.5 1465.05 811.045 1463.22 814 1460.77 815.773 1458.33 817.546 1456.5 820.5 1456.5 820.5 1492.5Z" stroke="#000000" stroke-width="0.600164" stroke-linecap="round" stroke-linejoin="round" stroke-miterlimit="10" fill-rule="evenodd"/><path d="M854.5 1487.61 854.5 1492.5 831.5 1492.5 831.5 1490.67 832.09 1489.44 832.679 1486.4 834.448 1483.95 835.628 1482.74 837.398 1480.91 839.756 1479.08 842.706 1476.63 844.475 1474.2 846.244 1472.97 847.423 1471.14 848.602 1468.71 849.192 1466.26 849.192 1464.43 848.602 1463.22 847.423 1461.99 846.244 1461.39 844.475 1460.77 842.706 1460.16 840.936 1460.77 839.756 1461.39 837.987 1461.99 837.398 1463.22 836.808 1465.05 836.218 1466.88 832.09 1466.26 832.679 1463.22 833.859 1460.77 835.038 1458.94 837.398 1457.11 839.756 1456.5 843.295 1456.5 846.244 1456.5 848.602 1457.73 850.962 1458.94 852.731 1461.39 853.321 1463.22 853.91 1466.26 853.321 1468.09 852.731 1470.54 852.141 1472.37 850.372 1474.8 848.602 1476.63 846.833 1478.46 843.885 1480.91 842.116 1482.74 840.346 1484.57 839.167 1485.18 837.398 1487.61 854.5 1487.61Z" stroke="#000000" stroke-width="0.600164" stroke-linecap="round" stroke-linejoin="round" stroke-miterlimit="10" fill-rule="evenodd"/><path d="M859.5 1461.39 859.5 1456.5 882.5 1456.5 882.5 1460.77 879.473 1465.05 875.842 1470.54 871 1482.74 869.184 1492.5 864.947 1492.5 865.553 1487.61 866.763 1482.12 871 1470.54 874.632 1465.65 877.657 1461.39 859.5 1461.39Z" stroke="#000000" stroke-width="0.600164" stroke-linecap="round" stroke-linejoin="round" stroke-miterlimit="10" fill-rule="evenodd"/><path d="M902.5 1492.5 898.166 1492.5 898.166 1464.43 896.309 1465.65 893.833 1467.48 891.357 1468.71 889.5 1469.31 889.5 1465.05 893.214 1463.22 895.69 1460.77 898.166 1458.33 900.024 1456.5 902.5 1456.5 902.5 1492.5Z" stroke="#000000" stroke-width="0.600164" stroke-linecap="round" stroke-linejoin="round" stroke-miterlimit="10" fill-rule="evenodd"/><path d="M916.5 1492.5 916.5 1487.5 920.5 1487.5 920.5 1492.5 916.5 1492.5Z" stroke="#000000" stroke-width="0.600164" stroke-linecap="round" stroke-linejoin="round" stroke-miterlimit="10" fill-rule="evenodd"/><path d="M943.5 1492.5 938.928 1492.5 938.928 1464.43 937.785 1465.65 935.5 1467.48 933.214 1468.71 931.5 1469.31 931.5 1465.05 934.357 1463.22 937.214 1460.77 939.5 1458.33 940.643 1456.5 943.5 1456.5 943.5 1492.5Z" stroke="#000000" stroke-width="0.600164" stroke-linecap="round" stroke-linejoin="round" stroke-miterlimit="10" fill-rule="evenodd"/><path d="M961.869 1472.11 959.553 1470.9 957.816 1469.1 956.659 1467.3 956.659 1464.91 956.659 1462.5 957.816 1460.7 959.553 1458.9 961.29 1457.1 963.606 1456.5 966.5 1456.5 969.395 1456.5 971.711 1457.1 973.447 1458.9 975.184 1460.7 976.342 1463.11 976.342 1464.91 976.342 1467.3 975.184 1469.1 973.447 1470.9 971.132 1472.11 972.868 1472.7 974.605 1473.91 975.764 1475.71 976.921 1477.51 977.5 1479.31 977.5 1481.11 976.921 1484.1 976.342 1487.1 974.605 1488.9 972.29 1490.7 969.395 1491.91 966.5 1492.5 963.606 1491.91 960.711 1490.7 958.396 1488.9 956.659 1487.1 956.079 1484.1 955.5 1481.11 955.5 1479.31 956.079 1476.9 957.237 1475.1 958.396 1473.91 960.132 1472.7 961.869 1472.11ZM961.29 1464.91 961.29 1467.3 962.447 1468.51 963.606 1469.7 964.763 1469.7 966.5 1470.31 968.237 1469.7 969.395 1469.7 970.553 1468.51 971.711 1467.3 971.711 1465.5 971.711 1463.11 970.553 1461.9 969.395 1460.7 968.237 1460.7 966.5 1460.1 964.763 1460.7 963.606 1460.7 962.447 1461.9 961.29 1463.11 961.29 1464.91ZM960.132 1481.11 960.132 1482.91 960.711 1484.71 961.869 1485.9 963.027 1487.1 964.763 1487.7 966.5 1488.31 968.237 1487.7 969.974 1487.1 971.132 1486.51 972.29 1484.71 972.868 1482.91 972.868 1481.11 972.868 1479.31 972.29 1477.51 971.132 1476.3 969.974 1475.1 968.237 1474.5 966.5 1474.5 964.763 1474.5 963.027 1475.1 961.869 1476.3 960.711 1477.51 960.132 1479.31 960.132 1481.11Z" stroke="#000000" stroke-width="0.600164" stroke-linecap="round" stroke-linejoin="round" stroke-miterlimit="10" fill-rule="evenodd"/><path d="M1010.5 1357.5 1027.5 1357.5" stroke="#000000" stroke-width="3.0001" stroke-linecap="round" stroke-linejoin="round" stroke-miterlimit="10" fill="none" fill-rule="evenodd"/><path d="M2537.5 1357.5 2520.5 1357.5" stroke="#000000" stroke-width="3.0001" stroke-linecap="round" stroke-linejoin="round" stroke-miterlimit="10" fill="none" fill-rule="evenodd"/><path d="M787.5 1363.5 787.5 1358.5 800.5 1358.5 800.5 1363.5 787.5 1363.5Z" stroke="#000000" stroke-width="0.600164" stroke-linecap="round" stroke-linejoin="round" stroke-miterlimit="10" fill-rule="evenodd"/><path d="M820.5 1373.5 815.773 1373.5 815.773 1346.22 814 1348 812.228 1349.18 809.864 1350.36 807.5 1351.56 807.5 1347.4 811.045 1345.62 814 1343.24 815.773 1340.88 817.546 1338.5 820.5 1338.5 820.5 1373.5Z" stroke="#000000" stroke-width="0.600164" stroke-linecap="round" stroke-linejoin="round" stroke-miterlimit="10" fill-rule="evenodd"/><path d="M854.5 1368.76 854.5 1373.5 831.5 1373.5 831.5 1372.32 832.09 1370.54 832.679 1368.16 834.448 1365.79 835.628 1364.01 837.398 1362.23 839.756 1360.45 842.706 1358.08 844.475 1356.3 846.244 1354.52 847.423 1353.33 848.602 1350.36 849.192 1348 849.192 1346.8 848.602 1345.62 847.423 1344.44 846.244 1343.24 844.475 1342.66 842.706 1342.66 840.936 1342.66 839.756 1343.24 837.987 1344.44 837.398 1345.62 836.808 1346.8 836.218 1348.58 832.09 1348 832.679 1345.02 833.859 1342.66 835.038 1340.88 837.398 1339.68 839.756 1338.5 843.295 1338.5 846.244 1338.5 848.602 1339.68 850.962 1341.46 852.731 1343.24 853.321 1345.62 853.91 1348 853.321 1350.36 852.731 1352.14 852.141 1354.52 850.372 1356.3 848.602 1358.08 846.833 1360.45 843.885 1362.82 842.116 1364.6 840.346 1365.79 839.167 1366.98 837.398 1368.76 854.5 1368.76Z" stroke="#000000" stroke-width="0.600164" stroke-linecap="round" stroke-linejoin="round" stroke-miterlimit="10" fill-rule="evenodd"/><path d="M859.5 1344.19 859.5 1339.5 882.5 1339.5 882.5 1343.02 879.473 1347.12 875.842 1352.39 871 1364.13 869.184 1373.5 864.947 1373.5 865.553 1369.4 866.763 1364.13 871 1352.98 874.632 1347.71 877.657 1344.19 859.5 1344.19Z" stroke="#000000" stroke-width="0.600164" stroke-linecap="round" stroke-linejoin="round" stroke-miterlimit="10" fill-rule="evenodd"/><path d="M902.5 1373.5 898.166 1373.5 898.166 1346.22 896.309 1348 893.833 1349.18 891.357 1350.36 889.5 1351.56 889.5 1347.4 893.214 1345.62 895.69 1343.24 898.166 1340.88 900.024 1338.5 902.5 1338.5 902.5 1373.5Z" stroke="#000000" stroke-width="0.600164" stroke-linecap="round" stroke-linejoin="round" stroke-miterlimit="10" fill-rule="evenodd"/><path d="M916.5 1373.5 916.5 1369.5 920.5 1369.5 920.5 1373.5 916.5 1373.5Z" stroke="#000000" stroke-width="0.600164" stroke-linecap="round" stroke-linejoin="round" stroke-miterlimit="10" fill-rule="evenodd"/><path d="M943.5 1373.5 938.928 1373.5 938.928 1346.22 937.785 1348 935.5 1349.18 933.214 1350.36 931.5 1351.56 931.5 1347.4 934.357 1345.62 937.214 1343.24 939.5 1340.88 940.643 1338.5 943.5 1338.5 943.5 1373.5Z" stroke="#000000" stroke-width="0.600164" stroke-linecap="round" stroke-linejoin="round" stroke-miterlimit="10" fill-rule="evenodd"/><path d="M977.901 1347.5 973.1 1348.1 972.501 1345.7 971.9 1344.5 970.101 1343.3 968.901 1342.7 967.1 1342.7 965.301 1342.7 963.5 1343.9 961.7 1345.1 960.5 1347.5 959.9 1349.9 959.3 1352.3 959.3 1355.3 961.1 1353.5 962.9 1351.7 965.301 1351.1 967.7 1351.1 970.701 1351.1 973.1 1352.3 975.5 1354.1 977.301 1356.5 977.901 1358.9 978.501 1362.5 977.901 1365.5 976.7 1368.5 976.101 1370.3 974.301 1372.1 973.1 1373.3 970.101 1373.9 967.1 1374.5 964.7 1374.5 962.3 1373.3 959.9 1372.1 958.1 1370.3 955.7 1365.5 954.5 1357.1 955.7 1348.7 958.7 1342.7 960.5 1340.9 962.3 1339.7 964.7 1338.5 967.7 1338.5 970.101 1338.5 972.501 1339.7 974.9 1340.9 976.101 1342.7 977.301 1345.1 977.901 1347.5ZM959.3 1362.5 959.3 1364.3 960.5 1366.1 961.7 1367.9 962.9 1369.1 964.7 1370.3 966.5 1370.3 968.901 1370.3 970.701 1369.7 971.9 1368.5 973.1 1366.7 973.701 1364.9 973.701 1362.5 973.701 1360.1 973.1 1358.3 971.9 1357.1 970.701 1355.9 968.901 1355.3 966.5 1354.7 964.7 1355.3 962.9 1355.9 961.7 1357.1 960.5 1358.3 959.3 1360.1 959.3 1362.5Z" stroke="#000000" stroke-width="0.600164" stroke-linecap="round" stroke-linejoin="round" stroke-miterlimit="10" fill-rule="evenodd"/><path d="M1010.5 1239.5 1027.5 1239.5" stroke="#000000" stroke-width="3.0001" stroke-linecap="round" stroke-linejoin="round" stroke-miterlimit="10" fill="none" fill-rule="evenodd"/><path d="M2537.5 1239.5 2520.5 1239.5" stroke="#000000" stroke-width="3.0001" stroke-linecap="round" stroke-linejoin="round" stroke-miterlimit="10" fill="none" fill-rule="evenodd"/><path d="M787.5 1245.5 787.5 1241.5 800.5 1241.5 800.5 1245.5 787.5 1245.5Z" stroke="#000000" stroke-width="0.600164" stroke-linecap="round" stroke-linejoin="round" stroke-miterlimit="10" fill-rule="evenodd"/><path d="M820.5 1256.5 815.773 1256.5 815.773 1228.43 814 1229.65 812.228 1231.48 809.864 1232.7 807.5 1233.92 807.5 1229.65 811.045 1227.21 814 1225.38 815.773 1222.94 817.546 1220.5 820.5 1220.5 820.5 1256.5Z" stroke="#000000" stroke-width="0.600164" stroke-linecap="round" stroke-linejoin="round" stroke-miterlimit="10" fill-rule="evenodd"/><path d="M854.5 1251.62 854.5 1256.5 831.5 1256.5 831.5 1254.67 832.09 1253.45 832.679 1251.01 834.448 1248.57 835.628 1246.74 837.398 1244.9 839.756 1243.07 842.706 1240.63 844.475 1238.8 846.244 1236.97 847.423 1235.14 848.602 1232.7 849.192 1230.26 849.192 1229.04 848.602 1227.21 847.423 1225.99 846.244 1225.38 844.475 1224.77 842.706 1224.77 840.936 1224.77 839.756 1225.38 837.987 1225.99 837.398 1227.21 836.808 1229.04 836.218 1230.87 832.09 1230.26 832.679 1227.21 833.859 1224.77 835.038 1222.94 837.398 1221.72 839.756 1220.5 843.295 1220.5 846.244 1220.5 848.602 1221.72 850.962 1222.94 852.731 1225.38 853.321 1227.82 853.91 1230.26 853.321 1232.7 852.731 1234.53 852.141 1236.97 850.372 1238.8 848.602 1240.63 846.833 1242.46 843.885 1244.9 842.116 1246.74 840.346 1248.57 839.167 1249.79 837.398 1251.62 854.5 1251.62Z" stroke="#000000" stroke-width="0.600164" stroke-linecap="round" stroke-linejoin="round" stroke-miterlimit="10" fill-rule="evenodd"/><path d="M859.5 1225.72 859.5 1221.5 882.5 1221.5 882.5 1225.12 879.473 1229.34 875.842 1234.78 871 1246.84 869.184 1256.5 864.947 1256.5 865.553 1251.67 866.763 1246.24 871 1235.38 874.632 1229.95 877.657 1225.72 859.5 1225.72Z" stroke="#000000" stroke-width="0.600164" stroke-linecap="round" stroke-linejoin="round" stroke-miterlimit="10" fill-rule="evenodd"/><path d="M902.5 1256.5 898.166 1256.5 898.166 1228.43 896.309 1229.65 893.833 1231.48 891.357 1232.7 889.5 1233.92 889.5 1229.65 893.214 1227.21 895.69 1225.38 898.166 1222.94 900.024 1220.5 902.5 1220.5 902.5 1256.5Z" stroke="#000000" stroke-width="0.600164" stroke-linecap="round" stroke-linejoin="round" stroke-miterlimit="10" fill-rule="evenodd"/><path d="M916.5 1256.5 916.5 1251.5 920.5 1251.5 920.5 1256.5 916.5 1256.5Z" stroke="#000000" stroke-width="0.600164" stroke-linecap="round" stroke-linejoin="round" stroke-miterlimit="10" fill-rule="evenodd"/><path d="M943.5 1256.5 938.928 1256.5 938.928 1228.43 937.785 1229.65 935.5 1231.48 933.214 1232.7 931.5 1233.92 931.5 1229.65 934.357 1227.21 937.214 1225.38 939.5 1222.94 940.643 1220.5 943.5 1220.5 943.5 1256.5Z" stroke="#000000" stroke-width="0.600164" stroke-linecap="round" stroke-linejoin="round" stroke-miterlimit="10" fill-rule="evenodd"/><path d="M969.354 1256.5 969.354 1248.05 953.5 1248.05 953.5 1243.83 970.574 1221.5 974.233 1221.5 974.233 1243.83 978.501 1243.83 978.501 1248.05 974.233 1248.05 974.233 1256.5 969.354 1256.5ZM969.354 1243.83 969.354 1229.95 958.988 1243.83 969.354 1243.83Z" stroke="#000000" stroke-width="0.600164" stroke-linecap="round" stroke-linejoin="round" stroke-miterlimit="10" fill-rule="evenodd"/><path d="M1010.5 1121.5 1027.5 1121.5" stroke="#000000" stroke-width="3.0001" stroke-linecap="round" stroke-linejoin="round" stroke-miterlimit="10" fill="none" fill-rule="evenodd"/><path d="M2537.5 1121.5 2520.5 1121.5" stroke="#000000" stroke-width="3.0001" stroke-linecap="round" stroke-linejoin="round" stroke-miterlimit="10" fill="none" fill-rule="evenodd"/><path d="M787.5 1126.5 787.5 1122.5 800.5 1122.5 800.5 1126.5 787.5 1126.5Z" stroke="#000000" stroke-width="0.600164" stroke-linecap="round" stroke-linejoin="round" stroke-miterlimit="10" fill-rule="evenodd"/><path d="M820.5 1137.5 815.773 1137.5 815.773 1110.21 814 1111.99 812.228 1113.18 809.864 1114.36 807.5 1115.55 807.5 1111.4 811.045 1109.62 814 1107.25 815.773 1104.87 817.546 1102.5 820.5 1102.5 820.5 1137.5Z" stroke="#000000" stroke-width="0.600164" stroke-linecap="round" stroke-linejoin="round" stroke-miterlimit="10" fill-rule="evenodd"/><path d="M854.5 1133.35 854.5 1137.5 831.5 1137.5 831.5 1136.31 832.09 1134.53 832.679 1132.16 834.448 1129.79 835.628 1128.01 837.398 1126.23 839.756 1124.45 842.706 1122.08 844.475 1120.3 846.244 1118.52 847.423 1117.33 848.602 1114.96 849.192 1112.58 849.192 1110.8 848.602 1109.62 847.423 1108.43 846.244 1107.25 844.475 1106.65 842.706 1106.65 840.936 1106.65 839.756 1107.25 837.987 1108.43 837.398 1109.62 836.808 1110.8 836.218 1112.58 832.09 1111.99 832.679 1109.62 833.859 1107.25 835.038 1104.87 837.398 1103.69 839.756 1103.09 843.295 1102.5 846.244 1103.09 848.602 1103.69 850.962 1105.47 852.731 1107.25 853.321 1109.62 853.91 1111.99 853.321 1114.36 852.731 1116.14 852.141 1118.52 850.372 1120.89 848.602 1122.08 846.833 1124.45 843.885 1126.82 842.116 1128.6 840.346 1129.79 839.167 1130.97 837.398 1133.35 854.5 1133.35Z" stroke="#000000" stroke-width="0.600164" stroke-linecap="round" stroke-linejoin="round" stroke-miterlimit="10" fill-rule="evenodd"/><path d="M859.5 1107.33 859.5 1102.5 882.5 1102.5 882.5 1106.12 879.473 1110.34 875.842 1115.78 871 1127.85 869.184 1137.5 864.947 1137.5 865.553 1133.28 866.763 1127.85 871 1116.38 874.632 1111.55 877.657 1107.33 859.5 1107.33Z" stroke="#000000" stroke-width="0.600164" stroke-linecap="round" stroke-linejoin="round" stroke-miterlimit="10" fill-rule="evenodd"/><path d="M902.5 1137.5 898.166 1137.5 898.166 1110.21 896.309 1111.99 893.833 1113.18 891.357 1114.36 889.5 1115.55 889.5 1111.4 893.214 1109.62 895.69 1107.25 898.166 1104.87 900.024 1102.5 902.5 1102.5 902.5 1137.5Z" stroke="#000000" stroke-width="0.600164" stroke-linecap="round" stroke-linejoin="round" stroke-miterlimit="10" fill-rule="evenodd"/><path d="M916.5 1137.5 916.5 1133.5 920.5 1133.5 920.5 1137.5 916.5 1137.5Z" stroke="#000000" stroke-width="0.600164" stroke-linecap="round" stroke-linejoin="round" stroke-miterlimit="10" fill-rule="evenodd"/><path d="M943.5 1137.5 938.928 1137.5 938.928 1110.21 937.785 1111.99 935.5 1113.18 933.214 1114.36 931.5 1115.55 931.5 1111.4 934.357 1109.62 937.214 1107.25 939.5 1104.87 940.643 1102.5 943.5 1102.5 943.5 1137.5Z" stroke="#000000" stroke-width="0.600164" stroke-linecap="round" stroke-linejoin="round" stroke-miterlimit="10" fill-rule="evenodd"/><path d="M977.5 1133.35 977.5 1137.5 954.5 1137.5 954.5 1136.31 955.089 1134.53 956.269 1132.16 957.448 1129.79 959.218 1128.01 960.987 1126.23 963.346 1124.45 965.705 1122.08 968.064 1120.3 969.243 1118.52 970.423 1117.33 972.192 1114.96 972.192 1112.58 972.192 1110.8 971.602 1109.62 970.423 1108.43 969.243 1107.25 968.064 1106.65 966.295 1106.65 964.526 1106.65 962.756 1107.25 961.577 1108.43 960.397 1109.62 959.808 1110.8 959.808 1112.58 955.089 1111.99 955.679 1109.62 956.858 1107.25 958.628 1104.87 960.397 1103.69 963.346 1103.09 966.295 1102.5 969.243 1103.09 972.192 1103.69 973.962 1105.47 975.731 1107.25 976.91 1109.62 976.91 1111.99 976.91 1114.36 976.32 1116.14 975.141 1118.52 973.372 1120.89 972.192 1122.08 969.833 1124.45 967.474 1126.82 965.116 1128.6 963.346 1129.79 962.166 1130.97 960.397 1133.35 977.5 1133.35Z" stroke="#000000" stroke-width="0.600164" stroke-linecap="round" stroke-linejoin="round" stroke-miterlimit="10" fill-rule="evenodd"/><path d="M1010.5 1003.5 1027.5 1003.5" stroke="#000000" stroke-width="3.0001" stroke-linecap="round" stroke-linejoin="round" stroke-miterlimit="10" fill="none" fill-rule="evenodd"/><path d="M2537.5 1003.5 2520.5 1003.5" stroke="#000000" stroke-width="3.0001" stroke-linecap="round" stroke-linejoin="round" stroke-miterlimit="10" fill="none" fill-rule="evenodd"/><path d="M814.5 1009.5 814.5 1004.5 828.5 1004.5 828.5 1009.5 814.5 1009.5Z" stroke="#000000" stroke-width="0.600164" stroke-linecap="round" stroke-linejoin="round" stroke-miterlimit="10" fill-rule="evenodd"/><path d="M847.5 1020.5 843.166 1020.5 843.166 992.433 841.309 994.263 838.834 995.483 836.357 996.704 834.5 997.924 834.5 993.652 837.595 991.822 840.691 989.382 843.166 986.941 844.405 984.5 847.5 984.5 847.5 1020.5Z" stroke="#000000" stroke-width="0.600164" stroke-linecap="round" stroke-linejoin="round" stroke-miterlimit="10" fill-rule="evenodd"/><path d="M881.5 1016.23 881.5 1020.5 858.5 1020.5 859.09 1019.28 859.09 1017.45 860.269 1015.01 862.038 1012.57 863.218 1010.74 864.987 1008.91 867.346 1007.08 869.705 1004.64 872.064 1002.8 873.244 1000.97 874.423 999.754 876.192 996.704 876.782 994.263 876.192 993.043 875.602 991.822 875.013 990.602 873.244 989.382 872.064 988.771 870.294 988.771 868.525 988.771 866.756 989.382 865.577 990.602 864.398 991.822 863.808 993.043 863.808 994.873 859.09 994.263 859.679 991.212 860.859 988.771 862.628 986.941 864.987 985.721 867.346 984.5 870.294 984.5 873.244 984.5 876.192 985.721 877.961 987.552 879.73 989.382 880.91 991.822 880.91 994.263 880.91 996.704 880.32 998.534 879.14 1000.97 877.961 1002.8 876.192 1004.64 873.833 1007.08 871.474 1009.52 869.115 1011.35 867.346 1012.57 866.756 1013.79 864.398 1016.23 881.5 1016.23Z" stroke="#000000" stroke-width="0.600164" stroke-linecap="round" stroke-linejoin="round" stroke-miterlimit="10" fill-rule="evenodd"/><path d="M887.5 990.327 887.5 985.5 910.5 985.5 910.5 989.121 906.869 993.345 903.843 998.776 899.001 1010.85 897.185 1020.5 892.342 1020.5 892.948 1016.28 894.158 1010.85 899.001 999.379 902.027 993.948 905.658 990.327 887.5 990.327Z" stroke="#000000" stroke-width="0.600164" stroke-linecap="round" stroke-linejoin="round" stroke-miterlimit="10" fill-rule="evenodd"/><path d="M929.5 1020.5 924.929 1020.5 924.929 992.433 923.215 994.263 921.5 995.483 919.214 996.704 917.5 997.924 917.5 993.652 920.358 991.822 923.215 989.382 925.501 986.941 926.643 984.5 929.5 984.5 929.5 1020.5Z" stroke="#000000" stroke-width="0.600164" stroke-linecap="round" stroke-linejoin="round" stroke-miterlimit="10" fill-rule="evenodd"/><path d="M943.5 1020.5 943.5 1015.5 948.5 1015.5 948.5 1020.5 943.5 1020.5Z" stroke="#000000" stroke-width="0.600164" stroke-linecap="round" stroke-linejoin="round" stroke-miterlimit="10" fill-rule="evenodd"/><path d="M971.5 1020.5 966.773 1020.5 966.773 992.433 965 994.263 963.227 995.483 960.863 996.704 958.5 997.924 958.5 993.652 962.046 991.822 965 989.382 966.773 986.941 968.546 984.5 971.5 984.5 971.5 1020.5Z" stroke="#000000" stroke-width="0.600164" stroke-linecap="round" stroke-linejoin="round" stroke-miterlimit="10" fill-rule="evenodd"/><path d="M1010.5 885.5 1027.5 885.5" stroke="#000000" stroke-width="3.0001" stroke-linecap="round" stroke-linejoin="round" stroke-miterlimit="10" fill="none" fill-rule="evenodd"/><path d="M2537.5 885.5 2520.5 885.5" stroke="#000000" stroke-width="3.0001" stroke-linecap="round" stroke-linejoin="round" stroke-miterlimit="10" fill="none" fill-rule="evenodd"/><path d="M787.5 891.5 787.5 887.5 800.5 887.5 800.5 891.5 787.5 891.5Z" stroke="#000000" stroke-width="0.600164" stroke-linecap="round" stroke-linejoin="round" stroke-miterlimit="10" fill-rule="evenodd"/><path d="M820.5 902.5 815.773 902.5 815.773 874.432 814 875.653 812.228 877.483 809.864 878.703 807.5 879.923 807.5 875.653 811.045 873.212 814 871.381 815.773 868.94 817.546 866.5 820.5 866.5 820.5 902.5Z" stroke="#000000" stroke-width="0.600164" stroke-linecap="round" stroke-linejoin="round" stroke-miterlimit="10" fill-rule="evenodd"/><path d="M854.5 897.619 854.5 902.5 831.5 902.5 831.5 900.67 832.09 899.449 832.679 897.009 834.448 894.568 835.628 892.737 837.398 890.907 839.756 889.076 842.706 886.636 844.475 884.805 846.244 882.975 847.423 881.754 848.602 878.703 849.192 876.262 849.192 875.042 848.602 873.212 847.423 871.992 846.244 871.381 844.475 870.771 842.706 870.771 840.936 870.771 839.756 871.381 837.987 871.992 837.398 873.212 836.808 875.042 836.218 876.873 832.09 876.262 832.679 873.212 833.859 870.771 835.038 868.94 837.398 867.72 839.756 866.5 843.295 866.5 846.244 866.5 848.602 867.72 850.962 868.94 852.731 871.381 853.321 873.822 853.91 876.262 853.321 878.703 852.731 880.534 852.141 882.975 850.372 884.805 848.602 886.636 846.833 888.466 843.885 890.907 842.116 893.347 840.346 894.568 839.167 895.788 837.398 897.619 854.5 897.619Z" stroke="#000000" stroke-width="0.600164" stroke-linecap="round" stroke-linejoin="round" stroke-miterlimit="10" fill-rule="evenodd"/><path d="M859.5 871.724 859.5 867.5 882.5 867.5 882.5 871.121 879.473 875.345 875.842 880.776 871 892.845 869.184 902.5 864.947 902.5 865.553 897.673 866.763 892.242 871 881.38 874.632 875.949 877.657 871.724 859.5 871.724Z" stroke="#000000" stroke-width="0.600164" stroke-linecap="round" stroke-linejoin="round" stroke-miterlimit="10" fill-rule="evenodd"/><path d="M902.5 902.5 898.166 902.5 898.166 874.432 896.309 875.653 893.833 877.483 891.357 878.703 889.5 879.923 889.5 875.653 893.214 873.212 895.69 871.381 898.166 868.94 900.024 866.5 902.5 866.5 902.5 902.5Z" stroke="#000000" stroke-width="0.600164" stroke-linecap="round" stroke-linejoin="round" stroke-miterlimit="10" fill-rule="evenodd"/><path d="M916.5 902.5 916.5 897.5 920.5 897.5 920.5 902.5 916.5 902.5Z" stroke="#000000" stroke-width="0.600164" stroke-linecap="round" stroke-linejoin="round" stroke-miterlimit="10" fill-rule="evenodd"/><path d="M928.5 884.5 928.5 878.5 929.658 874.299 930.237 871.9 931.973 870.1 933.132 868.3 934.869 867.1 937.184 866.5 939.5 866.5 941.816 866.5 944.711 867.7 946.447 868.899 947.605 870.7 948.763 873.1 949.921 876.1 950.5 878.5 950.5 880.9 950.5 884.5 950.5 889.9 949.341 894.7 948.184 897.1 947.026 898.9 945.868 900.7 944.131 901.299 941.816 902.5 939.5 902.5 937.184 902.5 934.869 901.9 933.132 900.7 931.395 898.9 929.079 892.9 928.5 884.5ZM932.553 884.5 933.132 891.7 934.869 895.9 936.027 897.1 937.763 898.3 939.5 898.3 941.237 898.3 942.974 897.1 944.131 895.9 945.868 891.7 946.447 884.5 945.868 877.3 944.131 873.1 942.974 871.9 941.237 870.7 939.5 870.7 937.763 870.7 936.027 871.3 934.869 873.1 933.132 877.3 932.553 884.5Z" stroke="#000000" stroke-width="0.600164" stroke-linecap="round" stroke-linejoin="round" stroke-miterlimit="10" fill-rule="evenodd"/><path d="M961.869 882.1 959.553 880.9 957.816 879.7 956.659 877.3 956.659 875.5 956.659 873.1 957.816 870.7 959.553 868.899 961.29 867.7 963.606 866.5 966.5 866.5 969.395 866.5 971.711 867.7 973.447 868.899 975.184 870.7 976.342 873.1 976.342 875.5 976.342 877.3 975.184 879.7 973.447 880.9 971.132 882.1 972.868 883.299 974.605 884.5 975.764 885.7 976.921 887.5 977.5 889.3 977.5 891.7 976.921 894.7 976.342 897.1 974.605 899.5 972.29 901.299 969.395 901.9 966.5 902.5 963.606 901.9 960.711 901.299 958.396 899.5 956.659 897.1 956.079 894.099 955.5 891.1 955.5 889.3 956.079 886.899 957.237 885.7 958.396 883.9 960.132 882.7 961.869 882.1ZM961.29 875.5 961.29 877.3 962.447 879.1 963.606 879.7 964.763 880.3 966.5 880.3 968.237 880.3 969.395 879.7 970.553 879.1 971.711 877.3 971.711 875.5 971.711 873.7 970.553 871.9 969.395 871.3 968.237 870.7 966.5 870.7 964.763 870.7 963.606 871.3 962.447 871.9 961.29 873.7 961.29 875.5ZM960.132 891.1 960.132 892.9 960.711 894.7 961.869 896.5 963.027 897.699 964.763 898.3 966.5 898.3 968.237 898.3 969.974 897.699 971.132 896.5 972.29 894.7 972.868 893.5 972.868 891.7 972.868 889.3 972.29 888.1 971.132 886.3 969.974 885.1 968.237 884.5 966.5 884.5 964.763 884.5 963.027 885.1 961.869 886.3 960.711 888.1 960.132 889.3 960.132 891.1Z" stroke="#000000" stroke-width="0.600164" stroke-linecap="round" stroke-linejoin="round" stroke-miterlimit="10" fill-rule="evenodd"/><path d="M1010.5 767.5 1027.5 767.5" stroke="#000000" stroke-width="3.0001" stroke-linecap="round" stroke-linejoin="round" stroke-miterlimit="10" fill="none" fill-rule="evenodd"/><path d="M2537.5 767.5 2520.5 767.5" stroke="#000000" stroke-width="3.0001" stroke-linecap="round" stroke-linejoin="round" stroke-miterlimit="10" fill="none" fill-rule="evenodd"/><path d="M787.5 773.5 787.5 769.5 800.5 769.5 800.5 773.5 787.5 773.5Z" stroke="#000000" stroke-width="0.600164" stroke-linecap="round" stroke-linejoin="round" stroke-miterlimit="10" fill-rule="evenodd"/><path d="M820.5 783.5 815.773 783.5 815.773 756.212 814 757.992 812.228 759.178 809.864 760.365 807.5 761.551 807.5 757.398 811.045 755.618 814 753.246 815.773 750.873 817.546 748.5 820.5 748.5 820.5 783.5Z" stroke="#000000" stroke-width="0.600164" stroke-linecap="round" stroke-linejoin="round" stroke-miterlimit="10" fill-rule="evenodd"/><path d="M854.5 779.348 854.5 783.5 831.5 783.5 831.5 782.313 832.09 780.533 832.679 778.161 834.448 775.788 835.628 774.009 837.398 772.229 839.756 770.449 842.706 768.076 844.475 766.296 846.244 764.517 847.423 763.331 848.602 760.957 849.192 758.585 849.192 756.806 848.602 755.618 847.423 754.432 846.244 753.246 844.475 752.653 842.706 752.653 840.936 752.653 839.756 753.246 837.987 754.432 837.398 755.618 836.808 756.806 836.218 758.585 832.09 757.992 832.679 755.618 833.859 753.246 835.038 750.873 837.398 749.687 839.756 749.093 843.295 748.5 846.244 749.093 848.602 749.687 850.962 751.467 852.731 753.246 853.321 755.618 853.91 757.992 853.321 760.365 852.731 762.144 852.141 764.517 850.372 766.89 848.602 768.076 846.833 770.449 843.885 772.822 842.116 774.602 840.346 775.788 839.167 776.974 837.398 779.348 854.5 779.348Z" stroke="#000000" stroke-width="0.600164" stroke-linecap="round" stroke-linejoin="round" stroke-miterlimit="10" fill-rule="evenodd"/><path d="M859.5 753.327 859.5 748.5 882.5 748.5 882.5 752.12 879.473 756.345 875.842 761.776 871 773.845 869.184 783.5 864.947 783.5 865.553 779.276 866.763 773.845 871 762.379 874.632 757.552 877.657 753.327 859.5 753.327Z" stroke="#000000" stroke-width="0.600164" stroke-linecap="round" stroke-linejoin="round" stroke-miterlimit="10" fill-rule="evenodd"/><path d="M902.5 783.5 898.166 783.5 898.166 756.212 896.309 757.992 893.833 759.178 891.357 760.365 889.5 761.551 889.5 757.398 893.214 755.618 895.69 753.246 898.166 750.873 900.024 748.5 902.5 748.5 902.5 783.5Z" stroke="#000000" stroke-width="0.600164" stroke-linecap="round" stroke-linejoin="round" stroke-miterlimit="10" fill-rule="evenodd"/><path d="M916.5 783.5 916.5 779.5 920.5 779.5 920.5 783.5 916.5 783.5Z" stroke="#000000" stroke-width="0.600164" stroke-linecap="round" stroke-linejoin="round" stroke-miterlimit="10" fill-rule="evenodd"/><path d="M928.5 766.5 928.5 761.1 929.658 756.3 930.237 753.9 931.973 752.1 933.132 750.3 934.869 749.7 937.184 749.1 939.5 748.5 941.816 749.1 944.711 749.7 946.447 750.9 947.605 753.3 948.763 755.7 949.921 758.1 950.5 760.501 950.5 763.5 950.5 766.5 950.5 772.5 949.341 776.7 948.184 779.1 947.026 781.5 945.868 782.7 944.131 783.901 941.816 784.5 939.5 784.5 937.184 784.5 934.869 783.901 933.132 782.7 931.395 781.5 929.079 775.5 928.5 766.5ZM932.553 766.5 933.132 773.7 934.869 777.9 936.027 779.1 937.763 780.301 939.5 780.301 941.237 780.301 942.974 779.1 944.131 777.9 945.868 773.7 946.447 766.5 945.868 759.9 944.131 755.7 942.974 753.9 941.237 753.3 939.5 752.7 937.763 752.7 936.027 753.9 934.869 755.1 933.132 759.3 932.553 766.5Z" stroke="#000000" stroke-width="0.600164" stroke-linecap="round" stroke-linejoin="round" stroke-miterlimit="10" fill-rule="evenodd"/><path d="M977.901 758.1 973.1 758.1 972.501 756.3 971.9 754.5 970.101 753.3 968.901 752.7 967.1 752.7 965.301 752.7 963.5 753.9 961.7 755.7 960.5 757.5 959.9 759.9 959.3 762.3 959.3 765.901 961.1 763.5 962.9 762.3 965.301 761.1 967.7 761.1 970.701 761.1 973.1 762.3 975.5 764.101 977.301 766.5 977.901 769.501 978.501 772.5 977.901 775.5 976.7 778.501 976.101 780.301 974.301 782.101 973.1 783.3 970.101 784.5 967.1 784.5 964.7 784.5 962.3 783.901 959.9 782.7 958.1 780.9 955.7 775.5 954.5 767.7 955.7 758.7 958.7 752.7 960.5 750.9 962.3 749.7 964.7 749.1 967.7 748.5 970.101 749.1 972.501 749.7 974.9 750.9 976.101 752.7 977.301 755.1 977.901 758.1ZM959.3 772.5 959.3 774.3 960.5 776.7 961.7 778.501 962.9 779.701 964.7 780.301 966.5 780.301 968.901 780.301 970.701 779.701 971.9 778.501 973.1 776.7 973.701 774.901 973.701 772.5 973.701 770.7 973.1 768.9 971.9 767.1 970.701 765.901 968.901 765.3 966.5 765.3 964.7 765.3 962.9 765.901 961.7 767.1 960.5 768.9 959.3 770.1 959.3 772.5Z" stroke="#000000" stroke-width="0.600164" stroke-linecap="round" stroke-linejoin="round" stroke-miterlimit="10" fill-rule="evenodd"/><path d="M1010.5 649.5 1027.5 649.5" stroke="#000000" stroke-width="3.0001" stroke-linecap="round" stroke-linejoin="round" stroke-miterlimit="10" fill="none" fill-rule="evenodd"/><path d="M2537.5 649.5 2520.5 649.5" stroke="#000000" stroke-width="3.0001" stroke-linecap="round" stroke-linejoin="round" stroke-miterlimit="10" fill="none" fill-rule="evenodd"/><path d="M787.5 655.5 787.5 651.5 800.5 651.5 800.5 655.5 787.5 655.5Z" stroke="#000000" stroke-width="0.600164" stroke-linecap="round" stroke-linejoin="round" stroke-miterlimit="10" fill-rule="evenodd"/><path d="M820.5 666.5 815.773 666.5 815.773 638.432 814 640.262 812.228 641.483 809.864 642.703 807.5 643.923 807.5 639.653 811.045 637.822 814 635.381 815.773 632.94 817.546 630.5 820.5 630.5 820.5 666.5Z" stroke="#000000" stroke-width="0.600164" stroke-linecap="round" stroke-linejoin="round" stroke-miterlimit="10" fill-rule="evenodd"/><path d="M854.5 662.229 854.5 666.5 831.5 666.5 831.5 665.28 832.09 663.45 832.679 661.009 834.448 658.568 835.628 656.737 837.398 654.907 839.756 653.076 842.706 650.636 844.475 648.805 846.244 646.975 847.423 645.754 848.602 642.703 849.192 640.262 849.192 639.042 848.602 637.822 847.423 636.601 846.244 635.381 844.475 634.771 842.706 634.771 840.936 634.771 839.756 635.381 837.987 636.601 837.398 637.822 836.808 639.042 836.218 640.873 832.09 640.262 832.679 637.211 833.859 634.771 835.038 632.94 837.398 631.72 839.756 630.5 843.295 630.5 846.244 631.11 848.602 631.72 850.962 633.55 852.731 635.381 853.321 637.822 853.91 640.262 853.321 642.703 852.731 644.534 852.141 646.975 850.372 648.805 848.602 650.636 846.833 653.076 843.885 655.517 842.116 657.347 840.346 658.568 839.167 659.789 837.398 662.229 854.5 662.229Z" stroke="#000000" stroke-width="0.600164" stroke-linecap="round" stroke-linejoin="round" stroke-miterlimit="10" fill-rule="evenodd"/><path d="M859.5 636.328 859.5 631.5 882.5 631.5 882.5 635.121 879.473 639.345 875.842 644.776 871 656.845 869.184 666.5 864.947 666.5 865.553 662.276 866.763 656.845 871 645.38 874.632 640.552 877.657 636.328 859.5 636.328Z" stroke="#000000" stroke-width="0.600164" stroke-linecap="round" stroke-linejoin="round" stroke-miterlimit="10" fill-rule="evenodd"/><path d="M902.5 666.5 898.166 666.5 898.166 638.432 896.309 640.262 893.833 641.483 891.357 642.703 889.5 643.923 889.5 639.653 893.214 637.822 895.69 635.381 898.166 632.94 900.024 630.5 902.5 630.5 902.5 666.5Z" stroke="#000000" stroke-width="0.600164" stroke-linecap="round" stroke-linejoin="round" stroke-miterlimit="10" fill-rule="evenodd"/><path d="M916.5 666.5 916.5 661.5 920.5 661.5 920.5 666.5 916.5 666.5Z" stroke="#000000" stroke-width="0.600164" stroke-linecap="round" stroke-linejoin="round" stroke-miterlimit="10" fill-rule="evenodd"/><path d="M928.5 648.5 928.5 643.1 929.658 638.299 930.237 635.9 931.973 634.1 933.132 632.3 934.869 631.099 937.184 630.5 939.5 630.5 941.816 630.5 944.711 631.7 946.447 632.899 947.605 634.699 948.763 637.1 949.921 640.1 950.5 642.5 950.5 645.5 950.5 648.5 950.5 654.5 949.341 658.7 948.184 661.1 947.026 662.9 945.868 664.7 944.131 665.9 941.816 666.5 939.5 666.5 937.184 666.5 934.869 665.9 933.132 664.7 931.395 662.9 929.079 656.9 928.5 648.5ZM932.553 648.5 933.132 655.7 934.869 659.899 936.027 661.1 937.763 662.3 939.5 662.3 941.237 662.3 942.974 661.1 944.131 659.899 945.868 655.7 946.447 648.5 945.868 641.3 944.131 637.1 942.974 635.9 941.237 634.699 939.5 634.699 937.763 634.699 936.027 635.9 934.869 637.1 933.132 641.3 932.553 648.5Z" stroke="#000000" stroke-width="0.600164" stroke-linecap="round" stroke-linejoin="round" stroke-miterlimit="10" fill-rule="evenodd"/><path d="M969.354 666.5 969.354 658.655 953.5 658.655 953.5 653.828 970.574 631.5 974.233 631.5 974.233 653.828 978.501 653.828 978.501 658.655 974.233 658.655 974.233 666.5 969.354 666.5ZM969.354 653.828 969.354 639.949 958.988 653.828 969.354 653.828Z" stroke="#000000" stroke-width="0.600164" stroke-linecap="round" stroke-linejoin="round" stroke-miterlimit="10" fill-rule="evenodd"/><path d="M1010.5 531.5 1027.5 531.5" stroke="#000000" stroke-width="3.0001" stroke-linecap="round" stroke-linejoin="round" stroke-miterlimit="10" fill="none" fill-rule="evenodd"/><path d="M2537.5 531.5 2520.5 531.5" stroke="#000000" stroke-width="3.0001" stroke-linecap="round" stroke-linejoin="round" stroke-miterlimit="10" fill="none" fill-rule="evenodd"/><path d="M787.5 537.5 787.5 533.5 800.5 533.5 800.5 537.5 787.5 537.5Z" stroke="#000000" stroke-width="0.600164" stroke-linecap="round" stroke-linejoin="round" stroke-miterlimit="10" fill-rule="evenodd"/><path d="M820.5 548.5 815.773 548.5 815.773 520.301 814 522.1 812.228 523.3 809.864 525.1 807.5 525.7 807.5 521.5 811.045 519.7 814 517.301 815.773 514.901 817.546 512.5 820.5 512.5 820.5 548.5Z" stroke="#000000" stroke-width="0.600164" stroke-linecap="round" stroke-linejoin="round" stroke-miterlimit="10" fill-rule="evenodd"/><path d="M854.5 543.701 854.5 548.5 831.5 548.5 831.5 546.7 832.09 544.9 832.679 542.501 834.448 540.1 835.628 538.301 837.398 537.101 839.756 534.7 842.706 532.901 844.475 530.5 846.244 528.7 847.423 527.5 848.602 525.1 849.192 522.701 849.192 520.901 848.602 519.7 847.423 518.5 846.244 517.301 844.475 517.301 842.706 516.7 840.936 517.301 839.756 517.301 837.987 518.5 837.398 519.7 836.808 521.5 836.218 523.3 832.09 522.701 832.679 519.7 833.859 517.301 835.038 515.501 837.398 513.701 839.756 513.1 843.295 512.5 846.244 513.1 848.602 513.701 850.962 515.501 852.731 517.301 853.321 519.7 853.91 522.701 853.321 524.501 852.731 526.9 852.141 528.7 850.372 531.1 848.602 532.901 846.833 534.7 843.885 537.101 842.116 538.901 840.346 540.701 839.167 541.3 837.398 543.701 854.5 543.701Z" stroke="#000000" stroke-width="0.600164" stroke-linecap="round" stroke-linejoin="round" stroke-miterlimit="10" fill-rule="evenodd"/><path d="M859.5 517.381 859.5 512.5 882.5 512.5 882.5 516.161 879.473 521.042 875.842 525.924 871 538.738 869.184 548.5 864.947 548.5 865.553 543.619 866.763 538.128 871 526.534 874.632 521.653 877.657 517.381 859.5 517.381Z" stroke="#000000" stroke-width="0.600164" stroke-linecap="round" stroke-linejoin="round" stroke-miterlimit="10" fill-rule="evenodd"/><path d="M902.5 548.5 898.166 548.5 898.166 520.301 896.309 522.1 893.833 523.3 891.357 525.1 889.5 525.7 889.5 521.5 893.214 519.7 895.69 517.301 898.166 514.901 900.024 512.5 902.5 512.5 902.5 548.5Z" stroke="#000000" stroke-width="0.600164" stroke-linecap="round" stroke-linejoin="round" stroke-miterlimit="10" fill-rule="evenodd"/><path d="M916.5 548.5 916.5 543.5 920.5 543.5 920.5 548.5 916.5 548.5Z" stroke="#000000" stroke-width="0.600164" stroke-linecap="round" stroke-linejoin="round" stroke-miterlimit="10" fill-rule="evenodd"/><path d="M928.5 530.205 928.5 524.893 929.658 520.173 930.237 517.812 931.973 516.041 933.132 514.861 934.869 513.681 937.184 513.091 939.5 512.5 941.816 513.091 944.711 513.681 946.447 515.452 947.605 517.222 948.763 519.582 949.921 522.533 950.5 524.304 950.5 527.254 950.5 530.205 950.5 536.107 949.341 540.238 948.184 542.599 947.026 544.959 945.868 546.139 944.131 547.32 941.816 547.91 939.5 548.5 937.184 547.91 934.869 547.32 933.132 546.139 931.395 544.959 929.079 539.057 928.5 530.205ZM932.553 530.205 933.132 537.287 934.869 541.418 936.027 543.189 937.763 543.779 939.5 544.369 941.237 543.779 942.974 543.189 944.131 541.418 945.868 537.287 946.447 530.205 945.868 523.714 944.131 519.582 942.974 517.812 941.237 517.222 939.5 516.631 937.763 517.222 936.027 517.812 934.869 518.992 933.132 523.714 932.553 530.205Z" stroke="#000000" stroke-width="0.600164" stroke-linecap="round" stroke-linejoin="round" stroke-miterlimit="10" fill-rule="evenodd"/><path d="M977.5 543.701 977.5 548.5 954.5 548.5 954.5 546.7 955.089 544.9 956.269 542.501 957.448 540.1 959.218 538.301 960.987 537.101 963.346 534.7 965.705 532.901 968.064 530.5 969.243 528.7 970.423 527.5 972.192 525.1 972.192 522.701 972.192 520.901 971.602 519.7 970.423 518.5 969.243 517.301 968.064 517.301 966.295 516.7 964.526 517.301 962.756 517.301 961.577 518.5 960.397 519.7 959.808 521.5 959.808 523.3 955.089 522.701 955.679 519.7 956.858 517.301 958.628 515.501 960.397 513.701 963.346 513.1 966.295 512.5 969.243 513.1 972.192 513.701 973.962 515.501 975.731 517.301 976.91 519.7 976.91 522.701 976.91 524.501 976.32 526.9 975.141 528.7 973.372 531.1 972.192 532.901 969.833 534.7 967.474 537.101 965.116 538.901 963.346 540.701 962.166 541.3 960.397 543.701 977.5 543.701Z" stroke="#000000" stroke-width="0.600164" stroke-linecap="round" stroke-linejoin="round" stroke-miterlimit="10" fill-rule="evenodd"/><path d="M1010.5 413.5 1027.5 413.5" stroke="#000000" stroke-width="3.0001" stroke-linecap="round" stroke-linejoin="round" stroke-miterlimit="10" fill="none" fill-rule="evenodd"/><path d="M2537.5 413.5 2520.5 413.5" stroke="#000000" stroke-width="3.0001" stroke-linecap="round" stroke-linejoin="round" stroke-miterlimit="10" fill="none" fill-rule="evenodd"/><path d="M856.5 419.5 856.5 415.5 869.5 415.5 869.5 419.5 856.5 419.5Z" stroke="#000000" stroke-width="0.600164" stroke-linecap="round" stroke-linejoin="round" stroke-miterlimit="10" fill-rule="evenodd"/><path d="M889.5 429.5 884.548 429.5 884.548 402.212 883.309 403.991 880.834 405.178 878.357 406.364 876.5 407.551 876.5 403.398 879.595 401.619 882.691 399.246 885.167 396.873 886.405 394.5 889.5 394.5 889.5 429.5Z" stroke="#000000" stroke-width="0.600164" stroke-linecap="round" stroke-linejoin="round" stroke-miterlimit="10" fill-rule="evenodd"/><path d="M923.5 425.347 923.5 429.5 899.5 429.5 899.5 428.314 900.116 426.534 901.346 424.161 902.577 421.788 904.423 420.008 906.269 418.229 908.115 416.449 911.193 414.076 913.039 412.297 914.885 410.517 916.116 409.33 917.346 406.958 917.962 404.585 917.962 402.805 917.346 401.619 916.116 400.432 914.885 399.246 913.654 398.652 911.807 398.652 909.961 398.652 908.115 399.246 906.885 400.432 905.654 401.619 905.039 402.805 905.039 404.585 900.116 404.585 900.731 401.619 901.962 399.246 903.808 396.873 905.654 395.686 908.731 395.093 911.807 394.5 914.885 395.093 917.346 395.686 919.808 397.466 921.654 399.246 922.27 401.619 922.885 404.585 922.885 406.364 922.27 408.144 921.038 410.517 919.192 412.89 917.962 414.076 915.5 416.449 913.039 418.822 910.577 420.602 908.731 421.788 907.501 422.975 905.654 425.347 923.5 425.347Z" stroke="#000000" stroke-width="0.600164" stroke-linecap="round" stroke-linejoin="round" stroke-miterlimit="10" fill-rule="evenodd"/><path d="M928.5 400.19 928.5 395.5 950.5 395.5 950.5 399.017 947.605 403.121 944.711 408.397 939.5 420.121 938.342 429.5 933.71 429.5 934.29 425.397 935.447 420.121 940.079 408.983 942.974 404.293 946.447 400.19 928.5 400.19Z" stroke="#000000" stroke-width="0.600164" stroke-linecap="round" stroke-linejoin="round" stroke-miterlimit="10" fill-rule="evenodd"/><path d="M971.5 429.5 966.773 429.5 966.773 402.212 965 403.991 963.227 405.178 960.863 406.364 958.5 407.551 958.5 403.398 962.046 401.619 965 399.246 966.773 396.873 968.546 394.5 971.5 394.5 971.5 429.5Z" stroke="#000000" stroke-width="0.600164" stroke-linecap="round" stroke-linejoin="round" stroke-miterlimit="10" fill-rule="evenodd"/><path d="M1010.5 1593.5 1010.5 1576.5" stroke="#000000" stroke-width="3.0001" stroke-linecap="round" stroke-linejoin="round" stroke-miterlimit="10" fill="none" fill-rule="evenodd"/><path d="M1010.5 413.5 1010.5 431.5" stroke="#000000" stroke-width="3.0001" stroke-linecap="round" stroke-linejoin="round" stroke-miterlimit="10" fill="none" fill-rule="evenodd"/><path d="M994.5 1660.5 989.547 1660.5 989.547 1631.51 988.309 1633.36 985.833 1634.6 983.357 1635.83 981.5 1637.06 981.5 1632.75 984.595 1630.9 987.69 1628.43 990.166 1625.96 991.404 1623.5 994.5 1623.5 994.5 1660.5Z" stroke="#000000" stroke-width="0.600164" stroke-linecap="round" stroke-linejoin="round" stroke-miterlimit="10" fill-rule="evenodd"/><path d="M1020.21 1660.5 1020.21 1651.95 1003.5 1651.95 1003.5 1647.08 1021.45 1624.5 1025.17 1624.5 1025.17 1647.08 1029.5 1647.08 1029.5 1651.95 1025.17 1651.95 1025.17 1660.5 1020.21 1660.5ZM1020.21 1647.08 1020.21 1633.65 1009.69 1647.08 1020.21 1647.08Z" stroke="#000000" stroke-width="0.600164" stroke-linecap="round" stroke-linejoin="round" stroke-miterlimit="10" fill-rule="evenodd"/><path d="M1033.5 1650.74 1037.74 1650.12 1038.34 1651.95 1038.95 1653.78 1040.16 1655.01 1041.37 1655.61 1042.58 1656.23 1044.39 1656.23 1046.82 1656.23 1048.63 1655.61 1049.84 1654.4 1051.05 1652.57 1051.66 1650.74 1051.66 1648.29 1051.66 1645.86 1051.05 1644.03 1049.84 1642.2 1048.63 1640.97 1046.82 1640.37 1044.39 1640.37 1042.58 1640.37 1040.76 1640.97 1039.55 1642.2 1038.34 1643.42 1033.5 1642.8 1037.13 1624.5 1054.68 1624.5 1054.68 1629.39 1041.37 1629.39 1039.55 1638.54 1041.37 1637.31 1043.79 1636.09 1046.21 1636.09 1048.63 1636.71 1051.05 1637.31 1053.47 1639.14 1055.29 1641.58 1056.5 1644.63 1056.5 1647.69 1056.5 1650.74 1055.29 1653.78 1054.08 1656.23 1052.26 1658.06 1049.84 1659.89 1047.42 1660.5 1044.39 1660.5 1041.37 1660.5 1038.95 1659.27 1036.53 1658.06 1034.71 1656.23 1034.11 1653.78 1033.5 1650.74Z" stroke="#000000" stroke-width="0.600164" stroke-linecap="round" stroke-linejoin="round" stroke-miterlimit="10" fill-rule="evenodd"/><path d="M1179.5 1593.5 1179.5 1576.5" stroke="#000000" stroke-width="3.0001" stroke-linecap="round" stroke-linejoin="round" stroke-miterlimit="10" fill="none" fill-rule="evenodd"/><path d="M1179.5 413.5 1179.5 431.5" stroke="#000000" stroke-width="3.0001" stroke-linecap="round" stroke-linejoin="round" stroke-miterlimit="10" fill="none" fill-rule="evenodd"/><path d="M1163.5 1660.5 1159.5 1660.5 1159.5 1631.51 1157.79 1633.36 1155.5 1634.6 1153.21 1635.83 1151.5 1637.06 1151.5 1632.75 1154.36 1630.9 1157.21 1628.43 1159.5 1625.96 1160.64 1623.5 1163.5 1623.5 1163.5 1660.5Z" stroke="#000000" stroke-width="0.600164" stroke-linecap="round" stroke-linejoin="round" stroke-miterlimit="10" fill-rule="evenodd"/><path d="M1175.5 1650.74 1180.22 1650.12 1180.81 1651.95 1181.4 1653.78 1182.58 1655.01 1183.76 1655.61 1184.94 1656.23 1186.71 1656.23 1189.06 1656.23 1190.83 1655.61 1192.01 1654.4 1193.19 1652.57 1193.78 1650.74 1193.78 1648.29 1193.78 1645.86 1193.19 1644.03 1192.01 1642.2 1190.83 1640.97 1189.06 1640.37 1186.71 1640.37 1184.94 1640.37 1183.17 1640.97 1181.99 1642.2 1180.81 1643.42 1176.09 1642.8 1179.63 1624.5 1196.73 1624.5 1196.73 1629.39 1183.76 1629.39 1181.99 1638.54 1183.76 1637.31 1186.12 1636.09 1187.88 1636.09 1190.83 1636.71 1193.19 1637.31 1195.55 1639.14 1197.32 1641.58 1197.91 1644.63 1198.5 1647.69 1198.5 1650.74 1197.32 1653.78 1195.55 1656.23 1193.78 1658.06 1192.01 1659.89 1189.65 1660.5 1186.71 1660.5 1183.76 1660.5 1181.4 1659.27 1179.04 1658.06 1177.27 1656.23 1176.09 1653.78 1175.5 1650.74Z" stroke="#000000" stroke-width="0.600164" stroke-linecap="round" stroke-linejoin="round" stroke-miterlimit="10" fill-rule="evenodd"/><path d="M1202.5 1642 1202.5 1636.45 1203.73 1631.51 1204.96 1629.05 1206.19 1627.2 1207.42 1625.35 1209.88 1624.73 1211.73 1624.11 1214.19 1623.5 1217.27 1624.11 1219.73 1624.73 1221.58 1625.96 1223.42 1628.43 1224.65 1630.9 1225.27 1633.36 1225.88 1635.83 1225.88 1638.91 1226.5 1642 1225.88 1648.16 1224.65 1652.48 1224.04 1654.95 1222.81 1657.41 1220.96 1658.65 1219.12 1659.88 1216.65 1660.5 1214.19 1660.5 1211.73 1660.5 1209.88 1659.88 1207.42 1658.65 1206.19 1657.41 1203.12 1651.25 1202.5 1642ZM1207.42 1642 1207.42 1649.4 1209.27 1653.71 1210.5 1655.56 1212.35 1656.18 1214.19 1656.18 1216.04 1656.18 1217.88 1655.56 1219.12 1653.71 1220.96 1649.4 1221.58 1642 1220.96 1635.21 1219.73 1630.9 1217.88 1629.05 1216.04 1628.43 1214.19 1627.81 1212.35 1628.43 1210.5 1629.05 1209.27 1630.28 1207.42 1635.21 1207.42 1642Z" stroke="#000000" stroke-width="0.600164" stroke-linecap="round" stroke-linejoin="round" stroke-miterlimit="10" fill-rule="evenodd"/><path d="M1349.5 1593.5 1349.5 1576.5" stroke="#000000" stroke-width="3.0001" stroke-linecap="round" stroke-linejoin="round" stroke-miterlimit="10" fill="none" fill-rule="evenodd"/><path d="M1349.5 413.5 1349.5 431.5" stroke="#000000" stroke-width="3.0001" stroke-linecap="round" stroke-linejoin="round" stroke-miterlimit="10" fill="none" fill-rule="evenodd"/><path d="M1333.5 1660.5 1328.77 1660.5 1328.77 1631.51 1327 1633.36 1325.23 1634.6 1322.86 1635.83 1320.5 1637.06 1320.5 1632.75 1324.05 1630.9 1327 1628.43 1328.77 1625.96 1330.55 1623.5 1333.5 1623.5 1333.5 1660.5Z" stroke="#000000" stroke-width="0.600164" stroke-linecap="round" stroke-linejoin="round" stroke-miterlimit="10" fill-rule="evenodd"/><path d="M1345.5 1650.74 1349.74 1650.12 1350.34 1651.95 1350.95 1653.78 1352.16 1655.01 1353.37 1655.61 1355.18 1656.23 1356.4 1656.23 1358.82 1656.23 1360.63 1655.61 1361.84 1654.4 1363.05 1652.57 1363.66 1650.74 1364.26 1648.29 1363.66 1645.86 1363.05 1644.03 1362.45 1642.2 1360.63 1640.97 1358.82 1640.37 1357 1640.37 1354.58 1640.37 1352.76 1640.97 1351.55 1642.2 1350.34 1643.42 1346.11 1642.8 1349.74 1624.5 1366.68 1624.5 1366.68 1629.39 1353.37 1629.39 1351.55 1638.54 1353.37 1637.31 1355.79 1636.09 1358.21 1636.09 1360.63 1636.71 1363.66 1637.31 1365.47 1639.14 1367.29 1641.58 1368.5 1644.63 1368.5 1647.69 1368.5 1650.74 1367.29 1653.78 1366.08 1656.23 1364.26 1658.06 1361.84 1659.89 1359.42 1660.5 1356.4 1660.5 1353.37 1660.5 1350.95 1659.27 1348.53 1658.06 1347.32 1656.23 1346.11 1653.78 1345.5 1650.74Z" stroke="#000000" stroke-width="0.600164" stroke-linecap="round" stroke-linejoin="round" stroke-miterlimit="10" fill-rule="evenodd"/><path d="M1372.5 1650.74 1377.22 1650.12 1377.81 1651.95 1378.4 1653.78 1379.58 1655.01 1380.76 1655.61 1381.94 1656.23 1383.71 1656.23 1386.06 1656.23 1387.83 1655.61 1389.01 1654.4 1390.19 1652.57 1390.78 1650.74 1390.78 1648.29 1390.78 1645.86 1390.19 1644.03 1389.01 1642.2 1387.83 1640.97 1386.06 1640.37 1383.71 1640.37 1381.94 1640.37 1380.17 1640.97 1378.99 1642.2 1377.81 1643.42 1373.09 1642.8 1376.63 1624.5 1393.14 1624.5 1393.14 1629.39 1380.17 1629.39 1378.4 1638.54 1380.76 1637.31 1383.12 1636.09 1384.88 1636.09 1387.83 1636.71 1390.19 1637.31 1392.55 1639.14 1394.32 1641.58 1394.91 1644.63 1395.5 1647.69 1394.91 1650.74 1394.32 1653.78 1392.55 1656.23 1390.78 1658.06 1389.01 1659.89 1386.65 1660.5 1383.71 1660.5 1380.76 1660.5 1378.4 1659.27 1376.04 1658.06 1374.27 1656.23 1373.09 1653.78 1372.5 1650.74Z" stroke="#000000" stroke-width="0.600164" stroke-linecap="round" stroke-linejoin="round" stroke-miterlimit="10" fill-rule="evenodd"/><path d="M1519.5 1593.5 1519.5 1576.5" stroke="#000000" stroke-width="3.0001" stroke-linecap="round" stroke-linejoin="round" stroke-miterlimit="10" fill="none" fill-rule="evenodd"/><path d="M1519.5 413.5 1519.5 431.5" stroke="#000000" stroke-width="3.0001" stroke-linecap="round" stroke-linejoin="round" stroke-miterlimit="10" fill="none" fill-rule="evenodd"/><path d="M1503.5 1660.5 1498.55 1660.5 1498.55 1631.51 1497.31 1633.36 1494.83 1634.6 1492.36 1635.83 1490.5 1637.06 1490.5 1632.75 1493.6 1630.9 1496.69 1628.43 1499.17 1625.96 1500.41 1623.5 1503.5 1623.5 1503.5 1660.5Z" stroke="#000000" stroke-width="0.600164" stroke-linecap="round" stroke-linejoin="round" stroke-miterlimit="10" fill-rule="evenodd"/><path d="M1537.9 1633.36 1533.1 1633.98 1532.5 1631.51 1531.3 1629.66 1530.1 1628.43 1528.9 1627.81 1527.1 1627.81 1525.3 1628.43 1523.5 1629.05 1521.7 1630.9 1520.5 1633.36 1519.9 1635.21 1519.3 1637.68 1519.3 1641.38 1521.1 1638.91 1522.9 1637.68 1525.3 1636.45 1527.7 1636.45 1530.7 1636.45 1533.1 1637.68 1535.5 1639.53 1536.7 1642 1537.9 1645.08 1538.5 1648.16 1537.9 1651.25 1536.7 1654.33 1535.5 1656.18 1534.3 1658.03 1533.1 1659.26 1530.1 1660.5 1527.1 1660.5 1524.7 1660.5 1522.3 1659.88 1519.9 1658.65 1518.1 1656.8 1515.7 1651.25 1514.5 1643.23 1515.7 1633.98 1518.7 1627.81 1520.5 1625.96 1522.3 1624.73 1524.7 1624.11 1527.7 1623.5 1530.1 1624.11 1532.5 1624.73 1534.3 1625.96 1536.1 1627.81 1537.3 1630.28 1537.9 1633.36ZM1519.3 1648.16 1519.3 1650.01 1520.5 1652.48 1521.1 1654.33 1522.9 1655.56 1524.7 1656.18 1526.5 1656.18 1528.9 1656.18 1530.1 1655.56 1531.9 1654.33 1533.1 1652.48 1533.7 1650.63 1533.7 1648.16 1533.7 1646.31 1533.1 1644.46 1531.9 1642.61 1530.1 1641.38 1528.9 1640.76 1526.5 1640.76 1524.7 1640.76 1522.9 1641.38 1521.1 1642.61 1519.9 1644.46 1519.3 1646.31 1519.3 1648.16Z" stroke="#000000" stroke-width="0.600164" stroke-linecap="round" stroke-linejoin="round" stroke-miterlimit="10" fill-rule="evenodd"/><path d="M1542.5 1642 1542.5 1636.45 1543.71 1631.51 1544.32 1629.05 1546.13 1627.2 1547.34 1625.35 1549.16 1624.73 1551.58 1624.11 1554 1623.5 1556.42 1624.11 1558.84 1624.73 1561.26 1625.96 1562.48 1628.43 1563.68 1630.9 1564.89 1633.36 1565.5 1635.83 1565.5 1638.91 1565.5 1642 1565.5 1648.16 1564.29 1652.48 1563.08 1654.95 1561.87 1657.41 1560.66 1658.65 1558.84 1659.88 1556.42 1660.5 1554 1660.5 1551.58 1660.5 1549.16 1659.88 1547.34 1658.65 1545.52 1657.41 1543.1 1651.25 1542.5 1642ZM1546.73 1642 1547.34 1649.4 1549.16 1653.71 1550.36 1655.56 1552.18 1656.18 1554 1656.18 1555.81 1656.18 1557.63 1655.56 1558.84 1653.71 1560.66 1649.4 1560.66 1642 1560.66 1635.21 1558.84 1630.9 1557.63 1629.05 1555.81 1628.43 1554 1627.81 1552.18 1628.43 1550.36 1629.05 1549.16 1630.28 1547.34 1635.21 1546.73 1642Z" stroke="#000000" stroke-width="0.600164" stroke-linecap="round" stroke-linejoin="round" stroke-miterlimit="10" fill-rule="evenodd"/><path d="M1688.5 1593.5 1688.5 1576.5" stroke="#000000" stroke-width="3.0001" stroke-linecap="round" stroke-linejoin="round" stroke-miterlimit="10" fill="none" fill-rule="evenodd"/><path d="M1688.5 413.5 1688.5 431.5" stroke="#000000" stroke-width="3.0001" stroke-linecap="round" stroke-linejoin="round" stroke-miterlimit="10" fill="none" fill-rule="evenodd"/><path d="M1672.5 1660.5 1668.51 1660.5 1668.51 1631.51 1666.79 1633.36 1664.5 1634.6 1662.21 1635.83 1660.5 1637.06 1660.5 1632.75 1663.36 1630.9 1666.22 1628.43 1668.51 1625.96 1669.65 1623.5 1672.5 1623.5 1672.5 1660.5Z" stroke="#000000" stroke-width="0.600164" stroke-linecap="round" stroke-linejoin="round" stroke-miterlimit="10" fill-rule="evenodd"/><path d="M1706.9 1633.36 1702.1 1633.98 1701.5 1631.51 1700.9 1629.66 1699.7 1628.43 1697.9 1627.81 1696.7 1627.81 1694.3 1628.43 1692.5 1629.05 1690.7 1630.9 1689.5 1633.36 1688.9 1635.21 1688.31 1637.68 1688.31 1641.38 1690.11 1638.91 1692.5 1637.68 1694.9 1636.45 1697.3 1636.45 1699.7 1636.45 1702.1 1637.68 1704.5 1639.53 1706.3 1642 1706.9 1645.08 1707.5 1648.16 1706.9 1651.25 1706.3 1654.33 1705.1 1656.18 1703.9 1658.03 1702.1 1659.26 1699.1 1660.5 1696.1 1660.5 1693.7 1660.5 1691.3 1659.88 1688.9 1658.65 1687.1 1656.8 1684.71 1651.25 1683.5 1643.23 1684.71 1633.98 1687.7 1627.81 1689.5 1625.96 1691.91 1624.73 1694.3 1624.11 1696.7 1623.5 1699.7 1624.11 1701.5 1624.73 1703.9 1625.96 1705.1 1627.81 1706.3 1630.28 1706.9 1633.36ZM1688.31 1648.16 1688.9 1650.01 1689.5 1652.48 1690.7 1654.33 1691.91 1655.56 1693.7 1656.18 1696.1 1656.18 1697.9 1656.18 1699.7 1655.56 1700.9 1654.33 1702.1 1652.48 1702.7 1650.63 1702.7 1648.16 1702.7 1646.31 1702.1 1644.46 1700.9 1642.61 1699.7 1641.38 1697.9 1640.76 1695.5 1640.76 1693.7 1640.76 1691.91 1641.38 1690.7 1642.61 1689.5 1644.46 1688.9 1646.31 1688.31 1648.16Z" stroke="#000000" stroke-width="0.600164" stroke-linecap="round" stroke-linejoin="round" stroke-miterlimit="10" fill-rule="evenodd"/><path d="M1711.5 1650.74 1716.42 1650.12 1716.42 1651.95 1717.65 1653.78 1718.27 1655.01 1719.49 1655.61 1721.34 1656.23 1723.19 1656.23 1725.03 1656.23 1726.88 1655.61 1728.72 1654.4 1729.34 1652.57 1729.96 1650.74 1730.57 1648.29 1729.96 1645.86 1729.34 1644.03 1728.72 1642.2 1726.88 1640.97 1725.03 1640.37 1723.19 1640.37 1720.73 1640.37 1719.49 1640.97 1717.65 1642.2 1716.42 1643.42 1712.11 1642.8 1715.8 1624.5 1733.04 1624.5 1733.04 1629.39 1719.49 1629.39 1717.65 1638.54 1720.11 1637.31 1721.96 1636.09 1724.42 1636.09 1727.5 1636.71 1729.96 1637.31 1731.81 1639.14 1733.65 1641.58 1734.88 1644.63 1735.5 1647.69 1734.88 1650.74 1734.26 1653.78 1732.42 1656.23 1730.57 1658.06 1728.12 1659.89 1725.65 1660.5 1723.19 1660.5 1720.11 1660.5 1717.04 1659.27 1715.19 1658.06 1713.35 1656.23 1712.11 1653.78 1711.5 1650.74Z" stroke="#000000" stroke-width="0.600164" stroke-linecap="round" stroke-linejoin="round" stroke-miterlimit="10" fill-rule="evenodd"/><path d="M1858.5 1593.5 1858.5 1576.5" stroke="#000000" stroke-width="3.0001" stroke-linecap="round" stroke-linejoin="round" stroke-miterlimit="10" fill="none" fill-rule="evenodd"/><path d="M1858.5 413.5 1858.5 431.5" stroke="#000000" stroke-width="3.0001" stroke-linecap="round" stroke-linejoin="round" stroke-miterlimit="10" fill="none" fill-rule="evenodd"/><path d="M1842.5 1660.5 1837.78 1660.5 1837.78 1631.51 1836 1633.36 1834.23 1634.6 1831.87 1635.83 1829.5 1637.06 1829.5 1632.75 1833.04 1630.9 1836 1628.43 1837.78 1625.96 1839.55 1623.5 1842.5 1623.5 1842.5 1660.5Z" stroke="#000000" stroke-width="0.600164" stroke-linecap="round" stroke-linejoin="round" stroke-miterlimit="10" fill-rule="evenodd"/><path d="M1854.5 1629.39 1854.5 1624.5 1877.5 1624.5 1877.5 1628.16 1874.4 1632.43 1871.28 1637.92 1866.31 1650.12 1864.45 1660.5 1859.48 1660.5 1860.09 1655.61 1861.34 1650.12 1866.31 1638.54 1869.42 1633.65 1873.15 1629.39 1854.5 1629.39Z" stroke="#000000" stroke-width="0.600164" stroke-linecap="round" stroke-linejoin="round" stroke-miterlimit="10" fill-rule="evenodd"/><path d="M1881.5 1642 1882.08 1636.45 1882.68 1631.51 1883.85 1629.05 1885.04 1627.2 1886.81 1625.35 1888.58 1624.73 1890.35 1624.11 1893.29 1623.5 1895.65 1624.11 1898.01 1624.73 1900.37 1625.96 1901.55 1628.43 1902.73 1630.9 1903.91 1633.36 1903.91 1635.83 1904.5 1638.91 1904.5 1642 1903.91 1648.16 1903.31 1652.48 1902.14 1654.95 1900.96 1657.41 1899.19 1658.65 1897.42 1659.88 1895.65 1660.5 1893.29 1660.5 1890.93 1660.5 1888.58 1659.88 1886.81 1658.65 1885.04 1657.41 1882.68 1651.25 1881.5 1642ZM1886.21 1642 1886.81 1649.4 1887.98 1653.71 1889.75 1655.56 1890.93 1656.18 1893.29 1656.18 1895.06 1656.18 1896.24 1655.56 1898.01 1653.71 1899.19 1649.4 1899.78 1642 1899.19 1635.21 1898.01 1630.9 1896.83 1629.05 1895.06 1628.43 1892.7 1627.81 1890.93 1628.43 1889.75 1629.05 1887.98 1630.28 1886.81 1635.21 1886.21 1642Z" stroke="#000000" stroke-width="0.600164" stroke-linecap="round" stroke-linejoin="round" stroke-miterlimit="10" fill-rule="evenodd"/><path d="M2028.5 1593.5 2028.5 1576.5" stroke="#000000" stroke-width="3.0001" stroke-linecap="round" stroke-linejoin="round" stroke-miterlimit="10" fill="none" fill-rule="evenodd"/><path d="M2028.5 413.5 2028.5 431.5" stroke="#000000" stroke-width="3.0001" stroke-linecap="round" stroke-linejoin="round" stroke-miterlimit="10" fill="none" fill-rule="evenodd"/><path d="M2012.5 1660.5 2007.55 1660.5 2007.55 1631.51 2006.31 1633.36 2003.84 1634.6 2001.36 1635.83 1999.5 1637.06 1999.5 1632.75 2002.59 1630.9 2005.69 1628.43 2008.16 1625.96 2009.41 1623.5 2012.5 1623.5 2012.5 1660.5Z" stroke="#000000" stroke-width="0.600164" stroke-linecap="round" stroke-linejoin="round" stroke-miterlimit="10" fill-rule="evenodd"/><path d="M2024.5 1629.39 2024.5 1624.5 2047.5 1624.5 2047.5 1628.16 2043.87 1632.43 2040.84 1637.92 2036 1650.12 2034.18 1660.5 2029.35 1660.5 2029.95 1655.61 2031.16 1650.12 2036 1638.54 2039.02 1633.65 2042.65 1629.39 2024.5 1629.39Z" stroke="#000000" stroke-width="0.600164" stroke-linecap="round" stroke-linejoin="round" stroke-miterlimit="10" fill-rule="evenodd"/><path d="M2051.5 1650.74 2055.74 1650.12 2056.35 1651.95 2056.95 1653.78 2058.16 1655.01 2059.37 1655.61 2060.58 1656.23 2062.39 1656.23 2064.82 1656.23 2066.63 1655.61 2067.84 1654.4 2069.05 1652.57 2069.65 1650.74 2069.65 1648.29 2069.65 1645.86 2069.05 1644.03 2067.84 1642.2 2066.63 1640.97 2064.82 1640.37 2062.39 1640.37 2060.58 1640.37 2058.76 1640.97 2057.55 1642.2 2056.35 1643.42 2051.5 1642.8 2055.13 1624.5 2072.68 1624.5 2072.68 1629.39 2059.37 1629.39 2057.55 1638.54 2059.37 1637.31 2061.79 1636.09 2064.21 1636.09 2066.63 1636.71 2069.05 1637.31 2071.47 1639.14 2073.28 1641.58 2074.5 1644.63 2074.5 1647.69 2074.5 1650.74 2073.28 1653.78 2072.08 1656.23 2070.26 1658.06 2067.84 1659.89 2065.42 1660.5 2062.39 1660.5 2059.37 1660.5 2056.95 1659.27 2054.53 1658.06 2052.72 1656.23 2052.11 1653.78 2051.5 1650.74Z" stroke="#000000" stroke-width="0.600164" stroke-linecap="round" stroke-linejoin="round" stroke-miterlimit="10" fill-rule="evenodd"/><path d="M2197.5 1593.5 2197.5 1576.5" stroke="#000000" stroke-width="3.0001" stroke-linecap="round" stroke-linejoin="round" stroke-miterlimit="10" fill="none" fill-rule="evenodd"/><path d="M2197.5 413.5 2197.5 431.5" stroke="#000000" stroke-width="3.0001" stroke-linecap="round" stroke-linejoin="round" stroke-miterlimit="10" fill="none" fill-rule="evenodd"/><path d="M2181.5 1660.5 2177.5 1660.5 2177.5 1631.51 2175.78 1633.36 2173.5 1634.6 2171.21 1635.83 2169.5 1637.06 2169.5 1632.75 2172.35 1630.9 2175.22 1628.43 2177.5 1625.96 2178.65 1623.5 2181.5 1623.5 2181.5 1660.5Z" stroke="#000000" stroke-width="0.600164" stroke-linecap="round" stroke-linejoin="round" stroke-miterlimit="10" fill-rule="evenodd"/><path d="M2199.87 1640.15 2197.55 1638.91 2195.81 1637.06 2195.24 1635.21 2194.66 1632.75 2195.24 1630.28 2195.81 1628.43 2197.55 1625.96 2199.28 1624.73 2201.6 1624.11 2204.5 1623.5 2207.4 1624.11 2209.71 1624.73 2212.03 1626.58 2213.18 1628.43 2214.35 1630.28 2214.35 1632.75 2214.35 1635.21 2213.18 1637.06 2211.44 1638.91 2209.13 1640.15 2211.44 1640.76 2212.61 1642 2213.76 1643.23 2214.92 1645.08 2215.5 1647.55 2215.5 1649.4 2215.5 1652.48 2214.35 1654.95 2212.61 1657.41 2210.29 1659.26 2207.97 1660.5 2204.5 1660.5 2201.6 1660.5 2198.71 1659.26 2196.97 1657.41 2195.24 1654.95 2194.07 1652.48 2193.5 1649.4 2194.07 1646.93 2194.66 1645.08 2195.24 1643.23 2196.39 1642 2198.13 1640.76 2199.87 1640.15ZM2199.28 1632.75 2199.28 1634.6 2200.45 1636.45 2201.6 1637.06 2202.76 1637.68 2204.5 1637.68 2206.23 1637.68 2207.4 1637.06 2208.55 1636.45 2209.71 1634.6 2210.29 1632.75 2209.71 1630.9 2208.55 1629.05 2207.4 1628.43 2206.23 1627.81 2204.5 1627.81 2202.76 1627.81 2201.6 1628.43 2200.45 1629.05 2199.28 1630.9 2199.28 1632.75ZM2198.13 1649.4 2198.13 1651.25 2198.71 1653.1 2199.87 1654.33 2201.02 1655.56 2202.76 1656.18 2204.5 1656.18 2206.81 1656.18 2207.97 1655.56 2209.13 1654.33 2210.29 1653.1 2210.87 1651.25 2210.87 1649.4 2210.87 1647.55 2210.29 1645.7 2209.13 1644.46 2207.97 1643.23 2206.23 1642.61 2204.5 1642 2202.76 1642.61 2201.02 1643.23 2199.87 1644.46 2198.71 1645.7 2198.13 1647.55 2198.13 1649.4Z" stroke="#000000" stroke-width="0.600164" stroke-linecap="round" stroke-linejoin="round" stroke-miterlimit="10" fill-rule="evenodd"/><path d="M2220.5 1642 2220.5 1636.45 2221.74 1631.51 2222.96 1629.05 2224.19 1627.2 2225.43 1625.35 2227.88 1624.73 2229.73 1624.11 2232.2 1623.5 2235.27 1624.11 2237.73 1624.73 2239.58 1625.96 2241.43 1628.43 2242.65 1630.9 2243.27 1633.36 2243.89 1635.83 2243.89 1638.91 2244.5 1642 2243.89 1648.16 2242.65 1652.48 2242.04 1654.95 2240.81 1657.41 2238.96 1658.65 2237.12 1659.88 2234.66 1660.5 2232.2 1660.5 2229.73 1660.5 2227.88 1659.88 2225.43 1658.65 2224.19 1657.41 2221.12 1651.25 2220.5 1642ZM2225.43 1642 2225.43 1649.4 2227.28 1653.71 2228.5 1655.56 2230.35 1656.18 2232.2 1656.18 2234.04 1656.18 2235.89 1655.56 2237.12 1653.71 2238.96 1649.4 2239.58 1642 2238.96 1635.21 2237.73 1630.9 2235.89 1629.05 2234.04 1628.43 2232.2 1627.81 2230.35 1628.43 2228.5 1629.05 2227.28 1630.28 2225.43 1635.21 2225.43 1642Z" stroke="#000000" stroke-width="0.600164" stroke-linecap="round" stroke-linejoin="round" stroke-miterlimit="10" fill-rule="evenodd"/><path d="M2367.5 1593.5 2367.5 1576.5" stroke="#000000" stroke-width="3.0001" stroke-linecap="round" stroke-linejoin="round" stroke-miterlimit="10" fill="none" fill-rule="evenodd"/><path d="M2367.5 413.5 2367.5 431.5" stroke="#000000" stroke-width="3.0001" stroke-linecap="round" stroke-linejoin="round" stroke-miterlimit="10" fill="none" fill-rule="evenodd"/><path d="M2351.5 1660.5 2346.77 1660.5 2346.77 1631.51 2345 1633.36 2343.22 1634.6 2340.87 1635.83 2338.5 1637.06 2338.5 1632.75 2342.04 1630.9 2345 1628.43 2346.77 1625.96 2348.54 1623.5 2351.5 1623.5 2351.5 1660.5Z" stroke="#000000" stroke-width="0.600164" stroke-linecap="round" stroke-linejoin="round" stroke-miterlimit="10" fill-rule="evenodd"/><path d="M2370.05 1640.15 2367.66 1638.91 2365.88 1637.06 2364.7 1635.21 2364.1 1632.75 2364.7 1630.28 2365.28 1628.43 2367.07 1625.96 2369.45 1624.73 2371.83 1624.11 2374.2 1623.5 2377.18 1624.11 2380.15 1624.73 2381.93 1626.58 2383.72 1628.43 2384.31 1630.28 2384.9 1632.75 2384.31 1635.21 2383.72 1637.06 2381.93 1638.91 2379.55 1640.15 2381.34 1640.76 2383.12 1642 2384.31 1643.23 2384.9 1645.08 2385.5 1647.55 2385.5 1649.4 2385.5 1652.48 2384.31 1654.95 2382.53 1657.41 2380.15 1659.26 2377.77 1660.5 2374.8 1660.5 2371.23 1660.5 2368.85 1659.26 2366.48 1657.41 2364.7 1654.95 2363.5 1652.48 2363.5 1649.4 2363.5 1646.93 2364.1 1645.08 2365.28 1643.23 2366.48 1642 2367.66 1640.76 2370.05 1640.15ZM2368.85 1632.75 2369.45 1634.6 2370.63 1636.45 2371.23 1637.06 2373.02 1637.68 2374.8 1637.68 2375.99 1637.68 2377.77 1637.06 2378.96 1636.45 2379.55 1634.6 2380.15 1632.75 2379.55 1630.9 2378.96 1629.05 2377.77 1628.43 2375.99 1627.81 2374.8 1627.81 2373.02 1627.81 2371.23 1628.43 2370.63 1629.05 2369.45 1630.9 2368.85 1632.75ZM2367.66 1649.4 2368.26 1651.25 2368.85 1653.1 2369.45 1654.33 2371.23 1655.56 2373.02 1656.18 2374.8 1656.18 2376.58 1656.18 2378.37 1655.56 2379.55 1654.33 2380.15 1653.1 2380.75 1651.25 2381.34 1649.4 2380.75 1647.55 2380.15 1645.7 2379.55 1644.46 2377.77 1643.23 2376.58 1642.61 2374.2 1642 2372.42 1642.61 2371.23 1643.23 2369.45 1644.46 2368.85 1645.7 2368.26 1647.55 2367.66 1649.4Z" stroke="#000000" stroke-width="0.600164" stroke-linecap="round" stroke-linejoin="round" stroke-miterlimit="10" fill-rule="evenodd"/><path d="M2390.5 1650.74 2395.22 1650.12 2395.81 1651.95 2396.4 1653.78 2397.58 1655.01 2398.76 1655.61 2399.94 1656.23 2401.71 1656.23 2404.07 1656.23 2405.84 1655.61 2407.02 1654.4 2408.19 1652.57 2408.79 1650.74 2408.79 1648.29 2408.79 1645.86 2408.19 1644.03 2407.02 1642.2 2405.84 1640.97 2404.07 1640.37 2401.71 1640.37 2399.94 1640.37 2398.17 1640.97 2396.99 1642.2 2395.81 1643.42 2391.09 1642.8 2394.63 1624.5 2411.15 1624.5 2411.15 1629.39 2398.17 1629.39 2396.4 1638.54 2398.76 1637.31 2401.12 1636.09 2402.88 1636.09 2405.84 1636.71 2408.19 1637.31 2410.55 1639.14 2412.32 1641.58 2412.92 1644.63 2413.5 1647.69 2412.92 1650.74 2412.32 1653.78 2410.55 1656.23 2408.79 1658.06 2407.02 1659.89 2404.65 1660.5 2401.71 1660.5 2398.76 1660.5 2396.4 1659.27 2394.04 1658.06 2392.27 1656.23 2391.09 1653.78 2390.5 1650.74Z" stroke="#000000" stroke-width="0.600164" stroke-linecap="round" stroke-linejoin="round" stroke-miterlimit="10" fill-rule="evenodd"/><path d="M2537.5 1593.5 2537.5 1576.5" stroke="#000000" stroke-width="3.0001" stroke-linecap="round" stroke-linejoin="round" stroke-miterlimit="10" fill="none" fill-rule="evenodd"/><path d="M2537.5 413.5 2537.5 431.5" stroke="#000000" stroke-width="3.0001" stroke-linecap="round" stroke-linejoin="round" stroke-miterlimit="10" fill="none" fill-rule="evenodd"/><path d="M2521.5 1660.5 2516.54 1660.5 2516.54 1631.51 2515.31 1633.36 2512.83 1634.6 2510.36 1635.83 2508.5 1637.06 2508.5 1632.75 2511.59 1630.9 2514.68 1628.43 2517.16 1625.96 2518.4 1623.5 2521.5 1623.5 2521.5 1660.5Z" stroke="#000000" stroke-width="0.600164" stroke-linecap="round" stroke-linejoin="round" stroke-miterlimit="10" fill-rule="evenodd"/><path d="M2533.12 1651.25 2538.04 1650.63 2538.04 1652.48 2538.66 1653.71 2539.88 1654.95 2541.73 1656.18 2543.58 1656.18 2545.42 1656.18 2547.27 1655.56 2548.51 1654.33 2549.73 1653.1 2550.35 1651.86 2550.96 1649.4 2551.58 1646.93 2551.58 1643.85 2551.58 1643.23 2549.73 1645.08 2547.89 1646.93 2545.42 1647.55 2542.97 1648.16 2540.5 1647.55 2538.04 1646.31 2535.58 1644.46 2533.74 1642 2533.12 1639.53 2532.5 1635.83 2533.12 1632.75 2533.74 1629.66 2535.58 1627.2 2538.04 1625.35 2541.12 1624.11 2544.2 1623.5 2546.04 1624.11 2548.51 1624.73 2550.35 1625.35 2552.2 1627.2 2553.43 1629.05 2554.65 1630.9 2555.89 1635.21 2556.5 1641.38 2555.89 1647.55 2554.65 1652.48 2553.43 1654.95 2552.2 1656.8 2550.35 1658.65 2547.89 1659.88 2546.04 1660.5 2542.97 1660.5 2540.5 1660.5 2538.04 1659.88 2536.19 1658.03 2534.96 1656.18 2533.74 1653.71 2533.12 1651.25ZM2551.58 1635.83 2551.58 1633.36 2550.96 1631.51 2549.73 1630.28 2548.51 1629.05 2546.66 1627.81 2544.81 1627.81 2542.35 1627.81 2541.12 1629.05 2539.28 1630.28 2538.04 1632.13 2537.43 1633.98 2537.43 1636.45 2537.43 1638.3 2538.04 1640.15 2539.28 1641.38 2540.5 1642.61 2542.35 1643.23 2544.2 1643.85 2546.66 1643.23 2547.89 1642.61 2549.73 1641.38 2550.96 1640.15 2551.58 1638.3 2551.58 1635.83Z" stroke="#000000" stroke-width="0.600164" stroke-linecap="round" stroke-linejoin="round" stroke-miterlimit="10" fill-rule="evenodd"/><path d="M2560.5 1642 2560.5 1636.45 2561.71 1631.51 2562.32 1629.05 2564.13 1627.2 2565.34 1625.35 2567.16 1624.73 2569.58 1624.11 2572 1623.5 2574.42 1624.11 2576.84 1624.73 2579.27 1625.96 2580.48 1628.43 2581.68 1630.9 2582.9 1633.36 2583.5 1635.83 2583.5 1638.91 2583.5 1642 2583.5 1648.16 2582.29 1652.48 2581.08 1654.95 2579.87 1657.41 2578.66 1658.65 2576.84 1659.88 2574.42 1660.5 2572 1660.5 2569.58 1660.5 2567.16 1659.88 2565.34 1658.65 2563.52 1657.41 2561.11 1651.25 2560.5 1642ZM2564.74 1642 2565.34 1649.4 2567.16 1653.71 2568.37 1655.56 2570.19 1656.18 2572 1656.18 2573.82 1656.18 2575.64 1655.56 2576.84 1653.71 2578.66 1649.4 2579.27 1642 2578.66 1635.21 2576.84 1630.9 2575.64 1629.05 2573.82 1628.43 2572 1627.81 2570.19 1628.43 2568.37 1629.05 2567.16 1630.28 2565.34 1635.21 2564.74 1642Z" stroke="#000000" stroke-width="0.600164" stroke-linecap="round" stroke-linejoin="round" stroke-miterlimit="10" fill-rule="evenodd"/><path d="M1010.5 1593.5 2537.5 1593.5 2537.5 413.5 1010.5 413.5 1010.5 1593.5" stroke="#000000" stroke-width="3.0001" stroke-linecap="round" stroke-linejoin="round" stroke-miterlimit="10" fill="none" fill-rule="evenodd"/><path d="M697.1 1107.42 697.7 1102.5 700.1 1103.73 701.9 1104.96 703.1 1106.81 704.3 1108.65 704.9 1111.11 705.5 1114.19 704.9 1116.65 704.3 1119.12 703.7 1121.58 701.9 1123.42 697.7 1125.88 692.3 1126.5 686.3 1125.88 682.1 1123.42 680.9 1121.58 679.7 1119.12 679.1 1116.65 678.5 1114.19 679.1 1111.11 680.3 1108.04 682.1 1105.58 686.3 1103.11 691.7 1102.5 692.9 1102.5 692.9 1122.19 695.3 1121.58 697.7 1120.96 698.9 1119.73 700.1 1117.88 701.3 1116.04 701.3 1114.19 701.3 1111.73 700.1 1109.88 698.9 1108.04 697.1 1107.42ZM688.7 1122.19 688.7 1106.81 687.5 1107.42 685.7 1108.04 685.1 1108.65 683.9 1110.5 682.7 1112.35 682.7 1114.19 682.7 1116.04 683.3 1117.88 684.5 1119.73 685.7 1120.96 686.9 1121.58 688.7 1122.19Z" stroke="#000000" stroke-width="0.600164" stroke-linecap="round" stroke-linejoin="round" stroke-miterlimit="10" fill-rule="evenodd"/><path d="M704.5 1096.5 679.091 1096.5 679.091 1092.47 682.637 1092.47 680.864 1090.74 679.682 1089.02 679.091 1087.29 678.5 1084.99 679.091 1083.26 679.682 1081.53 680.273 1079.8 681.455 1078.65 683.227 1078.08 685 1077.5 686.182 1077.5 689.136 1077.5 704.5 1077.5 704.5 1082.11 689.136 1082.11 687.364 1082.11 685.591 1082.11 684.409 1082.68 683.227 1083.83 682.637 1084.99 682.637 1086.14 682.637 1087.86 683.227 1089.02 684.409 1090.74 685.591 1091.32 687.954 1091.89 690.909 1092.47 704.5 1092.47 704.5 1096.5Z" stroke="#000000" stroke-width="0.600164" stroke-linecap="round" stroke-linejoin="round" stroke-miterlimit="10" fill-rule="evenodd"/><path d="M697.1 1052.3 697.7 1047.5 700.1 1048.7 701.9 1050.5 703.1 1051.7 704.3 1054.1 704.9 1056.5 705.5 1059.5 704.9 1061.9 704.3 1064.3 703.7 1066.7 701.9 1068.5 697.7 1070.9 692.3 1071.5 686.3 1070.9 682.1 1068.5 680.9 1066.7 679.7 1064.3 679.1 1061.9 678.5 1059.5 679.1 1056.5 680.3 1053.5 682.1 1051.1 686.3 1048.7 691.7 1047.5 692.9 1047.5 692.9 1066.7 695.3 1066.7 697.7 1066.1 698.9 1064.3 700.1 1063.1 701.3 1061.3 701.3 1059.5 701.3 1057.1 700.1 1055.3 698.9 1053.5 697.1 1052.3ZM688.7 1066.7 688.7 1052.3 687.5 1052.9 685.7 1053.5 685.1 1054.1 683.9 1055.9 682.7 1057.7 682.7 1059.5 682.7 1061.3 683.3 1063.1 684.5 1064.9 685.7 1066.1 686.9 1066.7 688.7 1066.7Z" stroke="#000000" stroke-width="0.600164" stroke-linecap="round" stroke-linejoin="round" stroke-miterlimit="10" fill-rule="evenodd"/><path d="M704.5 1042.5 679.091 1042.5 679.091 1038.36 682.637 1038.36 680.864 1037.18 679.682 1036 679.091 1034.82 678.5 1033.64 679.091 1031.27 679.682 1029.5 683.818 1030.68 683.227 1032.45 682.637 1033.64 682.637 1034.82 683.818 1036 684.409 1036.59 686.182 1037.18 688.545 1037.77 690.909 1037.77 704.5 1037.77 704.5 1042.5Z" stroke="#000000" stroke-width="0.600164" stroke-linecap="round" stroke-linejoin="round" stroke-miterlimit="10" fill-rule="evenodd"/><path d="M706.238 1026.91 706.828 1022.74 708.599 1022.15 709.779 1020.96 710.369 1019.18 710.369 1016.8 710.369 1015.01 709.779 1013.82 709.189 1012.64 708.008 1011.45 706.238 1010.26 705.058 1010.26 703.877 1010.26 701.517 1010.26 703.287 1012.04 703.877 1014.42 704.467 1016.8 704.467 1019.18 703.287 1021.55 702.107 1023.34 700.927 1024.53 697.976 1026.31 695.025 1027.5 691.484 1027.5 687.943 1027.5 684.992 1026.31 683.222 1025.12 681.451 1023.93 680.271 1022.74 679.09 1020.96 678.5 1019.18 678.5 1017.39 679.09 1014.42 680.271 1012.04 682.041 1010.26 679.09 1010.26 679.09 1005.5 700.927 1005.5 704.467 1005.5 707.418 1006.09 709.189 1006.69 710.959 1007.88 712.14 1009.07 713.32 1010.85 713.91 1012.64 714.5 1014.42 714.5 1016.8 714.5 1019.77 713.91 1022.15 712.73 1024.53 710.959 1025.72 709.189 1026.91 706.238 1026.91ZM691.484 1022.74 694.435 1022.74 696.795 1022.15 697.976 1020.96 699.156 1019.77 700.336 1018.58 700.336 1016.8 700.336 1015.01 699.746 1013.23 697.976 1012.04 696.795 1010.85 694.435 1010.26 691.484 1010.26 688.533 1010.26 686.762 1010.85 684.992 1012.04 683.812 1013.23 682.631 1015.01 682.631 1016.8 682.631 1018.58 683.812 1019.77 684.992 1020.96 686.762 1022.15 688.533 1022.74 691.484 1022.74Z" stroke="#000000" stroke-width="0.600164" stroke-linecap="round" stroke-linejoin="round" stroke-miterlimit="10" fill-rule="evenodd"/><path d="M713.9 999.038 710.3 999.654 710.3 998.423 710.3 997.192 710.3 995.961 710.3 994.731 709.7 994.115 708.5 993.5 707.9 992.885 706.7 992.885 705.5 992.269 704.3 991.654 678.5 1001.5 678.5 996.577 692.9 991.654 698.3 989.807 695.9 988.577 693.5 987.961 678.5 982.423 678.5 977.5 704.9 986.731 707.3 987.961 709.1 988.577 710.9 989.193 712.7 991.039 713.9 992.269 714.5 994.115 714.5 995.961 714.5 997.192 713.9 999.038Z" stroke="#000000" stroke-width="0.600164" stroke-linecap="round" stroke-linejoin="round" stroke-miterlimit="10" fill-rule="evenodd"/><path d="M714.5 952.394 709.7 955.29 704.3 958.184 698.3 959.921 691.7 960.5 681.5 958.763 675.5 956.447 669.5 952.394 669.5 949.5 672.5 951.237 674.9 952.394 676.1 952.974 679.7 954.131 683.3 955.29 687.5 955.868 692.3 956.447 703.1 954.711 714.5 949.5 714.5 952.394Z" stroke="#000000" stroke-width="0.600164" stroke-linecap="round" stroke-linejoin="round" stroke-miterlimit="10" fill-rule="evenodd"/><path d="M697.1 927.218 697.7 922.5 700.1 923.679 701.9 924.859 703.1 926.629 704.3 928.398 704.9 930.756 705.5 933.706 704.9 936.654 704.3 939.013 703.7 940.782 701.9 942.552 697.7 944.91 692.3 945.5 686.3 944.91 682.1 942.552 680.9 940.782 679.7 939.013 679.1 936.654 678.5 933.706 679.1 930.756 680.3 927.808 682.1 925.448 686.3 923.09 691.7 922.5 692.9 922.5 692.9 941.372 695.3 940.782 697.7 940.192 698.9 939.013 700.1 937.244 701.3 935.475 701.3 933.706 701.3 931.346 700.1 929.577 698.9 928.398 697.1 927.218ZM688.7 941.372 688.7 927.218 687.5 927.218 685.7 927.808 685.1 928.398 683.9 930.167 682.7 931.936 682.7 934.295 682.7 936.064 683.3 937.833 684.5 939.013 685.7 940.192 686.9 940.782 688.7 941.372Z" stroke="#000000" stroke-width="0.600164" stroke-linecap="round" stroke-linejoin="round" stroke-miterlimit="10" fill-rule="evenodd"/><path d="M704.5 910.654 678.5 919.5 678.5 914.192 694.221 909.475 699.058 907.706 697.244 907.115 694.221 906.526 678.5 901.218 678.5 896.5 704.5 904.757 704.5 910.654Z" stroke="#000000" stroke-width="0.600164" stroke-linecap="round" stroke-linejoin="round" stroke-miterlimit="10" fill-rule="evenodd"/><path d="M714.5 890.9 714.5 894.5 703.1 889.1 692.3 887.3 687.5 887.3 683.3 887.9 679.7 889.1 676.7 890.301 674.9 891.5 672.5 892.7 669.5 894.5 669.5 890.9 675.5 887.3 681.5 884.3 691.7 882.5 698.3 883.1 704.3 884.9 709.7 887.9 714.5 890.9Z" stroke="#000000" stroke-width="0.600164" stroke-linecap="round" stroke-linejoin="round" stroke-miterlimit="10" fill-rule="evenodd"/><path d="M1652.58 1739.5 1643.5 1713.5 1648.35 1713.5 1653.18 1728.62 1655 1734.06 1655.61 1731.64 1656.82 1729.22 1661.65 1713.5 1666.5 1713.5 1658.02 1739.5 1652.58 1739.5Z" stroke="#000000" stroke-width="0.600164" stroke-linecap="round" stroke-linejoin="round" stroke-miterlimit="10" fill-rule="evenodd"/><path d="M1669.5 1726 1670.69 1719.86 1673.63 1714.96 1675.99 1713.73 1678.35 1712.5 1681.3 1712.5 1684.25 1712.5 1687.19 1713.73 1689.55 1715.57 1690.73 1718.02 1691.92 1719.86 1692.5 1722.94 1692.5 1725.38 1692.5 1729.06 1691.92 1731.52 1691.32 1733.36 1690.15 1735.2 1688.96 1737.04 1687.19 1738.27 1684.25 1739.5 1681.3 1739.5 1678.94 1739.5 1676.58 1738.88 1674.81 1737.66 1673.04 1736.43 1670.69 1732.14 1669.5 1726ZM1674.22 1726 1674.81 1729.06 1675.4 1731.52 1676.58 1733.36 1677.76 1734.59 1679.53 1735.2 1681.3 1735.2 1683.07 1735.2 1684.84 1734.59 1686.02 1733.36 1687.19 1731.52 1687.79 1729.06 1687.79 1726 1687.79 1722.94 1687.19 1720.48 1686.02 1718.64 1684.84 1717.41 1683.07 1716.8 1681.3 1716.8 1679.53 1716.8 1677.76 1717.41 1676.58 1718.64 1675.4 1720.48 1674.81 1722.94 1674.22 1726Z" stroke="#000000" stroke-width="0.600164" stroke-linecap="round" stroke-linejoin="round" stroke-miterlimit="10" fill-rule="evenodd"/><path d="M1698.5 1739.5 1698.5 1703.5 1702.5 1703.5 1702.5 1739.5 1698.5 1739.5Z" stroke="#000000" stroke-width="0.600164" stroke-linecap="round" stroke-linejoin="round" stroke-miterlimit="10" fill-rule="evenodd"/><path d="M1724.65 1739.5 1724.65 1734.66 1723.44 1737.08 1721.62 1738.28 1719.8 1739.5 1717.38 1739.5 1715.56 1739.5 1713.75 1738.89 1711.93 1737.69 1710.71 1736.47 1710.11 1735.26 1709.5 1733.45 1709.5 1731.64 1709.5 1729.22 1709.5 1713.5 1713.75 1713.5 1713.75 1727.4 1713.75 1729.22 1714.35 1731.03 1714.35 1731.64 1714.95 1733.45 1715.56 1734.66 1717.38 1735.26 1718.59 1735.26 1720.41 1735.26 1722.23 1734.66 1723.44 1733.45 1724.05 1731.64 1724.65 1729.82 1724.65 1726.8 1724.65 1713.5 1729.5 1713.5 1729.5 1739.5 1724.65 1739.5Z" stroke="#000000" stroke-width="0.600164" stroke-linecap="round" stroke-linejoin="round" stroke-miterlimit="10" fill-rule="evenodd"/><path d="M1735.5 1739.5 1735.5 1713.12 1740.31 1713.12 1740.31 1716.8 1741.5 1714.96 1743.3 1713.73 1745.71 1712.5 1748.1 1712.5 1750.5 1712.5 1752.3 1713.73 1754.1 1714.96 1755.3 1717.41 1756.51 1714.96 1758.9 1713.73 1760.7 1712.5 1763.1 1712.5 1765.51 1712.5 1767.31 1713.12 1769.11 1714.34 1770.3 1716.18 1770.91 1718.64 1771.5 1721.1 1771.5 1739.5 1766.7 1739.5 1766.7 1722.94 1766.7 1720.48 1766.1 1719.25 1765.51 1718.02 1764.9 1717.41 1763.71 1716.8 1761.91 1716.8 1760.11 1716.8 1758.9 1717.41 1757.7 1718.64 1756.51 1719.86 1755.9 1721.7 1755.9 1724.16 1755.9 1739.5 1751.11 1739.5 1751.11 1722.32 1751.11 1720.48 1750.5 1719.25 1749.9 1718.02 1749.31 1717.41 1748.1 1716.8 1746.9 1716.8 1745.1 1716.8 1743.3 1717.41 1742.11 1718.64 1740.9 1720.48 1740.31 1722.94 1740.31 1726 1740.31 1739.5 1735.5 1739.5Z" stroke="#000000" stroke-width="0.600164" stroke-linecap="round" stroke-linejoin="round" stroke-miterlimit="10" fill-rule="evenodd"/><path d="M1795.7 1731.52 1800.5 1731.52 1799.3 1733.98 1798.11 1735.82 1796.31 1737.66 1793.9 1738.88 1791.5 1739.5 1789.1 1739.5 1786.1 1739.5 1783.7 1738.88 1781.9 1737.66 1780.1 1736.43 1777.7 1732.14 1776.5 1726 1777.7 1720.48 1780.1 1716.18 1781.9 1714.34 1783.7 1713.12 1786.1 1712.5 1788.5 1712.5 1792.1 1712.5 1794.5 1713.73 1796.9 1715.57 1799.3 1719.86 1800.5 1726 1800.5 1727.22 1781.3 1727.22 1781.9 1729.68 1782.5 1731.52 1783.7 1733.36 1784.9 1734.59 1786.7 1735.2 1789.1 1735.2 1790.9 1735.2 1793.3 1734.59 1794.5 1733.36 1795.7 1731.52ZM1781.3 1722.94 1795.7 1722.94 1795.7 1721.1 1795.1 1719.86 1793.9 1718.64 1792.7 1717.41 1790.9 1716.8 1788.5 1716.8 1786.7 1716.8 1784.9 1717.41 1783.7 1718.02 1782.5 1719.25 1781.9 1721.1 1781.3 1722.94Z" stroke="#000000" stroke-width="0.600164" stroke-linecap="round" stroke-linejoin="round" stroke-miterlimit="10" fill-rule="evenodd"/><path d="M1828.34 1748.5 1825.19 1743.77 1822.02 1738.44 1820.13 1731.93 1819.5 1726 1821.4 1715.34 1823.92 1709.42 1828.34 1703.5 1831.5 1703.5 1829.6 1706.46 1828.34 1708.83 1827.71 1710.61 1826.45 1713.56 1825.19 1717.12 1824.55 1721.85 1823.92 1726 1825.81 1737.25 1831.5 1748.5 1828.34 1748.5Z" stroke="#000000" stroke-width="0.600164" stroke-linecap="round" stroke-linejoin="round" stroke-miterlimit="10" fill-rule="evenodd"/><path d="M1832.5 1739.5 1847.07 1703.34 1851.93 1703.34 1866.5 1739.5 1861.04 1739.5 1857.39 1728.05 1841.61 1728.05 1837.96 1739.5 1832.5 1739.5ZM1843.43 1724.43 1855.57 1724.43 1851.93 1714.78 1851.32 1711.77 1850.11 1709.36 1849.5 1707.55 1847.07 1714.19 1843.43 1724.43ZM1844.64 1700.32 1844.64 1698.51 1845.85 1697.31 1847.67 1696.11 1849.5 1695.5 1851.32 1696.11 1853.14 1697.31 1854.36 1698.51 1854.36 1700.32 1854.36 1702.73 1853.14 1703.93 1851.32 1705.15 1849.5 1705.74 1847.67 1705.15 1845.85 1703.93 1844.64 1702.73 1844.64 1700.32ZM1846.46 1700.32 1847.07 1701.53 1847.67 1702.73 1848.28 1703.34 1849.5 1703.34 1850.72 1703.34 1851.32 1702.73 1851.93 1701.53 1852.54 1700.32 1851.93 1699.72 1851.32 1698.51 1850.72 1697.91 1849.5 1697.91 1848.28 1697.91 1847.67 1698.51 1847.07 1699.72 1846.46 1700.32Z" stroke="#000000" stroke-width="0.600164" stroke-linecap="round" stroke-linejoin="round" stroke-miterlimit="10" fill-rule="evenodd"/><path d="M1868.5 1706.65 1871.98 1706.04 1872.57 1708.46 1873.73 1710.28 1875.47 1710.88 1877.21 1710.88 1878.95 1710.88 1880.11 1710.28 1881.28 1709.67 1882.43 1707.86 1882.43 1705.44 1882.43 1703.03 1881.28 1701.21 1879.53 1700.61 1877.21 1700 1876.63 1700 1874.88 1700.61 1875.47 1696.98 1876.05 1696.98 1877.79 1696.98 1879.53 1695.78 1880.11 1695.17 1880.69 1693.96 1881.28 1692.75 1880.69 1690.94 1880.11 1689.73 1878.37 1689.12 1876.63 1688.53 1875.47 1689.12 1873.73 1689.73 1873.14 1691.54 1872.57 1693.36 1868.5 1692.75 1869.08 1690.94 1870.24 1689.12 1871.4 1687.31 1873.14 1686.11 1874.88 1685.5 1876.63 1685.5 1878.95 1685.5 1880.69 1686.11 1882.43 1687.31 1883.59 1689.12 1884.18 1690.94 1884.76 1692.75 1884.18 1694.56 1883.59 1695.78 1882.43 1696.98 1880.69 1698.19 1883.02 1699.4 1884.76 1700.61 1885.33 1701.81 1885.92 1703.63 1886.5 1705.44 1885.92 1707.86 1885.33 1709.67 1883.59 1712.09 1881.85 1713.3 1879.53 1713.9 1877.21 1714.5 1874.88 1714.5 1872.57 1713.3 1870.83 1712.09 1869.66 1710.88 1868.5 1708.46 1868.5 1706.65Z" stroke="#000000" stroke-width="0.600164" stroke-linecap="round" stroke-linejoin="round" stroke-miterlimit="10" fill-rule="evenodd"/><path d="M1892.5 1748.5 1889.5 1748.5 1894.9 1737.25 1896.7 1726 1896.7 1721.85 1895.5 1717.12 1894.9 1714.16 1893.1 1710.61 1892.5 1708.83 1891.3 1706.46 1889.5 1703.5 1892.5 1703.5 1896.7 1709.42 1899.7 1715.34 1901.5 1726 1900.91 1731.93 1898.5 1738.44 1896.1 1743.77 1892.5 1748.5Z" stroke="#000000" stroke-width="0.600164" stroke-linecap="round" stroke-linejoin="round" stroke-miterlimit="10" fill-rule="evenodd"/><path d="M1085.5 643 1084.29 636.362 1080.07 630.328 1074.64 626.707 1068 625.5 1061.36 626.707 1055.93 630.328 1051.71 636.362 1050.5 643 1051.71 649.638 1055.93 655.069 1061.36 658.69 1068 660.5 1074.64 658.69 1080.07 655.069 1084.29 649.638 1085.5 643" stroke="#FF0000" stroke-width="1.19997" stroke-linecap="round" stroke-linejoin="round" stroke-miterlimit="10" fill="none" fill-rule="evenodd"/><path d="M1068.5 642.5 1068.5 642.5" stroke="#FF0000" stroke-width="1.19997" stroke-linecap="round" stroke-linejoin="round" stroke-miterlimit="10" fill="none" fill-rule="evenodd"/><path d="M1160.5 882 1159.31 875.362 1155.73 869.931 1150.36 865.707 1143.8 864.5 1136.64 865.707 1131.27 869.931 1127.69 875.362 1126.5 882 1127.69 888.638 1131.27 894.673 1136.64 898.294 1143.8 899.5 1150.36 898.294 1155.73 894.673 1159.31 888.638 1160.5 882" stroke="#FF0000" stroke-width="1.19997" stroke-linecap="round" stroke-linejoin="round" stroke-miterlimit="10" fill="none" fill-rule="evenodd"/><path d="M1143.5 882.5 1143.5 882.5" stroke="#FF0000" stroke-width="1.19997" stroke-linecap="round" stroke-linejoin="round" stroke-miterlimit="10" fill="none" fill-rule="evenodd"/><path d="M1236.5 1082 1234.69 1075.36 1231.07 1069.93 1225.64 1066.31 1219 1064.5 1211.76 1066.31 1206.33 1069.93 1202.71 1075.36 1201.5 1082 1202.71 1089.24 1206.33 1094.67 1211.76 1098.29 1219 1099.5 1225.64 1098.29 1231.07 1094.67 1234.69 1089.24 1236.5 1082" stroke="#FF0000" stroke-width="1.19997" stroke-linecap="round" stroke-linejoin="round" stroke-miterlimit="10" fill="none" fill-rule="evenodd"/><path d="M1218.5 1081.5 1218.5 1081.5" stroke="#FF0000" stroke-width="1.19997" stroke-linecap="round" stroke-linejoin="round" stroke-miterlimit="10" fill="none" fill-rule="evenodd"/><path d="M1311.5 1244 1310.29 1237.36 1306.67 1231.93 1301.24 1228.31 1294 1226.5 1287.36 1228.31 1281.93 1231.93 1278.31 1237.36 1276.5 1244 1278.31 1251.24 1281.93 1256.67 1287.36 1260.29 1294 1261.5 1301.24 1260.29 1306.67 1256.67 1310.29 1251.24 1311.5 1244" stroke="#FF0000" stroke-width="1.19997" stroke-linecap="round" stroke-linejoin="round" stroke-miterlimit="10" fill="none" fill-rule="evenodd"/><path d="M1294.5 1244.5 1294.5 1244.5" stroke="#FF0000" stroke-width="1.19997" stroke-linecap="round" stroke-linejoin="round" stroke-miterlimit="10" fill="none" fill-rule="evenodd"/><path d="M1387.5 1371.8 1385.69 1364.64 1382.07 1359.27 1376.64 1355.69 1370 1354.5 1363.36 1355.69 1357.33 1359.27 1353.71 1364.64 1352.5 1371.8 1353.71 1378.36 1357.33 1383.73 1363.36 1387.31 1370 1388.5 1376.64 1387.31 1382.07 1383.73 1385.69 1378.36 1387.5 1371.8" stroke="#FF0000" stroke-width="1.19997" stroke-linecap="round" stroke-linejoin="round" stroke-miterlimit="10" fill="none" fill-rule="evenodd"/><path d="M1369.5 1372.5 1369.5 1372.5" stroke="#FF0000" stroke-width="1.19997" stroke-linecap="round" stroke-linejoin="round" stroke-miterlimit="10" fill="none" fill-rule="evenodd"/><path d="M1462.5 1467 1461.31 1459.76 1457.73 1454.33 1452.36 1450.71 1445.2 1449.5 1438.64 1450.71 1433.27 1454.33 1429.69 1459.76 1428.5 1467 1429.69 1473.64 1433.27 1479.07 1438.64 1482.69 1445.2 1484.5 1452.36 1482.69 1457.73 1479.07 1461.31 1473.64 1462.5 1467" stroke="#FF0000" stroke-width="1.19997" stroke-linecap="round" stroke-linejoin="round" stroke-miterlimit="10" fill="none" fill-rule="evenodd"/><path d="M1444.5 1467.5 1444.5 1467.5" stroke="#FF0000" stroke-width="1.19997" stroke-linecap="round" stroke-linejoin="round" stroke-miterlimit="10" fill="none" fill-rule="evenodd"/><path d="M1538.5 1532 1537.29 1525.36 1533.07 1519.33 1527.64 1515.71 1521 1514.5 1514.36 1515.71 1508.93 1519.33 1504.71 1525.36 1503.5 1532 1504.71 1538.64 1508.93 1544.07 1514.36 1547.69 1521 1549.5 1527.64 1547.69 1533.07 1544.07 1537.29 1538.64 1538.5 1532" stroke="#FF0000" stroke-width="1.19997" stroke-linecap="round" stroke-linejoin="round" stroke-miterlimit="10" fill="none" fill-rule="evenodd"/><path d="M1520.5 1532.5 1520.5 1532.5" stroke="#FF0000" stroke-width="1.19997" stroke-linecap="round" stroke-linejoin="round" stroke-miterlimit="10" fill="none" fill-rule="evenodd"/><path d="M1613.5 1569 1612.28 1562.36 1608.59 1556.93 1603.06 1553.31 1596.31 1551.5 1588.94 1553.31 1583.42 1556.93 1579.73 1562.36 1578.5 1569 1579.73 1575.64 1583.42 1581.67 1588.94 1585.29 1596.31 1586.5 1603.06 1585.29 1608.59 1581.67 1612.28 1575.64 1613.5 1569" stroke="#FF0000" stroke-width="1.19997" stroke-linecap="round" stroke-linejoin="round" stroke-miterlimit="10" fill="none" fill-rule="evenodd"/><path d="M1596.5 1568.5 1596.5 1568.5" stroke="#FF0000" stroke-width="1.19997" stroke-linecap="round" stroke-linejoin="round" stroke-miterlimit="10" fill="none" fill-rule="evenodd"/><path d="M1688.5 1579.8 1687.33 1572.64 1683.81 1567.27 1677.95 1563.69 1671.5 1562.5 1665.05 1563.69 1659.78 1567.27 1656.26 1572.64 1654.5 1579.8 1656.26 1586.35 1659.78 1591.72 1665.05 1595.3 1671.5 1596.5 1677.95 1595.3 1683.81 1591.72 1687.33 1586.35 1688.5 1579.8" stroke="#FF0000" stroke-width="1.19997" stroke-linecap="round" stroke-linejoin="round" stroke-miterlimit="10" fill="none" fill-rule="evenodd"/><path d="M1671.5 1580.5 1671.5 1580.5" stroke="#FF0000" stroke-width="1.19997" stroke-linecap="round" stroke-linejoin="round" stroke-miterlimit="10" fill="none" fill-rule="evenodd"/><path d="M1764.5 1566 1763.29 1558.76 1759.67 1553.33 1754.24 1549.71 1747 1548.5 1740.36 1549.71 1734.93 1553.33 1731.31 1558.76 1729.5 1566 1731.31 1572.64 1734.93 1578.07 1740.36 1581.69 1747 1583.5 1754.24 1581.69 1759.67 1578.07 1763.29 1572.64 1764.5 1566" stroke="#FF0000" stroke-width="1.19997" stroke-linecap="round" stroke-linejoin="round" stroke-miterlimit="10" fill="none" fill-rule="evenodd"/><path d="M1746.5 1566.5 1746.5 1566.5" stroke="#FF0000" stroke-width="1.19997" stroke-linecap="round" stroke-linejoin="round" stroke-miterlimit="10" fill="none" fill-rule="evenodd"/><path d="M1839.5 1530 1838.29 1522.76 1834.07 1517.33 1828.64 1513.71 1822 1512.5 1815.36 1513.71 1809.32 1517.33 1805.7 1522.76 1804.5 1530 1805.7 1536.64 1809.32 1542.07 1815.36 1545.69 1822 1547.5 1828.64 1545.69 1834.07 1542.07 1838.29 1536.64 1839.5 1530" stroke="#FF0000" stroke-width="1.19997" stroke-linecap="round" stroke-linejoin="round" stroke-miterlimit="10" fill="none" fill-rule="evenodd"/><path d="M1822.5 1530.5 1822.5 1530.5" stroke="#FF0000" stroke-width="1.19997" stroke-linecap="round" stroke-linejoin="round" stroke-miterlimit="10" fill="none" fill-rule="evenodd"/><path d="M1914.5 1472.5 1913.31 1466.05 1909.73 1460.19 1904.36 1456.68 1897.2 1455.5 1890.64 1456.68 1885.27 1460.19 1881.69 1466.05 1880.5 1472.5 1881.69 1478.95 1885.27 1484.22 1890.64 1487.74 1897.2 1489.5 1904.36 1487.74 1909.73 1484.22 1913.31 1478.95 1914.5 1472.5" stroke="#FF0000" stroke-width="1.19997" stroke-linecap="round" stroke-linejoin="round" stroke-miterlimit="10" fill="none" fill-rule="evenodd"/><path d="M1897.5 1472.5 1897.5 1472.5" stroke="#FF0000" stroke-width="1.19997" stroke-linecap="round" stroke-linejoin="round" stroke-miterlimit="10" fill="none" fill-rule="evenodd"/><path d="M1990.5 1395.69 1989.3 1388.94 1985.68 1383.41 1979.64 1379.72 1973 1378.5 1966.36 1379.72 1960.93 1383.41 1956.71 1388.94 1955.5 1395.69 1956.71 1403.06 1960.93 1408.58 1966.36 1412.27 1973 1413.5 1979.64 1412.27 1985.68 1408.58 1989.3 1403.06 1990.5 1395.69" stroke="#FF0000" stroke-width="1.19997" stroke-linecap="round" stroke-linejoin="round" stroke-miterlimit="10" fill="none" fill-rule="evenodd"/><path d="M1973.5 1395.5 1973.5 1395.5" stroke="#FF0000" stroke-width="1.19997" stroke-linecap="round" stroke-linejoin="round" stroke-miterlimit="10" fill="none" fill-rule="evenodd"/><path d="M2066.5 1301 2064.69 1294.36 2061.07 1288.93 2055.64 1285.31 2049 1283.5 2041.76 1285.31 2036.33 1288.93 2032.71 1294.36 2031.5 1301 2032.71 1308.24 2036.33 1313.67 2041.76 1317.3 2049 1318.5 2055.64 1317.3 2061.07 1313.67 2064.69 1308.24 2066.5 1301" stroke="#FF0000" stroke-width="1.19997" stroke-linecap="round" stroke-linejoin="round" stroke-miterlimit="10" fill="none" fill-rule="evenodd"/><path d="M2048.5 1300.5 2048.5 1300.5" stroke="#FF0000" stroke-width="1.19997" stroke-linecap="round" stroke-linejoin="round" stroke-miterlimit="10" fill="none" fill-rule="evenodd"/><path d="M2141.5 1189 2140.3 1182.36 2136.67 1176.33 2130.64 1172.71 2124 1171.5 2117.36 1172.71 2111.93 1176.33 2108.31 1182.36 2106.5 1189 2108.31 1195.64 2111.93 1201.07 2117.36 1204.69 2124 1206.5 2130.64 1204.69 2136.67 1201.07 2140.3 1195.64 2141.5 1189" stroke="#FF0000" stroke-width="1.19997" stroke-linecap="round" stroke-linejoin="round" stroke-miterlimit="10" fill="none" fill-rule="evenodd"/><path d="M2124.5 1188.5 2124.5 1188.5" stroke="#FF0000" stroke-width="1.19997" stroke-linecap="round" stroke-linejoin="round" stroke-miterlimit="10" fill="none" fill-rule="evenodd"/><path d="M2216.5 1061.5 2215.29 1055.05 2211.67 1049.78 2206.24 1045.67 2199 1044.5 2192.36 1045.67 2186.93 1049.78 2183.31 1055.05 2181.5 1061.5 2183.31 1067.95 2186.93 1073.22 2192.36 1077.33 2199 1078.5 2206.24 1077.33 2211.67 1073.22 2215.29 1067.95 2216.5 1061.5" stroke="#FF0000" stroke-width="1.19997" stroke-linecap="round" stroke-linejoin="round" stroke-miterlimit="10" fill="none" fill-rule="evenodd"/><path d="M2199.5 1061.5 2199.5 1061.5" stroke="#FF0000" stroke-width="1.19997" stroke-linecap="round" stroke-linejoin="round" stroke-miterlimit="10" fill="none" fill-rule="evenodd"/><path d="M2292.5 919.202 2291.29 912.64 2287.07 907.272 2281.64 903.693 2275 902.5 2268.36 903.693 2262.93 907.272 2258.7 912.64 2257.5 919.202 2258.7 926.36 2262.93 931.728 2268.36 935.307 2275 936.5 2281.64 935.307 2287.07 931.728 2291.29 926.36 2292.5 919.202" stroke="#FF0000" stroke-width="1.19997" stroke-linecap="round" stroke-linejoin="round" stroke-miterlimit="10" fill="none" fill-rule="evenodd"/><path d="M2274.5 919.5 2274.5 919.5" stroke="#FF0000" stroke-width="1.19997" stroke-linecap="round" stroke-linejoin="round" stroke-miterlimit="10" fill="none" fill-rule="evenodd"/><path d="M2367.5 763 2366.31 756.363 2362.73 750.931 2357.36 746.707 2350.8 745.5 2343.64 746.707 2338.27 750.931 2334.69 756.363 2333.5 763 2334.69 769.638 2338.27 775.673 2343.64 779.294 2350.8 780.5 2357.36 779.294 2362.73 775.673 2366.31 769.638 2367.5 763" stroke="#FF0000" stroke-width="1.19997" stroke-linecap="round" stroke-linejoin="round" stroke-miterlimit="10" fill="none" fill-rule="evenodd"/><path d="M2350.5 763.5 2350.5 763.5" stroke="#FF0000" stroke-width="1.19997" stroke-linecap="round" stroke-linejoin="round" stroke-miterlimit="10" fill="none" fill-rule="evenodd"/><path d="M2443.5 595.694 2442.3 588.939 2438.68 583.413 2432.64 579.729 2426 578.5 2419.36 579.729 2413.93 583.413 2410.31 588.939 2408.5 595.694 2410.31 603.062 2413.93 608.588 2419.36 612.273 2426 613.5 2432.64 612.273 2438.68 608.588 2442.3 603.062 2443.5 595.694" stroke="#FF0000" stroke-width="1.19997" stroke-linecap="round" stroke-linejoin="round" stroke-miterlimit="10" fill="none" fill-rule="evenodd"/><path d="M2425.5 595.5 2425.5 595.5" stroke="#FF0000" stroke-width="1.19997" stroke-linecap="round" stroke-linejoin="round" stroke-miterlimit="10" fill="none" fill-rule="evenodd"/><path d="M2518.5 415.5 2516.74 409.052 2513.22 403.776 2507.95 400.259 2501.5 398.5 2494.47 400.259 2489.2 403.776 2485.68 409.052 2484.5 415.5 2485.68 421.948 2489.2 427.81 2494.47 431.328 2501.5 432.5 2507.95 431.328 2513.22 427.81 2516.74 421.948 2518.5 415.5" stroke="#FF0000" stroke-width="1.19997" stroke-linecap="round" stroke-linejoin="round" stroke-miterlimit="10" fill="none" fill-rule="evenodd"/><path d="M2501.5 415.5 2501.5 415.5" stroke="#FF0000" stroke-width="1.19997" stroke-linecap="round" stroke-linejoin="round" stroke-miterlimit="10" fill="none" fill-rule="evenodd"/><path d="M1068.5 641.534 1082.92 690.784 1097.34 738.834 1111.76 785.682 1126.18 830.127 1141.2 873.973 1155.02 916.016 1170.04 955.656 1183.86 995.297 1198.88 1032.54 1213.3 1067.97 1227.72 1102.81 1242.14 1136.44 1256.56 1167.67 1270.98 1198.31 1285.4 1227.74 1299.82 1255.36 1314.24 1281.79 1329.26 1307.01 1343.08 1331.65 1358.1 1353.86 1372.52 1375.49 1386.94 1395.91 1401.36 1415.13 1415.78 1433.75 1430.2 1450.57 1444.62 1466.18 1459.04 1481.2 1473.46 1494.41 1487.88 1507.02 1502.3 1518.44 1517.33 1528.64 1531.75 1538.26 1546.17 1546.66 1560.59 1553.87 1575.01 1560.48 1589.43 1565.89 1603.85 1570.09 1618.27 1573.69 1632.69 1576.09 1647.11 1577.29 1662.12 1578.5 1676.54 1577.9 1690.96 1576.7 1705.38 1574.9 1719.8 1572.49 1734.22 1568.89 1748.64 1564.09 1763.06 1558.68 1777.48 1552.67 1791.9 1546.07 1806.32 1538.26 1821.35 1529.85 1835.17 1520.24 1850.19 1510.62 1864.61 1499.81 1879.03 1487.8 1893.45 1475.79 1907.87 1462.58 1922.29 1449.36 1936.71 1434.95 1951.13 1419.94 1965.55 1404.32 1980.57 1387.5 1994.39 1370.68 2009.41 1352.66 2023.83 1334.65 2038.25 1315.43 2052.67 1295.61 2067.09 1275.79 2081.51 1254.76 2095.94 1233.14 2110.35 1210.92 2124.78 1188.1 2139.19 1165.27 2154.21 1141.25 2168.63 1117.22 2183.05 1092 2197.47 1066.17 2211.89 1040.34 2226.31 1013.92 2240.73 986.288 2255.15 959.26 2269.57 931.031 2284.59 902.202 2298.41 872.771 2313.44 843.342 2327.25 813.31 2342.27 782.078 2356.7 750.846 2371.12 719.613 2385.54 687.781 2399.96 654.747 2414.38 622.314 2428.8 588.679 2443.22 554.444 2457.64 520.209 2472.66 485.373 2486.48 450.537 2501.5 414.5" stroke="#FF0000" stroke-width="1.19997" stroke-linecap="round" stroke-linejoin="round" stroke-miterlimit="10" fill="none" fill-rule="evenodd"/><path d="M1010.5 1593.5 2537.5 1593.5 2537.5 413.5 1010.5 413.5 1010.5 1593.5" stroke="#000000" stroke-width="3.0001" stroke-linecap="round" stroke-linejoin="round" stroke-miterlimit="10" fill="none" fill-rule="evenodd"/></g></svg>