<svg width="567" height="454" xmlns="http://www.w3.org/2000/svg" xmlns:xlink="http://www.w3.org/1999/xlink" overflow="hidden"><defs><clipPath id="clip0"><rect x="0" y="0" width="567" height="454"/></clipPath></defs><g clip-path="url(#clip0)"><path d="M107.163 399.168 115.668 399.168M455.773 399.168 447.268 399.168 447.278 399.168" stroke="#000000" stroke-width="0.945" fill="none" transform="scale(1 1.00088)"/><text font-family="Arial,Arial_MSFontService,sans-serif" font-weight="400" font-size="16" transform="matrix(0.945 0 0 0.945833 73.8045 404)">215<tspan font-size="16" x="-4" y="0">.</tspan><tspan font-size="16" x="-40" y="0">1308</tspan><tspan font-size="16" x="-45" y="0">-</tspan></text><path d="M107.163 364.297 115.668 364.297M455.773 364.297 447.268 364.297 447.278 364.297" stroke="#000000" stroke-width="0.945" fill="none" transform="scale(1 1.00088)"/><text font-family="Arial,Arial_MSFontService,sans-serif" font-weight="400" font-size="16" transform="matrix(0.945 0 0 0.945833 73.8045 369)">214<tspan font-size="16" x="-4" y="0">.</tspan><tspan font-size="16" x="-40" y="0">1308</tspan><tspan font-size="16" x="-45" y="0">-</tspan></text><path d="M107.163 329.427 115.668 329.427M455.773 329.427 447.268 329.427 447.278 329.427" stroke="#000000" stroke-width="0.945" fill="none" transform="scale(1 1.00088)"/><text font-family="Arial,Arial_MSFontService,sans-serif" font-weight="400" font-size="16" transform="matrix(0.945 0 0 0.945833 73.8045 334)">213<tspan font-size="16" x="-4" y="0">.</tspan><tspan font-size="16" x="-40" y="0">1308</tspan><tspan font-size="16" x="-45" y="0">-</tspan></text><path d="M107.163 294.651 115.668 294.651M455.773 294.651 447.268 294.651 447.278 294.651" stroke="#000000" stroke-width="0.945" fill="none" transform="scale(1 1.00088)"/><text font-family="Arial,Arial_MSFontService,sans-serif" font-weight="400" font-size="16" transform="matrix(0.945 0 0 0.945833 73.8045 299)">212<tspan font-size="16" x="-4" y="0">.</tspan><tspan font-size="16" x="-40" y="0">1308</tspan><tspan font-size="16" x="-45" y="0">-</tspan></text><path d="M107.163 259.78 115.668 259.78M455.773 259.78 447.268 259.78 447.278 259.78" stroke="#000000" stroke-width="0.945" fill="none" transform="scale(1 1.00088)"/><text font-family="Arial,Arial_MSFontService,sans-serif" font-weight="400" font-size="16" transform="matrix(0.945 0 0 0.945833 74.7495 264)">211<tspan font-size="16" x="-4" y="0">.</tspan><tspan font-size="16" x="-40" y="0">1308</tspan><tspan font-size="16" x="-45" y="0">-</tspan></text><path d="M107.163 224.91 115.668 224.91M455.773 224.91 447.268 224.91 447.278 224.91" stroke="#000000" stroke-width="0.945" fill="none" transform="scale(1 1.00088)"/><text font-family="Arial,Arial_MSFontService,sans-serif" font-weight="400" font-size="16" transform="matrix(0.945 0 0 0.945833 73.8045 229)">210<tspan font-size="16" x="-4" y="0">.</tspan><tspan font-size="16" x="-40" y="0">1308</tspan><tspan font-size="16" x="-45" y="0">-</tspan></text><path d="M107.163 190.04 115.668 190.04M455.773 190.04 447.268 190.04 447.278 190.04" stroke="#000000" stroke-width="0.945" fill="none" transform="scale(1 1.00088)"/><text font-family="Arial,Arial_MSFontService,sans-serif" font-weight="400" font-size="16" transform="matrix(0.945 0 0 0.945833 73.8045 194)">209<tspan font-size="16" x="-4" y="0">.</tspan><tspan font-size="16" x="-40" y="0">1308</tspan><tspan font-size="16" x="-45" y="0">-</tspan></text><path d="M107.163 155.169 115.668 155.169M455.773 155.169 447.268 155.169 447.278 155.169" stroke="#000000" stroke-width="0.945" fill="none" transform="scale(1 1.00088)"/><text font-family="Arial,Arial_MSFontService,sans-serif" font-weight="400" font-size="16" transform="matrix(0.945 0 0 0.945833 73.8045 160)">208<tspan font-size="16" x="-4" y="0">.</tspan><tspan font-size="16" x="-40" y="0">1308</tspan><tspan font-size="16" x="-45" y="0">-</tspan></text><path d="M107.163 120.299 115.668 120.299M455.773 120.299 447.268 120.299 447.278 120.299" stroke="#000000" stroke-width="0.945" fill="none" transform="scale(1 1.00088)"/><text font-family="Arial,Arial_MSFontService,sans-serif" font-weight="400" font-size="16" transform="matrix(0.945 0 0 0.945833 73.8045 125)">207<tspan font-size="16" x="-4" y="0">.</tspan><tspan font-size="16" x="-40" y="0">1308</tspan><tspan font-size="16" x="-45" y="0">-</tspan></text><path d="M107.163 85.5225 115.668 85.5225M455.773 85.5225 447.268 85.5225 447.278 85.5225" stroke="#000000" stroke-width="0.945" fill="none" transform="scale(1 1.00088)"/><text font-family="Arial,Arial_MSFontService,sans-serif" font-weight="400" font-size="16" transform="matrix(0.945 0 0 0.945833 73.8045 90)">206<tspan font-size="16" x="-4" y="0">.</tspan><tspan font-size="16" x="-40" y="0">1308</tspan><tspan font-size="16" x="-45" y="0">-</tspan></text><path d="M107.163 50.652 115.668 50.652M455.773 50.652 447.268 50.652 447.278 50.652" stroke="#000000" stroke-width="0.945" fill="none" transform="scale(1 1.00088)"/><text font-family="Arial,Arial_MSFontService,sans-serif" font-weight="400" font-size="16" transform="matrix(0.945 0 0 0.945833 73.8045 55)">205<tspan font-size="16" x="-4" y="0">.</tspan><tspan font-size="16" x="-40" y="0">1308</tspan><tspan font-size="16" x="-45" y="0">-</tspan></text><path d="M107.163 15.7815 115.668 15.7815M455.773 15.7815 447.268 15.7815 447.278 15.7815" stroke="#000000" stroke-width="0.945" fill="none" transform="scale(1 1.00088)"/><text font-family="Arial,Arial_MSFontService,sans-serif" font-weight="400" font-size="16" transform="matrix(0.945 0 0 0.945833 73.8045 20)">204<tspan font-size="16" x="-4" y="0">.</tspan><tspan font-size="16" x="-40" y="0">1308</tspan><tspan font-size="16" x="-45" y="0">-</tspan></text><path d="M107.163 399.168 107.163 390.663M107.163 15.7815 107.163 24.2865 107.172 24.2865" stroke="#000000" stroke-width="0.945" fill="none" transform="scale(1 1.00088)"/><text font-family="Arial,Arial_MSFontService,sans-serif" font-weight="400" font-size="16" transform="matrix(0.945 0 0 0.945833 102.91 421)">0</text><path d="M145.908 399.168 145.908 390.663M145.908 15.7815 145.908 24.2865 145.917 24.2865" stroke="#000000" stroke-width="0.945" fill="none" transform="scale(1 1.00088)"/><text font-family="Arial,Arial_MSFontService,sans-serif" font-weight="400" font-size="16" transform="matrix(0.945 0 0 0.945833 137.403 421)">10</text><path d="M184.653 399.168 184.653 390.663M184.653 15.7815 184.653 24.2865 184.662 24.2865" stroke="#000000" stroke-width="0.945" fill="none" transform="scale(1 1.00088)"/><text font-family="Arial,Arial_MSFontService,sans-serif" font-weight="400" font-size="16" transform="matrix(0.945 0 0 0.945833 176.148 421)">20</text><path d="M223.398 399.168 223.398 390.663M223.398 15.7815 223.398 24.2865 223.407 24.2865" stroke="#000000" stroke-width="0.945" fill="none" transform="scale(1 1.00088)"/><text font-family="Arial,Arial_MSFontService,sans-serif" font-weight="400" font-size="16" transform="matrix(0.945 0 0 0.945833 214.893 421)">30</text><path d="M262.143 399.168 262.143 390.663M262.143 15.7815 262.143 24.2865 262.152 24.2865" stroke="#000000" stroke-width="0.945" fill="none" transform="scale(1 1.00088)"/><text font-family="Arial,Arial_MSFontService,sans-serif" font-weight="400" font-size="16" transform="matrix(0.945 0 0 0.945833 253.638 421)">40</text><path d="M300.793 399.168 300.793 390.663M300.793 15.7815 300.793 24.2865 300.803 24.2865" stroke="#000000" stroke-width="0.945" fill="none" transform="scale(1 1.00088)"/><text font-family="Arial,Arial_MSFontService,sans-serif" font-weight="400" font-size="16" transform="matrix(0.945 0 0 0.945833 292.289 421)">50</text><path d="M339.538 399.168 339.538 390.663M339.538 15.7815 339.538 24.2865 339.548 24.2865" stroke="#000000" stroke-width="0.945" fill="none" transform="scale(1 1.00088)"/><text font-family="Arial,Arial_MSFontService,sans-serif" font-weight="400" font-size="16" transform="matrix(0.945 0 0 0.945833 331.034 421)">60</text><path d="M378.283 399.168 378.283 390.663M378.283 15.7815 378.283 24.2865 378.293 24.2865" stroke="#000000" stroke-width="0.945" fill="none" transform="scale(1 1.00088)"/><text font-family="Arial,Arial_MSFontService,sans-serif" font-weight="400" font-size="16" transform="matrix(0.945 0 0 0.945833 369.779 421)">70</text><path d="M417.028 399.168 417.028 390.663M417.028 15.7815 417.028 24.2865 417.038 24.2865" stroke="#000000" stroke-width="0.945" fill="none" transform="scale(1 1.00088)"/><text font-family="Arial,Arial_MSFontService,sans-serif" font-weight="400" font-size="16" transform="matrix(0.945 0 0 0.945833 408.523 421)">80</text><path d="M455.773 399.168 455.773 390.663M455.773 15.7815 455.773 24.2865 455.783 24.2865" stroke="#000000" stroke-width="0.945" fill="none" transform="scale(1 1.00088)"/><text font-family="Arial,Arial_MSFontService,sans-serif" font-weight="400" font-size="16" transform="matrix(0.945 0 0 0.945833 447.268 421)">90</text><path d="M455.773 399.168 447.268 399.168 447.278 399.168" stroke="#000000" stroke-width="0.945" fill="none" transform="scale(1 1.00088)"/><text font-family="Arial,Arial_MSFontService,sans-serif" font-weight="400" font-size="16" transform="matrix(0.945 0 0 0.945833 463.617 404)">0<tspan font-size="16" x="9.00001" y="0">.</tspan><tspan font-size="16" x="13" y="0">0001</tspan></text><path d="M455.773 360.707 451.521 360.707M455.773 338.215 451.521 338.215M455.773 322.245 451.521 322.245M455.773 309.865 451.521 309.865M455.773 299.754 451.521 299.754M455.773 291.155 451.521 291.155M455.773 283.783 451.521 283.783M455.773 277.263 451.521 277.263M455.773 271.404 447.268 271.404 447.278 271.404" stroke="#000000" stroke-width="0.945" fill="none" transform="scale(1 1.00088)"/><text font-family="Arial,Arial_MSFontService,sans-serif" font-weight="400" font-size="16" transform="matrix(0.945 0 0 0.945833 463.617 276)">0<tspan font-size="16" x="9.00001" y="0">.</tspan><tspan font-size="16" x="13" y="0">001</tspan></text><path d="M455.773 232.943 451.521 232.943M455.773 210.357 451.521 210.357M455.773 194.386 451.521 194.386M455.773 182.007 451.521 182.007M455.773 171.895 451.521 171.895M455.773 163.39 451.521 163.39M455.773 155.925 451.521 155.925M455.773 149.405 451.521 149.405M455.773 143.545 447.268 143.545 447.278 143.545" stroke="#000000" stroke-width="0.945" fill="none" transform="scale(1 1.00088)"/><text font-family="Arial,Arial_MSFontService,sans-serif" font-weight="400" font-size="16" transform="matrix(0.945 0 0 0.945833 463.617 148)">0<tspan font-size="16" x="9.00001" y="0">.</tspan><tspan font-size="16" x="13" y="0">01</tspan></text><path d="M455.773 105.084 451.521 105.084M455.773 82.593 451.521 82.593M455.773 66.6225 451.521 66.6225M455.773 54.243 451.521 54.243M455.773 44.1315 451.521 44.1315M455.773 35.532 451.521 35.532M455.773 28.161 451.521 28.161M455.773 21.6405 451.521 21.6405M455.773 15.7815 447.268 15.7815 447.278 15.7815" stroke="#000000" stroke-width="0.945" fill="none" transform="scale(1 1.00088)"/><text font-family="Arial,Arial_MSFontService,sans-serif" font-weight="400" font-size="16" transform="matrix(0.945 0 0 0.945833 463.617 20)">0<tspan font-size="16" x="9.00001" y="0">.</tspan><tspan font-size="16" x="13" y="0">1</tspan></text><path d="M107.163 15.7815 107.163 399.168 455.773 399.168 455.773 15.7815 107.163 15.7815ZM107.163 15.7815 107.172 15.7815" stroke="#000000" stroke-width="0.945" fill="none" transform="scale(1 1.00088)"/><text font-family="Arial,Arial_MSFontService,sans-serif" font-weight="400" font-size="16" transform="matrix(-1.73594e-16 -0.945833 0.945 -1.73747e-16 16.632 260)">energy <tspan font-size="16" x="51.8062" y="9.51664e-15">(</tspan><tspan font-size="16" x="56.0352" y="1.02935e-14">hartree</tspan><tspan font-size="16" x="105.727" y="1.94217e-14">)</tspan><tspan font-size="16" x="-29.6035" y="552.8">max</tspan><tspan font-size="16" x="-1.05727" y="552.8">. </tspan><tspan font-size="16" x="7.40088" y="552.8">force </tspan><tspan font-size="16" x="46.5198" y="552.8">(</tspan><tspan font-size="16" x="51.8062" y="552.8">hartree</tspan><tspan font-size="16" x="100.441" y="552.8">/</tspan><tspan font-size="16" x="104.67" y="552.8">bohr</tspan><tspan font-size="16" x="135.33" y="552.8">)</tspan></text><text font-family="Arial,Arial_MSFontService,sans-serif" font-weight="400" font-size="16" transform="matrix(0.945 0 0 0.945833 234.171 446)">dimer iteration<tspan font-size="16" x="120.4" y="-432.423">energy</tspan></text><path d="M400.207 32.7915 440.087 32.7915M111.037 43.281 114.912 57.834 118.786 80.7975 122.661 110.47 126.535 144.585 130.41 180.967 134.285 217.35 138.159 251.465 142.034 281.704 145.908 306.747 149.783 325.836 153.657 338.971 157.531 347.477 161.406 352.485 165.28 354.848 169.155 355.603 173.03 355.603 176.904 355.603 180.779 355.603 184.653 355.698 188.527 355.887 192.402 356.076 196.276 356.359 200.151 356.643 204.025 356.927 207.9 357.21 211.775 357.493 215.649 357.777 219.523 358.06 223.398 358.25 227.272 358.438 231.147 358.628 235.021 358.816 238.896 358.911 242.77 359.1 246.645 359.478 250.52 360.328 254.394 360.99 258.268 361.557 262.143 362.124 266.017 362.596 269.892 363.069 273.767 363.447 277.641 363.73 281.516 364.014 285.296 364.297 289.17 364.581 293.044 364.77 296.919 364.959 300.793 365.148 304.668 365.337 308.543 365.526 312.417 365.62 316.292 365.81 320.166 365.998 324.04 366.188 327.915 366.376 331.789 366.565 335.664 366.755 339.538 366.849 343.413 367.038 347.288 367.133 351.162 367.227 355.036 367.322 358.911 367.416 362.785 367.51 366.66 367.605 370.535 367.699 374.409 367.794 378.283 367.888 382.158 367.983 386.033 367.983 389.907 368.077 393.781 368.172 397.656 368.172 401.53 368.267 405.405 368.361 409.28 368.361 413.154 368.456 417.028 368.456 420.903 368.55 424.777 368.55 424.787 368.55" stroke="#FF0000" stroke-width="0.945" fill="none" transform="scale(1 1.00088)"/><path d="M8.505 0C8.505 4.69718 4.69718 8.505 1.88849e-15 8.505-4.69718 8.505-8.505 4.69718-8.505 1.88849e-15-8.505-4.69718-4.69718-8.505-1.88849e-15-8.505 4.69718-8.505 8.505-4.69718 8.505 0Z" stroke="#FF0000" stroke-width="1.88811" fill="none" transform="matrix(1 0 0 1.00088 111.037 43.3192)"/><path d="M8.505 0C8.505 4.69718 4.69718 8.505 1.88849e-15 8.505-4.69718 8.505-8.505 4.69718-8.505 1.88849e-15-8.505-4.69718-4.69718-8.505-1.88849e-15-8.505 4.69718-8.505 8.505-4.69718 8.505 0Z" stroke="#FF0000" stroke-width="1.88811" fill="none" transform="matrix(1 0 0 1.00088 114.912 57.885)"/><path d="M8.505 0C8.505 4.69718 4.69718 8.505 1.88849e-15 8.505-4.69718 8.505-8.505 4.69718-8.505 1.88849e-15-8.505-4.69718-4.69718-8.505-1.88849e-15-8.505 4.69718-8.505 8.505-4.69718 8.505 0Z" stroke="#FF0000" stroke-width="1.88811" fill="none" transform="matrix(1 0 0 1.00088 118.786 80.8688)"/><path d="M8.505 0C8.505 4.69718 4.69718 8.505 1.88849e-15 8.505-4.69718 8.505-8.505 4.69718-8.505 1.88849e-15-8.505-4.69718-4.69718-8.505-1.88849e-15-8.505 4.69718-8.505 8.505-4.69718 8.505 0Z" stroke="#FF0000" stroke-width="1.88811" fill="none" transform="matrix(1 0 0 1.00088 122.661 110.568)"/><path d="M8.505 0C8.505 4.69718 4.69718 8.505 1.88849e-15 8.505-4.69718 8.505-8.505 4.69718-8.505 1.88849e-15-8.505-4.69718-4.69718-8.505-1.88849e-15-8.505 4.69718-8.505 8.505-4.69718 8.505 0Z" stroke="#FF0000" stroke-width="1.88811" fill="none" transform="matrix(1 0 0 1.00088 126.535 144.712)"/><path d="M8.505 0C8.505 4.69718 4.69718 8.505 1.88849e-15 8.505-4.69718 8.505-8.505 4.69718-8.505 1.88849e-15-8.505-4.69718-4.69718-8.505-1.88849e-15-8.505 4.69718-8.505 8.505-4.69718 8.505 0Z" stroke="#FF0000" stroke-width="1.88811" fill="none" transform="matrix(1 0 0 1.00088 130.41 181.127)"/><path d="M8.505 0C8.505 4.69718 4.69718 8.505 1.88849e-15 8.505-4.69718 8.505-8.505 4.69718-8.505 1.88849e-15-8.505-4.69718-4.69718-8.505-1.88849e-15-8.505 4.69718-8.505 8.505-4.69718 8.505 0Z" stroke="#FF0000" stroke-width="1.88811" fill="none" transform="matrix(1 0 0 1.00088 134.285 217.542)"/><path d="M8.505 0C8.505 4.69718 4.69718 8.505 1.88849e-15 8.505-4.69718 8.505-8.505 4.69718-8.505 1.88849e-15-8.505-4.69718-4.69718-8.505-1.88849e-15-8.505 4.69718-8.505 8.505-4.69718 8.505 0Z" stroke="#FF0000" stroke-width="1.88811" fill="none" transform="matrix(1 0 0 1.00088 138.159 251.686)"/><path d="M8.505 0C8.505 4.69718 4.69718 8.505 1.88849e-15 8.505-4.69718 8.505-8.505 4.69718-8.505 1.88849e-15-8.505-4.69718-4.69718-8.505-1.88849e-15-8.505 4.69718-8.505 8.505-4.69718 8.505 0Z" stroke="#FF0000" stroke-width="1.88811" fill="none" transform="matrix(1 0 0 1.00088 142.033 281.953)"/><path d="M8.505 0C8.505 4.69718 4.69718 8.505 1.88849e-15 8.505-4.69718 8.505-8.505 4.69718-8.505 1.88849e-15-8.505-4.69718-4.69718-8.505-1.88849e-15-8.505 4.69718-8.505 8.505-4.69718 8.505 0Z" stroke="#FF0000" stroke-width="1.88811" fill="none" transform="matrix(1 0 0 1.00088 145.908 307.017)"/><path d="M8.505 0C8.505 4.69718 4.69718 8.505 1.88849e-15 8.505-4.69718 8.505-8.505 4.69718-8.505 1.88849e-15-8.505-4.69718-4.69718-8.505-1.88849e-15-8.505 4.69718-8.505 8.505-4.69718 8.505 0Z" stroke="#FF0000" stroke-width="1.88811" fill="none" transform="matrix(1 0 0 1.00088 149.783 326.123)"/><path d="M8.505 0C8.505 4.69718 4.69718 8.505 1.88849e-15 8.505-4.69718 8.505-8.505 4.69718-8.505 1.88849e-15-8.505-4.69718-4.69718-8.505-1.88849e-15-8.505 4.69718-8.505 8.505-4.69718 8.505 0Z" stroke="#FF0000" stroke-width="1.88811" fill="none" transform="matrix(1 0 0 1.00088 153.657 339.27)"/><path d="M8.505 0C8.505 4.69718 4.69718 8.505 1.88849e-15 8.505-4.69718 8.505-8.505 4.69718-8.505 1.88849e-15-8.505-4.69718-4.69718-8.505-1.88849e-15-8.505 4.69718-8.505 8.505-4.69718 8.505 0Z" stroke="#FF0000" stroke-width="1.88811" fill="none" transform="matrix(1 0 0 1.00088 157.531 347.783)"/><path d="M8.505 0C8.505 4.69718 4.69718 8.505 1.88849e-15 8.505-4.69718 8.505-8.505 4.69718-8.505 1.88849e-15-8.505-4.69718-4.69718-8.505-1.88849e-15-8.505 4.69718-8.505 8.505-4.69718 8.505 0Z" stroke="#FF0000" stroke-width="1.88811" fill="none" transform="matrix(1 0 0 1.00088 161.406 352.796)"/><path d="M8.505 0C8.505 4.69718 4.69718 8.505 1.88849e-15 8.505-4.69718 8.505-8.505 4.69718-8.505 1.88849e-15-8.505-4.69718-4.69718-8.505-1.88849e-15-8.505 4.69718-8.505 8.505-4.69718 8.505 0Z" stroke="#FF0000" stroke-width="1.88811" fill="none" transform="matrix(1 0 0 1.00088 165.281 355.16)"/><path d="M8.505 0C8.505 4.69718 4.69718 8.505 1.88849e-15 8.505-4.69718 8.505-8.505 4.69718-8.505 1.88849e-15-8.505-4.69718-4.69718-8.505-1.88849e-15-8.505 4.69718-8.505 8.505-4.69718 8.505 0Z" stroke="#FF0000" stroke-width="1.88811" fill="none" transform="matrix(1 0 0 1.00088 169.155 355.917)"/><path d="M8.505 0C8.505 4.69718 4.69718 8.505 1.88849e-15 8.505-4.69718 8.505-8.505 4.69718-8.505 1.88849e-15-8.505-4.69718-4.69718-8.505-1.88849e-15-8.505 4.69718-8.505 8.505-4.69718 8.505 0Z" stroke="#FF0000" stroke-width="1.88811" fill="none" transform="matrix(1 0 0 1.00088 173.029 355.917)"/><path d="M8.505 0C8.505 4.69718 4.69718 8.505 1.88849e-15 8.505-4.69718 8.505-8.505 4.69718-8.505 1.88849e-15-8.505-4.69718-4.69718-8.505-1.88849e-15-8.505 4.69718-8.505 8.505-4.69718 8.505 0Z" stroke="#FF0000" stroke-width="1.88811" fill="none" transform="matrix(1 0 0 1.00088 176.904 355.917)"/><path d="M8.505 0C8.505 4.69718 4.69718 8.505 1.88849e-15 8.505-4.69718 8.505-8.505 4.69718-8.505 1.88849e-15-8.505-4.69718-4.69718-8.505-1.88849e-15-8.505 4.69718-8.505 8.505-4.69718 8.505 0Z" stroke="#FF0000" stroke-width="1.88811" fill="none" transform="matrix(1 0 0 1.00088 180.779 355.917)"/><path d="M8.505 0C8.505 4.69718 4.69718 8.505 1.88849e-15 8.505-4.69718 8.505-8.505 4.69718-8.505 1.88849e-15-8.505-4.69718-4.69718-8.505-1.88849e-15-8.505 4.69718-8.505 8.505-4.69718 8.505 0Z" stroke="#FF0000" stroke-width="1.88811" fill="none" transform="matrix(1 0 0 1.00088 184.653 356.012)"/><path d="M8.505 0C8.505 4.69718 4.69718 8.505 1.88849e-15 8.505-4.69718 8.505-8.505 4.69718-8.505 1.88849e-15-8.505-4.69718-4.69718-8.505-1.88849e-15-8.505 4.69718-8.505 8.505-4.69718 8.505 0Z" stroke="#FF0000" stroke-width="1.88811" fill="none" transform="matrix(1 0 0 1.00088 188.527 356.201)"/><path d="M8.505 0C8.505 4.69718 4.69718 8.505 1.88849e-15 8.505-4.69718 8.505-8.505 4.69718-8.505 1.88849e-15-8.505-4.69718-4.69718-8.505-1.88849e-15-8.505 4.69718-8.505 8.505-4.69718 8.505 0Z" stroke="#FF0000" stroke-width="1.88811" fill="none" transform="matrix(1 0 0 1.00088 192.402 356.39)"/><path d="M8.505 0C8.505 4.69718 4.69718 8.505 1.88849e-15 8.505-4.69718 8.505-8.505 4.69718-8.505 1.88849e-15-8.505-4.69718-4.69718-8.505-1.88849e-15-8.505 4.69718-8.505 8.505-4.69718 8.505 0Z" stroke="#FF0000" stroke-width="1.88811" fill="none" transform="matrix(1 0 0 1.00088 196.277 356.674)"/><path d="M8.505 0C8.505 4.69718 4.69718 8.505 1.88849e-15 8.505-4.69718 8.505-8.505 4.69718-8.505 1.88849e-15-8.505-4.69718-4.69718-8.505-1.88849e-15-8.505 4.69718-8.505 8.505-4.69718 8.505 0Z" stroke="#FF0000" stroke-width="1.88811" fill="none" transform="matrix(1 0 0 1.00088 200.151 356.957)"/><path d="M8.505 0C8.505 4.69718 4.69718 8.505 1.88849e-15 8.505-4.69718 8.505-8.505 4.69718-8.505 1.88849e-15-8.505-4.69718-4.69718-8.505-1.88849e-15-8.505 4.69718-8.505 8.505-4.69718 8.505 0Z" stroke="#FF0000" stroke-width="1.88811" fill="none" transform="matrix(1 0 0 1.00088 204.025 357.241)"/><path d="M8.505 0C8.505 4.69718 4.69718 8.505 1.88849e-15 8.505-4.69718 8.505-8.505 4.69718-8.505 1.88849e-15-8.505-4.69718-4.69718-8.505-1.88849e-15-8.505 4.69718-8.505 8.505-4.69718 8.505 0Z" stroke="#FF0000" stroke-width="1.88811" fill="none" transform="matrix(1 0 0 1.00088 207.9 357.525)"/><path d="M8.505 0C8.505 4.69718 4.69718 8.505 1.88849e-15 8.505-4.69718 8.505-8.505 4.69718-8.505 1.88849e-15-8.505-4.69718-4.69718-8.505-1.88849e-15-8.505 4.69718-8.505 8.505-4.69718 8.505 0Z" stroke="#FF0000" stroke-width="1.88811" fill="none" transform="matrix(1 0 0 1.00088 211.775 357.809)"/><path d="M8.505 0C8.505 4.69718 4.69718 8.505 1.88849e-15 8.505-4.69718 8.505-8.505 4.69718-8.505 1.88849e-15-8.505-4.69718-4.69718-8.505-1.88849e-15-8.505 4.69718-8.505 8.505-4.69718 8.505 0Z" stroke="#FF0000" stroke-width="1.88811" fill="none" transform="matrix(1 0 0 1.00088 215.649 358.092)"/><path d="M8.505 0C8.505 4.69718 4.69718 8.505 1.88849e-15 8.505-4.69718 8.505-8.505 4.69718-8.505 1.88849e-15-8.505-4.69718-4.69718-8.505-1.88849e-15-8.505 4.69718-8.505 8.505-4.69718 8.505 0Z" stroke="#FF0000" stroke-width="1.88811" fill="none" transform="matrix(1 0 0 1.00088 219.523 358.376)"/><path d="M8.505 0C8.505 4.69718 4.69718 8.505 1.88849e-15 8.505-4.69718 8.505-8.505 4.69718-8.505 1.88849e-15-8.505-4.69718-4.69718-8.505-1.88849e-15-8.505 4.69718-8.505 8.505-4.69718 8.505 0Z" stroke="#FF0000" stroke-width="1.88811" fill="none" transform="matrix(1 0 0 1.00088 223.398 358.565)"/><path d="M8.505 0C8.505 4.69718 4.69718 8.505 1.88849e-15 8.505-4.69718 8.505-8.505 4.69718-8.505 1.88849e-15-8.505-4.69718-4.69718-8.505-1.88849e-15-8.505 4.69718-8.505 8.505-4.69718 8.505 0Z" stroke="#FF0000" stroke-width="1.88811" fill="none" transform="matrix(1 0 0 1.00088 227.273 358.755)"/><path d="M8.505 0C8.505 4.69718 4.69718 8.505 1.88849e-15 8.505-4.69718 8.505-8.505 4.69718-8.505 1.88849e-15-8.505-4.69718-4.69718-8.505-1.88849e-15-8.505 4.69718-8.505 8.505-4.69718 8.505 0Z" stroke="#FF0000" stroke-width="1.88811" fill="none" transform="matrix(1 0 0 1.00088 231.147 358.944)"/><path d="M8.505 0C8.505 4.69718 4.69718 8.505 1.88849e-15 8.505-4.69718 8.505-8.505 4.69718-8.505 1.88849e-15-8.505-4.69718-4.69718-8.505-1.88849e-15-8.505 4.69718-8.505 8.505-4.69718 8.505 0Z" stroke="#FF0000" stroke-width="1.88811" fill="none" transform="matrix(1 0 0 1.00088 235.021 359.133)"/><path d="M8.505 0C8.505 4.69718 4.69718 8.505 1.88849e-15 8.505-4.69718 8.505-8.505 4.69718-8.505 1.88849e-15-8.505-4.69718-4.69718-8.505-1.88849e-15-8.505 4.69718-8.505 8.505-4.69718 8.505 0Z" stroke="#FF0000" stroke-width="1.88811" fill="none" transform="matrix(1 0 0 1.00088 238.896 359.228)"/><path d="M8.505 0C8.505 4.69718 4.69718 8.505 1.88849e-15 8.505-4.69718 8.505-8.505 4.69718-8.505 1.88849e-15-8.505-4.69718-4.69718-8.505-1.88849e-15-8.505 4.69718-8.505 8.505-4.69718 8.505 0Z" stroke="#FF0000" stroke-width="1.88811" fill="none" transform="matrix(1 0 0 1.00088 242.77 359.417)"/><path d="M8.505 0C8.505 4.69718 4.69718 8.505 1.88849e-15 8.505-4.69718 8.505-8.505 4.69718-8.505 1.88849e-15-8.505-4.69718-4.69718-8.505-1.88849e-15-8.505 4.69718-8.505 8.505-4.69718 8.505 0Z" stroke="#FF0000" stroke-width="1.88811" fill="none" transform="matrix(1 0 0 1.00088 246.645 359.795)"/><path d="M8.505 0C8.505 4.69718 4.69718 8.505 1.88849e-15 8.505-4.69718 8.505-8.505 4.69718-8.505 1.88849e-15-8.505-4.69718-4.69718-8.505-1.88849e-15-8.505 4.69718-8.505 8.505-4.69718 8.505 0Z" stroke="#FF0000" stroke-width="1.88811" fill="none" transform="matrix(1 0 0 1.00088 250.52 360.646)"/><path d="M8.505 0C8.505 4.69718 4.69718 8.505 1.88849e-15 8.505-4.69718 8.505-8.505 4.69718-8.505 1.88849e-15-8.505-4.69718-4.69718-8.505-1.88849e-15-8.505 4.69718-8.505 8.505-4.69718 8.505 0Z" stroke="#FF0000" stroke-width="1.88811" fill="none" transform="matrix(1 0 0 1.00088 254.394 361.308)"/><path d="M8.505 0C8.505 4.69718 4.69718 8.505 1.88849e-15 8.505-4.69718 8.505-8.505 4.69718-8.505 1.88849e-15-8.505-4.69718-4.69718-8.505-1.88849e-15-8.505 4.69718-8.505 8.505-4.69718 8.505 0Z" stroke="#FF0000" stroke-width="1.88811" fill="none" transform="matrix(1 0 0 1.00088 258.268 361.876)"/><path d="M8.505 0C8.505 4.69718 4.69718 8.505 1.88849e-15 8.505-4.69718 8.505-8.505 4.69718-8.505 1.88849e-15-8.505-4.69718-4.69718-8.505-1.88849e-15-8.505 4.69718-8.505 8.505-4.69718 8.505 0Z" stroke="#FF0000" stroke-width="1.88811" fill="none" transform="matrix(1 0 0 1.00088 262.143 362.443)"/><path d="M8.505 0C8.505 4.69718 4.69718 8.505 1.88849e-15 8.505-4.69718 8.505-8.505 4.69718-8.505 1.88849e-15-8.505-4.69718-4.69718-8.505-1.88849e-15-8.505 4.69718-8.505 8.505-4.69718 8.505 0Z" stroke="#FF0000" stroke-width="1.88811" fill="none" transform="matrix(1 0 0 1.00088 266.017 362.916)"/><path d="M8.505 0C8.505 4.69718 4.69718 8.505 1.88849e-15 8.505-4.69718 8.505-8.505 4.69718-8.505 1.88849e-15-8.505-4.69718-4.69718-8.505-1.88849e-15-8.505 4.69718-8.505 8.505-4.69718 8.505 0Z" stroke="#FF0000" stroke-width="1.88811" fill="none" transform="matrix(1 0 0 1.00088 269.892 363.389)"/><path d="M8.505 0C8.505 4.69718 4.69718 8.505 1.88849e-15 8.505-4.69718 8.505-8.505 4.69718-8.505 1.88849e-15-8.505-4.69718-4.69718-8.505-1.88849e-15-8.505 4.69718-8.505 8.505-4.69718 8.505 0Z" stroke="#FF0000" stroke-width="1.88811" fill="none" transform="matrix(1 0 0 1.00088 273.767 363.767)"/><path d="M8.505 0C8.505 4.69718 4.69718 8.505 1.88849e-15 8.505-4.69718 8.505-8.505 4.69718-8.505 1.88849e-15-8.505-4.69718-4.69718-8.505-1.88849e-15-8.505 4.69718-8.505 8.505-4.69718 8.505 0Z" stroke="#FF0000" stroke-width="1.88811" fill="none" transform="matrix(1 0 0 1.00088 277.641 364.051)"/><path d="M8.505 0C8.505 4.69718 4.69718 8.505 1.88849e-15 8.505-4.69718 8.505-8.505 4.69718-8.505 1.88849e-15-8.505-4.69718-4.69718-8.505-1.88849e-15-8.505 4.69718-8.505 8.505-4.69718 8.505 0Z" stroke="#FF0000" stroke-width="1.88811" fill="none" transform="matrix(1 0 0 1.00088 281.516 364.335)"/><path d="M8.505 0C8.505 4.69718 4.69718 8.505 1.88849e-15 8.505-4.69718 8.505-8.505 4.69718-8.505 1.88849e-15-8.505-4.69718-4.69718-8.505-1.88849e-15-8.505 4.69718-8.505 8.505-4.69718 8.505 0Z" stroke="#FF0000" stroke-width="1.88811" fill="none" transform="matrix(1 0 0 1.00088 285.296 364.619)"/><path d="M8.505 0C8.505 4.69718 4.69718 8.505 1.88849e-15 8.505-4.69718 8.505-8.505 4.69718-8.505 1.88849e-15-8.505-4.69718-4.69718-8.505-1.88849e-15-8.505 4.69718-8.505 8.505-4.69718 8.505 0Z" stroke="#FF0000" stroke-width="1.88811" fill="none" transform="matrix(1 0 0 1.00088 289.17 364.902)"/><path d="M8.505 0C8.505 4.69718 4.69718 8.505 1.88849e-15 8.505-4.69718 8.505-8.505 4.69718-8.505 1.88849e-15-8.505-4.69718-4.69718-8.505-1.88849e-15-8.505 4.69718-8.505 8.505-4.69718 8.505 0Z" stroke="#FF0000" stroke-width="1.88811" fill="none" transform="matrix(1 0 0 1.00088 293.044 365.092)"/><path d="M8.505 0C8.505 4.69718 4.69718 8.505 1.88849e-15 8.505-4.69718 8.505-8.505 4.69718-8.505 1.88849e-15-8.505-4.69718-4.69718-8.505-1.88849e-15-8.505 4.69718-8.505 8.505-4.69718 8.505 0Z" stroke="#FF0000" stroke-width="1.88811" fill="none" transform="matrix(1 0 0 1.00088 296.919 365.281)"/><path d="M8.505 0C8.505 4.69718 4.69718 8.505 1.88849e-15 8.505-4.69718 8.505-8.505 4.69718-8.505 1.88849e-15-8.505-4.69718-4.69718-8.505-1.88849e-15-8.505 4.69718-8.505 8.505-4.69718 8.505 0Z" stroke="#FF0000" stroke-width="1.88811" fill="none" transform="matrix(1 0 0 1.00088 300.793 365.47)"/><path d="M8.505 0C8.505 4.69718 4.69718 8.505 1.88849e-15 8.505-4.69718 8.505-8.505 4.69718-8.505 1.88849e-15-8.505-4.69718-4.69718-8.505-1.88849e-15-8.505 4.69718-8.505 8.505-4.69718 8.505 0Z" stroke="#FF0000" stroke-width="1.88811" fill="none" transform="matrix(1 0 0 1.00088 304.668 365.659)"/><path d="M8.505 0C8.505 4.69718 4.69718 8.505 1.88849e-15 8.505-4.69718 8.505-8.505 4.69718-8.505 1.88849e-15-8.505-4.69718-4.69718-8.505-1.88849e-15-8.505 4.69718-8.505 8.505-4.69718 8.505 0Z" stroke="#FF0000" stroke-width="1.88811" fill="none" transform="matrix(1 0 0 1.00088 308.543 365.848)"/><path d="M8.505 0C8.505 4.69718 4.69718 8.505 1.88849e-15 8.505-4.69718 8.505-8.505 4.69718-8.505 1.88849e-15-8.505-4.69718-4.69718-8.505-1.88849e-15-8.505 4.69718-8.505 8.505-4.69718 8.505 0Z" stroke="#FF0000" stroke-width="1.88811" fill="none" transform="matrix(1 0 0 1.00088 312.417 365.943)"/><path d="M8.505 0C8.505 4.69718 4.69718 8.505 1.88849e-15 8.505-4.69718 8.505-8.505 4.69718-8.505 1.88849e-15-8.505-4.69718-4.69718-8.505-1.88849e-15-8.505 4.69718-8.505 8.505-4.69718 8.505 0Z" stroke="#FF0000" stroke-width="1.88811" fill="none" transform="matrix(1 0 0 1.00088 316.292 366.132)"/><path d="M8.505 0C8.505 4.69718 4.69718 8.505 1.88849e-15 8.505-4.69718 8.505-8.505 4.69718-8.505 1.88849e-15-8.505-4.69718-4.69718-8.505-1.88849e-15-8.505 4.69718-8.505 8.505-4.69718 8.505 0Z" stroke="#FF0000" stroke-width="1.88811" fill="none" transform="matrix(1 0 0 1.00088 320.166 366.321)"/><path d="M8.505 0C8.505 4.69718 4.69718 8.505 1.88849e-15 8.505-4.69718 8.505-8.505 4.69718-8.505 1.88849e-15-8.505-4.69718-4.69718-8.505-1.88849e-15-8.505 4.69718-8.505 8.505-4.69718 8.505 0Z" stroke="#FF0000" stroke-width="1.88811" fill="none" transform="matrix(1 0 0 1.00088 324.04 366.51)"/><path d="M8.505 0C8.505 4.69718 4.69718 8.505 1.88849e-15 8.505-4.69718 8.505-8.505 4.69718-8.505 1.88849e-15-8.505-4.69718-4.69718-8.505-1.88849e-15-8.505 4.69718-8.505 8.505-4.69718 8.505 0Z" stroke="#FF0000" stroke-width="1.88811" fill="none" transform="matrix(1 0 0 1.00088 327.915 366.7)"/><path d="M8.505 0C8.505 4.69718 4.69718 8.505 1.88849e-15 8.505-4.69718 8.505-8.505 4.69718-8.505 1.88849e-15-8.505-4.69718-4.69718-8.505-1.88849e-15-8.505 4.69718-8.505 8.505-4.69718 8.505 0Z" stroke="#FF0000" stroke-width="1.88811" fill="none" transform="matrix(1 0 0 1.00088 331.789 366.889)"/><path d="M8.505 0C8.505 4.69718 4.69718 8.505 1.88849e-15 8.505-4.69718 8.505-8.505 4.69718-8.505 1.88849e-15-8.505-4.69718-4.69718-8.505-1.88849e-15-8.505 4.69718-8.505 8.505-4.69718 8.505 0Z" stroke="#FF0000" stroke-width="1.88811" fill="none" transform="matrix(1 0 0 1.00088 335.664 367.078)"/><path d="M8.505 0C8.505 4.69718 4.69718 8.505 1.88849e-15 8.505-4.69718 8.505-8.505 4.69718-8.505 1.88849e-15-8.505-4.69718-4.69718-8.505-1.88849e-15-8.505 4.69718-8.505 8.505-4.69718 8.505 0Z" stroke="#FF0000" stroke-width="1.88811" fill="none" transform="matrix(1 0 0 1.00088 339.539 367.172)"/><path d="M8.505 0C8.505 4.69718 4.69718 8.505 1.88849e-15 8.505-4.69718 8.505-8.505 4.69718-8.505 1.88849e-15-8.505-4.69718-4.69718-8.505-1.88849e-15-8.505 4.69718-8.505 8.505-4.69718 8.505 0Z" stroke="#FF0000" stroke-width="1.88811" fill="none" transform="matrix(1 0 0 1.00088 343.413 367.362)"/><path d="M8.505 0C8.505 4.69718 4.69718 8.505 1.88849e-15 8.505-4.69718 8.505-8.505 4.69718-8.505 1.88849e-15-8.505-4.69718-4.69718-8.505-1.88849e-15-8.505 4.69718-8.505 8.505-4.69718 8.505 0Z" stroke="#FF0000" stroke-width="1.88811" fill="none" transform="matrix(1 0 0 1.00088 347.288 367.456)"/><path d="M8.505 0C8.505 4.69718 4.69718 8.505 1.88849e-15 8.505-4.69718 8.505-8.505 4.69718-8.505 1.88849e-15-8.505-4.69718-4.69718-8.505-1.88849e-15-8.505 4.69718-8.505 8.505-4.69718 8.505 0Z" stroke="#FF0000" stroke-width="1.88811" fill="none" transform="matrix(1 0 0 1.00088 351.162 367.551)"/><path d="M8.505 0C8.505 4.69718 4.69718 8.505 1.88849e-15 8.505-4.69718 8.505-8.505 4.69718-8.505 1.88849e-15-8.505-4.69718-4.69718-8.505-1.88849e-15-8.505 4.69718-8.505 8.505-4.69718 8.505 0Z" stroke="#FF0000" stroke-width="1.88811" fill="none" transform="matrix(1 0 0 1.00088 355.036 367.645)"/><path d="M8.505 0C8.505 4.69718 4.69718 8.505 1.88849e-15 8.505-4.69718 8.505-8.505 4.69718-8.505 1.88849e-15-8.505-4.69718-4.69718-8.505-1.88849e-15-8.505 4.69718-8.505 8.505-4.69718 8.505 0Z" stroke="#FF0000" stroke-width="1.88811" fill="none" transform="matrix(1 0 0 1.00088 358.911 367.74)"/><path d="M8.505 0C8.505 4.69718 4.69718 8.505 1.88849e-15 8.505-4.69718 8.505-8.505 4.69718-8.505 1.88849e-15-8.505-4.69718-4.69718-8.505-1.88849e-15-8.505 4.69718-8.505 8.505-4.69718 8.505 0Z" stroke="#FF0000" stroke-width="1.88811" fill="none" transform="matrix(1 0 0 1.00088 362.785 367.835)"/><path d="M8.505 0C8.505 4.69718 4.69718 8.505 1.88849e-15 8.505-4.69718 8.505-8.505 4.69718-8.505 1.88849e-15-8.505-4.69718-4.69718-8.505-1.88849e-15-8.505 4.69718-8.505 8.505-4.69718 8.505 0Z" stroke="#FF0000" stroke-width="1.88811" fill="none" transform="matrix(1 0 0 1.00088 366.66 367.929)"/><path d="M8.505 0C8.505 4.69718 4.69718 8.505 1.88849e-15 8.505-4.69718 8.505-8.505 4.69718-8.505 1.88849e-15-8.505-4.69718-4.69718-8.505-1.88849e-15-8.505 4.69718-8.505 8.505-4.69718 8.505 0Z" stroke="#FF0000" stroke-width="1.88811" fill="none" transform="matrix(1 0 0 1.00088 370.534 368.024)"/><path d="M8.505 0C8.505 4.69718 4.69718 8.505 1.88849e-15 8.505-4.69718 8.505-8.505 4.69718-8.505 1.88849e-15-8.505-4.69718-4.69718-8.505-1.88849e-15-8.505 4.69718-8.505 8.505-4.69718 8.505 0Z" stroke="#FF0000" stroke-width="1.88811" fill="none" transform="matrix(1 0 0 1.00088 374.409 368.118)"/><path d="M8.505 0C8.505 4.69718 4.69718 8.505 1.88849e-15 8.505-4.69718 8.505-8.505 4.69718-8.505 1.88849e-15-8.505-4.69718-4.69718-8.505-1.88849e-15-8.505 4.69718-8.505 8.505-4.69718 8.505 0Z" stroke="#FF0000" stroke-width="1.88811" fill="none" transform="matrix(1 0 0 1.00088 378.284 368.213)"/><path d="M8.505 0C8.505 4.69718 4.69718 8.505 1.88849e-15 8.505-4.69718 8.505-8.505 4.69718-8.505 1.88849e-15-8.505-4.69718-4.69718-8.505-1.88849e-15-8.505 4.69718-8.505 8.505-4.69718 8.505 0Z" stroke="#FF0000" stroke-width="1.88811" fill="none" transform="matrix(1 0 0 1.00088 382.158 368.307)"/><path d="M8.505 0C8.505 4.69718 4.69718 8.505 1.88849e-15 8.505-4.69718 8.505-8.505 4.69718-8.505 1.88849e-15-8.505-4.69718-4.69718-8.505-1.88849e-15-8.505 4.69718-8.505 8.505-4.69718 8.505 0Z" stroke="#FF0000" stroke-width="1.88811" fill="none" transform="matrix(1 0 0 1.00088 386.033 368.307)"/><path d="M8.505 0C8.505 4.69718 4.69718 8.505 1.88849e-15 8.505-4.69718 8.505-8.505 4.69718-8.505 1.88849e-15-8.505-4.69718-4.69718-8.505-1.88849e-15-8.505 4.69718-8.505 8.505-4.69718 8.505 0Z" stroke="#FF0000" stroke-width="1.88811" fill="none" transform="matrix(1 0 0 1.00088 389.907 368.402)"/><path d="M8.505 0C8.505 4.69718 4.69718 8.505 1.88849e-15 8.505-4.69718 8.505-8.505 4.69718-8.505 1.88849e-15-8.505-4.69718-4.69718-8.505-1.88849e-15-8.505 4.69718-8.505 8.505-4.69718 8.505 0Z" stroke="#FF0000" stroke-width="1.88811" fill="none" transform="matrix(1 0 0 1.00088 393.781 368.497)"/><path d="M8.505 0C8.505 4.69718 4.69718 8.505 1.88849e-15 8.505-4.69718 8.505-8.505 4.69718-8.505 1.88849e-15-8.505-4.69718-4.69718-8.505-1.88849e-15-8.505 4.69718-8.505 8.505-4.69718 8.505 0Z" stroke="#FF0000" stroke-width="1.88811" fill="none" transform="matrix(1 0 0 1.00088 397.656 368.497)"/><path d="M8.505 0C8.505 4.69718 4.69718 8.505 1.88849e-15 8.505-4.69718 8.505-8.505 4.69718-8.505 1.88849e-15-8.505-4.69718-4.69718-8.505-1.88849e-15-8.505 4.69718-8.505 8.505-4.69718 8.505 0Z" stroke="#FF0000" stroke-width="1.88811" fill="none" transform="matrix(1 0 0 1.00088 401.53 368.591)"/><path d="M8.505 0C8.505 4.69718 4.69718 8.505 1.88849e-15 8.505-4.69718 8.505-8.505 4.69718-8.505 1.88849e-15-8.505-4.69718-4.69718-8.505-1.88849e-15-8.505 4.69718-8.505 8.505-4.69718 8.505 0Z" stroke="#FF0000" stroke-width="1.88811" fill="none" transform="matrix(1 0 0 1.00088 405.405 368.686)"/><path d="M8.505 0C8.505 4.69718 4.69718 8.505 1.88849e-15 8.505-4.69718 8.505-8.505 4.69718-8.505 1.88849e-15-8.505-4.69718-4.69718-8.505-1.88849e-15-8.505 4.69718-8.505 8.505-4.69718 8.505 0Z" stroke="#FF0000" stroke-width="1.88811" fill="none" transform="matrix(1 0 0 1.00088 409.28 368.686)"/><path d="M8.505 0C8.505 4.69718 4.69718 8.505 1.88849e-15 8.505-4.69718 8.505-8.505 4.69718-8.505 1.88849e-15-8.505-4.69718-4.69718-8.505-1.88849e-15-8.505 4.69718-8.505 8.505-4.69718 8.505 0Z" stroke="#FF0000" stroke-width="1.88811" fill="none" transform="matrix(1 0 0 1.00088 413.154 368.78)"/><path d="M8.505 0C8.505 4.69718 4.69718 8.505 1.88849e-15 8.505-4.69718 8.505-8.505 4.69718-8.505 1.88849e-15-8.505-4.69718-4.69718-8.505-1.88849e-15-8.505 4.69718-8.505 8.505-4.69718 8.505 0Z" stroke="#FF0000" stroke-width="1.88811" fill="none" transform="matrix(1 0 0 1.00088 417.029 368.78)"/><path d="M8.505 0C8.505 4.69718 4.69718 8.505 1.88849e-15 8.505-4.69718 8.505-8.505 4.69718-8.505 1.88849e-15-8.505-4.69718-4.69718-8.505-1.88849e-15-8.505 4.69718-8.505 8.505-4.69718 8.505 0Z" stroke="#FF0000" stroke-width="1.88811" fill="none" transform="matrix(1 0 0 1.00088 420.903 368.875)"/><path d="M8.505 0C8.505 4.69718 4.69718 8.505 1.88849e-15 8.505-4.69718 8.505-8.505 4.69718-8.505 1.88849e-15-8.505-4.69718-4.69718-8.505-1.88849e-15-8.505 4.69718-8.505 8.505-4.69718 8.505 0Z" stroke="#FF0000" stroke-width="1.88811" fill="none" transform="matrix(1 0 0 1.00088 424.777 368.875)"/><path d="M8.505 0C8.505 4.69718 4.69718 8.505 1.88849e-15 8.505-4.69718 8.505-8.505 4.69718-8.505 1.88849e-15-8.505-4.69718-4.69718-8.505-1.88849e-15-8.505 4.69718-8.505 8.505-4.69718 8.505 0Z" stroke="#FF0000" stroke-width="1.88811" fill="none" transform="matrix(1 0 0 1.00088 420.147 32.8204)"/><text font-family="Arial,Arial_MSFontService,sans-serif" font-weight="400" font-size="16" transform="matrix(0.945 0 0 0.945833 328.104 54)">max force</text><path d="M400.207 49.8015 440.087 49.8015M111.037 43.1865 114.912 44.604 118.786 47.1555 122.661 50.5575 126.535 55.188 130.41 60.9525 134.285 68.04 138.159 76.6395 142.034 86.8455 145.908 99.6975 149.783 115.101 153.657 132.772 157.531 150.066 161.406 166.225 165.28 171.99 169.155 168.871 173.03 169.722 176.904 172.462 180.779 175.959 184.653 179.833 188.527 184.747 192.402 189.284 196.276 194.197 200.151 199.395 204.025 205.821 207.9 211.396 211.775 215.082 215.649 216.027 219.523 217.255 223.398 218.673 227.272 220.28 231.147 221.98 235.021 223.87 238.896 226.516 242.77 228.879 246.645 232.659 250.52 236.628 254.394 241.164 258.268 246.173 262.143 251.559 266.017 257.418 269.892 259.592 273.767 258.835 277.641 258.363 281.516 260.253 285.296 261.765 289.17 262.615 293.044 263.277 296.919 263.088 300.793 265.639 304.668 268.002 308.543 270.648 312.417 274.9 316.292 278.964 320.166 283.689 324.04 288.414 327.915 293.801 331.789 292.383 335.664 288.603 339.538 285.107 343.413 282.272 347.288 280.003 351.162 278.019 355.036 276.318 358.911 274.9 362.785 274.05 366.66 273.483 370.535 273.105 374.409 272.822 378.283 273.01 382.158 274.806 386.033 276.79 389.907 279.058 393.781 281.516 397.656 284.634 401.53 286.43 405.405 289.642 409.28 293.517 413.154 296.919 417.028 300.699 420.903 305.046 424.777 310.338 424.787 310.338" stroke="#008000" stroke-width="0.945" fill="none" transform="scale(1 1.00088)"/><path d="M8.505 0C8.505 4.69718 4.69718 8.505 1.88849e-15 8.505-4.69718 8.505-8.505 4.69718-8.505 1.88849e-15-8.505-4.69718-4.69718-8.505-1.88849e-15-8.505 4.69718-8.505 8.505-4.69718 8.505 0Z" stroke="#008000" stroke-width="1.88811" fill="none" transform="matrix(1 0 0 1.00088 111.037 43.2246)"/><path d="M8.505 0C8.505 4.69718 4.69718 8.505 1.88849e-15 8.505-4.69718 8.505-8.505 4.69718-8.505 1.88849e-15-8.505-4.69718-4.69718-8.505-1.88849e-15-8.505 4.69718-8.505 8.505-4.69718 8.505 0Z" stroke="#008000" stroke-width="1.88811" fill="none" transform="matrix(1 0 0 1.00088 114.912 44.6433)"/><path d="M8.505 0C8.505 4.69718 4.69718 8.505 1.88849e-15 8.505-4.69718 8.505-8.505 4.69718-8.505 1.88849e-15-8.505-4.69718-4.69718-8.505-1.88849e-15-8.505 4.69718-8.505 8.505-4.69718 8.505 0Z" stroke="#008000" stroke-width="1.88811" fill="none" transform="matrix(1 0 0 1.00088 118.786 47.1971)"/><path d="M8.505 0C8.505 4.69718 4.69718 8.505 1.88849e-15 8.505-4.69718 8.505-8.505 4.69718-8.505 1.88849e-15-8.505-4.69718-4.69718-8.505-1.88849e-15-8.505 4.69718-8.505 8.505-4.69718 8.505 0Z" stroke="#008000" stroke-width="1.88811" fill="none" transform="matrix(1 0 0 1.00088 122.661 50.6021)"/><path d="M8.505 0C8.505 4.69718 4.69718 8.505 1.88849e-15 8.505-4.69718 8.505-8.505 4.69718-8.505 1.88849e-15-8.505-4.69718-4.69718-8.505-1.88849e-15-8.505 4.69718-8.505 8.505-4.69718 8.505 0Z" stroke="#008000" stroke-width="1.88811" fill="none" transform="matrix(1 0 0 1.00088 126.535 55.2367)"/><path d="M8.505 0C8.505 4.69718 4.69718 8.505 1.88849e-15 8.505-4.69718 8.505-8.505 4.69718-8.505 1.88849e-15-8.505-4.69718-4.69718-8.505-1.88849e-15-8.505 4.69718-8.505 8.505-4.69718 8.505 0Z" stroke="#008000" stroke-width="1.88811" fill="none" transform="matrix(1 0 0 1.00088 130.41 61.0062)"/><path d="M8.505 0C8.505 4.69718 4.69718 8.505 1.88849e-15 8.505-4.69718 8.505-8.505 4.69718-8.505 1.88849e-15-8.505-4.69718-4.69718-8.505-1.88849e-15-8.505 4.69718-8.505 8.505-4.69718 8.505 0Z" stroke="#008000" stroke-width="1.88811" fill="none" transform="matrix(1 0 0 1.00088 134.285 68.1)"/><path d="M8.505 0C8.505 4.69718 4.69718 8.505 1.88849e-15 8.505-4.69718 8.505-8.505 4.69718-8.505 1.88849e-15-8.505-4.69718-4.69718-8.505-1.88849e-15-8.505 4.69718-8.505 8.505-4.69718 8.505 0Z" stroke="#008000" stroke-width="1.88811" fill="none" transform="matrix(1 0 0 1.00088 138.159 76.7071)"/><path d="M8.505 0C8.505 4.69718 4.69718 8.505 1.88849e-15 8.505-4.69718 8.505-8.505 4.69718-8.505 1.88849e-15-8.505-4.69718-4.69718-8.505-1.88849e-15-8.505 4.69718-8.505 8.505-4.69718 8.505 0Z" stroke="#008000" stroke-width="1.88811" fill="none" transform="matrix(1 0 0 1.00088 142.033 86.9221)"/><path d="M8.505 0C8.505 4.69718 4.69718 8.505 1.88849e-15 8.505-4.69718 8.505-8.505 4.69718-8.505 1.88849e-15-8.505-4.69718-4.69718-8.505-1.88849e-15-8.505 4.69718-8.505 8.505-4.69718 8.505 0Z" stroke="#008000" stroke-width="1.88811" fill="none" transform="matrix(1 0 0 1.00088 145.908 99.7854)"/><path d="M8.505 0C8.505 4.69718 4.69718 8.505 1.88849e-15 8.505-4.69718 8.505-8.505 4.69718-8.505 1.88849e-15-8.505-4.69718-4.69718-8.505-1.88849e-15-8.505 4.69718-8.505 8.505-4.69718 8.505 0Z" stroke="#008000" stroke-width="1.88811" fill="none" transform="matrix(1 0 0 1.00088 149.783 115.202)"/><path d="M8.505 0C8.505 4.69718 4.69718 8.505 1.88849e-15 8.505-4.69718 8.505-8.505 4.69718-8.505 1.88849e-15-8.505-4.69718-4.69718-8.505-1.88849e-15-8.505 4.69718-8.505 8.505-4.69718 8.505 0Z" stroke="#008000" stroke-width="1.88811" fill="none" transform="matrix(1 0 0 1.00088 153.657 132.89)"/><path d="M8.505 0C8.505 4.69718 4.69718 8.505 1.88849e-15 8.505-4.69718 8.505-8.505 4.69718-8.505 1.88849e-15-8.505-4.69718-4.69718-8.505-1.88849e-15-8.505 4.69718-8.505 8.505-4.69718 8.505 0Z" stroke="#008000" stroke-width="1.88811" fill="none" transform="matrix(1 0 0 1.00088 157.531 150.198)"/><path d="M8.505 0C8.505 4.69718 4.69718 8.505 1.88849e-15 8.505-4.69718 8.505-8.505 4.69718-8.505 1.88849e-15-8.505-4.69718-4.69718-8.505-1.88849e-15-8.505 4.69718-8.505 8.505-4.69718 8.505 0Z" stroke="#008000" stroke-width="1.88811" fill="none" transform="matrix(1 0 0 1.00088 161.406 166.372)"/><path d="M8.505 0C8.505 4.69718 4.69718 8.505 1.88849e-15 8.505-4.69718 8.505-8.505 4.69718-8.505 1.88849e-15-8.505-4.69718-4.69718-8.505-1.88849e-15-8.505 4.69718-8.505 8.505-4.69718 8.505 0Z" stroke="#008000" stroke-width="1.88811" fill="none" transform="matrix(1 0 0 1.00088 165.281 172.142)"/><path d="M8.505 0C8.505 4.69718 4.69718 8.505 1.88849e-15 8.505-4.69718 8.505-8.505 4.69718-8.505 1.88849e-15-8.505-4.69718-4.69718-8.505-1.88849e-15-8.505 4.69718-8.505 8.505-4.69718 8.505 0Z" stroke="#008000" stroke-width="1.88811" fill="none" transform="matrix(1 0 0 1.00088 169.155 169.02)"/><path d="M8.505 0C8.505 4.69718 4.69718 8.505 1.88849e-15 8.505-4.69718 8.505-8.505 4.69718-8.505 1.88849e-15-8.505-4.69718-4.69718-8.505-1.88849e-15-8.505 4.69718-8.505 8.505-4.69718 8.505 0Z" stroke="#008000" stroke-width="1.88811" fill="none" transform="matrix(1 0 0 1.00088 173.029 169.872)"/><path d="M8.505 0C8.505 4.69718 4.69718 8.505 1.88849e-15 8.505-4.69718 8.505-8.505 4.69718-8.505 1.88849e-15-8.505-4.69718-4.69718-8.505-1.88849e-15-8.505 4.69718-8.505 8.505-4.69718 8.505 0Z" stroke="#008000" stroke-width="1.88811" fill="none" transform="matrix(1 0 0 1.00088 176.904 172.615)"/><path d="M8.505 0C8.505 4.69718 4.69718 8.505 1.88849e-15 8.505-4.69718 8.505-8.505 4.69718-8.505 1.88849e-15-8.505-4.69718-4.69718-8.505-1.88849e-15-8.505 4.69718-8.505 8.505-4.69718 8.505 0Z" stroke="#008000" stroke-width="1.88811" fill="none" transform="matrix(1 0 0 1.00088 180.779 176.114)"/><path d="M8.505 0C8.505 4.69718 4.69718 8.505 1.88849e-15 8.505-4.69718 8.505-8.505 4.69718-8.505 1.88849e-15-8.505-4.69718-4.69718-8.505-1.88849e-15-8.505 4.69718-8.505 8.505-4.69718 8.505 0Z" stroke="#008000" stroke-width="1.88811" fill="none" transform="matrix(1 0 0 1.00088 184.653 179.992)"/><path d="M8.505 0C8.505 4.69718 4.69718 8.505 1.88849e-15 8.505-4.69718 8.505-8.505 4.69718-8.505 1.88849e-15-8.505-4.69718-4.69718-8.505-1.88849e-15-8.505 4.69718-8.505 8.505-4.69718 8.505 0Z" stroke="#008000" stroke-width="1.88811" fill="none" transform="matrix(1 0 0 1.00088 188.527 184.91)"/><path d="M8.505 0C8.505 4.69718 4.69718 8.505 1.88849e-15 8.505-4.69718 8.505-8.505 4.69718-8.505 1.88849e-15-8.505-4.69718-4.69718-8.505-1.88849e-15-8.505 4.69718-8.505 8.505-4.69718 8.505 0Z" stroke="#008000" stroke-width="1.88811" fill="none" transform="matrix(1 0 0 1.00088 192.402 189.45)"/><path d="M8.505 0C8.505 4.69718 4.69718 8.505 1.88849e-15 8.505-4.69718 8.505-8.505 4.69718-8.505 1.88849e-15-8.505-4.69718-4.69718-8.505-1.88849e-15-8.505 4.69718-8.505 8.505-4.69718 8.505 0Z" stroke="#008000" stroke-width="1.88811" fill="none" transform="matrix(1 0 0 1.00088 196.277 194.369)"/><path d="M8.505 0C8.505 4.69718 4.69718 8.505 1.88849e-15 8.505-4.69718 8.505-8.505 4.69718-8.505 1.88849e-15-8.505-4.69718-4.69718-8.505-1.88849e-15-8.505 4.69718-8.505 8.505-4.69718 8.505 0Z" stroke="#008000" stroke-width="1.88811" fill="none" transform="matrix(1 0 0 1.00088 200.151 199.571)"/><path d="M8.505 0C8.505 4.69718 4.69718 8.505 1.88849e-15 8.505-4.69718 8.505-8.505 4.69718-8.505 1.88849e-15-8.505-4.69718-4.69718-8.505-1.88849e-15-8.505 4.69718-8.505 8.505-4.69718 8.505 0Z" stroke="#008000" stroke-width="1.88811" fill="none" transform="matrix(1 0 0 1.00088 204.025 206.003)"/><path d="M8.505 0C8.505 4.69718 4.69718 8.505 1.88849e-15 8.505-4.69718 8.505-8.505 4.69718-8.505 1.88849e-15-8.505-4.69718-4.69718-8.505-1.88849e-15-8.505 4.69718-8.505 8.505-4.69718 8.505 0Z" stroke="#008000" stroke-width="1.88811" fill="none" transform="matrix(1 0 0 1.00088 207.9 211.583)"/><path d="M8.505 0C8.505 4.69718 4.69718 8.505 1.88849e-15 8.505-4.69718 8.505-8.505 4.69718-8.505 1.88849e-15-8.505-4.69718-4.69718-8.505-1.88849e-15-8.505 4.69718-8.505 8.505-4.69718 8.505 0Z" stroke="#008000" stroke-width="1.88811" fill="none" transform="matrix(1 0 0 1.00088 211.775 215.272)"/><path d="M8.505 0C8.505 4.69718 4.69718 8.505 1.88849e-15 8.505-4.69718 8.505-8.505 4.69718-8.505 1.88849e-15-8.505-4.69718-4.69718-8.505-1.88849e-15-8.505 4.69718-8.505 8.505-4.69718 8.505 0Z" stroke="#008000" stroke-width="1.88811" fill="none" transform="matrix(1 0 0 1.00088 215.649 216.217)"/><path d="M8.505 0C8.505 4.69718 4.69718 8.505 1.88849e-15 8.505-4.69718 8.505-8.505 4.69718-8.505 1.88849e-15-8.505-4.69718-4.69718-8.505-1.88849e-15-8.505 4.69718-8.505 8.505-4.69718 8.505 0Z" stroke="#008000" stroke-width="1.88811" fill="none" transform="matrix(1 0 0 1.00088 219.523 217.447)"/><path d="M8.505 0C8.505 4.69718 4.69718 8.505 1.88849e-15 8.505-4.69718 8.505-8.505 4.69718-8.505 1.88849e-15-8.505-4.69718-4.69718-8.505-1.88849e-15-8.505 4.69718-8.505 8.505-4.69718 8.505 0Z" stroke="#008000" stroke-width="1.88811" fill="none" transform="matrix(1 0 0 1.00088 223.398 218.866)"/><path d="M8.505 0C8.505 4.69718 4.69718 8.505 1.88849e-15 8.505-4.69718 8.505-8.505 4.69718-8.505 1.88849e-15-8.505-4.69718-4.69718-8.505-1.88849e-15-8.505 4.69718-8.505 8.505-4.69718 8.505 0Z" stroke="#008000" stroke-width="1.88811" fill="none" transform="matrix(1 0 0 1.00088 227.273 220.474)"/><path d="M8.505 0C8.505 4.69718 4.69718 8.505 1.88849e-15 8.505-4.69718 8.505-8.505 4.69718-8.505 1.88849e-15-8.505-4.69718-4.69718-8.505-1.88849e-15-8.505 4.69718-8.505 8.505-4.69718 8.505 0Z" stroke="#008000" stroke-width="1.88811" fill="none" transform="matrix(1 0 0 1.00088 231.147 222.176)"/><path d="M8.505 0C8.505 4.69718 4.69718 8.505 1.88849e-15 8.505-4.69718 8.505-8.505 4.69718-8.505 1.88849e-15-8.505-4.69718-4.69718-8.505-1.88849e-15-8.505 4.69718-8.505 8.505-4.69718 8.505 0Z" stroke="#008000" stroke-width="1.88811" fill="none" transform="matrix(1 0 0 1.00088 235.021 224.068)"/><path d="M8.505 0C8.505 4.69718 4.69718 8.505 1.88849e-15 8.505-4.69718 8.505-8.505 4.69718-8.505 1.88849e-15-8.505-4.69718-4.69718-8.505-1.88849e-15-8.505 4.69718-8.505 8.505-4.69718 8.505 0Z" stroke="#008000" stroke-width="1.88811" fill="none" transform="matrix(1 0 0 1.00088 238.896 226.716)"/><path d="M8.505 0C8.505 4.69718 4.69718 8.505 1.88849e-15 8.505-4.69718 8.505-8.505 4.69718-8.505 1.88849e-15-8.505-4.69718-4.69718-8.505-1.88849e-15-8.505 4.69718-8.505 8.505-4.69718 8.505 0Z" stroke="#008000" stroke-width="1.88811" fill="none" transform="matrix(1 0 0 1.00088 242.77 229.081)"/><path d="M8.505 0C8.505 4.69718 4.69718 8.505 1.88849e-15 8.505-4.69718 8.505-8.505 4.69718-8.505 1.88849e-15-8.505-4.69718-4.69718-8.505-1.88849e-15-8.505 4.69718-8.505 8.505-4.69718 8.505 0Z" stroke="#008000" stroke-width="1.88811" fill="none" transform="matrix(1 0 0 1.00088 246.645 232.864)"/><path d="M8.505 0C8.505 4.69718 4.69718 8.505 1.88849e-15 8.505-4.69718 8.505-8.505 4.69718-8.505 1.88849e-15-8.505-4.69718-4.69718-8.505-1.88849e-15-8.505 4.69718-8.505 8.505-4.69718 8.505 0Z" stroke="#008000" stroke-width="1.88811" fill="none" transform="matrix(1 0 0 1.00088 250.52 236.837)"/><path d="M8.505 0C8.505 4.69718 4.69718 8.505 1.88849e-15 8.505-4.69718 8.505-8.505 4.69718-8.505 1.88849e-15-8.505-4.69718-4.69718-8.505-1.88849e-15-8.505 4.69718-8.505 8.505-4.69718 8.505 0Z" stroke="#008000" stroke-width="1.88811" fill="none" transform="matrix(1 0 0 1.00088 254.394 241.377)"/><path d="M8.505 0C8.505 4.69718 4.69718 8.505 1.88849e-15 8.505-4.69718 8.505-8.505 4.69718-8.505 1.88849e-15-8.505-4.69718-4.69718-8.505-1.88849e-15-8.505 4.69718-8.505 8.505-4.69718 8.505 0Z" stroke="#008000" stroke-width="1.88811" fill="none" transform="matrix(1 0 0 1.00088 258.268 246.39)"/><path d="M8.505 0C8.505 4.69718 4.69718 8.505 1.88849e-15 8.505-4.69718 8.505-8.505 4.69718-8.505 1.88849e-15-8.505-4.69718-4.69718-8.505-1.88849e-15-8.505 4.69718-8.505 8.505-4.69718 8.505 0Z" stroke="#008000" stroke-width="1.88811" fill="none" transform="matrix(1 0 0 1.00088 262.143 251.781)"/><path d="M8.505 0C8.505 4.69718 4.69718 8.505 1.88849e-15 8.505-4.69718 8.505-8.505 4.69718-8.505 1.88849e-15-8.505-4.69718-4.69718-8.505-1.88849e-15-8.505 4.69718-8.505 8.505-4.69718 8.505 0Z" stroke="#008000" stroke-width="1.88811" fill="none" transform="matrix(1 0 0 1.00088 266.017 257.645)"/><path d="M8.505 0C8.505 4.69718 4.69718 8.505 1.88849e-15 8.505-4.69718 8.505-8.505 4.69718-8.505 1.88849e-15-8.505-4.69718-4.69718-8.505-1.88849e-15-8.505 4.69718-8.505 8.505-4.69718 8.505 0Z" stroke="#008000" stroke-width="1.88811" fill="none" transform="matrix(1 0 0 1.00088 269.892 259.82)"/><path d="M8.505 0C8.505 4.69718 4.69718 8.505 1.88849e-15 8.505-4.69718 8.505-8.505 4.69718-8.505 1.88849e-15-8.505-4.69718-4.69718-8.505-1.88849e-15-8.505 4.69718-8.505 8.505-4.69718 8.505 0Z" stroke="#008000" stroke-width="1.88811" fill="none" transform="matrix(1 0 0 1.00088 273.767 259.064)"/><path d="M8.505 0C8.505 4.69718 4.69718 8.505 1.88849e-15 8.505-4.69718 8.505-8.505 4.69718-8.505 1.88849e-15-8.505-4.69718-4.69718-8.505-1.88849e-15-8.505 4.69718-8.505 8.505-4.69718 8.505 0Z" stroke="#008000" stroke-width="1.88811" fill="none" transform="matrix(1 0 0 1.00088 277.641 258.591)"/><path d="M8.505 0C8.505 4.69718 4.69718 8.505 1.88849e-15 8.505-4.69718 8.505-8.505 4.69718-8.505 1.88849e-15-8.505-4.69718-4.69718-8.505-1.88849e-15-8.505 4.69718-8.505 8.505-4.69718 8.505 0Z" stroke="#008000" stroke-width="1.88811" fill="none" transform="matrix(1 0 0 1.00088 281.516 260.483)"/><path d="M8.505 0C8.505 4.69718 4.69718 8.505 1.88849e-15 8.505-4.69718 8.505-8.505 4.69718-8.505 1.88849e-15-8.505-4.69718-4.69718-8.505-1.88849e-15-8.505 4.69718-8.505 8.505-4.69718 8.505 0Z" stroke="#008000" stroke-width="1.88811" fill="none" transform="matrix(1 0 0 1.00088 285.296 261.996)"/><path d="M8.505 0C8.505 4.69718 4.69718 8.505 1.88849e-15 8.505-4.69718 8.505-8.505 4.69718-8.505 1.88849e-15-8.505-4.69718-4.69718-8.505-1.88849e-15-8.505 4.69718-8.505 8.505-4.69718 8.505 0Z" stroke="#008000" stroke-width="1.88811" fill="none" transform="matrix(1 0 0 1.00088 289.17 262.847)"/><path d="M8.505 0C8.505 4.69718 4.69718 8.505 1.88849e-15 8.505-4.69718 8.505-8.505 4.69718-8.505 1.88849e-15-8.505-4.69718-4.69718-8.505-1.88849e-15-8.505 4.69718-8.505 8.505-4.69718 8.505 0Z" stroke="#008000" stroke-width="1.88811" fill="none" transform="matrix(1 0 0 1.00088 293.044 263.509)"/><path d="M8.505 0C8.505 4.69718 4.69718 8.505 1.88849e-15 8.505-4.69718 8.505-8.505 4.69718-8.505 1.88849e-15-8.505-4.69718-4.69718-8.505-1.88849e-15-8.505 4.69718-8.505 8.505-4.69718 8.505 0Z" stroke="#008000" stroke-width="1.88811" fill="none" transform="matrix(1 0 0 1.00088 296.919 263.32)"/><path d="M8.505 0C8.505 4.69718 4.69718 8.505 1.88849e-15 8.505-4.69718 8.505-8.505 4.69718-8.505 1.88849e-15-8.505-4.69718-4.69718-8.505-1.88849e-15-8.505 4.69718-8.505 8.505-4.69718 8.505 0Z" stroke="#008000" stroke-width="1.88811" fill="none" transform="matrix(1 0 0 1.00088 300.793 265.874)"/><path d="M8.505 0C8.505 4.69718 4.69718 8.505 1.88849e-15 8.505-4.69718 8.505-8.505 4.69718-8.505 1.88849e-15-8.505-4.69718-4.69718-8.505-1.88849e-15-8.505 4.69718-8.505 8.505-4.69718 8.505 0Z" stroke="#008000" stroke-width="1.88811" fill="none" transform="matrix(1 0 0 1.00088 304.668 268.238)"/><path d="M8.505 0C8.505 4.69718 4.69718 8.505 1.88849e-15 8.505-4.69718 8.505-8.505 4.69718-8.505 1.88849e-15-8.505-4.69718-4.69718-8.505-1.88849e-15-8.505 4.69718-8.505 8.505-4.69718 8.505 0Z" stroke="#008000" stroke-width="1.88811" fill="none" transform="matrix(1 0 0 1.00088 308.543 270.887)"/><path d="M8.505 0C8.505 4.69718 4.69718 8.505 1.88849e-15 8.505-4.69718 8.505-8.505 4.69718-8.505 1.88849e-15-8.505-4.69718-4.69718-8.505-1.88849e-15-8.505 4.69718-8.505 8.505-4.69718 8.505 0Z" stroke="#008000" stroke-width="1.88811" fill="none" transform="matrix(1 0 0 1.00088 312.417 275.143)"/><path d="M8.505 0C8.505 4.69718 4.69718 8.505 1.88849e-15 8.505-4.69718 8.505-8.505 4.69718-8.505 1.88849e-15-8.505-4.69718-4.69718-8.505-1.88849e-15-8.505 4.69718-8.505 8.505-4.69718 8.505 0Z" stroke="#008000" stroke-width="1.88811" fill="none" transform="matrix(1 0 0 1.00088 316.292 279.21)"/><path d="M8.505 0C8.505 4.69718 4.69718 8.505 1.88849e-15 8.505-4.69718 8.505-8.505 4.69718-8.505 1.88849e-15-8.505-4.69718-4.69718-8.505-1.88849e-15-8.505 4.69718-8.505 8.505-4.69718 8.505 0Z" stroke="#008000" stroke-width="1.88811" fill="none" transform="matrix(1 0 0 1.00088 320.166 283.939)"/><path d="M8.505 0C8.505 4.69718 4.69718 8.505 1.88849e-15 8.505-4.69718 8.505-8.505 4.69718-8.505 1.88849e-15-8.505-4.69718-4.69718-8.505-1.88849e-15-8.505 4.69718-8.505 8.505-4.69718 8.505 0Z" stroke="#008000" stroke-width="1.88811" fill="none" transform="matrix(1 0 0 1.00088 324.04 288.668)"/><path d="M8.505 0C8.505 4.69718 4.69718 8.505 1.88849e-15 8.505-4.69718 8.505-8.505 4.69718-8.505 1.88849e-15-8.505-4.69718-4.69718-8.505-1.88849e-15-8.505 4.69718-8.505 8.505-4.69718 8.505 0Z" stroke="#008000" stroke-width="1.88811" fill="none" transform="matrix(1 0 0 1.00088 327.915 294.06)"/><path d="M8.505 0C8.505 4.69718 4.69718 8.505 1.88849e-15 8.505-4.69718 8.505-8.505 4.69718-8.505 1.88849e-15-8.505-4.69718-4.69718-8.505-1.88849e-15-8.505 4.69718-8.505 8.505-4.69718 8.505 0Z" stroke="#008000" stroke-width="1.88811" fill="none" transform="matrix(1 0 0 1.00088 331.789 292.641)"/><path d="M8.505 0C8.505 4.69718 4.69718 8.505 1.88849e-15 8.505-4.69718 8.505-8.505 4.69718-8.505 1.88849e-15-8.505-4.69718-4.69718-8.505-1.88849e-15-8.505 4.69718-8.505 8.505-4.69718 8.505 0Z" stroke="#008000" stroke-width="1.88811" fill="none" transform="matrix(1 0 0 1.00088 335.664 288.858)"/><path d="M8.505 0C8.505 4.69718 4.69718 8.505 1.88849e-15 8.505-4.69718 8.505-8.505 4.69718-8.505 1.88849e-15-8.505-4.69718-4.69718-8.505-1.88849e-15-8.505 4.69718-8.505 8.505-4.69718 8.505 0Z" stroke="#008000" stroke-width="1.88811" fill="none" transform="matrix(1 0 0 1.00088 339.539 285.358)"/><path d="M8.505 0C8.505 4.69718 4.69718 8.505 1.88849e-15 8.505-4.69718 8.505-8.505 4.69718-8.505 1.88849e-15-8.505-4.69718-4.69718-8.505-1.88849e-15-8.505 4.69718-8.505 8.505-4.69718 8.505 0Z" stroke="#008000" stroke-width="1.88811" fill="none" transform="matrix(1 0 0 1.00088 343.413 282.52)"/><path d="M8.505 0C8.505 4.69718 4.69718 8.505 1.88849e-15 8.505-4.69718 8.505-8.505 4.69718-8.505 1.88849e-15-8.505-4.69718-4.69718-8.505-1.88849e-15-8.505 4.69718-8.505 8.505-4.69718 8.505 0Z" stroke="#008000" stroke-width="1.88811" fill="none" transform="matrix(1 0 0 1.00088 347.288 280.25)"/><path d="M8.505 0C8.505 4.69718 4.69718 8.505 1.88849e-15 8.505-4.69718 8.505-8.505 4.69718-8.505 1.88849e-15-8.505-4.69718-4.69718-8.505-1.88849e-15-8.505 4.69718-8.505 8.505-4.69718 8.505 0Z" stroke="#008000" stroke-width="1.88811" fill="none" transform="matrix(1 0 0 1.00088 351.162 278.264)"/><path d="M8.505 0C8.505 4.69718 4.69718 8.505 1.88849e-15 8.505-4.69718 8.505-8.505 4.69718-8.505 1.88849e-15-8.505-4.69718-4.69718-8.505-1.88849e-15-8.505 4.69718-8.505 8.505-4.69718 8.505 0Z" stroke="#008000" stroke-width="1.88811" fill="none" transform="matrix(1 0 0 1.00088 355.036 276.562)"/><path d="M8.505 0C8.505 4.69718 4.69718 8.505 1.88849e-15 8.505-4.69718 8.505-8.505 4.69718-8.505 1.88849e-15-8.505-4.69718-4.69718-8.505-1.88849e-15-8.505 4.69718-8.505 8.505-4.69718 8.505 0Z" stroke="#008000" stroke-width="1.88811" fill="none" transform="matrix(1 0 0 1.00088 358.911 275.143)"/><path d="M8.505 0C8.505 4.69718 4.69718 8.505 1.88849e-15 8.505-4.69718 8.505-8.505 4.69718-8.505 1.88849e-15-8.505-4.69718-4.69718-8.505-1.88849e-15-8.505 4.69718-8.505 8.505-4.69718 8.505 0Z" stroke="#008000" stroke-width="1.88811" fill="none" transform="matrix(1 0 0 1.00088 362.785 274.292)"/><path d="M8.505 0C8.505 4.69718 4.69718 8.505 1.88849e-15 8.505-4.69718 8.505-8.505 4.69718-8.505 1.88849e-15-8.505-4.69718-4.69718-8.505-1.88849e-15-8.505 4.69718-8.505 8.505-4.69718 8.505 0Z" stroke="#008000" stroke-width="1.88811" fill="none" transform="matrix(1 0 0 1.00088 366.66 273.724)"/><path d="M8.505 0C8.505 4.69718 4.69718 8.505 1.88849e-15 8.505-4.69718 8.505-8.505 4.69718-8.505 1.88849e-15-8.505-4.69718-4.69718-8.505-1.88849e-15-8.505 4.69718-8.505 8.505-4.69718 8.505 0Z" stroke="#008000" stroke-width="1.88811" fill="none" transform="matrix(1 0 0 1.00088 370.534 273.346)"/><path d="M8.505 0C8.505 4.69718 4.69718 8.505 1.88849e-15 8.505-4.69718 8.505-8.505 4.69718-8.505 1.88849e-15-8.505-4.69718-4.69718-8.505-1.88849e-15-8.505 4.69718-8.505 8.505-4.69718 8.505 0Z" stroke="#008000" stroke-width="1.88811" fill="none" transform="matrix(1 0 0 1.00088 374.409 273.062)"/><path d="M8.505 0C8.505 4.69718 4.69718 8.505 1.88849e-15 8.505-4.69718 8.505-8.505 4.69718-8.505 1.88849e-15-8.505-4.69718-4.69718-8.505-1.88849e-15-8.505 4.69718-8.505 8.505-4.69718 8.505 0Z" stroke="#008000" stroke-width="1.88811" fill="none" transform="matrix(1 0 0 1.00088 378.284 273.251)"/><path d="M8.505 0C8.505 4.69718 4.69718 8.505 1.88849e-15 8.505-4.69718 8.505-8.505 4.69718-8.505 1.88849e-15-8.505-4.69718-4.69718-8.505-1.88849e-15-8.505 4.69718-8.505 8.505-4.69718 8.505 0Z" stroke="#008000" stroke-width="1.88811" fill="none" transform="matrix(1 0 0 1.00088 382.158 275.048)"/><path d="M8.505 0C8.505 4.69718 4.69718 8.505 1.88849e-15 8.505-4.69718 8.505-8.505 4.69718-8.505 1.88849e-15-8.505-4.69718-4.69718-8.505-1.88849e-15-8.505 4.69718-8.505 8.505-4.69718 8.505 0Z" stroke="#008000" stroke-width="1.88811" fill="none" transform="matrix(1 0 0 1.00088 386.033 277.035)"/><path d="M8.505 0C8.505 4.69718 4.69718 8.505 1.88849e-15 8.505-4.69718 8.505-8.505 4.69718-8.505 1.88849e-15-8.505-4.69718-4.69718-8.505-1.88849e-15-8.505 4.69718-8.505 8.505-4.69718 8.505 0Z" stroke="#008000" stroke-width="1.88811" fill="none" transform="matrix(1 0 0 1.00088 389.907 279.305)"/><path d="M8.505 0C8.505 4.69718 4.69718 8.505 1.88849e-15 8.505-4.69718 8.505-8.505 4.69718-8.505 1.88849e-15-8.505-4.69718-4.69718-8.505-1.88849e-15-8.505 4.69718-8.505 8.505-4.69718 8.505 0Z" stroke="#008000" stroke-width="1.88811" fill="none" transform="matrix(1 0 0 1.00088 393.781 281.764)"/><path d="M8.505 0C8.505 4.69718 4.69718 8.505 1.88849e-15 8.505-4.69718 8.505-8.505 4.69718-8.505 1.88849e-15-8.505-4.69718-4.69718-8.505-1.88849e-15-8.505 4.69718-8.505 8.505-4.69718 8.505 0Z" stroke="#008000" stroke-width="1.88811" fill="none" transform="matrix(1 0 0 1.00088 397.656 284.885)"/><path d="M8.505 0C8.505 4.69718 4.69718 8.505 1.88849e-15 8.505-4.69718 8.505-8.505 4.69718-8.505 1.88849e-15-8.505-4.69718-4.69718-8.505-1.88849e-15-8.505 4.69718-8.505 8.505-4.69718 8.505 0Z" stroke="#008000" stroke-width="1.88811" fill="none" transform="matrix(1 0 0 1.00088 401.53 286.682)"/><path d="M8.505 0C8.505 4.69718 4.69718 8.505 1.88849e-15 8.505-4.69718 8.505-8.505 4.69718-8.505 1.88849e-15-8.505-4.69718-4.69718-8.505-1.88849e-15-8.505 4.69718-8.505 8.505-4.69718 8.505 0Z" stroke="#008000" stroke-width="1.88811" fill="none" transform="matrix(1 0 0 1.00088 405.405 289.898)"/><path d="M8.505 0C8.505 4.69718 4.69718 8.505 1.88849e-15 8.505-4.69718 8.505-8.505 4.69718-8.505 1.88849e-15-8.505-4.69718-4.69718-8.505-1.88849e-15-8.505 4.69718-8.505 8.505-4.69718 8.505 0Z" stroke="#008000" stroke-width="1.88811" fill="none" transform="matrix(1 0 0 1.00088 409.28 293.776)"/><path d="M8.505 0C8.505 4.69718 4.69718 8.505 1.88849e-15 8.505-4.69718 8.505-8.505 4.69718-8.505 1.88849e-15-8.505-4.69718-4.69718-8.505-1.88849e-15-8.505 4.69718-8.505 8.505-4.69718 8.505 0Z" stroke="#008000" stroke-width="1.88811" fill="none" transform="matrix(1 0 0 1.00088 413.154 297.181)"/><path d="M8.505 0C8.505 4.69718 4.69718 8.505 1.88849e-15 8.505-4.69718 8.505-8.505 4.69718-8.505 1.88849e-15-8.505-4.69718-4.69718-8.505-1.88849e-15-8.505 4.69718-8.505 8.505-4.69718 8.505 0Z" stroke="#008000" stroke-width="1.88811" fill="none" transform="matrix(1 0 0 1.00088 417.029 300.964)"/><path d="M8.505 0C8.505 4.69718 4.69718 8.505 1.88849e-15 8.505-4.69718 8.505-8.505 4.69718-8.505 1.88849e-15-8.505-4.69718-4.69718-8.505-1.88849e-15-8.505 4.69718-8.505 8.505-4.69718 8.505 0Z" stroke="#008000" stroke-width="1.88811" fill="none" transform="matrix(1 0 0 1.00088 420.903 305.315)"/><path d="M8.505 0C8.505 4.69718 4.69718 8.505 1.88849e-15 8.505-4.69718 8.505-8.505 4.69718-8.505 1.88849e-15-8.505-4.69718-4.69718-8.505-1.88849e-15-8.505 4.69718-8.505 8.505-4.69718 8.505 0Z" stroke="#008000" stroke-width="1.88811" fill="none" transform="matrix(1 0 0 1.00088 424.777 310.612)"/><path d="M8.505 0C8.505 4.69718 4.69718 8.505 1.88849e-15 8.505-4.69718 8.505-8.505 4.69718-8.505 1.88849e-15-8.505-4.69718-4.69718-8.505-1.88849e-15-8.505 4.69718-8.505 8.505-4.69718 8.505 0Z" stroke="#008000" stroke-width="1.88811" fill="none" transform="matrix(1 0 0 1.00088 420.147 49.8454)"/><path d="M107.163 15.7815 107.163 399.168 455.773 399.168 455.773 15.7815 107.163 15.7815ZM107.163 15.7815 107.172 15.7815" stroke="#000000" stroke-width="0.945" fill="none" transform="scale(1 1.00088)"/></g></svg>