<svg width="1383" height="1131" xmlns="http://www.w3.org/2000/svg" xmlns:xlink="http://www.w3.org/1999/xlink" xml:space="preserve" overflow="hidden"><defs><clipPath id="clip0"><rect x="0" y="0" width="1383" height="1131"/></clipPath></defs><g clip-path="url(#clip0)"><path d="M172 952 192.274 952M1324 952 1303.73 952 1303.75 952" stroke="#000000" stroke-width="2.25161" stroke-miterlimit="8" fill="none" fill-rule="evenodd"/><text font-family="Arial,Arial_MSFontService,sans-serif" font-weight="400" font-size="37" transform="matrix(1 0 0 1 133.28 974)">0</text><path d="M172 838 192.274 838M1324 838 1303.73 838 1303.75 838" stroke="#000000" stroke-width="2.25161" stroke-miterlimit="8" fill="none" fill-rule="evenodd"/><text font-family="Arial,Arial_MSFontService,sans-serif" font-weight="400" font-size="37" transform="matrix(1 0 0 1 133.28 860)">2</text><path d="M172 723 192.274 723M1324 723 1303.73 723 1303.75 723" stroke="#000000" stroke-width="2.25161" stroke-miterlimit="8" fill="none" fill-rule="evenodd"/><text font-family="Arial,Arial_MSFontService,sans-serif" font-weight="400" font-size="37" transform="matrix(1 0 0 1 133.28 746)">4</text><path d="M172 609 192.274 609M1324 609 1303.73 609 1303.75 609" stroke="#000000" stroke-width="2.25161" stroke-miterlimit="8" fill="none" fill-rule="evenodd"/><text font-family="Arial,Arial_MSFontService,sans-serif" font-weight="400" font-size="37" transform="matrix(1 0 0 1 133.28 632)">6</text><path d="M172 495 192.274 495M1324 495 1303.73 495 1303.75 495" stroke="#000000" stroke-width="2.25161" stroke-miterlimit="8" fill="none" fill-rule="evenodd"/><text font-family="Arial,Arial_MSFontService,sans-serif" font-weight="400" font-size="37" transform="matrix(1 0 0 1 133.28 517)">8</text><path d="M172 381 192.274 381M1324 381 1303.73 381 1303.75 381" stroke="#000000" stroke-width="2.25161" stroke-miterlimit="8" fill="none" fill-rule="evenodd"/><text font-family="Arial,Arial_MSFontService,sans-serif" font-weight="400" font-size="37" transform="matrix(1 0 0 1 113.008 403)">10</text><path d="M172 266 192.274 266M1324 266 1303.73 266 1303.75 266" stroke="#000000" stroke-width="2.25161" stroke-miterlimit="8" fill="none" fill-rule="evenodd"/><text font-family="Arial,Arial_MSFontService,sans-serif" font-weight="400" font-size="37" transform="matrix(1 0 0 1 113.008 289)">12</text><path d="M172 152 192.274 152M1324 152 1303.73 152 1303.75 152" stroke="#000000" stroke-width="2.25161" stroke-miterlimit="8" fill="none" fill-rule="evenodd"/><text font-family="Arial,Arial_MSFontService,sans-serif" font-weight="400" font-size="37" transform="matrix(1 0 0 1 113.008 175)">14</text><path d="M172 38.0002 192.274 38.0002M1324 38.0002 1303.73 38.0002 1303.75 38.0002" stroke="#000000" stroke-width="2.25161" stroke-miterlimit="8" fill="none" fill-rule="evenodd"/><text font-family="Arial,Arial_MSFontService,sans-serif" font-weight="400" font-size="37" transform="matrix(1 0 0 1 113.008 60)">16</text><path d="M172 952 172 931.724M172 38.0002 172 58.2764 173 58.2764" stroke="#000000" stroke-width="2.25161" stroke-miterlimit="8" fill="none" fill-rule="evenodd"/><text font-family="Arial,Arial_MSFontService,sans-serif" font-weight="400" font-size="37" transform="matrix(1 0 0 1 147.471 1015)">0<tspan font-size="37" x="20.3958" y="0">.</tspan><tspan font-size="37" x="30.5938" y="0">5</tspan></text><path d="M364 952 364 931.724M364 38.0002 364 58.2764 365 58.2764" stroke="#000000" stroke-width="2.25161" stroke-miterlimit="8" fill="none" fill-rule="evenodd"/><text font-family="Arial,Arial_MSFontService,sans-serif" font-weight="400" font-size="37" transform="matrix(1 0 0 1 354.023 1015)">1</text><path d="M556 952 556 931.724M556 38.0002 556 58.2764 557 58.2764" stroke="#000000" stroke-width="2.25161" stroke-miterlimit="8" fill="none" fill-rule="evenodd"/><text font-family="Arial,Arial_MSFontService,sans-serif" font-weight="400" font-size="37" transform="matrix(1 0 0 1 531.518 1015)">1<tspan font-size="37" x="20.3958" y="0">.</tspan><tspan font-size="37" x="30.5938" y="0">5</tspan></text><path d="M748 952 748 931.724M748 38.0002 748 58.2764 749 58.2764" stroke="#000000" stroke-width="2.25161" stroke-miterlimit="8" fill="none" fill-rule="evenodd"/><text font-family="Arial,Arial_MSFontService,sans-serif" font-weight="400" font-size="37" transform="matrix(1 0 0 1 738.07 1015)">2</text><path d="M940 952 940 931.724M940 38.0002 940 58.2764 941 58.2764" stroke="#000000" stroke-width="2.25161" stroke-miterlimit="8" fill="none" fill-rule="evenodd"/><text font-family="Arial,Arial_MSFontService,sans-serif" font-weight="400" font-size="37" transform="matrix(1 0 0 1 915.34 1015)">2<tspan font-size="37" x="20.3958" y="0">.</tspan><tspan font-size="37" x="30.5938" y="0">5</tspan></text><path d="M1132 952 1132 931.724M1132 38.0002 1132 58.2764 1133 58.2764" stroke="#000000" stroke-width="2.25161" stroke-miterlimit="8" fill="none" fill-rule="evenodd"/><text font-family="Arial,Arial_MSFontService,sans-serif" font-weight="400" font-size="37" transform="matrix(1 0 0 1 1122.12 1015)">3</text><path d="M1324 952 1324 931.724M1324 38.0002 1324 58.2764 1325 58.2764" stroke="#000000" stroke-width="2.25161" stroke-miterlimit="8" fill="none" fill-rule="evenodd"/><text font-family="Arial,Arial_MSFontService,sans-serif" font-weight="400" font-size="37" transform="matrix(1 0 0 1 1299.39 1015)">3<tspan font-size="37" x="20.3959" y="0">.</tspan><tspan font-size="37" x="30.5938" y="0">5</tspan></text><path d="M172 38.0002 172 952 1324 952 1324 38.0002 172 38.0002ZM172 38.0002 172.022 38.0002" stroke="#000000" stroke-width="2.25161" stroke-miterlimit="8" fill="none" fill-rule="evenodd"/><text font-family="Arial,Arial_MSFontService,sans-serif" font-weight="400" font-size="37" transform="matrix(-1.83697e-16 -1 1 -1.83697e-16 60.4998 546)">g(r)</text><text font-family="Arial,Arial_MSFontService,sans-serif" font-weight="400" font-size="37" transform="matrix(1 0 0 1 714.359 1076)">r<tspan font-size="37" x="22.4125" y="0">(Å)</tspan><tspan font-size="37" x="325.678" y="-975">quantum</tspan></text><path d="M1191.61 78 1286.61 78M184 952 186.026 952 188.052 952 190.078 952 192.104 952 194.13 952 196.156 952 198.182 952 200.208 952 202.234 952 204.26 952 206.286 952 208.312 952 210.338 952 212.364 952 214.39 952 216.416 952 218.442 952 220.468 952 222.494 952 224.52 952 226.546 952 228.572 952 230.599 952 232.625 952 234.651 952 236.677 952 238.703 952 240.729 952 242.755 951.774 244.781 952 246.807 952 248.833 952 250.859 952 252.885 952 254.911 952 256.937 952 259.188 952 261.214 952 263.24 952 265.266 952 267.292 952 269.318 952 271.344 952 273.37 952 275.396 952 277.422 951.774 279.448 951.549 281.474 950.873 283.5 951.324 285.526 951.324 287.552 950.873 289.578 950.197 291.604 949.52 293.631 949.069 295.657 948.618 297.683 946.364 299.709 945.913 301.735 944.11 303.761 942.757 305.787 940.503 307.813 935.093 309.839 930.359 311.865 923.596 313.891 921.116 315.917 914.127 317.943 907.59 319.969 901.954 321.995 892.035 324.021 881.665 326.047 871.295 328.073 856.417 330.099 841.088 332.125 834.099 334.151 818.77 336.177 805.244 338.203 792.169 340.229 772.105 342.255 759.03 344.281 748.435 346.307 731.077 348.333 714.846 350.359 708.308 352.385 691.626 354.411 683.736 356.437 670.21 358.689 668.181 360.715 656.233 362.741 648.794 364.767 649.019 366.793 655.557 368.818 648.794 370.844 644.736 372.87 656.459 374.897 654.43 376.923 657.586 378.949 667.054 380.975 666.603 383.001 674.268 385.027 683.285 387.053 702.447 389.079 705.603 391.105 716.875 393.131 726.117 395.157 741.897 397.183 755.198 399.209 765.793 401.235 779.77 403.261 785.631 405.287 799.833 407.313 814.712 409.339 819.897 411.365 829.591 413.391 841.088 415.417 845.596 417.443 852.359 419.469 862.278 421.495 870.619 423.521 878.735 425.547 886.85 427.573 889.33 429.599 896.544 431.625 901.954 433.651 907.365 435.677 910.07 437.703 915.255 439.73 919.763 441.756 924.047 443.782 924.272 445.808 926.977 447.834 929.682 449.86 933.064 451.886 934.642 453.912 935.769 456.163 937.121 458.189 939.376 460.215 941.63 462.241 942.532 464.267 943.433 466.293 944.786 468.319 945.237 470.345 945.237 472.371 946.139 474.397 946.364 476.423 946.815 478.449 946.815 480.475 947.041 482.501 946.815 484.527 946.589 486.553 946.589 488.579 946.139 490.605 945.688 492.631 945.237 494.657 945.237 496.683 945.237 498.709 943.433 500.735 943.208 502.762 943.208 504.788 942.081 506.814 940.052 508.84 939.376 510.866 939.376 512.892 937.347 514.918 936.671 516.943 935.318 518.97 934.642 520.996 933.515 523.022 931.035 525.048 929.232 527.074 928.33 529.1 925.625 531.126 922.468 533.152 921.341 535.178 921.116 537.204 917.96 539.23 916.156 541.256 914.578 543.282 911.197 545.308 910.295 547.334 908.717 549.36 906.237 551.386 903.532 553.637 899.474 555.663 899.7 557.689 894.74 559.715 892.937 561.741 891.359 563.768 888.879 565.794 887.752 567.82 885.497 569.846 883.243 571.871 882.567 573.898 878.735 575.923 878.284 577.949 876.48 579.975 870.394 582.001 872.197 584.028 868.815 586.054 870.844 588.08 867.238 590.106 865.659 592.132 863.63 594.158 863.405 596.184 859.573 598.21 857.093 600.236 857.318 602.262 856.417 604.288 856.191 606.314 856.868 608.34 853.937 610.366 852.359 612.392 855.29 614.418 852.359 616.444 851.683 618.47 852.359 620.496 852.359 622.522 854.388 624.548 855.29 626.574 854.614 628.6 854.614 630.626 857.995 632.652 857.093 634.678 859.573 636.704 860.926 638.73 864.983 640.756 863.405 642.782 866.786 644.808 871.746 646.834 869.717 648.861 872.648 650.887 874.677 653.138 876.255 655.164 878.735 657.19 881.665 659.216 884.145 661.242 885.047 663.268 886.174 665.294 888.203 667.32 892.486 669.346 894.966 671.372 898.798 673.398 899.249 675.424 901.278 677.45 902.405 679.476 904.434 681.502 906.914 683.528 908.266 685.554 909.393 687.58 910.971 689.606 910.971 691.632 913.677 693.658 914.804 695.684 916.382 697.71 918.862 699.736 919.763 701.762 921.341 703.788 921.116 705.814 921.567 707.84 921.567 709.867 922.919 711.893 923.821 713.919 924.723 715.945 924.497 717.971 924.948 719.997 924.723 722.023 925.399 724.048 925.174 726.074 923.821 728.101 925.399 730.127 924.723 732.153 923.596 734.179 923.37 736.205 923.596 738.231 923.596 740.257 923.145 742.283 922.243 744.309 921.567 746.335 921.567 748.361 920.891 750.612 919.989 752.638 918.862 754.664 918.411 756.69 919.087 758.716 915.931 760.742 915.931 762.768 915.029 764.794 913.902 766.82 912.099 768.846 911.873 770.872 912.549 772.899 911.873 774.925 911.422 776.951 910.971 778.976 910.971 781.002 910.295 783.028 908.266 785.054 908.943 787.08 907.815 789.106 905.786 791.133 904.659 793.159 903.758 795.185 902.856 797.211 902.63 799.237 901.954 801.263 900.602 803.289 899.023 805.315 898.573 807.341 897.671 809.367 896.995 811.393 897.446 813.419 896.995 815.445 896.318 817.471 895.191 819.497 896.093 821.523 896.318 823.549 896.093 825.575 896.093 827.601 895.417 829.627 893.839 831.653 894.515 833.679 895.417 835.705 894.515 837.731 894.966 839.757 895.417 841.783 895.642 843.809 895.191 845.835 895.191 848.086 896.544 850.112 896.093 852.138 896.769 854.165 897.671 856.191 897.671 858.217 898.573 860.243 898.122 862.269 900.376 864.295 899.925 866.321 900.151 868.347 901.503 870.373 902.405 872.399 901.503 874.425 902.63 876.451 905.336 878.477 905.786 880.503 907.365 882.529 907.365 884.555 908.266 886.581 908.717 888.607 909.619 890.633 910.295 892.659 911.422 894.685 912.324 896.711 912.324 898.737 913.677 900.763 915.48 902.789 916.607 904.815 917.058 906.841 917.96 908.867 918.862 910.893 919.087 912.919 919.538 914.945 920.891 916.971 920.665 918.998 921.116 921.024 922.468 923.05 922.468 925.075 923.596 927.102 923.596 929.127 922.694 931.153 923.37 933.179 924.272 935.206 924.272 937.232 926.075 939.258 925.399 941.284 925.399 943.31 923.37 945.561 923.596 947.587 924.272 949.613 924.047 951.639 922.468 953.665 922.243 955.691 921.567 957.717 921.792 959.743 919.763 961.769 918.862 963.795 919.087 965.821 917.734 967.847 916.382 969.873 915.931 971.899 916.833 973.925 915.029 975.951 913.902 977.977 914.353 980.003 914.804 982.03 913.677 984.056 913.226 986.081 912.549 988.107 912.549 990.133 911.197 992.159 910.521 994.185 912.549 996.212 908.943 998.238 908.492 1000.26 909.168 1002.29 908.717 1004.32 908.492 1006.34 909.168 1008.37 909.168 1010.39 908.717 1012.42 908.266 1014.45 908.717 1016.47 908.717 1018.5 910.521 1020.52 910.746 1022.55 911.648 1024.58 912.775 1026.6 914.353 1028.63 915.48 1030.65 916.607 1032.68 915.931 1034.71 916.382 1036.73 916.833 1038.76 916.607 1040.78 919.087 1042.81 919.763 1045.06 920.214 1047.09 920.665 1049.11 921.567 1051.14 923.145 1053.17 923.145 1055.19 924.723 1057.22 926.752 1059.24 926.752 1061.27 926.752 1063.3 927.879 1065.32 929.682 1067.35 929.908 1069.37 930.809 1071.4 931.035 1073.43 931.486 1075.45 930.809 1077.48 931.26 1079.5 931.711 1081.53 931.26 1083.56 931.937 1085.58 932.162 1087.61 931.26 1089.63 931.486 1091.66 931.26 1093.69 930.584 1095.71 929.232 1097.74 928.104 1099.76 928.33 1101.79 927.428 1103.82 926.752 1105.84 927.203 1107.87 926.977 1109.89 926.977 1111.92 925.625 1113.95 924.497 1115.97 923.821 1118 923.37 1120.02 923.596 1122.05 922.018 1124.08 922.018 1126.1 921.341 1128.13 920.665 1130.15 919.989 1132.18 918.636 1134.21 918.411 1136.23 917.509 1138.26 915.931 1140.28 915.705 1142.54 914.353 1144.56 914.127 1146.59 913.226 1148.61 912.549 1150.64 912.549 1152.67 910.521 1154.69 909.168 1156.72 909.844 1158.74 908.266 1160.77 907.139 1162.8 905.786 1164.82 905.11 1166.85 904.885 1168.87 904.434 1170.9 903.758 1172.93 903.532 1174.95 902.63 1176.98 901.729 1179 900.602 1181.03 901.278 1183.06 900.602 1185.08 900.376 1187.11 899.023 1189.13 898.798 1191.16 899.023 1193.19 897.896 1195.21 898.122 1197.24 897.896 1199.26 898.122 1201.29 897.446 1203.32 897.446 1205.34 897.22 1207.37 896.769 1209.39 897.22 1211.42 896.544 1213.45 896.995 1215.47 896.769 1217.5 897.671 1219.52 897.22 1221.55 898.122 1223.58 897.22 1225.6 898.573 1227.63 898.573 1229.65 899.249 1231.68 899.249 1233.71 898.573 1235.73 899.023 1237.76 899.249 1240.01 900.151 1242.04 900.602 1244.06 901.052 1246.09 900.827 1248.11 900.602 1250.14 901.278 1252.17 901.729 1254.19 902.405 1256.22 902.179 1258.24 902.405 1260.27 902.405 1262.3 902.856 1264.32 902.63 1266.35 903.532 1268.37 903.983 1270.4 903.307 1272.43 903.532 1274.45 902.63 1276.48 903.081 1278.5 903.307 1280.53 903.307 1282.56 903.532 1284.58 902.856 1286.61 902.179 1288.63 903.307 1290.66 902.179 1292.69 901.729 1294.71 901.729 1296.74 900.827 1298.76 901.052 1300.79 899.7 1302.82 899.249 1304.84 899.474 1306.87 899.925 1308.89 898.347 1310.92 897.896 1312.95 898.122 1314.97 898.573 1317 896.544 1319.03 897.22 1321.05 896.093 1323.08 895.642 1323.98 895.417 1324 895.417" stroke="#FF0000" stroke-width="2.25161" stroke-miterlimit="8" fill="none" fill-rule="evenodd"/><text font-family="Arial,Arial_MSFontService,sans-serif" font-weight="400" font-size="37" transform="matrix(1 0 0 1 1037.79 142)">classical</text><path d="M1191.61 119 1286.61 119M184 952 186.026 952 188.052 952 190.078 952 192.104 952 194.13 952 196.156 952 198.182 952 200.208 952 202.234 952 204.26 952 206.286 952 208.312 952 210.338 952 212.364 952 214.39 952 216.416 952 218.442 952 220.468 952 222.494 952 224.52 952 226.546 952 228.572 952 230.599 952 232.625 952 234.651 952 236.677 952 238.703 952 240.729 952 242.755 952 244.781 952 246.807 952 248.833 952 250.859 952 252.885 952 254.911 952 256.937 952 259.188 952 261.214 952 263.24 952 265.266 952 267.292 952 269.318 952 271.344 952 273.37 952 275.396 952 277.422 952 279.448 952 281.474 952 283.5 952 285.526 952 287.552 952 289.578 952 291.604 952 293.631 952 295.657 952 297.683 952 299.709 952 301.735 952 303.761 952 305.787 952 307.813 952 309.839 952 311.865 952 313.891 952 315.917 952 317.943 952 319.969 952 321.995 952 324.021 952 326.047 951.549 328.073 951.549 330.099 950.423 332.125 949.071 334.151 946.592 336.177 941.41 338.203 930.595 340.229 914.147 342.255 887.559 344.281 842.27 346.307 783.237 348.333 715.416 350.359 655.707 352.385 556.792 354.411 462.835 356.437 367.976 358.689 292.945 360.715 212.507 362.741 180.286 364.767 152.572 366.793 148.967 368.818 174.654 370.844 231.208 372.87 285.059 374.897 372.482 376.923 443.683 378.949 514.883 380.975 593.294 383.001 654.13 385.027 717.669 387.053 768.366 389.079 807.571 391.105 839.341 393.131 868.407 395.157 889.587 397.183 905.81 399.209 918.202 401.235 928.567 403.261 933.749 405.287 939.833 407.313 942.987 409.339 945.691 411.365 947.719 413.391 947.945 415.417 948.845 417.443 949.747 419.469 950.873 421.495 951.549 423.521 951.324 425.547 951.549 427.573 951.324 429.599 951.324 431.625 951.549 433.651 952 435.677 952 437.703 951.775 439.73 951.775 441.756 951.775 443.782 952 445.808 952 447.834 952 449.86 952 451.886 952 453.912 952 456.163 952 458.189 952 460.215 952 462.241 952 464.267 952 466.293 952 468.319 952 470.345 952 472.371 952 474.397 952 476.423 952 478.449 952 480.475 952 482.501 951.549 484.527 951.775 486.553 951.775 488.579 951.549 490.605 951.549 492.631 951.549 494.657 951.549 496.683 951.549 498.709 951.099 500.735 951.324 502.762 950.648 504.788 950.873 506.814 950.873 508.84 950.198 510.866 950.198 512.892 950.198 514.918 949.071 516.943 949.071 518.97 948.62 520.996 947.945 523.022 947.945 525.048 947.268 527.074 946.367 529.1 945.466 531.126 945.917 533.152 945.015 535.178 944.339 537.204 943.213 539.23 940.283 541.256 938.481 543.282 937.129 545.308 934.425 547.334 933.073 549.36 928.792 551.386 925.638 553.637 921.582 555.663 920.456 557.689 915.048 559.715 910.767 561.741 902.655 563.768 897.698 565.794 892.516 567.82 888.46 569.846 882.377 571.871 872.237 573.898 866.379 575.923 861.647 577.949 856.691 579.975 849.931 582.001 843.397 584.028 834.384 586.054 828.977 588.08 826.949 590.106 819.513 592.132 819.964 594.158 817.26 596.184 814.105 598.21 813.43 600.236 809.374 602.262 807.571 604.288 806.895 606.314 807.796 608.34 806.219 610.366 810.05 612.392 815.683 614.418 819.964 616.444 819.513 618.47 823.118 620.496 827.85 622.522 833.032 624.548 837.989 626.574 841.369 628.6 847.002 630.626 848.804 632.652 852.86 634.678 859.169 636.704 861.873 638.73 870.435 640.756 868.632 642.782 875.617 644.808 876.744 646.834 883.729 648.861 886.883 650.887 889.362 653.138 892.516 655.164 893.868 657.19 896.121 659.216 900.177 661.242 900.402 663.268 901.078 665.294 901.979 667.32 905.81 669.346 908.964 671.372 907.612 673.398 910.316 675.424 913.02 677.45 914.372 679.476 916.4 681.502 918.653 683.528 917.752 685.554 921.582 687.58 922.258 689.606 923.61 691.632 924.286 693.658 926.539 695.684 928.116 697.71 928.342 699.736 929.919 701.762 930.82 703.788 930.82 705.814 932.172 707.84 931.947 709.867 934.425 711.893 935.326 713.919 934.876 715.945 936.453 717.971 937.58 719.997 936.228 722.023 936.002 724.048 936.679 726.074 936.228 728.101 936.453 730.127 936.679 732.153 936.679 734.179 936.453 736.205 935.552 738.231 935.101 740.257 934.876 742.283 934.651 744.309 934.651 746.335 933.749 748.361 932.172 750.612 930.595 752.638 930.144 754.664 928.342 756.69 926.99 758.716 925.187 760.742 924.061 762.768 923.61 764.794 922.709 766.82 920.906 768.846 919.779 770.872 917.301 772.899 916.4 774.925 913.921 776.951 911.443 778.976 908.288 781.002 906.711 783.028 905.81 785.054 903.106 787.08 904.232 789.106 903.106 791.133 902.43 793.159 897.473 795.185 897.473 797.211 894.319 799.237 893.868 801.263 893.192 803.289 891.389 805.315 890.713 807.341 888.685 809.367 887.334 811.393 887.559 813.419 884.63 815.445 884.405 817.471 884.405 819.497 884.63 821.523 884.405 823.549 882.151 825.575 881.701 827.601 882.377 829.627 881.475 831.653 882.602 833.679 882.151 835.705 885.757 837.731 884.179 839.757 885.306 841.783 885.982 843.809 884.63 845.835 887.109 848.086 885.982 850.112 886.432 852.138 888.01 854.165 887.109 856.191 888.01 858.217 889.136 860.243 889.587 862.269 890.488 864.295 892.516 866.321 891.615 868.347 892.516 870.373 895.445 872.399 895.67 874.425 896.347 876.451 896.797 878.477 898.825 880.503 901.979 882.529 902.43 884.555 902.881 886.581 904.458 888.607 907.162 890.633 908.739 892.659 909.19 894.685 910.316 896.711 911.443 898.737 913.921 900.763 915.724 902.789 917.301 904.815 918.428 906.841 920.23 908.867 920.005 910.893 922.258 912.919 923.61 914.945 924.061 916.971 925.863 918.998 925.863 921.024 925.863 923.05 927.891 925.075 928.342 927.102 928.116 929.127 928.792 931.153 929.694 933.179 929.468 935.206 930.144 937.232 928.567 939.258 928.342 941.284 929.018 943.31 927.891 945.561 930.144 947.587 929.919 949.613 927.891 951.639 927.44 953.665 927.44 955.691 926.764 957.717 924.737 959.743 924.286 961.769 923.159 963.795 922.258 965.821 920.906 967.847 921.807 969.873 920.681 971.899 918.653 973.925 919.554 975.951 917.752 977.977 917.752 980.003 915.048 982.03 912.119 984.056 912.795 986.081 911.893 988.107 912.569 990.133 913.02 992.159 912.344 994.185 913.696 996.212 913.02 998.238 909.866 1000.26 910.091 1002.29 910.316 1004.32 908.739 1006.34 908.739 1008.37 909.866 1010.39 906.26 1012.42 909.19 1014.45 908.063 1016.47 909.866 1018.5 909.415 1020.52 911.668 1022.55 913.245 1024.58 915.273 1026.6 914.823 1028.63 917.752 1030.65 917.076 1032.68 918.202 1034.71 918.202 1036.73 919.554 1038.76 919.779 1040.78 920.23 1042.81 920.23 1045.06 922.709 1047.09 923.159 1049.11 924.737 1051.14 923.159 1053.17 922.709 1055.19 922.934 1057.22 924.286 1059.24 925.863 1061.27 927.215 1063.3 927.891 1065.32 929.468 1067.35 930.595 1069.37 931.045 1071.4 931.721 1073.43 931.045 1075.45 931.271 1077.48 931.496 1079.5 931.045 1081.53 930.595 1083.56 931.947 1085.58 932.172 1087.61 931.496 1089.63 931.947 1091.66 932.398 1093.69 932.398 1095.71 932.172 1097.74 932.398 1099.76 931.721 1101.79 931.721 1103.82 931.271 1105.84 930.37 1107.87 930.144 1109.89 929.468 1111.92 928.116 1113.95 927.215 1115.97 926.088 1118 925.187 1120.02 924.286 1122.05 923.61 1124.08 923.385 1126.1 922.033 1128.13 920.906 1130.15 920.23 1132.18 919.104 1134.21 917.977 1136.23 916.85 1138.26 915.724 1140.28 914.823 1142.54 913.02 1144.56 912.569 1146.59 911.217 1148.61 908.964 1150.64 907.838 1152.67 906.936 1154.69 905.585 1156.72 904.683 1158.74 904.458 1160.77 902.43 1162.8 903.106 1164.82 903.782 1166.85 901.529 1168.87 901.304 1170.9 899.726 1172.93 898.825 1174.95 898.149 1176.98 895.445 1179 896.347 1181.03 896.797 1183.06 896.347 1185.08 895.445 1187.11 894.319 1189.13 895.67 1191.16 897.248 1193.19 894.319 1195.21 894.769 1197.24 895.22 1199.26 895.896 1201.29 896.121 1203.32 897.022 1205.34 896.121 1207.37 897.022 1209.39 896.347 1211.42 897.473 1213.45 898.149 1215.47 898.374 1217.5 898.374 1219.52 897.698 1221.55 896.347 1223.58 897.698 1225.6 898.6 1227.63 900.177 1229.65 898.825 1231.68 899.05 1233.71 901.529 1235.73 901.754 1237.76 901.979 1240.01 901.979 1242.04 902.43 1244.06 902.881 1246.09 903.557 1248.11 904.007 1250.14 904.683 1252.17 904.683 1254.19 905.585 1256.22 905.81 1258.24 905.134 1260.27 905.134 1262.3 907.162 1264.32 906.26 1266.35 906.035 1268.37 905.359 1270.4 905.81 1272.43 905.81 1274.45 904.458 1276.48 904.232 1278.5 904.683 1280.53 905.81 1282.56 904.683 1284.58 905.134 1286.61 905.359 1288.63 904.909 1290.66 904.007 1292.69 904.007 1294.71 902.881 1296.74 903.106 1298.76 903.331 1300.79 903.106 1302.82 902.881 1304.84 901.979 1306.87 901.979 1308.89 900.628 1310.92 900.402 1312.95 900.628 1314.97 899.501 1317 898.374 1319.03 898.374 1321.05 897.698 1323.08 897.022 1323.98 897.248 1324 897.248" stroke="#008000" stroke-width="2.25161" stroke-miterlimit="8" fill="none" fill-rule="evenodd"/><path d="M172 38.0002 172 952 1324 952 1324 38.0002 172 38.0002ZM172 38.0002 172.022 38.0002" stroke="#000000" stroke-width="2.25161" stroke-miterlimit="8" fill="none" fill-rule="evenodd"/></g></svg>