<?xml version="1.0" encoding="UTF-8" standalone="no"?>
<svg
   xmlns:dc="http://purl.org/dc/elements/1.1/"
   xmlns:cc="http://creativecommons.org/ns#"
   xmlns:rdf="http://www.w3.org/1999/02/22-rdf-syntax-ns#"
   xmlns:svg="http://www.w3.org/2000/svg"
   xmlns="http://www.w3.org/2000/svg"
   xmlns:sodipodi="http://sodipodi.sourceforge.net/DTD/sodipodi-0.dtd"
   xmlns:inkscape="http://www.inkscape.org/namespaces/inkscape"
   version="1.0"
   width="162.56mm"
   height="115.37mm"
   id="svg217"
   sodipodi:docname="image263.svg"
   inkscape:version="1.0.2-2 (e86c870879, 2021-01-15)">
  <metadata
     id="metadata221">
    <rdf:RDF>
      <cc:Work
         rdf:about="">
        <dc:format>image/svg+xml</dc:format>
        <dc:type
           rdf:resource="http://purl.org/dc/dcmitype/StillImage" />
        <dc:title></dc:title>
      </cc:Work>
    </rdf:RDF>
  </metadata>
  <sodipodi:namedview
     pagecolor="#ffffff"
     bordercolor="#666666"
     borderopacity="1"
     objecttolerance="10"
     gridtolerance="10"
     guidetolerance="10"
     inkscape:pageopacity="0"
     inkscape:pageshadow="2"
     inkscape:window-width="1858"
     inkscape:window-height="1057"
     id="namedview219"
     showgrid="false"
     inkscape:zoom="2.0410779"
     inkscape:cx="307.2"
     inkscape:cy="218.02205"
     inkscape:window-x="-8"
     inkscape:window-y="-8"
     inkscape:window-maximized="1"
     inkscape:current-layer="svg217" />
  <defs
     id="defs3">
    <pattern
       id="EMFhbasepattern"
       patternUnits="userSpaceOnUse"
       width="6"
       height="6"
       x="0"
       y="0" />
  </defs>
  <path
     style="fill:none;stroke:#000000;stroke-width:0.088860892px;stroke-linecap:round;stroke-linejoin:round;stroke-miterlimit:4;stroke-dasharray:none;stroke-opacity:1;"
     d="  M 85.395318,387.70007   L 90.904693,387.70007   M 594.03507,387.70007   L 588.43683,387.70007  "
     id="path5" />
  <text
     xml:space="preserve"
     style="font-size:16.000000px;font-style:normal;font-variant:normal;font-weight:400;font-stretch:Normal;line-height:125.000000%;letter-spacing:0px;word-spacing:0px;fill:#000000;fill-opacity:1;stroke:none;font-family:Helvetica;text-align:start;text-anchor:start;"
     transform="matrix(1.000000,-0.000000,0.000000,1.000000,35.722079,393.120588)"
     x="0.000000"
     y="0.000000"
     id="text11"><tspan
       sodipodi:role="line"
       x="0.000000"
       y="0.000000"
       id="tspan9"><tspan
         dx="0.000000"
         dy="0.000000"
         style="fill:#000000;font-size:16.000000px;font-style:normal;font-variant:normal;font-weight:400;font-stretch:Normal;font-family:Helvetica;"
         id="tspan7">31.92</tspan></tspan></text>
  <path
     style="fill:none;stroke:#000000;stroke-width:0.088860892px;stroke-linecap:round;stroke-linejoin:round;stroke-miterlimit:4;stroke-dasharray:none;stroke-opacity:1;"
     d="  M 85.395318,349.93419   L 90.904693,349.93419   M 594.03507,349.93419   L 588.43683,349.93419  "
     id="path13" />
  <text
     xml:space="preserve"
     style="font-size:16.000000px;font-style:normal;font-variant:normal;font-weight:400;font-stretch:Normal;line-height:125.000000%;letter-spacing:0px;word-spacing:0px;fill:#000000;fill-opacity:1;stroke:none;font-family:Helvetica;text-align:start;text-anchor:start;"
     transform="matrix(1.000000,-0.000000,0.000000,1.000000,35.722079,355.354709)"
     x="0.000000"
     y="0.000000"
     id="text19"><tspan
       sodipodi:role="line"
       x="0.000000"
       y="0.000000"
       id="tspan17"><tspan
         dx="0.000000"
         dy="0.000000"
         style="fill:#000000;font-size:16.000000px;font-style:normal;font-variant:normal;font-weight:400;font-stretch:Normal;font-family:Helvetica;"
         id="tspan15">31.94</tspan></tspan></text>
  <path
     style="fill:none;stroke:#000000;stroke-width:0.088860892px;stroke-linecap:round;stroke-linejoin:round;stroke-miterlimit:4;stroke-dasharray:none;stroke-opacity:1;"
     d="  M 85.395318,312.16831   L 90.904693,312.16831   M 594.03507,312.16831   L 588.43683,312.16831  "
     id="path21" />
  <text
     xml:space="preserve"
     style="font-size:16.000000px;font-style:normal;font-variant:normal;font-weight:400;font-stretch:Normal;line-height:125.000000%;letter-spacing:0px;word-spacing:0px;fill:#000000;fill-opacity:1;stroke:none;font-family:Helvetica;text-align:start;text-anchor:start;"
     transform="matrix(1.000000,-0.000000,0.000000,1.000000,35.722079,317.588829)"
     x="0.000000"
     y="0.000000"
     id="text27"><tspan
       sodipodi:role="line"
       x="0.000000"
       y="0.000000"
       id="tspan25"><tspan
         dx="0.000000"
         dy="0.000000"
         style="fill:#000000;font-size:16.000000px;font-style:normal;font-variant:normal;font-weight:400;font-stretch:Normal;font-family:Helvetica;"
         id="tspan23">31.96</tspan></tspan></text>
  <path
     style="fill:none;stroke:#000000;stroke-width:0.088860892px;stroke-linecap:round;stroke-linejoin:round;stroke-miterlimit:4;stroke-dasharray:none;stroke-opacity:1;"
     d="  M 85.395318,274.58016   L 90.904693,274.58016   M 594.03507,274.58016   L 588.43683,274.58016  "
     id="path29" />
  <text
     xml:space="preserve"
     style="font-size:16.000000px;font-style:normal;font-variant:normal;font-weight:400;font-stretch:Normal;line-height:125.000000%;letter-spacing:0px;word-spacing:0px;fill:#000000;fill-opacity:1;stroke:none;font-family:Helvetica;text-align:start;text-anchor:start;"
     transform="matrix(1.000000,-0.000000,0.000000,1.000000,35.722079,279.911811)"
     x="0.000000"
     y="0.000000"
     id="text35"><tspan
       sodipodi:role="line"
       x="0.000000"
       y="0.000000"
       id="tspan33"><tspan
         dx="0.000000"
         dy="0.000000"
         style="fill:#000000;font-size:16.000000px;font-style:normal;font-variant:normal;font-weight:400;font-stretch:Normal;font-family:Helvetica;"
         id="tspan31">31.98</tspan></tspan></text>
  <path
     style="fill:none;stroke:#000000;stroke-width:0.088860892px;stroke-linecap:round;stroke-linejoin:round;stroke-miterlimit:4;stroke-dasharray:none;stroke-opacity:1;"
     d="  M 85.395318,236.81428   L 90.904693,236.81428   M 594.03507,236.81428   L 588.43683,236.81428  "
     id="path37" />
  <text
     xml:space="preserve"
     style="font-size:16.000000px;font-style:normal;font-variant:normal;font-weight:400;font-stretch:Normal;line-height:125.000000%;letter-spacing:0px;word-spacing:0px;fill:#000000;fill-opacity:1;stroke:none;font-family:Helvetica;text-align:start;text-anchor:start;"
     transform="matrix(1.000000,-0.000000,0.000000,1.000000,35.722079,242.145932)"
     x="0.000000"
     y="0.000000"
     id="text43"><tspan
       sodipodi:role="line"
       x="0.000000"
       y="0.000000"
       id="tspan41"><tspan
         dx="0.000000"
         dy="0.000000"
         style="fill:#000000;font-size:16.000000px;font-style:normal;font-variant:normal;font-weight:400;font-stretch:Normal;font-family:Helvetica;"
         id="tspan39">32.00</tspan></tspan></text>
  <path
     style="fill:none;stroke:#000000;stroke-width:0.088860892px;stroke-linecap:round;stroke-linejoin:round;stroke-miterlimit:4;stroke-dasharray:none;stroke-opacity:1;"
     d="  M 85.395318,199.0484   L 90.904693,199.0484   M 594.03507,199.0484   L 588.43683,199.0484  "
     id="path45" />
  <text
     xml:space="preserve"
     style="font-size:16.000000px;font-style:normal;font-variant:normal;font-weight:400;font-stretch:Normal;line-height:125.000000%;letter-spacing:0px;word-spacing:0px;fill:#000000;fill-opacity:1;stroke:none;font-family:Helvetica;text-align:start;text-anchor:start;"
     transform="matrix(1.000000,-0.000000,0.000000,1.000000,35.722079,204.380052)"
     x="0.000000"
     y="0.000000"
     id="text51"><tspan
       sodipodi:role="line"
       x="0.000000"
       y="0.000000"
       id="tspan49"><tspan
         dx="0.000000"
         dy="0.000000"
         style="fill:#000000;font-size:16.000000px;font-style:normal;font-variant:normal;font-weight:400;font-stretch:Normal;font-family:Helvetica;"
         id="tspan47">32.02</tspan></tspan></text>
  <path
     style="fill:none;stroke:#000000;stroke-width:0.088860892px;stroke-linecap:round;stroke-linejoin:round;stroke-miterlimit:4;stroke-dasharray:none;stroke-opacity:1;"
     d="  M 85.395318,161.28252   L 90.904693,161.28252   M 594.03507,161.28252   L 588.43683,161.28252  "
     id="path53" />
  <text
     xml:space="preserve"
     style="font-size:16.000000px;font-style:normal;font-variant:normal;font-weight:400;font-stretch:Normal;line-height:125.000000%;letter-spacing:0px;word-spacing:0px;fill:#000000;fill-opacity:1;stroke:none;font-family:Helvetica;text-align:start;text-anchor:start;"
     transform="matrix(1.000000,-0.000000,0.000000,1.000000,35.722079,166.614173)"
     x="0.000000"
     y="0.000000"
     id="text59"><tspan
       sodipodi:role="line"
       x="0.000000"
       y="0.000000"
       id="tspan57"><tspan
         dx="0.000000"
         dy="0.000000"
         style="fill:#000000;font-size:16.000000px;font-style:normal;font-variant:normal;font-weight:400;font-stretch:Normal;font-family:Helvetica;"
         id="tspan55">32.04</tspan></tspan></text>
  <path
     style="fill:none;stroke:#000000;stroke-width:0.088860892px;stroke-linecap:round;stroke-linejoin:round;stroke-miterlimit:4;stroke-dasharray:none;stroke-opacity:1;"
     d="  M 85.395318,123.51664   L 90.904693,123.51664   M 594.03507,123.51664   L 588.43683,123.51664  "
     id="path61" />
  <text
     xml:space="preserve"
     style="font-size:16.000000px;font-style:normal;font-variant:normal;font-weight:400;font-stretch:Normal;line-height:125.000000%;letter-spacing:0px;word-spacing:0px;fill:#000000;fill-opacity:1;stroke:none;font-family:Helvetica;text-align:start;text-anchor:start;"
     transform="matrix(1.000000,-0.000000,0.000000,1.000000,35.722079,128.848294)"
     x="0.000000"
     y="0.000000"
     id="text67"><tspan
       sodipodi:role="line"
       x="0.000000"
       y="0.000000"
       id="tspan65"><tspan
         dx="0.000000"
         dy="0.000000"
         style="fill:#000000;font-size:16.000000px;font-style:normal;font-variant:normal;font-weight:400;font-stretch:Normal;font-family:Helvetica;"
         id="tspan63">32.06</tspan></tspan></text>
  <path
     style="fill:none;stroke:#000000;stroke-width:0.088860892px;stroke-linecap:round;stroke-linejoin:round;stroke-miterlimit:4;stroke-dasharray:none;stroke-opacity:1;"
     d="  M 85.395318,85.839622   L 90.904693,85.839622   M 594.03507,85.839622   L 588.43683,85.839622  "
     id="path69" />
  <text
     xml:space="preserve"
     style="font-size:16.000000px;font-style:normal;font-variant:normal;font-weight:400;font-stretch:Normal;line-height:125.000000%;letter-spacing:0px;word-spacing:0px;fill:#000000;fill-opacity:1;stroke:none;font-family:Helvetica;text-align:start;text-anchor:start;"
     transform="matrix(1.000000,-0.000000,0.000000,1.000000,35.722079,91.171276)"
     x="0.000000"
     y="0.000000"
     id="text75"><tspan
       sodipodi:role="line"
       x="0.000000"
       y="0.000000"
       id="tspan73"><tspan
         dx="0.000000"
         dy="0.000000"
         style="fill:#000000;font-size:16.000000px;font-style:normal;font-variant:normal;font-weight:400;font-stretch:Normal;font-family:Helvetica;"
         id="tspan71">32.08</tspan></tspan></text>
  <path
     style="fill:none;stroke:#000000;stroke-width:0.088860892px;stroke-linecap:round;stroke-linejoin:round;stroke-miterlimit:4;stroke-dasharray:none;stroke-opacity:1;"
     d="  M 85.395318,48.073743   L 90.904693,48.073743   M 594.03507,48.073743   L 588.43683,48.073743  "
     id="path77" />
  <text
     xml:space="preserve"
     style="font-size:16.000000px;font-style:normal;font-variant:normal;font-weight:400;font-stretch:Normal;line-height:125.000000%;letter-spacing:0px;word-spacing:0px;fill:#000000;fill-opacity:1;stroke:none;font-family:Helvetica;text-align:start;text-anchor:start;"
     transform="matrix(1.000000,-0.000000,0.000000,1.000000,35.722079,53.405396)"
     x="0.000000"
     y="0.000000"
     id="text83"><tspan
       sodipodi:role="line"
       x="0.000000"
       y="0.000000"
       id="tspan81"><tspan
         dx="0.000000"
         dy="0.000000"
         style="fill:#000000;font-size:16.000000px;font-style:normal;font-variant:normal;font-weight:400;font-stretch:Normal;font-family:Helvetica;"
         id="tspan79">32.10</tspan></tspan></text>
  <path
     style="fill:none;stroke:#000000;stroke-width:0.088860892px;stroke-linecap:round;stroke-linejoin:round;stroke-miterlimit:4;stroke-dasharray:none;stroke-opacity:1;"
     d="  M 85.395318,10.307864   L 90.904693,10.307864   M 594.03507,10.307864   L 588.43683,10.307864  "
     id="path85" />
  <text
     xml:space="preserve"
     style="font-size:16.000000px;font-style:normal;font-variant:normal;font-weight:400;font-stretch:Normal;line-height:125.000000%;letter-spacing:0px;word-spacing:0px;fill:#000000;fill-opacity:1;stroke:none;font-family:Helvetica;text-align:start;text-anchor:start;"
     transform="matrix(1.000000,-0.000000,0.000000,1.000000,35.722079,15.639517)"
     x="0.000000"
     y="0.000000"
     id="text91"><tspan
       sodipodi:role="line"
       x="0.000000"
       y="0.000000"
       id="tspan89"><tspan
         dx="0.000000"
         dy="0.000000"
         style="fill:#000000;font-size:16.000000px;font-style:normal;font-variant:normal;font-weight:400;font-stretch:Normal;font-family:Helvetica;"
         id="tspan87">32.12</tspan></tspan></text>
  <path
     style="fill:none;stroke:#000000;stroke-width:0.088860892px;stroke-linecap:round;stroke-linejoin:round;stroke-miterlimit:4;stroke-dasharray:none;stroke-opacity:1;"
     d="  M 85.395318,387.70007   L 85.395318,382.1907   M 85.395318,10.307864   L 85.395318,15.817239  "
     id="path93" />
  <text
     xml:space="preserve"
     style="font-size:16.000000px;font-style:normal;font-variant:normal;font-weight:400;font-stretch:Normal;line-height:125.000000%;letter-spacing:0px;word-spacing:0px;fill:#000000;fill-opacity:1;stroke:none;font-family:Helvetica;text-align:start;text-anchor:start;"
     transform="matrix(1.000000,-0.000000,0.000000,1.000000,78.641890,409.115549)"
     x="0.000000"
     y="0.000000"
     id="text99"><tspan
       sodipodi:role="line"
       x="0.000000"
       y="0.000000"
       id="tspan97"><tspan
         dx="0.000000"
         dy="0.000000"
         style="fill:#000000;font-size:16.000000px;font-style:normal;font-variant:normal;font-weight:400;font-stretch:Normal;font-family:Helvetica;"
         id="tspan95"> 0</tspan></tspan></text>
  <path
     style="fill:none;stroke:#000000;stroke-width:0.088860892px;stroke-linecap:round;stroke-linejoin:round;stroke-miterlimit:4;stroke-dasharray:none;stroke-opacity:1;"
     d="  M 136.13489,387.70007   L 136.13489,382.1907   M 136.13489,10.307864   L 136.13489,15.817239  "
     id="path101" />
  <text
     xml:space="preserve"
     style="font-size:16.000000px;font-style:normal;font-variant:normal;font-weight:400;font-stretch:Normal;line-height:125.000000%;letter-spacing:0px;word-spacing:0px;fill:#000000;fill-opacity:1;stroke:none;font-family:Helvetica;text-align:start;text-anchor:start;"
     transform="matrix(1.000000,-0.000000,0.000000,1.000000,120.584231,409.115549)"
     x="0.000000"
     y="0.000000"
     id="text107"><tspan
       sodipodi:role="line"
       x="0.000000"
       y="0.000000"
       id="tspan105"><tspan
         dx="0.000000"
         dy="0.000000"
         style="fill:#000000;font-size:16.000000px;font-style:normal;font-variant:normal;font-weight:400;font-stretch:Normal;font-family:Helvetica;"
         id="tspan103"> 100</tspan></tspan></text>
  <path
     style="fill:none;stroke:#000000;stroke-width:0.088860892px;stroke-linecap:round;stroke-linejoin:round;stroke-miterlimit:4;stroke-dasharray:none;stroke-opacity:1;"
     d="  M 187.14104,387.70007   L 187.14104,382.1907   M 187.14104,10.307864   L 187.14104,15.817239  "
     id="path109" />
  <text
     xml:space="preserve"
     style="font-size:16.000000px;font-style:normal;font-variant:normal;font-weight:400;font-stretch:Normal;line-height:125.000000%;letter-spacing:0px;word-spacing:0px;fill:#000000;fill-opacity:1;stroke:none;font-family:Helvetica;text-align:start;text-anchor:start;"
     transform="matrix(1.000000,-0.000000,0.000000,1.000000,171.501522,409.115549)"
     x="0.000000"
     y="0.000000"
     id="text115"><tspan
       sodipodi:role="line"
       x="0.000000"
       y="0.000000"
       id="tspan113"><tspan
         dx="0.000000"
         dy="0.000000"
         style="fill:#000000;font-size:16.000000px;font-style:normal;font-variant:normal;font-weight:400;font-stretch:Normal;font-family:Helvetica;"
         id="tspan111"> 200</tspan></tspan></text>
  <path
     style="fill:none;stroke:#000000;stroke-width:0.088860892px;stroke-linecap:round;stroke-linejoin:round;stroke-miterlimit:4;stroke-dasharray:none;stroke-opacity:1;"
     d="  M 237.88061,387.70007   L 237.88061,382.1907   M 237.88061,10.307864   L 237.88061,15.817239  "
     id="path117" />
  <text
     xml:space="preserve"
     style="font-size:16.000000px;font-style:normal;font-variant:normal;font-weight:400;font-stretch:Normal;line-height:125.000000%;letter-spacing:0px;word-spacing:0px;fill:#000000;fill-opacity:1;stroke:none;font-family:Helvetica;text-align:start;text-anchor:start;"
     transform="matrix(1.000000,-0.000000,0.000000,1.000000,222.329953,409.115549)"
     x="0.000000"
     y="0.000000"
     id="text123"><tspan
       sodipodi:role="line"
       x="0.000000"
       y="0.000000"
       id="tspan121"><tspan
         dx="0.000000"
         dy="0.000000"
         style="fill:#000000;font-size:16.000000px;font-style:normal;font-variant:normal;font-weight:400;font-stretch:Normal;font-family:Helvetica;"
         id="tspan119"> 300</tspan></tspan></text>
  <path
     style="fill:none;stroke:#000000;stroke-width:0.088860892px;stroke-linecap:round;stroke-linejoin:round;stroke-miterlimit:4;stroke-dasharray:none;stroke-opacity:1;"
     d="  M 288.88676,387.70007   L 288.88676,382.1907   M 288.88676,10.307864   L 288.88676,15.817239  "
     id="path125" />
  <text
     xml:space="preserve"
     style="font-size:16.000000px;font-style:normal;font-variant:normal;font-weight:400;font-stretch:Normal;line-height:125.000000%;letter-spacing:0px;word-spacing:0px;fill:#000000;fill-opacity:1;stroke:none;font-family:Helvetica;text-align:start;text-anchor:start;"
     transform="matrix(1.000000,-0.000000,0.000000,1.000000,273.247244,409.115549)"
     x="0.000000"
     y="0.000000"
     id="text131"><tspan
       sodipodi:role="line"
       x="0.000000"
       y="0.000000"
       id="tspan129"><tspan
         dx="0.000000"
         dy="0.000000"
         style="fill:#000000;font-size:16.000000px;font-style:normal;font-variant:normal;font-weight:400;font-stretch:Normal;font-family:Helvetica;"
         id="tspan127"> 400</tspan></tspan></text>
  <path
     style="fill:none;stroke:#000000;stroke-width:0.088860892px;stroke-linecap:round;stroke-linejoin:round;stroke-miterlimit:4;stroke-dasharray:none;stroke-opacity:1;"
     d="  M 339.62633,387.70007   L 339.62633,382.1907   M 339.62633,10.307864   L 339.62633,15.817239  "
     id="path133" />
  <text
     xml:space="preserve"
     style="font-size:16.000000px;font-style:normal;font-variant:normal;font-weight:400;font-stretch:Normal;line-height:125.000000%;letter-spacing:0px;word-spacing:0px;fill:#000000;fill-opacity:1;stroke:none;font-family:Helvetica;text-align:start;text-anchor:start;"
     transform="matrix(1.000000,-0.000000,0.000000,1.000000,324.075675,409.115549)"
     x="0.000000"
     y="0.000000"
     id="text139"><tspan
       sodipodi:role="line"
       x="0.000000"
       y="0.000000"
       id="tspan137"><tspan
         dx="0.000000"
         dy="0.000000"
         style="fill:#000000;font-size:16.000000px;font-style:normal;font-variant:normal;font-weight:400;font-stretch:Normal;font-family:Helvetica;"
         id="tspan135"> 500</tspan></tspan></text>
  <path
     style="fill:none;stroke:#000000;stroke-width:0.088860892px;stroke-linecap:round;stroke-linejoin:round;stroke-miterlimit:4;stroke-dasharray:none;stroke-opacity:1;"
     d="  M 390.54362,387.70007   L 390.54362,382.1907   M 390.54362,10.307864   L 390.54362,15.817239  "
     id="path141" />
  <text
     xml:space="preserve"
     style="font-size:16.000000px;font-style:normal;font-variant:normal;font-weight:400;font-stretch:Normal;line-height:125.000000%;letter-spacing:0px;word-spacing:0px;fill:#000000;fill-opacity:1;stroke:none;font-family:Helvetica;text-align:start;text-anchor:start;"
     transform="matrix(1.000000,-0.000000,0.000000,1.000000,374.904105,409.115549)"
     x="0.000000"
     y="0.000000"
     id="text147"><tspan
       sodipodi:role="line"
       x="0.000000"
       y="0.000000"
       id="tspan145"><tspan
         dx="0.000000"
         dy="0.000000"
         style="fill:#000000;font-size:16.000000px;font-style:normal;font-variant:normal;font-weight:400;font-stretch:Normal;font-family:Helvetica;"
         id="tspan143"> 600</tspan></tspan></text>
  <path
     style="fill:none;stroke:#000000;stroke-width:0.088860892px;stroke-linecap:round;stroke-linejoin:round;stroke-miterlimit:4;stroke-dasharray:none;stroke-opacity:1;"
     d="  M 441.37205,387.70007   L 441.37205,382.1907   M 441.37205,10.307864   L 441.37205,15.817239  "
     id="path149" />
  <text
     xml:space="preserve"
     style="font-size:16.000000px;font-style:normal;font-variant:normal;font-weight:400;font-stretch:Normal;line-height:125.000000%;letter-spacing:0px;word-spacing:0px;fill:#000000;fill-opacity:1;stroke:none;font-family:Helvetica;text-align:start;text-anchor:start;"
     transform="matrix(1.000000,-0.000000,0.000000,1.000000,425.821396,409.115549)"
     x="0.000000"
     y="0.000000"
     id="text155"><tspan
       sodipodi:role="line"
       x="0.000000"
       y="0.000000"
       id="tspan153"><tspan
         dx="0.000000"
         dy="0.000000"
         style="fill:#000000;font-size:16.000000px;font-style:normal;font-variant:normal;font-weight:400;font-stretch:Normal;font-family:Helvetica;"
         id="tspan151"> 700</tspan></tspan></text>
  <path
     style="fill:none;stroke:#000000;stroke-width:0.088860892px;stroke-linecap:round;stroke-linejoin:round;stroke-miterlimit:4;stroke-dasharray:none;stroke-opacity:1;"
     d="  M 492.28934,387.70007   L 492.28934,382.1907   M 492.28934,10.307864   L 492.28934,15.817239  "
     id="path157" />
  <text
     xml:space="preserve"
     style="font-size:16.000000px;font-style:normal;font-variant:normal;font-weight:400;font-stretch:Normal;line-height:125.000000%;letter-spacing:0px;word-spacing:0px;fill:#000000;fill-opacity:1;stroke:none;font-family:Helvetica;text-align:start;text-anchor:start;"
     transform="matrix(1.000000,-0.000000,0.000000,1.000000,476.649827,409.115549)"
     x="0.000000"
     y="0.000000"
     id="text163"><tspan
       sodipodi:role="line"
       x="0.000000"
       y="0.000000"
       id="tspan161"><tspan
         dx="0.000000"
         dy="0.000000"
         style="fill:#000000;font-size:16.000000px;font-style:normal;font-variant:normal;font-weight:400;font-stretch:Normal;font-family:Helvetica;"
         id="tspan159"> 800</tspan></tspan></text>
  <path
     style="fill:none;stroke:#000000;stroke-width:0.088860892px;stroke-linecap:round;stroke-linejoin:round;stroke-miterlimit:4;stroke-dasharray:none;stroke-opacity:1;"
     d="  M 543.11777,387.70007   L 543.11777,382.1907   M 543.11777,10.307864   L 543.11777,15.817239  "
     id="path165" />
  <text
     xml:space="preserve"
     style="font-size:16.000000px;font-style:normal;font-variant:normal;font-weight:400;font-stretch:Normal;line-height:125.000000%;letter-spacing:0px;word-spacing:0px;fill:#000000;fill-opacity:1;stroke:none;font-family:Helvetica;text-align:start;text-anchor:start;"
     transform="matrix(1.000000,-0.000000,0.000000,1.000000,527.567118,409.115549)"
     x="0.000000"
     y="0.000000"
     id="text171"><tspan
       sodipodi:role="line"
       x="0.000000"
       y="0.000000"
       id="tspan169"><tspan
         dx="0.000000"
         dy="0.000000"
         style="fill:#000000;font-size:16.000000px;font-style:normal;font-variant:normal;font-weight:400;font-stretch:Normal;font-family:Helvetica;"
         id="tspan167"> 900</tspan></tspan></text>
  <path
     style="fill:none;stroke:#000000;stroke-width:0.088860892px;stroke-linecap:round;stroke-linejoin:round;stroke-miterlimit:4;stroke-dasharray:none;stroke-opacity:1;"
     d="  M 594.03507,387.70007   L 594.03507,382.1907   M 594.03507,10.307864   L 594.03507,15.817239  "
     id="path173" />
  <text
     xml:space="preserve"
     style="font-size:16.000000px;font-style:normal;font-variant:normal;font-weight:400;font-stretch:Normal;line-height:125.000000%;letter-spacing:0px;word-spacing:0px;fill:#000000;fill-opacity:1;stroke:none;font-family:Helvetica;text-align:start;text-anchor:start;"
     transform="matrix(1.000000,-0.000000,0.000000,1.000000,573.952504,409.115549)"
     x="0.000000"
     y="0.000000"
     id="text179"><tspan
       sodipodi:role="line"
       x="0.000000"
       y="0.000000"
       id="tspan177"><tspan
         dx="0.000000"
         dy="0.000000"
         style="fill:#000000;font-size:16.000000px;font-style:normal;font-variant:normal;font-weight:400;font-stretch:Normal;font-family:Helvetica;"
         id="tspan175"> 1000</tspan></tspan></text>
  <path
     style="fill:none;stroke:#000000;stroke-width:0.088860892px;stroke-linecap:round;stroke-linejoin:round;stroke-miterlimit:4;stroke-dasharray:none;stroke-opacity:1;"
     d="  M 85.395318,10.307864   L 85.395318,387.70007   L 594.03507,387.70007   L 594.03507,10.307864   L 85.395318,10.307864  "
     id="path181" />
  <text
     xml:space="preserve"
     style="font-size:16.000000px;font-style:normal;font-variant:normal;font-weight:400;font-stretch:Normal;line-height:125.000000%;letter-spacing:0px;word-spacing:0px;fill:#000000;fill-opacity:1;stroke:none;font-family:Helvetica;text-align:start;text-anchor:start;"
     transform="matrix(0.000000,-1.000000,1.000000,0.000000,15.550656,275.468766)"
     x="0.000000"
     y="0.000000"
     id="text187"><tspan
       sodipodi:role="line"
       x="0.000000"
       y="0.000000"
       id="tspan185"><tspan
         dx="0.000000"
         dy="0.000000"
         style="fill:#000000;font-size:16.000000px;font-style:normal;font-variant:normal;font-weight:400;font-stretch:Normal;font-family:Helvetica;"
         id="tspan183">instantaneous charge</tspan></tspan></text>
  <text
     xml:space="preserve"
     style="font-size:16.000000px;font-style:normal;font-variant:normal;font-weight:400;font-stretch:Normal;line-height:125.000000%;letter-spacing:0px;word-spacing:0px;fill:#000000;fill-opacity:1;stroke:none;font-family:Helvetica;text-align:start;text-anchor:start;"
     transform="matrix(1.000000,-0.000000,0.000000,1.000000,305.948052,433.107990)"
     x="0.000000"
     y="0.000000"
     id="text193"><tspan
       sodipodi:role="line"
       x="0.000000"
       y="0.000000"
       id="tspan191"><tspan
         dx="0.000000"
         dy="0.000000"
         style="fill:#000000;font-size:16.000000px;font-style:normal;font-variant:normal;font-weight:400;font-stretch:Normal;font-family:Helvetica;"
         id="tspan189">MD steps</tspan></tspan></text>
  <path
     style="fill:none;stroke:#ff0000;stroke-width:0.088860892px;stroke-linecap:round;stroke-linejoin:round;stroke-miterlimit:4;stroke-dasharray:none;stroke-opacity:1;"
     d="  M 85.395318,218.33121   L 85.928483,211.04462   L 86.372787,218.42007   L 86.817092,235.92567   L 87.350257,252.80924   L 87.972283,259.47381   L 88.416588,251.65405   L 88.949753,233.25984   L 89.482919,212.99956   L 89.927223,200.11473   L 90.371528,200.6479   L 90.904693,214.42133   L 91.526719,235.21478   L 91.971024,253.69785   L 92.504189,261.0733   L 93.037354,253.43127   L 93.481659,232.46009   L 93.925963,204.55777   L 94.459129,178.34381   L 95.081155,161.5491   L 95.525459,158.79441   L 96.058625,170.25747   L 96.59179,190.69548   L 97.036094,212.02209   L 97.480399,225.52894   L 98.013564,225.88439   L 98.635591,213.44386   L 99.168756,195.76055   L 99.61306,183.67546   L 100.14623,186.34129   L 100.59053,205.89069   L 101.03483,236.01453   L 101.568,263.91685   L 102.19003,276.80168   L 102.72319,268.8042   L 103.1675,243.92315   L 103.70066,214.33247   L 104.14497,194.69422   L 104.67813,193.53902   L 105.12244,210.77804   L 105.74446,236.5477   L 106.27763,256.80798   L 106.72193,260.54014   L 107.2551,246.7667   L 107.6994,224.19603   L 108.23257,206.33499   L 108.67687,203.5803   L 109.2989,217.88691   L 109.83206,241.87935   L 110.27637,263.1171   L 110.80953,268.89306   L 111.25384,254.76418   L 111.787,227.03958   L 112.23131,199.4927   L 112.85333,185.98585   L 113.3865,193.09472   L 113.91966,216.82058   L 114.36397,244.54518   L 114.80827,261.96191   L 115.34144,261.0733   L 115.78574,242.85682   L 116.40777,216.55399   L 116.94093,194.60535   L 117.4741,185.80813   L 117.9184,193.27244   L 118.36271,212.19981   L 118.89587,233.25984   L 119.5179,245.25606   L 119.9622,241.25732   L 120.49537,221.35248   L 121.02854,192.56155   L 121.47284,165.45898   L 121.91714,149.55288   L 122.45031,150.35263   L 123.07234,167.32506   L 123.51664,195.31624   L 124.04981,225.70667   L 124.58297,248.54392   L 125.02728,256.5414   L 125.47158,247.65531   L 126.00475,226.15097   L 126.62677,202.42511   L 127.07108,188.65167   L 127.60424,192.38383   L 128.13741,212.46639   L 128.58171,239.21352   L 129.02602,258.67406   L 129.55918,260.89558   L 130.18121,245.43378   L 130.62551,221.79679   L 131.15868,203.66917   L 131.69184,201.71423   L 132.13615,217.4426   L 132.58045,242.32365   L 133.11362,261.96191   L 133.73564,264.45002   L 134.26881,246.7667   L 134.71311,217.97577   L 135.24628,192.82814   L 135.69058,183.49774   L 136.13489,194.33877   L 136.66805,219.4864   L 137.29008,246.58898   L 137.82324,262.6728   L 138.26755,260.09583  "
     id="path195" />
  <path
     style="fill:none;stroke:#ff0000;stroke-width:0.088860892px;stroke-linecap:round;stroke-linejoin:round;stroke-miterlimit:4;stroke-dasharray:none;stroke-opacity:1;"
     d="  M 138.26755,260.09583   L 138.80071,240.36871   L 139.24502,213.26614   L 139.68932,191.67294   L 140.22249,185.80813   L 140.84451,198.33751   L 141.37768,222.77426   L 141.82198,246.58898   L 142.35515,257.34114   L 142.79945,249.07708   L 143.33262,225.97325   L 143.77692,199.13726   L 144.39895,180.92078   L 144.93212,178.87698   L 145.37642,193.45016   L 145.90959,217.08716   L 146.35389,238.68036   L 146.88706,248.09961   L 147.33136,240.6353   L 147.95339,220.01957   L 148.48655,194.87194   L 149.01972,176.12229   L 149.46402,170.79064   L 149.90833,179.76559   L 150.44149,198.33751   L 150.8858,217.88691   L 151.50782,229.79427   L 152.04099,229.2611   L 152.57415,217.4426   L 153.01846,201.35878   L 153.46276,191.05092   L 153.99593,195.13852   L 154.44023,214.86564   L 155.06226,243.1234   L 155.59542,265.87179   L 156.12859,270.75914   L 156.57289,255.11962   L 157.0172,227.57275   L 157.55036,204.11347   L 158.17239,197.4489   L 158.61669,210.77804   L 159.14986,236.10339   L 159.68302,259.0295   L 160.12733,265.87179   L 160.57163,252.4538   L 161.1048,225.88439   L 161.72682,200.11473   L 162.17113,188.56281   L 162.70429,196.64915   L 163.23746,219.66413   L 163.68176,245.34492   L 164.12607,260.98444   L 164.65923,258.85178   L 165.28126,239.56897   L 165.72556,210.24487   L 166.25873,181.72052   L 166.7919,164.39265   L 167.2362,164.12607   L 167.6805,180.65419   L 168.21367,207.2236   L 168.8357,232.54896   L 169.28,245.96695   L 169.81317,242.59024   L 170.34633,226.41755   L 170.79064,208.37879   L 171.23494,199.22612   L 171.7681,204.82436   L 172.39013,222.6854   L 172.9233,244.01201   L 173.3676,257.78545   L 173.90077,255.74165   L 174.34507,236.90314   L 174.78938,207.66791   L 175.32254,180.12103   L 175.94457,166.34759   L 176.47773,173.81191   L 176.92204,200.55903   L 177.4552,236.19225   L 177.89951,266.31609   L 178.34381,278.40118   L 178.87698,268.8042   L 179.499,243.21226   L 180.03217,214.59906   L 180.47647,197.09346   L 181.00964,200.11473   L 181.45394,222.59654   L 181.98711,252.8981   L 182.43141,273.3361   L 183.05344,270.22597   L 183.5866,244.10087   L 184.03091,210.24487   L 184.56407,188.38509   L 185.00838,191.05092   L 185.54154,217.4426   L 185.98585,254.85304   L 186.60787,285.24346   L 187.14104,294.21841   L 187.6742,277.86801   L 188.11851,243.03454   L 188.56281,203.66917   L 189.09598,174.25621   L 189.54028,162.79315   L 190.16231,169.28   L 190.69548,185.89699   L 191.22864,202.24739  "
     id="path197" />
  <path
     style="fill:none;stroke:#ff0000;stroke-width:0.088860892px;stroke-linecap:round;stroke-linejoin:round;stroke-miterlimit:4;stroke-dasharray:none;stroke-opacity:1;"
     d="  M 191.22864,202.24739   L 191.67294,210.24487   L 192.11725,207.31246   L 192.65041,196.56029   L 193.09472,184.03091   L 193.71675,176.56659   L 194.24991,178.87698   L 194.78308,191.93953   L 195.22738,212.02209   L 195.67169,232.10465   L 196.20485,244.18973   L 196.82688,242.23479   L 197.27118,226.32869   L 197.80435,204.02461   L 198.33751,186.87446   L 198.78182,185.00838   L 199.22612,201.00334   L 199.75929,228.55022   L 200.38131,255.47507   L 200.82562,268.53762   L 201.35878,262.31735   L 201.89195,240.54644   L 202.33625,214.86564   L 202.78056,199.0484   L 203.31372,201.00334   L 203.93575,219.30868   L 204.38005,243.03454   L 204.91322,256.9857   L 205.44638,251.20974   L 205.89069,226.32869   L 206.33499,193.89447   L 206.86816,170.16861   L 207.49018,166.61417   L 207.93449,185.45268   L 208.46765,219.4864   L 209.00082,253.43127   L 209.44512,272.35864   L 209.88943,267.29356   L 210.42259,241.43504   L 211.04462,208.64538   L 211.57778,185.89699   L 212.02209,184.11977   L 212.55525,202.78056   L 212.99956,231.12718   L 213.44386,252.98696   L 213.97703,256.63026   L 214.59906,240.54644   L 215.13222,212.99956   L 215.57652,187.58534   L 216.10969,175.67798   L 216.55399,182.34255   L 217.08716,203.93575   L 217.53146,229.79427   L 218.15349,246.14467   L 218.68666,242.59024   L 219.13096,216.90944   L 219.66413,177.0109   L 220.10843,137.55666   L 220.6416,113.47536   L 221.0859,114.00852   L 221.70793,140.13363   L 222.24109,183.5866   L 222.6854,229.88313   L 223.21856,262.40622   L 223.66287,269.07078   L 224.19603,248.54392   L 224.64034,211.75551   L 225.26236,179.14356   L 225.79553,168.92456   L 226.32869,188.56281   L 226.773,229.70541   L 227.2173,270.22597   L 227.75047,287.10954   L 228.19477,270.22597   L 228.8168,228.55022   L 229.34996,185.36382   L 229.88313,163.68176   L 230.32743,175.05596   L 230.77174,213.79931   L 231.3049,259.56267   L 231.92693,287.46499   L 232.37123,282.13333   L 232.9044,246.14467   L 233.43756,198.69296   L 233.88187,164.12607   L 234.32617,158.79441   L 234.85934,183.76433   L 235.48136,224.81806   L 235.92567,260.09583   L 236.45883,270.848   L 236.992,251.2986   L 237.4363,211.3112   L 237.88061,170.79064   L 238.41377,150.35263   L 239.0358,161.1048   L 239.4801,200.20359   L 240.01327,250.58772   L 240.54644,287.55385   L 240.99074,291.64145   L 241.43504,259.56267   L 241.96821,205.09094   L 242.59024,153.28504   L 243.03454,126.00475   L 243.56771,133.91336   L 244.10087,172.47899  "
     id="path199" />
  <path
     style="fill:none;stroke:#ff0000;stroke-width:0.088860892px;stroke-linecap:round;stroke-linejoin:round;stroke-miterlimit:4;stroke-dasharray:none;stroke-opacity:1;"
     d="  M 244.10087,172.47899   L 244.54518,223.57401   L 244.98948,264.00571   L 245.52265,274.75788   L 246.14467,250.67658   L 246.67784,201.89195   L 247.12214,149.46402   L 247.65531,115.78574   L 248.09961,114.80827   L 248.54392,147.6868   L 249.07708,201.00334   L 249.69911,252.4538   L 250.23227,278.75662   L 250.67658,268.53762   L 251.20974,228.19477   L 251.65405,180.92078   L 252.09835,153.8182   L 252.63152,163.68176   L 253.25354,208.37879   L 253.78671,264.98318   L 254.23101,302.2159   L 254.76418,297.86171   L 255.20848,254.23101   L 255.74165,196.82688   L 256.18595,157.90581   L 256.80798,158.61669   L 257.34114,197.27118   L 257.78545,251.74291   L 258.31861,291.64145   L 258.76292,294.12955   L 259.29608,256.5414   L 259.74039,196.64915   L 260.36241,141.91085   L 260.89558,116.23005   L 261.42875,129.11488   L 261.87305,173.90077   L 262.31735,230.32743   L 262.85052,272.98066   L 263.29482,282.31106   L 263.91685,253.52013   L 264.45002,198.15979   L 264.98318,139.5116   L 265.42749,102.81205   L 265.87179,105.38902   L 266.40496,148.84199   L 266.84926,217.4426   L 267.47129,282.31106   L 268.00445,313.50123   L 268.53762,296.17335   L 268.98192,239.56897   L 269.42623,172.03469   L 269.95939,126.18247   L 270.58142,123.1612   L 271.02572,163.77062   L 271.55889,229.2611   L 272.09205,287.64271   L 272.53636,309.05818   L 272.98066,281.68903   L 273.51383,217.08716   L 274.13585,146.70933   L 274.58016,103.78952   L 275.11332,109.03231   L 275.64649,161.46024   L 276.09079,237.52517   L 276.5351,300.97184   L 277.06826,319.27719   L 277.69029,283.19966   L 278.13459,212.37753   L 278.66776,145.82072   L 279.20092,120.22879   L 279.64523,151.24124   L 280.08953,224.99578   L 280.6227,302.57134   L 281.24472,339.0043   L 281.68903,312.52376   L 282.22219,238.23605   L 282.75536,157.55036   L 283.19966,112.58675   L 283.64397,122.89461   L 284.17713,181.00964   L 284.79916,255.47507   L 285.33233,307.10324   L 285.77663,308.52502   L 286.3098,258.67406   L 286.7541,180.65419   L 287.1984,110.36523   L 287.73157,77.042394   L 288.3536,93.037354   L 288.88676,149.37516   L 289.33107,220.10843   L 289.86423,274.22471   L 290.30854,287.28727   L 290.75284,253.07582   L 291.28601,184.47521   L 291.90803,108.49915   L 292.4412,56.160084   L 292.8855,50.295265   L 293.41867,97.924703   L 293.86297,185.54154   L 294.39614,281.067   L 294.84044,344.15824   L 295.46247,345.40229   L 295.99563,283.46625   L 296.43994,188.11851   L 296.9731,107.07738  "
     id="path201" />
  <path
     style="fill:none;stroke:#ff0000;stroke-width:0.088860892px;stroke-linecap:round;stroke-linejoin:round;stroke-miterlimit:4;stroke-dasharray:none;stroke-opacity:1;"
     d="  M 296.9731,107.07738   L 297.41741,78.908472   L 297.95057,117.4741   L 298.39488,205.53524   L 299.0169,300.17209   L 299.55007,351.97799   L 300.08323,332.96176   L 300.52754,253.25354   L 300.97184,154.79567   L 301.50501,88.238866   L 301.94931,86.372787   L 302.57134,151.06352   L 303.1045,251.65405   L 303.63767,335.62759   L 304.08197,356.15446   L 304.52628,301.50501   L 305.05944,202.33625   L 305.50375,113.3865   L 306.12577,79.70822   L 306.65894,117.0298   L 307.1921,207.13474   L 307.63641,304.34856   L 308.08071,356.5099   L 308.61388,335.44987   L 309.23591,253.78671   L 309.68021,157.4615   L 310.21338,97.924703   L 310.74654,103.6118   L 311.19085,169.99089   L 311.63515,262.76166   L 312.16831,332.96176   L 312.79034,343.98051   L 313.23465,289.33107   L 313.76781,193.45016   L 314.30098,97.56926   L 314.74528,39.187654   L 315.18959,38.476766   L 315.72275,94.281407   L 316.34478,183.32002   L 316.78908,269.2485   L 317.32225,315.54503   L 317.85541,302.57134   L 318.29972,236.10339   L 318.74402,144.13237   L 319.27719,64.601869   L 319.89921,29.768399   L 320.34352,54.827171   L 320.87668,133.02476   L 321.40985,235.65909   L 321.85415,320.6101   L 322.29846,349.93419   L 322.83162,310.12451   L 323.45365,221.35248   L 323.98681,130.00349   L 324.43112,83.795822   L 324.96428,106.89965   L 325.40859,190.60661   L 325.85289,292.97436   L 326.38606,357.75395   L 327.00808,347.71267   L 327.54125,269.2485   L 327.98555,166.34759   L 328.51872,94.192546   L 328.96302,86.817092   L 329.49619,145.99845   L 329.94049,242.32365   L 330.56252,325.49745   L 331.09569,351.26711   L 331.53999,306.7478   L 332.07315,217.53146   L 332.51746,133.02476   L 333.05062,95.703181   L 333.49493,121.73942   L 334.11696,195.58282   L 334.65012,278.75662   L 335.09443,328.07441   L 335.62759,318.29972   L 336.0719,255.03076   L 336.60506,170.61291   L 337.04936,106.18877   L 337.67139,91.971024   L 338.20456,134.35767   L 338.73772,214.68792   L 339.18203,294.12955   L 339.62633,333.05062   L 340.1595,312.79034   L 340.6038,243.65657   L 341.22583,158.17239   L 341.75899,91.971024   L 342.29216,68.68947   L 342.73646,93.037354   L 343.18077,152.12985   L 343.71393,220.6416   L 344.33596,270.75914   L 344.78026,281.51131   L 345.31343,249.07708   L 345.84659,187.6742   L 346.2909,125.02728   L 346.7352,89.927223   L 347.26837,100.50167   L 347.89039,154.88454   L 348.3347,230.8606   L 348.86786,293.86297   L 349.40103,314.30098   L 349.84533,283.46625  "
     id="path203" />
  <path
     style="fill:none;stroke:#ff0000;stroke-width:0.088860892px;stroke-linecap:round;stroke-linejoin:round;stroke-miterlimit:4;stroke-dasharray:none;stroke-opacity:1;"
     d="  M 349.84533,283.46625   L 350.28964,219.13096   L 350.8228,157.0172   L 351.44483,130.44779   L 351.88913,153.99593   L 352.4223,216.9983   L 352.95546,285.95435   L 353.39977,321.40985   L 353.84407,302.6602   L 354.37724,241.43504   L 354.99927,174.34507   L 355.44357,138.26755   L 355.97673,149.90833   L 356.5099,200.6479   L 356.9542,262.13963   L 357.39851,300.79412   L 357.93167,296.43994   L 358.5537,251.20974   L 359.08687,187.31876   L 359.53117,134.71311   L 360.06434,116.05233   L 360.50864,138.00097   L 360.95294,189.54028   L 361.48611,246.67784   L 362.10814,283.46625   L 362.6413,284.44372   L 363.08561,251.20974   L 363.61877,200.91448   L 364.06308,157.55036   L 364.50738,141.5554   L 365.04055,160.57163   L 365.66257,206.7793   L 366.19574,258.85178   L 366.64004,291.64145   L 367.17321,288.08701   L 367.61751,250.14341   L 368.15068,196.56029   L 368.59498,153.01846   L 369.21701,137.37894   L 369.75017,153.3739   L 370.19448,190.34003   L 370.72764,229.08338   L 371.17195,251.12088   L 371.70511,245.87809   L 372.14942,216.19855   L 372.77144,176.83318   L 373.30461,147.6868   L 373.83777,145.82072   L 374.28208,176.12229   L 374.72638,227.57275   L 375.25955,275.73535   L 375.70385,295.64019   L 376.32588,276.62396   L 376.85904,230.32743   L 377.39221,182.60913   L 377.83651,159.23872   L 378.28082,172.21241   L 378.81398,214.86564   L 379.25829,264.53888   L 379.88031,293.41867   L 380.41348,285.68777   L 380.94665,246.23353   L 381.39095,198.69296   L 381.83525,169.90203   L 382.36842,174.43393   L 382.99045,207.13474   L 383.43475,247.03328   L 383.96792,270.67028   L 384.50108,263.73913   L 384.94539,228.99452   L 385.38969,181.00964   L 385.92286,139.68932   L 386.54488,121.1174   L 386.98919,132.84703   L 387.52235,170.61291   L 388.05552,219.66413   L 388.49982,260.54014   L 388.94413,276.00193   L 389.47729,260.54014   L 390.09932,223.04084   L 390.54362,181.0985   L 391.07679,153.55162   L 391.60995,152.12985   L 392.05426,177.89951   L 392.49856,219.93071   L 393.03173,260.09583   L 393.65375,280.08953   L 394.09806,270.13711   L 394.63122,235.03706   L 395.16439,193.00586   L 395.60869,166.16987   L 396.053,168.92456   L 396.58616,200.47017   L 397.20819,244.63404   L 397.74135,279.20092   L 398.18566,286.57638   L 398.71882,263.29482   L 399.16313,220.90818   L 399.60743,179.499   L 400.1406,158.17239   L 400.76262,166.43645   L 401.29579,200.55903   L 401.74009,243.92315   L 402.27326,274.58016   L 402.71756,277.51257  "
     id="path205" />
  <path
     style="fill:none;stroke:#ff0000;stroke-width:0.088860892px;stroke-linecap:round;stroke-linejoin:round;stroke-miterlimit:4;stroke-dasharray:none;stroke-opacity:1;"
     d="  M 402.71756,277.51257   L 403.25073,254.58646   L 403.69503,222.24109   L 404.31706,200.6479   L 404.85023,202.24739   L 405.29453,224.99578   L 405.8277,255.65279   L 406.272,276.5351   L 406.80517,275.02446   L 407.24947,249.96569   L 407.8715,212.64412   L 408.40466,180.92078   L 408.84897,169.54658   L 409.38213,184.03091   L 409.82644,216.19855   L 410.3596,249.87683   L 410.80391,268.53762   L 411.42593,263.91685   L 411.9591,238.23605   L 412.49226,201.5365   L 412.93657,167.2362   L 413.38087,146.17617   L 413.91404,144.13237   L 414.35834,161.01594   L 414.98037,189.09598   L 415.51353,216.9983   L 416.0467,233.08212   L 416.491,231.21604   L 416.93531,214.42133   L 417.46847,194.87194   L 417.91278,186.43015   L 418.5348,197.4489   L 419.06797,226.68414   L 419.60113,264.00571   L 420.04544,293.95183   L 420.48974,303.01564   L 421.02291,285.77663   L 421.64493,248.36619   L 422.08924,206.60157   L 422.6224,178.78812   L 423.15557,177.0109   L 423.59987,200.55903   L 424.04418,236.5477   L 424.57734,265.78293   L 425.19937,273.86927   L 425.64367,259.65153   L 426.17684,233.88187   L 426.71001,211.66665   L 427.15431,204.55777   L 427.59861,215.57652   L 428.13178,238.41377   L 428.75381,260.80672   L 429.19811,268.98192   L 429.73128,256.00823   L 430.26444,226.32869   L 430.70875,194.33877   L 431.15305,176.47773   L 431.68622,182.34255   L 432.30824,209.97829   L 432.75255,247.74417   L 433.28571,279.91181   L 433.81888,293.41867   L 434.26318,284.08827   L 434.70749,257.43001   L 435.24065,225.70667   L 435.86268,202.24739   L 436.39584,195.13852   L 436.84015,203.66917   L 437.37331,219.57527   L 437.81762,231.03832   L 438.26192,229.88313   L 438.79509,215.57652   L 439.41711,194.78308   L 439.95028,177.36634   L 440.39458,171.59038   L 440.92775,181.00964   L 441.37205,203.5803   L 441.90522,232.37123   L 442.34952,257.69659   L 442.97155,269.95939   L 443.50471,263.47255   L 443.94902,238.68036   L 444.48218,204.55777   L 444.92649,174.78938   L 445.45965,162.79315   L 445.90396,173.90077   L 446.52598,204.02461   L 447.05915,239.21352   L 447.50345,264.00571   L 448.03662,267.47129   L 448.48092,250.23227   L 449.01409,223.21856   L 449.45839,202.33625   L 450.08042,199.93701   L 450.61359,217.79805   L 451.14675,245.52265   L 451.59106,267.02698   L 452.03536,268.18217   L 452.56852,247.56645   L 453.01283,215.66539   L 453.63486,189.00712   L 454.16802,180.12103   L 454.70119,191.67294   L 455.14549,216.9983   L 455.5898,243.56771  "
     id="path207" />
  <path
     style="fill:none;stroke:#ff0000;stroke-width:0.088860892px;stroke-linecap:round;stroke-linejoin:round;stroke-miterlimit:4;stroke-dasharray:none;stroke-opacity:1;"
     d="  M 455.5898,243.56771   L 456.12296,259.47381   L 456.74499,258.31861   L 457.18929,242.76796   L 457.72246,221.35248   L 458.25562,205.00208   L 458.69993,200.6479   L 459.14423,208.55651   L 459.6774,222.24109   L 460.29942,232.19351   L 460.74373,231.92693   L 461.27689,219.93071   L 461.81006,201.44764   L 462.25436,185.54154   L 462.69867,180.65419   L 463.23183,190.42889   L 463.85386,212.11095   L 464.29816,236.5477   L 464.83133,252.63152   L 465.36449,252.09835   L 465.8088,233.88187   L 466.2531,204.91322   L 466.78627,176.47773   L 467.40829,159.14986   L 467.8526,159.14986   L 468.38576,175.67798   L 468.91893,201.44764   L 469.36323,226.32869   L 469.80754,241.25732   L 470.3407,242.14593   L 470.96273,232.19351   L 471.4959,219.75299   L 471.9402,213.88817   L 472.47336,219.4864   L 472.91767,235.30364   L 473.36197,254.23101   L 473.89514,266.31609   L 474.51717,264.62774   L 475.05033,248.89936   L 475.49464,226.32869   L 476.0278,208.02335   L 476.4721,202.42511   L 476.91641,211.93323   L 477.44957,230.41629   L 478.0716,247.65531   L 478.60477,253.78671   L 479.04907,246.14467   L 479.58224,229.70541   L 480.02654,213.79931   L 480.55971,206.60157   L 481.00401,210.77804   L 481.62604,222.15223   L 482.1592,232.81554   L 482.60351,235.03706   L 483.13667,225.52894   L 483.58098,206.86816   L 484.11414,186.34129   L 484.55845,172.47899   L 485.18047,171.59038   L 485.71364,185.36382   L 486.2468,209.80057   L 486.69111,237.25858   L 487.13541,259.29608   L 487.66858,269.87053   L 488.11288,267.2047   L 488.73491,254.23101   L 489.26807,236.992   L 489.80124,222.32995   L 490.24554,215.22108   L 490.68985,216.55399   L 491.22301,223.21856   L 491.66732,229.88313   L 492.28934,231.66035   L 492.82251,226.773   L 493.35567,217.79805   L 493.79998,209.88943   L 494.24428,208.11221   L 494.77745,214.42133   L 495.39948,226.773   L 495.84378,239.30238   L 496.37694,246.23353   L 496.91011,243.47885   L 497.35441,232.10465   L 497.79872,217.88691   L 498.33188,208.11221   L 498.95391,208.11221   L 499.39822,218.24235   L 499.93138,233.3487   L 500.46455,245.87809   L 500.90885,250.32113   L 501.35315,245.34492   L 501.88632,235.21478   L 502.50835,226.41755   L 502.95265,224.90692   L 503.48582,232.10465   L 504.01898,244.90062   L 504.46329,256.63026   L 504.90759,260.98444   L 505.44076,253.96443   L 506.06278,237.52517   L 506.50709,217.4426   L 507.04025,200.55903   L 507.57342,192.11725   L 508.01772,193.3613   L 508.46203,201.5365  "
     id="path209" />
  <path
     style="fill:none;stroke:#ff0000;stroke-width:0.088860892px;stroke-linecap:round;stroke-linejoin:round;stroke-miterlimit:4;stroke-dasharray:none;stroke-opacity:1;"
     d="  M 508.46203,201.5365   L 508.99519,212.11095   L 509.61722,220.10843   L 510.15038,222.77426   L 510.59469,219.93071   L 511.12785,213.97703   L 511.57216,208.20107   L 512.01646,204.64664   L 512.54963,204.11347   L 513.17165,205.44638   L 513.70482,207.13474   L 514.14912,207.66791   L 514.68229,207.13474   L 515.12659,206.24613   L 515.65976,206.7793   L 516.10406,210.33373   L 516.72609,217.4426   L 517.25925,227.2173   L 517.70356,237.4363   L 518.23672,245.07834   L 518.68103,248.18847   L 519.21419,246.32239   L 519.6585,240.81302   L 520.28052,234.32617   L 520.81369,229.52769   L 521.25799,228.10591   L 521.79116,229.43882   L 522.23546,231.92693   L 522.76863,232.99326   L 523.21293,231.03832   L 523.83496,226.23983   L 524.36813,220.90818   L 524.90129,217.97577   L 525.3456,219.93071   L 525.7899,226.773   L 526.32307,236.36997   L 526.76737,244.36745   L 527.3894,247.29986   L 527.92256,243.74543   L 528.45573,234.85934   L 528.90003,224.01831   L 529.34434,215.22108   L 529.8775,211.48892   L 530.49953,213.355   L 530.94383,219.0421   L 531.477,225.88439   L 532.01016,231.3049   L 532.45447,234.68162   L 532.89877,236.36997   L 533.43194,237.88061   L 534.05396,240.36871   L 534.49827,242.76796   L 535.03143,243.56771   L 535.5646,240.10213   L 536.0089,231.3049   L 536.45321,217.70919   L 536.98637,201.44764   L 537.6084,186.7856   L 538.0527,177.89951   L 538.58587,177.0109   L 539.11903,184.38635   L 539.56334,196.56029   L 540.00764,208.91196   L 540.54081,217.26488   L 541.16283,219.93071   L 541.60714,218.42007   L 542.1403,216.55399   L 542.67347,217.70919   L 543.11777,224.01831   L 543.56208,233.88187   L 544.09524,243.56771   L 544.71727,247.56645   L 545.16157,243.1234   L 545.69474,231.21604   L 546.22791,217.4426   L 546.67221,209.00082   L 547.11651,210.42259   L 547.64968,221.79679   L 548.27171,237.88061   L 548.80487,251.65405   L 549.24918,257.25228   L 549.78234,252.8981   L 550.22665,241.79049   L 550.67095,229.70541   L 551.20412,221.88565   L 551.82614,220.55273   L 552.35931,224.37375   L 552.80361,228.55022   L 553.33678,229.2611   L 553.78108,224.37375   L 554.31425,215.75425   L 554.75855,207.93449   L 555.38058,204.91322   L 555.91374,208.8231   L 556.35805,218.68666   L 556.89121,230.68288   L 557.33552,239.65783   L 557.86868,241.87935   L 558.31299,235.30364   L 558.93501,222.41881   L 559.46818,207.66791   L 559.91248,196.38257   L 560.44565,192.56155   L 560.88995,196.64915   L 561.42312,206.42385  "
     id="path211" />
  <path
     style="fill:none;stroke:#ff0000;stroke-width:0.088860892px;stroke-linecap:round;stroke-linejoin:round;stroke-miterlimit:4;stroke-dasharray:none;stroke-opacity:1;"
     d="  M 561.42312,206.42385   L 561.86742,217.08716   L 562.48945,224.37375   L 563.02261,225.52894   L 563.55578,221.26362   L 564.00008,214.24361   L 564.44439,208.46765   L 564.97755,207.31246   L 565.42186,212.37753   L 566.04388,221.97451   L 566.57705,232.99326   L 567.11022,240.81302   L 567.55452,242.32365   L 567.99882,236.90314   L 568.53199,227.2173   L 569.15402,217.88691   L 569.59832,213.79931   L 570.13149,216.9983   L 570.66465,226.15097   L 571.10896,237.25858   L 571.55326,245.07834   L 572.08643,246.41125   L 572.70845,241.25732   L 573.15276,232.81554   L 573.68592,225.88439   L 574.21909,223.66287   L 574.66339,226.41755   L 575.1077,230.8606   L 575.64086,232.54896   L 576.26289,228.8168   L 576.70719,220.19729   L 577.24036,210.77804   L 577.77352,205.00208   L 578.21783,206.24613   L 578.66213,214.33247   L 579.1953,225.79553   L 579.81732,235.65909   L 580.26163,239.30238   L 580.79479,235.21478   L 581.32796,225.26236   L 581.77226,214.24361   L 582.21657,207.49018   L 582.74973,208.37879   L 583.37176,216.9983   L 583.90492,229.88313   L 584.34923,241.96821   L 584.88239,248.09961   L 585.3267,245.43378   L 585.771,235.21478   L 586.30417,221.44134   L 586.92619,209.88943   L 587.45936,205.26866   L 587.90366,208.91196   L 588.43683,218.42007   L 588.88113,228.8168   L 589.32544,234.14845   L 589.8586,231.21604   L 590.48063,220.99704   L 591.0138,207.31246   L 591.4581,196.38257   L 591.99127,193.09472   L 592.43557,199.4927   L 592.96873,212.99956   L 593.41304,228.46135  "
     id="path213" />
  <path
     style="fill:none;stroke:#000000;stroke-width:0.088860892px;stroke-linecap:round;stroke-linejoin:round;stroke-miterlimit:4;stroke-dasharray:none;stroke-opacity:1;"
     d="  M 85.395318,10.307864   L 85.395318,387.70007   L 594.03507,387.70007   L 594.03507,10.307864   L 85.395318,10.307864  "
     id="path215" />
</svg>
