<?xml version="1.0" encoding="UTF-8" standalone="no"?>
<svg
   xmlns:dc="http://purl.org/dc/elements/1.1/"
   xmlns:cc="http://creativecommons.org/ns#"
   xmlns:rdf="http://www.w3.org/1999/02/22-rdf-syntax-ns#"
   xmlns:svg="http://www.w3.org/2000/svg"
   xmlns="http://www.w3.org/2000/svg"
   xmlns:sodipodi="http://sodipodi.sourceforge.net/DTD/sodipodi-0.dtd"
   xmlns:inkscape="http://www.inkscape.org/namespaces/inkscape"
   version="1.0"
   width="58.225972mm"
   height="40.763472mm"
   id="svg249"
   sodipodi:docname="image189.svg"
   inkscape:version="1.0.2-2 (e86c870879, 2021-01-15)">
  <metadata
     id="metadata253">
    <rdf:RDF>
      <cc:Work
         rdf:about="">
        <dc:format>image/svg+xml</dc:format>
        <dc:type
           rdf:resource="http://purl.org/dc/dcmitype/StillImage" />
        <dc:title></dc:title>
      </cc:Work>
    </rdf:RDF>
  </metadata>
  <sodipodi:namedview
     pagecolor="#ffffff"
     bordercolor="#666666"
     borderopacity="1"
     objecttolerance="10"
     gridtolerance="10"
     guidetolerance="10"
     inkscape:pageopacity="0"
     inkscape:pageshadow="2"
     inkscape:window-width="1858"
     inkscape:window-height="1057"
     id="namedview251"
     showgrid="false"
     inkscape:zoom="5.7767199"
     inkscape:cx="110.03333"
     inkscape:cy="77.033336"
     inkscape:window-x="-8"
     inkscape:window-y="-8"
     inkscape:window-maximized="1"
     inkscape:current-layer="svg249" />
  <defs
     id="defs3">
    <pattern
       id="WMFhbasepattern"
       patternUnits="userSpaceOnUse"
       width="6"
       height="6"
       x="0"
       y="0" />
  </defs>
  <path
     style="fill:none;stroke:#000000;stroke-width:0.06666667px;stroke-linecap:round;stroke-linejoin:round;stroke-miterlimit:4;stroke-dasharray:none;stroke-opacity:1;"
     d="  M 0,0   L 219.93333,0   L 219.93333,154   L 0,154   z "
     id="path5" />
  <path
     style="fill:none;stroke:#000000;stroke-width:0.33333334px;stroke-linecap:round;stroke-linejoin:round;stroke-miterlimit:4;stroke-dasharray:none;stroke-opacity:1;"
     d="  M 28.066667,137.53333   L 30,137.53333  "
     id="path7" />
  <path
     style="fill:none;stroke:#000000;stroke-width:0.33333334px;stroke-linecap:round;stroke-linejoin:round;stroke-miterlimit:4;stroke-dasharray:none;stroke-opacity:1;"
     d="  M 210.66667,137.53333   L 208.73333,137.53333  "
     id="path9" />
  <path
     style="fill:#000000;fill-rule:nonzero;fill-opacity:1;stroke:#000000;stroke-width:0.06666667px;stroke-linecap:round;stroke-linejoin:round;stroke-miterlimit:4;stroke-dasharray:none;stroke-opacity:1;"
     d="  M 15.466667,138.13333   L 15.466667,137.66667   L 16.933333,137.66667   L 16.933333,138.13333   L 15.466667,138.13333  z   "
     id="path11" />
  <path
     style="fill:#000000;fill-rule:nonzero;fill-opacity:1;stroke:#000000;stroke-width:0.06666667px;stroke-linecap:round;stroke-linejoin:round;stroke-miterlimit:4;stroke-dasharray:none;stroke-opacity:1;"
     d="  M 19.866667,138.8   L 19.866667,139.33333   L 17.333333,139.33333   L 17.333333,139.13333   L 17.333333,139   L 17.466667,138.73333   L 17.666667,138.46667   L 17.8,138.26667   L 18,138.06667   L 18.266667,137.86667   L 18.533333,137.6   L 18.8,137.4   L 19,137.2   L 19.066667,137   L 19.266667,136.73333   L 19.333333,136.46667   L 19.266667,136.33333   L 19.2,136.13333   L 19.133333,136   L 19,135.93333   L 18.8,135.86667   L 18.6,135.86667   L 18.4,135.86667   L 18.2,135.93333   L 18.066667,136   L 17.933333,136.13333   L 17.866667,136.33333   L 17.866667,136.53333   L 17.333333,136.46667   L 17.4,136.13333   L 17.533333,135.86667   L 17.733333,135.66667   L 18,135.53333   L 18.266667,135.4   L 18.6,135.4   L 18.933333,135.4   L 19.266667,135.53333   L 19.466667,135.66667   L 19.666667,135.93333   L 19.8,136.2   L 19.8,136.46667   L 19.8,136.73333   L 19.733333,136.93333   L 19.6,137.13333   L 19.466667,137.4   L 19.266667,137.6   L 19.066667,137.8   L 18.733333,138.06667   L 18.466667,138.26667   L 18.266667,138.46667   L 18.2,138.53333   L 18,138.8   L 19.866667,138.8  z   "
     id="path13" />
  <path
     style="fill:#000000;fill-rule:nonzero;fill-opacity:1;stroke:#000000;stroke-width:0.06666667px;stroke-linecap:round;stroke-linejoin:round;stroke-miterlimit:4;stroke-dasharray:none;stroke-opacity:1;"
     d="  M 20.666667,139.33333   L 20.666667,138.8   L 21.2,138.8   L 21.2,139.33333   L 20.666667,139.33333  z   "
     id="path15" />
  <path
     style="fill:#000000;fill-rule:nonzero;fill-opacity:1;stroke:#000000;stroke-width:0.06666667px;stroke-linecap:round;stroke-linejoin:round;stroke-miterlimit:4;stroke-dasharray:none;stroke-opacity:1;"
     d="  M 21.933333,137.4   L 22,136.73333   L 22.066667,136.26667   L 22.2,136   L 22.333333,135.73333   L 22.533333,135.6   L 22.733333,135.46667   L 22.933333,135.4   L 23.2,135.4   L 23.533333,135.4   L 23.8,135.53333   L 24,135.66667   L 24.2,135.86667   L 24.333333,136.13333   L 24.4,136.46667   L 24.466667,136.73333   L 24.533333,137   L 24.533333,137.4   L 24.466667,138   L 24.4,138.53333   L 24.266667,138.8   L 24.133333,139   L 23.933333,139.2   L 23.733333,139.26667   L 23.533333,139.33333   L 23.2,139.4   L 22.933333,139.4   L 22.733333,139.26667   L 22.533333,139.2   L 22.333333,139   L 22.066667,138.33333   L 21.933333,137.4  z    M 22.466667,137.4   L 22.533333,138.2   L 22.666667,138.66667   L 22.866667,138.8   L 23,138.86667   L 23.2,138.93333   L 23.466667,138.86667   L 23.6,138.8   L 23.8,138.66667   L 23.933333,138.2   L 24,137.4   L 23.933333,136.6   L 23.8,136.13333   L 23.6,136   L 23.466667,135.86667   L 23.2,135.86667   L 23,135.86667   L 22.866667,135.93333   L 22.666667,136.13333   L 22.533333,136.6   L 22.466667,137.4  z   "
     id="path17" />
  <path
     style="fill:none;stroke:#000000;stroke-width:0.33333334px;stroke-linecap:round;stroke-linejoin:round;stroke-miterlimit:4;stroke-dasharray:none;stroke-opacity:1;"
     d="  M 24.733333,139.33333   L 24.733333,139.33333  "
     id="path19" />
  <path
     style="fill:none;stroke:#000000;stroke-width:0.33333334px;stroke-linecap:round;stroke-linejoin:round;stroke-miterlimit:4;stroke-dasharray:none;stroke-opacity:1;"
     d="  M 28.066667,118.8   L 30,118.8  "
     id="path21" />
  <path
     style="fill:none;stroke:#000000;stroke-width:0.33333334px;stroke-linecap:round;stroke-linejoin:round;stroke-miterlimit:4;stroke-dasharray:none;stroke-opacity:1;"
     d="  M 210.66667,118.8   L 208.73333,118.8  "
     id="path23" />
  <path
     style="fill:#000000;fill-rule:nonzero;fill-opacity:1;stroke:#000000;stroke-width:0.06666667px;stroke-linecap:round;stroke-linejoin:round;stroke-miterlimit:4;stroke-dasharray:none;stroke-opacity:1;"
     d="  M 15.466667,119.4   L 15.466667,119   L 16.933333,119   L 16.933333,119.4   L 15.466667,119.4  z   "
     id="path25" />
  <path
     style="fill:#000000;fill-rule:nonzero;fill-opacity:1;stroke:#000000;stroke-width:0.06666667px;stroke-linecap:round;stroke-linejoin:round;stroke-miterlimit:4;stroke-dasharray:none;stroke-opacity:1;"
     d="  M 19.133333,120.66667   L 18.6,120.66667   L 18.6,117.53333   L 18.4,117.73333   L 18.2,117.86667   L 17.933333,118   L 17.733333,118.13333   L 17.733333,117.66667   L 18.066667,117.46667   L 18.4,117.2   L 18.666667,116.93333   L 18.8,116.66667   L 19.133333,116.66667   L 19.133333,120.66667  z   "
     id="path27" />
  <path
     style="fill:#000000;fill-rule:nonzero;fill-opacity:1;stroke:#000000;stroke-width:0.06666667px;stroke-linecap:round;stroke-linejoin:round;stroke-miterlimit:4;stroke-dasharray:none;stroke-opacity:1;"
     d="  M 20.666667,120.66667   L 20.666667,120.13333   L 21.2,120.13333   L 21.2,120.66667   L 20.666667,120.66667  z   "
     id="path29" />
  <path
     style="fill:#000000;fill-rule:nonzero;fill-opacity:1;stroke:#000000;stroke-width:0.06666667px;stroke-linecap:round;stroke-linejoin:round;stroke-miterlimit:4;stroke-dasharray:none;stroke-opacity:1;"
     d="  M 21.933333,119.6   L 22.466667,119.53333   L 22.533333,119.73333   L 22.6,119.93333   L 22.666667,120.06667   L 22.866667,120.13333   L 23,120.2   L 23.2,120.2   L 23.4,120.2   L 23.6,120.13333   L 23.8,120   L 23.933333,119.8   L 24,119.6   L 24,119.33333   L 24,119.06667   L 23.933333,118.86667   L 23.8,118.66667   L 23.666667,118.53333   L 23.466667,118.46667   L 23.2,118.46667   L 23,118.46667   L 22.8,118.53333   L 22.666667,118.66667   L 22.533333,118.8   L 22,118.73333   L 22.4,116.73333   L 24.266667,116.73333   L 24.266667,117.26667   L 22.8,117.26667   L 22.6,118.26667   L 22.866667,118.13333   L 23.066667,118   L 23.333333,118   L 23.666667,118.06667   L 23.933333,118.13333   L 24.2,118.33333   L 24.4,118.6   L 24.466667,118.93333   L 24.533333,119.26667   L 24.466667,119.6   L 24.4,119.93333   L 24.2,120.2   L 24,120.4   L 23.8,120.6   L 23.466667,120.66667   L 23.2,120.66667   L 22.866667,120.66667   L 22.6,120.53333   L 22.333333,120.4   L 22.133333,120.2   L 22,119.93333   L 21.933333,119.6  z   "
     id="path31" />
  <path
     style="fill:none;stroke:#000000;stroke-width:0.33333334px;stroke-linecap:round;stroke-linejoin:round;stroke-miterlimit:4;stroke-dasharray:none;stroke-opacity:1;"
     d="  M 24.733333,120.66667   L 24.733333,120.66667  "
     id="path33" />
  <path
     style="fill:none;stroke:#000000;stroke-width:0.33333334px;stroke-linecap:round;stroke-linejoin:round;stroke-miterlimit:4;stroke-dasharray:none;stroke-opacity:1;"
     d="  M 28.066667,100.06667   L 30,100.06667  "
     id="path35" />
  <path
     style="fill:none;stroke:#000000;stroke-width:0.33333334px;stroke-linecap:round;stroke-linejoin:round;stroke-miterlimit:4;stroke-dasharray:none;stroke-opacity:1;"
     d="  M 210.66667,100.06667   L 208.73333,100.06667  "
     id="path37" />
  <path
     style="fill:#000000;fill-rule:nonzero;fill-opacity:1;stroke:#000000;stroke-width:0.06666667px;stroke-linecap:round;stroke-linejoin:round;stroke-miterlimit:4;stroke-dasharray:none;stroke-opacity:1;"
     d="  M 15.466667,100.73333   L 15.466667,100.26667   L 16.933333,100.26667   L 16.933333,100.73333   L 15.466667,100.73333  z   "
     id="path39" />
  <path
     style="fill:#000000;fill-rule:nonzero;fill-opacity:1;stroke:#000000;stroke-width:0.06666667px;stroke-linecap:round;stroke-linejoin:round;stroke-miterlimit:4;stroke-dasharray:none;stroke-opacity:1;"
     d="  M 19.133333,101.93333   L 18.6,101.93333   L 18.6,98.866667   L 18.4,99   L 18.2,99.2   L 17.933333,99.333333   L 17.733333,99.466667   L 17.733333,99   L 18.066667,98.733333   L 18.4,98.533333   L 18.666667,98.266667   L 18.8,98   L 19.133333,98   L 19.133333,101.93333  z   "
     id="path41" />
  <path
     style="fill:#000000;fill-rule:nonzero;fill-opacity:1;stroke:#000000;stroke-width:0.06666667px;stroke-linecap:round;stroke-linejoin:round;stroke-miterlimit:4;stroke-dasharray:none;stroke-opacity:1;"
     d="  M 20.666667,101.93333   L 20.666667,101.4   L 21.2,101.4   L 21.2,101.93333   L 20.666667,101.93333  z   "
     id="path43" />
  <path
     style="fill:#000000;fill-rule:nonzero;fill-opacity:1;stroke:#000000;stroke-width:0.06666667px;stroke-linecap:round;stroke-linejoin:round;stroke-miterlimit:4;stroke-dasharray:none;stroke-opacity:1;"
     d="  M 21.933333,100   L 22,99.333333   L 22.066667,98.866667   L 22.2,98.6   L 22.333333,98.333333   L 22.533333,98.2   L 22.733333,98.066667   L 22.933333,98   L 23.2,98   L 23.533333,98   L 23.8,98.133333   L 24,98.266667   L 24.2,98.466667   L 24.333333,98.733333   L 24.4,99.066667   L 24.466667,99.333333   L 24.533333,99.6   L 24.533333,100   L 24.466667,100.6   L 24.4,101.13333   L 24.266667,101.4   L 24.133333,101.6   L 23.933333,101.8   L 23.733333,101.86667   L 23.533333,101.93333   L 23.2,102   L 22.933333,102   L 22.733333,101.86667   L 22.533333,101.8   L 22.333333,101.6   L 22.066667,100.93333   L 21.933333,100  z    M 22.466667,100   L 22.533333,100.8   L 22.666667,101.26667   L 22.866667,101.4   L 23,101.46667   L 23.2,101.53333   L 23.466667,101.46667   L 23.6,101.4   L 23.8,101.26667   L 23.933333,100.8   L 24,100   L 23.933333,99.2   L 23.8,98.733333   L 23.6,98.6   L 23.466667,98.466667   L 23.2,98.466667   L 23,98.466667   L 22.866667,98.533333   L 22.666667,98.733333   L 22.533333,99.2   L 22.466667,100  z   "
     id="path45" />
  <path
     style="fill:none;stroke:#000000;stroke-width:0.33333334px;stroke-linecap:round;stroke-linejoin:round;stroke-miterlimit:4;stroke-dasharray:none;stroke-opacity:1;"
     d="  M 24.733333,101.93333   L 24.733333,101.93333  "
     id="path47" />
  <path
     style="fill:none;stroke:#000000;stroke-width:0.33333334px;stroke-linecap:round;stroke-linejoin:round;stroke-miterlimit:4;stroke-dasharray:none;stroke-opacity:1;"
     d="  M 28.066667,81.4   L 30,81.4  "
     id="path49" />
  <path
     style="fill:none;stroke:#000000;stroke-width:0.33333334px;stroke-linecap:round;stroke-linejoin:round;stroke-miterlimit:4;stroke-dasharray:none;stroke-opacity:1;"
     d="  M 210.66667,81.4   L 208.73333,81.4  "
     id="path51" />
  <path
     style="fill:#000000;fill-rule:nonzero;fill-opacity:1;stroke:#000000;stroke-width:0.06666667px;stroke-linecap:round;stroke-linejoin:round;stroke-miterlimit:4;stroke-dasharray:none;stroke-opacity:1;"
     d="  M 15.466667,82   L 15.466667,81.6   L 16.933333,81.6   L 16.933333,82   L 15.466667,82  z   "
     id="path53" />
  <path
     style="fill:#000000;fill-rule:nonzero;fill-opacity:1;stroke:#000000;stroke-width:0.06666667px;stroke-linecap:round;stroke-linejoin:round;stroke-miterlimit:4;stroke-dasharray:none;stroke-opacity:1;"
     d="  M 17.333333,81.266667   L 17.4,80.666667   L 17.533333,80.133333   L 17.6,79.866667   L 17.733333,79.666667   L 17.933333,79.466667   L 18.133333,79.4   L 18.4,79.333333   L 18.666667,79.266667   L 18.933333,79.333333   L 19.2,79.4   L 19.466667,79.533333   L 19.6,79.8   L 19.733333,80.066667   L 19.866667,80.333333   L 19.866667,80.6   L 19.933333,80.933333   L 19.933333,81.266667   L 19.933333,81.933333   L 19.8,82.4   L 19.666667,82.666667   L 19.533333,82.933333   L 19.4,83.066667   L 19.133333,83.2   L 18.933333,83.266667   L 18.666667,83.266667   L 18.4,83.266667   L 18.133333,83.2   L 17.933333,83.066667   L 17.733333,82.933333   L 17.466667,82.266667   L 17.333333,81.266667  z    M 17.866667,81.266667   L 17.933333,82.066667   L 18.066667,82.533333   L 18.266667,82.733333   L 18.466667,82.8   L 18.666667,82.8   L 18.866667,82.8   L 19.066667,82.733333   L 19.2,82.533333   L 19.333333,82.066667   L 19.4,81.266667   L 19.4,80.533333   L 19.2,80.066667   L 19.066667,79.866667   L 18.866667,79.8   L 18.666667,79.733333   L 18.466667,79.8   L 18.266667,79.866667   L 18.133333,80   L 17.933333,80.533333   L 17.866667,81.266667  z   "
     id="path55" />
  <path
     style="fill:#000000;fill-rule:nonzero;fill-opacity:1;stroke:#000000;stroke-width:0.06666667px;stroke-linecap:round;stroke-linejoin:round;stroke-miterlimit:4;stroke-dasharray:none;stroke-opacity:1;"
     d="  M 20.666667,83.2   L 20.666667,82.733333   L 21.2,82.733333   L 21.2,83.2   L 20.666667,83.2  z   "
     id="path57" />
  <path
     style="fill:#000000;fill-rule:nonzero;fill-opacity:1;stroke:#000000;stroke-width:0.06666667px;stroke-linecap:round;stroke-linejoin:round;stroke-miterlimit:4;stroke-dasharray:none;stroke-opacity:1;"
     d="  M 21.933333,82.2   L 22.466667,82.133333   L 22.533333,82.333333   L 22.6,82.533333   L 22.666667,82.666667   L 22.866667,82.733333   L 23,82.8   L 23.2,82.8   L 23.4,82.8   L 23.6,82.733333   L 23.8,82.6   L 23.933333,82.4   L 24,82.2   L 24,81.933333   L 24,81.666667   L 23.933333,81.466667   L 23.8,81.266667   L 23.666667,81.133333   L 23.466667,81.066667   L 23.2,81.066667   L 23,81.066667   L 22.8,81.133333   L 22.666667,81.266667   L 22.533333,81.4   L 22,81.333333   L 22.4,79.333333   L 24.266667,79.333333   L 24.266667,79.866667   L 22.8,79.866667   L 22.6,80.866667   L 22.866667,80.733333   L 23.066667,80.6   L 23.333333,80.6   L 23.666667,80.666667   L 23.933333,80.733333   L 24.2,80.933333   L 24.4,81.2   L 24.466667,81.533333   L 24.533333,81.866667   L 24.466667,82.2   L 24.4,82.533333   L 24.2,82.8   L 24,83   L 23.8,83.2   L 23.466667,83.266667   L 23.2,83.266667   L 22.866667,83.266667   L 22.6,83.133333   L 22.333333,83   L 22.133333,82.8   L 22,82.533333   L 21.933333,82.2  z   "
     id="path59" />
  <path
     style="fill:none;stroke:#000000;stroke-width:0.33333334px;stroke-linecap:round;stroke-linejoin:round;stroke-miterlimit:4;stroke-dasharray:none;stroke-opacity:1;"
     d="  M 24.733333,83.2   L 24.733333,83.2  "
     id="path61" />
  <path
     style="fill:none;stroke:#000000;stroke-width:0.33333334px;stroke-linecap:round;stroke-linejoin:round;stroke-miterlimit:4;stroke-dasharray:none;stroke-opacity:1;"
     d="  M 28.066667,62.666667   L 30,62.666667  "
     id="path63" />
  <path
     style="fill:none;stroke:#000000;stroke-width:0.33333334px;stroke-linecap:round;stroke-linejoin:round;stroke-miterlimit:4;stroke-dasharray:none;stroke-opacity:1;"
     d="  M 210.66667,62.666667   L 208.73333,62.666667  "
     id="path65" />
  <path
     style="fill:#000000;fill-rule:nonzero;fill-opacity:1;stroke:#000000;stroke-width:0.06666667px;stroke-linecap:round;stroke-linejoin:round;stroke-miterlimit:4;stroke-dasharray:none;stroke-opacity:1;"
     d="  M 17.333333,62.6   L 17.4,61.933333   L 17.533333,61.466667   L 17.6,61.2   L 17.733333,60.933333   L 17.933333,60.8   L 18.133333,60.666667   L 18.4,60.6   L 18.666667,60.6   L 18.933333,60.6   L 19.2,60.733333   L 19.466667,60.866667   L 19.6,61.066667   L 19.733333,61.333333   L 19.866667,61.666667   L 19.866667,61.933333   L 19.933333,62.2   L 19.933333,62.6   L 19.933333,63.2   L 19.8,63.733333   L 19.666667,64   L 19.533333,64.2   L 19.4,64.4   L 19.133333,64.466667   L 18.933333,64.533333   L 18.666667,64.6   L 18.4,64.6   L 18.133333,64.466667   L 17.933333,64.4   L 17.733333,64.2   L 17.466667,63.533333   L 17.333333,62.6  z    M 17.866667,62.6   L 17.933333,63.4   L 18.066667,63.866667   L 18.266667,64   L 18.466667,64.066667   L 18.666667,64.133333   L 18.866667,64.066667   L 19.066667,64   L 19.2,63.866667   L 19.333333,63.4   L 19.4,62.6   L 19.4,61.8   L 19.2,61.333333   L 19.066667,61.2   L 18.866667,61.066667   L 18.666667,61.066667   L 18.466667,61.066667   L 18.266667,61.133333   L 18.133333,61.333333   L 17.933333,61.8   L 17.866667,62.6  z   "
     id="path67" />
  <path
     style="fill:#000000;fill-rule:nonzero;fill-opacity:1;stroke:#000000;stroke-width:0.06666667px;stroke-linecap:round;stroke-linejoin:round;stroke-miterlimit:4;stroke-dasharray:none;stroke-opacity:1;"
     d="  M 20.666667,64.533333   L 20.666667,64   L 21.2,64   L 21.2,64.533333   L 20.666667,64.533333  z   "
     id="path69" />
  <path
     style="fill:#000000;fill-rule:nonzero;fill-opacity:1;stroke:#000000;stroke-width:0.06666667px;stroke-linecap:round;stroke-linejoin:round;stroke-miterlimit:4;stroke-dasharray:none;stroke-opacity:1;"
     d="  M 21.933333,62.6   L 22,61.933333   L 22.066667,61.466667   L 22.2,61.2   L 22.333333,60.933333   L 22.533333,60.8   L 22.733333,60.666667   L 22.933333,60.6   L 23.2,60.6   L 23.533333,60.6   L 23.8,60.733333   L 24,60.866667   L 24.2,61.066667   L 24.333333,61.333333   L 24.4,61.666667   L 24.466667,61.933333   L 24.533333,62.2   L 24.533333,62.6   L 24.466667,63.2   L 24.4,63.733333   L 24.266667,64   L 24.133333,64.2   L 23.933333,64.4   L 23.733333,64.466667   L 23.533333,64.533333   L 23.2,64.6   L 22.933333,64.6   L 22.733333,64.466667   L 22.533333,64.4   L 22.333333,64.2   L 22.066667,63.533333   L 21.933333,62.6  z    M 22.466667,62.6   L 22.533333,63.4   L 22.666667,63.866667   L 22.866667,64   L 23,64.066667   L 23.2,64.133333   L 23.466667,64.066667   L 23.6,64   L 23.8,63.866667   L 23.933333,63.4   L 24,62.6   L 23.933333,61.8   L 23.8,61.333333   L 23.6,61.2   L 23.466667,61.066667   L 23.2,61.066667   L 23,61.066667   L 22.866667,61.133333   L 22.666667,61.333333   L 22.533333,61.8   L 22.466667,62.6  z   "
     id="path71" />
  <path
     style="fill:none;stroke:#000000;stroke-width:0.33333334px;stroke-linecap:round;stroke-linejoin:round;stroke-miterlimit:4;stroke-dasharray:none;stroke-opacity:1;"
     d="  M 24.733333,64.533333   L 24.733333,64.533333  "
     id="path73" />
  <path
     style="fill:none;stroke:#000000;stroke-width:0.33333334px;stroke-linecap:round;stroke-linejoin:round;stroke-miterlimit:4;stroke-dasharray:none;stroke-opacity:1;"
     d="  M 28.066667,44   L 30,44  "
     id="path75" />
  <path
     style="fill:none;stroke:#000000;stroke-width:0.33333334px;stroke-linecap:round;stroke-linejoin:round;stroke-miterlimit:4;stroke-dasharray:none;stroke-opacity:1;"
     d="  M 210.66667,44   L 208.73333,44  "
     id="path77" />
  <path
     style="fill:#000000;fill-rule:nonzero;fill-opacity:1;stroke:#000000;stroke-width:0.06666667px;stroke-linecap:round;stroke-linejoin:round;stroke-miterlimit:4;stroke-dasharray:none;stroke-opacity:1;"
     d="  M 17.333333,43.866667   L 17.4,43.266667   L 17.533333,42.733333   L 17.6,42.466667   L 17.733333,42.266667   L 17.933333,42.066667   L 18.133333,42   L 18.4,41.933333   L 18.666667,41.866667   L 18.933333,41.933333   L 19.2,42   L 19.466667,42.133333   L 19.6,42.4   L 19.733333,42.666667   L 19.866667,42.933333   L 19.866667,43.2   L 19.933333,43.533333   L 19.933333,43.866667   L 19.933333,44.533333   L 19.8,45   L 19.666667,45.266667   L 19.533333,45.533333   L 19.4,45.666667   L 19.133333,45.8   L 18.933333,45.866667   L 18.666667,45.866667   L 18.4,45.866667   L 18.133333,45.8   L 17.933333,45.666667   L 17.733333,45.533333   L 17.466667,44.866667   L 17.333333,43.866667  z    M 17.866667,43.866667   L 17.933333,44.666667   L 18.066667,45.133333   L 18.266667,45.333333   L 18.466667,45.4   L 18.666667,45.4   L 18.866667,45.4   L 19.066667,45.333333   L 19.2,45.133333   L 19.333333,44.666667   L 19.4,43.866667   L 19.4,43.133333   L 19.2,42.666667   L 19.066667,42.466667   L 18.866667,42.4   L 18.666667,42.333333   L 18.466667,42.4   L 18.266667,42.466667   L 18.133333,42.6   L 17.933333,43.133333   L 17.866667,43.866667  z   "
     id="path79" />
  <path
     style="fill:#000000;fill-rule:nonzero;fill-opacity:1;stroke:#000000;stroke-width:0.06666667px;stroke-linecap:round;stroke-linejoin:round;stroke-miterlimit:4;stroke-dasharray:none;stroke-opacity:1;"
     d="  M 20.666667,45.8   L 20.666667,45.333333   L 21.2,45.333333   L 21.2,45.8   L 20.666667,45.8  z   "
     id="path81" />
  <path
     style="fill:#000000;fill-rule:nonzero;fill-opacity:1;stroke:#000000;stroke-width:0.06666667px;stroke-linecap:round;stroke-linejoin:round;stroke-miterlimit:4;stroke-dasharray:none;stroke-opacity:1;"
     d="  M 21.933333,44.8   L 22.466667,44.733333   L 22.533333,44.933333   L 22.6,45.133333   L 22.666667,45.266667   L 22.866667,45.333333   L 23,45.4   L 23.2,45.4   L 23.4,45.4   L 23.6,45.333333   L 23.8,45.2   L 23.933333,45   L 24,44.8   L 24,44.533333   L 24,44.266667   L 23.933333,44.066667   L 23.8,43.866667   L 23.666667,43.733333   L 23.466667,43.666667   L 23.2,43.666667   L 23,43.666667   L 22.8,43.733333   L 22.666667,43.866667   L 22.533333,44   L 22,43.933333   L 22.4,41.933333   L 24.266667,41.933333   L 24.266667,42.466667   L 22.8,42.466667   L 22.6,43.466667   L 22.866667,43.333333   L 23.066667,43.2   L 23.333333,43.2   L 23.666667,43.266667   L 23.933333,43.333333   L 24.2,43.533333   L 24.4,43.8   L 24.466667,44.133333   L 24.533333,44.466667   L 24.466667,44.8   L 24.4,45.133333   L 24.2,45.4   L 24,45.6   L 23.8,45.8   L 23.466667,45.866667   L 23.2,45.866667   L 22.866667,45.866667   L 22.6,45.733333   L 22.333333,45.6   L 22.133333,45.4   L 22,45.133333   L 21.933333,44.8  z   "
     id="path83" />
  <path
     style="fill:none;stroke:#000000;stroke-width:0.33333334px;stroke-linecap:round;stroke-linejoin:round;stroke-miterlimit:4;stroke-dasharray:none;stroke-opacity:1;"
     d="  M 24.733333,45.8   L 24.733333,45.8  "
     id="path85" />
  <path
     style="fill:none;stroke:#000000;stroke-width:0.33333334px;stroke-linecap:round;stroke-linejoin:round;stroke-miterlimit:4;stroke-dasharray:none;stroke-opacity:1;"
     d="  M 28.066667,25.266667   L 30,25.266667  "
     id="path87" />
  <path
     style="fill:none;stroke:#000000;stroke-width:0.33333334px;stroke-linecap:round;stroke-linejoin:round;stroke-miterlimit:4;stroke-dasharray:none;stroke-opacity:1;"
     d="  M 210.66667,25.266667   L 208.73333,25.266667  "
     id="path89" />
  <path
     style="fill:#000000;fill-rule:nonzero;fill-opacity:1;stroke:#000000;stroke-width:0.06666667px;stroke-linecap:round;stroke-linejoin:round;stroke-miterlimit:4;stroke-dasharray:none;stroke-opacity:1;"
     d="  M 19.133333,27.133333   L 18.6,27.133333   L 18.6,24.066667   L 18.4,24.2   L 18.2,24.4   L 17.933333,24.533333   L 17.733333,24.666667   L 17.733333,24.2   L 18.066667,23.933333   L 18.4,23.733333   L 18.666667,23.466667   L 18.8,23.2   L 19.133333,23.2   L 19.133333,27.133333  z   "
     id="path91" />
  <path
     style="fill:#000000;fill-rule:nonzero;fill-opacity:1;stroke:#000000;stroke-width:0.06666667px;stroke-linecap:round;stroke-linejoin:round;stroke-miterlimit:4;stroke-dasharray:none;stroke-opacity:1;"
     d="  M 20.666667,27.133333   L 20.666667,26.6   L 21.2,26.6   L 21.2,27.133333   L 20.666667,27.133333  z   "
     id="path93" />
  <path
     style="fill:#000000;fill-rule:nonzero;fill-opacity:1;stroke:#000000;stroke-width:0.06666667px;stroke-linecap:round;stroke-linejoin:round;stroke-miterlimit:4;stroke-dasharray:none;stroke-opacity:1;"
     d="  M 21.933333,25.2   L 22,24.533333   L 22.066667,24.066667   L 22.2,23.8   L 22.333333,23.533333   L 22.533333,23.4   L 22.733333,23.266667   L 22.933333,23.2   L 23.2,23.2   L 23.533333,23.2   L 23.8,23.333333   L 24,23.466667   L 24.2,23.666667   L 24.333333,23.933333   L 24.4,24.266667   L 24.466667,24.533333   L 24.533333,24.8   L 24.533333,25.2   L 24.466667,25.8   L 24.4,26.333333   L 24.266667,26.6   L 24.133333,26.8   L 23.933333,27   L 23.733333,27.066667   L 23.533333,27.133333   L 23.2,27.2   L 22.933333,27.2   L 22.733333,27.066667   L 22.533333,27   L 22.333333,26.8   L 22.066667,26.133333   L 21.933333,25.2  z    M 22.466667,25.2   L 22.533333,26   L 22.666667,26.466667   L 22.866667,26.6   L 23,26.666667   L 23.2,26.733333   L 23.466667,26.666667   L 23.6,26.6   L 23.8,26.466667   L 23.933333,26   L 24,25.2   L 23.933333,24.4   L 23.8,23.933333   L 23.6,23.8   L 23.466667,23.666667   L 23.2,23.666667   L 23,23.666667   L 22.866667,23.733333   L 22.666667,23.933333   L 22.533333,24.4   L 22.466667,25.2  z   "
     id="path95" />
  <path
     style="fill:none;stroke:#000000;stroke-width:0.33333334px;stroke-linecap:round;stroke-linejoin:round;stroke-miterlimit:4;stroke-dasharray:none;stroke-opacity:1;"
     d="  M 24.733333,27.133333   L 24.733333,27.133333  "
     id="path97" />
  <path
     style="fill:none;stroke:#000000;stroke-width:0.33333334px;stroke-linecap:round;stroke-linejoin:round;stroke-miterlimit:4;stroke-dasharray:none;stroke-opacity:1;"
     d="  M 28.066667,6.6   L 30,6.6  "
     id="path99" />
  <path
     style="fill:none;stroke:#000000;stroke-width:0.33333334px;stroke-linecap:round;stroke-linejoin:round;stroke-miterlimit:4;stroke-dasharray:none;stroke-opacity:1;"
     d="  M 210.66667,6.6   L 208.73333,6.6  "
     id="path101" />
  <path
     style="fill:#000000;fill-rule:nonzero;fill-opacity:1;stroke:#000000;stroke-width:0.06666667px;stroke-linecap:round;stroke-linejoin:round;stroke-miterlimit:4;stroke-dasharray:none;stroke-opacity:1;"
     d="  M 19.133333,8.4   L 18.6,8.4   L 18.6,5.3333333   L 18.4,5.5333333   L 18.2,5.6666667   L 17.933333,5.8   L 17.733333,5.9333333   L 17.733333,5.4666667   L 18.066667,5.2666667   L 18.4,5   L 18.666667,4.7333333   L 18.8,4.4666667   L 19.133333,4.4666667   L 19.133333,8.4  z   "
     id="path103" />
  <path
     style="fill:#000000;fill-rule:nonzero;fill-opacity:1;stroke:#000000;stroke-width:0.06666667px;stroke-linecap:round;stroke-linejoin:round;stroke-miterlimit:4;stroke-dasharray:none;stroke-opacity:1;"
     d="  M 20.666667,8.4   L 20.666667,7.9333333   L 21.2,7.9333333   L 21.2,8.4   L 20.666667,8.4  z   "
     id="path105" />
  <path
     style="fill:#000000;fill-rule:nonzero;fill-opacity:1;stroke:#000000;stroke-width:0.06666667px;stroke-linecap:round;stroke-linejoin:round;stroke-miterlimit:4;stroke-dasharray:none;stroke-opacity:1;"
     d="  M 21.933333,7.4   L 22.466667,7.3333333   L 22.533333,7.5333333   L 22.6,7.7333333   L 22.666667,7.8666667   L 22.866667,7.9333333   L 23,8   L 23.2,8   L 23.4,8   L 23.6,7.9333333   L 23.8,7.8   L 23.933333,7.6   L 24,7.4   L 24,7.1333333   L 24,6.8666667   L 23.933333,6.6666667   L 23.8,6.4666667   L 23.666667,6.3333333   L 23.466667,6.2666667   L 23.2,6.2666667   L 23,6.2666667   L 22.8,6.3333333   L 22.666667,6.4666667   L 22.533333,6.6   L 22,6.5333333   L 22.4,4.5333333   L 24.266667,4.5333333   L 24.266667,5.0666667   L 22.8,5.0666667   L 22.6,6.0666667   L 22.866667,5.9333333   L 23.066667,5.8   L 23.333333,5.8   L 23.666667,5.8666667   L 23.933333,5.9333333   L 24.2,6.1333333   L 24.4,6.4   L 24.466667,6.7333333   L 24.533333,7.0666667   L 24.466667,7.4   L 24.4,7.7333333   L 24.2,8   L 24,8.2   L 23.8,8.4   L 23.466667,8.4666667   L 23.2,8.4666667   L 22.866667,8.4666667   L 22.6,8.3333333   L 22.333333,8.2   L 22.133333,8   L 22,7.7333333   L 21.933333,7.4  z   "
     id="path107" />
  <path
     style="fill:none;stroke:#000000;stroke-width:0.33333334px;stroke-linecap:round;stroke-linejoin:round;stroke-miterlimit:4;stroke-dasharray:none;stroke-opacity:1;"
     d="  M 24.733333,8.4   L 24.733333,8.4  "
     id="path109" />
  <path
     style="fill:none;stroke:#000000;stroke-width:0.33333334px;stroke-linecap:round;stroke-linejoin:round;stroke-miterlimit:4;stroke-dasharray:none;stroke-opacity:1;"
     d="  M 33,137.53333   L 33,135.6  "
     id="path111" />
  <path
     style="fill:none;stroke:#000000;stroke-width:0.33333334px;stroke-linecap:round;stroke-linejoin:round;stroke-miterlimit:4;stroke-dasharray:none;stroke-opacity:1;"
     d="  M 33,6.6   L 33,8.5333333  "
     id="path113" />
  <path
     style="fill:#000000;fill-rule:nonzero;fill-opacity:1;stroke:#000000;stroke-width:0.06666667px;stroke-linecap:round;stroke-linejoin:round;stroke-miterlimit:4;stroke-dasharray:none;stroke-opacity:1;"
     d="  M 34.266667,144.86667   L 33.733333,144.86667   L 33.733333,141.73333   L 33.533333,141.93333   L 33.333333,142.06667   L 33.066667,142.2   L 32.8,142.33333   L 32.8,141.86667   L 33.2,141.66667   L 33.533333,141.4   L 33.733333,141.13333   L 33.933333,140.86667   L 34.266667,140.86667   L 34.266667,144.86667  z   "
     id="path115" />
  <path
     style="fill:none;stroke:#000000;stroke-width:0.33333334px;stroke-linecap:round;stroke-linejoin:round;stroke-miterlimit:4;stroke-dasharray:none;stroke-opacity:1;"
     d="  M 35.266667,144.86667   L 35.266667,144.86667  "
     id="path117" />
  <path
     style="fill:none;stroke:#000000;stroke-width:0.33333334px;stroke-linecap:round;stroke-linejoin:round;stroke-miterlimit:4;stroke-dasharray:none;stroke-opacity:1;"
     d="  M 57.666667,137.53333   L 57.666667,135.6  "
     id="path119" />
  <path
     style="fill:none;stroke:#000000;stroke-width:0.33333334px;stroke-linecap:round;stroke-linejoin:round;stroke-miterlimit:4;stroke-dasharray:none;stroke-opacity:1;"
     d="  M 57.666667,6.6   L 57.666667,8.5333333  "
     id="path121" />
  <path
     style="fill:#000000;fill-rule:nonzero;fill-opacity:1;stroke:#000000;stroke-width:0.06666667px;stroke-linecap:round;stroke-linejoin:round;stroke-miterlimit:4;stroke-dasharray:none;stroke-opacity:1;"
     d="  M 59.666667,144.33333   L 59.666667,144.86667   L 57.066667,144.86667   L 57.066667,144.66667   L 57.133333,144.46667   L 57.266667,144.2   L 57.4,143.93333   L 57.6,143.73333   L 57.8,143.53333   L 58.066667,143.33333   L 58.333333,143.06667   L 58.6,142.86667   L 58.733333,142.66667   L 58.866667,142.53333   L 59.066667,142.26667   L 59.066667,142   L 59.066667,141.8   L 59,141.66667   L 58.866667,141.53333   L 58.733333,141.4   L 58.6,141.33333   L 58.4,141.33333   L 58.2,141.33333   L 58,141.4   L 57.866667,141.53333   L 57.733333,141.66667   L 57.666667,141.8   L 57.666667,142   L 57.133333,142   L 57.2,141.66667   L 57.333333,141.4   L 57.533333,141.13333   L 57.733333,141   L 58.066667,140.93333   L 58.4,140.86667   L 58.733333,140.93333   L 59.066667,141   L 59.266667,141.2   L 59.466667,141.4   L 59.6,141.66667   L 59.6,142   L 59.6,142.2   L 59.533333,142.4   L 59.4,142.66667   L 59.2,142.93333   L 59.066667,143.06667   L 58.8,143.33333   L 58.533333,143.6   L 58.266667,143.8   L 58.066667,143.93333   L 57.933333,144.06667   L 57.733333,144.33333   L 59.666667,144.33333  z   "
     id="path123" />
  <path
     style="fill:none;stroke:#000000;stroke-width:0.33333334px;stroke-linecap:round;stroke-linejoin:round;stroke-miterlimit:4;stroke-dasharray:none;stroke-opacity:1;"
     d="  M 59.933333,144.86667   L 59.933333,144.86667  "
     id="path125" />
  <path
     style="fill:none;stroke:#000000;stroke-width:0.33333334px;stroke-linecap:round;stroke-linejoin:round;stroke-miterlimit:4;stroke-dasharray:none;stroke-opacity:1;"
     d="  M 82.333333,137.53333   L 82.333333,135.6  "
     id="path127" />
  <path
     style="fill:none;stroke:#000000;stroke-width:0.33333334px;stroke-linecap:round;stroke-linejoin:round;stroke-miterlimit:4;stroke-dasharray:none;stroke-opacity:1;"
     d="  M 82.333333,6.6   L 82.333333,8.5333333  "
     id="path129" />
  <path
     style="fill:#000000;fill-rule:nonzero;fill-opacity:1;stroke:#000000;stroke-width:0.06666667px;stroke-linecap:round;stroke-linejoin:round;stroke-miterlimit:4;stroke-dasharray:none;stroke-opacity:1;"
     d="  M 81.8,143.8   L 82.333333,143.73333   L 82.4,143.93333   L 82.533333,144.13333   L 82.6,144.26667   L 82.733333,144.33333   L 82.933333,144.4   L 83.133333,144.4   L 83.333333,144.4   L 83.533333,144.33333   L 83.666667,144.2   L 83.8,144.06667   L 83.866667,143.86667   L 83.866667,143.66667   L 83.866667,143.4   L 83.8,143.26667   L 83.666667,143.06667   L 83.533333,143   L 83.333333,142.93333   L 83.133333,142.86667   L 83,142.93333   L 82.8,142.93333   L 82.866667,142.46667   L 82.933333,142.46667   L 83.2,142.46667   L 83.466667,142.33333   L 83.533333,142.2   L 83.666667,142.06667   L 83.666667,141.86667   L 83.6,141.66667   L 83.466667,141.46667   L 83.333333,141.4   L 83.066667,141.33333   L 82.8,141.4   L 82.6,141.46667   L 82.533333,141.6   L 82.466667,141.8   L 82.4,142   L 81.866667,141.93333   L 82,141.6   L 82.133333,141.33333   L 82.266667,141.13333   L 82.533333,141   L 82.733333,140.93333   L 83.066667,140.86667   L 83.333333,140.93333   L 83.6,141   L 83.866667,141.2   L 84.066667,141.4   L 84.133333,141.6   L 84.2,141.86667   L 84.133333,142.13333   L 84.066667,142.33333   L 83.866667,142.53333   L 83.666667,142.66667   L 83.866667,142.73333   L 84.066667,142.86667   L 84.2,143   L 84.333333,143.2   L 84.4,143.4   L 84.4,143.66667   L 84.4,144   L 84.266667,144.26667   L 84.066667,144.53333   L 83.733333,144.73333   L 83.466667,144.86667   L 83.066667,144.86667   L 82.733333,144.86667   L 82.466667,144.73333   L 82.2,144.6   L 82,144.33333   L 81.866667,144.13333   L 81.8,143.8  z   "
     id="path131" />
  <path
     style="fill:none;stroke:#000000;stroke-width:0.33333334px;stroke-linecap:round;stroke-linejoin:round;stroke-miterlimit:4;stroke-dasharray:none;stroke-opacity:1;"
     d="  M 84.666667,144.86667   L 84.666667,144.86667  "
     id="path133" />
  <path
     style="fill:none;stroke:#000000;stroke-width:0.33333334px;stroke-linecap:round;stroke-linejoin:round;stroke-miterlimit:4;stroke-dasharray:none;stroke-opacity:1;"
     d="  M 107,137.53333   L 107,135.6  "
     id="path135" />
  <path
     style="fill:none;stroke:#000000;stroke-width:0.33333334px;stroke-linecap:round;stroke-linejoin:round;stroke-miterlimit:4;stroke-dasharray:none;stroke-opacity:1;"
     d="  M 107,6.6   L 107,8.5333333  "
     id="path137" />
  <path
     style="fill:#000000;fill-rule:nonzero;fill-opacity:1;stroke:#000000;stroke-width:0.06666667px;stroke-linecap:round;stroke-linejoin:round;stroke-miterlimit:4;stroke-dasharray:none;stroke-opacity:1;"
     d="  M 108.06667,144.86667   L 108.06667,143.93333   L 106.33333,143.93333   L 106.33333,143.4   L 108.2,140.93333   L 108.6,140.93333   L 108.6,143.4   L 109.06667,143.4   L 109.06667,143.93333   L 108.6,143.93333   L 108.6,144.86667   L 108.06667,144.86667  z    M 108.06667,143.4   L 108.06667,141.93333   L 106.93333,143.4   L 108.06667,143.4  z   "
     id="path139" />
  <path
     style="fill:none;stroke:#000000;stroke-width:0.33333334px;stroke-linecap:round;stroke-linejoin:round;stroke-miterlimit:4;stroke-dasharray:none;stroke-opacity:1;"
     d="  M 109.26667,144.86667   L 109.26667,144.86667  "
     id="path141" />
  <path
     style="fill:none;stroke:#000000;stroke-width:0.33333334px;stroke-linecap:round;stroke-linejoin:round;stroke-miterlimit:4;stroke-dasharray:none;stroke-opacity:1;"
     d="  M 131.66667,137.53333   L 131.66667,135.6  "
     id="path143" />
  <path
     style="fill:none;stroke:#000000;stroke-width:0.33333334px;stroke-linecap:round;stroke-linejoin:round;stroke-miterlimit:4;stroke-dasharray:none;stroke-opacity:1;"
     d="  M 131.66667,6.6   L 131.66667,8.5333333  "
     id="path145" />
  <path
     style="fill:#000000;fill-rule:nonzero;fill-opacity:1;stroke:#000000;stroke-width:0.06666667px;stroke-linecap:round;stroke-linejoin:round;stroke-miterlimit:4;stroke-dasharray:none;stroke-opacity:1;"
     d="  M 131.2,143.8   L 131.66667,143.73333   L 131.73333,143.93333   L 131.8,144.13333   L 131.93333,144.26667   L 132.06667,144.33333   L 132.26667,144.4   L 132.4,144.4   L 132.66667,144.4   L 132.86667,144.33333   L 133,144.2   L 133.13333,144   L 133.2,143.8   L 133.26667,143.53333   L 133.2,143.26667   L 133.13333,143.06667   L 133.06667,142.86667   L 132.86667,142.73333   L 132.66667,142.66667   L 132.46667,142.66667   L 132.2,142.66667   L 132,142.73333   L 131.86667,142.86667   L 131.73333,143   L 131.26667,142.93333   L 131.66667,140.93333   L 133.53333,140.93333   L 133.53333,141.46667   L 132.06667,141.46667   L 131.86667,142.46667   L 132.06667,142.33333   L 132.33333,142.2   L 132.6,142.2   L 132.86667,142.26667   L 133.2,142.33333   L 133.4,142.53333   L 133.6,142.8   L 133.73333,143.13333   L 133.73333,143.46667   L 133.73333,143.8   L 133.6,144.13333   L 133.46667,144.4   L 133.26667,144.6   L 133,144.8   L 132.73333,144.86667   L 132.4,144.86667   L 132.06667,144.86667   L 131.8,144.73333   L 131.53333,144.6   L 131.4,144.4   L 131.26667,144.13333   L 131.2,143.8  z   "
     id="path147" />
  <path
     style="fill:none;stroke:#000000;stroke-width:0.33333334px;stroke-linecap:round;stroke-linejoin:round;stroke-miterlimit:4;stroke-dasharray:none;stroke-opacity:1;"
     d="  M 134,144.86667   L 134,144.86667  "
     id="path149" />
  <path
     style="fill:none;stroke:#000000;stroke-width:0.33333334px;stroke-linecap:round;stroke-linejoin:round;stroke-miterlimit:4;stroke-dasharray:none;stroke-opacity:1;"
     d="  M 156.33333,137.53333   L 156.33333,135.6  "
     id="path151" />
  <path
     style="fill:none;stroke:#000000;stroke-width:0.33333334px;stroke-linecap:round;stroke-linejoin:round;stroke-miterlimit:4;stroke-dasharray:none;stroke-opacity:1;"
     d="  M 156.33333,6.6   L 156.33333,8.5333333  "
     id="path153" />
  <path
     style="fill:#000000;fill-rule:nonzero;fill-opacity:1;stroke:#000000;stroke-width:0.06666667px;stroke-linecap:round;stroke-linejoin:round;stroke-miterlimit:4;stroke-dasharray:none;stroke-opacity:1;"
     d="  M 158.33333,141.93333   L 157.86667,142   L 157.73333,141.73333   L 157.66667,141.53333   L 157.53333,141.4   L 157.33333,141.33333   L 157.2,141.33333   L 156.93333,141.4   L 156.73333,141.46667   L 156.6,141.66667   L 156.4,141.93333   L 156.33333,142.13333   L 156.33333,142.4   L 156.26667,142.8   L 156.46667,142.53333   L 156.73333,142.4   L 157,142.26667   L 157.26667,142.26667   L 157.53333,142.26667   L 157.8,142.4   L 158.06667,142.6   L 158.26667,142.86667   L 158.4,143.2   L 158.4,143.53333   L 158.4,143.86667   L 158.26667,144.2   L 158.13333,144.4   L 158,144.6   L 157.8,144.73333   L 157.53333,144.86667   L 157.13333,144.86667   L 156.86667,144.86667   L 156.6,144.8   L 156.4,144.66667   L 156.13333,144.46667   L 155.86667,143.86667   L 155.8,143   L 155.86667,142   L 156.2,141.33333   L 156.4,141.13333   L 156.66667,141   L 156.93333,140.93333   L 157.2,140.86667   L 157.53333,140.93333   L 157.8,141   L 158,141.13333   L 158.2,141.33333   L 158.26667,141.6   L 158.33333,141.93333  z    M 156.26667,143.53333   L 156.33333,143.73333   L 156.4,144   L 156.53333,144.2   L 156.66667,144.33333   L 156.86667,144.4   L 157.13333,144.4   L 157.33333,144.4   L 157.53333,144.33333   L 157.66667,144.2   L 157.8,144   L 157.86667,143.8   L 157.86667,143.53333   L 157.86667,143.33333   L 157.8,143.13333   L 157.66667,142.93333   L 157.53333,142.8   L 157.33333,142.73333   L 157.13333,142.73333   L 156.86667,142.73333   L 156.73333,142.8   L 156.53333,142.93333   L 156.4,143.13333   L 156.33333,143.33333   L 156.26667,143.53333  z   "
     id="path155" />
  <path
     style="fill:none;stroke:#000000;stroke-width:0.33333334px;stroke-linecap:round;stroke-linejoin:round;stroke-miterlimit:4;stroke-dasharray:none;stroke-opacity:1;"
     d="  M 158.66667,144.86667   L 158.66667,144.86667  "
     id="path157" />
  <path
     style="fill:none;stroke:#000000;stroke-width:0.33333334px;stroke-linecap:round;stroke-linejoin:round;stroke-miterlimit:4;stroke-dasharray:none;stroke-opacity:1;"
     d="  M 181.06667,137.53333   L 181.06667,135.6  "
     id="path159" />
  <path
     style="fill:none;stroke:#000000;stroke-width:0.33333334px;stroke-linecap:round;stroke-linejoin:round;stroke-miterlimit:4;stroke-dasharray:none;stroke-opacity:1;"
     d="  M 181.06667,6.6   L 181.06667,8.5333333  "
     id="path161" />
  <path
     style="fill:#000000;fill-rule:nonzero;fill-opacity:1;stroke:#000000;stroke-width:0.06666667px;stroke-linecap:round;stroke-linejoin:round;stroke-miterlimit:4;stroke-dasharray:none;stroke-opacity:1;"
     d="  M 180.6,141.46667   L 180.6,140.93333   L 183.13333,140.93333   L 183.13333,141.33333   L 182.73333,141.8   L 182.4,142.4   L 181.86667,143.73333   L 181.66667,144.86667   L 181.13333,144.86667   L 181.2,144.33333   L 181.33333,143.73333   L 181.86667,142.46667   L 182.2,141.93333   L 182.6,141.46667   L 180.6,141.46667  z   "
     id="path163" />
  <path
     style="fill:none;stroke:#000000;stroke-width:0.33333334px;stroke-linecap:round;stroke-linejoin:round;stroke-miterlimit:4;stroke-dasharray:none;stroke-opacity:1;"
     d="  M 183.33333,144.86667   L 183.33333,144.86667  "
     id="path165" />
  <path
     style="fill:none;stroke:#000000;stroke-width:0.33333334px;stroke-linecap:round;stroke-linejoin:round;stroke-miterlimit:4;stroke-dasharray:none;stroke-opacity:1;"
     d="  M 205.73333,137.53333   L 205.73333,135.6  "
     id="path167" />
  <path
     style="fill:none;stroke:#000000;stroke-width:0.33333334px;stroke-linecap:round;stroke-linejoin:round;stroke-miterlimit:4;stroke-dasharray:none;stroke-opacity:1;"
     d="  M 205.73333,6.6   L 205.73333,8.5333333  "
     id="path169" />
  <path
     style="fill:#000000;fill-rule:nonzero;fill-opacity:1;stroke:#000000;stroke-width:0.06666667px;stroke-linecap:round;stroke-linejoin:round;stroke-miterlimit:4;stroke-dasharray:none;stroke-opacity:1;"
     d="  M 205.93333,142.66667   L 205.66667,142.53333   L 205.46667,142.33333   L 205.33333,142.13333   L 205.26667,141.86667   L 205.33333,141.6   L 205.46667,141.4   L 205.6,141.13333   L 205.86667,141   L 206.13333,140.93333   L 206.46667,140.86667   L 206.73333,140.93333   L 207.06667,141   L 207.26667,141.2   L 207.46667,141.4   L 207.53333,141.6   L 207.6,141.86667   L 207.53333,142.13333   L 207.46667,142.33333   L 207.26667,142.53333   L 207,142.66667   L 207.2,142.73333   L 207.4,142.86667   L 207.53333,143   L 207.6,143.2   L 207.66667,143.46667   L 207.73333,143.66667   L 207.66667,144   L 207.53333,144.26667   L 207.33333,144.53333   L 207.13333,144.73333   L 206.8,144.86667   L 206.46667,144.86667   L 206.06667,144.86667   L 205.8,144.73333   L 205.53333,144.53333   L 205.33333,144.26667   L 205.2,144   L 205.2,143.66667   L 205.2,143.4   L 205.26667,143.2   L 205.4,143   L 205.53333,142.86667   L 205.66667,142.73333   L 205.93333,142.66667  z    M 205.8,141.86667   L 205.86667,142.06667   L 206,142.26667   L 206.13333,142.33333   L 206.26667,142.4   L 206.46667,142.4   L 206.66667,142.4   L 206.8,142.33333   L 206.93333,142.26667   L 207.06667,142.06667   L 207.06667,141.86667   L 207.06667,141.66667   L 206.93333,141.46667   L 206.8,141.4   L 206.6,141.33333   L 206.46667,141.33333   L 206.26667,141.33333   L 206.13333,141.4   L 206,141.46667   L 205.86667,141.66667   L 205.8,141.86667  z    M 205.73333,143.66667   L 205.73333,143.86667   L 205.8,144.06667   L 205.86667,144.2   L 206.06667,144.33333   L 206.26667,144.4   L 206.46667,144.4   L 206.66667,144.4   L 206.86667,144.33333   L 207,144.2   L 207.13333,144.06667   L 207.2,143.86667   L 207.2,143.66667   L 207.2,143.46667   L 207.13333,143.26667   L 207,143.13333   L 206.86667,143   L 206.66667,142.93333   L 206.4,142.86667   L 206.2,142.93333   L 206.06667,143   L 205.86667,143.13333   L 205.8,143.26667   L 205.73333,143.46667   L 205.73333,143.66667  z   "
     id="path171" />
  <path
     style="fill:none;stroke:#000000;stroke-width:0.33333334px;stroke-linecap:round;stroke-linejoin:round;stroke-miterlimit:4;stroke-dasharray:none;stroke-opacity:1;"
     d="  M 208,144.86667   L 208,144.86667  "
     id="path173" />
  <path
     style="fill:none;stroke:#000000;stroke-width:0.33333334px;stroke-linecap:round;stroke-linejoin:round;stroke-miterlimit:4;stroke-dasharray:none;stroke-opacity:1;"
     d="  M 28.066667,137.53333   L 210.66667,137.53333   L 210.66667,6.6   L 28.066667,6.6   L 28.066667,137.53333  "
     id="path175" />
  <path
     style="fill:#000000;fill-rule:nonzero;fill-opacity:1;stroke:#000000;stroke-width:0.06666667px;stroke-linecap:round;stroke-linejoin:round;stroke-miterlimit:4;stroke-dasharray:none;stroke-opacity:1;"
     d="  M 6.4666667,84.066667   L 6.5333333,83.533333   L 6.8,83.666667   L 7,83.8   L 7.1333333,84   L 7.2666667,84.2   L 7.3333333,84.466667   L 7.4,84.8   L 7.3333333,85.133333   L 7.2666667,85.4   L 7.2,85.6   L 7,85.8   L 6.5333333,86.066667   L 5.9333333,86.2   L 5.2666667,86.066667   L 4.8,85.8   L 4.6666667,85.6   L 4.5333333,85.4   L 4.4666667,85.133333   L 4.4,84.866667   L 4.4666667,84.466667   L 4.6,84.133333   L 4.8,83.933333   L 5.2666667,83.6   L 5.8666667,83.533333   L 6,83.533333   L 6,85.666667   L 6.2666667,85.6   L 6.5333333,85.533333   L 6.6666667,85.4   L 6.8,85.2   L 6.9333333,85   L 6.9333333,84.8   L 6.9333333,84.533333   L 6.8,84.333333   L 6.6666667,84.2   L 6.4666667,84.066667  z    M 5.5333333,85.666667   L 5.5333333,84.066667   L 5.4,84.066667   L 5.2,84.133333   L 5.1333333,84.266667   L 5,84.4   L 4.8666667,84.6   L 4.8666667,84.866667   L 4.8666667,85.066667   L 4.9333333,85.266667   L 5.0666667,85.4   L 5.2,85.533333   L 5.3333333,85.6   L 5.5333333,85.666667  z   "
     id="path177" />
  <path
     style="fill:#000000;fill-rule:nonzero;fill-opacity:1;stroke:#000000;stroke-width:0.06666667px;stroke-linecap:round;stroke-linejoin:round;stroke-miterlimit:4;stroke-dasharray:none;stroke-opacity:1;"
     d="  M 7.3333333,82.933333   L 4.4666667,82.933333   L 4.4666667,82.4   L 4.8666667,82.4   L 4.6666667,82.2   L 4.5333333,82.066667   L 4.4666667,81.8   L 4.4,81.533333   L 4.4666667,81.333333   L 4.5333333,81.133333   L 4.6,80.933333   L 4.7333333,80.866667   L 4.9333333,80.733333   L 5.1333333,80.666667   L 5.2666667,80.666667   L 5.6,80.666667   L 7.3333333,80.666667   L 7.3333333,81.2   L 5.6,81.2   L 5.4,81.2   L 5.2,81.266667   L 5.0666667,81.333333   L 4.9333333,81.4   L 4.8666667,81.533333   L 4.8666667,81.733333   L 4.8666667,81.866667   L 4.9333333,82.066667   L 5.0666667,82.2   L 5.2,82.333333   L 5.4666667,82.4   L 5.8,82.4   L 7.3333333,82.4   L 7.3333333,82.933333  z   "
     id="path179" />
  <path
     style="fill:#000000;fill-rule:nonzero;fill-opacity:1;stroke:#000000;stroke-width:0.06666667px;stroke-linecap:round;stroke-linejoin:round;stroke-miterlimit:4;stroke-dasharray:none;stroke-opacity:1;"
     d="  M 6.4666667,78   L 6.5333333,77.466667   L 6.8,77.6   L 7,77.733333   L 7.1333333,77.933333   L 7.2666667,78.133333   L 7.3333333,78.4   L 7.4,78.733333   L 7.3333333,79.066667   L 7.2666667,79.266667   L 7.2,79.533333   L 7,79.733333   L 6.5333333,80   L 5.9333333,80.066667   L 5.2666667,80   L 4.8,79.733333   L 4.6666667,79.533333   L 4.5333333,79.333333   L 4.4666667,79.066667   L 4.4,78.733333   L 4.4666667,78.4   L 4.6,78.066667   L 4.8,77.8   L 5.2666667,77.533333   L 5.8666667,77.466667   L 6,77.466667   L 6,79.6   L 6.2666667,79.533333   L 6.5333333,79.466667   L 6.6666667,79.333333   L 6.8,79.133333   L 6.9333333,78.933333   L 6.9333333,78.733333   L 6.9333333,78.466667   L 6.8,78.266667   L 6.6666667,78.133333   L 6.4666667,78  z    M 5.5333333,79.6   L 5.5333333,78   L 5.4,78   L 5.2,78.066667   L 5.1333333,78.133333   L 5,78.333333   L 4.8666667,78.533333   L 4.8666667,78.733333   L 4.8666667,79   L 4.9333333,79.133333   L 5.0666667,79.333333   L 5.2,79.466667   L 5.3333333,79.533333   L 5.5333333,79.6  z   "
     id="path181" />
  <path
     style="fill:#000000;fill-rule:nonzero;fill-opacity:1;stroke:#000000;stroke-width:0.06666667px;stroke-linecap:round;stroke-linejoin:round;stroke-miterlimit:4;stroke-dasharray:none;stroke-opacity:1;"
     d="  M 7.3333333,76.866667   L 4.4666667,76.866667   L 4.4666667,76.4   L 4.8666667,76.4   L 4.6666667,76.2   L 4.5333333,76.066667   L 4.4666667,75.933333   L 4.4,75.8   L 4.4666667,75.6   L 4.5333333,75.333333   L 5,75.533333   L 4.9333333,75.666667   L 4.8666667,75.8   L 4.8666667,75.933333   L 5,76.066667   L 5.0666667,76.2   L 5.2666667,76.266667   L 5.5333333,76.266667   L 5.8,76.333333   L 7.3333333,76.333333   L 7.3333333,76.866667  z   "
     id="path183" />
  <path
     style="fill:#000000;fill-rule:nonzero;fill-opacity:1;stroke:#000000;stroke-width:0.06666667px;stroke-linecap:round;stroke-linejoin:round;stroke-miterlimit:4;stroke-dasharray:none;stroke-opacity:1;"
     d="  M 7.5333333,75.2   L 7.6,74.666667   L 7.8,74.6   L 7.9333333,74.533333   L 8,74.333333   L 8,74.066667   L 8,73.866667   L 7.9333333,73.666667   L 7.8666667,73.533333   L 7.7333333,73.4   L 7.5333333,73.333333   L 7.4,73.266667   L 7.2666667,73.266667   L 7,73.266667   L 7.2,73.533333   L 7.2666667,73.733333   L 7.3333333,74.066667   L 7.3333333,74.333333   L 7.2,74.533333   L 7.0666667,74.733333   L 6.9333333,74.933333   L 6.6,75.066667   L 6.2666667,75.2   L 5.8666667,75.2   L 5.4666667,75.2   L 5.1333333,75.066667   L 4.9333333,75   L 4.7333333,74.866667   L 4.6,74.666667   L 4.4666667,74.533333   L 4.4,74.266667   L 4.4,74.066667   L 4.4666667,73.8   L 4.6,73.533333   L 4.8,73.266667   L 4.4666667,73.266667   L 4.4666667,72.733333   L 6.9333333,72.733333   L 7.3333333,72.8   L 7.6666667,72.8   L 7.8666667,72.933333   L 8.0666667,73   L 8.2,73.133333   L 8.3333333,73.333333   L 8.4,73.533333   L 8.4666667,73.8   L 8.4666667,74.066667   L 8.4666667,74.333333   L 8.4,74.666667   L 8.2666667,74.866667   L 8.0666667,75.066667   L 7.8666667,75.133333   L 7.5333333,75.2  z    M 5.8666667,74.733333   L 6.2,74.666667   L 6.4666667,74.6   L 6.6,74.533333   L 6.7333333,74.333333   L 6.8666667,74.2   L 6.8666667,74   L 6.8666667,73.8   L 6.8,73.666667   L 6.6,73.466667   L 6.4666667,73.4   L 6.2,73.333333   L 5.8666667,73.266667   L 5.5333333,73.333333   L 5.3333333,73.4   L 5.1333333,73.466667   L 5,73.666667   L 4.8666667,73.8   L 4.8666667,74   L 4.8666667,74.2   L 5,74.333333   L 5.1333333,74.533333   L 5.3333333,74.6   L 5.5333333,74.666667   L 5.8666667,74.733333  z   "
     id="path185" />
  <path
     style="fill:#000000;fill-rule:nonzero;fill-opacity:1;stroke:#000000;stroke-width:0.06666667px;stroke-linecap:round;stroke-linejoin:round;stroke-miterlimit:4;stroke-dasharray:none;stroke-opacity:1;"
     d="  M 8.4,72   L 8,72.066667   L 8,71.933333   L 8,71.8   L 8,71.666667   L 8,71.533333   L 7.9333333,71.466667   L 7.8,71.4   L 7.7333333,71.4   L 7.6,71.333333   L 7.4666667,71.266667   L 7.3333333,71.2   L 4.4666667,72.333333   L 4.4666667,71.733333   L 6.0666667,71.2   L 6.6666667,71   L 6.4,70.933333   L 6.1333333,70.8   L 4.4666667,70.266667   L 4.4666667,69.733333   L 7.4,70.733333   L 7.6666667,70.8   L 7.8666667,70.933333   L 8.0666667,71   L 8.2666667,71.133333   L 8.4,71.266667   L 8.4666667,71.466667   L 8.4666667,71.666667   L 8.4666667,71.866667   L 8.4,72  z   "
     id="path187" />
  <path
     style="fill:#000000;fill-rule:nonzero;fill-opacity:1;stroke:#000000;stroke-width:0.06666667px;stroke-linecap:round;stroke-linejoin:round;stroke-miterlimit:4;stroke-dasharray:none;stroke-opacity:1;"
     d="  M 8.4,66.8   L 7.8666667,67.2   L 7.2666667,67.466667   L 6.6,67.733333   L 5.8666667,67.8   L 4.7333333,67.6   L 4.0666667,67.266667   L 3.4,66.8   L 3.4,66.466667   L 3.7333333,66.666667   L 4,66.8   L 4.1333333,66.866667   L 4.5333333,67.066667   L 4.9333333,67.133333   L 5.4,67.266667   L 5.9333333,67.266667   L 7.1333333,67.066667   L 8.4,66.466667   L 8.4,66.8  z   "
     id="path189" />
  <path
     style="fill:#000000;fill-rule:nonzero;fill-opacity:1;stroke:#000000;stroke-width:0.06666667px;stroke-linecap:round;stroke-linejoin:round;stroke-miterlimit:4;stroke-dasharray:none;stroke-opacity:1;"
     d="  M 6.4666667,64   L 6.5333333,63.533333   L 6.8,63.6   L 7,63.733333   L 7.1333333,63.933333   L 7.2666667,64.2   L 7.3333333,64.466667   L 7.4,64.733333   L 7.3333333,65.066667   L 7.2666667,65.333333   L 7.2,65.533333   L 7,65.733333   L 6.5333333,66   L 5.9333333,66.133333   L 5.2666667,66   L 4.8,65.733333   L 4.6666667,65.533333   L 4.5333333,65.333333   L 4.4666667,65.066667   L 4.4,64.8   L 4.4666667,64.4   L 4.6,64.133333   L 4.8,63.866667   L 5.2666667,63.6   L 5.8666667,63.466667   L 6,63.466667   L 6,65.6   L 6.2666667,65.533333   L 6.5333333,65.466667   L 6.6666667,65.333333   L 6.8,65.2   L 6.9333333,65   L 6.9333333,64.733333   L 6.9333333,64.533333   L 6.8,64.333333   L 6.6666667,64.133333   L 6.4666667,64  z    M 5.5333333,65.6   L 5.5333333,64   L 5.4,64.066667   L 5.2,64.066667   L 5.1333333,64.2   L 5,64.333333   L 4.8666667,64.533333   L 4.8666667,64.8   L 4.8666667,65   L 4.9333333,65.2   L 5.0666667,65.333333   L 5.2,65.466667   L 5.3333333,65.533333   L 5.5333333,65.6  z   "
     id="path191" />
  <path
     style="fill:#000000;fill-rule:nonzero;fill-opacity:1;stroke:#000000;stroke-width:0.06666667px;stroke-linecap:round;stroke-linejoin:round;stroke-miterlimit:4;stroke-dasharray:none;stroke-opacity:1;"
     d="  M 7.3333333,61.666667   L 3.4,63.266667   L 3.4,62.666667   L 6.2,61.6   L 6.5333333,61.466667   L 6.8666667,61.4   L 6.2,61.2   L 3.4,60.133333   L 3.4,59.533333   L 7.3333333,61.066667   L 7.3333333,61.666667  z   "
     id="path193" />
  <path
     style="fill:#000000;fill-rule:nonzero;fill-opacity:1;stroke:#000000;stroke-width:0.06666667px;stroke-linecap:round;stroke-linejoin:round;stroke-miterlimit:4;stroke-dasharray:none;stroke-opacity:1;"
     d="  M 8.4,59.066667   L 8.4,59.4   L 7.1333333,58.8   L 5.9333333,58.6   L 5.4,58.666667   L 4.9333333,58.733333   L 4.5333333,58.866667   L 4.2,59   L 4,59.066667   L 3.7333333,59.2   L 3.4,59.4   L 3.4,59.066667   L 4.0666667,58.6   L 4.7333333,58.333333   L 5.8666667,58.066667   L 6.6,58.2   L 7.2666667,58.4   L 7.8666667,58.666667   L 8.4,59.066667  z   "
     id="path195" />
  <path
     style="fill:#000000;fill-rule:nonzero;fill-opacity:1;stroke:#000000;stroke-width:0.06666667px;stroke-linecap:round;stroke-linejoin:round;stroke-miterlimit:4;stroke-dasharray:none;stroke-opacity:1;"
     d="  M 108.73333,149.66667   L 108.73333,149.13333   L 109.26667,149.13333   L 109.26667,149.66667   L 108.73333,149.66667  z    M 108.73333,153.06667   L 108.73333,150.2   L 109.26667,150.2   L 109.26667,153.06667   L 108.73333,153.06667  z   "
     id="path197" />
  <path
     style="fill:#000000;fill-rule:nonzero;fill-opacity:1;stroke:#000000;stroke-width:0.06666667px;stroke-linecap:round;stroke-linejoin:round;stroke-miterlimit:4;stroke-dasharray:none;stroke-opacity:1;"
     d="  M 109.86667,153.06667   L 109.86667,150.2   L 110.4,150.2   L 110.4,150.66667   L 110.53333,150.46667   L 110.73333,150.26667   L 111,150.2   L 111.2,150.13333   L 111.53333,150.2   L 111.73333,150.33333   L 111.93333,150.46667   L 112,150.66667   L 112.2,150.46667   L 112.4,150.26667   L 112.66667,150.2   L 112.93333,150.13333   L 113.2,150.2   L 113.4,150.26667   L 113.6,150.4   L 113.73333,150.6   L 113.8,150.8   L 113.8,151.13333   L 113.8,153.06667   L 113.33333,153.06667   L 113.33333,151.33333   L 113.26667,151.06667   L 113.26667,150.86667   L 113.2,150.8   L 113.06667,150.66667   L 112.93333,150.66667   L 112.8,150.6   L 112.6,150.66667   L 112.46667,150.73333   L 112.33333,150.8   L 112.2,151   L 112.13333,151.2   L 112.13333,151.46667   L 112.13333,153.06667   L 111.6,153.06667   L 111.6,151.26667   L 111.6,151.06667   L 111.53333,150.93333   L 111.46667,150.8   L 111.4,150.66667   L 111.26667,150.66667   L 111.06667,150.6   L 110.86667,150.66667   L 110.73333,150.73333   L 110.53333,150.86667   L 110.46667,151.06667   L 110.4,151.26667   L 110.4,151.6   L 110.4,153.06667   L 109.86667,153.06667  z   "
     id="path199" />
  <path
     style="fill:#000000;fill-rule:nonzero;fill-opacity:1;stroke:#000000;stroke-width:0.06666667px;stroke-linecap:round;stroke-linejoin:round;stroke-miterlimit:4;stroke-dasharray:none;stroke-opacity:1;"
     d="  M 116.33333,152.73333   L 116.06667,152.93333   L 115.86667,153.06667   L 115.6,153.13333   L 115.33333,153.13333   L 115.06667,153.13333   L 114.86667,153.06667   L 114.66667,152.93333   L 114.53333,152.73333   L 114.46667,152.53333   L 114.46667,152.33333   L 114.46667,152.13333   L 114.53333,151.93333   L 114.66667,151.8   L 114.8,151.66667   L 114.93333,151.53333   L 115.06667,151.46667   L 115.26667,151.46667   L 115.46667,151.4   L 115.8,151.4   L 116.06667,151.33333   L 116.26667,151.26667   L 116.26667,151.2   L 116.26667,151.13333   L 116.26667,151   L 116.2,150.86667   L 116.13333,150.73333   L 116.06667,150.66667   L 115.86667,150.66667   L 115.66667,150.6   L 115.4,150.66667   L 115.26667,150.73333   L 115.13333,150.86667   L 115,151.06667   L 114.53333,151   L 114.6,150.73333   L 114.73333,150.53333   L 114.86667,150.4   L 115.13333,150.26667   L 115.4,150.2   L 115.8,150.13333   L 116.06667,150.2   L 116.33333,150.26667   L 116.53333,150.33333   L 116.66667,150.46667   L 116.8,150.6   L 116.86667,150.8   L 116.86667,150.93333   L 116.86667,151.2   L 116.86667,151.86667   L 116.86667,152.2   L 116.86667,152.53333   L 116.86667,152.66667   L 116.93333,152.86667   L 117,153.06667   L 116.53333,153.06667   L 116.4,152.93333   L 116.33333,152.73333  z    M 116.26667,151.73333   L 116,151.8   L 115.6,151.86667   L 115.33333,151.93333   L 115.2,151.93333   L 115.13333,152   L 115,152.06667   L 115,152.2   L 115,152.26667   L 115,152.46667   L 115.06667,152.6   L 115.26667,152.66667   L 115.46667,152.66667   L 115.73333,152.66667   L 115.93333,152.53333   L 116.06667,152.4   L 116.2,152.26667   L 116.26667,152.06667   L 116.26667,151.86667   L 116.26667,151.73333  z   "
     id="path201" />
  <path
     style="fill:#000000;fill-rule:nonzero;fill-opacity:1;stroke:#000000;stroke-width:0.06666667px;stroke-linecap:round;stroke-linejoin:round;stroke-miterlimit:4;stroke-dasharray:none;stroke-opacity:1;"
     d="  M 117.46667,153.33333   L 118,153.4   L 118.06667,153.53333   L 118.13333,153.66667   L 118.33333,153.73333   L 118.6,153.8   L 118.8,153.73333   L 119,153.73333   L 119.13333,153.66667   L 119.26667,153.53333   L 119.33333,153.33333   L 119.33333,153.2   L 119.4,153   L 119.4,152.73333   L 119.13333,152.93333   L 118.93333,153.06667   L 118.6,153.06667   L 118.33333,153.06667   L 118.13333,153   L 117.93333,152.86667   L 117.73333,152.66667   L 117.6,152.33333   L 117.46667,152   L 117.4,151.66667   L 117.46667,151.26667   L 117.6,150.86667   L 117.66667,150.66667   L 117.8,150.46667   L 118,150.33333   L 118.13333,150.26667   L 118.4,150.2   L 118.6,150.13333   L 118.86667,150.2   L 119.13333,150.33333   L 119.4,150.53333   L 119.4,150.2   L 119.86667,150.2   L 119.86667,152.66667   L 119.86667,153.06667   L 119.86667,153.4   L 119.73333,153.6   L 119.66667,153.8   L 119.53333,153.93333   L 119.33333,154.06667   L 119.13333,154.13333   L 118.86667,154.2   L 118.6,154.2   L 118.26667,154.2   L 118,154.13333   L 117.8,154   L 117.6,153.8   L 117.53333,153.6   L 117.46667,153.33333  z    M 117.93333,151.6   L 118,151.93333   L 118.06667,152.2   L 118.13333,152.4   L 118.26667,152.53333   L 118.46667,152.6   L 118.66667,152.6   L 118.86667,152.6   L 119,152.53333   L 119.2,152.4   L 119.26667,152.2   L 119.33333,151.93333   L 119.4,151.6   L 119.33333,151.33333   L 119.26667,151.06667   L 119.13333,150.86667   L 119,150.73333   L 118.86667,150.66667   L 118.66667,150.6   L 118.46667,150.66667   L 118.33333,150.73333   L 118.13333,150.86667   L 118.06667,151.06667   L 118,151.33333   L 117.93333,151.6  z   "
     id="path203" />
  <path
     style="fill:#000000;fill-rule:nonzero;fill-opacity:1;stroke:#000000;stroke-width:0.06666667px;stroke-linecap:round;stroke-linejoin:round;stroke-miterlimit:4;stroke-dasharray:none;stroke-opacity:1;"
     d="  M 122.6,152.2   L 123.06667,152.26667   L 123,152.53333   L 122.86667,152.73333   L 122.66667,152.93333   L 122.4,153.06667   L 122.13333,153.13333   L 121.8,153.13333   L 121.53333,153.13333   L 121.26667,153.06667   L 121.06667,152.93333   L 120.86667,152.73333   L 120.53333,152.26667   L 120.46667,151.66667   L 120.53333,151.06667   L 120.86667,150.53333   L 121.06667,150.4   L 121.26667,150.26667   L 121.53333,150.2   L 121.8,150.13333   L 122.13333,150.2   L 122.46667,150.33333   L 122.73333,150.53333   L 123,151   L 123.13333,151.66667   L 123.06667,151.73333   L 121,151.73333   L 121,152.06667   L 121.13333,152.26667   L 121.26667,152.46667   L 121.4,152.6   L 121.6,152.66667   L 121.86667,152.66667   L 122.06667,152.66667   L 122.26667,152.6   L 122.46667,152.4   L 122.6,152.2  z    M 121,151.33333   L 122.6,151.33333   L 122.53333,151.13333   L 122.46667,151   L 122.4,150.86667   L 122.2,150.73333   L 122,150.66667   L 121.8,150.6   L 121.6,150.66667   L 121.4,150.73333   L 121.26667,150.8   L 121.13333,150.93333   L 121,151.13333   L 121,151.33333  z   "
     id="path205" />
  <path
     style="fill:#000000;fill-rule:nonzero;fill-opacity:1;stroke:#000000;stroke-width:0.06666667px;stroke-linecap:round;stroke-linejoin:round;stroke-miterlimit:4;stroke-dasharray:none;stroke-opacity:1;"
     d="  M 125.4,153.06667   L 125.4,149.13333   L 125.93333,149.13333   L 125.93333,153.06667   L 125.4,153.06667  z   "
     id="path207" />
  <path
     style="fill:#000000;fill-rule:nonzero;fill-opacity:1;stroke:#000000;stroke-width:0.06666667px;stroke-linecap:round;stroke-linejoin:round;stroke-miterlimit:4;stroke-dasharray:none;stroke-opacity:1;"
     d="  M 126.86667,153.06667   L 126.86667,149.13333   L 128.2,149.13333   L 128.46667,149.13333   L 128.73333,149.13333   L 128.93333,149.2   L 129.2,149.26667   L 129.46667,149.46667   L 129.66667,149.66667   L 129.8,149.86667   L 129.93333,150.13333   L 130,150.4   L 130.06667,150.73333   L 130.06667,151.06667   L 130.06667,151.53333   L 130,151.86667   L 129.86667,152.2   L 129.73333,152.46667   L 129.53333,152.66667   L 129.4,152.8   L 129.13333,152.93333   L 128.93333,153   L 128.6,153.06667   L 128.26667,153.06667   L 126.86667,153.06667  z    M 127.4,152.6   L 128.2,152.6   L 128.6,152.6   L 128.86667,152.53333   L 129.06667,152.46667   L 129.2,152.33333   L 129.33333,152.13333   L 129.46667,151.86667   L 129.53333,151.46667   L 129.6,151.06667   L 129.53333,150.66667   L 129.46667,150.4   L 129.4,150.13333   L 129.2,149.93333   L 129.06667,149.8   L 128.86667,149.66667   L 128.73333,149.6   L 128.46667,149.6   L 128.2,149.6   L 127.4,149.6   L 127.4,152.6  z   "
     id="path209" />
  <path
     style="fill:none;stroke:#000000;stroke-width:0.33333334px;stroke-linecap:round;stroke-linejoin:round;stroke-miterlimit:4;stroke-dasharray:none;stroke-opacity:1;"
     d="  M 130.4,153.06667   L 130.4,153.06667  "
     id="path211" />
  <path
     style="fill:none;stroke:#ff0000;stroke-width:0.13333334px;stroke-linecap:round;stroke-linejoin:round;stroke-miterlimit:4;stroke-dasharray:none;stroke-opacity:1;"
     d="  M 33,62.666667   L 57.666667,62.2   L 82.333333,59.6   L 107,49.533333   L 131.66667,22.666667   L 156.33333,48.4   L 181.06667,113.33333   L 205.73333,127.6  "
     id="path213" />
  <path
     style="fill:none;stroke:#ff0000;stroke-width:0.13333334px;stroke-linecap:round;stroke-linejoin:round;stroke-miterlimit:4;stroke-dasharray:none;stroke-opacity:1;"
     d="  M 34.933333,62.666667   L 34.8,61.933333   L 34.333333,61.333333   L 33.733333,60.933333   L 33,60.8   L 32.266667,60.933333   L 31.666667,61.333333   L 31.2,61.933333   L 31.066667,62.666667   L 31.2,63.466667   L 31.666667,64.066667   L 32.266667,64.466667   L 33,64.6   L 33.733333,64.466667   L 34.333333,64.066667   L 34.8,63.466667   L 34.933333,62.666667  "
     id="path215" />
  <path
     style="fill:none;stroke:#ff0000;stroke-width:0.13333334px;stroke-linecap:round;stroke-linejoin:round;stroke-miterlimit:4;stroke-dasharray:none;stroke-opacity:1;"
     d="  M 33,62.666667   L 33,62.666667  "
     id="path217" />
  <path
     style="fill:none;stroke:#ff0000;stroke-width:0.13333334px;stroke-linecap:round;stroke-linejoin:round;stroke-miterlimit:4;stroke-dasharray:none;stroke-opacity:1;"
     d="  M 59.6,62.2   L 59.4,61.466667   L 59,60.866667   L 58.4,60.466667   L 57.666667,60.266667   L 56.933333,60.466667   L 56.266667,60.866667   L 55.866667,61.466667   L 55.733333,62.2   L 55.866667,62.933333   L 56.266667,63.6   L 56.933333,64   L 57.666667,64.133333   L 58.4,64   L 59,63.6   L 59.4,62.933333   L 59.6,62.2  "
     id="path219" />
  <path
     style="fill:none;stroke:#ff0000;stroke-width:0.13333334px;stroke-linecap:round;stroke-linejoin:round;stroke-miterlimit:4;stroke-dasharray:none;stroke-opacity:1;"
     d="  M 57.666667,62.2   L 57.666667,62.2  "
     id="path221" />
  <path
     style="fill:none;stroke:#ff0000;stroke-width:0.13333334px;stroke-linecap:round;stroke-linejoin:round;stroke-miterlimit:4;stroke-dasharray:none;stroke-opacity:1;"
     d="  M 84.266667,59.6   L 84.133333,58.866667   L 83.733333,58.266667   L 83.066667,57.866667   L 82.333333,57.666667   L 81.6,57.866667   L 81,58.266667   L 80.6,58.866667   L 80.4,59.6   L 80.6,60.333333   L 81,61   L 81.6,61.4   L 82.333333,61.533333   L 83.066667,61.4   L 83.733333,61   L 84.133333,60.333333   L 84.266667,59.6  "
     id="path223" />
  <path
     style="fill:none;stroke:#ff0000;stroke-width:0.13333334px;stroke-linecap:round;stroke-linejoin:round;stroke-miterlimit:4;stroke-dasharray:none;stroke-opacity:1;"
     d="  M 82.333333,59.6   L 82.333333,59.6  "
     id="path225" />
  <path
     style="fill:none;stroke:#ff0000;stroke-width:0.13333334px;stroke-linecap:round;stroke-linejoin:round;stroke-miterlimit:4;stroke-dasharray:none;stroke-opacity:1;"
     d="  M 108.93333,49.533333   L 108.8,48.8   L 108.4,48.2   L 107.73333,47.733333   L 107,47.6   L 106.26667,47.733333   L 105.66667,48.2   L 105.2,48.8   L 105.06667,49.533333   L 105.2,50.266667   L 105.66667,50.866667   L 106.26667,51.333333   L 107,51.466667   L 107.73333,51.333333   L 108.4,50.866667   L 108.8,50.266667   L 108.93333,49.533333  "
     id="path227" />
  <path
     style="fill:none;stroke:#ff0000;stroke-width:0.13333334px;stroke-linecap:round;stroke-linejoin:round;stroke-miterlimit:4;stroke-dasharray:none;stroke-opacity:1;"
     d="  M 107,49.533333   L 107,49.533333  "
     id="path229" />
  <path
     style="fill:none;stroke:#ff0000;stroke-width:0.13333334px;stroke-linecap:round;stroke-linejoin:round;stroke-miterlimit:4;stroke-dasharray:none;stroke-opacity:1;"
     d="  M 133.6,22.666667   L 133.46667,21.933333   L 133.06667,21.333333   L 132.46667,20.866667   L 131.66667,20.733333   L 130.93333,20.866667   L 130.33333,21.333333   L 129.93333,21.933333   L 129.8,22.666667   L 129.93333,23.4   L 130.33333,24.066667   L 130.93333,24.466667   L 131.66667,24.6   L 132.46667,24.466667   L 133.06667,24.066667   L 133.46667,23.4   L 133.6,22.666667  "
     id="path231" />
  <path
     style="fill:none;stroke:#ff0000;stroke-width:0.13333334px;stroke-linecap:round;stroke-linejoin:round;stroke-miterlimit:4;stroke-dasharray:none;stroke-opacity:1;"
     d="  M 131.66667,22.666667   L 131.66667,22.666667  "
     id="path233" />
  <path
     style="fill:none;stroke:#ff0000;stroke-width:0.13333334px;stroke-linecap:round;stroke-linejoin:round;stroke-miterlimit:4;stroke-dasharray:none;stroke-opacity:1;"
     d="  M 158.26667,48.4   L 158.13333,47.666667   L 157.73333,47.066667   L 157.13333,46.6   L 156.33333,46.466667   L 155.6,46.6   L 155,47.066667   L 154.6,47.666667   L 154.4,48.4   L 154.6,49.133333   L 155,49.733333   L 155.6,50.2   L 156.33333,50.333333   L 157.13333,50.2   L 157.73333,49.733333   L 158.13333,49.133333   L 158.26667,48.4  "
     id="path235" />
  <path
     style="fill:none;stroke:#ff0000;stroke-width:0.13333334px;stroke-linecap:round;stroke-linejoin:round;stroke-miterlimit:4;stroke-dasharray:none;stroke-opacity:1;"
     d="  M 156.33333,48.4   L 156.33333,48.4  "
     id="path237" />
  <path
     style="fill:none;stroke:#ff0000;stroke-width:0.13333334px;stroke-linecap:round;stroke-linejoin:round;stroke-miterlimit:4;stroke-dasharray:none;stroke-opacity:1;"
     d="  M 182.93333,113.33333   L 182.8,112.53333   L 182.4,111.93333   L 181.8,111.53333   L 181.06667,111.4   L 180.26667,111.53333   L 179.66667,111.93333   L 179.26667,112.53333   L 179.13333,113.33333   L 179.26667,114.06667   L 179.66667,114.66667   L 180.26667,115.06667   L 181.06667,115.2   L 181.8,115.06667   L 182.4,114.66667   L 182.8,114.06667   L 182.93333,113.33333  "
     id="path239" />
  <path
     style="fill:none;stroke:#ff0000;stroke-width:0.13333334px;stroke-linecap:round;stroke-linejoin:round;stroke-miterlimit:4;stroke-dasharray:none;stroke-opacity:1;"
     d="  M 181.06667,113.33333   L 181.06667,113.33333  "
     id="path241" />
  <path
     style="fill:none;stroke:#ff0000;stroke-width:0.13333334px;stroke-linecap:round;stroke-linejoin:round;stroke-miterlimit:4;stroke-dasharray:none;stroke-opacity:1;"
     d="  M 207.6,127.6   L 207.46667,126.86667   L 207.06667,126.26667   L 206.46667,125.8   L 205.73333,125.66667   L 204.93333,125.8   L 204.33333,126.26667   L 203.93333,126.86667   L 203.8,127.6   L 203.93333,128.33333   L 204.33333,128.93333   L 204.93333,129.4   L 205.73333,129.53333   L 206.46667,129.4   L 207.06667,128.93333   L 207.46667,128.33333   L 207.6,127.6  "
     id="path243" />
  <path
     style="fill:none;stroke:#ff0000;stroke-width:0.13333334px;stroke-linecap:round;stroke-linejoin:round;stroke-miterlimit:4;stroke-dasharray:none;stroke-opacity:1;"
     d="  M 205.73333,127.6   L 205.73333,127.6  "
     id="path245" />
  <path
     style="fill:none;stroke:#000000;stroke-width:0.33333334px;stroke-linecap:round;stroke-linejoin:round;stroke-miterlimit:4;stroke-dasharray:none;stroke-opacity:1;"
     d="  M 28.066667,137.53333   L 210.66667,137.53333   L 210.66667,6.6   L 28.066667,6.6   L 28.066667,137.53333  "
     id="path247" />
</svg>
