<?xml version="1.0" encoding="UTF-8" standalone="no"?>
<svg
   xmlns:dc="http://purl.org/dc/elements/1.1/"
   xmlns:cc="http://creativecommons.org/ns#"
   xmlns:rdf="http://www.w3.org/1999/02/22-rdf-syntax-ns#"
   xmlns:svg="http://www.w3.org/2000/svg"
   xmlns="http://www.w3.org/2000/svg"
   xmlns:sodipodi="http://sodipodi.sourceforge.net/DTD/sodipodi-0.dtd"
   xmlns:inkscape="http://www.inkscape.org/namespaces/inkscape"
   version="1.0"
   width="169.22mm"
   height="118.56mm"
   id="svg175"
   sodipodi:docname="image85.svg"
   inkscape:version="1.0.2-2 (e86c870879, 2021-01-15)">
  <metadata
     id="metadata179">
    <rdf:RDF>
      <cc:Work
         rdf:about="">
        <dc:format>image/svg+xml</dc:format>
        <dc:type
           rdf:resource="http://purl.org/dc/dcmitype/StillImage" />
        <dc:title></dc:title>
      </cc:Work>
    </rdf:RDF>
  </metadata>
  <sodipodi:namedview
     pagecolor="#ffffff"
     bordercolor="#666666"
     borderopacity="1"
     objecttolerance="10"
     gridtolerance="10"
     guidetolerance="10"
     inkscape:pageopacity="0"
     inkscape:pageshadow="2"
     inkscape:window-width="1858"
     inkscape:window-height="1057"
     id="namedview177"
     showgrid="false"
     inkscape:zoom="1.9861604"
     inkscape:cx="319.78583"
     inkscape:cy="224.05039"
     inkscape:window-x="-8"
     inkscape:window-y="-8"
     inkscape:window-maximized="1"
     inkscape:current-layer="svg175" />
  <defs
     id="defs3">
    <pattern
       id="EMFhbasepattern"
       patternUnits="userSpaceOnUse"
       width="6"
       height="6"
       x="0"
       y="0" />
  </defs>
  <path
     style="fill:none;stroke:#000000;stroke-width:0.19388485px;stroke-linecap:round;stroke-linejoin:round;stroke-miterlimit:4;stroke-dasharray:none;stroke-opacity:1;"
     d="  M 0,0   L 638.26894,0   L 638.26894,446.51682   L 0,446.51682   z "
     id="path5" />
  <path
     style="fill:none;stroke:#000000;stroke-width:0.96942425px;stroke-linecap:round;stroke-linejoin:round;stroke-miterlimit:4;stroke-dasharray:none;stroke-opacity:1;"
     d="  M 108.7694,422.28121   L 114.39206,422.28121  "
     id="path7" />
  <path
     style="fill:none;stroke:#000000;stroke-width:0.96942425px;stroke-linecap:round;stroke-linejoin:round;stroke-miterlimit:4;stroke-dasharray:none;stroke-opacity:1;"
     d="  M 603.56355,422.28121   L 597.94089,422.28121  "
     id="path9" />
  <path
     style="fill:#000000;fill-rule:nonzero;fill-opacity:1;stroke:#000000;stroke-width:0.19388485px;stroke-linecap:round;stroke-linejoin:round;stroke-miterlimit:4;stroke-dasharray:none;stroke-opacity:1;"
     d="  M 85.115451,421.89345   L 85.115451,419.37294   L 85.697106,417.43409   L 85.890991,416.65855   L 86.66653,415.49524   L 88.411494,414.33194   L 89.187033,414.13805   L 90.931997,414.13805   L 92.095306,414.52582   L 92.676961,414.91359   L 93.4525,415.68913   L 94.034155,416.85244   L 94.421925,417.43409   L 94.615809,418.40352   L 94.809694,419.9546   L 95.003579,421.89345   L 94.809694,424.41395   L 94.615809,426.3528   L 93.4525,428.29165   L 92.870846,428.8733   L 92.095306,429.26107   L 91.125882,429.64884   L 90.156458,429.64884   L 88.023724,429.26107   L 86.66653,428.09776   L 85.697106,426.54668   L 85.115451,424.41395   L 85.115451,421.89345  z    M 87.0543,421.89345   L 87.0543,424.02618   L 87.44207,425.57726   L 87.829839,426.74057   L 89.574803,427.90388   L 90.738112,427.90388   L 91.125882,427.51611   L 91.707537,427.32222   L 92.095306,426.74057   L 92.676961,425.57726   L 92.870846,424.02618   L 93.064731,421.89345   L 92.870846,419.76071   L 92.676961,418.20963   L 92.095306,417.04632   L 91.707537,416.65855   L 91.125882,416.27078   L 89.962573,415.88301   L 89.380918,415.88301   L 88.799264,416.27078   L 88.217609,416.46467   L 87.829839,417.04632   L 87.44207,418.20963   L 87.0543,419.76071   L 87.0543,421.89345  z   "
     id="path11" />
  <path
     style="fill:none;stroke:#000000;stroke-width:0.96942425px;stroke-linecap:round;stroke-linejoin:round;stroke-miterlimit:4;stroke-dasharray:none;stroke-opacity:1;"
     d="  M 108.7694,372.25892   L 114.39206,372.25892  "
     id="path13" />
  <path
     style="fill:none;stroke:#000000;stroke-width:0.96942425px;stroke-linecap:round;stroke-linejoin:round;stroke-miterlimit:4;stroke-dasharray:none;stroke-opacity:1;"
     d="  M 603.56355,372.25892   L 597.94089,372.25892  "
     id="path15" />
  <path
     style="fill:#000000;fill-rule:nonzero;fill-opacity:1;stroke:#000000;stroke-width:0.19388485px;stroke-linecap:round;stroke-linejoin:round;stroke-miterlimit:4;stroke-dasharray:none;stroke-opacity:1;"
     d="  M 68.441354,379.43266   L 66.502505,379.43266   L 66.502505,367.4118   L 65.920851,367.79957   L 65.339196,368.38123   L 64.757542,368.76899   L 63.982002,369.15676   L 63.400348,369.35065   L 62.818693,369.73842   L 62.818693,367.79957   L 64.369772,367.02403   L 64.951427,366.63626   L 66.114736,365.47295   L 66.69639,364.69741   L 67.08416,364.11576   L 68.441354,364.11576   L 68.441354,379.43266  z   "
     id="path17" />
  <path
     style="fill:#000000;fill-rule:nonzero;fill-opacity:1;stroke:#000000;stroke-width:0.19388485px;stroke-linecap:round;stroke-linejoin:round;stroke-miterlimit:4;stroke-dasharray:none;stroke-opacity:1;"
     d="  M 73.288475,371.87115   L 73.48236,369.35065   L 74.064015,367.4118   L 74.2579,366.63626   L 75.033439,365.47295   L 76.778403,364.30964   L 77.553942,364.11576   L 79.105021,364.11576   L 79.88056,364.30964   L 80.462215,364.50353   L 80.849985,364.8913   L 81.431639,365.27907   L 81.819409,365.66684   L 82.594948,367.21792   L 82.982718,368.38123   L 83.176603,369.9323   L 83.370488,371.87115   L 83.176603,374.39166   L 82.982718,376.3305   L 81.819409,378.26935   L 81.04387,378.85101   L 80.462215,379.23878   L 79.298906,379.62655   L 78.523366,379.62655   L 76.390633,379.23878   L 74.839554,378.07547   L 74.064015,376.52439   L 73.48236,374.39166   L 73.288475,371.87115  z    M 75.421209,371.87115   L 75.421209,374.00389   L 75.615094,375.55496   L 76.196748,376.71827   L 76.778403,377.10604   L 77.166172,377.49381   L 77.747827,377.88158   L 79.105021,377.88158   L 79.492791,377.49381   L 80.074445,377.29993   L 80.462215,376.71827   L 81.04387,375.55496   L 81.237754,374.00389   L 81.237754,369.73842   L 81.04387,368.18734   L 80.462215,367.02403   L 80.074445,366.63626   L 79.492791,366.24849   L 78.911136,366.05461   L 78.135597,365.86072   L 77.360057,366.05461   L 76.778403,366.44238   L 76.196748,367.02403   L 75.615094,368.18734   L 75.421209,369.73842   L 75.421209,371.87115  z   "
     id="path19" />
  <path
     style="fill:#000000;fill-rule:nonzero;fill-opacity:1;stroke:#000000;stroke-width:0.19388485px;stroke-linecap:round;stroke-linejoin:round;stroke-miterlimit:4;stroke-dasharray:none;stroke-opacity:1;"
     d="  M 85.115451,371.87115   L 85.309336,369.35065   L 85.697106,367.4118   L 86.084876,366.44238   L 86.66653,365.66684   L 87.248185,365.08518   L 87.829839,364.69741   L 88.605379,364.30964   L 89.380918,364.11576   L 90.931997,364.11576   L 91.707537,364.30964   L 92.289191,364.50353   L 92.676961,364.8913   L 93.258615,365.27907   L 93.4525,365.66684   L 93.84027,366.05461   L 94.615809,368.38123   L 95.003579,369.9323   L 95.197464,371.87115   L 95.003579,374.39166   L 94.615809,376.3305   L 94.22804,377.29993   L 93.4525,378.26935   L 92.870846,378.85101   L 92.289191,379.23878   L 91.707537,379.43266   L 90.931997,379.62655   L 90.156458,379.62655   L 88.217609,379.23878   L 86.66653,378.07547   L 85.697106,376.52439   L 85.309336,374.39166   L 85.115451,371.87115  z    M 87.0543,371.87115   L 87.248185,374.00389   L 87.44207,375.55496   L 88.023724,376.71827   L 88.605379,377.10604   L 88.993149,377.49381   L 89.574803,377.88158   L 90.738112,377.88158   L 91.319767,377.49381   L 91.901421,377.29993   L 92.289191,376.71827   L 92.676961,375.55496   L 93.064731,374.00389   L 93.064731,369.73842   L 92.676961,368.18734   L 92.289191,367.02403   L 91.901421,366.63626   L 91.319767,366.24849   L 90.738112,366.05461   L 89.962573,365.86072   L 89.380918,365.86072   L 88.799264,366.24849   L 88.411494,366.44238   L 88.023724,367.02403   L 87.44207,368.18734   L 87.248185,369.73842   L 87.0543,371.87115  z   "
     id="path21" />
  <path
     style="fill:none;stroke:#000000;stroke-width:0.96942425px;stroke-linecap:round;stroke-linejoin:round;stroke-miterlimit:4;stroke-dasharray:none;stroke-opacity:1;"
     d="  M 108.7694,322.23663   L 114.39206,322.23663  "
     id="path23" />
  <path
     style="fill:none;stroke:#000000;stroke-width:0.96942425px;stroke-linecap:round;stroke-linejoin:round;stroke-miterlimit:4;stroke-dasharray:none;stroke-opacity:1;"
     d="  M 603.56355,322.23663   L 597.94089,322.23663  "
     id="path25" />
  <path
     style="fill:#000000;fill-rule:nonzero;fill-opacity:1;stroke:#000000;stroke-width:0.19388485px;stroke-linecap:round;stroke-linejoin:round;stroke-miterlimit:4;stroke-dasharray:none;stroke-opacity:1;"
     d="  M 71.349627,327.47152   L 71.349627,329.41037   L 61.267614,329.41037   L 61.267614,328.82871   L 61.655384,328.05318   L 61.849269,327.27764   L 62.237039,326.5021   L 62.624808,325.92044   L 63.206463,325.1449   L 65.145311,323.59382   L 65.920851,322.81828   L 66.69639,322.23663   L 67.47193,321.46109   L 67.859699,320.87944   L 68.247469,320.49167   L 68.635239,319.91001   L 69.023008,318.7467   L 69.023008,317.58339   L 68.829124,317.00174   L 68.441354,316.61397   L 67.859699,316.2262   L 67.08416,316.03231   L 66.502505,315.83843   L 65.726966,315.83843   L 64.951427,316.2262   L 64.369772,316.61397   L 63.982002,317.00174   L 63.788117,317.38951   L 63.594233,317.97116   L 63.594233,318.55282   L 61.655384,318.35893   L 62.043154,316.42008   L 63.206463,315.25677   L 64.563657,314.48124   L 66.502505,314.09347   L 68.441354,314.48124   L 69.798548,315.25677   L 70.380202,315.83843   L 70.767972,316.61397   L 70.961857,317.38951   L 71.155742,318.35893   L 71.155742,318.94059   L 70.961857,319.52224   L 70.574087,320.1039   L 70.380202,320.49167   L 70.186318,321.07332   L 69.992433,321.46109   L 69.604663,321.84886   L 69.216893,322.43051   L 67.859699,323.78771   L 66.890275,324.56325   L 66.114736,325.1449   L 64.757542,326.5021   L 64.563657,326.88987   L 64.175887,327.08375   L 63.982002,327.47152   L 71.349627,327.47152  z   "
     id="path27" />
  <path
     style="fill:#000000;fill-rule:nonzero;fill-opacity:1;stroke:#000000;stroke-width:0.19388485px;stroke-linecap:round;stroke-linejoin:round;stroke-miterlimit:4;stroke-dasharray:none;stroke-opacity:1;"
     d="  M 73.288475,321.84886   L 73.48236,319.32836   L 74.064015,317.38951   L 74.2579,316.61397   L 75.033439,315.45066   L 76.778403,314.28735   L 77.553942,314.09347   L 79.105021,314.09347   L 79.88056,314.28735   L 80.462215,314.48124   L 80.849985,314.86901   L 81.431639,315.25677   L 81.819409,315.64454   L 82.594948,317.19562   L 82.982718,318.35893   L 83.176603,319.91001   L 83.370488,321.84886   L 83.176603,324.36936   L 82.982718,326.30821   L 81.819409,328.24706   L 81.04387,328.82871   L 80.462215,329.21648   L 79.298906,329.60425   L 78.523366,329.60425   L 76.390633,329.21648   L 74.839554,328.05318   L 74.064015,326.5021   L 73.48236,324.36936   L 73.288475,321.84886  z    M 75.421209,321.84886   L 75.421209,323.98159   L 75.615094,325.53267   L 76.196748,326.69598   L 76.778403,327.08375   L 77.166172,327.47152   L 77.747827,327.85929   L 79.105021,327.85929   L 79.492791,327.47152   L 80.074445,327.27764   L 80.462215,326.69598   L 81.04387,325.53267   L 81.237754,323.98159   L 81.237754,319.71613   L 81.04387,318.16505   L 80.462215,317.00174   L 80.074445,316.61397   L 79.492791,316.2262   L 78.911136,316.03231   L 78.135597,315.83843   L 77.360057,316.03231   L 76.778403,316.42008   L 76.196748,317.00174   L 75.615094,318.16505   L 75.421209,319.71613   L 75.421209,321.84886  z   "
     id="path29" />
  <path
     style="fill:#000000;fill-rule:nonzero;fill-opacity:1;stroke:#000000;stroke-width:0.19388485px;stroke-linecap:round;stroke-linejoin:round;stroke-miterlimit:4;stroke-dasharray:none;stroke-opacity:1;"
     d="  M 85.115451,321.84886   L 85.309336,319.32836   L 85.697106,317.38951   L 86.084876,316.42008   L 86.66653,315.64454   L 87.248185,315.06289   L 87.829839,314.67512   L 88.605379,314.28735   L 89.380918,314.09347   L 90.931997,314.09347   L 91.707537,314.28735   L 92.289191,314.48124   L 92.676961,314.86901   L 93.258615,315.25677   L 93.4525,315.64454   L 93.84027,316.03231   L 94.615809,318.35893   L 95.003579,319.91001   L 95.197464,321.84886   L 95.003579,324.36936   L 94.615809,326.30821   L 94.22804,327.27764   L 93.4525,328.24706   L 92.870846,328.82871   L 92.289191,329.21648   L 91.707537,329.41037   L 90.931997,329.60425   L 90.156458,329.60425   L 88.217609,329.21648   L 86.66653,328.05318   L 85.697106,326.5021   L 85.309336,324.36936   L 85.115451,321.84886  z    M 87.0543,321.84886   L 87.248185,323.98159   L 87.44207,325.53267   L 88.023724,326.69598   L 88.605379,327.08375   L 88.993149,327.47152   L 89.574803,327.85929   L 90.738112,327.85929   L 91.319767,327.47152   L 91.901421,327.27764   L 92.289191,326.69598   L 92.676961,325.53267   L 93.064731,323.98159   L 93.064731,319.71613   L 92.676961,318.16505   L 92.289191,317.00174   L 91.901421,316.61397   L 91.319767,316.2262   L 90.738112,316.03231   L 89.962573,315.83843   L 89.380918,315.83843   L 88.799264,316.2262   L 88.411494,316.42008   L 88.023724,317.00174   L 87.44207,318.16505   L 87.248185,319.71613   L 87.0543,321.84886  z   "
     id="path31" />
  <path
     style="fill:none;stroke:#000000;stroke-width:0.96942425px;stroke-linecap:round;stroke-linejoin:round;stroke-miterlimit:4;stroke-dasharray:none;stroke-opacity:1;"
     d="  M 108.7694,272.40822   L 114.39206,272.40822  "
     id="path33" />
  <path
     style="fill:none;stroke:#000000;stroke-width:0.96942425px;stroke-linecap:round;stroke-linejoin:round;stroke-miterlimit:4;stroke-dasharray:none;stroke-opacity:1;"
     d="  M 603.56355,272.40822   L 597.94089,272.40822  "
     id="path35" />
  <path
     style="fill:#000000;fill-rule:nonzero;fill-opacity:1;stroke:#000000;stroke-width:0.19388485px;stroke-linecap:round;stroke-linejoin:round;stroke-miterlimit:4;stroke-dasharray:none;stroke-opacity:1;"
     d="  M 61.655384,275.51038   L 63.594233,275.31649   L 64.175887,277.06146   L 64.757542,277.44923   L 65.145311,277.837   L 65.726966,278.03088   L 67.08416,278.03088   L 68.247469,277.64311   L 68.635239,277.06146   L 69.216893,276.4798   L 69.604663,274.92872   L 69.604663,274.34707   L 69.410778,273.76542   L 67.859699,272.21434   L 67.278045,272.02045   L 65.920851,272.02045   L 65.339196,272.21434   L 65.533081,270.46937   L 66.502505,270.46937   L 67.08416,270.27549   L 67.859699,270.0816   L 68.635239,268.91829   L 68.635239,267.75499   L 68.441354,267.17333   L 68.053584,266.78556   L 67.47193,266.39779   L 67.08416,266.20391   L 66.502505,266.01002   L 65.726966,266.01002   L 65.145311,266.39779   L 64.369772,267.17333   L 63.982002,267.75499   L 63.788117,268.53052   L 61.849269,268.33664   L 62.043154,267.36722   L 62.237039,266.59168   L 62.818693,265.81614   L 63.400348,265.42837   L 63.982002,264.84671   L 64.757542,264.65283   L 65.339196,264.26506   L 67.08416,264.26506   L 67.859699,264.45894   L 68.441354,264.65283   L 69.023008,265.0406   L 69.798548,265.62225   L 70.186318,266.20391   L 70.574087,267.36722   L 70.574087,268.72441   L 70.186318,269.88772   L 69.798548,270.46937   L 69.216893,270.85714   L 68.635239,271.05103   L 70.186318,271.82657   L 71.349627,273.57153   L 71.543512,274.34707   L 71.543512,274.92872   L 71.155742,276.86757   L 69.992433,278.41865   L 68.441354,279.38808   L 66.502505,279.77585   L 64.563657,279.58196   L 63.206463,278.61254   L 62.624808,278.03088   L 62.043154,277.25534   L 61.849269,276.4798   L 61.655384,275.51038  z   "
     id="path37" />
  <path
     style="fill:#000000;fill-rule:nonzero;fill-opacity:1;stroke:#000000;stroke-width:0.19388485px;stroke-linecap:round;stroke-linejoin:round;stroke-miterlimit:4;stroke-dasharray:none;stroke-opacity:1;"
     d="  M 73.288475,272.02045   L 73.48236,269.49995   L 74.064015,267.5611   L 74.2579,266.78556   L 75.033439,265.62225   L 76.778403,264.45894   L 77.553942,264.26506   L 79.105021,264.26506   L 79.88056,264.45894   L 80.462215,264.65283   L 80.849985,265.0406   L 81.431639,265.42837   L 81.819409,265.81614   L 82.594948,267.36722   L 82.982718,268.53052   L 83.176603,270.0816   L 83.370488,272.02045   L 83.176603,274.54096   L 82.982718,276.4798   L 81.819409,278.41865   L 81.04387,279.00031   L 80.462215,279.38808   L 79.298906,279.77585   L 78.523366,279.77585   L 76.390633,279.38808   L 74.839554,278.22477   L 74.064015,276.67369   L 73.48236,274.54096   L 73.288475,272.02045  z    M 75.421209,272.02045   L 75.421209,274.15319   L 75.615094,275.70426   L 76.196748,276.86757   L 76.778403,277.25534   L 77.166172,277.64311   L 77.747827,278.03088   L 79.105021,278.03088   L 79.492791,277.64311   L 80.074445,277.44923   L 80.462215,276.86757   L 81.04387,275.70426   L 81.237754,274.15319   L 81.237754,269.88772   L 81.04387,268.33664   L 80.462215,267.17333   L 80.074445,266.78556   L 79.492791,266.39779   L 78.911136,266.20391   L 78.135597,266.01002   L 77.360057,266.20391   L 76.778403,266.59168   L 76.196748,267.17333   L 75.615094,268.33664   L 75.421209,269.88772   L 75.421209,272.02045  z   "
     id="path39" />
  <path
     style="fill:#000000;fill-rule:nonzero;fill-opacity:1;stroke:#000000;stroke-width:0.19388485px;stroke-linecap:round;stroke-linejoin:round;stroke-miterlimit:4;stroke-dasharray:none;stroke-opacity:1;"
     d="  M 85.115451,272.02045   L 85.309336,269.49995   L 85.697106,267.5611   L 86.084876,266.59168   L 86.66653,265.81614   L 87.248185,265.23448   L 87.829839,264.84671   L 88.605379,264.45894   L 89.380918,264.26506   L 90.931997,264.26506   L 91.707537,264.45894   L 92.289191,264.65283   L 92.676961,265.0406   L 93.258615,265.42837   L 93.4525,265.81614   L 93.84027,266.20391   L 94.615809,268.53052   L 95.003579,270.0816   L 95.197464,272.02045   L 95.003579,274.54096   L 94.615809,276.4798   L 94.22804,277.44923   L 93.4525,278.41865   L 92.870846,279.00031   L 92.289191,279.38808   L 91.707537,279.58196   L 90.931997,279.77585   L 90.156458,279.77585   L 88.217609,279.38808   L 86.66653,278.22477   L 85.697106,276.67369   L 85.309336,274.54096   L 85.115451,272.02045  z    M 87.0543,272.02045   L 87.248185,274.15319   L 87.44207,275.70426   L 88.023724,276.86757   L 88.605379,277.25534   L 88.993149,277.64311   L 89.574803,278.03088   L 90.738112,278.03088   L 91.319767,277.64311   L 91.901421,277.44923   L 92.289191,276.86757   L 92.676961,275.70426   L 93.064731,274.15319   L 93.064731,269.88772   L 92.676961,268.33664   L 92.289191,267.17333   L 91.901421,266.78556   L 91.319767,266.39779   L 90.738112,266.20391   L 89.962573,266.01002   L 89.380918,266.01002   L 88.799264,266.39779   L 88.411494,266.59168   L 88.023724,267.17333   L 87.44207,268.33664   L 87.248185,269.88772   L 87.0543,272.02045  z   "
     id="path41" />
  <path
     style="fill:none;stroke:#000000;stroke-width:0.96942425px;stroke-linecap:round;stroke-linejoin:round;stroke-miterlimit:4;stroke-dasharray:none;stroke-opacity:1;"
     d="  M 108.7694,222.38593   L 114.39206,222.38593  "
     id="path43" />
  <path
     style="fill:none;stroke:#000000;stroke-width:0.96942425px;stroke-linecap:round;stroke-linejoin:round;stroke-miterlimit:4;stroke-dasharray:none;stroke-opacity:1;"
     d="  M 603.56355,222.38593   L 597.94089,222.38593  "
     id="path45" />
  <path
     style="fill:#000000;fill-rule:nonzero;fill-opacity:1;stroke:#000000;stroke-width:0.19388485px;stroke-linecap:round;stroke-linejoin:round;stroke-miterlimit:4;stroke-dasharray:none;stroke-opacity:1;"
     d="  M 67.859699,229.55967   L 67.859699,226.06974   L 60.879845,226.06974   L 60.879845,223.93701   L 68.247469,214.43665   L 69.798548,214.43665   L 69.798548,223.93701   L 71.543512,223.93701   L 71.543512,226.06974   L 69.798548,226.06974   L 69.798548,229.55967   L 67.859699,229.55967  z    M 67.859699,223.93701   L 67.859699,218.31435   L 63.400348,223.93701   L 67.859699,223.93701  z   "
     id="path47" />
  <path
     style="fill:#000000;fill-rule:nonzero;fill-opacity:1;stroke:#000000;stroke-width:0.19388485px;stroke-linecap:round;stroke-linejoin:round;stroke-miterlimit:4;stroke-dasharray:none;stroke-opacity:1;"
     d="  M 73.288475,221.99816   L 73.48236,219.47766   L 74.064015,217.53881   L 74.2579,216.76327   L 75.033439,215.59996   L 76.778403,214.43665   L 77.553942,214.24277   L 79.105021,214.24277   L 79.88056,214.43665   L 80.462215,214.63053   L 80.849985,215.0183   L 81.431639,215.40607   L 81.819409,215.79384   L 82.594948,217.34492   L 82.982718,218.50823   L 83.176603,220.05931   L 83.370488,221.99816   L 83.176603,224.51866   L 82.982718,226.45751   L 81.819409,228.39636   L 81.04387,228.97801   L 80.462215,229.36578   L 79.298906,229.75355   L 78.523366,229.75355   L 76.390633,229.36578   L 74.839554,228.20247   L 74.064015,226.6514   L 73.48236,224.51866   L 73.288475,221.99816  z    M 75.421209,221.99816   L 75.421209,224.13089   L 75.615094,225.68197   L 76.196748,226.84528   L 76.778403,227.23305   L 77.166172,227.62082   L 77.747827,228.00859   L 79.105021,228.00859   L 79.492791,227.62082   L 80.074445,227.42694   L 80.462215,226.84528   L 81.04387,225.68197   L 81.237754,224.13089   L 81.237754,219.86543   L 81.04387,218.31435   L 80.462215,217.15104   L 80.074445,216.76327   L 79.492791,216.3755   L 78.911136,216.18161   L 78.135597,215.98773   L 77.360057,216.18161   L 76.778403,216.56938   L 76.196748,217.15104   L 75.615094,218.31435   L 75.421209,219.86543   L 75.421209,221.99816  z   "
     id="path49" />
  <path
     style="fill:#000000;fill-rule:nonzero;fill-opacity:1;stroke:#000000;stroke-width:0.19388485px;stroke-linecap:round;stroke-linejoin:round;stroke-miterlimit:4;stroke-dasharray:none;stroke-opacity:1;"
     d="  M 85.115451,221.99816   L 85.309336,219.47766   L 85.697106,217.53881   L 86.084876,216.56938   L 86.66653,215.79384   L 87.248185,215.21219   L 87.829839,214.82442   L 88.605379,214.43665   L 89.380918,214.24277   L 90.931997,214.24277   L 91.707537,214.43665   L 92.289191,214.63053   L 92.676961,215.0183   L 93.258615,215.40607   L 93.4525,215.79384   L 93.84027,216.18161   L 94.615809,218.50823   L 95.003579,220.05931   L 95.197464,221.99816   L 95.003579,224.51866   L 94.615809,226.45751   L 94.22804,227.42694   L 93.4525,228.39636   L 92.870846,228.97801   L 92.289191,229.36578   L 91.707537,229.55967   L 90.931997,229.75355   L 90.156458,229.75355   L 88.217609,229.36578   L 86.66653,228.20247   L 85.697106,226.6514   L 85.309336,224.51866   L 85.115451,221.99816  z    M 87.0543,221.99816   L 87.248185,224.13089   L 87.44207,225.68197   L 88.023724,226.84528   L 88.605379,227.23305   L 88.993149,227.62082   L 89.574803,228.00859   L 90.738112,228.00859   L 91.319767,227.62082   L 91.901421,227.42694   L 92.289191,226.84528   L 92.676961,225.68197   L 93.064731,224.13089   L 93.064731,219.86543   L 92.676961,218.31435   L 92.289191,217.15104   L 91.901421,216.76327   L 91.319767,216.3755   L 90.738112,216.18161   L 89.962573,215.98773   L 89.380918,215.98773   L 88.799264,216.3755   L 88.411494,216.56938   L 88.023724,217.15104   L 87.44207,218.31435   L 87.248185,219.86543   L 87.0543,221.99816  z   "
     id="path51" />
  <path
     style="fill:none;stroke:#000000;stroke-width:0.96942425px;stroke-linecap:round;stroke-linejoin:round;stroke-miterlimit:4;stroke-dasharray:none;stroke-opacity:1;"
     d="  M 108.7694,172.36364   L 114.39206,172.36364  "
     id="path53" />
  <path
     style="fill:none;stroke:#000000;stroke-width:0.96942425px;stroke-linecap:round;stroke-linejoin:round;stroke-miterlimit:4;stroke-dasharray:none;stroke-opacity:1;"
     d="  M 603.56355,172.36364   L 597.94089,172.36364  "
     id="path55" />
  <path
     style="fill:#000000;fill-rule:nonzero;fill-opacity:1;stroke:#000000;stroke-width:0.19388485px;stroke-linecap:round;stroke-linejoin:round;stroke-miterlimit:4;stroke-dasharray:none;stroke-opacity:1;"
     d="  M 61.655384,175.46579   L 63.594233,175.27191   L 63.982002,176.82299   L 64.369772,177.40464   L 64.951427,177.79241   L 65.726966,177.9863   L 67.08416,177.9863   L 68.247469,177.59853   L 69.410778,175.85356   L 69.604663,175.27191   L 69.604663,173.72083   L 69.216893,172.55752   L 68.829124,171.97587   L 68.441354,171.5881   L 67.859699,171.20033   L 67.278045,171.20033   L 66.502505,171.00644   L 65.339196,171.39421   L 64.563657,171.78198   L 63.982002,171.97587   L 63.788117,172.36364   L 61.849269,172.16975   L 63.400348,164.41436   L 70.574087,164.41436   L 70.574087,166.35321   L 64.951427,166.35321   L 64.175887,170.42479   L 65.145311,169.84313   L 65.920851,169.45536   L 66.890275,169.26148   L 68.635239,169.64925   L 70.186318,170.61867   L 71.155742,172.16975   L 71.543512,174.1086   L 71.155742,176.24133   L 70.380202,177.9863   L 68.635239,179.34349   L 66.502505,179.73126   L 64.563657,179.53738   L 63.206463,178.56795   L 62.624808,177.9863   L 62.043154,177.21076   L 61.849269,176.43522   L 61.655384,175.46579  z   "
     id="path57" />
  <path
     style="fill:#000000;fill-rule:nonzero;fill-opacity:1;stroke:#000000;stroke-width:0.19388485px;stroke-linecap:round;stroke-linejoin:round;stroke-miterlimit:4;stroke-dasharray:none;stroke-opacity:1;"
     d="  M 73.288475,171.97587   L 73.48236,169.45536   L 74.064015,167.51651   L 74.2579,166.74098   L 75.033439,165.57767   L 76.778403,164.41436   L 77.553942,164.22047   L 79.105021,164.22047   L 79.88056,164.41436   L 80.462215,164.60824   L 80.849985,164.99601   L 81.431639,165.38378   L 81.819409,165.77155   L 82.594948,167.32263   L 82.982718,168.48594   L 83.176603,170.03702   L 83.370488,171.97587   L 83.176603,174.49637   L 82.982718,176.43522   L 81.819409,178.37407   L 81.04387,178.95572   L 80.462215,179.34349   L 79.298906,179.73126   L 78.523366,179.73126   L 76.390633,179.34349   L 74.839554,178.18018   L 74.064015,176.6291   L 73.48236,174.49637   L 73.288475,171.97587  z    M 75.421209,171.97587   L 75.421209,174.1086   L 75.615094,175.65968   L 76.196748,176.82299   L 76.778403,177.21076   L 77.166172,177.59853   L 77.747827,177.9863   L 79.105021,177.9863   L 79.492791,177.59853   L 80.074445,177.40464   L 80.462215,176.82299   L 81.04387,175.65968   L 81.237754,174.1086   L 81.237754,169.84313   L 81.04387,168.29205   L 80.462215,167.12875   L 80.074445,166.74098   L 79.492791,166.35321   L 78.911136,166.15932   L 78.135597,165.96544   L 77.360057,166.15932   L 76.778403,166.54709   L 76.196748,167.12875   L 75.615094,168.29205   L 75.421209,169.84313   L 75.421209,171.97587  z   "
     id="path59" />
  <path
     style="fill:#000000;fill-rule:nonzero;fill-opacity:1;stroke:#000000;stroke-width:0.19388485px;stroke-linecap:round;stroke-linejoin:round;stroke-miterlimit:4;stroke-dasharray:none;stroke-opacity:1;"
     d="  M 85.115451,171.97587   L 85.309336,169.45536   L 85.697106,167.51651   L 86.084876,166.54709   L 86.66653,165.77155   L 87.248185,165.1899   L 87.829839,164.80213   L 88.605379,164.41436   L 89.380918,164.22047   L 90.931997,164.22047   L 91.707537,164.41436   L 92.289191,164.60824   L 92.676961,164.99601   L 93.258615,165.38378   L 93.4525,165.77155   L 93.84027,166.15932   L 94.615809,168.48594   L 95.003579,170.03702   L 95.197464,171.97587   L 95.003579,174.49637   L 94.615809,176.43522   L 94.22804,177.40464   L 93.4525,178.37407   L 92.870846,178.95572   L 92.289191,179.34349   L 91.707537,179.53738   L 90.931997,179.73126   L 90.156458,179.73126   L 88.217609,179.34349   L 86.66653,178.18018   L 85.697106,176.6291   L 85.309336,174.49637   L 85.115451,171.97587  z    M 87.0543,171.97587   L 87.248185,174.1086   L 87.44207,175.65968   L 88.023724,176.82299   L 88.605379,177.21076   L 88.993149,177.59853   L 89.574803,177.9863   L 90.738112,177.9863   L 91.319767,177.59853   L 91.901421,177.40464   L 92.289191,176.82299   L 92.676961,175.65968   L 93.064731,174.1086   L 93.064731,169.84313   L 92.676961,168.29205   L 92.289191,167.12875   L 91.901421,166.74098   L 91.319767,166.35321   L 90.738112,166.15932   L 89.962573,165.96544   L 89.380918,165.96544   L 88.799264,166.35321   L 88.411494,166.54709   L 88.023724,167.12875   L 87.44207,168.29205   L 87.248185,169.84313   L 87.0543,171.97587  z   "
     id="path61" />
  <path
     style="fill:none;stroke:#000000;stroke-width:0.96942425px;stroke-linecap:round;stroke-linejoin:round;stroke-miterlimit:4;stroke-dasharray:none;stroke-opacity:1;"
     d="  M 108.7694,122.34134   L 114.39206,122.34134  "
     id="path63" />
  <path
     style="fill:none;stroke:#000000;stroke-width:0.96942425px;stroke-linecap:round;stroke-linejoin:round;stroke-miterlimit:4;stroke-dasharray:none;stroke-opacity:1;"
     d="  M 603.56355,122.34134   L 597.94089,122.34134  "
     id="path65" />
  <path
     style="fill:#000000;fill-rule:nonzero;fill-opacity:1;stroke:#000000;stroke-width:0.19388485px;stroke-linecap:round;stroke-linejoin:round;stroke-miterlimit:4;stroke-dasharray:none;stroke-opacity:1;"
     d="  M 71.349627,118.26976   L 69.410778,118.46365   L 69.216893,117.68811   L 68.829124,117.30034   L 68.635239,116.91257   L 67.859699,116.13703   L 67.47193,115.94314   L 66.890275,115.94314   L 65.920851,116.13703   L 65.145311,116.33091   L 64.757542,116.91257   L 64.175887,117.49422   L 63.788117,118.26976   L 63.400348,119.43307   L 63.400348,121.5658   L 63.788117,120.98415   L 64.369772,120.4025   L 64.951427,120.01473   L 65.533081,119.82084   L 67.08416,119.43307   L 68.829124,119.82084   L 70.186318,120.79026   L 71.155742,122.53523   L 71.543512,124.47408   L 71.543512,125.4435   L 71.349627,126.41293   L 69.798548,128.73954   L 69.023008,129.12731   L 68.441354,129.51508   L 67.47193,129.70897   L 66.69639,129.70897   L 64.563657,129.3212   L 62.818693,127.964   L 62.043154,126.60681   L 61.461499,124.86185   L 61.267614,122.34134   L 61.461499,119.82084   L 62.237039,117.49422   L 63.206463,115.94314   L 64.757542,114.58595   L 66.890275,114.19818   L 68.635239,114.58595   L 69.992433,115.36149   L 70.767972,116.5248   L 71.155742,117.30034   L 71.349627,118.26976  z    M 63.400348,124.47408   L 63.400348,125.05573   L 63.982002,126.8007   L 64.369772,127.18847   L 64.951427,127.57623   L 65.339196,127.77012   L 65.920851,127.964   L 67.278045,127.964   L 67.859699,127.77012   L 68.247469,127.57623   L 69.410778,125.83127   L 69.604663,125.24962   L 69.604663,123.89242   L 69.410778,123.31077   L 68.635239,122.14746   L 68.247469,121.75969   L 67.08416,121.37192   L 65.726966,121.37192   L 64.951427,121.5658   L 64.175887,122.14746   L 63.594233,122.923   L 63.400348,123.50465   L 63.400348,124.47408  z   "
     id="path67" />
  <path
     style="fill:#000000;fill-rule:nonzero;fill-opacity:1;stroke:#000000;stroke-width:0.19388485px;stroke-linecap:round;stroke-linejoin:round;stroke-miterlimit:4;stroke-dasharray:none;stroke-opacity:1;"
     d="  M 73.288475,121.95357   L 73.48236,119.43307   L 74.064015,117.49422   L 74.2579,116.71868   L 75.033439,115.55537   L 76.778403,114.39206   L 77.553942,114.19818   L 79.105021,114.19818   L 79.88056,114.39206   L 80.462215,114.58595   L 80.849985,114.97372   L 81.431639,115.36149   L 81.819409,115.74926   L 82.594948,117.30034   L 82.982718,118.46365   L 83.176603,120.01473   L 83.370488,121.95357   L 83.176603,124.47408   L 82.982718,126.41293   L 81.819409,128.35177   L 81.04387,128.93343   L 80.462215,129.3212   L 79.298906,129.70897   L 78.523366,129.70897   L 76.390633,129.3212   L 74.839554,128.15789   L 74.064015,126.60681   L 73.48236,124.47408   L 73.288475,121.95357  z    M 75.421209,121.95357   L 75.421209,124.08631   L 75.615094,125.63739   L 76.196748,126.8007   L 76.778403,127.18847   L 77.166172,127.57623   L 77.747827,127.964   L 79.105021,127.964   L 79.492791,127.57623   L 80.074445,127.38235   L 80.462215,126.8007   L 81.04387,125.63739   L 81.237754,124.08631   L 81.237754,119.82084   L 81.04387,118.26976   L 80.462215,117.10645   L 80.074445,116.71868   L 79.492791,116.33091   L 78.911136,116.13703   L 78.135597,115.94314   L 77.360057,116.13703   L 76.778403,116.5248   L 76.196748,117.10645   L 75.615094,118.26976   L 75.421209,119.82084   L 75.421209,121.95357  z   "
     id="path69" />
  <path
     style="fill:#000000;fill-rule:nonzero;fill-opacity:1;stroke:#000000;stroke-width:0.19388485px;stroke-linecap:round;stroke-linejoin:round;stroke-miterlimit:4;stroke-dasharray:none;stroke-opacity:1;"
     d="  M 85.115451,121.95357   L 85.309336,119.43307   L 85.697106,117.49422   L 86.084876,116.5248   L 86.66653,115.74926   L 87.248185,115.1676   L 87.829839,114.77983   L 88.605379,114.39206   L 89.380918,114.19818   L 90.931997,114.19818   L 91.707537,114.39206   L 92.289191,114.58595   L 92.676961,114.97372   L 93.258615,115.36149   L 93.4525,115.74926   L 93.84027,116.13703   L 94.615809,118.46365   L 95.003579,120.01473   L 95.197464,121.95357   L 95.003579,124.47408   L 94.615809,126.41293   L 94.22804,127.38235   L 93.4525,128.35177   L 92.870846,128.93343   L 92.289191,129.3212   L 91.707537,129.51508   L 90.931997,129.70897   L 90.156458,129.70897   L 88.217609,129.3212   L 86.66653,128.15789   L 85.697106,126.60681   L 85.309336,124.47408   L 85.115451,121.95357  z    M 87.0543,121.95357   L 87.248185,124.08631   L 87.44207,125.63739   L 88.023724,126.8007   L 88.605379,127.18847   L 88.993149,127.57623   L 89.574803,127.964   L 90.738112,127.964   L 91.319767,127.57623   L 91.901421,127.38235   L 92.289191,126.8007   L 92.676961,125.63739   L 93.064731,124.08631   L 93.064731,119.82084   L 92.676961,118.26976   L 92.289191,117.10645   L 91.901421,116.71868   L 91.319767,116.33091   L 90.738112,116.13703   L 89.962573,115.94314   L 89.380918,115.94314   L 88.799264,116.33091   L 88.411494,116.5248   L 88.023724,117.10645   L 87.44207,118.26976   L 87.248185,119.82084   L 87.0543,121.95357  z   "
     id="path71" />
  <path
     style="fill:none;stroke:#000000;stroke-width:0.96942425px;stroke-linecap:round;stroke-linejoin:round;stroke-miterlimit:4;stroke-dasharray:none;stroke-opacity:1;"
     d="  M 108.7694,72.512936   L 114.39206,72.512936  "
     id="path73" />
  <path
     style="fill:none;stroke:#000000;stroke-width:0.96942425px;stroke-linecap:round;stroke-linejoin:round;stroke-miterlimit:4;stroke-dasharray:none;stroke-opacity:1;"
     d="  M 603.56355,72.512936   L 597.94089,72.512936  "
     id="path75" />
  <path
     style="fill:#000000;fill-rule:nonzero;fill-opacity:1;stroke:#000000;stroke-width:0.19388485px;stroke-linecap:round;stroke-linejoin:round;stroke-miterlimit:4;stroke-dasharray:none;stroke-opacity:1;"
     d="  M 61.849269,66.502505   L 61.849269,64.563657   L 71.543512,64.563657   L 71.543512,66.114736   L 70.186318,68.053584   L 68.829124,70.380202   L 67.665815,72.900706   L 66.69639,75.421209   L 66.114736,77.553942   L 65.920851,79.686676   L 63.982002,79.686676   L 64.175887,77.747827   L 64.757542,75.421209   L 65.533081,72.900706   L 66.69639,70.574087   L 68.053584,68.441354   L 69.604663,66.502505   L 61.849269,66.502505  z   "
     id="path77" />
  <path
     style="fill:#000000;fill-rule:nonzero;fill-opacity:1;stroke:#000000;stroke-width:0.19388485px;stroke-linecap:round;stroke-linejoin:round;stroke-miterlimit:4;stroke-dasharray:none;stroke-opacity:1;"
     d="  M 73.288475,72.125166   L 73.48236,69.604663   L 74.064015,67.665815   L 74.2579,66.890275   L 75.033439,65.726966   L 76.778403,64.563657   L 77.553942,64.369772   L 79.105021,64.369772   L 79.88056,64.563657   L 80.462215,64.757542   L 80.849985,65.145311   L 81.431639,65.533081   L 81.819409,65.920851   L 82.594948,67.47193   L 82.982718,68.635239   L 83.176603,70.186318   L 83.370488,72.125166   L 83.176603,74.645669   L 82.982718,76.584518   L 81.819409,78.523366   L 81.04387,79.105021   L 80.462215,79.492791   L 79.298906,79.88056   L 78.523366,79.88056   L 76.390633,79.492791   L 74.839554,78.329482   L 74.064015,76.778403   L 73.48236,74.645669   L 73.288475,72.125166  z    M 75.421209,72.125166   L 75.421209,74.2579   L 75.615094,75.808978   L 76.196748,76.972288   L 76.778403,77.360057   L 77.166172,77.747827   L 77.747827,78.135597   L 79.105021,78.135597   L 79.492791,77.747827   L 80.074445,77.553942   L 80.462215,76.972288   L 81.04387,75.808978   L 81.237754,74.2579   L 81.237754,69.992433   L 81.04387,68.441354   L 80.462215,67.278045   L 80.074445,66.890275   L 79.492791,66.502505   L 78.911136,66.308621   L 78.135597,66.114736   L 77.360057,66.308621   L 76.778403,66.69639   L 76.196748,67.278045   L 75.615094,68.441354   L 75.421209,69.992433   L 75.421209,72.125166  z   "
     id="path79" />
  <path
     style="fill:#000000;fill-rule:nonzero;fill-opacity:1;stroke:#000000;stroke-width:0.19388485px;stroke-linecap:round;stroke-linejoin:round;stroke-miterlimit:4;stroke-dasharray:none;stroke-opacity:1;"
     d="  M 85.115451,72.125166   L 85.309336,69.604663   L 85.697106,67.665815   L 86.084876,66.69639   L 86.66653,65.920851   L 87.248185,65.339196   L 87.829839,64.951427   L 88.605379,64.563657   L 89.380918,64.369772   L 90.931997,64.369772   L 91.707537,64.563657   L 92.289191,64.757542   L 92.676961,65.145311   L 93.258615,65.533081   L 93.4525,65.920851   L 93.84027,66.308621   L 94.615809,68.635239   L 95.003579,70.186318   L 95.197464,72.125166   L 95.003579,74.645669   L 94.615809,76.584518   L 94.22804,77.553942   L 93.4525,78.523366   L 92.870846,79.105021   L 92.289191,79.492791   L 91.707537,79.686676   L 90.931997,79.88056   L 90.156458,79.88056   L 88.217609,79.492791   L 86.66653,78.329482   L 85.697106,76.778403   L 85.309336,74.645669   L 85.115451,72.125166  z    M 87.0543,72.125166   L 87.248185,74.2579   L 87.44207,75.808978   L 88.023724,76.972288   L 88.605379,77.360057   L 88.993149,77.747827   L 89.574803,78.135597   L 90.738112,78.135597   L 91.319767,77.747827   L 91.901421,77.553942   L 92.289191,76.972288   L 92.676961,75.808978   L 93.064731,74.2579   L 93.064731,69.992433   L 92.676961,68.441354   L 92.289191,67.278045   L 91.901421,66.890275   L 91.319767,66.502505   L 90.738112,66.308621   L 89.962573,66.114736   L 89.380918,66.114736   L 88.799264,66.502505   L 88.411494,66.69639   L 88.023724,67.278045   L 87.44207,68.441354   L 87.248185,69.992433   L 87.0543,72.125166  z   "
     id="path81" />
  <path
     style="fill:none;stroke:#000000;stroke-width:0.96942425px;stroke-linecap:round;stroke-linejoin:round;stroke-miterlimit:4;stroke-dasharray:none;stroke-opacity:1;"
     d="  M 108.7694,422.28121   L 603.56355,422.28121   L 603.56355,63.982002   L 108.7694,63.982002   L 108.7694,422.28121  "
     id="path83" />
  <path
     style="fill:#000000;fill-rule:nonzero;fill-opacity:1;stroke:#000000;stroke-width:0.19388485px;stroke-linecap:round;stroke-linejoin:round;stroke-miterlimit:4;stroke-dasharray:none;stroke-opacity:1;"
     d="  M 30.633807,323.59382   L 15.316904,323.59382   L 15.316904,313.31793   L 17.061867,313.31793   L 17.061867,321.65497   L 21.908989,321.65497   L 21.908989,314.67512   L 23.653952,314.67512   L 23.653952,321.65497   L 30.633807,321.65497   L 30.633807,323.59382  z   "
     id="path85" />
  <path
     style="fill:#000000;fill-rule:nonzero;fill-opacity:1;stroke:#000000;stroke-width:0.19388485px;stroke-linecap:round;stroke-linejoin:round;stroke-miterlimit:4;stroke-dasharray:none;stroke-opacity:1;"
     d="  M 30.633807,310.60354   L 19.58237,310.60354   L 19.58237,308.85857   L 21.133449,308.85857   L 19.97014,308.08304   L 19.58237,307.3075   L 19.388486,307.11361   L 19.388486,306.14419   L 19.776255,304.98088   L 21.521219,305.56253   L 21.133449,306.33807   L 21.133449,307.11361   L 21.327334,307.3075   L 21.521219,307.69527   L 21.908989,308.08304   L 22.490643,308.4708   L 23.072298,308.66469   L 30.633807,308.66469   L 30.633807,310.60354  z   "
     id="path87" />
  <path
     style="fill:#000000;fill-rule:nonzero;fill-opacity:1;stroke:#000000;stroke-width:0.19388485px;stroke-linecap:round;stroke-linejoin:round;stroke-miterlimit:4;stroke-dasharray:none;stroke-opacity:1;"
     d="  M 27.337765,296.25606   L 27.531649,294.31721   L 28.501074,294.70498   L 29.276613,295.28663   L 30.052153,296.06217   L 30.439922,296.64383   L 30.827692,298.19491   L 30.827692,299.16433   L 30.439922,301.29707   L 29.276613,303.04203   L 28.307189,303.81757   L 26.949995,304.39922   L 25.011146,304.39922   L 22.684528,304.20534   L 20.939564,303.04203   L 19.58237,301.29707   L 19.388486,299.35822   L 19.58237,297.22548   L 20.939564,295.48052   L 21.908989,294.89886   L 23.460067,294.31721   L 25.592801,294.31721   L 25.592801,302.46037   L 26.36834,302.46037   L 26.949995,302.0726   L 27.725534,301.87872   L 28.113304,301.29707   L 28.501074,300.9093   L 28.888843,300.32764   L 29.082728,299.74599   L 29.082728,299.16433   L 28.888843,298.19491   L 28.694959,297.41937   L 28.307189,296.83771   L 27.919419,296.44994   L 27.337765,296.25606  z    M 23.653952,302.46037   L 23.653952,296.25606   L 23.072298,296.25606   L 21.908989,296.83771   L 21.521219,297.41937   L 21.133449,298.58268   L 21.133449,300.13376   L 21.327334,300.9093   L 21.715104,301.49095   L 22.102874,301.87872   L 22.490643,302.0726   L 23.072298,302.46037   L 23.653952,302.46037  z   "
     id="path89" />
  <path
     style="fill:#000000;fill-rule:nonzero;fill-opacity:1;stroke:#000000;stroke-width:0.19388485px;stroke-linecap:round;stroke-linejoin:round;stroke-miterlimit:4;stroke-dasharray:none;stroke-opacity:1;"
     d="  M 34.899274,285.20462   L 29.276613,285.20462   L 29.664383,285.39851   L 30.439922,286.17405   L 30.633807,286.7557   L 30.827692,287.14347   L 30.827692,288.11289   L 30.439922,289.85786   L 29.276613,291.40894   L 27.531649,292.37836   L 25.011146,292.76613   L 23.460067,292.57225   L 21.908989,292.18448   L 21.133449,291.79671   L 20.551795,291.02117   L 19.97014,290.43951   L 19.58237,289.85786   L 19.388486,289.08232   L 19.388486,288.30678   L 19.58237,286.94959   L 20.164025,285.98016   L 21.327334,285.20462   L 19.58237,285.20462   L 19.58237,283.07189   L 34.899274,283.07189   L 34.899274,285.20462  z    M 25.011146,290.6334   L 25.980571,290.6334   L 26.75611,290.43951   L 27.337765,290.24563   L 27.919419,289.85786   L 28.307189,289.47009   L 28.694959,288.88843   L 29.082728,288.50066   L 29.082728,287.33736   L 28.888843,286.7557   L 28.694959,286.36793   L 27.531649,285.59239   L 26.949995,285.39851   L 26.174455,285.20462   L 24.235607,285.20462   L 22.684528,285.59239   L 22.102874,285.98016   L 21.327334,286.7557   L 21.133449,287.33736   L 21.133449,288.50066   L 21.327334,289.08232   L 21.521219,289.47009   L 21.908989,289.85786   L 23.266183,290.43951   L 25.011146,290.6334  z   "
     id="path91" />
  <path
     style="fill:#000000;fill-rule:nonzero;fill-opacity:1;stroke:#000000;stroke-width:0.19388485px;stroke-linecap:round;stroke-linejoin:round;stroke-miterlimit:4;stroke-dasharray:none;stroke-opacity:1;"
     d="  M 30.633807,273.37765   L 28.888843,273.37765   L 29.664383,273.9593   L 30.052153,274.54096   L 30.633807,275.12261   L 30.827692,275.70426   L 30.827692,277.44923   L 30.246037,278.61254   L 29.470498,279.38808   L 28.888843,279.77585   L 28.113304,279.96973   L 19.58237,279.96973   L 19.58237,278.03088   L 27.531649,278.03088   L 28.113304,277.64311   L 28.694959,277.44923   L 28.888843,276.67369   L 29.082728,276.09203   L 29.082728,275.51038   L 28.888843,274.92872   L 28.694959,274.54096   L 27.919419,273.76542   L 27.14388,273.37765   L 19.58237,273.37765   L 19.58237,271.4388   L 30.633807,271.4388   L 30.633807,273.37765  z   "
     id="path93" />
  <path
     style="fill:#000000;fill-rule:nonzero;fill-opacity:1;stroke:#000000;stroke-width:0.19388485px;stroke-linecap:round;stroke-linejoin:round;stroke-miterlimit:4;stroke-dasharray:none;stroke-opacity:1;"
     d="  M 27.337765,260.96902   L 27.531649,258.83628   L 28.501074,259.41794   L 29.276613,259.99959   L 30.052153,260.77513   L 30.439922,261.35678   L 30.827692,262.90786   L 30.827692,263.87729   L 30.439922,266.01002   L 29.276613,267.75499   L 28.307189,268.53052   L 26.949995,268.91829   L 25.011146,269.11218   L 22.684528,268.72441   L 20.939564,267.75499   L 19.58237,266.01002   L 19.388486,264.07117   L 19.58237,261.93844   L 20.939564,260.19348   L 21.908989,259.41794   L 23.460067,259.03017   L 25.011146,258.83628   L 25.592801,258.83628   L 25.592801,267.17333   L 26.562225,266.97945   L 27.531649,266.59168   L 28.501074,265.62225   L 28.888843,265.0406   L 29.082728,264.45894   L 29.082728,263.10175   L 28.694959,261.93844   L 27.919419,261.1629   L 27.337765,260.96902  z    M 23.653952,267.17333   L 23.653952,260.96902   L 23.072298,260.96902   L 21.908989,261.55067   L 21.521219,262.13232   L 21.133449,263.29563   L 21.133449,264.84671   L 21.327334,265.62225   L 21.715104,266.20391   L 22.102874,266.59168   L 22.490643,266.78556   L 23.653952,267.17333  z   "
     id="path95" />
  <path
     style="fill:#000000;fill-rule:nonzero;fill-opacity:1;stroke:#000000;stroke-width:0.19388485px;stroke-linecap:round;stroke-linejoin:round;stroke-miterlimit:4;stroke-dasharray:none;stroke-opacity:1;"
     d="  M 30.633807,256.50966   L 19.58237,256.50966   L 19.58237,254.37693   L 21.133449,254.37693   L 20.551795,253.98916   L 19.97014,253.40751   L 19.58237,252.82585   L 19.388486,252.05031   L 19.388486,250.69312   L 19.776255,249.52981   L 20.164025,248.75427   L 21.327334,248.17261   L 21.908989,247.78485   L 30.633807,247.78485   L 30.633807,249.72369   L 23.460067,249.72369   L 23.072298,249.91758   L 22.684528,249.91758   L 22.490643,250.11146   L 21.908989,250.11146   L 21.521219,250.30535   L 21.327334,250.69312   L 21.133449,250.887   L 21.133449,252.43808   L 21.327334,253.21362   L 21.715104,253.79528   L 22.102874,254.18305   L 22.878413,254.37693   L 30.633807,254.37693   L 30.633807,256.50966  z   "
     id="path97" />
  <path
     style="fill:#000000;fill-rule:nonzero;fill-opacity:1;stroke:#000000;stroke-width:0.19388485px;stroke-linecap:round;stroke-linejoin:round;stroke-miterlimit:4;stroke-dasharray:none;stroke-opacity:1;"
     d="  M 26.562225,237.89672   L 26.949995,235.76398   L 27.725534,235.95787   L 29.276613,236.73341   L 29.664383,237.31506   L 30.633807,238.67226   L 30.827692,240.41722   L 30.633807,241.77441   L 30.246037,242.93772   L 29.276613,244.10103   L 28.113304,244.87657   L 26.75611,245.26434   L 25.011146,245.45823   L 24.041722,245.26434   L 22.878413,245.07046   L 21.908989,244.68269   L 20.74568,243.90715   L 20.35791,243.51938   L 19.97014,242.93772   L 19.58237,242.16218   L 19.388486,241.38664   L 19.388486,239.4478   L 19.58237,238.86614   L 19.776255,238.0906   L 20.164025,237.50895   L 20.939564,236.73341   L 22.878413,235.95787   L 23.072298,238.0906   L 21.908989,238.47837   L 21.521219,238.86614   L 21.327334,239.4478   L 21.133449,239.83557   L 21.133449,240.99888   L 21.521219,242.16218   L 21.908989,242.54995   L 23.266183,243.13161   L 25.011146,243.32549   L 26.949995,243.13161   L 28.113304,242.54995   L 28.501074,242.16218   L 28.888843,241.58053   L 29.082728,241.19276   L 29.082728,239.83557   L 28.694959,239.25391   L 28.501074,238.67226   L 27.919419,238.28449   L 27.337765,238.0906   L 26.562225,237.89672  z   "
     id="path99" />
  <path
     style="fill:#000000;fill-rule:nonzero;fill-opacity:1;stroke:#000000;stroke-width:0.19388485px;stroke-linecap:round;stroke-linejoin:round;stroke-miterlimit:4;stroke-dasharray:none;stroke-opacity:1;"
     d="  M 34.899274,234.21291   L 33.15431,234.40679   L 33.348195,234.01902   L 33.348195,233.0496   L 33.15431,232.66183   L 33.15431,232.46794   L 32.766541,232.08017   L 32.378771,231.88629   L 32.184886,231.6924   L 31.021577,231.30463   L 30.827692,231.11075   L 19.58237,235.37621   L 19.58237,233.0496   L 25.592801,230.91686   L 26.75611,230.52909   L 27.919419,230.33521   L 26.75611,229.75355   L 25.980571,229.55967   L 19.58237,227.42694   L 19.58237,225.2942   L 31.021577,229.1719   L 31.991001,229.55967   L 32.766541,229.94744   L 33.348195,230.33521   L 33.92985,230.52909   L 34.705389,231.30463   L 35.093159,232.46794   L 35.093159,233.63125   L 34.899274,234.21291  z   "
     id="path101" />
  <path
     style="fill:#000000;fill-rule:nonzero;fill-opacity:1;stroke:#000000;stroke-width:0.19388485px;stroke-linecap:round;stroke-linejoin:round;stroke-miterlimit:4;stroke-dasharray:none;stroke-opacity:1;"
     d="  M 34.899274,214.04888   L 32.766541,215.59996   L 30.439922,216.76327   L 27.725534,217.53881   L 25.011146,217.73269   L 22.684528,217.53881   L 20.35791,216.95715   L 17.837407,215.79384   L 15.316904,214.04888   L 15.316904,212.69169   L 16.286328,213.27334   L 17.837407,214.04888   L 18.419061,214.24277   L 19.388486,214.63053   L 20.164025,215.0183   L 21.327334,215.40607   L 23.266183,215.59996   L 25.011146,215.79384   L 28.307189,215.40607   L 31.603231,214.43665   L 34.899274,212.69169   L 34.899274,214.04888  z   "
     id="path103" />
  <path
     style="fill:#000000;fill-rule:nonzero;fill-opacity:1;stroke:#000000;stroke-width:0.19388485px;stroke-linecap:round;stroke-linejoin:round;stroke-miterlimit:4;stroke-dasharray:none;stroke-opacity:1;"
     d="  M 26.562225,203.5791   L 26.949995,201.64025   L 27.725534,201.83413   L 29.276613,202.60967   L 29.664383,203.19133   L 30.246037,203.77298   L 30.633807,204.54852   L 30.827692,205.32406   L 30.827692,206.29349   L 30.633807,207.65068   L 30.246037,208.81399   L 29.276613,209.78341   L 28.113304,210.55895   L 26.75611,210.94672   L 25.011146,211.14061   L 24.041722,211.14061   L 22.878413,210.94672   L 21.908989,210.55895   L 20.74568,209.78341   L 19.58237,208.03845   L 19.388486,207.06903   L 19.388486,205.32406   L 19.58237,204.54852   L 19.776255,203.96687   L 20.164025,203.38521   L 20.74568,202.80356   L 21.327334,202.41579   L 22.102874,202.02802   L 22.878413,201.83413   L 23.072298,203.77298   L 22.490643,203.96687   L 21.908989,204.35464   L 21.521219,204.74241   L 21.327334,205.13018   L 21.133449,205.71183   L 21.133449,206.87514   L 21.327334,207.4568   L 21.521219,207.84456   L 21.908989,208.23233   L 23.266183,209.00787   L 25.011146,209.20176   L 26.949995,209.00787   L 28.113304,208.23233   L 28.888843,207.4568   L 29.082728,206.87514   L 29.082728,205.51795   L 28.694959,204.93629   L 28.501074,204.54852   L 27.337765,203.77298   L 26.562225,203.5791  z   "
     id="path105" />
  <path
     style="fill:#000000;fill-rule:nonzero;fill-opacity:1;stroke:#000000;stroke-width:0.19388485px;stroke-linecap:round;stroke-linejoin:round;stroke-miterlimit:4;stroke-dasharray:none;stroke-opacity:1;"
     d="  M 30.633807,200.08917   L 19.58237,200.08917   L 19.58237,197.95644   L 21.327334,197.95644   L 20.164025,197.1809   L 19.776255,196.79313   L 19.388486,195.62982   L 19.388486,194.07874   L 19.58237,193.3032   L 19.776255,192.72155   L 20.164025,192.33378   L 21.327334,191.55824   L 19.776255,190.00716   L 19.388486,188.26219   L 19.388486,187.48666   L 19.58237,186.71112   L 19.776255,186.12946   L 20.164025,185.54781   L 20.74568,185.16004   L 21.327334,184.96615   L 22.102874,184.77227   L 30.633807,184.77227   L 30.633807,186.71112   L 22.490643,186.71112   L 22.102874,186.905   L 21.715104,186.905   L 21.327334,187.68054   L 21.133449,187.87442   L 21.133449,189.4255   L 21.327334,190.00716   L 21.715104,190.7827   L 23.460067,191.36435   L 30.633807,191.36435   L 30.633807,193.3032   L 23.460067,193.3032   L 22.684528,193.49709   L 22.296758,193.69097   L 21.715104,193.88486   L 21.521219,194.07874   L 21.133449,194.85428   L 21.133449,195.8237   L 21.327334,196.21147   L 21.521219,196.79313   L 21.715104,197.1809   L 22.102874,197.56867   L 23.266183,197.95644   L 30.633807,197.95644   L 30.633807,200.08917  z   "
     id="path107" />
  <path
     style="fill:#000000;fill-rule:nonzero;fill-opacity:1;stroke:#000000;stroke-width:0.19388485px;stroke-linecap:round;stroke-linejoin:round;stroke-miterlimit:4;stroke-dasharray:none;stroke-opacity:1;"
     d="  M 16.286328,182.63953   L 14.735249,182.63953   L 14.735249,177.9863   L 16.286328,177.9863   L 16.286328,182.63953  z   "
     id="path109" />
  <path
     style="fill:#000000;fill-rule:nonzero;fill-opacity:1;stroke:#000000;stroke-width:0.19388485px;stroke-linecap:round;stroke-linejoin:round;stroke-miterlimit:4;stroke-dasharray:none;stroke-opacity:1;"
     d="  M 19.97014,171.39421   L 19.97014,172.94529   L 10.275897,172.94529   L 11.051437,173.72083   L 11.439206,174.30248   L 11.826976,175.07802   L 12.214746,175.65968   L 10.663667,175.65968   L 10.275897,174.88414   L 9.8881276,174.30248   L 9.3064731,173.52695   L 8.1431639,172.75141   L 7.7553942,172.36364   L 7.7553942,171.39421   L 19.97014,171.39421  z   "
     id="path111" />
  <path
     style="fill:#000000;fill-rule:nonzero;fill-opacity:1;stroke:#000000;stroke-width:0.19388485px;stroke-linecap:round;stroke-linejoin:round;stroke-miterlimit:4;stroke-dasharray:none;stroke-opacity:1;"
     d="  M 34.899274,166.15932   L 34.899274,167.51651   L 31.603231,165.77155   L 28.307189,164.60824   L 25.011146,164.41436   L 23.266183,164.41436   L 20.35791,164.99601   L 19.388486,165.38378   L 18.419061,165.57767   L 17.061867,166.35321   L 15.316904,167.51651   L 15.316904,166.15932   L 17.837407,164.41436   L 20.35791,163.25105   L 22.684528,162.47551   L 25.011146,162.28162   L 27.725534,162.66939   L 30.439922,163.44493   L 32.766541,164.60824   L 34.899274,166.15932  z   "
     id="path113" />
  <path
     style="fill:#000000;fill-rule:nonzero;fill-opacity:1;stroke:#000000;stroke-width:0.19388485px;stroke-linecap:round;stroke-linejoin:round;stroke-miterlimit:4;stroke-dasharray:none;stroke-opacity:1;"
     d="  M 269.88772,39.164741   L 263.6834,23.847837   L 265.81614,23.847837   L 270.0816,34.705389   L 270.27549,35.674813   L 271.05103,37.225892   L 271.4388,36.062583   L 271.63268,34.705389   L 275.89815,23.847837   L 278.03088,23.847837   L 272.21434,39.164741   L 269.88772,39.164741  z   "
     id="path115" />
  <path
     style="fill:#000000;fill-rule:nonzero;fill-opacity:1;stroke:#000000;stroke-width:0.19388485px;stroke-linecap:round;stroke-linejoin:round;stroke-miterlimit:4;stroke-dasharray:none;stroke-opacity:1;"
     d="  M 279.38808,25.786686   L 279.38808,23.847837   L 281.52081,23.847837   L 281.52081,25.786686   L 279.38808,25.786686  z    M 279.38808,39.164741   L 279.38808,28.113304   L 281.52081,28.113304   L 281.52081,39.164741   L 279.38808,39.164741  z   "
     id="path117" />
  <path
     style="fill:#000000;fill-rule:nonzero;fill-opacity:1;stroke:#000000;stroke-width:0.19388485px;stroke-linecap:round;stroke-linejoin:round;stroke-miterlimit:4;stroke-dasharray:none;stroke-opacity:1;"
     d="  M 285.98016,39.164741   L 283.84743,39.164741   L 283.84743,23.847837   L 285.98016,23.847837   L 285.98016,29.664383   L 286.56182,28.888843   L 287.14347,28.307189   L 287.91901,27.919419   L 289.47009,27.919419   L 290.05174,28.113304   L 290.82728,28.307189   L 291.40894,28.501074   L 291.79671,28.888843   L 292.18448,29.470498   L 292.57225,29.858268   L 292.96002,30.439922   L 293.34779,31.991001   L 293.34779,32.572656   L 293.54167,33.348195   L 293.34779,35.093159   L 292.96002,36.644238   L 292.18448,37.807547   L 290.6334,38.970856   L 288.69455,39.358626   L 287.14347,38.970856   L 286.56182,38.389201   L 285.98016,37.613662   L 285.98016,39.164741  z    M 285.98016,33.54208   L 285.98016,35.093159   L 286.36793,36.256468   L 287.33736,37.225892   L 287.91901,37.613662   L 289.08232,37.613662   L 289.66397,37.225892   L 290.24563,37.032007   L 291.02117,35.868698   L 291.21505,35.287044   L 291.40894,34.511504   L 291.40894,32.572656   L 291.02117,31.021577   L 290.6334,30.439922   L 289.47009,29.664383   L 288.11289,29.664383   L 287.53124,29.858268   L 286.7557,30.633807   L 286.36793,31.215462   L 285.98016,32.766541   L 285.98016,33.54208  z   "
     id="path119" />
  <path
     style="fill:#000000;fill-rule:nonzero;fill-opacity:1;stroke:#000000;stroke-width:0.19388485px;stroke-linecap:round;stroke-linejoin:round;stroke-miterlimit:4;stroke-dasharray:none;stroke-opacity:1;"
     d="  M 295.86829,39.164741   L 295.86829,28.113304   L 297.61325,28.113304   L 297.61325,29.664383   L 298.38879,28.501074   L 299.5521,27.919419   L 300.52153,27.919419   L 301.68483,28.307189   L 300.9093,30.052153   L 300.52153,29.858268   L 300.32764,29.664383   L 299.5521,29.664383   L 298.77656,30.052153   L 298.38879,30.439922   L 298.00102,31.603231   L 298.00102,31.991001   L 297.80714,32.572656   L 297.80714,39.164741   L 295.86829,39.164741  z   "
     id="path121" />
  <path
     style="fill:#000000;fill-rule:nonzero;fill-opacity:1;stroke:#000000;stroke-width:0.19388485px;stroke-linecap:round;stroke-linejoin:round;stroke-miterlimit:4;stroke-dasharray:none;stroke-opacity:1;"
     d="  M 309.63411,37.807547   L 309.05246,38.389201   L 308.27692,38.776971   L 307.69527,38.970856   L 306.91973,39.358626   L 305.17476,39.358626   L 304.39922,39.164741   L 303.81757,38.970856   L 303.23591,38.583086   L 302.65426,37.807547   L 302.26649,36.256468   L 302.65426,35.093159   L 303.23591,33.92985   L 303.62368,33.54208   L 304.20534,33.348195   L 304.78699,32.960425   L 305.17476,32.960425   L 305.75642,32.766541   L 306.33807,32.766541   L 308.08304,32.378771   L 309.44023,31.991001   L 309.44023,31.021577   L 309.05246,30.246037   L 308.4708,29.858268   L 307.88915,29.664383   L 306.33807,29.664383   L 305.75642,29.858268   L 305.36865,30.052153   L 304.98088,30.439922   L 304.78699,30.827692   L 304.59311,31.409347   L 302.65426,31.215462   L 302.84814,30.439922   L 303.04203,29.858268   L 303.4298,29.470498   L 303.81757,28.888843   L 304.39922,28.501074   L 306.14419,27.919419   L 309.24634,27.919419   L 309.63411,28.113304   L 310.21577,28.307189   L 310.79742,28.694959   L 310.99131,28.888843   L 311.37908,29.664383   L 311.76685,30.246037   L 311.76685,36.450353   L 311.96073,37.613662   L 311.96073,38.195316   L 312.15462,38.583086   L 312.3485,39.164741   L 310.40965,39.164741   L 310.02188,38.776971   L 309.828,38.195316   L 309.63411,37.807547  z    M 309.44023,33.735965   L 308.66469,33.92985   L 307.88915,34.317619   L 306.72584,34.511504   L 306.33807,34.511504   L 305.75642,34.705389   L 305.17476,34.705389   L 304.98088,35.093159   L 304.39922,35.674813   L 304.39922,36.450353   L 304.78699,37.225892   L 305.17476,37.419777   L 305.75642,37.613662   L 306.91973,37.613662   L 308.08304,37.225892   L 309.24634,36.062583   L 309.44023,35.287044   L 309.44023,34.511504   L 309.44023,33.735965  z   "
     id="path123" />
  <path
     style="fill:#000000;fill-rule:nonzero;fill-opacity:1;stroke:#000000;stroke-width:0.19388485px;stroke-linecap:round;stroke-linejoin:round;stroke-miterlimit:4;stroke-dasharray:none;stroke-opacity:1;"
     d="  M 318.7467,37.613662   L 318.94059,39.358626   L 316.42008,39.358626   L 315.64454,38.970856   L 315.06289,37.807547   L 315.06289,29.858268   L 313.7057,29.858268   L 313.7057,28.113304   L 315.06289,28.113304   L 315.06289,25.398916   L 317.00174,24.235607   L 317.00174,28.113304   L 318.7467,28.113304   L 318.7467,29.858268   L 317.00174,29.858268   L 317.00174,37.225892   L 317.19562,37.419777   L 317.38951,37.419777   L 317.58339,37.613662   L 318.7467,37.613662  z   "
     id="path125" />
  <path
     style="fill:#000000;fill-rule:nonzero;fill-opacity:1;stroke:#000000;stroke-width:0.19388485px;stroke-linecap:round;stroke-linejoin:round;stroke-miterlimit:4;stroke-dasharray:none;stroke-opacity:1;"
     d="  M 320.68555,25.786686   L 320.68555,23.847837   L 322.81828,23.847837   L 322.81828,25.786686   L 320.68555,25.786686  z    M 320.68555,39.164741   L 320.68555,28.113304   L 322.81828,28.113304   L 322.81828,39.164741   L 320.68555,39.164741  z   "
     id="path127" />
  <path
     style="fill:#000000;fill-rule:nonzero;fill-opacity:1;stroke:#000000;stroke-width:0.19388485px;stroke-linecap:round;stroke-linejoin:round;stroke-miterlimit:4;stroke-dasharray:none;stroke-opacity:1;"
     d="  M 324.75713,33.54208   L 324.95102,31.797116   L 325.33879,30.246037   L 326.30821,29.082728   L 327.85929,28.113304   L 329.79814,27.919419   L 331.15533,27.919419   L 332.51253,28.501074   L 333.48195,29.470498   L 334.45138,31.021577   L 334.83915,33.348195   L 334.64526,35.287044   L 334.06361,36.644238   L 332.9003,38.389201   L 332.31864,38.776971   L 331.5431,39.164741   L 330.76756,39.358626   L 329.79814,39.358626   L 328.44094,39.164741   L 327.08375,38.776971   L 326.11433,37.807547   L 325.33879,36.644238   L 324.95102,35.287044   L 324.75713,33.54208  z    M 326.69598,33.54208   L 326.88987,35.480929   L 327.66541,36.644238   L 328.05318,37.032007   L 328.63483,37.419777   L 329.21648,37.613662   L 330.37979,37.613662   L 330.96145,37.225892   L 331.5431,37.032007   L 332.31864,35.868698   L 332.51253,35.287044   L 332.70641,34.511504   L 332.70641,32.572656   L 332.31864,31.021577   L 331.93087,30.439922   L 331.5431,30.052153   L 330.37979,29.664383   L 329.21648,29.664383   L 328.05318,30.052153   L 327.66541,30.439922   L 326.88987,31.797116   L 326.69598,33.54208  z   "
     id="path129" />
  <path
     style="fill:#000000;fill-rule:nonzero;fill-opacity:1;stroke:#000000;stroke-width:0.19388485px;stroke-linecap:round;stroke-linejoin:round;stroke-miterlimit:4;stroke-dasharray:none;stroke-opacity:1;"
     d="  M 337.16576,39.164741   L 337.16576,28.113304   L 339.2985,28.113304   L 339.2985,29.664383   L 339.88015,28.888843   L 340.46181,28.307189   L 341.43123,27.919419   L 342.98231,27.919419   L 344.14562,28.307189   L 344.92116,28.694959   L 345.30893,29.082728   L 345.50281,29.858268   L 345.89058,30.439922   L 345.89058,39.164741   L 343.95173,39.164741   L 343.95173,31.603231   L 343.75785,31.215462   L 343.75785,31.021577   L 343.56396,30.439922   L 343.37008,30.052153   L 342.98231,29.858268   L 342.78842,29.664383   L 341.23735,29.664383   L 340.46181,29.858268   L 339.88015,30.246037   L 339.2985,31.409347   L 339.2985,39.164741   L 337.16576,39.164741  z   "
     id="path131" />
  <path
     style="fill:#000000;fill-rule:nonzero;fill-opacity:1;stroke:#000000;stroke-width:0.19388485px;stroke-linecap:round;stroke-linejoin:round;stroke-miterlimit:4;stroke-dasharray:none;stroke-opacity:1;"
     d="  M 355.58482,37.807547   L 355.00317,38.389201   L 354.22763,38.776971   L 353.64598,38.970856   L 352.87044,39.358626   L 351.12547,39.358626   L 350.34993,39.164741   L 349.76828,38.970856   L 349.18662,38.583086   L 348.60497,37.807547   L 348.41108,37.032007   L 348.41108,35.674813   L 348.60497,35.093159   L 349.18662,33.92985   L 349.57439,33.54208   L 350.15605,33.348195   L 350.7377,32.960425   L 351.12547,32.960425   L 351.70713,32.766541   L 352.28878,32.766541   L 354.03375,32.378771   L 355.39094,31.991001   L 355.39094,31.021577   L 355.00317,30.246037   L 354.42152,29.858268   L 353.83986,29.664383   L 352.28878,29.664383   L 351.70713,29.858268   L 350.7377,30.827692   L 350.54382,31.409347   L 348.60497,31.215462   L 348.79885,30.439922   L 348.99274,29.858268   L 349.38051,29.470498   L 349.76828,28.888843   L 350.34993,28.501074   L 352.0949,27.919419   L 355.19705,27.919419   L 355.58482,28.113304   L 356.16648,28.307189   L 356.74813,28.694959   L 356.94202,28.888843   L 357.32979,29.664383   L 357.71756,30.246037   L 357.71756,36.450353   L 357.91144,37.613662   L 357.91144,38.195316   L 358.10533,38.583086   L 358.29921,39.164741   L 356.36036,39.164741   L 355.97259,38.776971   L 355.77871,38.195316   L 355.58482,37.807547  z    M 355.39094,33.735965   L 354.6154,33.92985   L 353.83986,34.317619   L 352.67655,34.511504   L 352.28878,34.511504   L 351.90101,34.705389   L 351.12547,34.705389   L 350.93159,35.093159   L 350.34993,35.674813   L 350.34993,36.062583   L 350.7377,37.225892   L 351.12547,37.419777   L 351.70713,37.613662   L 352.87044,37.613662   L 354.03375,37.225892   L 354.80929,36.644238   L 355.19705,36.062583   L 355.39094,35.287044   L 355.39094,34.511504   L 355.39094,33.735965  z   "
     id="path133" />
  <path
     style="fill:#000000;fill-rule:nonzero;fill-opacity:1;stroke:#000000;stroke-width:0.19388485px;stroke-linecap:round;stroke-linejoin:round;stroke-miterlimit:4;stroke-dasharray:none;stroke-opacity:1;"
     d="  M 360.81972,39.164741   L 360.81972,23.847837   L 362.75856,23.847837   L 362.75856,39.164741   L 360.81972,39.164741  z   "
     id="path135" />
  <path
     style="fill:#000000;fill-rule:nonzero;fill-opacity:1;stroke:#000000;stroke-width:0.19388485px;stroke-linecap:round;stroke-linejoin:round;stroke-miterlimit:4;stroke-dasharray:none;stroke-opacity:1;"
     d="  M 369.73842,39.164741   L 375.94273,23.847837   L 377.88158,23.847837   L 384.0859,39.164741   L 381.95316,39.164741   L 380.01432,34.511504   L 373.61612,34.511504   L 371.87115,39.164741   L 369.73842,39.164741  z    M 374.39166,32.766541   L 379.43266,32.766541   L 377.88158,28.501074   L 377.49381,27.337765   L 377.29993,26.36834   L 376.91216,25.592801   L 376.3305,26.949995   L 375.94273,28.307189   L 374.39166,32.766541  z   "
     id="path137" />
  <path
     style="fill:#000000;fill-rule:nonzero;fill-opacity:1;stroke:#000000;stroke-width:0.19388485px;stroke-linecap:round;stroke-linejoin:round;stroke-miterlimit:4;stroke-dasharray:none;stroke-opacity:1;"
     d="  M 385.63698,39.164741   L 385.63698,28.113304   L 387.57583,28.113304   L 387.57583,29.664383   L 388.93302,28.307189   L 390.67798,27.919419   L 391.45352,27.919419   L 392.61683,28.307189   L 393.39237,28.694959   L 393.97403,29.858268   L 394.3618,30.439922   L 394.3618,39.164741   L 392.22906,39.164741   L 392.22906,31.215462   L 392.03518,31.021577   L 392.03518,30.439922   L 391.84129,30.052153   L 391.06575,29.664383   L 389.70856,29.664383   L 388.93302,29.858268   L 388.35137,30.246037   L 387.9636,30.633807   L 387.76971,31.409347   L 387.76971,32.184886   L 387.57583,33.15431   L 387.57583,39.164741   L 385.63698,39.164741  z   "
     id="path139" />
  <path
     style="fill:#000000;fill-rule:nonzero;fill-opacity:1;stroke:#000000;stroke-width:0.19388485px;stroke-linecap:round;stroke-linejoin:round;stroke-miterlimit:4;stroke-dasharray:none;stroke-opacity:1;"
     d="  M 404.05604,37.807547   L 403.47438,38.389201   L 402.69884,38.776971   L 402.11719,38.970856   L 401.34165,39.358626   L 399.59669,39.358626   L 398.82115,39.164741   L 398.23949,38.970856   L 397.65784,38.583086   L 397.07618,37.807547   L 396.68841,36.256468   L 397.07618,35.093159   L 397.65784,33.92985   L 398.04561,33.54208   L 398.62726,33.348195   L 399.20892,32.960425   L 399.59669,32.960425   L 400.17834,32.766541   L 400.76,32.766541   L 402.50496,32.378771   L 403.86215,31.991001   L 403.86215,31.021577   L 403.47438,30.246037   L 402.89273,29.858268   L 402.31107,29.664383   L 400.76,29.664383   L 400.17834,29.858268   L 399.79057,30.052153   L 399.4028,30.439922   L 399.20892,30.827692   L 399.01503,31.409347   L 397.07618,31.215462   L 397.27007,30.439922   L 397.46395,29.858268   L 397.85172,29.470498   L 398.23949,28.888843   L 398.82115,28.501074   L 400.56611,27.919419   L 403.66827,27.919419   L 404.05604,28.113304   L 404.63769,28.307189   L 405.21935,28.694959   L 405.41323,28.888843   L 405.99489,30.246037   L 405.99489,34.317619   L 406.18877,36.450353   L 406.38266,37.613662   L 406.38266,38.195316   L 406.57654,38.583086   L 406.77043,39.164741   L 404.83158,39.164741   L 404.44381,38.776971   L 404.24992,38.195316   L 404.05604,37.807547  z    M 403.86215,33.735965   L 403.08661,33.92985   L 402.31107,34.317619   L 401.14777,34.511504   L 400.76,34.511504   L 400.17834,34.705389   L 399.59669,34.705389   L 399.4028,35.093159   L 398.82115,35.674813   L 398.82115,36.450353   L 399.20892,37.225892   L 399.59669,37.419777   L 400.17834,37.613662   L 401.34165,37.613662   L 402.50496,37.225892   L 403.66827,36.062583   L 403.86215,35.287044   L 403.86215,34.511504   L 403.86215,33.735965  z   "
     id="path141" />
  <path
     style="fill:#000000;fill-rule:nonzero;fill-opacity:1;stroke:#000000;stroke-width:0.19388485px;stroke-linecap:round;stroke-linejoin:round;stroke-miterlimit:4;stroke-dasharray:none;stroke-opacity:1;"
     d="  M 409.29093,39.164741   L 409.29093,23.847837   L 411.22978,23.847837   L 411.22978,39.164741   L 409.29093,39.164741  z   "
     id="path143" />
  <path
     style="fill:#000000;fill-rule:nonzero;fill-opacity:1;stroke:#000000;stroke-width:0.19388485px;stroke-linecap:round;stroke-linejoin:round;stroke-miterlimit:4;stroke-dasharray:none;stroke-opacity:1;"
     d="  M 413.5564,43.430208   L 413.36251,41.685244   L 413.75028,41.879129   L 414.91359,41.879129   L 415.10748,41.685244   L 415.49524,41.685244   L 415.88301,41.297474   L 416.0769,40.909704   L 416.0769,40.71582   L 416.46467,39.55251   L 416.65855,39.55251   L 416.65855,39.358626   L 412.58697,28.113304   L 414.71971,28.113304   L 417.04632,34.123735   L 417.24021,35.287044   L 417.62798,36.450353   L 417.82186,36.062583   L 418.01575,35.287044   L 418.40352,34.511504   L 420.53625,28.113304   L 422.4751,28.113304   L 418.79129,39.55251   L 418.40352,40.521935   L 418.01575,41.297474   L 417.62798,41.879129   L 417.43409,42.460783   L 417.04632,42.848553   L 416.46467,43.236323   L 416.0769,43.430208   L 415.49524,43.624092   L 414.33194,43.624092   L 413.5564,43.430208  z   "
     id="path145" />
  <path
     style="fill:#000000;fill-rule:nonzero;fill-opacity:1;stroke:#000000;stroke-width:0.19388485px;stroke-linecap:round;stroke-linejoin:round;stroke-miterlimit:4;stroke-dasharray:none;stroke-opacity:1;"
     d="  M 423.44452,35.868698   L 425.38337,35.674813   L 425.57726,36.256468   L 425.96503,36.644238   L 426.3528,37.225892   L 426.74057,37.419777   L 427.51611,37.613662   L 428.8733,37.613662   L 429.45495,37.419777   L 429.84272,37.225892   L 430.23049,36.838123   L 430.61826,36.062583   L 430.42438,35.674813   L 429.84272,35.093159   L 429.45495,34.899274   L 428.8733,34.705389   L 428.09776,34.511504   L 427.12834,34.317619   L 426.3528,34.123735   L 425.77114,33.735965   L 425.38337,33.54208   L 424.80172,33.348195   L 424.02618,32.572656   L 423.83229,31.797116   L 423.63841,31.215462   L 423.63841,30.052153   L 423.83229,29.664383   L 424.60783,28.888843   L 424.9956,28.694959   L 425.18949,28.501074   L 425.57726,28.307189   L 426.15891,28.113304   L 426.54668,27.919419   L 428.48553,27.919419   L 429.26107,28.113304   L 430.42438,28.501074   L 430.81215,28.694959   L 431.19992,29.082728   L 431.58769,30.052153   L 431.78157,31.021577   L 429.84272,31.215462   L 429.84272,30.827692   L 429.64884,30.439922   L 429.26107,30.052153   L 428.8733,29.858268   L 428.29165,29.664383   L 427.12834,29.664383   L 426.54668,29.858268   L 426.15891,30.052153   L 425.96503,30.246037   L 425.57726,31.021577   L 425.57726,31.215462   L 425.96503,31.603231   L 426.15891,31.603231   L 426.3528,31.797116   L 426.74057,31.797116   L 427.90388,32.184886   L 428.67942,32.572656   L 429.45495,32.766541   L 430.61826,33.15431   L 431.19992,33.54208   L 431.58769,33.92985   L 432.16934,34.317619   L 432.36323,34.705389   L 432.55711,35.287044   L 432.55711,35.868698   L 432.36323,36.838123   L 432.16934,37.613662   L 431.19992,38.583086   L 430.61826,38.970856   L 429.84272,39.358626   L 428.09776,39.358626   L 426.15891,39.164741   L 424.80172,38.583086   L 424.22006,37.807547   L 423.63841,36.838123   L 423.44452,35.868698  z   "
     id="path147" />
  <path
     style="fill:#000000;fill-rule:nonzero;fill-opacity:1;stroke:#000000;stroke-width:0.19388485px;stroke-linecap:round;stroke-linejoin:round;stroke-miterlimit:4;stroke-dasharray:none;stroke-opacity:1;"
     d="  M 434.88373,25.786686   L 434.88373,23.847837   L 437.01646,23.847837   L 437.01646,25.786686   L 434.88373,25.786686  z    M 434.88373,39.164741   L 434.88373,28.113304   L 437.01646,28.113304   L 437.01646,39.164741   L 434.88373,39.164741  z   "
     id="path149" />
  <path
     style="fill:#000000;fill-rule:nonzero;fill-opacity:1;stroke:#000000;stroke-width:0.19388485px;stroke-linecap:round;stroke-linejoin:round;stroke-miterlimit:4;stroke-dasharray:none;stroke-opacity:1;"
     d="  M 438.76143,35.868698   L 440.70028,35.674813   L 440.89416,36.256468   L 441.28193,36.644238   L 441.6697,37.225892   L 442.05747,37.419777   L 442.83301,37.613662   L 444.1902,37.613662   L 444.77186,37.419777   L 445.15963,37.225892   L 445.5474,36.838123   L 445.93517,36.062583   L 445.74128,35.674813   L 445.15963,35.093159   L 444.77186,34.899274   L 444.1902,34.705389   L 443.41466,34.511504   L 442.44524,34.317619   L 441.6697,34.123735   L 441.08805,33.735965   L 440.70028,33.54208   L 440.11862,33.348195   L 439.34308,32.572656   L 439.1492,31.797116   L 438.95531,31.215462   L 438.95531,30.052153   L 439.1492,29.664383   L 439.92474,28.888843   L 440.31251,28.694959   L 440.50639,28.501074   L 440.89416,28.307189   L 441.47582,28.113304   L 441.86359,27.919419   L 443.80243,27.919419   L 444.57797,28.113304   L 445.74128,28.501074   L 446.12905,28.694959   L 446.51682,29.082728   L 446.90459,30.052153   L 447.09848,31.021577   L 445.15963,31.215462   L 445.15963,30.827692   L 444.96574,30.439922   L 444.57797,30.052153   L 444.1902,29.858268   L 443.60855,29.664383   L 442.44524,29.664383   L 441.86359,29.858268   L 441.47582,30.052153   L 441.28193,30.246037   L 440.89416,31.021577   L 440.89416,31.215462   L 441.08805,31.409347   L 441.28193,31.409347   L 441.28193,31.603231   L 441.47582,31.603231   L 441.6697,31.797116   L 442.05747,31.797116   L 443.22078,32.184886   L 443.99632,32.572656   L 444.77186,32.766541   L 445.93517,33.15431   L 446.51682,33.54208   L 446.90459,33.92985   L 447.48625,34.317619   L 447.68013,34.705389   L 447.87402,35.287044   L 447.87402,35.868698   L 447.68013,36.838123   L 447.48625,37.613662   L 446.51682,38.583086   L 445.93517,38.970856   L 445.15963,39.358626   L 443.41466,39.358626   L 441.6697,39.164741   L 440.11862,38.583086   L 439.53697,37.807547   L 438.95531,36.838123   L 438.76143,35.868698  z   "
     id="path151" />
  <path
     style="fill:#000000;fill-rule:nonzero;fill-opacity:1;stroke:#000000;stroke-width:0.19388485px;stroke-linecap:round;stroke-linejoin:round;stroke-miterlimit:4;stroke-dasharray:none;stroke-opacity:1;"
     d="  M 203.77298,171.20033   L 201.83413,171.20033   L 201.83413,159.17947   L 201.25248,159.56724   L 200.86471,160.14889   L 199.31363,160.92443   L 198.73198,161.11831   L 198.15032,161.50608   L 198.15032,159.56724   L 199.7014,158.7917   L 200.28306,158.40393   L 201.44636,157.24062   L 202.02802,156.46508   L 202.41579,155.88342   L 203.77298,155.88342   L 203.77298,171.20033  z   "
     id="path153" />
  <path
     style="fill:#000000;fill-rule:nonzero;fill-opacity:1;stroke:#000000;stroke-width:0.19388485px;stroke-linecap:round;stroke-linejoin:round;stroke-miterlimit:4;stroke-dasharray:none;stroke-opacity:1;"
     d="  M 456.21106,167.12875   L 458.14991,166.93486   L 458.3438,167.7104   L 458.73157,168.48594   L 458.92545,169.06759   L 459.50711,169.45536   L 460.28265,169.64925   L 461.63984,169.64925   L 462.80315,169.26148   L 463.96646,167.51651   L 464.16034,166.93486   L 464.16034,165.38378   L 463.77257,164.22047   L 463.3848,163.63882   L 462.99703,163.25105   L 462.41538,162.86328   L 461.83373,162.86328   L 461.05819,162.66939   L 459.89488,163.05716   L 458.73157,163.63882   L 458.3438,164.02659   L 456.40495,163.8327   L 457.95603,156.07731   L 465.32365,156.07731   L 465.32365,158.01616   L 459.50711,158.01616   L 458.73157,162.08774   L 459.70099,161.50608   L 460.47653,161.11831   L 461.44596,160.92443   L 463.3848,161.3122   L 464.742,162.28162   L 465.71142,163.8327   L 466.09919,165.77155   L 465.90531,167.90428   L 464.93588,169.64925   L 463.19092,171.00644   L 461.05819,171.39421   L 459.11934,171.20033   L 457.76214,170.2309   L 457.18049,169.64925   L 456.59883,168.87371   L 456.40495,168.09817   L 456.21106,167.12875  z   "
     id="path155" />
  <path
     style="fill:#000000;fill-rule:nonzero;fill-opacity:1;stroke:#000000;stroke-width:0.19388485px;stroke-linecap:round;stroke-linejoin:round;stroke-miterlimit:4;stroke-dasharray:none;stroke-opacity:1;"
     d="  M 474.82401,171.20033   L 472.88516,171.20033   L 472.88516,159.17947   L 472.30351,159.56724   L 471.72185,160.14889   L 470.94631,160.53666   L 470.36466,160.92443   L 469.783,161.11831   L 469.20135,161.50608   L 469.20135,159.56724   L 470.17077,159.17947   L 471.1402,158.59781   L 472.49739,157.24062   L 473.07905,156.46508   L 473.46682,155.88342   L 474.82401,155.88342   L 474.82401,171.20033  z   "
     id="path157" />
  <path
     style="fill:#000000;fill-rule:nonzero;fill-opacity:1;stroke:#000000;stroke-width:0.19388485px;stroke-linecap:round;stroke-linejoin:round;stroke-miterlimit:4;stroke-dasharray:none;stroke-opacity:1;"
     d="  M 479.86502,158.01616   L 479.86502,156.07731   L 489.75314,156.07731   L 489.75314,157.62839   L 488.39595,159.56724   L 487.03876,161.89385   L 485.68156,164.41436   L 484.71214,166.93486   L 484.32437,169.06759   L 484.13048,171.20033   L 482.19164,171.20033   L 482.38552,169.26148   L 482.77329,166.93486   L 483.54883,164.41436   L 484.71214,162.08774   L 486.26322,159.95501   L 487.62041,158.01616   L 479.86502,158.01616  z   "
     id="path159" />
  <path
     style="fill:#000000;fill-rule:nonzero;fill-opacity:1;stroke:#000000;stroke-width:0.19388485px;stroke-linecap:round;stroke-linejoin:round;stroke-miterlimit:4;stroke-dasharray:none;stroke-opacity:1;"
     d="  M 213.46723,121.17803   L 213.46723,107.60609   L 208.23233,107.60609   L 208.23233,105.86113   L 220.44708,105.86113   L 220.44708,107.60609   L 215.40607,107.60609   L 215.40607,121.17803   L 213.46723,121.17803  z   "
     id="path161" />
  <path
     style="fill:#000000;fill-rule:nonzero;fill-opacity:1;stroke:#000000;stroke-width:0.19388485px;stroke-linecap:round;stroke-linejoin:round;stroke-miterlimit:4;stroke-dasharray:none;stroke-opacity:1;"
     d="  M 231.6924,119.23919   L 231.6924,121.17803   L 221.61039,121.17803   L 221.61039,120.59638   L 221.80427,119.82084   L 222.57981,118.26976   L 222.96758,117.68811   L 223.54924,116.91257   L 224.32478,116.13703   L 225.48809,115.36149   L 226.26363,114.58595   L 227.03917,114.00429   L 227.62082,113.22876   L 228.59024,112.25933   L 228.97801,111.67768   L 229.36578,110.51437   L 229.36578,109.35106   L 229.1719,108.7694   L 228.78413,108.38163   L 228.00859,107.99386   L 227.42694,107.79998   L 226.6514,107.60609   L 225.87586,107.60609   L 224.71255,108.38163   L 223.93701,109.15717   L 223.93701,109.73883   L 223.74312,110.32048   L 221.80427,110.1266   L 222.38593,108.18775   L 223.35535,107.02444   L 224.90643,106.2489   L 226.6514,105.86113   L 228.59024,106.2489   L 230.14132,107.02444   L 230.72298,107.60609   L 231.11075,108.38163   L 231.30463,109.15717   L 231.30463,110.70825   L 230.91686,111.87156   L 230.72298,112.25933   L 230.52909,112.84099   L 230.33521,113.22876   L 229.75355,113.61653   L 229.36578,114.19818   L 227.23305,116.33091   L 226.45751,116.91257   L 225.87586,117.49422   L 225.2942,117.88199   L 224.51866,118.65753   L 224.32478,119.23919   L 231.6924,119.23919  z   "
     id="path163" />
  <path
     style="fill:#000000;fill-rule:nonzero;fill-opacity:1;stroke:#000000;stroke-width:0.19388485px;stroke-linecap:round;stroke-linejoin:round;stroke-miterlimit:4;stroke-dasharray:none;stroke-opacity:1;"
     d="  M 233.63125,122.14746   L 235.5701,122.34134   L 235.95787,123.11688   L 236.73341,123.50465   L 236.92729,123.69854   L 237.50895,123.89242   L 238.67226,123.89242   L 239.83557,123.31077   L 240.61111,122.53523   L 240.80499,122.14746   L 240.99888,121.5658   L 240.99888,119.82084   L 240.22334,120.4025   L 239.64168,120.79026   L 238.86614,121.17803   L 238.0906,121.17803   L 235.95787,120.79026   L 234.40679,119.62696   L 233.63125,117.88199   L 233.43737,115.55537   L 233.43737,114.58595   L 233.82514,112.6471   L 234.98844,110.90214   L 235.37621,110.51437   L 236.15175,110.1266   L 236.92729,109.93271   L 238.86614,109.93271   L 239.64168,110.1266   L 240.99888,111.48379   L 240.99888,110.1266   L 242.93772,110.1266   L 242.93772,119.62696   L 242.74384,121.75969   L 242.54995,123.31077   L 241.38664,124.47408   L 240.80499,124.86185   L 240.02945,125.24962   L 239.06003,125.63739   L 238.0906,125.63739   L 236.15175,125.4435   L 234.79456,124.66796   L 234.21291,124.08631   L 234.01902,123.50465   L 233.63125,122.923   L 233.63125,122.14746  z    M 235.37621,115.36149   L 235.5701,117.10645   L 236.34564,118.46365   L 237.12118,119.23919   L 237.50895,119.43307   L 238.67226,119.43307   L 239.25391,119.23919   L 240.02945,118.46365   L 240.41722,117.88199   L 240.80499,117.10645   L 240.80499,116.33091   L 240.99888,115.36149   L 240.99888,114.58595   L 240.80499,113.81041   L 240.41722,113.03487   L 240.02945,112.45322   L 239.64168,112.06545   L 239.25391,111.87156   L 238.67226,111.67768   L 237.50895,111.67768   L 236.73341,112.06545   L 236.34564,112.45322   L 235.5701,113.61653   L 235.37621,114.39206   L 235.37621,115.36149  z   "
     id="path165" />
  <path
     style="fill:#000000;fill-rule:nonzero;fill-opacity:1;stroke:#000000;stroke-width:0.19388485px;stroke-linecap:round;stroke-linejoin:round;stroke-miterlimit:4;stroke-dasharray:none;stroke-opacity:1;"
     d="  M 252.2442,121.17803   L 252.2442,105.86113   L 259.80571,105.86113   L 260.58125,106.05502   L 261.35678,106.05502   L 261.74455,106.2489   L 262.90786,107.02444   L 263.29563,107.60609   L 263.6834,108.38163   L 263.87729,109.15717   L 264.07117,110.1266   L 263.87729,110.90214   L 263.48952,111.87156   L 262.90786,112.6471   L 262.32621,113.22876   L 261.74455,113.61653   L 260.96902,113.81041   L 259.80571,114.00429   L 260.19348,114.19818   L 262.13232,116.13703   L 262.52009,116.91257   L 265.23448,121.17803   L 262.71398,121.17803   L 260.96902,117.88199   L 259.80571,116.33091   L 259.41794,115.74926   L 259.03017,115.36149   L 258.83628,114.97372   L 258.44851,114.77983   L 258.25463,114.58595   L 257.86686,114.39206   L 257.67297,114.19818   L 254.18305,114.19818   L 254.18305,121.17803   L 252.2442,121.17803  z    M 254.18305,112.45322   L 259.99959,112.45322   L 260.58125,112.25933   L 261.35678,111.87156   L 261.93844,110.70825   L 262.13232,110.1266   L 261.93844,109.35106   L 261.74455,108.7694   L 261.35678,108.38163   L 260.77513,107.99386   L 260.38736,107.79998   L 259.61182,107.60609   L 254.18305,107.60609   L 254.18305,112.45322  z   "
     id="path167" />
  <path
     style="fill:none;stroke:#ff0000;stroke-width:1.7449636px;stroke-linecap:round;stroke-linejoin:round;stroke-miterlimit:4;stroke-dasharray:none;stroke-opacity:1;"
     d="  M 207.84456,164.02659   L 455.24164,164.02659  "
     id="path169" />
  <path
     style="fill:none;stroke:#ff0000;stroke-width:0.3877697px;stroke-linecap:round;stroke-linejoin:round;stroke-miterlimit:4;stroke-dasharray:none;stroke-opacity:1;"
     d="  M 108.7694,422.28121   L 607.82902,422.28121  "
     id="path171" />
  <path
     style="fill:none;stroke:#000000;stroke-width:0.96942425px;stroke-linecap:round;stroke-linejoin:round;stroke-miterlimit:4;stroke-dasharray:none;stroke-opacity:1;"
     d="  M 108.7694,422.28121   L 603.56355,422.28121   L 603.56355,63.982002   L 108.7694,63.982002   L 108.7694,422.28121  "
     id="path173" />
</svg>
