<svg width="455" height="364" xmlns="http://www.w3.org/2000/svg" xmlns:xlink="http://www.w3.org/1999/xlink" overflow="hidden"><defs><clipPath id="clip0"><rect x="0" y="0" width="455" height="364"/></clipPath></defs><g clip-path="url(#clip0)"><path d="M54.5242 320.32 61.3492 320.32M436.042 320.32 429.217 320.32 429.224 320.32" stroke="#000000" stroke-width="0.758333" fill="none"/><text font-family="Arial,Arial_MSFontService,sans-serif" font-weight="400" font-size="16" transform="matrix(0.758333 0 0 0.758333 41.405 324)">0</text><path d="M54.5242 287.257 61.3492 287.257M436.042 287.257 429.217 287.257 429.224 287.257" stroke="#000000" stroke-width="0.758333" fill="none"/><text font-family="Arial,Arial_MSFontService,sans-serif" font-weight="400" font-size="16" transform="matrix(0.758333 0 0 0.758333 27.755 291)">100</text><path d="M54.5242 254.193 61.3492 254.193M436.042 254.193 429.217 254.193 429.224 254.193" stroke="#000000" stroke-width="0.758333" fill="none"/><text font-family="Arial,Arial_MSFontService,sans-serif" font-weight="400" font-size="16" transform="matrix(0.758333 0 0 0.758333 27.755 258)">200</text><path d="M54.5242 221.13 61.3492 221.13M436.042 221.13 429.217 221.13 429.224 221.13" stroke="#000000" stroke-width="0.758333" fill="none"/><text font-family="Arial,Arial_MSFontService,sans-serif" font-weight="400" font-size="16" transform="matrix(0.758333 0 0 0.758333 27.755 225)">300</text><path d="M54.5242 187.991 61.3492 187.991M436.042 187.991 429.217 187.991 429.224 187.991" stroke="#000000" stroke-width="0.758333" fill="none"/><text font-family="Arial,Arial_MSFontService,sans-serif" font-weight="400" font-size="16" transform="matrix(0.758333 0 0 0.758333 27.755 191)">400</text><path d="M54.5242 154.928 61.3492 154.928M436.042 154.928 429.217 154.928 429.224 154.928" stroke="#000000" stroke-width="0.758333" fill="none"/><text font-family="Arial,Arial_MSFontService,sans-serif" font-weight="400" font-size="16" transform="matrix(0.758333 0 0 0.758333 27.755 158)">500</text><path d="M54.5242 121.864 61.3492 121.864M436.042 121.864 429.217 121.864 429.224 121.864" stroke="#000000" stroke-width="0.758333" fill="none"/><text font-family="Arial,Arial_MSFontService,sans-serif" font-weight="400" font-size="16" transform="matrix(0.758333 0 0 0.758333 27.755 125)">600</text><path d="M54.5242 320.32 54.5242 313.495M54.5242 121.864 54.5242 128.689 54.5318 128.689" stroke="#000000" stroke-width="0.758333" fill="none"/><text font-family="Arial,Arial_MSFontService,sans-serif" font-weight="400" font-size="16" transform="matrix(0.758333 0 0 0.758333 39.3575 337)">0.000</text><path d="M109.048 320.32 109.048 313.495M109.048 121.864 109.048 128.689 109.056 128.689" stroke="#000000" stroke-width="0.758333" fill="none"/><text font-family="Arial,Arial_MSFontService,sans-serif" font-weight="400" font-size="16" transform="matrix(0.758333 0 0 0.758333 93.8817 337)">0<tspan font-size="16" x="9" y="0">.</tspan>002</text><path d="M163.497 320.32 163.497 313.495M163.497 121.864 163.497 128.689 163.504 128.689" stroke="#000000" stroke-width="0.758333" fill="none"/><text font-family="Arial,Arial_MSFontService,sans-serif" font-weight="400" font-size="16" transform="matrix(0.758333 0 0 0.758333 148.33 337)">0<tspan font-size="16" x="9" y="0">.</tspan><tspan font-size="16" x="13" y="0">004</tspan></text><path d="M218.021 320.32 218.021 313.495M218.021 121.864 218.021 128.689 218.028 128.689" stroke="#000000" stroke-width="0.758333" fill="none"/><text font-family="Arial,Arial_MSFontService,sans-serif" font-weight="400" font-size="16" transform="matrix(0.758333 0 0 0.758333 202.854 337)">0<tspan font-size="16" x="9" y="0">.</tspan><tspan font-size="16" x="13" y="0">006</tspan></text><path d="M272.545 320.32 272.545 313.495M272.545 121.864 272.545 128.689 272.553 128.689" stroke="#000000" stroke-width="0.758333" fill="none"/><text font-family="Arial,Arial_MSFontService,sans-serif" font-weight="400" font-size="16" transform="matrix(0.758333 0 0 0.758333 257.378 337)">0<tspan font-size="16" x="9.00002" y="0">.</tspan><tspan font-size="16" x="13" y="0">008</tspan></text><path d="M327.069 320.32 327.069 313.495M327.069 121.864 327.069 128.689 327.077 128.689" stroke="#000000" stroke-width="0.758333" fill="none"/><text font-family="Arial,Arial_MSFontService,sans-serif" font-weight="400" font-size="16" transform="matrix(0.758333 0 0 0.758333 311.902 337)">0<tspan font-size="16" x="9.00002" y="0">.</tspan><tspan font-size="16" x="13" y="0">010</tspan></text><path d="M381.517 320.32 381.517 313.495M381.517 121.864 381.517 128.689 381.525 128.689" stroke="#000000" stroke-width="0.758333" fill="none"/><text font-family="Arial,Arial_MSFontService,sans-serif" font-weight="400" font-size="16" transform="matrix(0.758333 0 0 0.758333 366.351 337)">0<tspan font-size="16" x="9.00002" y="0">.</tspan><tspan font-size="16" x="13" y="0">012</tspan></text><path d="M436.042 320.32 436.042 313.495M436.042 121.864 436.042 128.689 436.049 128.689" stroke="#000000" stroke-width="0.758333" fill="none"/><text font-family="Arial,Arial_MSFontService,sans-serif" font-weight="400" font-size="16" transform="matrix(0.758333 0 0 0.758333 420.875 337)">0<tspan font-size="16" x="9.00002" y="0">.</tspan><tspan font-size="16" x="13" y="0">014</tspan></text><path d="M54.5242 121.864 54.5242 320.32 436.042 320.32 436.042 121.864 54.5242 121.864ZM54.5242 121.864 54.5318 121.864" stroke="#000000" stroke-width="0.758333" fill="none"/><text font-family="Arial,Arial_MSFontService,sans-serif" font-weight="400" font-size="16" transform="matrix(-1.39304e-16 -0.758333 0.758333 -1.39304e-16 13.3467 253)">distributions</text><text font-family="Arial,Arial_MSFontService,sans-serif" font-weight="400" font-size="16" transform="matrix(0.758333 0 0 0.758333 213.016 358)">KE <tspan font-size="16" x="26" y="0">(</tspan><tspan font-size="16" x="31" y="0">hartree</tspan><tspan font-size="16" x="80" y="0">)</tspan><tspan font-size="16" x="164" y="-288.791">Langevin</tspan></text><path d="M57.9367 225.073C57.9367 226.958 56.4088 228.486 54.5242 228.486 52.6395 228.486 51.1117 226.958 51.1117 225.073 51.1117 223.189 52.6395 221.661 54.5242 221.661 56.4088 221.661 57.9367 223.189 57.9367 225.073Z" stroke="#FF0000" stroke-width="0.757575" fill="none"/><path d="M62.4867 172.445C62.4867 174.33 60.9588 175.858 59.0742 175.858 57.1895 175.858 55.6617 174.33 55.6617 172.445 55.6617 170.56 57.1895 169.033 59.0742 169.033 60.9588 169.033 62.4867 170.56 62.4867 172.445Z" stroke="#FF0000" stroke-width="0.757575" fill="none"/><path d="M66.9608 159.326C66.9608 161.211 65.433 162.738 63.5483 162.738 61.6637 162.738 60.1358 161.211 60.1358 159.326 60.1358 157.441 61.6637 155.913 63.5483 155.913 65.433 155.913 66.9608 157.441 66.9608 159.326Z" stroke="#FF0000" stroke-width="0.757575" fill="none"/><path d="M71.5108 157.809C71.5108 159.694 69.983 161.222 68.0983 161.222 66.2137 161.222 64.6858 159.694 64.6858 157.809 64.6858 155.924 66.2137 154.397 68.0983 154.397 69.983 154.397 71.5108 155.924 71.5108 157.809Z" stroke="#FF0000" stroke-width="0.757575" fill="none"/><path d="M75.985 166.682C75.985 168.566 74.4572 170.094 72.5725 170.094 70.6878 170.094 69.16 168.566 69.16 166.682 69.16 164.797 70.6878 163.269 72.5725 163.269 74.4572 163.269 75.985 164.797 75.985 166.682Z" stroke="#FF0000" stroke-width="0.757575" fill="none"/><path d="M80.535 175.251C80.535 177.136 79.0072 178.663 77.1225 178.663 75.2378 178.663 73.71 177.136 73.71 175.251 73.71 173.366 75.2378 171.838 77.1225 171.838 79.0072 171.838 80.535 173.366 80.535 175.251Z" stroke="#FF0000" stroke-width="0.757575" fill="none"/><path d="M85.0092 186.929C85.0092 188.814 83.4813 190.342 81.5967 190.342 79.712 190.342 78.1842 188.814 78.1842 186.929 78.1842 185.044 79.712 183.517 81.5967 183.517 83.4813 183.517 85.0092 185.044 85.0092 186.929Z" stroke="#FF0000" stroke-width="0.757575" fill="none"/><path d="M89.5592 200.655C89.5592 202.54 88.0313 204.068 86.1467 204.068 84.262 204.068 82.7342 202.54 82.7342 200.655 82.7342 198.77 84.262 197.242 86.1467 197.242 88.0313 197.242 89.5592 198.77 89.5592 200.655Z" stroke="#FF0000" stroke-width="0.757575" fill="none"/><path d="M94.0333 211.651C94.0333 213.536 92.5055 215.063 90.6208 215.063 88.7362 215.063 87.2083 213.536 87.2083 211.651 87.2083 209.766 88.7362 208.238 90.6208 208.238 92.5055 208.238 94.0333 209.766 94.0333 211.651Z" stroke="#FF0000" stroke-width="0.757575" fill="none"/><path d="M98.5833 224.315C98.5833 226.2 97.0555 227.728 95.1708 227.728 93.2862 227.728 91.7583 226.2 91.7583 224.315 91.7583 222.43 93.2862 220.902 95.1708 220.902 97.0555 220.902 98.5833 222.43 98.5833 224.315Z" stroke="#FF0000" stroke-width="0.757575" fill="none"/><path d="M103.057 234.401C103.057 236.286 101.53 237.813 99.645 237.813 97.7603 237.813 96.2325 236.286 96.2325 234.401 96.2325 232.516 97.7603 230.988 99.645 230.988 101.53 230.988 103.057 232.516 103.057 234.401Z" stroke="#FF0000" stroke-width="0.757575" fill="none"/><path d="M107.607 244.259C107.607 246.144 106.08 247.672 104.195 247.672 102.31 247.672 100.783 246.144 100.783 244.259 100.783 242.374 102.31 240.847 104.195 240.847 106.08 240.847 107.607 242.374 107.607 244.259Z" stroke="#FF0000" stroke-width="0.757575" fill="none"/><path d="M112.158 254.269C112.158 256.154 110.63 257.682 108.745 257.682 106.86 257.682 105.333 256.154 105.333 254.269 105.333 252.384 106.86 250.857 108.745 250.857 110.63 250.857 112.158 252.384 112.158 254.269Z" stroke="#FF0000" stroke-width="0.757575" fill="none"/><path d="M116.632 261.17C116.632 263.055 115.104 264.583 113.219 264.583 111.334 264.583 109.807 263.055 109.807 261.17 109.807 259.285 111.334 257.758 113.219 257.758 115.104 257.758 116.632 259.285 116.632 261.17Z" stroke="#FF0000" stroke-width="0.757575" fill="none"/><path d="M121.182 269.663C121.182 271.548 119.654 273.076 117.769 273.076 115.884 273.076 114.357 271.548 114.357 269.663 114.357 267.779 115.884 266.251 117.769 266.251 119.654 266.251 121.182 267.779 121.182 269.663Z" stroke="#FF0000" stroke-width="0.757575" fill="none"/><path d="M125.656 276.185C125.656 278.07 124.128 279.598 122.243 279.598 120.359 279.598 118.831 278.07 118.831 276.185 118.831 274.3 120.359 272.772 122.243 272.772 124.128 272.772 125.656 274.3 125.656 276.185Z" stroke="#FF0000" stroke-width="0.757575" fill="none"/><path d="M130.206 281.569C130.206 283.454 128.678 284.982 126.793 284.982 124.909 284.982 123.381 283.454 123.381 281.569 123.381 279.684 124.909 278.157 126.793 278.157 128.678 278.157 130.206 279.684 130.206 281.569Z" stroke="#FF0000" stroke-width="0.757575" fill="none"/><path d="M134.68 286.271C134.68 288.156 133.152 289.683 131.268 289.683 129.383 289.683 127.855 288.156 127.855 286.271 127.855 284.386 129.383 282.858 131.268 282.858 133.152 282.858 134.68 284.386 134.68 286.271Z" stroke="#FF0000" stroke-width="0.757575" fill="none"/><path d="M139.23 290.29C139.23 292.175 137.702 293.703 135.818 293.703 133.933 293.703 132.405 292.175 132.405 290.29 132.405 288.405 133.933 286.878 135.818 286.878 137.702 286.878 139.23 288.405 139.23 290.29Z" stroke="#FF0000" stroke-width="0.757575" fill="none"/><path d="M143.704 294.006C143.704 295.891 142.176 297.418 140.292 297.418 138.407 297.418 136.879 295.891 136.879 294.006 136.879 292.121 138.407 290.593 140.292 290.593 142.176 290.593 143.704 292.121 143.704 294.006Z" stroke="#FF0000" stroke-width="0.757575" fill="none"/><path d="M148.254 297.722C148.254 299.606 146.726 301.134 144.842 301.134 142.957 301.134 141.429 299.606 141.429 297.722 141.429 295.837 142.957 294.309 144.842 294.309 146.726 294.309 148.254 295.837 148.254 297.722Z" stroke="#FF0000" stroke-width="0.757575" fill="none"/><path d="M152.804 300.907C152.804 302.791 151.276 304.319 149.392 304.319 147.507 304.319 145.979 302.791 145.979 300.907 145.979 299.022 147.507 297.494 149.392 297.494 151.276 297.494 152.804 299.022 152.804 300.907Z" stroke="#FF0000" stroke-width="0.757575" fill="none"/><path d="M157.278 303.788C157.278 305.673 155.751 307.201 153.866 307.201 151.981 307.201 150.453 305.673 150.453 303.788 150.453 301.904 151.981 300.376 153.866 300.376 155.751 300.376 157.278 301.904 157.278 303.788Z" stroke="#FF0000" stroke-width="0.757575" fill="none"/><path d="M161.828 305.836C161.828 307.721 160.301 309.248 158.416 309.248 156.531 309.248 155.003 307.721 155.003 305.836 155.003 303.951 156.531 302.423 158.416 302.423 160.301 302.423 161.828 303.951 161.828 305.836Z" stroke="#FF0000" stroke-width="0.757575" fill="none"/><path d="M166.303 307.959C166.303 309.844 164.775 311.372 162.89 311.372 161.005 311.372 159.477 309.844 159.477 307.959 159.477 306.074 161.005 304.547 162.89 304.547 164.775 304.547 166.303 306.074 166.303 307.959Z" stroke="#FF0000" stroke-width="0.757575" fill="none"/><path d="M170.853 309.476C170.853 311.361 169.325 312.888 167.44 312.888 165.555 312.888 164.027 311.361 164.027 309.476 164.027 307.591 165.555 306.063 167.44 306.063 169.325 306.063 170.853 307.591 170.853 309.476Z" stroke="#FF0000" stroke-width="0.757575" fill="none"/><path d="M175.327 311.144C175.327 313.029 173.799 314.557 171.914 314.557 170.029 314.557 168.502 313.029 168.502 311.144 168.502 309.259 170.029 307.732 171.914 307.732 173.799 307.732 175.327 309.259 175.327 311.144Z" stroke="#FF0000" stroke-width="0.757575" fill="none"/><path d="M179.877 312.509C179.877 314.394 178.349 315.922 176.464 315.922 174.579 315.922 173.052 314.394 173.052 312.509 173.052 310.624 174.579 309.097 176.464 309.097 178.349 309.097 179.877 310.624 179.877 312.509Z" stroke="#FF0000" stroke-width="0.757575" fill="none"/><path d="M184.351 313.267C184.351 315.152 182.823 316.68 180.938 316.68 179.054 316.68 177.526 315.152 177.526 313.267 177.526 311.383 179.054 309.855 180.938 309.855 182.823 309.855 184.351 311.383 184.351 313.267Z" stroke="#FF0000" stroke-width="0.757575" fill="none"/><path d="M188.901 314.329C188.901 316.214 187.373 317.742 185.488 317.742 183.604 317.742 182.076 316.214 182.076 314.329 182.076 312.444 183.604 310.917 185.488 310.917 187.373 310.917 188.901 312.444 188.901 314.329Z" stroke="#FF0000" stroke-width="0.757575" fill="none"/><path d="M193.375 315.391C193.375 317.276 191.847 318.803 189.962 318.803 188.078 318.803 186.55 317.276 186.55 315.391 186.55 313.506 188.078 311.978 189.962 311.978 191.847 311.978 193.375 313.506 193.375 315.391Z" stroke="#FF0000" stroke-width="0.757575" fill="none"/><path d="M197.925 315.997C197.925 317.882 196.397 319.41 194.512 319.41 192.628 319.41 191.1 317.882 191.1 315.997 191.1 314.113 192.628 312.585 194.512 312.585 196.397 312.585 197.925 314.113 197.925 315.997Z" stroke="#FF0000" stroke-width="0.757575" fill="none"/><path d="M202.475 316.377C202.475 318.261 200.947 319.789 199.062 319.789 197.178 319.789 195.65 318.261 195.65 316.377 195.65 314.492 197.178 312.964 199.062 312.964 200.947 312.964 202.475 314.492 202.475 316.377Z" stroke="#FF0000" stroke-width="0.757575" fill="none"/><path d="M206.949 317.135C206.949 319.02 205.421 320.548 203.537 320.548 201.652 320.548 200.124 319.02 200.124 317.135 200.124 315.25 201.652 313.723 203.537 313.723 205.421 313.723 206.949 315.25 206.949 317.135Z" stroke="#FF0000" stroke-width="0.757575" fill="none"/><path d="M211.499 317.666C211.499 319.551 209.971 321.078 208.087 321.078 206.202 321.078 204.674 319.551 204.674 317.666 204.674 315.781 206.202 314.253 208.087 314.253 209.971 314.253 211.499 315.781 211.499 317.666Z" stroke="#FF0000" stroke-width="0.757575" fill="none"/><path d="M215.973 317.969C215.973 319.854 214.446 321.382 212.561 321.382 210.676 321.382 209.148 319.854 209.148 317.969 209.148 316.085 210.676 314.557 212.561 314.557 214.446 314.557 215.973 316.085 215.973 317.969Z" stroke="#FF0000" stroke-width="0.757575" fill="none"/><path d="M220.523 318.272C220.523 320.157 218.996 321.685 217.111 321.685 215.226 321.685 213.698 320.157 213.698 318.272 213.698 316.388 215.226 314.86 217.111 314.86 218.996 314.86 220.523 316.388 220.523 318.272Z" stroke="#FF0000" stroke-width="0.757575" fill="none"/><path d="M224.998 318.5C224.998 320.385 223.47 321.913 221.585 321.913 219.7 321.913 218.173 320.385 218.173 318.5 218.173 316.615 219.7 315.087 221.585 315.087 223.47 315.087 224.998 316.615 224.998 318.5Z" stroke="#FF0000" stroke-width="0.757575" fill="none"/><path d="M229.548 318.803C229.548 320.688 228.02 322.216 226.135 322.216 224.25 322.216 222.722 320.688 222.722 318.803 222.722 316.919 224.25 315.391 226.135 315.391 228.02 315.391 229.548 316.919 229.548 318.803Z" stroke="#FF0000" stroke-width="0.757575" fill="none"/><path d="M234.022 319.107C234.022 320.991 232.494 322.519 230.609 322.519 228.724 322.519 227.197 320.991 227.197 319.107 227.197 317.222 228.724 315.694 230.609 315.694 232.494 315.694 234.022 317.222 234.022 319.107Z" stroke="#FF0000" stroke-width="0.757575" fill="none"/><path d="M238.572 319.107C238.572 320.991 237.044 322.519 235.159 322.519 233.274 322.519 231.747 320.991 231.747 319.107 231.747 317.222 233.274 315.694 235.159 315.694 237.044 315.694 238.572 317.222 238.572 319.107Z" stroke="#FF0000" stroke-width="0.757575" fill="none"/><path d="M243.122 319.41C243.122 321.295 241.594 322.823 239.709 322.823 237.824 322.823 236.297 321.295 236.297 319.41 236.297 317.525 237.824 315.997 239.709 315.997 241.594 315.997 243.122 317.525 243.122 319.41Z" stroke="#FF0000" stroke-width="0.757575" fill="none"/><path d="M247.596 319.562C247.596 321.446 246.068 322.974 244.183 322.974 242.299 322.974 240.771 321.446 240.771 319.562 240.771 317.677 242.299 316.149 244.183 316.149 246.068 316.149 247.596 317.677 247.596 319.562Z" stroke="#FF0000" stroke-width="0.757575" fill="none"/><path d="M252.146 319.562C252.146 321.446 250.618 322.974 248.733 322.974 246.849 322.974 245.321 321.446 245.321 319.562 245.321 317.677 246.849 316.149 248.733 316.149 250.618 316.149 252.146 317.677 252.146 319.562Z" stroke="#FF0000" stroke-width="0.757575" fill="none"/><path d="M256.62 319.713C256.62 321.598 255.092 323.126 253.208 323.126 251.323 323.126 249.795 321.598 249.795 319.713 249.795 317.829 251.323 316.301 253.208 316.301 255.092 316.301 256.62 317.829 256.62 319.713Z" stroke="#FF0000" stroke-width="0.757575" fill="none"/><path d="M261.17 319.865C261.17 321.75 259.642 323.277 257.758 323.277 255.873 323.277 254.345 321.75 254.345 319.865 254.345 317.98 255.873 316.452 257.758 316.452 259.642 316.452 261.17 317.98 261.17 319.865Z" stroke="#FF0000" stroke-width="0.757575" fill="none"/><path d="M265.644 319.865C265.644 321.75 264.116 323.277 262.232 323.277 260.347 323.277 258.819 321.75 258.819 319.865 258.819 317.98 260.347 316.452 262.232 316.452 264.116 316.452 265.644 317.98 265.644 319.865Z" stroke="#FF0000" stroke-width="0.757575" fill="none"/><path d="M270.194 319.941C270.194 321.826 268.666 323.353 266.782 323.353 264.897 323.353 263.369 321.826 263.369 319.941 263.369 318.056 264.897 316.528 266.782 316.528 268.666 316.528 270.194 318.056 270.194 319.941Z" stroke="#FF0000" stroke-width="0.757575" fill="none"/><path d="M274.668 320.092C274.668 321.977 273.141 323.505 271.256 323.505 269.371 323.505 267.843 321.977 267.843 320.092 267.843 318.208 269.371 316.68 271.256 316.68 273.141 316.68 274.668 318.208 274.668 320.092Z" stroke="#FF0000" stroke-width="0.757575" fill="none"/><path d="M279.218 320.092C279.218 321.977 277.691 323.505 275.806 323.505 273.921 323.505 272.393 321.977 272.393 320.092 272.393 318.208 273.921 316.68 275.806 316.68 277.691 316.68 279.218 318.208 279.218 320.092Z" stroke="#FF0000" stroke-width="0.757575" fill="none"/><path d="M283.693 320.092C283.693 321.977 282.165 323.505 280.28 323.505 278.395 323.505 276.867 321.977 276.867 320.092 276.867 318.208 278.395 316.68 280.28 316.68 282.165 316.68 283.693 318.208 283.693 320.092Z" stroke="#FF0000" stroke-width="0.757575" fill="none"/><path d="M288.242 320.168C288.242 322.053 286.715 323.581 284.83 323.581 282.945 323.581 281.417 322.053 281.417 320.168 281.417 318.284 282.945 316.756 284.83 316.756 286.715 316.756 288.242 318.284 288.242 320.168Z" stroke="#FF0000" stroke-width="0.757575" fill="none"/><path d="M292.793 320.168C292.793 322.053 291.265 323.581 289.38 323.581 287.495 323.581 285.967 322.053 285.967 320.168 285.967 318.284 287.495 316.756 289.38 316.756 291.265 316.756 292.793 318.284 292.793 320.168Z" stroke="#FF0000" stroke-width="0.757575" fill="none"/><path d="M297.267 320.168C297.267 322.053 295.739 323.581 293.854 323.581 291.969 323.581 290.442 322.053 290.442 320.168 290.442 318.284 291.969 316.756 293.854 316.756 295.739 316.756 297.267 318.284 297.267 320.168Z" stroke="#FF0000" stroke-width="0.757575" fill="none"/><path d="M301.817 320.168C301.817 322.053 300.289 323.581 298.404 323.581 296.52 323.581 294.992 322.053 294.992 320.168 294.992 318.284 296.52 316.756 298.404 316.756 300.289 316.756 301.817 318.284 301.817 320.168Z" stroke="#FF0000" stroke-width="0.757575" fill="none"/><path d="M306.291 320.244C306.291 322.129 304.763 323.657 302.878 323.657 300.994 323.657 299.466 322.129 299.466 320.244 299.466 318.359 300.994 316.832 302.878 316.832 304.763 316.832 306.291 318.359 306.291 320.244Z" stroke="#FF0000" stroke-width="0.757575" fill="none"/><path d="M310.841 320.244C310.841 322.129 309.313 323.657 307.428 323.657 305.544 323.657 304.016 322.129 304.016 320.244 304.016 318.359 305.544 316.832 307.428 316.832 309.313 316.832 310.841 318.359 310.841 320.244Z" stroke="#FF0000" stroke-width="0.757575" fill="none"/><path d="M315.315 320.244C315.315 322.129 313.787 323.657 311.902 323.657 310.018 323.657 308.49 322.129 308.49 320.244 308.49 318.359 310.018 316.832 311.902 316.832 313.787 316.832 315.315 318.359 315.315 320.244Z" stroke="#FF0000" stroke-width="0.757575" fill="none"/><path d="M319.865 320.244C319.865 322.129 318.337 323.657 316.453 323.657 314.568 323.657 313.04 322.129 313.04 320.244 313.04 318.359 314.568 316.832 316.453 316.832 318.337 316.832 319.865 318.359 319.865 320.244Z" stroke="#FF0000" stroke-width="0.757575" fill="none"/><path d="M324.339 320.32C324.339 322.205 322.811 323.733 320.927 323.733 319.042 323.733 317.514 322.205 317.514 320.32 317.514 318.435 319.042 316.908 320.927 316.908 322.811 316.908 324.339 318.435 324.339 320.32Z" stroke="#FF0000" stroke-width="0.757575" fill="none"/><path d="M328.889 320.32C328.889 322.205 327.361 323.733 325.477 323.733 323.592 323.733 322.064 322.205 322.064 320.32 322.064 318.435 323.592 316.908 325.477 316.908 327.361 316.908 328.889 318.435 328.889 320.32Z" stroke="#FF0000" stroke-width="0.757575" fill="none"/><path d="M333.439 320.32C333.439 322.205 331.911 323.733 330.027 323.733 328.142 323.733 326.614 322.205 326.614 320.32 326.614 318.435 328.142 316.908 330.027 316.908 331.911 316.908 333.439 318.435 333.439 320.32Z" stroke="#FF0000" stroke-width="0.757575" fill="none"/><path d="M337.913 320.244C337.913 322.129 336.385 323.657 334.501 323.657 332.616 323.657 331.088 322.129 331.088 320.244 331.088 318.359 332.616 316.832 334.501 316.832 336.385 316.832 337.913 318.359 337.913 320.244Z" stroke="#FF0000" stroke-width="0.757575" fill="none"/><path d="M342.463 320.32C342.463 322.205 340.936 323.733 339.051 323.733 337.166 323.733 335.638 322.205 335.638 320.32 335.638 318.435 337.166 316.908 339.051 316.908 340.936 316.908 342.463 318.435 342.463 320.32Z" stroke="#FF0000" stroke-width="0.757575" fill="none"/><path d="M346.938 320.32C346.938 322.205 345.41 323.733 343.525 323.733 341.64 323.733 340.112 322.205 340.112 320.32 340.112 318.435 341.64 316.908 343.525 316.908 345.41 316.908 346.938 318.435 346.938 320.32Z" stroke="#FF0000" stroke-width="0.757575" fill="none"/><path d="M351.488 320.32C351.488 322.205 349.96 323.733 348.075 323.733 346.19 323.733 344.663 322.205 344.663 320.32 344.663 318.435 346.19 316.908 348.075 316.908 349.96 316.908 351.488 318.435 351.488 320.32Z" stroke="#FF0000" stroke-width="0.757575" fill="none"/><path d="M355.962 320.32C355.962 322.205 354.434 323.733 352.549 323.733 350.664 323.733 349.137 322.205 349.137 320.32 349.137 318.435 350.664 316.908 352.549 316.908 354.434 316.908 355.962 318.435 355.962 320.32Z" stroke="#FF0000" stroke-width="0.757575" fill="none"/><path d="M360.512 320.32C360.512 322.205 358.984 323.733 357.099 323.733 355.214 323.733 353.687 322.205 353.687 320.32 353.687 318.435 355.214 316.908 357.099 316.908 358.984 316.908 360.512 318.435 360.512 320.32Z" stroke="#FF0000" stroke-width="0.757575" fill="none"/><path d="M364.986 320.32C364.986 322.205 363.458 323.733 361.573 323.733 359.689 323.733 358.161 322.205 358.161 320.32 358.161 318.435 359.689 316.908 361.573 316.908 363.458 316.908 364.986 318.435 364.986 320.32Z" stroke="#FF0000" stroke-width="0.757575" fill="none"/><path d="M369.536 320.32C369.536 322.205 368.008 323.733 366.123 323.733 364.239 323.733 362.711 322.205 362.711 320.32 362.711 318.435 364.239 316.908 366.123 316.908 368.008 316.908 369.536 318.435 369.536 320.32Z" stroke="#FF0000" stroke-width="0.757575" fill="none"/><path d="M374.01 320.32C374.01 322.205 372.482 323.733 370.598 323.733 368.713 323.733 367.185 322.205 367.185 320.32 367.185 318.435 368.713 316.908 370.598 316.908 372.482 316.908 374.01 318.435 374.01 320.32Z" stroke="#FF0000" stroke-width="0.757575" fill="none"/><path d="M378.56 320.32C378.56 322.205 377.032 323.733 375.147 323.733 373.263 323.733 371.735 322.205 371.735 320.32 371.735 318.435 373.263 316.908 375.147 316.908 377.032 316.908 378.56 318.435 378.56 320.32Z" stroke="#FF0000" stroke-width="0.757575" fill="none"/><path d="M383.11 320.32C383.11 322.205 381.582 323.733 379.698 323.733 377.813 323.733 376.285 322.205 376.285 320.32 376.285 318.435 377.813 316.908 379.698 316.908 381.582 316.908 383.11 318.435 383.11 320.32Z" stroke="#FF0000" stroke-width="0.757575" fill="none"/><path d="M410.182 320.32C410.182 322.205 408.655 323.733 406.77 323.733 404.885 323.733 403.357 322.205 403.357 320.32 403.357 318.435 404.885 316.908 406.77 316.908 408.655 316.908 410.182 318.435 410.182 320.32Z" stroke="#FF0000" stroke-width="0.757575" fill="none"/><path d="M414.657 320.32C414.657 322.205 413.129 323.733 411.244 323.733 409.359 323.733 407.832 322.205 407.832 320.32 407.832 318.435 409.359 316.908 411.244 316.908 413.129 316.908 414.657 318.435 414.657 320.32Z" stroke="#FF0000" stroke-width="0.757575" fill="none"/><path d="M410.865 135.514C410.865 137.399 409.337 138.927 407.453 138.927 405.568 138.927 404.04 137.399 404.04 135.514 404.04 133.629 405.568 132.102 407.453 132.102 409.337 132.102 410.865 133.629 410.865 135.514Z" stroke="#FF0000" stroke-width="0.757575" fill="none"/><text font-family="Arial,Arial_MSFontService,sans-serif" font-weight="400" font-size="16" transform="matrix(0.758333 0 0 0.758333 347.241 153)">Hoover<tspan font-size="16" x="-5.00003" y="0">-</tspan><tspan font-size="16" x="-42" y="0">Nose</tspan></text><path d="M57.9367 202.778C57.9367 204.663 56.4088 206.191 54.5242 206.191 52.6395 206.191 51.1117 204.663 51.1117 202.778 51.1117 200.894 52.6395 199.366 54.5242 199.366 56.4088 199.366 57.9367 200.894 57.9367 202.778Z" stroke="#008000" stroke-width="0.757575" fill="none"/><path d="M62.4867 146.813C62.4867 148.698 60.9588 150.226 59.0742 150.226 57.1895 150.226 55.6617 148.698 55.6617 146.813 55.6617 144.929 57.1895 143.401 59.0742 143.401 60.9588 143.401 62.4867 144.929 62.4867 146.813Z" stroke="#008000" stroke-width="0.757575" fill="none"/><path d="M67.0367 138.472C67.0367 140.356 65.5088 141.884 63.6242 141.884 61.7395 141.884 60.2117 140.356 60.2117 138.472 60.2117 136.587 61.7395 135.059 63.6242 135.059 65.5088 135.059 67.0367 136.587 67.0367 138.472Z" stroke="#008000" stroke-width="0.757575" fill="none"/><path d="M71.5867 147.42C71.5867 149.305 70.0588 150.833 68.1742 150.833 66.2895 150.833 64.7617 149.305 64.7617 147.42 64.7617 145.535 66.2895 144.007 68.1742 144.007 70.0588 144.007 71.5867 145.535 71.5867 147.42Z" stroke="#008000" stroke-width="0.757575" fill="none"/><path d="M76.2125 160.615C76.2125 162.5 74.6847 164.028 72.8 164.028 70.9153 164.028 69.3875 162.5 69.3875 160.615 69.3875 158.73 70.9153 157.202 72.8 157.202 74.6847 157.202 76.2125 158.73 76.2125 160.615Z" stroke="#008000" stroke-width="0.757575" fill="none"/><path d="M80.7625 177.753C80.7625 179.638 79.2347 181.166 77.35 181.166 75.4653 181.166 73.9375 179.638 73.9375 177.753 73.9375 175.869 75.4653 174.341 77.35 174.341 79.2347 174.341 80.7625 175.869 80.7625 177.753Z" stroke="#008000" stroke-width="0.757575" fill="none"/><path d="M85.3125 193.072C85.3125 194.956 83.7847 196.484 81.9 196.484 80.0153 196.484 78.4875 194.956 78.4875 193.072 78.4875 191.187 80.0153 189.659 81.9 189.659 83.7847 189.659 85.3125 191.187 85.3125 193.072Z" stroke="#008000" stroke-width="0.757575" fill="none"/><path d="M89.8625 207.783C89.8625 209.668 88.3347 211.196 86.45 211.196 84.5653 211.196 83.0375 209.668 83.0375 207.783 83.0375 205.899 84.5653 204.371 86.45 204.371 88.3347 204.371 89.8625 205.899 89.8625 207.783Z" stroke="#008000" stroke-width="0.757575" fill="none"/><path d="M94.4125 221.13C94.4125 223.015 92.8847 224.543 91 224.543 89.1153 224.543 87.5875 223.015 87.5875 221.13 87.5875 219.245 89.1153 217.717 91 217.717 92.8847 217.717 94.4125 219.245 94.4125 221.13Z" stroke="#008000" stroke-width="0.757575" fill="none"/><path d="M98.9625 234.704C98.9625 236.589 97.4347 238.117 95.55 238.117 93.6653 238.117 92.1375 236.589 92.1375 234.704 92.1375 232.819 93.6653 231.292 95.55 231.292 97.4347 231.292 98.9625 232.819 98.9625 234.704Z" stroke="#008000" stroke-width="0.757575" fill="none"/><path d="M103.512 245.7C103.512 247.585 101.985 249.113 100.1 249.113 98.2153 249.113 96.6875 247.585 96.6875 245.7 96.6875 243.815 98.2153 242.287 100.1 242.287 101.985 242.287 103.512 243.815 103.512 245.7Z" stroke="#008000" stroke-width="0.757575" fill="none"/><path d="M108.138 254.8C108.138 256.685 106.611 258.212 104.726 258.212 102.841 258.212 101.313 256.685 101.313 254.8 101.313 252.915 102.841 251.387 104.726 251.387 106.611 251.387 108.138 252.915 108.138 254.8Z" stroke="#008000" stroke-width="0.757575" fill="none"/><path d="M112.688 262.611C112.688 264.496 111.161 266.023 109.276 266.023 107.391 266.023 105.863 264.496 105.863 262.611 105.863 260.726 107.391 259.198 109.276 259.198 111.161 259.198 112.688 260.726 112.688 262.611Z" stroke="#008000" stroke-width="0.757575" fill="none"/><path d="M117.238 271.104C117.238 272.989 115.711 274.517 113.826 274.517 111.941 274.517 110.413 272.989 110.413 271.104 110.413 269.219 111.941 267.692 113.826 267.692 115.711 267.692 117.238 269.219 117.238 271.104Z" stroke="#008000" stroke-width="0.757575" fill="none"/><path d="M121.788 277.55C121.788 279.435 120.261 280.962 118.376 280.962 116.491 280.962 114.963 279.435 114.963 277.55 114.963 275.665 116.491 274.137 118.376 274.137 120.261 274.137 121.788 275.665 121.788 277.55Z" stroke="#008000" stroke-width="0.757575" fill="none"/><path d="M126.338 282.479C126.338 284.364 124.811 285.892 122.926 285.892 121.041 285.892 119.513 284.364 119.513 282.479 119.513 280.594 121.041 279.067 122.926 279.067 124.811 279.067 126.338 280.594 126.338 282.479Z" stroke="#008000" stroke-width="0.757575" fill="none"/><path d="M130.888 287.712C130.888 289.596 129.361 291.124 127.476 291.124 125.591 291.124 124.063 289.596 124.063 287.712 124.063 285.827 125.591 284.299 127.476 284.299 129.361 284.299 130.888 285.827 130.888 287.712Z" stroke="#008000" stroke-width="0.757575" fill="none"/><path d="M135.438 291.579C135.438 293.464 133.911 294.992 132.026 294.992 130.141 294.992 128.613 293.464 128.613 291.579 128.613 289.694 130.141 288.167 132.026 288.167 133.911 288.167 135.438 289.694 135.438 291.579Z" stroke="#008000" stroke-width="0.757575" fill="none"/><path d="M140.064 295.068C140.064 296.952 138.536 298.48 136.652 298.48 134.767 298.48 133.239 296.952 133.239 295.068 133.239 293.183 134.767 291.655 136.652 291.655 138.536 291.655 140.064 293.183 140.064 295.068Z" stroke="#008000" stroke-width="0.757575" fill="none"/><path d="M144.614 298.48C144.614 300.365 143.086 301.893 141.202 301.893 139.317 301.893 137.789 300.365 137.789 298.48 137.789 296.595 139.317 295.068 141.202 295.068 143.086 295.068 144.614 296.595 144.614 298.48Z" stroke="#008000" stroke-width="0.757575" fill="none"/><path d="M149.164 300.452C149.164 302.336 147.636 303.864 145.752 303.864 143.867 303.864 142.339 302.336 142.339 300.452 142.339 298.567 143.867 297.039 145.752 297.039 147.636 297.039 149.164 298.567 149.164 300.452Z" stroke="#008000" stroke-width="0.757575" fill="none"/><path d="M153.714 303.258C153.714 305.142 152.186 306.67 150.302 306.67 148.417 306.67 146.889 305.142 146.889 303.258 146.889 301.373 148.417 299.845 150.302 299.845 152.186 299.845 153.714 301.373 153.714 303.258Z" stroke="#008000" stroke-width="0.757575" fill="none"/><path d="M158.264 305.76C158.264 307.645 156.736 309.173 154.852 309.173 152.967 309.173 151.439 307.645 151.439 305.76 151.439 303.875 152.967 302.348 154.852 302.348 156.736 302.348 158.264 303.875 158.264 305.76Z" stroke="#008000" stroke-width="0.757575" fill="none"/><path d="M162.814 307.201C162.814 309.086 161.286 310.613 159.402 310.613 157.517 310.613 155.989 309.086 155.989 307.201 155.989 305.316 157.517 303.788 159.402 303.788 161.286 303.788 162.814 305.316 162.814 307.201Z" stroke="#008000" stroke-width="0.757575" fill="none"/><path d="M167.364 308.566C167.364 310.451 165.836 311.978 163.952 311.978 162.067 311.978 160.539 310.451 160.539 308.566 160.539 306.681 162.067 305.153 163.952 305.153 165.836 305.153 167.364 306.681 167.364 308.566Z" stroke="#008000" stroke-width="0.757575" fill="none"/><path d="M171.914 309.931C171.914 311.816 170.386 313.343 168.502 313.343 166.617 313.343 165.089 311.816 165.089 309.931 165.089 308.046 166.617 306.518 168.502 306.518 170.386 306.518 171.914 308.046 171.914 309.931Z" stroke="#008000" stroke-width="0.757575" fill="none"/><path d="M176.54 311.144C176.54 313.029 175.012 314.557 173.128 314.557 171.243 314.557 169.715 313.029 169.715 311.144 169.715 309.259 171.243 307.732 173.128 307.732 175.012 307.732 176.54 309.259 176.54 311.144Z" stroke="#008000" stroke-width="0.757575" fill="none"/><path d="M181.09 311.978C181.09 313.863 179.562 315.391 177.678 315.391 175.793 315.391 174.265 313.863 174.265 311.978 174.265 310.094 175.793 308.566 177.678 308.566 179.562 308.566 181.09 310.094 181.09 311.978Z" stroke="#008000" stroke-width="0.757575" fill="none"/><path d="M185.64 312.888C185.64 314.773 184.112 316.301 182.227 316.301 180.343 316.301 178.815 314.773 178.815 312.888 178.815 311.004 180.343 309.476 182.227 309.476 184.112 309.476 185.64 311.004 185.64 312.888Z" stroke="#008000" stroke-width="0.757575" fill="none"/><path d="M190.19 314.253C190.19 316.138 188.662 317.666 186.777 317.666 184.893 317.666 183.365 316.138 183.365 314.253 183.365 312.369 184.893 310.841 186.777 310.841 188.662 310.841 190.19 312.369 190.19 314.253Z" stroke="#008000" stroke-width="0.757575" fill="none"/><path d="M194.74 314.708C194.74 316.593 193.212 318.121 191.327 318.121 189.443 318.121 187.915 316.593 187.915 314.708 187.915 312.824 189.443 311.296 191.327 311.296 193.212 311.296 194.74 312.824 194.74 314.708Z" stroke="#008000" stroke-width="0.757575" fill="none"/><path d="M199.29 315.543C199.29 317.427 197.762 318.955 195.878 318.955 193.993 318.955 192.465 317.427 192.465 315.543 192.465 313.658 193.993 312.13 195.878 312.13 197.762 312.13 199.29 313.658 199.29 315.543Z" stroke="#008000" stroke-width="0.757575" fill="none"/><path d="M203.84 315.997C203.84 317.882 202.312 319.41 200.428 319.41 198.543 319.41 197.015 317.882 197.015 315.997 197.015 314.113 198.543 312.585 200.428 312.585 202.312 312.585 203.84 314.113 203.84 315.997Z" stroke="#008000" stroke-width="0.757575" fill="none"/><path d="M208.466 316.528C208.466 318.413 206.938 319.941 205.053 319.941 203.169 319.941 201.641 318.413 201.641 316.528 201.641 314.644 203.169 313.116 205.053 313.116 206.938 313.116 208.466 314.644 208.466 316.528Z" stroke="#008000" stroke-width="0.757575" fill="none"/><path d="M213.016 316.528C213.016 318.413 211.488 319.941 209.603 319.941 207.719 319.941 206.191 318.413 206.191 316.528 206.191 314.644 207.719 313.116 209.603 313.116 211.488 313.116 213.016 314.644 213.016 316.528Z" stroke="#008000" stroke-width="0.757575" fill="none"/><path d="M217.566 317.059C217.566 318.944 216.038 320.472 214.153 320.472 212.269 320.472 210.741 318.944 210.741 317.059 210.741 315.174 212.269 313.647 214.153 313.647 216.038 313.647 217.566 315.174 217.566 317.059Z" stroke="#008000" stroke-width="0.757575" fill="none"/><path d="M222.116 317.514C222.116 319.399 220.588 320.927 218.703 320.927 216.819 320.927 215.291 319.399 215.291 317.514 215.291 315.629 216.819 314.102 218.703 314.102 220.588 314.102 222.116 315.629 222.116 317.514Z" stroke="#008000" stroke-width="0.757575" fill="none"/><path d="M226.666 318.045C226.666 319.93 225.138 321.458 223.253 321.458 221.369 321.458 219.841 319.93 219.841 318.045 219.841 316.16 221.369 314.633 223.253 314.633 225.138 314.633 226.666 316.16 226.666 318.045Z" stroke="#008000" stroke-width="0.757575" fill="none"/><path d="M231.216 318.045C231.216 319.93 229.688 321.458 227.803 321.458 225.919 321.458 224.391 319.93 224.391 318.045 224.391 316.16 225.919 314.633 227.803 314.633 229.688 314.633 231.216 316.16 231.216 318.045Z" stroke="#008000" stroke-width="0.757575" fill="none"/><path d="M235.766 318.272C235.766 320.157 234.238 321.685 232.353 321.685 230.469 321.685 228.941 320.157 228.941 318.272 228.941 316.388 230.469 314.86 232.353 314.86 234.238 314.86 235.766 316.388 235.766 318.272Z" stroke="#008000" stroke-width="0.757575" fill="none"/><path d="M240.392 318.652C240.392 320.536 238.864 322.064 236.979 322.064 235.094 322.064 233.567 320.536 233.567 318.652 233.567 316.767 235.094 315.239 236.979 315.239 238.864 315.239 240.392 316.767 240.392 318.652Z" stroke="#008000" stroke-width="0.757575" fill="none"/><path d="M244.942 318.803C244.942 320.688 243.414 322.216 241.529 322.216 239.644 322.216 238.117 320.688 238.117 318.803 238.117 316.919 239.644 315.391 241.529 315.391 243.414 315.391 244.942 316.919 244.942 318.803Z" stroke="#008000" stroke-width="0.757575" fill="none"/><path d="M249.492 318.955C249.492 320.84 247.964 322.367 246.079 322.367 244.194 322.367 242.667 320.84 242.667 318.955 242.667 317.07 244.194 315.542 246.079 315.542 247.964 315.542 249.492 317.07 249.492 318.955Z" stroke="#008000" stroke-width="0.757575" fill="none"/><path d="M254.042 319.182C254.042 321.067 252.514 322.595 250.629 322.595 248.744 322.595 247.217 321.067 247.217 319.182 247.217 317.298 248.744 315.77 250.629 315.77 252.514 315.77 254.042 317.298 254.042 319.182Z" stroke="#008000" stroke-width="0.757575" fill="none"/><path d="M258.592 319.182C258.592 321.067 257.064 322.595 255.179 322.595 253.294 322.595 251.767 321.067 251.767 319.182 251.767 317.298 253.294 315.77 255.179 315.77 257.064 315.77 258.592 317.298 258.592 319.182Z" stroke="#008000" stroke-width="0.757575" fill="none"/><path d="M263.142 319.486C263.142 321.371 261.614 322.898 259.729 322.898 257.844 322.898 256.317 321.371 256.317 319.486 256.317 317.601 257.844 316.073 259.729 316.073 261.614 316.073 263.142 317.601 263.142 319.486Z" stroke="#008000" stroke-width="0.757575" fill="none"/><path d="M267.692 319.562C267.692 321.446 266.164 322.974 264.279 322.974 262.395 322.974 260.867 321.446 260.867 319.562 260.867 317.677 262.395 316.149 264.279 316.149 266.164 316.149 267.692 317.677 267.692 319.562Z" stroke="#008000" stroke-width="0.757575" fill="none"/><path d="M272.318 319.562C272.318 321.446 270.79 322.974 268.905 322.974 267.02 322.974 265.492 321.446 265.492 319.562 265.492 317.677 267.02 316.149 268.905 316.149 270.79 316.149 272.318 317.677 272.318 319.562Z" stroke="#008000" stroke-width="0.757575" fill="none"/><path d="M276.867 319.638C276.867 321.522 275.34 323.05 273.455 323.05 271.57 323.05 270.042 321.522 270.042 319.638 270.042 317.753 271.57 316.225 273.455 316.225 275.34 316.225 276.867 317.753 276.867 319.638Z" stroke="#008000" stroke-width="0.757575" fill="none"/><path d="M281.418 319.789C281.418 321.674 279.89 323.202 278.005 323.202 276.12 323.202 274.592 321.674 274.592 319.789 274.592 317.904 276.12 316.377 278.005 316.377 279.89 316.377 281.418 317.904 281.418 319.789Z" stroke="#008000" stroke-width="0.757575" fill="none"/><path d="M285.967 319.789C285.967 321.674 284.44 323.202 282.555 323.202 280.67 323.202 279.142 321.674 279.142 319.789 279.142 317.904 280.67 316.377 282.555 316.377 284.44 316.377 285.967 317.904 285.967 319.789Z" stroke="#008000" stroke-width="0.757575" fill="none"/><path d="M290.518 319.865C290.518 321.75 288.99 323.277 287.105 323.277 285.22 323.277 283.693 321.75 283.693 319.865 283.693 317.98 285.22 316.452 287.105 316.452 288.99 316.452 290.518 317.98 290.518 319.865Z" stroke="#008000" stroke-width="0.757575" fill="none"/><path d="M295.068 320.017C295.068 321.901 293.54 323.429 291.655 323.429 289.77 323.429 288.242 321.901 288.242 320.017 288.242 318.132 289.77 316.604 291.655 316.604 293.54 316.604 295.068 318.132 295.068 320.017Z" stroke="#008000" stroke-width="0.757575" fill="none"/><path d="M299.617 319.941C299.617 321.826 298.09 323.353 296.205 323.353 294.32 323.353 292.792 321.826 292.792 319.941 292.792 318.056 294.32 316.528 296.205 316.528 298.09 316.528 299.617 318.056 299.617 319.941Z" stroke="#008000" stroke-width="0.757575" fill="none"/><path d="M304.243 319.941C304.243 321.826 302.716 323.353 300.831 323.353 298.946 323.353 297.418 321.826 297.418 319.941 297.418 318.056 298.946 316.528 300.831 316.528 302.716 316.528 304.243 318.056 304.243 319.941Z" stroke="#008000" stroke-width="0.757575" fill="none"/><path d="M308.793 320.017C308.793 321.901 307.266 323.429 305.381 323.429 303.496 323.429 301.968 321.901 301.968 320.017 301.968 318.132 303.496 316.604 305.381 316.604 307.266 316.604 308.793 318.132 308.793 320.017Z" stroke="#008000" stroke-width="0.757575" fill="none"/><path d="M313.343 320.092C313.343 321.977 311.816 323.505 309.931 323.505 308.046 323.505 306.518 321.977 306.518 320.092 306.518 318.208 308.046 316.68 309.931 316.68 311.816 316.68 313.343 318.208 313.343 320.092Z" stroke="#008000" stroke-width="0.757575" fill="none"/><path d="M317.893 320.092C317.893 321.977 316.366 323.505 314.481 323.505 312.596 323.505 311.068 321.977 311.068 320.092 311.068 318.208 312.596 316.68 314.481 316.68 316.366 316.68 317.893 318.208 317.893 320.092Z" stroke="#008000" stroke-width="0.757575" fill="none"/><path d="M322.443 320.092C322.443 321.977 320.915 323.505 319.031 323.505 317.146 323.505 315.618 321.977 315.618 320.092 315.618 318.208 317.146 316.68 319.031 316.68 320.915 316.68 322.443 318.208 322.443 320.092Z" stroke="#008000" stroke-width="0.757575" fill="none"/><path d="M326.993 320.168C326.993 322.053 325.466 323.581 323.581 323.581 321.696 323.581 320.168 322.053 320.168 320.168 320.168 318.284 321.696 316.756 323.581 316.756 325.466 316.756 326.993 318.284 326.993 320.168Z" stroke="#008000" stroke-width="0.757575" fill="none"/><path d="M331.543 320.168C331.543 322.053 330.016 323.581 328.131 323.581 326.246 323.581 324.718 322.053 324.718 320.168 324.718 318.284 326.246 316.756 328.131 316.756 330.016 316.756 331.543 318.284 331.543 320.168Z" stroke="#008000" stroke-width="0.757575" fill="none"/><path d="M336.169 320.168C336.169 322.053 334.641 323.581 332.757 323.581 330.872 323.581 329.344 322.053 329.344 320.168 329.344 318.284 330.872 316.756 332.757 316.756 334.641 316.756 336.169 318.284 336.169 320.168Z" stroke="#008000" stroke-width="0.757575" fill="none"/><path d="M340.719 320.168C340.719 322.053 339.191 323.581 337.307 323.581 335.422 323.581 333.894 322.053 333.894 320.168 333.894 318.284 335.422 316.756 337.307 316.756 339.191 316.756 340.719 318.284 340.719 320.168Z" stroke="#008000" stroke-width="0.757575" fill="none"/><path d="M345.269 320.168C345.269 322.053 343.741 323.581 341.857 323.581 339.972 323.581 338.444 322.053 338.444 320.168 338.444 318.284 339.972 316.756 341.857 316.756 343.741 316.756 345.269 318.284 345.269 320.168Z" stroke="#008000" stroke-width="0.757575" fill="none"/><path d="M349.819 320.168C349.819 322.053 348.291 323.581 346.407 323.581 344.522 323.581 342.994 322.053 342.994 320.168 342.994 318.284 344.522 316.756 346.407 316.756 348.291 316.756 349.819 318.284 349.819 320.168Z" stroke="#008000" stroke-width="0.757575" fill="none"/><path d="M354.369 320.244C354.369 322.129 352.841 323.657 350.957 323.657 349.072 323.657 347.544 322.129 347.544 320.244 347.544 318.359 349.072 316.832 350.957 316.832 352.841 316.832 354.369 318.359 354.369 320.244Z" stroke="#008000" stroke-width="0.757575" fill="none"/><path d="M358.919 320.244C358.919 322.129 357.391 323.657 355.507 323.657 353.622 323.657 352.094 322.129 352.094 320.244 352.094 318.359 353.622 316.832 355.507 316.832 357.391 316.832 358.919 318.359 358.919 320.244Z" stroke="#008000" stroke-width="0.757575" fill="none"/><path d="M363.469 320.244C363.469 322.129 361.941 323.657 360.057 323.657 358.172 323.657 356.644 322.129 356.644 320.244 356.644 318.359 358.172 316.832 360.057 316.832 361.941 316.832 363.469 318.359 363.469 320.244Z" stroke="#008000" stroke-width="0.757575" fill="none"/><path d="M368.095 320.244C368.095 322.129 366.567 323.657 364.682 323.657 362.798 323.657 361.27 322.129 361.27 320.244 361.27 318.359 362.798 316.832 364.682 316.832 366.567 316.832 368.095 318.359 368.095 320.244Z" stroke="#008000" stroke-width="0.757575" fill="none"/><path d="M372.645 320.244C372.645 322.129 371.117 323.657 369.233 323.657 367.348 323.657 365.82 322.129 365.82 320.244 365.82 318.359 367.348 316.832 369.233 316.832 371.117 316.832 372.645 318.359 372.645 320.244Z" stroke="#008000" stroke-width="0.757575" fill="none"/><path d="M377.195 320.32C377.195 322.205 375.667 323.733 373.783 323.733 371.898 323.733 370.37 322.205 370.37 320.32 370.37 318.435 371.898 316.908 373.783 316.908 375.667 316.908 377.195 318.435 377.195 320.32Z" stroke="#008000" stroke-width="0.757575" fill="none"/><path d="M381.745 320.32C381.745 322.205 380.217 323.733 378.332 323.733 376.448 323.733 374.92 322.205 374.92 320.32 374.92 318.435 376.448 316.908 378.332 316.908 380.217 316.908 381.745 318.435 381.745 320.32Z" stroke="#008000" stroke-width="0.757575" fill="none"/><path d="M386.295 320.32C386.295 322.205 384.767 323.733 382.883 323.733 380.998 323.733 379.47 322.205 379.47 320.32 379.47 318.435 380.998 316.908 382.883 316.908 384.767 316.908 386.295 318.435 386.295 320.32Z" stroke="#008000" stroke-width="0.757575" fill="none"/><path d="M390.845 320.32C390.845 322.205 389.317 323.733 387.432 323.733 385.548 323.733 384.02 322.205 384.02 320.32 384.02 318.435 385.548 316.908 387.432 316.908 389.317 316.908 390.845 318.435 390.845 320.32Z" stroke="#008000" stroke-width="0.757575" fill="none"/><path d="M395.395 320.32C395.395 322.205 393.867 323.733 391.983 323.733 390.098 323.733 388.57 322.205 388.57 320.32 388.57 318.435 390.098 316.908 391.983 316.908 393.867 316.908 395.395 318.435 395.395 320.32Z" stroke="#008000" stroke-width="0.757575" fill="none"/><path d="M399.945 320.32C399.945 322.205 398.417 323.733 396.533 323.733 394.648 323.733 393.12 322.205 393.12 320.32 393.12 318.435 394.648 316.908 396.533 316.908 398.417 316.908 399.945 318.435 399.945 320.32Z" stroke="#008000" stroke-width="0.757575" fill="none"/><path d="M404.571 320.32C404.571 322.205 403.043 323.733 401.158 323.733 399.274 323.733 397.746 322.205 397.746 320.32 397.746 318.435 399.274 316.908 401.158 316.908 403.043 316.908 404.571 318.435 404.571 320.32Z" stroke="#008000" stroke-width="0.757575" fill="none"/><path d="M409.121 320.32C409.121 322.205 407.593 323.733 405.708 323.733 403.824 323.733 402.296 322.205 402.296 320.32 402.296 318.435 403.824 316.908 405.708 316.908 407.593 316.908 409.121 318.435 409.121 320.32Z" stroke="#008000" stroke-width="0.757575" fill="none"/><path d="M413.671 320.32C413.671 322.205 412.143 323.733 410.258 323.733 408.374 323.733 406.846 322.205 406.846 320.32 406.846 318.435 408.374 316.908 410.258 316.908 412.143 316.908 413.671 318.435 413.671 320.32Z" stroke="#008000" stroke-width="0.757575" fill="none"/><path d="M418.221 320.32C418.221 322.205 416.693 323.733 414.808 323.733 412.924 323.733 411.396 322.205 411.396 320.32 411.396 318.435 412.924 316.908 414.808 316.908 416.693 316.908 418.221 318.435 418.221 320.32Z" stroke="#008000" stroke-width="0.757575" fill="none"/><path d="M422.771 320.32C422.771 322.205 421.243 323.733 419.358 323.733 417.474 323.733 415.946 322.205 415.946 320.32 415.946 318.435 417.474 316.908 419.358 316.908 421.243 316.908 422.771 318.435 422.771 320.32Z" stroke="#008000" stroke-width="0.757575" fill="none"/><path d="M427.321 320.32C427.321 322.205 425.793 323.733 423.908 323.733 422.024 323.733 420.496 322.205 420.496 320.32 420.496 318.435 422.024 316.908 423.908 316.908 425.793 316.908 427.321 318.435 427.321 320.32Z" stroke="#008000" stroke-width="0.757575" fill="none"/><path d="M431.871 320.32C431.871 322.205 430.343 323.733 428.458 323.733 426.574 323.733 425.046 322.205 425.046 320.32 425.046 318.435 426.574 316.908 428.458 316.908 430.343 316.908 431.871 318.435 431.871 320.32Z" stroke="#008000" stroke-width="0.757575" fill="none"/><path d="M436.497 320.32C436.497 322.205 434.969 323.733 433.084 323.733 431.199 323.733 429.672 322.205 429.672 320.32 429.672 318.435 431.199 316.908 433.084 316.908 434.969 316.908 436.497 318.435 436.497 320.32Z" stroke="#008000" stroke-width="0.757575" fill="none"/><path d="M410.865 149.164C410.865 151.049 409.337 152.577 407.453 152.577 405.568 152.577 404.04 151.049 404.04 149.164 404.04 147.279 405.568 145.752 407.453 145.752 409.337 145.752 410.865 147.279 410.865 149.164Z" stroke="#008000" stroke-width="0.757575" fill="none"/><text font-family="Arial,Arial_MSFontService,sans-serif" font-weight="400" font-size="16" transform="matrix(0.758333 0 0 0.758333 269.891 166)">Boltzmann distribution<tspan font-size="16" x="-5.00003" y="0">-</tspan><tspan font-size="16" x="-60" y="0">Maxwell</tspan></text><path d="M391.452 162.814 423.453 162.814M54.5242 320.32 58.3917 189.735 62.2592 161.146 66.0508 152.349 69.9183 153.183 73.7858 159.326 77.6533 168.35 81.5208 178.891 85.3883 190.038 89.18 201.186 93.0475 212.106 96.915 222.571 100.782 232.353 104.65 241.377 108.442 249.719 112.309 257.378 116.177 264.279 120.044 270.573 123.912 276.185 127.779 281.266 131.571 285.816 135.438 289.835 139.306 293.399 143.173 296.66 147.041 299.466 150.832 301.968 154.7 304.243 158.568 306.139 162.435 307.883 166.303 309.4 170.17 310.765 173.962 311.978 177.829 313.04 181.697 313.95 185.564 314.708 189.432 315.391 193.223 316.073 197.091 316.604 200.958 317.059 204.826 317.438 208.693 317.818 212.561 318.121 216.352 318.424 220.22 318.652 224.087 318.879 227.955 319.107 231.823 319.258 235.614 319.41 239.482 319.486 243.349 319.637 247.217 319.713 251.084 319.789 254.952 319.865 258.743 319.941 262.611 319.941 266.478 320.017 270.346 320.017 274.213 320.092 278.005 320.092 281.872 320.168 285.74 320.168 289.607 320.168 293.475 320.168 297.342 320.244 301.134 320.244 305.002 320.244 308.869 320.244 312.737 320.244 316.604 320.244 320.396 320.244 324.263 320.32 328.131 320.32 331.998 320.32 335.866 320.32 339.733 320.32 343.525 320.32 347.392 320.32 351.26 320.32 355.127 320.32 358.995 320.32 362.787 320.32 366.654 320.32 370.522 320.32 374.389 320.32 378.257 320.32 382.124 320.32 385.916 320.32 389.783 320.32 390.238 320.32 390.246 320.32" stroke="#000000" stroke-width="0.758333" fill="none"/><path d="M54.5242 121.864 54.5242 320.32 436.042 320.32 436.042 121.864 54.5242 121.864ZM54.5242 121.864 54.5318 121.864" stroke="#000000" stroke-width="0.758333" fill="none"/></g></svg>