<svg width="991" height="778" xmlns="http://www.w3.org/2000/svg" xmlns:xlink="http://www.w3.org/1999/xlink" overflow="hidden"><defs><clipPath id="clip0"><rect x="25" y="-44" width="991" height="778"/></clipPath></defs><g clip-path="url(#clip0)" transform="translate(-25 44)"><path d="M150.5 303.5 157.328 303.5M538.5 303.5 531.672 303.5 531.679 303.5" stroke="#000000" stroke-miterlimit="8" fill="none" fill-rule="evenodd"/><text font-family="Times New Roman,Times New Roman_MSFontService,sans-serif" font-weight="400" font-size="14" transform="translate(139.479 311)">0</text><path d="M150.5 252.5 157.328 252.5M538.5 252.5 531.672 252.5 531.679 252.5" stroke="#000000" stroke-miterlimit="8" fill="none" fill-rule="evenodd"/><text font-family="Times New Roman,Times New Roman_MSFontService,sans-serif" font-weight="400" font-size="14" transform="translate(139.479 260)">2</text><path d="M150.5 202.5 157.328 202.5M538.5 202.5 531.672 202.5 531.679 202.5" stroke="#000000" stroke-miterlimit="8" fill="none" fill-rule="evenodd"/><text font-family="Times New Roman,Times New Roman_MSFontService,sans-serif" font-weight="400" font-size="14" transform="translate(139.479 209)">4</text><path d="M150.5 151.5 157.328 151.5M538.5 151.5 531.672 151.5 531.679 151.5" stroke="#000000" stroke-miterlimit="8" fill="none" fill-rule="evenodd"/><text font-family="Times New Roman,Times New Roman_MSFontService,sans-serif" font-weight="400" font-size="14" transform="translate(139.479 158)">6</text><path d="M150.5 100.5 157.328 100.5M538.5 100.5 531.672 100.5 531.679 100.5" stroke="#000000" stroke-miterlimit="8" fill="none" fill-rule="evenodd"/><text font-family="Times New Roman,Times New Roman_MSFontService,sans-serif" font-weight="400" font-size="14" transform="translate(139.479 107)">8</text><path d="M150.5 49.5001 157.328 49.5001M538.5 49.5001 531.672 49.5001 531.679 49.5001" stroke="#000000" stroke-miterlimit="8" fill="none" fill-rule="evenodd"/><text font-family="Times New Roman,Times New Roman_MSFontService,sans-serif" font-weight="400" font-size="14" transform="translate(132.662 56)">10</text><path d="M150.5-1.50005 157.328-1.50005M538.5-1.50005 531.672-1.50005 531.679-1.50005" stroke="#000000" stroke-miterlimit="8" fill="none" fill-rule="evenodd"/><text font-family="Times New Roman,Times New Roman_MSFontService,sans-serif" font-weight="400" font-size="14" transform="translate(132.662 6)">12</text><path d="M150.5 303.5 150.5 296.734M150.5-1.50005 150.5 5.26603 151.5 5.26603" stroke="#000000" stroke-miterlimit="8" fill="none" fill-rule="evenodd"/><text font-family="Times New Roman,Times New Roman_MSFontService,sans-serif" font-weight="400" font-size="14" transform="translate(149.174 324)">0</text><path d="M193.5 303.5 193.5 296.734M193.5-1.50005 193.5 5.26603 194.5 5.26603" stroke="#000000" stroke-miterlimit="8" fill="none" fill-rule="evenodd"/><text font-family="Times New Roman,Times New Roman_MSFontService,sans-serif" font-weight="400" font-size="14" transform="translate(187.271 324)">0.5</text><path d="M236.5 303.5 236.5 296.734M236.5-1.50005 236.5 5.26603 237.5 5.26603" stroke="#000000" stroke-miterlimit="8" fill="none" fill-rule="evenodd"/><text font-family="Times New Roman,Times New Roman_MSFontService,sans-serif" font-weight="400" font-size="14" transform="translate(235.215 324)">1</text><path d="M279.5 303.5 279.5 296.734M279.5-1.50005 279.5 5.26603 280.5 5.26603" stroke="#000000" stroke-miterlimit="8" fill="none" fill-rule="evenodd"/><text font-family="Times New Roman,Times New Roman_MSFontService,sans-serif" font-weight="400" font-size="14" transform="translate(273.388 324)">1.5</text><path d="M322.5 303.5 322.5 296.734M322.5-1.50005 322.5 5.26603 323.5 5.26603" stroke="#000000" stroke-miterlimit="8" fill="none" fill-rule="evenodd"/><text font-family="Times New Roman,Times New Roman_MSFontService,sans-serif" font-weight="400" font-size="14" transform="translate(321.332 324)">2</text><path d="M365.5 303.5 365.5 296.734M365.5-1.50005 365.5 5.26603 366.5 5.26603" stroke="#000000" stroke-miterlimit="8" fill="none" fill-rule="evenodd"/><text font-family="Times New Roman,Times New Roman_MSFontService,sans-serif" font-weight="400" font-size="14" transform="translate(359.429 324)">2.5</text><path d="M408.5 303.5 408.5 296.734M408.5-1.50005 408.5 5.26603 409.5 5.26603" stroke="#000000" stroke-miterlimit="8" fill="none" fill-rule="evenodd"/><text font-family="Times New Roman,Times New Roman_MSFontService,sans-serif" font-weight="400" font-size="14" transform="translate(407.373 324)">3</text><path d="M452.5 303.5 452.5 296.734M452.5-1.50005 452.5 5.26603 453.5 5.26603" stroke="#000000" stroke-miterlimit="8" fill="none" fill-rule="evenodd"/><text font-family="Times New Roman,Times New Roman_MSFontService,sans-serif" font-weight="400" font-size="14" transform="translate(445.546 324)">3.5</text><path d="M495.5 303.5 495.5 296.734M495.5-1.50005 495.5 5.26603 496.5 5.26603" stroke="#000000" stroke-miterlimit="8" fill="none" fill-rule="evenodd"/><text font-family="Times New Roman,Times New Roman_MSFontService,sans-serif" font-weight="400" font-size="14" transform="translate(493.49 324)">4</text><path d="M538.5 303.5 538.5 296.734M538.5-1.50005 538.5 5.26603 539.5 5.26603" stroke="#000000" stroke-miterlimit="8" fill="none" fill-rule="evenodd"/><text font-family="Times New Roman,Times New Roman_MSFontService,sans-serif" font-weight="400" font-size="14" transform="translate(531.587 324)">4.5</text><path d="M150.5-1.50005 150.5 303.5 538.5 303.5 538.5-1.50005 150.5-1.50005ZM150.5-1.50005 150.508-1.50005" stroke="#000000" stroke-miterlimit="8" fill="none" fill-rule="evenodd"/><text font-family="Times New Roman,Times New Roman_MSFontService,sans-serif" font-style="italic" font-weight="400" font-size="14" transform="matrix(-1.83697e-16 -1 1 -1.83697e-16 119.573 157)">g<tspan font-style="normal" font-size="14" x="7" y="1.28588e-15">(</tspan><tspan font-size="14" x="12" y="2.20436e-15">r</tspan><tspan font-style="normal" font-size="14" x="17" y="3.12285e-15">)</tspan></text><text font-family="Times New Roman,Times New Roman_MSFontService,sans-serif" font-style="italic" font-weight="400" font-size="14" transform="translate(332.996 344)">r<tspan font-style="normal" font-size="14" x="9" y="0">(</tspan><tspan font-style="normal" font-size="14" x="13.6667" y="0">Å</tspan><tspan font-style="normal" font-size="14" x="23.8333" y="0">)</tspan><tspan font-style="normal" font-size="14" x="104.597" y="-325">PHASE/0</tspan></text><path d="M493.532 12.5001 525.5 12.5001M151.5 303.5 152.409 303.5 153.242 303.5 154.076 303.5 154.985 303.5 155.818 303.5 156.727 303.5 157.56 303.5 158.394 303.5 159.303 303.5 160.136 303.5 160.969 303.5 161.878 303.5 162.712 303.5 163.545 303.5 164.454 303.5 165.287 303.5 166.196 303.5 167.03 303.5 167.863 303.5 168.772 303.5 169.605 303.5 170.439 303.5 171.348 303.5 172.181 303.5 173.014 303.5 173.923 303.5 174.757 303.5 175.666 303.5 176.499 303.5 177.332 303.5 178.241 303.5 179.075 303.5 179.908 303.5 180.817 303.5 181.65 303.5 182.484 303.5 183.393 303.5 184.226 303.5 185.135 303.5 185.968 303.5 186.802 303.5 187.711 303.5 188.544 303.5 189.377 303.5 190.286 303.5 191.12 303.5 191.953 303.5 192.862 303.5 193.695 303.5 194.604 303.5 195.438 303.5 196.271 303.5 197.18 303.5 198.013 303.5 198.847 303.5 199.756 303.5 200.589 303.5 201.498 303.5 202.331 303.5 203.165 303.5 204.074 303.5 204.907 303.5 205.74 303.5 206.649 303.5 207.483 303.5 208.316 303.5 209.225 303.5 210.058 303.5 210.967 303.5 211.801 303.5 212.634 303.5 213.543 303.5 214.376 303.5 215.21 303.5 216.119 303.5 216.952 303.5 217.785 303.5 218.694 303.5 219.528 303.5 220.437 303.5 221.27 303.5 222.103 303.5 223.012 303.5 223.846 303.5 224.679 303.5 225.588 303.5 226.421 303.5 227.255 303.5 228.164 303.5 228.997 303.5 229.906 303.5 230.739 303.5 231.573 303.5 232.482 303.5 233.315 303.5 234.148 303.5 235.057 303.5 235.891 303.5 236.724 303.5 237.633 303.5 238.466 303.5 239.375 303.5 240.209 303.5 241.042 303.5 241.951 303.5 242.784 303.5 243.618 303.5 244.527 303.5 245.36 303.5 246.193 303.5 247.102 303.5 247.936 303.5 248.845 303.5 249.678 303.5 250.511 303.5 251.42 303.5 252.254 303.5 253.087 303.5 253.996 303.5 254.829 303.5 255.663 303.5 256.572 303.5 257.405 303.5 258.314 303.5 259.147 303.5 259.98 303.5 260.89 303.5 261.723 303.5 262.556 303.5 263.465 303.5 264.299 303.5 265.132 303.5 266.041 303.5 266.874 303.5 267.783 303.5 268.617 303.5 269.45 303.5 270.359 303.5 271.192 303.5 272.026 303.5 272.935 303.5 273.768 303.5 274.601 303.5 275.51 303.5 276.343 303.5 277.253 303.5 278.086 303.5 278.919 303.425 279.828 303.425 280.662 303.125 281.495 302.524 282.404 300.798 283.237 296.37 284.07 287.438 284.979 271.676 285.813 244.88 286.722 209.152 287.555 164.568 288.388 118.182 289.298 67.8929 290.131 35.4678 290.964 22.4827 291.873 29.238 292.706 59.7866 293.54 95.5893 294.449 140.174 295.282 179.279 296.191 214.857 297.024 243.979 297.858 264.995 298.767 279.857 299.6 289.764 300.433 295.619 301.342 299.147 302.176 300.948 303.085 302.149 303.918 302.825 304.751 303.125 305.661 303.35 306.494 303.425 307.327 303.5 308.236 303.5 309.069 303.5 309.903 303.5 310.812 303.5 311.645 303.5 312.554 303.5 313.387 303.5 314.221 303.5 315.13 303.5 315.963 303.5 316.796 303.5 317.705 303.5 318.539 303.5 319.372 303.5 320.281 303.5 321.114 303.5 322.023 303.5 322.857 303.5 323.69 303.5 324.599 303.5 325.432 303.5 326.266 303.5 327.175 303.5 328.008 303.5 328.841 303.5 329.75 303.5 330.584 303.5 331.493 303.5 332.326 303.5 333.159 303.5 334.068 303.5 334.902 303.5 335.735 303.5 336.644 303.5 337.477 303.5 338.311 303.5 339.22 303.5 340.053 303.5 340.962 303.5 341.795 303.5 342.629 303.5 343.538 303.5 344.371 303.5 345.204 303.5 346.113 303.5 346.947 303.5 347.78 303.5 348.689 303.5 349.522 303.5 350.431 303.5 351.265 303.5 352.098 303.425 353.007 303.425 353.84 303.35 354.674 303.35 355.583 303.35 356.416 303.2 357.249 302.975 358.158 302.75 358.992 302.299 359.901 301.774 360.734 301.248 361.567 300.348 362.476 299.222 363.31 298.021 364.143 296.52 365.052 294.343 365.885 292.617 366.719 289.915 367.628 286.462 368.461 283.084 369.37 279.482 370.203 275.053 371.037 270.099 371.946 265.896 372.779 260.417 373.612 256.514 374.521 251.26 375.355 247.131 376.188 243.679 377.097 240.526 377.93 238.725 378.839 237.374 379.673 236.773 380.506 237.074 381.415 237.749 382.248 239.776 383.082 242.178 383.991 246.081 384.824 249.533 385.657 254.112 386.566 258.841 387.4 263.719 388.309 267.772 389.142 272.501 389.975 276.404 390.884 280.307 391.718 284.06 392.551 287.062 393.46 289.614 394.293 292.091 395.202 293.743 396.036 295.244 396.869 296.82 397.778 298.021 398.611 298.321 399.445 298.396 400.354 298.621 401.187 298.621 402.02 298.096 402.929 297.57 403.763 296.595 404.672 295.469 405.505 293.818 406.338 292.392 407.247 290.365 408.081 288.413 408.914 286.687 409.823 284.51 410.656 282.709 411.49 280.758 412.399 279.557 413.232 277.905 414.141 277.23 414.974 276.254 415.808 276.329 416.717 277.155 417.55 277.83 418.383 278.956 419.292 279.932 420.126 280.833 420.959 282.559 421.868 283.61 422.701 284.736 423.61 286.012 424.444 286.312 425.277 286.987 426.186 287.438 427.019 287.588 427.852 287.663 428.762 287.588 429.595 287.062 430.428 286.912 431.337 286.162 432.171 285.786 433.08 284.886 433.913 283.985 434.746 283.309 435.655 282.484 436.489 281.883 437.322 280.758 438.231 279.857 439.064 278.731 439.898 277.53 440.807 276.179 441.64 275.353 442.549 274.678 443.382 273.777 444.215 273.027 445.125 271.901 445.958 271.525 446.791 270.099 447.7 269.724 448.534 269.349 449.367 269.124 450.276 268.898 451.109 268.823 452.018 268.748 452.852 268.898 453.685 268.973 454.594 269.349 455.427 269.874 456.26 270.249 457.17 270.55 458.003 271.375 458.836 272.276 459.745 272.726 460.578 274.002 461.487 274.903 462.321 276.029 463.154 277.005 464.063 277.83 464.896 278.731 465.73 279.482 466.639 280.157 467.472 280.758 468.305 281.883 469.214 282.409 470.048 283.234 470.957 283.76 471.79 284.285 472.623 284.886 473.533 285.186 474.366 285.261 475.199 285.336 476.108 285.411 476.941 285.111 477.775 285.036 478.684 284.736 479.517 284.285 480.426 283.91 481.259 283.309 482.093 282.859 483.002 282.184 483.835 281.583 484.668 280.833 485.577 280.307 486.411 279.406 487.244 278.431 488.153 277.53 488.986 276.93 489.896 276.029 490.729 274.978 491.562 274.528 492.471 273.702 493.305 272.951 494.138 272.126 495.047 272.051 495.88 271.15 496.789 271.075 497.622 270.4 498.456 269.874 499.365 269.424 500.198 268.898 501.031 268.148 501.94 267.697 502.774 267.247 503.607 266.496 504.516 265.971 505.349 265.446 506.258 265.07 507.092 264.47 507.925 263.644 508.834 263.044 509.667 263.344 510.501 262.969 511.41 263.119 512.243 262.593 513.076 262.969 513.985 263.269 514.819 263.419 515.728 264.095 516.561 264.695 517.394 265.671 517.402 265.671" stroke="#FF0000" stroke-miterlimit="8" fill="none" fill-rule="evenodd"/><text font-family="Times New Roman,Times New Roman_MSFontService,sans-serif" font-weight="400" font-size="14" transform="translate(464.102 33)">NNP</text><path d="M493.532 25.5001 525.5 25.5001M151.5 303.5 152.409 303.5 153.242 303.5 154.076 303.5 154.985 303.5 155.818 303.5 156.727 303.5 157.56 303.5 158.394 303.5 159.303 303.5 160.136 303.5 160.969 303.5 161.878 303.5 162.712 303.5 163.545 303.5 164.454 303.5 165.287 303.5 166.196 303.5 167.03 303.5 167.863 303.5 168.772 303.5 169.605 303.5 170.439 303.5 171.348 303.5 172.181 303.5 173.014 303.5 173.923 303.5 174.757 303.5 175.666 303.5 176.499 303.5 177.332 303.5 178.241 303.5 179.075 303.5 179.908 303.5 180.817 303.5 181.65 303.5 182.484 303.5 183.393 303.5 184.226 303.5 185.135 303.5 185.968 303.5 186.802 303.5 187.711 303.5 188.544 303.5 189.377 303.5 190.286 303.5 191.12 303.5 191.953 303.5 192.862 303.5 193.695 303.5 194.604 303.5 195.438 303.5 196.271 303.5 197.18 303.5 198.013 303.5 198.847 303.5 199.756 303.5 200.589 303.5 201.498 303.5 202.331 303.5 203.165 303.5 204.074 303.5 204.907 303.5 205.74 303.5 206.649 303.5 207.483 303.5 208.316 303.5 209.225 303.5 210.058 303.5 210.967 303.5 211.801 303.5 212.634 303.5 213.543 303.5 214.376 303.5 215.21 303.5 216.119 303.5 216.952 303.5 217.785 303.5 218.694 303.5 219.528 303.5 220.437 303.5 221.27 303.5 222.103 303.5 223.012 303.5 223.846 303.5 224.679 303.5 225.588 303.5 226.421 303.5 227.255 303.5 228.164 303.5 228.997 303.5 229.906 303.5 230.739 303.5 231.573 303.5 232.482 303.5 233.315 303.5 234.148 303.5 235.057 303.5 235.891 303.5 236.724 303.5 237.633 303.5 238.466 303.5 239.375 303.5 240.209 303.5 241.042 303.5 241.951 303.5 242.784 303.5 243.618 303.5 244.527 303.5 245.36 303.5 246.193 303.5 247.102 303.5 247.936 303.5 248.845 303.5 249.678 303.5 250.511 303.5 251.42 303.5 252.254 303.5 253.087 303.5 253.996 303.5 254.829 303.5 255.663 303.5 256.572 303.5 257.405 303.5 258.314 303.5 259.147 303.5 259.98 303.5 260.89 303.5 261.723 303.5 262.556 303.5 263.465 303.5 264.299 303.5 265.132 303.5 266.041 303.5 266.874 303.5 267.783 303.5 268.617 303.5 269.45 303.5 270.359 303.5 271.192 303.5 272.026 303.5 272.935 303.5 273.768 303.5 274.601 303.5 275.51 303.5 276.343 303.5 277.253 303.5 278.086 303.5 278.919 303.425 279.828 303.199 280.662 302.974 281.495 302.372 282.404 299.891 283.237 295.078 284.07 285.303 284.979 268.534 285.813 240.411 286.722 207.4 287.555 161.53 288.388 111.976 289.298 72.3473 290.131 47.5326 290.964 29.1095 291.873 43.7728 292.706 62.9477 293.54 97.5379 294.449 133.181 295.282 177.246 296.191 211.535 297.024 243.268 297.858 260.262 298.767 278.009 299.6 288.386 300.433 294.025 301.342 298.161 302.176 300.718 303.085 302.222 303.918 302.748 304.751 303.199 305.661 303.425 306.494 303.35 307.327 303.5 308.236 303.5 309.069 303.5 309.903 303.5 310.812 303.5 311.645 303.5 312.554 303.5 313.387 303.5 314.221 303.5 315.13 303.5 315.963 303.5 316.796 303.5 317.705 303.5 318.539 303.5 319.372 303.5 320.281 303.5 321.114 303.5 322.023 303.5 322.857 303.5 323.69 303.5 324.599 303.5 325.432 303.5 326.266 303.5 327.175 303.5 328.008 303.5 328.841 303.5 329.75 303.5 330.584 303.5 331.493 303.5 332.326 303.5 333.159 303.5 334.068 303.5 334.902 303.5 335.735 303.5 336.644 303.5 337.477 303.5 338.311 303.5 339.22 303.5 340.053 303.5 340.962 303.5 341.795 303.5 342.629 303.5 343.538 303.5 344.371 303.5 345.204 303.5 346.113 303.5 346.947 303.5 347.78 303.5 348.689 303.5 349.522 303.5 350.431 303.5 351.265 303.5 352.098 303.5 353.007 303.425 353.84 303.425 354.674 303.35 355.583 303.275 356.416 303.275 357.249 303.275 358.158 302.899 358.992 302.598 359.901 302.222 360.734 301.846 361.567 300.943 362.476 300.041 363.31 298.763 364.143 297.184 365.052 295.454 365.885 292.597 366.719 290.717 367.628 286.882 368.461 283.122 369.37 278.159 370.203 275.151 371.037 270.564 371.946 264.549 372.779 260.789 373.612 254.171 374.521 250.712 375.355 245.9 376.188 241.839 377.097 238.079 377.93 237.328 378.839 235.899 379.673 235.748 380.506 236.049 381.415 237.854 382.248 240.787 383.082 243.569 383.991 246.877 384.824 250.186 385.657 255.074 386.566 259.811 387.4 264.924 388.309 267.707 389.142 271.918 389.975 276.204 390.884 281.317 391.718 283.573 392.551 287.183 393.46 288.987 394.293 292.973 395.202 294.025 396.036 295.454 396.869 296.883 397.778 297.86 398.611 298.763 399.445 298.537 400.354 298.913 401.187 298.913 402.02 298.913 402.929 297.785 403.763 296.582 404.672 295.078 405.505 294.401 406.338 292.747 407.247 290.266 408.081 288.235 408.914 285.979 409.823 284.1 410.656 282.671 411.49 280.039 412.399 278.309 413.232 277.858 414.141 276.805 414.974 276.204 415.808 275.753 416.717 276.956 417.55 278.084 418.383 278.986 419.292 279.738 420.126 281.242 420.959 282.896 421.868 283.724 422.701 285.002 423.61 285.979 424.444 287.333 425.277 287.634 426.186 287.859 427.019 288.085 427.852 288.461 428.762 287.784 429.595 287.408 430.428 286.731 431.337 286.355 432.171 286.055 433.08 284.927 433.913 284.175 434.746 283.348 435.655 282.596 436.489 281.618 437.322 280.415 438.231 278.911 439.064 277.332 439.898 276.204 440.807 275.678 441.64 275.076 442.549 274.098 443.382 273.196 444.215 270.94 445.125 271.166 445.958 270.865 446.791 269.737 447.7 268.985 448.534 268.384 449.367 267.932 450.276 267.707 451.109 269.06 452.018 268.158 452.852 267.03 453.685 268.308 454.594 268.083 455.427 268.684 456.26 269.812 457.17 270.339 458.003 271.241 458.836 271.918 459.745 272.67 460.578 274.023 461.487 274.324 462.321 275.903 463.154 276.053 464.063 278.911 464.896 279.362 465.73 280.189 466.639 280.415 467.472 281.693 468.305 282.445 469.214 283.348 470.048 283.949 470.957 284.626 471.79 285.378 472.623 285.603 473.533 285.904 474.366 286.055 475.199 286.581 476.108 286.13 476.941 286.581 477.775 285.979 478.684 285.603 479.517 285.227 480.426 284.701 481.259 284.776 482.093 283.573 483.002 283.122 483.835 282.144 484.668 281.543 485.577 280.716 486.411 279.362 487.244 278.385 488.153 278.385 488.986 277.407 489.896 276.204 490.729 275.151 491.562 274.775 492.471 273.271 493.305 273.121 494.138 272.594 495.047 271.467 495.88 270.715 496.789 270.263 497.622 270.113 498.456 269.436 499.365 268.308 500.198 268.684 501.031 267.556 501.94 266.278 502.774 265.902 503.607 265.451 504.516 265.376 505.349 264.624 506.258 263.27 507.092 263.27 507.925 262.969 508.834 261.616 509.667 262.518 510.501 261.24 511.41 261.917 512.243 261.616 513.076 262.067 513.985 262.142 514.819 263.195 515.728 262.819 516.561 264.323 517.394 264.624 517.402 264.624" stroke="#008000" stroke-miterlimit="8" fill="none" fill-rule="evenodd"/><path d="M150.5-1.50005 150.5 303.5 538.5 303.5 538.5-1.50005 150.5-1.50005ZM150.5-1.50005 150.508-1.50005" stroke="#000000" stroke-miterlimit="8" fill="none" fill-rule="evenodd"/><path d="M606.5 304.5 613.311 304.5M993.5 304.5 986.689 304.5 986.697 304.5" stroke="#000000" stroke-miterlimit="8" fill="none" fill-rule="evenodd"/><text font-family="Times New Roman,Times New Roman_MSFontService,sans-serif" font-weight="400" font-size="14" transform="translate(585.514 313)">0.0</text><path d="M606.5 271.5 613.311 271.5M993.5 271.5 986.689 271.5 986.697 271.5" stroke="#000000" stroke-miterlimit="8" fill="none" fill-rule="evenodd"/><text font-family="Times New Roman,Times New Roman_MSFontService,sans-serif" font-weight="400" font-size="14" transform="translate(585.514 279)">0.2</text><path d="M606.5 237.5 613.311 237.5M993.5 237.5 986.689 237.5 986.697 237.5" stroke="#000000" stroke-miterlimit="8" fill="none" fill-rule="evenodd"/><text font-family="Times New Roman,Times New Roman_MSFontService,sans-serif" font-weight="400" font-size="14" transform="translate(585.514 245)">0.4</text><path d="M606.5 203.5 613.311 203.5M993.5 203.5 986.689 203.5 986.697 203.5" stroke="#000000" stroke-miterlimit="8" fill="none" fill-rule="evenodd"/><text font-family="Times New Roman,Times New Roman_MSFontService,sans-serif" font-weight="400" font-size="14" transform="translate(585.514 211)">0.6</text><path d="M606.5 169.5 613.311 169.5M993.5 169.5 986.689 169.5 986.697 169.5" stroke="#000000" stroke-miterlimit="8" fill="none" fill-rule="evenodd"/><text font-family="Times New Roman,Times New Roman_MSFontService,sans-serif" font-weight="400" font-size="14" transform="translate(585.514 177)">0.8</text><path d="M606.5 135.5 613.311 135.5M993.5 135.5 986.689 135.5 986.697 135.5" stroke="#000000" stroke-miterlimit="8" fill="none" fill-rule="evenodd"/><text font-family="Times New Roman,Times New Roman_MSFontService,sans-serif" font-weight="400" font-size="14" transform="translate(585.514 143)">1.0</text><path d="M606.5 101.5 613.311 101.5M993.5 101.5 986.689 101.5 986.697 101.5" stroke="#000000" stroke-miterlimit="8" fill="none" fill-rule="evenodd"/><text font-family="Times New Roman,Times New Roman_MSFontService,sans-serif" font-weight="400" font-size="14" transform="translate(585.514 109)">1.2</text><path d="M606.5 67.5001 613.311 67.5001M993.5 67.5001 986.689 67.5001 986.697 67.5001" stroke="#000000" stroke-miterlimit="8" fill="none" fill-rule="evenodd"/><text font-family="Times New Roman,Times New Roman_MSFontService,sans-serif" font-weight="400" font-size="14" transform="translate(585.514 75)">1.4</text><path d="M606.5 34.5001 613.311 34.5001M993.5 34.5001 986.689 34.5001 986.697 34.5001" stroke="#000000" stroke-miterlimit="8" fill="none" fill-rule="evenodd"/><text font-family="Times New Roman,Times New Roman_MSFontService,sans-serif" font-weight="400" font-size="14" transform="translate(585.514 42)">1.6</text><path d="M606.5 0.500053 613.311 0.500053M993.5 0.500053 986.689 0.500053 986.697 0.500053" stroke="#000000" stroke-miterlimit="8" fill="none" fill-rule="evenodd"/><text font-family="Times New Roman,Times New Roman_MSFontService,sans-serif" font-weight="400" font-size="14" transform="translate(585.514 8)">1.8</text><path d="M606.5 304.5 606.5 297.756M606.5 0.500053 606.5 7.24395 607.5 7.24395" stroke="#000000" stroke-miterlimit="8" fill="none" fill-rule="evenodd"/><text font-family="Times New Roman,Times New Roman_MSFontService,sans-serif" font-weight="400" font-size="14" transform="translate(605.055 326)">0</text><path d="M649.5 304.5 649.5 297.756M649.5 0.500053 649.5 7.24395 650.5 7.24395" stroke="#000000" stroke-miterlimit="8" fill="none" fill-rule="evenodd"/><text font-family="Times New Roman,Times New Roman_MSFontService,sans-serif" font-weight="400" font-size="14" transform="translate(644.667 326)">20</text><path d="M692.5 304.5 692.5 297.756M692.5 0.500053 692.5 7.24395 693.5 7.24395" stroke="#000000" stroke-miterlimit="8" fill="none" fill-rule="evenodd"/><text font-family="Times New Roman,Times New Roman_MSFontService,sans-serif" font-weight="400" font-size="14" transform="translate(687.688 326)">40</text><path d="M735.5 304.5 735.5 297.756M735.5 0.500053 735.5 7.24395 736.5 7.24395" stroke="#000000" stroke-miterlimit="8" fill="none" fill-rule="evenodd"/><text font-family="Times New Roman,Times New Roman_MSFontService,sans-serif" font-weight="400" font-size="14" transform="translate(730.784 326)">60</text><path d="M778.5 304.5 778.5 297.756M778.5 0.500053 778.5 7.24395 779.5 7.24395" stroke="#000000" stroke-miterlimit="8" fill="none" fill-rule="evenodd"/><text font-family="Times New Roman,Times New Roman_MSFontService,sans-serif" font-weight="400" font-size="14" transform="translate(773.805 326)">80</text><path d="M821.5 304.5 821.5 297.756M821.5 0.500053 821.5 7.24395 822.5 7.24395" stroke="#000000" stroke-miterlimit="8" fill="none" fill-rule="evenodd"/><text font-family="Times New Roman,Times New Roman_MSFontService,sans-serif" font-weight="400" font-size="14" transform="translate(813.417 326)">100</text><path d="M864.5 304.5 864.5 297.756M864.5 0.500053 864.5 7.24395 865.5 7.24395" stroke="#000000" stroke-miterlimit="8" fill="none" fill-rule="evenodd"/><text font-family="Times New Roman,Times New Roman_MSFontService,sans-serif" font-weight="400" font-size="14" transform="translate(856.437 326)">120</text><path d="M907.5 304.5 907.5 297.756M907.5 0.500053 907.5 7.24395 908.5 7.24395" stroke="#000000" stroke-miterlimit="8" fill="none" fill-rule="evenodd"/><text font-family="Times New Roman,Times New Roman_MSFontService,sans-serif" font-weight="400" font-size="14" transform="translate(899.534 326)">140</text><path d="M950.5 304.5 950.5 297.756M950.5 0.500053 950.5 7.24395 951.5 7.24395" stroke="#000000" stroke-miterlimit="8" fill="none" fill-rule="evenodd"/><text font-family="Times New Roman,Times New Roman_MSFontService,sans-serif" font-weight="400" font-size="14" transform="translate(942.554 326)">160</text><path d="M993.5 304.5 993.5 297.756M993.5 0.500053 993.5 7.24395 994.5 7.24395" stroke="#000000" stroke-miterlimit="8" fill="none" fill-rule="evenodd"/><text font-family="Times New Roman,Times New Roman_MSFontService,sans-serif" font-weight="400" font-size="14" transform="translate(985.575 326)">180</text><path d="M606.5 0.500053 606.5 304.5 993.5 304.5 993.5 0.500053 606.5 0.500053ZM606.5 0.500053 606.508 0.500053" stroke="#000000" stroke-miterlimit="8" fill="none" fill-rule="evenodd"/><text font-family="Times New Roman,Times New Roman_MSFontService,sans-serif" font-weight="400" font-size="14" transform="matrix(-1.83697e-16 -1 1 -1.83697e-16 575.833 199)">bond-<tspan font-size="14" x="32" y="5.8783e-15">angle distribution</tspan></text><text font-family="Times New Roman,Times New Roman_MSFontService,sans-serif" font-weight="400" font-size="14" transform="translate(760.474 346)">angle (degrees)<tspan font-size="14" x="133" y="-325">PHASE/0</tspan></text><path d="M948.99 13.5001 980.929 13.5001M607.5 304.5 608.56 304.5 609.695 304.5 610.755 304.5 611.814 304.5 612.874 304.5 613.933 304.5 615.069 304.5 616.128 304.5 617.188 304.5 618.247 304.5 619.307 304.5 620.442 304.5 621.502 304.5 622.561 304.5 623.621 304.5 624.68 304.5 625.816 304.5 626.875 304.5 627.935 304.5 628.995 304.5 630.13 304.5 631.189 304.5 632.249 304.5 633.309 304.5 634.368 304.5 635.503 304.5 636.563 304.5 637.623 304.5 638.682 304.5 639.742 304.5 640.877 304.5 641.937 304.5 642.996 304.5 644.056 304.5 645.115 304.5 646.251 304.5 647.31 304.5 648.37 304.5 649.429 304.5 650.489 304.5 651.624 304.5 652.684 304.5 653.744 304.5 654.803 304.5 655.863 304.5 656.998 304.5 658.057 304.5 659.117 304.5 660.177 304.5 661.236 304.5 662.372 304.5 663.431 304.5 664.491 304.5 665.55 304.5 666.686 304.5 667.745 304.5 668.805 304.5 669.864 304.5 670.924 304.5 672.059 304.5 673.119 304.5 674.178 304.5 675.238 304.5 676.297 304.5 677.433 304.5 678.492 304.5 679.552 304.5 680.612 304.5 681.671 304.5 682.806 304.5 683.866 304.5 684.926 304.5 685.985 304.5 687.045 304.5 688.18 304.5 689.24 304.5 690.299 304.5 691.359 304.5 692.418 304.5 693.554 304.5 694.613 304.5 695.673 304.5 696.732 304.5 697.792 304.5 698.927 304.5 699.987 304.5 701.046 304.5 702.106 304.5 703.241 304.5 704.301 304.5 705.361 304.5 706.42 304.5 707.48 304.5 708.615 304.5 709.675 304.5 710.734 304.5 711.794 304.5 712.853 304.5 713.989 304.5 715.048 304.5 716.108 304.5 717.167 304.5 718.227 304.5 719.362 304.5 720.422 304.5 721.481 304.5 722.541 304.5 723.601 304.5 724.736 304.5 725.795 304.5 726.855 304.5 727.915 304.5 728.974 304.5 730.109 304.5 731.169 304.5 732.229 304.5 733.288 304.5 734.348 304.5 735.483 304.5 736.543 304.5 737.602 304.5 738.662 304.5 739.721 304.5 740.857 304.5 741.916 304.5 742.976 304.5 744.035 304.5 745.171 304.5 746.23 304.5 747.29 304.5 748.349 304.5 749.409 304.5 750.544 304.5 751.604 304.5 752.664 304.5 753.723 304.5 754.783 304.5 755.918 304.5 756.978 304.5 758.037 304.5 759.097 304.5 760.156 304.5 761.292 304.5 762.351 304.5 763.411 304.5 764.47 304.5 765.53 304.5 766.665 304.5 767.725 304.5 768.784 304.5 769.844 304.5 770.904 304.5 772.039 304.5 773.098 304.5 774.158 304.5 775.218 304.5 776.277 304.5 777.412 304.5 778.472 304.5 779.532 304.425 780.591 304.425 781.726 304.425 782.786 304.275 783.846 304.275 784.905 304.35 785.965 304.05 787.1 303.9 788.16 303.825 789.219 303.074 790.279 302.624 791.338 302.173 792.474 301.273 793.533 300.447 794.593 299.771 795.652 298.42 796.712 296.019 797.847 294.818 798.907 291.74 799.967 290.464 801.026 286.036 802.086 281.457 803.221 277.93 804.281 272.3 805.34 266.896 806.4 260.666 807.459 255.037 808.595 245.505 809.654 237.698 810.714 228.541 811.773 221.711 812.833 212.329 813.968 200.845 815.028 190.562 816.087 180.204 817.147 173.224 818.207 165.343 819.342 155.435 820.401 147.178 821.461 139.072 822.521 133.143 823.656 126.087 824.715 120.308 825.775 112.727 826.835 104.846 827.894 101.093 829.029 96.3641 830.089 91.4103 831.149 86.3814 832.208 82.7036 833.268 77.975 834.403 73.6216 835.463 69.4183 836.522 65.5903 837.582 63.4887 838.641 54.1815 839.777 47.051 840.836 41.4216 841.896 37.8189 842.956 31.7392 844.015 25.6595 845.15 27.1606 846.21 17.7784 847.269 13.9504 848.329 14.2506 849.389 19.2045 850.524 21.6813 851.584 21.6063 852.643 29.9377 853.703 34.2161 854.762 46.0002 855.898 53.1307 856.957 57.1088 858.017 72.7959 859.076 85.1054 860.212 93.5119 861.271 106.647 862.331 121.659 863.39 131.867 864.45 144.101 865.585 158.963 866.645 174.575 867.704 187.259 868.764 197.692 869.824 207.225 870.959 217.658 872.018 225.239 873.078 235.747 874.138 240.626 875.197 246.78 876.332 251.509 877.392 255.787 878.452 257.589 879.511 260.441 880.571 258.79 881.706 258.715 882.766 258.565 883.825 257.364 884.885 255.187 885.944 252.335 887.08 247.531 888.139 246.48 889.199 240.325 890.258 238.074 891.318 233.345 892.453 230.343 893.513 224.939 894.573 220.66 895.632 215.106 896.767 213.38 897.827 210.152 898.886 207.075 899.946 207.525 901.006 204.223 902.141 202.196 903.201 202.646 904.26 197.317 905.32 201.596 906.379 197.918 907.515 197.692 908.574 198.668 909.634 202.271 910.693 202.046 911.753 205.499 912.888 207.375 913.948 210.527 915.007 214.956 916.067 219.534 917.127 223.512 918.262 225.164 919.321 228.616 920.381 232.82 921.441 237.698 922.5 242.052 923.635 246.18 924.695 248.582 925.755 253.986 926.814 256.238 927.874 259.916 929.009 263.518 930.069 266.371 931.128 270.424 932.188 272.075 933.247 276.879 934.383 280.406 935.442 283.334 936.502 285.135 937.561 286.937 938.697 288.212 939.756 289.489 940.816 290.99 941.875 292.266 942.935 293.692 944.07 295.493 945.13 295.343 946.19 296.844 947.249 297.895 948.309 299.471 949.444 300.072 950.504 300.072 951.563 301.198 952.623 301.198 953.682 301.423 954.818 301.873 955.877 302.398 956.937 302.624 957.996 302.849 959.056 302.924 960.191 302.924 961.251 303.374 962.31 303.449 963.37 303.674 964.43 303.674 965.565 303.975 966.624 303.9 967.684 303.975 968.744 303.975 969.803 304.125 970.938 304.275 971.998 304.35 973.058 304.35 974.117 304.35 975.253 304.275 976.312 304.35 977.372 304.35 978.431 304.35 979.491 304.35 980.626 304.5 981.686 304.5 982.745 304.5 983.805 304.5 984.864 304.5 986 304.5 987.059 304.5 988.119 304.5 989.178 304.5 990.238 304.5 991.373 304.5 992.433 304.5 993.492 304.5 993.5 304.5" stroke="#FF0000" stroke-miterlimit="8" fill="none" fill-rule="evenodd"/><text font-family="Times New Roman,Times New Roman_MSFontService,sans-serif" font-weight="400" font-size="14" transform="translate(919.984 35)">NNP</text><path d="M948.99 27.5993 980.929 27.5993M607.5 304.5 608.56 304.5 609.695 304.5 610.755 304.5 611.814 304.5 612.874 304.5 613.933 304.5 615.069 304.5 616.128 304.5 617.188 304.5 618.247 304.5 619.307 304.5 620.442 304.5 621.502 304.5 622.561 304.5 623.621 304.5 624.68 304.5 625.816 304.5 626.875 304.5 627.935 304.5 628.995 304.5 630.13 304.5 631.189 304.5 632.249 304.5 633.309 304.5 634.368 304.5 635.503 304.5 636.563 304.5 637.623 304.5 638.682 304.5 639.742 304.5 640.877 304.5 641.937 304.5 642.996 304.5 644.056 304.5 645.115 304.5 646.251 304.5 647.31 304.5 648.37 304.5 649.429 304.5 650.489 304.5 651.624 304.5 652.684 304.5 653.744 304.5 654.803 304.5 655.863 304.5 656.998 304.5 658.057 304.5 659.117 304.5 660.177 304.5 661.236 304.5 662.372 304.5 663.431 304.5 664.491 304.5 665.55 304.5 666.686 304.5 667.745 304.5 668.805 304.5 669.864 304.5 670.924 304.5 672.059 304.5 673.119 304.5 674.178 304.5 675.238 304.5 676.297 304.5 677.433 304.5 678.492 304.5 679.552 304.5 680.612 304.5 681.671 304.5 682.806 304.5 683.866 304.5 684.926 304.5 685.985 304.5 687.045 304.5 688.18 304.5 689.24 304.5 690.299 304.5 691.359 304.5 692.418 304.5 693.554 304.5 694.613 304.5 695.673 304.5 696.732 304.5 697.792 304.5 698.927 304.5 699.987 304.5 701.046 304.5 702.106 304.5 703.241 304.5 704.301 304.5 705.361 304.5 706.42 304.5 707.48 304.5 708.615 304.5 709.675 304.5 710.734 304.5 711.794 304.5 712.853 304.5 713.989 304.5 715.048 304.5 716.108 304.5 717.167 304.5 718.227 304.5 719.362 304.5 720.422 304.5 721.481 304.5 722.541 304.5 723.601 304.5 724.736 304.5 725.795 304.5 726.855 304.5 727.915 304.5 728.974 304.5 730.109 304.5 731.169 304.5 732.229 304.5 733.288 304.5 734.348 304.5 735.483 304.5 736.543 304.5 737.602 304.5 738.662 304.5 739.721 304.5 740.857 304.5 741.916 304.5 742.976 304.5 744.035 304.5 745.171 304.5 746.23 304.5 747.29 304.5 748.349 304.5 749.409 304.5 750.544 304.5 751.604 304.5 752.664 304.5 753.723 304.5 754.783 304.5 755.918 304.5 756.978 304.5 758.037 304.5 759.097 304.5 760.156 304.5 761.292 304.5 762.351 304.5 763.411 304.5 764.47 304.5 765.53 304.5 766.665 304.5 767.725 304.5 768.784 304.5 769.844 304.5 770.904 304.5 772.039 304.5 773.098 304.5 774.158 304.5 775.218 304.5 776.277 304.5 777.412 304.5 778.472 304.425 779.532 304.5 780.591 304.35 781.726 304.35 782.786 304.425 783.846 304.425 784.905 304.5 785.965 304.35 787.1 304.051 788.16 303.826 789.219 303.751 790.279 303.751 791.338 302.553 792.474 302.103 793.533 301.429 794.593 301.354 795.652 299.257 796.712 299.033 797.847 296.711 798.907 293.565 799.967 291.093 801.026 284.877 802.086 285.925 803.221 277.312 804.281 272.893 805.34 268.024 806.4 263.83 807.459 254.842 808.595 248.251 809.654 236.941 810.714 226.905 811.773 216.12 812.833 209.454 813.968 196.646 815.028 190.055 816.087 174.775 817.147 169.233 818.207 160.694 819.342 160.994 820.401 146.164 821.461 133.057 822.521 118.676 823.656 123.095 824.715 119.949 825.775 117.028 826.835 116.205 827.894 93.3604 829.029 100.326 830.089 92.911 831.149 94.4839 832.208 89.3908 833.268 91.3381 834.403 71.1154 835.463 70.5163 836.522 69.9171 837.582 70.3665 838.641 57.6337 839.777 45.6499 840.836 45.7997 841.896 45.0507 842.956 38.9839 844.015 23.4798 845.15 8.50005 846.21 16.0648 847.269 23.2552 848.329 15.8401 849.389 22.4312 850.524 12.3948 851.584 24.079 852.643 24.3037 853.703 24.828 854.762 41.6053 855.898 53.8887 856.957 50.3685 858.017 60.33 859.076 77.5567 860.212 93.9596 861.271 110.737 862.331 117.553 863.39 140.696 864.45 144.292 865.585 168.334 866.645 178.745 867.704 187.808 868.764 198.593 869.824 216.194 870.959 224.358 872.018 226.83 873.078 240.012 874.138 241.885 875.197 250.049 876.332 250.498 877.392 258.437 878.452 260.16 879.511 261.209 880.571 262.332 881.706 262.107 882.766 259.411 883.825 255.816 884.885 252.296 885.944 252.146 887.08 251.172 888.139 241.36 889.199 240.162 890.258 235.069 891.318 232.223 892.453 229.302 893.513 222.786 894.573 216.943 895.632 211.85 896.767 210.652 897.827 208.48 898.886 207.132 899.946 202.862 901.006 200.091 902.141 199.567 903.201 197.545 904.26 195.148 905.32 193.5 906.379 200.616 907.515 197.32 908.574 199.043 909.634 196.196 910.693 201.14 911.753 205.184 912.888 208.18 913.948 213.423 915.007 209.603 916.067 214.921 917.127 217.992 918.262 219.79 919.321 229.302 920.381 235.593 921.441 239.413 922.5 239.788 923.635 246.753 924.695 251.172 925.755 254.842 926.814 258.437 927.874 261.508 929.009 268.998 930.069 268.998 931.128 273.941 932.188 275.664 933.247 278.435 934.383 284.203 935.442 282.929 936.502 285.476 937.561 284.128 938.697 289.371 939.756 292.816 940.816 291.543 941.875 293.715 942.935 295.737 944.07 295.887 945.13 297.31 946.19 298.883 947.249 299.782 948.309 299.632 949.444 300.98 950.504 300.905 951.563 302.328 952.623 302.029 953.682 302.703 954.818 302.703 955.877 302.777 956.937 303.227 957.996 303.601 959.056 303.452 960.191 304.051 961.251 304.051 962.31 303.976 963.37 304.126 964.43 304.126 965.565 304.35 966.624 304.275 967.684 304.275 968.744 304.275 969.803 304.275 970.938 304.275 971.998 304.425 973.058 304.425 974.117 304.35 975.253 304.5 976.312 304.425 977.372 304.5 978.431 304.5 979.491 304.5 980.626 304.425 981.686 304.5 982.745 304.5 983.805 304.5 984.864 304.5 986 304.5 987.059 304.5 988.119 304.5 989.178 304.5 990.238 304.5 991.373 304.5 992.433 304.5 993.492 304.5 993.5 304.5" stroke="#008000" stroke-miterlimit="8" fill="none" fill-rule="evenodd"/><path d="M606.5 0.500053 606.5 304.5 993.5 304.5 993.5 0.500053 606.5 0.500053ZM606.5 0.500053 606.508 0.500053" stroke="#000000" stroke-miterlimit="8" fill="none" fill-rule="evenodd"/><path d="M152.5 676.5 159.289 676.5M544.5 676.5 537.712 676.5 537.719 676.5" stroke="#000000" stroke-miterlimit="8" fill="none" fill-rule="evenodd"/><text font-family="Times New Roman,Times New Roman_MSFontService,sans-serif" font-weight="400" font-size="14" transform="translate(141.457 684)">0</text><path d="M152.5 642.5 159.289 642.5M544.5 642.5 537.712 642.5 537.719 642.5" stroke="#000000" stroke-miterlimit="8" fill="none" fill-rule="evenodd"/><text font-family="Times New Roman,Times New Roman_MSFontService,sans-serif" font-weight="400" font-size="14" transform="translate(141.457 650)">1</text><path d="M152.5 608.5 159.289 608.5M544.5 608.5 537.712 608.5 537.719 608.5" stroke="#000000" stroke-miterlimit="8" fill="none" fill-rule="evenodd"/><text font-family="Times New Roman,Times New Roman_MSFontService,sans-serif" font-weight="400" font-size="14" transform="translate(141.457 616)">2</text><path d="M152.5 574.5 159.289 574.5M544.5 574.5 537.712 574.5 537.719 574.5" stroke="#000000" stroke-miterlimit="8" fill="none" fill-rule="evenodd"/><text font-family="Times New Roman,Times New Roman_MSFontService,sans-serif" font-weight="400" font-size="14" transform="translate(141.457 582)">3</text><path d="M152.5 540.5 159.289 540.5M544.5 540.5 537.712 540.5 537.719 540.5" stroke="#000000" stroke-miterlimit="8" fill="none" fill-rule="evenodd"/><text font-family="Times New Roman,Times New Roman_MSFontService,sans-serif" font-weight="400" font-size="14" transform="translate(141.457 548)">4</text><path d="M152.5 506.5 159.289 506.5M544.5 506.5 537.712 506.5 537.719 506.5" stroke="#000000" stroke-miterlimit="8" fill="none" fill-rule="evenodd"/><text font-family="Times New Roman,Times New Roman_MSFontService,sans-serif" font-weight="400" font-size="14" transform="translate(141.457 514)">5</text><path d="M152.5 472.5 159.289 472.5M544.5 472.5 537.712 472.5 537.719 472.5" stroke="#000000" stroke-miterlimit="8" fill="none" fill-rule="evenodd"/><text font-family="Times New Roman,Times New Roman_MSFontService,sans-serif" font-weight="400" font-size="14" transform="translate(141.457 480)">6</text><path d="M152.5 438.5 159.289 438.5M544.5 438.5 537.712 438.5 537.719 438.5" stroke="#000000" stroke-miterlimit="8" fill="none" fill-rule="evenodd"/><text font-family="Times New Roman,Times New Roman_MSFontService,sans-serif" font-weight="400" font-size="14" transform="translate(141.457 446)">7</text><path d="M152.5 404.5 159.289 404.5M544.5 404.5 537.712 404.5 537.719 404.5" stroke="#000000" stroke-miterlimit="8" fill="none" fill-rule="evenodd"/><text font-family="Times New Roman,Times New Roman_MSFontService,sans-serif" font-weight="400" font-size="14" transform="translate(141.457 412)">8</text><path d="M152.5 370.5 159.289 370.5M544.5 370.5 537.712 370.5 537.719 370.5" stroke="#000000" stroke-miterlimit="8" fill="none" fill-rule="evenodd"/><text font-family="Times New Roman,Times New Roman_MSFontService,sans-serif" font-weight="400" font-size="14" transform="translate(141.457 378)">9</text><path d="M152.5 676.5 152.5 669.712M152.5 370.5 152.5 377.288 153.5 377.288" stroke="#000000" stroke-miterlimit="8" fill="none" fill-rule="evenodd"/><text font-family="Times New Roman,Times New Roman_MSFontService,sans-serif" font-weight="400" font-size="14" transform="translate(151.113 698)">0</text><path d="M196.5 676.5 196.5 669.712M196.5 370.5 196.5 377.288 197.5 377.288" stroke="#000000" stroke-miterlimit="8" fill="none" fill-rule="evenodd"/><text font-family="Times New Roman,Times New Roman_MSFontService,sans-serif" font-weight="400" font-size="14" transform="translate(189.734 698)">0.5</text><path d="M239.5 676.5 239.5 669.712M239.5 370.5 239.5 377.288 240.5 377.288" stroke="#000000" stroke-miterlimit="8" fill="none" fill-rule="evenodd"/><text font-family="Times New Roman,Times New Roman_MSFontService,sans-serif" font-weight="400" font-size="14" transform="translate(238.238 698)">1</text><path d="M283.5 676.5 283.5 669.712M283.5 370.5 283.5 377.288 284.5 377.288" stroke="#000000" stroke-miterlimit="8" fill="none" fill-rule="evenodd"/><text font-family="Times New Roman,Times New Roman_MSFontService,sans-serif" font-weight="400" font-size="14" transform="translate(276.859 698)">1.5</text><path d="M326.5 676.5 326.5 669.712M326.5 370.5 326.5 377.288 327.5 377.288" stroke="#000000" stroke-miterlimit="8" fill="none" fill-rule="evenodd"/><text font-family="Times New Roman,Times New Roman_MSFontService,sans-serif" font-weight="400" font-size="14" transform="translate(325.363 698)">2</text><path d="M370.5 676.5 370.5 669.712M370.5 370.5 370.5 377.288 371.5 377.288" stroke="#000000" stroke-miterlimit="8" fill="none" fill-rule="evenodd"/><text font-family="Times New Roman,Times New Roman_MSFontService,sans-serif" font-weight="400" font-size="14" transform="translate(363.985 698)">2.5</text><path d="M414.5 676.5 414.5 669.712M414.5 370.5 414.5 377.288 415.5 377.288" stroke="#000000" stroke-miterlimit="8" fill="none" fill-rule="evenodd"/><text font-family="Times New Roman,Times New Roman_MSFontService,sans-serif" font-weight="400" font-size="14" transform="translate(412.488 698)">3</text><path d="M457.5 676.5 457.5 669.712M457.5 370.5 457.5 377.288 458.5 377.288" stroke="#000000" stroke-miterlimit="8" fill="none" fill-rule="evenodd"/><text font-family="Times New Roman,Times New Roman_MSFontService,sans-serif" font-weight="400" font-size="14" transform="translate(451.11 698)">3.5</text><path d="M501.5 676.5 501.5 669.712M501.5 370.5 501.5 377.288 502.5 377.288" stroke="#000000" stroke-miterlimit="8" fill="none" fill-rule="evenodd"/><text font-family="Times New Roman,Times New Roman_MSFontService,sans-serif" font-weight="400" font-size="14" transform="translate(499.613 698)">4</text><path d="M544.5 676.5 544.5 669.712M544.5 370.5 544.5 377.288 545.5 377.288" stroke="#000000" stroke-miterlimit="8" fill="none" fill-rule="evenodd"/><text font-family="Times New Roman,Times New Roman_MSFontService,sans-serif" font-weight="400" font-size="14" transform="translate(538.235 698)">4.5</text><path d="M152.5 370.5 152.5 676.5 544.5 676.5 544.5 370.5 152.5 370.5ZM152.5 370.5 152.508 370.5" stroke="#000000" stroke-miterlimit="8" fill="none" fill-rule="evenodd"/><text font-family="Times New Roman,Times New Roman_MSFontService,sans-serif" font-style="italic" font-weight="400" font-size="14" transform="matrix(-1.83697e-16 -1 1 -1.83697e-16 128.307 529)">g<tspan font-style="normal" font-size="14" x="7" y="1.28588e-15">(</tspan><tspan font-size="14" x="12" y="2.20436e-15">r</tspan><tspan font-style="normal" font-size="14" x="17" y="3.12285e-15">)</tspan></text><text font-family="Times New Roman,Times New Roman_MSFontService,sans-serif" font-style="italic" font-weight="400" font-size="14" transform="translate(337.281 717)">r <tspan font-style="normal" font-size="14" x="9" y="0">(</tspan><tspan font-style="normal" font-size="14" x="13.6667" y="0">Å</tspan><tspan font-style="normal" font-size="14" x="23.8333" y="0">)</tspan><tspan font-style="normal" font-size="14" x="107.341" y="-325">PHASE/0</tspan></text><path d="M500.634 384.103 532.5 384.103M153.5 676.5 154.331 676.5 155.237 676.5 156.067 676.5 156.974 676.5 157.804 676.5 158.71 676.5 159.541 676.5 160.447 676.5 161.278 676.5 162.184 676.5 163.09 676.5 163.921 676.5 164.827 676.5 165.658 676.5 166.564 676.5 167.394 676.5 168.301 676.5 169.131 676.5 170.037 676.5 170.944 676.5 171.774 676.5 172.68 676.5 173.511 676.5 174.417 676.5 175.248 676.5 176.154 676.5 176.985 676.5 177.891 676.5 178.721 676.5 179.628 676.5 180.534 676.5 181.364 676.5 182.271 676.5 183.101 676.5 184.007 676.5 184.838 676.5 185.744 676.5 186.575 676.5 187.481 676.5 188.387 676.5 189.218 676.5 190.124 676.5 190.955 676.5 191.861 676.5 192.691 676.5 193.598 676.5 194.428 676.5 195.334 676.5 196.165 676.5 197.071 676.5 197.977 676.5 198.808 676.5 199.714 676.5 200.545 676.5 201.451 676.5 202.281 676.5 203.188 676.5 204.018 676.5 204.924 676.5 205.755 676.5 206.661 676.5 207.567 676.5 208.398 676.5 209.304 676.5 210.135 676.5 211.041 676.5 211.872 676.5 212.778 676.5 213.608 676.5 214.515 676.5 215.421 676.5 216.251 676.5 217.158 676.5 217.988 676.5 218.894 676.5 219.725 676.5 220.631 676.5 221.462 676.5 222.368 676.5 223.199 676.5 224.105 676.5 225.011 676.5 225.842 676.5 226.748 676.5 227.578 676.5 228.485 676.5 229.315 676.5 230.221 676.5 231.052 676.5 231.958 676.5 232.789 676.5 233.695 676.5 234.601 676.5 235.432 676.5 236.338 676.5 237.169 676.5 238.075 676.5 238.905 676.5 239.812 676.5 240.642 676.5 241.548 676.5 242.454 676.5 243.285 676.5 244.191 676.5 245.022 676.5 245.928 676.5 246.759 676.5 247.665 676.5 248.495 676.5 249.402 676.5 250.232 676.5 251.138 676.5 252.045 676.5 252.875 676.5 253.781 676.5 254.612 676.5 255.518 676.5 256.349 676.5 257.255 676.5 258.086 676.5 258.992 676.5 259.898 676.5 260.729 676.5 261.635 676.5 262.465 676.5 263.372 676.5 264.202 676.5 265.108 676.5 265.939 676.5 266.845 676.5 267.676 676.5 268.582 676.5 269.488 676.5 270.319 676.5 271.225 676.5 272.056 676.5 272.962 676.5 273.792 676.5 274.699 676.5 275.529 676.5 276.435 676.5 277.266 676.5 278.172 676.5 279.078 676.5 279.909 676.5 280.815 676.425 281.646 676.274 282.552 675.671 283.383 674.238 284.289 672.05 285.119 667.224 286.026 659.531 286.932 646.484 287.762 626.724 288.668 599.573 289.499 564.504 290.405 523.778 291.236 481.695 292.142 442.93 292.973 408.841 293.879 392.022 294.709 383.5 295.616 391.268 296.522 412.084 297.352 437.273 298.259 468.044 299.089 500.926 299.995 532.753 300.826 565.409 301.732 591.051 302.563 613.903 303.469 632.154 304.375 645.126 305.206 655.232 306.112 662.02 306.943 667.525 307.849 670.316 308.679 672.427 309.586 674.011 310.416 674.766 311.322 675.444 312.153 675.897 313.059 676.198 313.965 676.274 314.796 676.349 315.702 676.425 316.533 676.425 317.439 676.5 318.27 676.5 319.176 676.5 320.006 676.5 320.913 676.5 321.743 676.5 322.649 676.5 323.555 676.5 324.386 676.5 325.292 676.5 326.123 676.5 327.029 676.5 327.86 676.5 328.766 676.5 329.596 676.5 330.503 676.5 331.409 676.5 332.24 676.5 333.146 676.5 333.976 676.5 334.882 676.5 335.713 676.5 336.619 676.5 337.45 676.5 338.356 676.5 339.187 676.5 340.093 676.5 340.999 676.5 341.83 676.5 342.736 676.5 343.566 676.5 344.473 676.5 345.303 676.5 346.209 676.5 347.04 676.5 347.946 676.5 348.852 676.5 349.683 676.5 350.589 676.425 351.42 676.425 352.326 676.425 353.157 676.349 354.063 676.274 354.893 676.198 355.8 676.048 356.63 675.897 357.536 675.595 358.442 675.293 359.273 674.916 360.179 674.539 361.01 673.785 361.916 673.031 362.747 671.9 363.653 670.768 364.484 669.26 365.39 667.676 366.22 666.017 367.127 664.056 368.033 661.794 368.863 658.777 369.769 655.534 370.6 652.668 371.506 649.35 372.337 645.729 373.243 641.657 374.074 637.961 374.98 633.361 375.886 630.042 376.717 625.442 377.623 621.746 378.453 618.881 379.36 614.205 380.19 611.112 381.096 609.227 381.927 608.096 382.833 606.437 383.664 605.305 384.57 605.456 385.476 605.456 386.307 607.04 387.213 608.096 388.044 609.453 388.95 612.47 389.78 615.26 390.687 617.674 391.517 621.596 392.423 624.839 393.254 628.308 394.16 631.853 395.066 635.699 395.897 640.149 396.803 643.241 397.634 646.408 398.54 649.576 399.371 651.989 400.277 654.176 401.107 656.816 402.014 658.777 402.92 660.134 403.75 661.417 404.656 662.095 405.487 662.548 406.393 662.246 407.224 662.397 408.13 662.095 408.961 661.039 409.867 659.531 410.698 658.701 411.604 657.495 412.51 655.911 413.341 654.327 414.247 652.97 415.077 650.481 415.983 648.897 416.814 647.464 417.72 646.71 418.551 645.503 419.457 644.674 420.363 643.467 421.194 643.391 422.1 643.693 422.931 643.995 423.837 644.749 424.667 645.579 425.574 645.956 426.404 647.087 427.31 648.294 428.141 648.897 429.047 649.576 429.953 650.933 430.784 651.386 431.69 651.688 432.521 652.215 433.427 652.366 434.258 652.668 435.164 652.668 435.994 652.215 436.901 652.366 437.731 651.386 438.637 650.556 439.544 650.179 440.374 649.35 441.28 648.822 442.111 647.615 443.017 647.162 443.848 645.88 444.754 644.824 445.585 643.919 446.491 643.09 447.397 642.336 448.228 641.883 449.134 640.978 449.964 640.224 450.87 639.243 451.701 638.565 452.607 638.037 453.438 637.433 454.344 637.66 455.175 637.207 456.081 636.83 456.987 636.83 457.818 636.83 458.724 636.981 459.555 637.056 460.461 636.604 461.291 636.755 462.197 637.66 463.028 637.509 463.934 638.037 464.84 638.866 465.671 639.545 466.577 639.771 467.408 640.224 468.314 641.054 469.145 641.506 470.051 642.336 470.881 643.014 471.788 643.693 472.618 643.844 473.524 644.221 474.431 644.824 475.261 645.352 476.167 646.031 476.998 645.805 477.904 646.257 478.735 646.71 479.641 646.785 480.472 646.559 481.378 647.238 482.208 646.861 483.115 646.182 484.021 646.182 484.851 646.182 485.758 645.88 486.588 645.126 487.494 644.598 488.325 644.221 489.231 643.844 490.062 643.241 490.968 642.26 491.874 641.355 492.705 641.129 493.611 640.752 494.442 640.224 495.348 638.791 496.178 638.263 497.084 637.66 497.915 636.981 498.821 636.302 499.652 635.171 500.558 634.492 501.464 633.738 502.295 633.285 503.201 632.305 504.032 631.551 504.938 630.193 505.768 630.42 506.675 629.741 507.505 629.515 508.411 628.308 509.242 628.006 510.148 627.177 511.054 626.498 511.885 626.045 512.791 625.593 513.622 625.216 514.528 624.688 515.359 624.763 516.265 624.763 517.095 624.612 518.002 624.311 518.908 624.235 519.738 624.989 520.645 625.442 521.475 625.442 522.381 626.347 523.212 627.403 524.118 627.704 524.126 627.704" stroke="#FF0000" stroke-miterlimit="8" fill="none" fill-rule="evenodd"/><text font-family="Times New Roman,Times New Roman_MSFontService,sans-serif" font-weight="400" font-size="14" transform="translate(471.024 405)">NNP</text><path d="M500.634 397.462 532.5 397.462M153.5 676.5 154.331 676.5 155.237 676.5 156.067 676.5 156.974 676.5 157.804 676.5 158.71 676.5 159.541 676.5 160.447 676.5 161.278 676.5 162.184 676.5 163.09 676.5 163.921 676.5 164.827 676.5 165.658 676.5 166.564 676.5 167.394 676.5 168.301 676.5 169.131 676.5 170.037 676.5 170.944 676.5 171.774 676.5 172.68 676.5 173.511 676.5 174.417 676.5 175.248 676.5 176.154 676.5 176.985 676.5 177.891 676.5 178.721 676.5 179.628 676.5 180.534 676.5 181.364 676.5 182.271 676.5 183.101 676.5 184.007 676.5 184.838 676.5 185.744 676.5 186.575 676.5 187.481 676.5 188.387 676.5 189.218 676.5 190.124 676.5 190.955 676.5 191.861 676.5 192.691 676.5 193.598 676.5 194.428 676.5 195.334 676.5 196.165 676.5 197.071 676.5 197.977 676.5 198.808 676.5 199.714 676.5 200.545 676.5 201.451 676.5 202.281 676.5 203.188 676.5 204.018 676.5 204.924 676.5 205.755 676.5 206.661 676.5 207.567 676.5 208.398 676.5 209.304 676.5 210.135 676.5 211.041 676.5 211.872 676.5 212.778 676.5 213.608 676.5 214.515 676.5 215.421 676.5 216.251 676.5 217.158 676.5 217.988 676.5 218.894 676.5 219.725 676.5 220.631 676.5 221.462 676.5 222.368 676.5 223.199 676.5 224.105 676.5 225.011 676.5 225.842 676.5 226.748 676.5 227.578 676.5 228.485 676.5 229.315 676.5 230.221 676.5 231.052 676.5 231.958 676.5 232.789 676.5 233.695 676.5 234.601 676.5 235.432 676.5 236.338 676.5 237.169 676.5 238.075 676.5 238.905 676.5 239.812 676.5 240.642 676.5 241.548 676.5 242.454 676.5 243.285 676.5 244.191 676.5 245.022 676.5 245.928 676.5 246.759 676.5 247.665 676.5 248.495 676.5 249.402 676.5 250.232 676.5 251.138 676.5 252.045 676.5 252.875 676.5 253.781 676.5 254.612 676.5 255.518 676.5 256.349 676.5 257.255 676.5 258.086 676.5 258.992 676.5 259.898 676.5 260.729 676.5 261.635 676.5 262.465 676.5 263.372 676.5 264.202 676.5 265.108 676.5 265.939 676.5 266.845 676.5 267.676 676.5 268.582 676.5 269.488 676.5 270.319 676.5 271.225 676.5 272.056 676.5 272.962 676.5 273.792 676.5 274.699 676.5 275.529 676.5 276.435 676.5 277.266 676.5 278.172 676.5 279.078 676.425 279.909 676.5 280.815 676.349 281.646 675.896 282.552 674.991 283.383 673.934 284.289 670.688 285.119 665.556 286.026 656.197 286.932 641.781 287.762 621.779 288.668 594.532 289.499 562.681 290.405 526.528 291.236 487.053 292.142 449.843 292.973 412.256 293.879 395.5 294.709 397.915 295.616 397.84 296.522 412.407 297.352 435.201 298.259 466.977 299.089 501.092 299.995 534.755 300.826 564.266 301.732 588.117 302.563 609.93 303.469 626.384 304.375 644.649 305.206 653.48 306.112 660.952 306.943 666.462 307.849 669.481 308.679 672.122 309.586 673.557 310.416 674.84 311.322 675.368 312.153 676.047 313.059 676.123 313.965 676.198 314.796 676.425 315.702 676.349 316.533 676.425 317.439 676.5 318.27 676.5 319.176 676.5 320.006 676.5 320.913 676.5 321.743 676.5 322.649 676.5 323.555 676.5 324.386 676.5 325.292 676.5 326.123 676.5 327.029 676.5 327.86 676.5 328.766 676.5 329.596 676.5 330.503 676.5 331.409 676.5 332.24 676.5 333.146 676.5 333.976 676.5 334.882 676.5 335.713 676.5 336.619 676.5 337.45 676.5 338.356 676.5 339.187 676.5 340.093 676.5 340.999 676.5 341.83 676.5 342.736 676.5 343.566 676.5 344.473 676.5 345.303 676.5 346.209 676.5 347.04 676.425 347.946 676.5 348.852 676.5 349.683 676.425 350.589 676.425 351.42 676.425 352.326 676.425 353.157 676.349 354.063 676.274 354.893 676.349 355.8 676.274 356.63 675.972 357.536 675.896 358.442 675.368 359.273 675.142 360.179 674.462 361.01 674.311 361.916 673.33 362.747 673.255 363.653 671.821 364.484 670.915 365.39 669.707 366.22 667.292 367.127 665.707 368.033 663.443 368.863 660.273 369.769 657.555 370.6 654.159 371.506 649.781 372.337 646.158 373.243 643.366 374.074 638.686 374.98 632.346 375.886 630.384 376.717 625.629 377.623 620.119 378.453 617.553 379.36 614.307 380.19 608.495 381.096 605.552 381.927 606.684 382.833 603.363 383.664 603.363 384.57 603.061 385.476 603.514 386.307 604.571 387.213 606.458 388.044 607.741 388.95 610.986 389.78 613.175 390.687 616.421 391.517 622.232 392.423 625.1 393.254 629.176 394.16 632.799 395.066 637.63 395.897 639.969 396.803 644.422 397.634 647.668 398.54 650.461 399.371 653.027 400.277 655.518 401.107 658.084 402.014 658.612 402.92 660.574 403.75 661.858 404.656 662.537 405.487 662.99 406.393 663.292 407.224 662.839 408.13 662.31 408.961 661.556 409.867 660.801 410.698 658.763 411.604 656.65 412.51 656.348 413.341 655.442 414.247 653.178 415.077 650.536 415.983 648.498 416.814 646.687 417.72 645.102 418.551 645.102 419.457 644.121 420.363 642.234 421.194 643.29 422.1 643.441 422.931 644.573 423.837 643.441 424.667 645.479 425.574 646.611 426.404 647.366 427.31 647.97 428.141 649.328 429.047 650.612 429.953 650.31 430.784 651.517 431.69 651.517 432.521 652.423 433.427 652.876 434.258 652.348 435.164 652.725 435.994 653.027 436.901 651.895 437.731 651.744 438.637 650.687 439.544 649.706 440.374 649.479 441.28 648.121 442.111 646.838 443.017 645.177 443.848 644.875 444.754 645.177 445.585 643.366 446.491 643.064 447.397 641.554 448.228 641.102 449.134 639.516 449.964 638.082 450.87 637.403 451.701 637.856 452.607 637.101 453.438 636.875 454.344 636.799 455.175 636.422 456.081 637.177 456.987 635.063 457.818 636.346 458.724 636.196 459.555 637.252 460.461 636.497 461.291 636.12 462.197 637.101 463.028 637.554 463.934 638.233 464.84 639.592 465.671 639.064 466.577 639.366 467.408 640.875 468.314 641.479 469.145 641.328 470.051 642.913 470.881 643.29 471.788 643.517 472.618 644.271 473.524 645.026 474.431 645.404 475.261 646.158 476.167 646.385 476.998 646.838 477.904 647.894 478.735 647.743 479.641 646.687 480.472 647.442 481.378 647.517 482.208 647.366 483.115 647.215 484.021 646.762 484.851 646.536 485.758 646.083 486.588 646.008 487.494 644.573 488.325 643.97 489.231 644.196 490.062 644.196 490.968 643.441 491.874 642.988 492.705 641.554 493.611 640.8 494.442 640.12 495.348 639.818 496.178 638.233 497.084 637.705 497.915 636.648 498.821 635.516 499.652 635.29 500.558 635.365 501.464 634.082 502.295 632.799 503.201 632.195 504.032 632.346 504.938 631.44 505.768 630.006 506.675 629.554 507.505 629.931 508.411 627.818 509.242 627.214 510.148 627.289 511.054 626.761 511.885 625.402 512.791 624.497 513.622 624.572 514.528 623.817 515.359 624.346 516.265 623.515 517.095 623.817 518.002 623.515 518.908 624.044 519.738 625.176 520.645 624.949 521.475 625.402 522.381 626.384 523.212 627.138 524.118 627.063 524.126 627.063" stroke="#008000" stroke-miterlimit="8" fill="none" fill-rule="evenodd"/><path d="M152.5 370.5 152.5 676.5 544.5 676.5 544.5 370.5 152.5 370.5ZM152.5 370.5 152.508 370.5" stroke="#000000" stroke-miterlimit="8" fill="none" fill-rule="evenodd"/><path d="M605.5 680.5 612.293 680.5M991.5 680.5 984.707 680.5 984.715 680.5" stroke="#000000" stroke-miterlimit="8" fill="none" fill-rule="evenodd"/><text font-family="Times New Roman,Times New Roman_MSFontService,sans-serif" font-weight="400" font-size="14" transform="translate(584.497 688)">0.0</text><path d="M605.5 642.5 612.293 642.5M991.5 642.5 984.707 642.5 984.715 642.5" stroke="#000000" stroke-miterlimit="8" fill="none" fill-rule="evenodd"/><text font-family="Times New Roman,Times New Roman_MSFontService,sans-serif" font-weight="400" font-size="14" transform="translate(584.497 650)">0.2</text><path d="M605.5 603.5 612.293 603.5M991.5 603.5 984.707 603.5 984.715 603.5" stroke="#000000" stroke-miterlimit="8" fill="none" fill-rule="evenodd"/><text font-family="Times New Roman,Times New Roman_MSFontService,sans-serif" font-weight="400" font-size="14" transform="translate(584.497 611)">0.4</text><path d="M605.5 565.5 612.293 565.5M991.5 565.5 984.707 565.5 984.715 565.5" stroke="#000000" stroke-miterlimit="8" fill="none" fill-rule="evenodd"/><text font-family="Times New Roman,Times New Roman_MSFontService,sans-serif" font-weight="400" font-size="14" transform="translate(584.497 573)">0.6</text><path d="M605.5 527.5 612.293 527.5M991.5 527.5 984.707 527.5 984.715 527.5" stroke="#000000" stroke-miterlimit="8" fill="none" fill-rule="evenodd"/><text font-family="Times New Roman,Times New Roman_MSFontService,sans-serif" font-weight="400" font-size="14" transform="translate(584.497 535)">0.8</text><path d="M605.5 489.5 612.293 489.5M991.5 489.5 984.707 489.5 984.715 489.5" stroke="#000000" stroke-miterlimit="8" fill="none" fill-rule="evenodd"/><text font-family="Times New Roman,Times New Roman_MSFontService,sans-serif" font-weight="400" font-size="14" transform="translate(584.497 497)">1.0</text><path d="M605.5 450.5 612.293 450.5M991.5 450.5 984.707 450.5 984.715 450.5" stroke="#000000" stroke-miterlimit="8" fill="none" fill-rule="evenodd"/><text font-family="Times New Roman,Times New Roman_MSFontService,sans-serif" font-weight="400" font-size="14" transform="translate(584.497 458)">1.2</text><path d="M605.5 412.5 612.293 412.5M991.5 412.5 984.707 412.5 984.715 412.5" stroke="#000000" stroke-miterlimit="8" fill="none" fill-rule="evenodd"/><text font-family="Times New Roman,Times New Roman_MSFontService,sans-serif" font-weight="400" font-size="14" transform="translate(584.497 420)">1.4</text><path d="M605.5 374.5 612.293 374.5M991.5 374.5 984.707 374.5 984.715 374.5" stroke="#000000" stroke-miterlimit="8" fill="none" fill-rule="evenodd"/><text font-family="Times New Roman,Times New Roman_MSFontService,sans-serif" font-weight="400" font-size="14" transform="translate(584.497 382)">1.6</text><path d="M605.5 680.5 605.5 673.712M605.5 374.5 605.5 381.288 606.5 381.288" stroke="#000000" stroke-miterlimit="8" fill="none" fill-rule="evenodd"/><text font-family="Times New Roman,Times New Roman_MSFontService,sans-serif" font-weight="400" font-size="14" transform="translate(603.959 702)">0</text><path d="M648.5 680.5 648.5 673.712M648.5 374.5 648.5 381.288 649.5 381.288" stroke="#000000" stroke-miterlimit="8" fill="none" fill-rule="evenodd"/><text font-family="Times New Roman,Times New Roman_MSFontService,sans-serif" font-weight="400" font-size="14" transform="translate(643.411 702)">20</text><path d="M691.5 680.5 691.5 673.712M691.5 374.5 691.5 381.288 692.5 381.288" stroke="#000000" stroke-miterlimit="8" fill="none" fill-rule="evenodd"/><text font-family="Times New Roman,Times New Roman_MSFontService,sans-serif" font-weight="400" font-size="14" transform="translate(686.256 702)">40</text><path d="M734.5 680.5 734.5 673.712M734.5 374.5 734.5 381.288 735.5 381.288" stroke="#000000" stroke-miterlimit="8" fill="none" fill-rule="evenodd"/><text font-family="Times New Roman,Times New Roman_MSFontService,sans-serif" font-weight="400" font-size="14" transform="translate(729.178 702)">60</text><path d="M776.5 680.5 776.5 673.712M776.5 374.5 776.5 381.288 777.5 381.288" stroke="#000000" stroke-miterlimit="8" fill="none" fill-rule="evenodd"/><text font-family="Times New Roman,Times New Roman_MSFontService,sans-serif" font-weight="400" font-size="14" transform="translate(772.024 702)">80</text><path d="M819.5 680.5 819.5 673.712M819.5 374.5 819.5 381.288 820.5 381.288" stroke="#000000" stroke-miterlimit="8" fill="none" fill-rule="evenodd"/><text font-family="Times New Roman,Times New Roman_MSFontService,sans-serif" font-weight="400" font-size="14" transform="translate(811.475 702)">100</text><path d="M862.5 680.5 862.5 673.712M862.5 374.5 862.5 381.288 863.5 381.288" stroke="#000000" stroke-miterlimit="8" fill="none" fill-rule="evenodd"/><text font-family="Times New Roman,Times New Roman_MSFontService,sans-serif" font-weight="400" font-size="14" transform="translate(854.321 702)">120</text><path d="M905.5 680.5 905.5 673.712M905.5 374.5 905.5 381.288 906.5 381.288" stroke="#000000" stroke-miterlimit="8" fill="none" fill-rule="evenodd"/><text font-family="Times New Roman,Times New Roman_MSFontService,sans-serif" font-weight="400" font-size="14" transform="translate(897.243 702)">140</text><path d="M948.5 680.5 948.5 673.712M948.5 374.5 948.5 381.288 949.5 381.288" stroke="#000000" stroke-miterlimit="8" fill="none" fill-rule="evenodd"/><text font-family="Times New Roman,Times New Roman_MSFontService,sans-serif" font-weight="400" font-size="14" transform="translate(940.089 702)">160</text><path d="M991.5 680.5 991.5 673.712M991.5 374.5 991.5 381.288 992.5 381.288" stroke="#000000" stroke-miterlimit="8" fill="none" fill-rule="evenodd"/><text font-family="Times New Roman,Times New Roman_MSFontService,sans-serif" font-weight="400" font-size="14" transform="translate(982.935 702)">180</text><path d="M605.5 374.5 605.5 680.5 991.5 680.5 991.5 374.5 605.5 374.5ZM605.5 374.5 605.508 374.5" stroke="#000000" stroke-miterlimit="8" fill="none" fill-rule="evenodd"/><text font-family="Times New Roman,Times New Roman_MSFontService,sans-serif" font-weight="400" font-size="14" transform="matrix(-1.83697e-16 -1 1 -1.83697e-16 574.893 574)">bond-<tspan font-size="14" x="32" y="5.8783e-15">angle distribution</tspan></text><text font-family="Times New Roman,Times New Roman_MSFontService,sans-serif" font-weight="400" font-size="14" transform="translate(758.748 722)">angle (degrees)<tspan font-size="14" x="132.46" y="-327">PHASE/0</tspan></text><path d="M947.105 388.234 978.961 388.234M606.5 680.5 607.557 680.5 608.689 680.5 609.746 680.5 610.803 680.5 611.86 680.5 612.917 680.5 614.049 680.5 615.106 680.5 616.163 680.5 617.219 680.5 618.276 680.5 619.409 680.5 620.466 680.5 621.522 680.5 622.579 680.5 623.636 680.5 624.768 680.5 625.825 680.5 626.882 680.5 627.939 680.5 629.071 680.5 630.128 680.5 631.185 680.5 632.242 680.5 633.299 680.5 634.431 680.5 635.488 680.5 636.545 680.5 637.601 680.5 638.658 680.5 639.791 680.5 640.847 680.5 641.904 680.5 642.961 680.5 644.018 680.5 645.15 680.5 646.207 680.5 647.264 680.5 648.321 680.5 649.378 680.5 650.51 680.5 651.567 680.5 652.624 680.5 653.681 680.5 654.737 680.5 655.87 680.5 656.927 680.5 657.983 680.5 659.04 680.5 660.097 680.5 661.229 680.5 662.286 680.5 663.343 680.5 664.4 680.5 665.532 680.5 666.589 680.5 667.646 680.5 668.703 680.5 669.76 680.5 670.892 680.5 671.949 680.5 673.006 680.5 674.062 680.5 675.119 680.5 676.252 680.5 677.308 680.5 678.365 680.5 679.422 680.5 680.479 680.5 681.611 680.5 682.668 680.5 683.725 680.5 684.782 680.5 685.839 680.5 686.971 680.5 688.028 680.5 689.085 680.5 690.142 680.5 691.198 680.5 692.331 680.5 693.388 680.5 694.444 680.5 695.501 680.5 696.558 680.5 697.69 680.5 698.747 680.5 699.804 680.5 700.861 680.5 701.993 680.5 703.05 680.5 704.107 680.5 705.164 680.5 706.221 680.5 707.353 680.5 708.41 680.5 709.467 680.5 710.523 680.5 711.58 680.5 712.713 680.5 713.77 680.5 714.826 680.5 715.883 680.5 716.94 680.5 718.072 680.5 719.129 680.5 720.186 680.5 721.243 680.5 722.3 680.5 723.432 680.5 724.489 680.5 725.546 680.5 726.603 680.5 727.659 680.5 728.792 680.5 729.849 680.5 730.905 680.5 731.962 680.5 733.019 680.5 734.152 680.5 735.208 680.5 736.265 680.5 737.322 680.5 738.379 680.5 739.511 680.5 740.568 680.5 741.625 680.5 742.682 680.5 743.814 680.5 744.871 680.5 745.928 680.5 746.985 680.5 748.041 680.5 749.174 680.5 750.231 680.5 751.287 680.5 752.344 680.5 753.401 680.5 754.533 680.5 755.59 680.5 756.647 680.5 757.704 680.5 758.761 680.5 759.893 680.5 760.95 680.5 762.007 680.5 763.064 680.5 764.12 680.5 765.253 680.5 766.31 680.5 767.367 680.5 768.423 680.5 769.48 680.5 770.613 680.5 771.669 680.5 772.726 680.425 773.783 680.425 774.84 680.199 775.972 680.199 777.029 680.048 778.086 679.972 779.143 680.048 780.275 679.746 781.332 679.445 782.389 679.219 783.446 678.842 784.502 678.163 785.635 677.485 786.692 676.731 787.749 674.922 788.805 673.263 789.862 671.982 790.995 670.172 792.051 668.062 793.108 665.197 794.165 662.106 795.222 659.392 796.354 657.055 797.411 652.231 798.468 649.14 799.525 644.693 800.582 638.888 801.714 633.234 802.771 628.937 803.828 621.172 804.884 615.368 805.941 609.865 807.074 601.648 808.13 591.019 809.187 581.294 810.244 572.776 811.301 564.709 812.433 558.754 813.49 551.969 814.547 541.943 815.604 532.143 816.661 525.886 817.793 514.503 818.85 506.814 819.907 498.446 820.964 492.039 822.096 485.103 823.153 477.339 824.21 474.097 825.266 468.519 826.323 459.623 827.456 449.295 828.512 448.768 829.569 443.34 830.626 433.012 831.683 427.962 832.815 429.243 833.872 418.915 834.929 418.84 835.986 411.603 837.043 410.246 838.175 406.1 839.232 403.839 840.289 399.391 841.346 395.923 842.402 388.762 843.535 386.5 844.591 386.952 845.648 386.575 846.705 387.555 847.762 392.455 848.894 391.023 849.951 394.114 851.008 398.109 852.065 399.542 853.122 407.985 854.254 415.749 855.311 423.212 856.368 436.932 857.425 444.923 858.557 453.442 859.614 465.654 860.671 474.7 861.727 485.405 862.784 497.014 863.917 507.266 864.973 518.725 866.03 528.751 867.087 537.495 868.144 548.2 869.276 558 870.333 566.594 871.39 575.263 872.447 580.465 873.504 585.289 874.636 590.491 875.693 595.24 876.75 597.502 877.807 602.477 878.863 604.739 879.996 602.779 881.053 605.945 882.109 604.814 883.166 603.834 884.223 601.723 885.355 601.195 886.412 602.251 887.469 599.688 888.526 596.672 889.583 596.522 890.715 592.752 891.772 592.602 892.829 590.566 893.886 587.4 895.018 589.209 896.075 581.897 897.132 577.902 898.188 581.068 899.245 580.389 900.378 582.877 901.435 583.932 902.491 581.143 903.548 581.445 904.605 581.445 905.737 580.691 906.794 582.651 907.851 584.46 908.908 586.722 909.965 587.702 911.097 589.059 912.154 590.491 913.211 595.24 914.268 596.522 915.324 598.105 916.457 602.779 917.514 604.889 918.57 606.623 919.627 608.508 920.684 613.86 921.816 617.403 922.873 620.343 923.93 622.831 924.987 625.922 926.044 629.314 927.176 632.405 928.233 635.345 929.29 638.36 930.347 639.491 931.404 642.657 932.536 646.125 933.593 649.14 934.65 649.592 935.706 651.552 936.839 652.759 937.896 657.206 938.952 659.317 940.009 661.126 941.066 662.709 942.198 663.388 943.255 665.046 944.312 665.951 945.369 667.986 946.426 669.192 947.558 670.399 948.615 671.379 949.672 671.303 950.729 673.188 951.785 673.716 952.918 674.243 953.975 674.771 955.031 675.449 956.088 676.203 957.145 676.731 958.277 677.108 959.334 677.334 960.391 677.711 961.448 677.937 962.505 678.012 963.637 678.54 964.694 678.766 965.751 678.766 966.808 678.842 967.865 679.294 968.997 679.219 970.054 679.52 971.111 679.822 972.167 679.897 973.3 679.972 974.357 680.123 975.413 680.048 976.47 680.123 977.527 680.199 978.659 680.199 979.716 680.199 980.773 680.274 981.83 680.425 982.887 680.425 984.019 680.425 985.076 680.5 986.133 680.5 987.19 680.5 988.247 680.5 989.379 680.5 990.436 680.5 991.493 680.5 991.5 680.5" stroke="#FF0000" stroke-miterlimit="8" fill="none" fill-rule="evenodd"/><text font-family="Times New Roman,Times New Roman_MSFontService,sans-serif" font-weight="400" font-size="14" transform="translate(917.61 409)">NNP</text><path d="M947.105 401.655 978.961 401.655M606.5 680.5 607.557 680.5 608.689 680.5 609.746 680.5 610.803 680.5 611.86 680.5 612.917 680.5 614.049 680.5 615.106 680.5 616.163 680.5 617.219 680.5 618.276 680.5 619.409 680.5 620.466 680.5 621.522 680.5 622.579 680.5 623.636 680.5 624.768 680.5 625.825 680.5 626.882 680.5 627.939 680.5 629.071 680.5 630.128 680.5 631.185 680.5 632.242 680.5 633.299 680.5 634.431 680.5 635.488 680.5 636.545 680.5 637.601 680.5 638.658 680.5 639.791 680.5 640.847 680.5 641.904 680.5 642.961 680.5 644.018 680.5 645.15 680.5 646.207 680.5 647.264 680.5 648.321 680.5 649.378 680.5 650.51 680.5 651.567 680.5 652.624 680.5 653.681 680.5 654.737 680.5 655.87 680.5 656.927 680.5 657.983 680.5 659.04 680.5 660.097 680.5 661.229 680.5 662.286 680.5 663.343 680.5 664.4 680.5 665.532 680.5 666.589 680.5 667.646 680.5 668.703 680.5 669.76 680.5 670.892 680.5 671.949 680.5 673.006 680.5 674.062 680.5 675.119 680.5 676.252 680.5 677.308 680.5 678.365 680.5 679.422 680.5 680.479 680.5 681.611 680.5 682.668 680.5 683.725 680.5 684.782 680.5 685.839 680.5 686.971 680.5 688.028 680.5 689.085 680.5 690.142 680.5 691.198 680.5 692.331 680.5 693.388 680.5 694.444 680.5 695.501 680.5 696.558 680.5 697.69 680.5 698.747 680.5 699.804 680.5 700.861 680.5 701.993 680.5 703.05 680.5 704.107 680.5 705.164 680.5 706.221 680.5 707.353 680.5 708.41 680.5 709.467 680.5 710.523 680.5 711.58 680.5 712.713 680.5 713.77 680.5 714.826 680.5 715.883 680.5 716.94 680.5 718.072 680.5 719.129 680.5 720.186 680.5 721.243 680.5 722.3 680.5 723.432 680.5 724.489 680.5 725.546 680.5 726.603 680.5 727.659 680.5 728.792 680.5 729.849 680.5 730.905 680.5 731.962 680.5 733.019 680.5 734.152 680.5 735.208 680.5 736.265 680.5 737.322 680.5 738.379 680.5 739.511 680.5 740.568 680.5 741.625 680.5 742.682 680.5 743.814 680.5 744.871 680.5 745.928 680.5 746.985 680.5 748.041 680.5 749.174 680.5 750.231 680.5 751.287 680.5 752.344 680.5 753.401 680.5 754.533 680.5 755.59 680.5 756.647 680.5 757.704 680.5 758.761 680.5 759.893 680.5 760.95 680.5 762.007 680.5 763.064 680.5 764.12 680.5 765.253 680.5 766.31 680.425 767.367 680.5 768.423 680.5 769.48 680.5 770.613 680.425 771.669 680.5 772.726 680.425 773.783 680.5 774.84 680.274 775.972 680.425 777.029 680.198 778.086 679.746 779.143 679.821 780.275 680.048 781.332 679.293 782.389 678.615 783.446 679.142 784.502 678.464 785.635 678.237 786.692 677.936 787.749 676.427 788.805 675.22 789.862 674.315 790.995 672.731 792.051 669.413 793.108 668.659 794.165 664.963 795.222 662.247 796.354 658.702 797.411 653.046 798.468 650.33 799.525 646.031 800.582 640.827 801.714 633.963 802.771 629.136 803.828 628.834 804.884 614.126 805.941 608.545 807.074 598.664 808.13 593.536 809.187 581.166 810.244 578.074 811.301 571.21 812.433 556.879 813.49 555.522 814.547 543.227 815.604 532.819 816.661 529.726 817.793 510.267 818.85 511.625 819.907 497.671 820.964 492.467 822.096 482.661 823.153 484.396 824.21 472.932 825.266 464.71 826.323 461.241 827.456 457.319 828.512 454 829.569 432.957 830.626 428.205 831.683 429.185 832.815 426.319 833.872 415.609 834.929 409.65 835.986 399.393 837.043 400.901 838.175 397.809 839.232 392.303 840.289 385.288 841.346 388.004 842.402 382.045 843.535 378.5 844.591 384.836 845.648 381.894 846.705 385.59 847.762 381.291 848.894 387.476 849.951 385.213 851.008 396.979 852.065 407.539 853.122 404.899 854.254 418.626 855.311 425.263 856.368 430.468 857.425 445.477 858.557 445.477 859.614 469.462 860.671 479.418 861.727 486.885 862.784 496.012 863.917 514.113 864.973 527.841 866.03 533.573 867.087 545.49 868.144 561.405 869.276 557.86 870.333 570.607 871.39 571.059 872.447 580.94 873.504 585.842 874.636 596.402 875.693 601.153 876.75 602.662 877.807 608.017 878.863 608.243 879.996 608.394 881.053 605 882.109 603.944 883.166 605.981 884.223 608.47 885.355 602.285 886.412 609.073 887.469 604.095 888.526 598.74 889.583 594.441 890.715 592.555 891.772 593.686 892.829 585.39 893.886 580.789 895.018 584.032 896.075 576.641 897.132 577.772 898.188 585.088 899.245 578.375 900.378 571.889 901.435 578.979 902.491 574.453 903.548 571.512 904.605 580.035 905.737 580.789 906.794 579.205 907.851 579.431 908.908 578.375 909.965 586.219 911.097 585.918 912.154 588.407 913.211 594.969 914.268 591.952 915.324 596.251 916.457 603.19 917.514 606.282 918.57 608.771 919.627 608.847 920.684 612.467 921.816 619.104 922.873 620.01 923.93 625.44 924.987 623.102 926.044 631.7 927.176 634.642 928.233 637.508 929.29 643.24 930.347 643.24 931.404 641.204 932.536 647.615 933.593 648.294 934.65 650.632 935.706 653.649 936.839 655.459 937.896 659.608 938.952 662.323 940.009 658.25 941.066 663.907 942.198 664.661 943.255 666.547 944.312 667.603 945.369 670.393 946.426 670.393 947.558 670.393 948.615 672.731 949.672 671.977 950.729 673.335 951.785 674.315 952.918 674.542 953.975 675.975 955.031 676.276 956.088 677.559 957.145 676.804 958.277 677.332 959.334 678.313 960.391 678.087 961.448 678.011 962.505 678.841 963.637 679.067 964.694 679.142 965.751 679.067 966.808 679.369 967.865 679.671 968.997 679.746 970.054 679.444 971.111 680.274 972.167 679.897 973.3 679.821 974.357 680.048 975.413 680.123 976.47 680.5 977.527 680.425 978.659 680.274 979.716 680.198 980.773 680.198 981.83 680.5 982.887 680.5 984.019 680.274 985.076 680.5 986.133 680.425 987.19 680.5 988.247 680.5 989.379 680.5 990.436 680.5 991.493 680.5 991.5 680.5" stroke="#008000" stroke-miterlimit="8" fill="none" fill-rule="evenodd"/><path d="M605.5 374.5 605.5 680.5 991.5 680.5 991.5 374.5 605.5 374.5ZM605.5 374.5 605.508 374.5" stroke="#000000" stroke-miterlimit="8" fill="none" fill-rule="evenodd"/><text font-family="Times New Roman,Times New Roman_MSFontService,sans-serif" font-weight="400" font-size="14" transform="translate(306.253 393)">Si<tspan font-size="14" x="11.6667" y="0">-</tspan><tspan font-size="14" x="16.3333" y="0">O</tspan><tspan font-size="14" x="98.3284" y="240">Si</tspan><tspan font-size="14" x="109.995" y="240">-</tspan><tspan font-size="14" x="114.662" y="240">Si</tspan><tspan font-size="14" x="59.1155" y="201">O</tspan><tspan font-size="14" x="69.2822" y="201">-</tspan><tspan font-size="14" x="73.9488" y="201">O</tspan><tspan font-size="14" x="483.559" y="10">O</tspan><tspan font-size="14" x="493.725" y="10">-</tspan><tspan font-size="14" x="498.392" y="10">Si</tspan><tspan font-size="14" x="510.059" y="10">-</tspan>O<tspan font-size="14" x="581.146" y="-201">Si</tspan><tspan font-size="14" x="592.813" y="-201">-</tspan><tspan font-size="14" x="597.479" y="-201">O</tspan><tspan font-size="14" x="607.646" y="-201">-</tspan><tspan font-size="14" x="612.313" y="-201">Si</tspan><tspan font-size="14" x="620.154" y="177">Si</tspan><tspan font-size="14" x="631.82" y="177">-</tspan><tspan font-size="14" x="636.487" y="177">O</tspan><tspan font-size="14" x="646.654" y="177">-</tspan><tspan font-size="14" x="651.32" y="177">Si</tspan><tspan font-size="14" x="486.903" y="-364">O</tspan><tspan font-size="14" x="497.07" y="-364">-</tspan><tspan font-size="14" x="501.736" y="-364">Si</tspan><tspan font-size="14" x="513.403" y="-364">-</tspan><tspan font-size="14" x="518.07" y="-364">O</tspan><tspan font-size="14" x="-1.26791" y="-367">Si</tspan><tspan font-size="14" x="10.3987" y="-367">-</tspan><tspan font-size="14" x="15.0654" y="-367">O</tspan><tspan font-size="14" x="97.0605" y="-127">Si</tspan><tspan font-size="14" x="108.727" y="-127">-</tspan><tspan font-size="14" x="113.394" y="-127">Si</tspan><tspan font-size="14" x="57.8476" y="-166">O</tspan><tspan font-size="14" x="68.0142" y="-166">-</tspan><tspan font-size="14" x="72.6809" y="-166">O</tspan><tspan font-size="24" x="-266.19" y="137">800K</tspan><tspan font-size="24" x="-266.507" y="-245">5</tspan><tspan font-size="24" x="-254.507" y="-245">00K</tspan><tspan font-family="Yu Gothic,Yu Gothic_MSFontService,sans-serif" font-size="24" x="-62.709" y="-407">二体分布関数</tspan><tspan font-family="Yu Gothic,Yu Gothic_MSFontService,sans-serif" font-size="24" x="419.301" y="-407">結合角分布関数</tspan></text></g></svg>