<svg width="353" height="283" xmlns="http://www.w3.org/2000/svg" xmlns:xlink="http://www.w3.org/1999/xlink" xml:space="preserve" overflow="hidden"><defs><clipPath id="clip0"><rect x="137" y="348" width="353" height="283"/></clipPath></defs><g clip-path="url(#clip0)" transform="translate(-137 -348)"><path d="M61.8338 248.512 67.1288 248.512M283.753 248.512 278.458 248.512 278.464 248.512" stroke="#000000" stroke-width="0.588333" fill="none" transform="matrix(1 0 0 1.00212 137 348)"/><text font-family="Arial,Arial_MSFontService,sans-serif" font-weight="400" font-size="16" transform="matrix(0.588333 0 0 0.589583 156.886 600)">-<tspan font-size="16" x="5" y="0">87</tspan><tspan font-size="16" x="23" y="0">.</tspan>9555</text><path d="M61.8338 221.978 67.1288 221.978M283.753 221.978 278.458 221.978 278.464 221.978" stroke="#000000" stroke-width="0.588333" fill="none" transform="matrix(1 0 0 1.00212 137 348)"/><text font-family="Arial,Arial_MSFontService,sans-serif" font-weight="400" font-size="16" transform="matrix(0.588333 0 0 0.589583 156.886 573)">-<tspan font-size="16" x="5" y="0">87</tspan><tspan font-size="16" x="23" y="0">.</tspan>9554</text><path d="M61.8338 195.444 67.1288 195.444M283.753 195.444 278.458 195.444 278.464 195.444" stroke="#000000" stroke-width="0.588333" fill="none" transform="matrix(1 0 0 1.00212 137 348)"/><text font-family="Arial,Arial_MSFontService,sans-serif" font-weight="400" font-size="16" transform="matrix(0.588333 0 0 0.589583 156.886 547)">-<tspan font-size="16" x="5" y="0">87</tspan><tspan font-size="16" x="23" y="0">.</tspan>9553</text><path d="M61.8338 168.969 67.1288 168.969M283.753 168.969 278.458 168.969 278.464 168.969" stroke="#000000" stroke-width="0.588333" fill="none" transform="matrix(1 0 0 1.00212 137 348)"/><text font-family="Arial,Arial_MSFontService,sans-serif" font-weight="400" font-size="16" transform="matrix(0.588333 0 0 0.589583 156.886 520)">-<tspan font-size="16" x="5" y="0">87</tspan><tspan font-size="16" x="23" y="0">.</tspan>9552</text><path d="M61.8338 142.436 67.1288 142.436M283.753 142.436 278.458 142.436 278.464 142.436" stroke="#000000" stroke-width="0.588333" fill="none" transform="matrix(1 0 0 1.00212 137 348)"/><text font-family="Arial,Arial_MSFontService,sans-serif" font-weight="400" font-size="16" transform="matrix(0.588333 0 0 0.589583 156.886 493)">-<tspan font-size="16" x="5" y="0">87</tspan><tspan font-size="16" x="23" y="0">.</tspan>9551</text><path d="M61.8338 115.902 67.1288 115.902M283.753 115.902 278.458 115.902 278.464 115.902" stroke="#000000" stroke-width="0.588333" fill="none" transform="matrix(1 0 0 1.00212 137 348)"/><text font-family="Arial,Arial_MSFontService,sans-serif" font-weight="400" font-size="16" transform="matrix(0.588333 0 0 0.589583 162.181 467)">-<tspan font-size="16" x="5" y="0">87</tspan><tspan font-size="16" x="23" y="0">.</tspan><tspan font-size="16" x="27" y="0">955</tspan></text><path d="M61.8338 89.3678 67.1288 89.3678M283.753 89.3678 278.458 89.3678 278.464 89.3678" stroke="#000000" stroke-width="0.588333" fill="none" transform="matrix(1 0 0 1.00212 137 348)"/><text font-family="Arial,Arial_MSFontService,sans-serif" font-weight="400" font-size="16" transform="matrix(0.588333 0 0 0.589583 156.886 440)">-<tspan font-size="16" x="5" y="0">87</tspan><tspan font-size="16" x="23" y="0">.</tspan>9549</text><path d="M61.8338 62.8928 67.1288 62.8928M283.753 62.8928 278.458 62.8928 278.464 62.8928" stroke="#000000" stroke-width="0.588333" fill="none" transform="matrix(1 0 0 1.00212 137 348)"/><text font-family="Arial,Arial_MSFontService,sans-serif" font-weight="400" font-size="16" transform="matrix(0.588333 0 0 0.589583 156.886 414)">-<tspan font-size="16" x="5" y="0">87</tspan><tspan font-size="16" x="23" y="0">.</tspan>9548</text><path d="M61.8338 36.359 67.1288 36.359M283.753 36.359 278.458 36.359 278.464 36.359" stroke="#000000" stroke-width="0.588333" fill="none" transform="matrix(1 0 0 1.00212 137 348)"/><text font-family="Arial,Arial_MSFontService,sans-serif" font-weight="400" font-size="16" transform="matrix(0.588333 0 0 0.589583 156.886 387)">-<tspan font-size="16" x="5" y="0">87</tspan><tspan font-size="16" x="23" y="0">.</tspan>9547</text><path d="M61.8338 9.82517 67.1288 9.82517M283.753 9.82517 278.458 9.82517 278.464 9.82517" stroke="#000000" stroke-width="0.588333" fill="none" transform="matrix(1 0 0 1.00212 137 348)"/><text font-family="Arial,Arial_MSFontService,sans-serif" font-weight="400" font-size="16" transform="matrix(0.588333 0 0 0.589583 156.886 360)">-<tspan font-size="16" x="5" y="0">87</tspan><tspan font-size="16" x="23" y="0">.</tspan>9546</text><path d="M61.8338 248.512 61.8338 243.217M61.8338 9.82517 61.8338 15.1202 61.8397 15.1202" stroke="#000000" stroke-width="0.588333" fill="none" transform="matrix(1 0 0 1.00212 137 348)"/><text font-family="Arial,Arial_MSFontService,sans-serif" font-weight="400" font-size="16" transform="matrix(0.588333 0 0 0.589583 196.186 610)">0</text><path d="M93.545 248.512 93.545 243.217M93.545 9.82517 93.545 15.1202 93.5509 15.1202" stroke="#000000" stroke-width="0.588333" fill="none" transform="matrix(1 0 0 1.00212 137 348)"/><text font-family="Arial,Arial_MSFontService,sans-serif" font-weight="400" font-size="16" transform="matrix(0.588333 0 0 0.589583 227.898 610)">2</text><path d="M125.256 248.512 125.256 243.217M125.256 9.82517 125.256 15.1202 125.262 15.1202" stroke="#000000" stroke-width="0.588333" fill="none" transform="matrix(1 0 0 1.00212 137 348)"/><text font-family="Arial,Arial_MSFontService,sans-serif" font-weight="400" font-size="16" transform="matrix(0.588333 0 0 0.589583 259.609 610)">4</text><path d="M156.967 248.512 156.967 243.217M156.967 9.82517 156.967 15.1202 156.973 15.1202" stroke="#000000" stroke-width="0.588333" fill="none" transform="matrix(1 0 0 1.00212 137 348)"/><text font-family="Arial,Arial_MSFontService,sans-serif" font-weight="400" font-size="16" transform="matrix(0.588333 0 0 0.589583 291.32 610)">6</text><path d="M188.62 248.512 188.62 243.217M188.62 9.82517 188.62 15.1202 188.626 15.1202" stroke="#000000" stroke-width="0.588333" fill="none" transform="matrix(1 0 0 1.00212 137 348)"/><text font-family="Arial,Arial_MSFontService,sans-serif" font-weight="400" font-size="16" transform="matrix(0.588333 0 0 0.589583 322.972 610)">8</text><path d="M220.331 248.512 220.331 243.217M220.331 9.82517 220.331 15.1202 220.337 15.1202" stroke="#000000" stroke-width="0.588333" fill="none" transform="matrix(1 0 0 1.00212 137 348)"/><text font-family="Arial,Arial_MSFontService,sans-serif" font-weight="400" font-size="16" transform="matrix(0.588333 0 0 0.589583 352.036 610)">10</text><path d="M252.042 248.512 252.042 243.217M252.042 9.82517 252.042 15.1202 252.048 15.1202" stroke="#000000" stroke-width="0.588333" fill="none" transform="matrix(1 0 0 1.00212 137 348)"/><text font-family="Arial,Arial_MSFontService,sans-serif" font-weight="400" font-size="16" transform="matrix(0.588333 0 0 0.589583 383.747 610)">12</text><path d="M283.753 248.512 283.753 243.217M283.753 9.82517 283.753 15.1202 283.759 15.1202" stroke="#000000" stroke-width="0.588333" fill="none" transform="matrix(1 0 0 1.00212 137 348)"/><text font-family="Arial,Arial_MSFontService,sans-serif" font-weight="400" font-size="16" transform="matrix(0.588333 0 0 0.589583 415.458 610)">14</text><path d="M283.753 248.512 278.458 248.512 278.464 248.512" stroke="#000000" stroke-width="0.588333" fill="none" transform="matrix(1 0 0 1.00212 137 348)"/><text font-family="Arial,Arial_MSFontService,sans-serif" font-weight="400" font-size="16" transform="matrix(0.588333 0 0 0.589583 425.636 600)">1<tspan font-size="16" x="9.00002" y="0">e</tspan><tspan font-size="16" x="18" y="0">-</tspan><tspan font-size="16" x="23" y="0">05</tspan></text><path d="M283.753 230.568 281.106 230.568M283.753 220.037 281.106 220.037M283.753 212.565 281.106 212.565M283.753 206.799 281.106 206.799M283.753 202.092 281.106 202.092M283.753 198.092 281.106 198.092M283.753 194.621 281.106 194.621M283.753 191.561 281.106 191.561M283.753 188.855 278.458 188.855 278.464 188.855" stroke="#000000" stroke-width="0.588333" fill="none" transform="matrix(1 0 0 1.00212 137 348)"/><text font-family="Arial,Arial_MSFontService,sans-serif" font-weight="400" font-size="16" transform="matrix(0.588333 0 0 0.589583 425.636 540)">0<tspan font-size="16" x="9.00002" y="0">.</tspan>0001</text><path d="M283.753 170.852 281.106 170.852M283.753 160.38 281.106 160.38M283.753 152.908 281.106 152.908M283.753 147.142 281.106 147.142M283.753 142.436 281.106 142.436M283.753 138.435 281.106 138.435M283.753 134.964 281.106 134.964M283.753 131.904 281.106 131.904M283.753 129.139 278.458 129.139 278.464 129.139" stroke="#000000" stroke-width="0.588333" fill="none" transform="matrix(1 0 0 1.00212 137 348)"/><text font-family="Arial,Arial_MSFontService,sans-serif" font-weight="400" font-size="16" transform="matrix(0.588333 0 0 0.589583 425.636 480)">0<tspan font-size="16" x="9.00002" y="0">.</tspan>001</text><path d="M283.753 111.195 281.106 111.195M283.753 100.723 281.106 100.723M283.753 93.2508 281.106 93.2508M283.753 87.4852 281.106 87.4852M283.753 82.7197 281.106 82.7197M283.753 78.719 281.106 78.719M283.753 75.3067 281.106 75.3067M283.753 72.2473 281.106 72.2473M283.753 69.4822 278.458 69.4822 278.464 69.4822" stroke="#000000" stroke-width="0.588333" fill="none" transform="matrix(1 0 0 1.00212 137 348)"/><text font-family="Arial,Arial_MSFontService,sans-serif" font-weight="400" font-size="16" transform="matrix(0.588333 0 0 0.589583 425.636 420)">0<tspan font-size="16" x="9.00002" y="0">.</tspan>01</text><path d="M283.753 51.538 281.106 51.538M283.753 41.0068 281.106 41.0068M283.753 33.5938 281.106 33.5938M283.753 27.7693 281.106 27.7693M283.753 23.0627 281.106 23.0627M283.753 19.062 281.106 19.062M283.753 15.5908 281.106 15.5908M283.753 12.5315 281.106 12.5315M283.753 9.82517 278.458 9.82517 278.464 9.82517" stroke="#000000" stroke-width="0.588333" fill="none" transform="matrix(1 0 0 1.00212 137 348)"/><text font-family="Arial,Arial_MSFontService,sans-serif" font-weight="400" font-size="16" transform="matrix(0.588333 0 0 0.589583 425.636 360)">0<tspan font-size="16" x="9.00002" y="0">.</tspan>1</text><path d="M61.8338 9.82517 61.8338 248.512 283.753 248.512 283.753 9.82517 61.8338 9.82517ZM61.8338 9.82517 61.8397 9.82517" stroke="#000000" stroke-width="0.588333" fill="none" transform="matrix(1 0 0 1.00212 137 348)"/><text font-family="Arial,Arial_MSFontService,sans-serif" font-weight="400" font-size="16" transform="matrix(-1.08075e-16 -0.589583 0.588333 -1.08305e-16 147.355 510)">energy <tspan font-size="16" x="50.8834" y="9.34713e-15">(</tspan><tspan font-size="16" x="55.9717" y="1.02818e-14">hartree</tspan><tspan font-size="16" x="105.159" y="1.93174e-14">)</tspan><tspan font-size="16" x="-66.1484" y="552.8">force </tspan><tspan font-size="16" x="-27.1378" y="552.8">(</tspan><tspan font-size="16" x="-22.0495" y="552.8">hartree</tspan><tspan font-size="16" x="25.4417" y="552.8">/</tspan><tspan font-size="16" x="30.53" y="552.8">bohr</tspan><tspan font-size="16" x="61.0601" y="552.8">)/</tspan><tspan font-size="16" x="69.5406" y="552.8">torque </tspan><tspan font-size="16" x="118.728" y="552.8">(</tspan><tspan font-size="16" x="123.816" y="552.8">hartree</tspan><tspan font-size="16" x="173.004" y="552.8">)</tspan></text><text font-family="Arial,Arial_MSFontService,sans-serif" font-weight="400" font-size="16" transform="matrix(0.588333 0 0 0.589583 282.436 626)">iteration ionic<tspan font-size="16" x="121" y="-432.509">energy</tspan></text><path d="M249.159 20.4152 273.987 20.4152M77.66 15.885 93.545 51.4792 109.371 117.843 125.256 156.673 141.082 179.383 156.967 200.504 172.794 215.801 188.62 222.096 204.505 225.037 220.331 225.096 236.216 225.802 252.042 226.273 267.927 226.685 283.753 227.155 283.759 227.155" stroke="#FF0000" stroke-width="0.588333" fill="none" transform="matrix(1 0 0 1.00212 137 348)"/><text font-family="Arial,Arial_MSFontService,sans-serif" font-weight="400" font-size="16" transform="matrix(0.588333 0 0 0.589583 287.731 382)">max<tspan font-size="16" x="29" y="0">. </tspan>translational force</text><path d="M249.159 31.0052 273.987 31.0052M77.66 97.2515 93.545 101.546 109.371 118.49 125.256 149.378 141.082 145.612 156.967 150.26 172.794 165.616 188.62 173.617 204.505 165.263 220.331 162.909 236.216 186.678 252.042 186.266 267.927 185.501 283.753 194.15 283.759 194.15" stroke="#008000" stroke-width="0.588333" fill="none" transform="matrix(1 0 0 1.00212 137 348)"/><text font-family="Arial,Arial_MSFontService,sans-serif" font-weight="400" font-size="16" transform="matrix(0.588333 0 0 0.589583 333.621 392)">max<tspan font-size="16" x="29" y="0">. </tspan>torque</text><path d="M249.159 41.5952 273.987 41.5952M77.66 59.1863 93.545 60.6572 109.371 62.5398 125.256 64.8343 141.082 69.3057 156.967 75.4243 172.794 84.1317 188.62 98.0163 204.505 111.077 220.331 108.312 236.216 110.842 252.042 115.137 267.927 121.55 283.753 131.846 283.759 131.846" stroke="#0000FF" stroke-width="0.588333" fill="none" transform="matrix(1 0 0 1.00212 137 348)"/><path d="M61.8338 9.82517 61.8338 248.512 283.753 248.512 283.753 9.82517 61.8338 9.82517ZM61.8338 9.82517 61.8397 9.82517" stroke="#000000" stroke-width="0.588333" fill="none" transform="matrix(1 0 0 1.00212 137 348)"/></g></svg>