<svg width="1326" height="1323" xmlns="http://www.w3.org/2000/svg" xmlns:xlink="http://www.w3.org/1999/xlink" overflow="hidden"><defs><clipPath id="clip0"><rect x="1537" y="576" width="1326" height="1323"/></clipPath></defs><g clip-path="url(#clip0)" transform="translate(-1537 -576)"><path d="M1541.5 581.865C1541.5 581.183 1542.19 580.5 1542.87 580.5L2119.13 580.5C2119.99 580.5 2120.5 581.183 2120.5 581.865L2120.5 792.135C2120.5 792.988 2119.99 793.5 2119.13 793.5L1542.87 793.5C1542.19 793.5 1541.5 792.988 1541.5 792.135L1541.5 581.865ZM1544.24 792.135 1542.87 790.769 2119.13 790.769 2117.76 792.135 2117.76 581.865 2119.13 583.231 1542.87 583.231 1544.24 581.865 1544.24 792.135Z" stroke="#00B050" stroke-width="0" stroke-linejoin="round" stroke-miterlimit="10" fill="#00B050" fill-rule="evenodd"/><text font-family="MS PGothic,MS PGothic_MSFontService,sans-serif" font-weight="400" font-size="50" transform="matrix(1 0 0 1 1569.22 649)">原子配置<tspan font-family="Arial,Arial_MSFontService,sans-serif" font-size="50" x="315.677" y="-4">: </tspan><tspan font-size="50" x="343.177" y="0">初期値</tspan><tspan font-size="50" x="0" y="63">電荷</tspan><tspan font-size="50" x="104.271" y="63">密度</tspan><tspan font-family="Arial,Arial_MSFontService,sans-serif" font-size="50" x="315.677" y="59">: </tspan><tspan font-size="50" x="343.177" y="63">初期値</tspan><tspan font-size="50" x="0" y="122">波動関数</tspan><tspan font-family="Arial,Arial_MSFontService,sans-serif" font-size="50" x="315.677" y="119">: </tspan><tspan font-size="50" x="343.177" y="122">初期値</tspan><tspan font-family="Times New Roman,Times New Roman_MSFontService,sans-serif" font-style="italic" font-size="28" x="265.261" y="67">in</tspan><tspan font-family="Symbol,Symbol_MSFontService,sans-serif" font-style="oblique" font-size="46" x="239.479" y="54">r</tspan><tspan font-family="Times New Roman,Times New Roman_MSFontService,sans-serif" font-style="italic" font-size="28" x="267.552" y="-4">in</tspan><tspan font-family="Times New Roman,Times New Roman_MSFontService,sans-serif" font-style="italic" font-size="46" x="236.615" y="-14">Q</tspan><tspan font-family="Times New Roman,Times New Roman_MSFontService,sans-serif" font-style="italic" font-size="28" x="270.417" y="125">in</tspan><tspan font-family="Symbol,Symbol_MSFontService,sans-serif" font-style="oblique" font-size="46" x="233.75" y="111">y</tspan></text><path d="M1577.5 1067.86C1577.5 1067.18 1578.19 1066.5 1578.87 1066.5L2081.13 1066.5C2081.99 1066.5 2082.5 1067.18 2082.5 1067.86L2082.5 1155.14C2082.5 1155.99 2081.99 1156.5 2081.13 1156.5L1578.87 1156.5C1578.19 1156.5 1577.5 1155.99 1577.5 1155.14L1577.5 1067.86ZM1580.24 1155.14 1578.87 1153.77 2081.13 1153.77 2079.76 1155.14 2079.76 1067.86 2081.13 1069.23 1578.87 1069.23 1580.24 1067.86 1580.24 1155.14Z" stroke="#FF0000" stroke-width="0" stroke-linejoin="round" stroke-miterlimit="10" fill="#FF0000" fill-rule="evenodd"/><text font-family="MS PGothic,MS PGothic_MSFontService,sans-serif" font-weight="400" font-size="50" transform="matrix(1 0 0 1 1605.89 1135)">電荷密度<tspan font-size="50" x="288.177" y="0">の作成</tspan><tspan font-family="Times New Roman,Times New Roman_MSFontService,sans-serif" font-style="italic" font-size="28" x="245.208" y="4">out</tspan><tspan font-family="Symbol,Symbol_MSFontService,sans-serif" font-style="oblique" font-size="46" x="219.427" y="-9">r</tspan></text><path d="M2173.5 1086.85C2173.5 1086.18 2174.19 1085.5 2174.87 1085.5L2674.13 1085.5C2674.99 1085.5 2675.5 1086.18 2675.5 1086.85L2675.5 1176.15C2675.5 1176.99 2674.99 1177.5 2674.13 1177.5L2174.87 1177.5C2174.19 1177.5 2173.5 1176.99 2173.5 1176.15L2173.5 1086.85ZM2176.24 1176.15 2174.87 1174.79 2674.13 1174.79 2672.76 1176.15 2672.76 1086.85 2674.13 1088.21 2174.87 1088.21 2176.24 1086.85 2176.24 1176.15Z" stroke="#FF0000" stroke-width="0" stroke-linejoin="round" stroke-miterlimit="10" fill="#FF0000" fill-rule="evenodd"/><text font-family="MS PGothic,MS PGothic_MSFontService,sans-serif" font-weight="400" font-size="50" transform="matrix(1 0 0 1 2200 1156)">電荷<tspan font-size="50" x="104.271" y="0">密度</tspan><tspan font-size="50" x="288.177" y="0">の更新</tspan><tspan font-family="Times New Roman,Times New Roman_MSFontService,sans-serif" font-style="italic" font-size="28" x="254.948" y="5">in</tspan><tspan font-family="Symbol,Symbol_MSFontService,sans-serif" font-style="oblique" font-size="46" x="229.167" y="-9">r</tspan></text><path d="M1621.5 914.863C1621.5 914.182 1622.19 913.5 1622.87 913.5L2040.13 913.5C2040.99 913.5 2041.5 914.182 2041.5 914.863L2041.5 1002.14C2041.5 1002.99 2040.99 1003.5 2040.13 1003.5L1622.87 1003.5C1622.19 1003.5 1621.5 1002.99 1621.5 1002.14L1621.5 914.863ZM1624.25 1002.14 1622.87 1000.77 2040.13 1000.77 2038.76 1002.14 2038.76 914.863 2040.13 916.227 1622.87 916.227 1624.25 914.863 1624.25 1002.14Z" stroke="#FF0000" stroke-width="0" stroke-linejoin="round" stroke-miterlimit="10" fill="#FF0000" fill-rule="evenodd"/><text font-family="MS PGothic,MS PGothic_MSFontService,sans-serif" font-weight="400" font-size="50" transform="matrix(1 0 0 1 1650 982)">波動関数の更新</text><path d="M1724 1276 1724 1330" stroke="#000000" stroke-width="2.29167" stroke-linejoin="round" stroke-miterlimit="10" fill="none" fill-rule="evenodd"/><path d="M1888 1276 1888 1330" stroke="#000000" stroke-width="2.29167" stroke-linejoin="round" stroke-miterlimit="10" fill="none" fill-rule="evenodd"/><text font-family="Symbol,Symbol_MSFontService,sans-serif" font-style="oblique" font-weight="400" font-size="46" transform="matrix(1 0 0 1 1932.45 1315)">d<tspan font-size="46" x="-111.719" y="0">r</tspan><tspan font-size="46" x="-202.813" y="0">r</tspan><tspan font-style="normal" font-size="46" x="-31.5103" y="0">&lt;</tspan><tspan font-style="normal" font-size="46" x="-144.948" y="0">-</tspan><tspan font-family="Times New Roman,Times New Roman_MSFontService,sans-serif" font-style="italic" font-size="28" x="-85.9375" y="14">out</tspan><tspan font-family="Times New Roman,Times New Roman_MSFontService,sans-serif" font-style="italic" font-size="28" x="-177.031" y="14">in</tspan></text><path d="M1589.53 1306.28C1589.01 1306.11 1588.5 1305.6 1588.5 1304.91 1588.5 1304.4 1589.01 1303.89 1589.53 1303.72L1829.66 1224.67C1830 1224.5 1830.17 1224.5 1830.51 1224.67L2070.64 1303.72C2071.16 1303.89 2071.5 1304.4 2071.5 1304.91 2071.5 1305.6 2071.16 1306.11 2070.64 1306.28L1830.51 1385.33C1830.17 1385.5 1830 1385.5 1829.66 1385.33L1589.53 1306.28ZM1830.51 1382.77 1829.66 1382.77 2069.78 1303.72 2069.78 1306.28 1829.66 1227.23 1830.51 1227.23 1590.39 1306.28 1590.39 1303.72 1830.51 1382.77Z" stroke="#FF0000" stroke-width="0" stroke-linejoin="round" stroke-miterlimit="10" fill="#FF0000" fill-rule="evenodd"/><path d="M1698.5 1463.85C1698.5 1463.17 1699.18 1462.5 1699.87 1462.5L1960.13 1462.5C1960.99 1462.5 1961.5 1463.17 1961.5 1463.85L1961.5 1550.15C1961.5 1550.99 1960.99 1551.5 1960.13 1551.5L1699.87 1551.5C1699.18 1551.5 1698.5 1550.99 1698.5 1550.15L1698.5 1463.85ZM1701.24 1550.15 1699.87 1548.8 1960.13 1548.8 1958.76 1550.15 1958.76 1463.85 1960.13 1465.2 1699.87 1465.2 1701.24 1463.85 1701.24 1550.15Z" stroke="#0070C0" stroke-width="0" stroke-linejoin="round" stroke-miterlimit="10" fill="#0070C0" fill-rule="evenodd"/><text font-family="MS PGothic,MS PGothic_MSFontService,sans-serif" font-weight="400" font-size="50" transform="matrix(1 0 0 1 1726.77 1530)">力の計算</text><path d="M1746 1680 1746 1733" stroke="#000000" stroke-width="1.71893" stroke-linejoin="round" stroke-miterlimit="10" fill="none" fill-rule="evenodd"/><path d="M1851 1680 1851 1733" stroke="#000000" stroke-width="1.71893" stroke-linejoin="round" stroke-miterlimit="10" fill="none" fill-rule="evenodd"/><text font-family="Symbol,Symbol_MSFontService,sans-serif" font-style="oblique" font-weight="400" font-size="46" transform="matrix(1 0 0 1 1894.06 1718)">d<tspan font-style="normal" font-size="46" x="-30.9375" y="0">&lt;</tspan><tspan font-family="Times New Roman,Times New Roman_MSFontService,sans-serif" font-style="italic" font-size="46" x="-135.781" y="5">force</tspan></text><path d="M1591.53 1707.28C1591.02 1707.11 1590.5 1706.6 1590.5 1705.91 1590.5 1705.4 1591.02 1704.89 1591.53 1704.72L1832.16 1625.67C1832.5 1625.5 1832.67 1625.5 1833.02 1625.67L2073.64 1704.72C2074.16 1704.89 2074.5 1705.4 2074.5 1705.91 2074.5 1706.6 2074.16 1707.11 2073.64 1707.28L1833.02 1786.33C1832.67 1786.5 1832.5 1786.5 1832.16 1786.33L1591.53 1707.28ZM1833.02 1783.77 1832.16 1783.77 2072.78 1704.72 2072.78 1707.28 1832.16 1628.23 1833.02 1628.23 1592.39 1707.28 1592.39 1704.72 1833.02 1783.77Z" stroke="#0070C0" stroke-width="0" stroke-linejoin="round" stroke-miterlimit="10" fill="#0070C0" fill-rule="evenodd"/><path d="M2359.5 1661.87C2359.5 1661.18 2360.19 1660.5 2360.87 1660.5L2861.13 1660.5C2861.98 1660.5 2862.5 1661.18 2862.5 1661.87L2862.5 1752.13C2862.5 1752.99 2861.98 1753.5 2861.13 1753.5L2360.87 1753.5C2360.19 1753.5 2359.5 1752.99 2359.5 1752.13L2359.5 1661.87ZM2362.25 1752.13 2360.87 1750.76 2861.13 1750.76 2859.75 1752.13 2859.75 1661.87 2861.13 1663.24 2360.87 1663.24 2362.25 1661.87 2362.25 1752.13Z" stroke="#FF0000" stroke-width="0" stroke-linejoin="round" stroke-miterlimit="10" fill="#FF0000" fill-rule="evenodd"/><text font-family="MS PGothic,MS PGothic_MSFontService,sans-serif" font-weight="400" font-size="50" transform="matrix(1 0 0 1 2386.77 1732)">原子配置<tspan font-size="50" x="288.177" y="0">の更新</tspan><tspan font-family="Times New Roman,Times New Roman_MSFontService,sans-serif" font-style="italic" font-size="28" x="256.667" y="5">in</tspan><tspan font-family="Times New Roman,Times New Roman_MSFontService,sans-serif" font-style="italic" font-size="46" x="226.302" y="-5">Q</tspan></text><path d="M1832.88 791.5 1833.47 895.085 1830.53 895.085 1829.94 792.076 1832.88 791.5ZM1843.5 891.632 1832.29 913.5 1820.5 891.632 1843.5 891.632Z" stroke="#000000" stroke-width="0" stroke-linejoin="round" stroke-miterlimit="10" fill-rule="evenodd"/><path d="M1833.82 1001.5 1833.24 1048.09 1830.34 1048.09 1830.92 1001.5 1833.82 1001.5ZM1842.5 1044.64 1831.5 1066.5 1820.5 1044.07 1842.5 1044.64Z" stroke="#000000" stroke-width="0" stroke-linejoin="round" stroke-miterlimit="10" fill-rule="evenodd"/><path d="M1833.82 1154.5 1833.24 1207.18 1830.34 1207.18 1830.92 1154.5 1833.82 1154.5ZM1842.5 1203.17 1831.5 1225.5 1820.5 1203.17 1842.5 1203.17Z" stroke="#000000" stroke-width="0" stroke-linejoin="round" stroke-miterlimit="10" fill-rule="evenodd"/><path d="M1833.08 1384.5 1834.24 1444.28 1831.34 1444.28 1830.18 1384.5 1833.08 1384.5ZM1843.5 1440.3 1832.5 1462.5 1821.5 1440.87 1843.5 1440.3Z" stroke="#000000" stroke-width="0" stroke-linejoin="round" stroke-miterlimit="10" fill-rule="evenodd"/><path d="M1832.5 1550.5 1833.66 1609.11 1831.34 1609.11 1829.61 1551.07 1832.5 1550.5ZM1843.5 1605.09 1833.08 1627.5 1821.5 1605.66 1843.5 1605.09Z" stroke="#000000" stroke-width="0" stroke-linejoin="round" stroke-miterlimit="10" fill-rule="evenodd"/><path d="M1835.78 1785.5 1836.91 1857.73 1834.09 1857.73 1832.96 1785.5 1835.78 1785.5ZM1846.5 1853.72 1835.78 1875.5 1824.5 1853.72 1846.5 1853.72Z" stroke="#000000" stroke-width="0" stroke-linejoin="round" stroke-miterlimit="10" fill-rule="evenodd"/><path d="M2214.5 1260.86C2214.5 1260.18 2215.19 1259.5 2215.87 1259.5L2633.13 1259.5C2633.99 1259.5 2634.5 1260.18 2634.5 1260.86L2634.5 1348.14C2634.5 1348.99 2633.99 1349.5 2633.13 1349.5L2215.87 1349.5C2215.19 1349.5 2214.5 1348.99 2214.5 1348.14L2214.5 1260.86ZM2217.25 1348.14 2215.87 1346.77 2633.13 1346.77 2631.75 1348.14 2631.75 1260.86 2633.13 1262.23 2215.87 1262.23 2217.25 1260.86 2217.25 1348.14Z" stroke="#FF0000" stroke-width="0" stroke-linejoin="round" stroke-miterlimit="10" fill="#FF0000" fill-rule="evenodd"/><text font-family="MS PGothic,MS PGothic_MSFontService,sans-serif" font-weight="400" font-size="50" transform="matrix(1 0 0 1 2242.97 1329)">電荷密度の混合</text><path d="M2069.5 1303.79 2214.73 1303.45 2214.73 1306.38 2069.5 1306.55 2069.5 1303.79ZM2193.29 1290.85 2217.5 1304.83 2193.29 1318.98C2192.6 1319.5 2191.74 1319.15 2191.39 1318.64 2191.05 1317.95 2191.22 1317.08 2191.91 1316.74L2214.04 1303.79 2214.04 1306.04 2191.91 1293.26C2191.22 1292.92 2190.87 1292.05 2191.39 1291.36 2191.74 1290.67 2192.6 1290.5 2193.29 1290.85Z" stroke="#000000" stroke-width="0" stroke-linejoin="round" stroke-miterlimit="10" fill-rule="evenodd"/><path d="M2422.76 1260.5 2422.76 1194.79 2425.66 1194.79 2425.66 1260.5 2422.76 1260.5ZM2413.5 1198.21 2424.5 1176.5 2435.5 1198.21 2413.5 1198.21Z" stroke="#000000" stroke-width="0" stroke-linejoin="round" stroke-miterlimit="10" fill-rule="evenodd"/><path d="M2423.75 1087.5 2423.75 868.388 2425.13 869.749 1849.86 869.749 1849.86 867.027 2425.13 867.027C2425.81 867.027 2426.5 867.707 2426.5 868.388L2426.5 1087.5 2423.75 1087.5ZM1853.64 879.445 1831.5 868.388 1853.64 857.5 1853.64 879.445Z" stroke="#000000" stroke-width="0" stroke-linejoin="round" stroke-miterlimit="10" fill-rule="evenodd"/><path d="M2073.07 1704.03 2342.18 1705.76 2342.18 1708.66 2072.5 1706.92 2073.07 1704.03ZM2338.17 1696.5 2360.5 1707.5 2338.17 1718.5 2338.17 1696.5Z" stroke="#000000" stroke-width="0" stroke-linejoin="round" stroke-miterlimit="10" fill-rule="evenodd"/><path d="M2719.75 1663.5 2719.75 827.411 2721.13 828.775 1846.86 828.775 1846.86 826.047 2721.13 826.047C2721.99 826.047 2722.5 826.729 2722.5 827.411L2722.5 1663.5 2719.75 1663.5ZM1850.63 838.493 1828.5 827.411 1850.63 816.5 1850.63 838.493Z" stroke="#000000" stroke-width="0" stroke-linejoin="round" stroke-miterlimit="10" fill-rule="evenodd"/><text font-family="Arial,Arial_MSFontService,sans-serif" font-weight="400" font-size="50" transform="matrix(1 0 0 1 1871.15 1437)">Yes<tspan font-size="50" x="181.042" y="-161">No</tspan><tspan font-size="50" x="170.156" y="229">No</tspan><tspan font-size="50" x="13.75" y="404">Yes</tspan></text></g></svg>