<svg id="レイヤー_2" data-name="レイヤー 2" xmlns="http://www.w3.org/2000/svg" viewBox="0 0 316.85 201.56"><defs><style>.cls-1,.cls-10,.cls-2,.cls-3,.cls-4,.cls-9{fill:none;stroke-miterlimit:3.8;}.cls-1,.cls-4{stroke:#000;}.cls-1,.cls-2,.cls-3,.cls-4{stroke-linecap:square;}.cls-1{stroke-width:0.25px;}.cls-10,.cls-2,.cls-3,.cls-9{stroke:#727171;stroke-width:0.75px;}.cls-3{stroke-dasharray:2.97 2.97;}.cls-5,.cls-7{font-size:12px;}.cls-5,.cls-7,.cls-8{fill:#231815;}.cls-5{font-family:SymbolMT, Symbol;}.cls-6,.cls-7{font-family:ArialMT, Arial;}.cls-10{stroke-dasharray:3.04 3.04;}.cls-11{fill:#727171;}.cls-12{font-size:9px;}</style></defs><path class="cls-1" d="M216.53,334.48h3.7m312.9,0h-3.7" transform="translate(-216.41 -147.21)"/><path class="cls-1" d="M216.53,147.34h3.7m312.9,0h-3.7" transform="translate(-216.41 -147.21)"/><path class="cls-1" d="M216.53,334.48v-3.7m0-183.44V151" transform="translate(-216.41 -147.21)"/><path class="cls-1" d="M374.83,334.48v-3.7m0-183.44V151" transform="translate(-216.41 -147.21)"/><path class="cls-1" d="M533.13,334.48v-3.7m0-183.44V151" transform="translate(-216.41 -147.21)"/><rect class="cls-1" x="0.13" y="0.13" width="316.6" height="187.15"/><line class="cls-2" x1="158.43" y1="187.27" x2="158.43" y2="185.77"/><line class="cls-3" x1="158.43" y1="182.8" x2="158.43" y2="17.78"/><line class="cls-2" x1="158.43" y1="16.29" x2="158.43" y2="14.79"/><line class="cls-2" x1="190.07" y1="187.27" x2="190.07" y2="185.77"/><line class="cls-3" x1="190.07" y1="182.8" x2="190.07" y2="17.78"/><line class="cls-2" x1="190.07" y1="16.29" x2="190.07" y2="14.79"/><line class="cls-2" x1="221.59" y1="187.27" x2="221.59" y2="185.77"/><line class="cls-3" x1="221.59" y1="182.8" x2="221.59" y2="17.78"/><line class="cls-2" x1="221.59" y1="16.29" x2="221.59" y2="14.79"/><line class="cls-2" x1="94.59" y1="187.27" x2="94.59" y2="185.77"/><line class="cls-3" x1="94.59" y1="182.8" x2="94.59" y2="17.78"/><line class="cls-2" x1="94.59" y1="16.29" x2="94.59" y2="14.79"/><line class="cls-2" x1="126.77" y1="187.27" x2="126.77" y2="185.77"/><line class="cls-3" x1="126.77" y1="182.8" x2="126.77" y2="17.78"/><line class="cls-2" x1="126.77" y1="16.29" x2="126.77" y2="14.79"/><polyline class="cls-4" points="128.02 103.13 131.22 88.82 134.43 76.07 137.63 64.93 140.82 55.38 144.02 47.43 147.22 41.07 150.43 36.27 153.63 33.13 156.82 31.52 160.02 31.52 163.22 33.13 166.43 36.27 169.63 41.07 172.82 47.43 176.02 55.38 179.22 64.93 182.43 76.07 185.63 88.82 188.82 103.13"/><polyline class="cls-4" points="188.82 102.88 192.02 118.48 195.22 132.48 198.38 144.88 201.57 155.68 204.77 164.93 207.97 172.57 211.18 178.63 214.38 183.07 217.57 185.93 220.77 187.23"/><polyline class="cls-4" points="96.07 187.23 99.27 185.93 102.47 183.07 105.68 178.63 108.88 172.57 112.07 164.93 115.27 155.68 118.47 144.88 121.63 132.48 124.82 118.48 128.02 102.88"/><rect class="cls-1" x="0.13" y="0.13" width="316.6" height="187.15"/><text class="cls-5" transform="translate(155.63 197.92)">e</text><text class="cls-5" transform="translate(167.63 22.79)">4<tspan class="cls-6" x="6" y="-0.26">w</tspan></text><text class="cls-7" transform="translate(165.63 105.66)">2w</text><text class="cls-7" transform="translate(169.63 163.66)">w</text><text class="cls-5" transform="translate(213.63 197.79)">e<tspan class="cls-6" x="5.27" y="-0.26">+2w</tspan></text><text class="cls-5" transform="translate(84.63 197.79)">e<tspan class="cls-6" x="5.27" y="-0.26">-2w</tspan></text><line class="cls-8" x1="62.09" y1="31.29" x2="177.59" y2="31.29"/><line class="cls-9" x1="62.09" y1="31.29" x2="63.59" y2="31.29"/><line class="cls-10" x1="66.63" y1="31.29" x2="174.57" y2="31.29"/><line class="cls-9" x1="176.09" y1="31.29" x2="177.59" y2="31.29"/><line class="cls-9" x1="95.21" y1="24.29" x2="220.98" y2="24.29"/><polygon class="cls-11" points="97.1 26.62 97.49 26.2 95.43 24.29 97.49 22.38 97.1 21.96 94.59 24.29 97.1 26.62"/><polygon class="cls-11" points="219.12 26.59 218.74 26.18 220.77 24.29 218.74 22.4 219.12 21.99 221.59 24.29 219.12 26.59"/><line class="cls-9" x1="79.09" y1="186.67" x2="79.09" y2="32.4"/><polygon class="cls-11" points="81.42 184.78 81.01 184.39 79.09 186.45 77.18 184.39 76.76 184.78 79.09 187.29 81.42 184.78"/><polygon class="cls-11" points="81.39 34.26 80.98 34.65 79.09 32.62 77.21 34.65 76.79 34.26 79.09 31.79 81.39 34.26"/><line class="cls-9" x1="126.96" y1="108.29" x2="189.23" y2="108.29"/><polygon class="cls-11" points="128.85 110.62 129.24 110.2 127.18 108.29 129.24 106.38 128.85 105.96 126.34 108.29 128.85 110.62"/><polygon class="cls-11" points="187.37 110.59 186.99 110.18 189.02 108.29 186.99 106.4 187.37 105.99 189.84 108.29 187.37 110.59"/><line class="cls-9" x1="158.84" y1="166.29" x2="189.36" y2="166.29"/><polygon class="cls-11" points="160.72 168.62 161.11 168.2 159.06 166.29 161.11 164.38 160.72 163.96 158.22 166.29 160.72 168.62"/><polygon class="cls-11" points="187.5 168.59 187.11 168.18 189.14 166.29 187.11 164.4 187.5 163.99 189.97 166.29 187.5 168.59"/><text class="cls-7" transform="translate(42.59 109.09)">(2w)<tspan class="cls-12" x="23.33" y="-4.07">-1</tspan></text></svg>