<svg width="3416" height="1460" xmlns="http://www.w3.org/2000/svg" xmlns:xlink="http://www.w3.org/1999/xlink" overflow="hidden"><defs><clipPath id="clip0"><rect x="505" y="535" width="3416" height="1460"/></clipPath></defs><g clip-path="url(#clip0)" transform="translate(-505 -535)"><path d="M508 537 1374 537 1374 749.626 1343.64 780 508 780Z" fill="#FFFFCC" fill-rule="evenodd"/><path d="M1344 780 1350.23 755.434 1374 749Z" fill="#CDCDA4" fill-rule="evenodd"/><path d="M1341.72 779.927 1347.74 755.627C1348.03 754.77 1348.6 754.198 1349.46 753.912L1373.81 747.909C1374.67 747.623 1375.81 747.909 1376.1 749.052 1376.67 749.91 1376.67 751.054 1375.81 751.625L1345.45 781.928C1345.16 782.5 1344.59 782.5 1343.73 782.5L507.792 782.5C506.646 782.5 505.5 781.643 505.5 780.213L505.5 537.787C505.5 536.644 506.646 535.5 507.792 535.5L1374.1 535.5C1375.53 535.5 1376.39 536.644 1376.39 537.787L1376.39 749.91 1371.8 749.91 1371.8 537.787 1374.1 540.074 507.792 540.074 510.084 537.787 510.084 780.213 507.792 777.926 1343.73 777.926 1342.3 778.784 1372.66 748.48 1374.67 752.197 1350.6 758.201 1352.04 756.771 1346.02 780.785Z" stroke="#000000" stroke-width="0.286549" stroke-linejoin="round" stroke-miterlimit="10" fill-rule="evenodd"/><text font-family="MS PGothic,MS PGothic_MSFontService,sans-serif" font-weight="700" font-size="72" transform="matrix(1 0 0 1 563.096 641)">入力パラメータ・ファイル<tspan font-size="72" x="-4.58441" y="87">擬ポテンシャル・ファイル</tspan></text><path d="M1383 665 1383 890 1805 890 1805 665 1383 665Z" fill="#CCFFFF" fill-rule="evenodd"/><path d="M1381.5 663.5 1807.5 663.5 1807.5 892.5 1381.5 892.5 1381.5 663.5ZM1386.08 890.209 1383.79 887.922 1805.21 887.922 1802.92 890.209 1802.92 665.79 1805.21 668.08 1383.79 668.08 1386.08 665.79 1386.08 890.209Z" stroke="#000000" stroke-width="0.286549" stroke-linejoin="round" stroke-miterlimit="10" fill-rule="evenodd"/><text font-family="MS PGothic,MS PGothic_MSFontService,sans-serif" font-weight="700" font-size="72" transform="matrix(1 0 0 1 1424.5 771)">プログラム<tspan font-family="Arial,Arial_MSFontService,sans-serif" font-size="72" x="64.1815" y="80">phase</tspan></text><path d="M1090 1160 1090 1385 1512 1385 1512 1160 1090 1160Z" fill="#CCFFFF" fill-rule="evenodd"/><path d="M1088.5 1158.5 1514.5 1158.5 1514.5 1387.5 1088.5 1387.5 1088.5 1158.5ZM1093.08 1385.21 1090.79 1382.92 1512.21 1382.92 1509.92 1385.21 1509.92 1160.79 1512.21 1163.08 1090.79 1163.08 1093.08 1160.79 1093.08 1385.21Z" stroke="#000000" stroke-width="0.286549" stroke-linejoin="round" stroke-miterlimit="10" fill-rule="evenodd"/><text font-family="MS PGothic,MS PGothic_MSFontService,sans-serif" font-weight="700" font-size="72" transform="matrix(1 0 0 1 1128.04 1267)">プログラム<tspan font-family="Arial,Arial_MSFontService,sans-serif" font-size="72" x="77.9351" y="80">ekcal</tspan></text><path d="M3029 972 3029 1284 3451 1284 3451 972 3029 972Z" fill="#CCFFFF" fill-rule="evenodd"/><path d="M3027.5 970.5 3453.5 970.5 3453.5 1286.5 3027.5 1286.5 3027.5 970.5ZM3032.08 1284.21 3029.79 1281.92 3451.21 1281.92 3448.92 1284.21 3448.92 972.79 3451.21 975.081 3029.79 975.081 3032.08 972.79 3032.08 1284.21Z" stroke="#000000" stroke-width="0.286549" stroke-linejoin="round" stroke-miterlimit="10" fill-rule="evenodd"/><text font-family="MS PGothic,MS PGothic_MSFontService,sans-serif" font-weight="700" font-size="72" transform="matrix(1 0 0 1 3069.68 1080)">プログラム<tspan font-family="Arial,Arial_MSFontService,sans-serif" font-size="72" x="22.9211" y="80">e</tspan><tspan font-family="Arial,Arial_MSFontService,sans-serif" font-size="72" x="64.1814" y="80">psmain</tspan><tspan font-family="Arial,Arial_MSFontService,sans-serif" font-size="72" x="27.5034" y="167">tdlrmain</tspan></text><path d="M1709 1059 1709 1284 2323 1284 2323 1059 1709 1059Z" fill="#FFCCFF" fill-rule="evenodd"/><path d="M1706.5 1057.5 2325.5 1057.5 2325.5 1286.5 1706.5 1286.5 1706.5 1057.5ZM1711.08 1284.21 1708.79 1281.92 2323.21 1281.92 2320.91 1284.21 2320.91 1059.79 2323.21 1062.08 1708.79 1062.08 1711.08 1059.79 1711.08 1284.21Z" stroke="#000000" stroke-width="0.286549" stroke-linejoin="round" stroke-miterlimit="10" fill-rule="evenodd"/><text font-family="MS PGothic,MS PGothic_MSFontService,sans-serif" font-weight="700" font-size="72" transform="matrix(1 0 0 1 1903.49 1167)">ツール<tspan font-family="Arial,Arial_MSFontService,sans-serif" font-size="72" x="-151.285" y="80">band_kpoint.pl</tspan></text><path d="M1594 1637 1594 1862 1947 1862 1947 1637 1594 1637Z" fill="#FFCCFF" fill-rule="evenodd"/><path d="M1592.5 1635.5 1949.5 1635.5 1949.5 1864.5 1592.5 1864.5 1592.5 1635.5ZM1597.07 1862.21 1594.79 1859.92 1947.21 1859.92 1944.93 1862.21 1944.93 1637.79 1947.21 1640.08 1594.79 1640.08 1597.07 1637.79 1597.07 1862.21Z" stroke="#000000" stroke-width="0.286549" stroke-linejoin="round" stroke-miterlimit="10" fill-rule="evenodd"/><text font-family="MS PGothic,MS PGothic_MSFontService,sans-serif" font-weight="700" font-size="72" transform="matrix(1 0 0 1 1659.76 1745)">ツール<tspan font-family="Arial,Arial_MSFontService,sans-serif" font-size="72" x="-22.921" y="79">band.pl</tspan></text><path d="M916 1637 916 1862 1227 1862 1227 1637 916 1637Z" fill="#FFCCFF" fill-rule="evenodd"/><path d="M913.5 1635.5 1230.5 1635.5 1230.5 1864.5 913.5 1864.5 913.5 1635.5ZM918.095 1862.21 915.797 1859.92 1228.2 1859.92 1225.91 1862.21 1225.91 1637.79 1228.2 1640.08 915.797 1640.08 918.095 1637.79 918.095 1862.21Z" stroke="#000000" stroke-width="0.286549" stroke-linejoin="round" stroke-miterlimit="10" fill-rule="evenodd"/><text font-family="MS PGothic,MS PGothic_MSFontService,sans-serif" font-weight="700" font-size="72" transform="matrix(1 0 0 1 961.462 1745)">ツール<tspan font-family="Arial,Arial_MSFontService,sans-serif" font-size="72" x="0" y="80">dos.pl</tspan><tspan font-size="58" x="901.292" y="-1072">電子状態計算</tspan><tspan font-size="58" x="901.292" y="-998">分子動力学法計算</tspan><tspan font-size="58" x="901.292" y="-925">状態密度計算</tspan><tspan font-size="58" x="901.292" y="-851">バンド構造計算</tspan><tspan font-size="58" x="568.16" y="-297">状態密度計算</tspan><tspan font-size="58" x="568.16" y="-223">バンド構造計算</tspan><tspan font-size="58" x="2554.88" y="-627">誘電応答計算</tspan><tspan font-size="58" x="1265.75" y="-365">バンド構造計算用の</tspan><tspan font-family="Arial,Arial_MSFontService,sans-serif" font-size="58" x="1265.75" y="-294">K</tspan><tspan font-size="58" x="1307.01" y="-291">点生成ツール</tspan></text><path d="M1601.5 894.971 1588.03 907.295 1575.41 893.826 1589.17 881.5 1601.5 894.971ZM1574.27 919.618 1560.79 932.23 1548.47 918.473 1561.94 906.15 1574.27 919.618ZM1547.32 944.553 1533.85 956.876 1521.24 943.408 1535 931.081 1547.32 944.553ZM1520.09 969.199 1506.62 981.522 1494.29 968.054 1507.76 955.731 1520.09 969.199ZM1493.14 994.134 1479.67 1006.46 1467.34 992.989 1480.82 980.377 1493.14 994.134ZM1466.2 1018.78 1452.44 1031.1 1440.11 1017.64 1453.58 1005.31 1466.2 1018.78ZM1438.96 1043.43 1425.49 1056.04 1413.16 1042.28 1426.64 1029.96 1438.96 1043.43ZM1412.02 1068.36 1398.26 1080.69 1385.93 1067.22 1399.41 1054.89 1412.02 1068.36ZM1384.79 1093.01 1371.31 1105.62 1358.98 1091.86 1372.46 1079.54 1384.79 1093.01ZM1357.84 1117.94 1344.36 1130.27 1331.75 1116.8 1345.51 1104.19 1357.84 1117.94ZM1357.84 1142.59 1298.5 1159.5 1320.57 1102.18 1357.84 1142.59Z" stroke="#000000" stroke-width="0.286549" stroke-linejoin="round" stroke-miterlimit="10" fill-rule="evenodd"/><path d="M1593.65 879.5 1611.7 882.363 1608.55 900.7 1590.5 897.548 1593.65 879.5ZM1629.75 885.515 1647.8 888.667 1644.94 906.714 1626.6 903.563 1629.75 885.515ZM1665.85 891.53 1683.9 894.681 1681.04 912.729 1662.99 909.581 1665.85 891.53ZM1701.95 897.548 1720.29 900.7 1717.14 918.747 1699.09 915.596 1701.95 897.548ZM1738.34 903.563 1756.39 906.714 1753.24 924.762 1735.19 921.61 1738.34 903.563ZM1774.44 909.581 1792.49 912.729 1789.63 930.78 1771.29 927.914 1774.44 909.581ZM1810.54 915.881 1828.59 918.747 1825.73 936.795 1807.68 933.932 1810.54 915.881ZM1846.64 921.899 1864.98 924.762 1861.83 942.81 1843.78 939.947 1846.64 921.899ZM1883.03 927.914 1901.08 930.78 1897.93 948.828 1879.88 945.961 1883.03 927.914ZM1919.13 933.932 1937.18 936.795 1934.32 955.131 1915.98 951.98 1919.13 933.932ZM1955.23 939.947 1973.28 943.099 1970.41 961.146 1952.37 957.994 1955.23 939.947ZM1991.33 945.961 2009.67 949.113 2006.52 967.161 1988.46 964.012 1991.33 945.961ZM2027.72 951.98 2045.77 955.131 2042.62 973.179 2024.57 970.027 2027.72 951.98ZM2063.82 957.994 2081.87 961.146 2079 979.194 2060.67 976.042 2063.82 957.994ZM2099.92 964.012 2117.97 967.161 2115.1 985.212 2097.05 982.346 2099.92 964.012ZM2136.02 970.313 2154.35 973.179 2151.21 991.227 2133.15 988.364 2136.02 970.313ZM2172.41 976.331 2190.46 979.194 2187.31 997.241 2169.26 994.379 2172.41 976.331ZM2208.51 982.346 2226.56 985.212 2223.4 1003.26 2205.36 1000.39 2208.51 982.346ZM2244.61 988.364 2262.66 991.227 2259.79 1009.56 2241.74 1006.41 2244.61 988.364ZM2280.71 994.379 2299.04 997.53 2295.89 1015.58 2277.84 1012.43 2280.71 994.379ZM2317.1 1000.39 2335.15 1003.54 2331.99 1021.59 2313.94 1018.44 2317.1 1000.39ZM2353.2 1006.41 2371.25 1009.56 2368.09 1027.61 2350.04 1024.46 2353.2 1006.41ZM2389.3 1012.43 2407.35 1015.58 2404.48 1033.63 2386.43 1030.47 2389.3 1012.43ZM2425.4 1018.44 2443.73 1021.59 2440.58 1039.64 2422.53 1036.78 2425.4 1018.44ZM2461.79 1024.74 2479.84 1027.61 2476.68 1045.66 2458.63 1042.79 2461.79 1024.74ZM2497.89 1030.76 2515.93 1033.63 2512.78 1051.67 2494.73 1048.81 2497.89 1030.76ZM2533.98 1036.78 2552.04 1039.64 2549.17 1057.98 2531.12 1054.82 2533.98 1036.78ZM2570.09 1042.79 2588.42 1045.66 2585.27 1063.99 2567.22 1060.84 2570.09 1042.79ZM2606.47 1048.81 2624.52 1051.96 2621.37 1070.01 2603.32 1066.86 2606.47 1048.81ZM2642.57 1054.82 2660.62 1057.98 2657.47 1076.02 2639.42 1072.87 2642.57 1054.82ZM2678.67 1060.84 2696.73 1063.99 2693.86 1082.04 2675.81 1078.89 2678.67 1060.84ZM2714.78 1066.86 2733.11 1070.01 2729.96 1088.06 2711.91 1085.19 2714.78 1066.86ZM2751.16 1073.16 2769.21 1076.02 2766.06 1094.08 2748.01 1091.21 2751.16 1073.16ZM2787.26 1079.18 2805.31 1082.04 2802.16 1100.09 2784.11 1097.22 2787.26 1079.18ZM2823.36 1085.19 2841.41 1088.06 2838.55 1106.1 2820.5 1103.24 2823.36 1085.19ZM2859.46 1091.21 2877.8 1094.08 2874.65 1112.41 2856.6 1109.26 2859.46 1091.21ZM2895.85 1097.22 2913.9 1100.38 2910.75 1118.43 2892.7 1115.27 2895.85 1097.22ZM2931.95 1103.24 2950 1106.39 2946.85 1124.44 2928.8 1121.29 2931.95 1103.24ZM2968.05 1109.26 2982.66 1111.83 2979.8 1129.89 2965.19 1127.3 2968.05 1109.26ZM2976.65 1092.07 3026.5 1128.45 2967.77 1146.5 2976.65 1092.07Z" stroke="#000000" stroke-width="0.286549" stroke-linejoin="round" stroke-miterlimit="10" fill-rule="evenodd"/><path d="M856 917 1493 917 1493 1073.63 1470.66 1096 856 1096Z" fill="#FFFFCC" fill-rule="evenodd"/><path d="M1471 1096 1475.51 1078.51 1493 1074Z" fill="#CDCDA4" fill-rule="evenodd"/><path d="M1469.73 1095.93 1474.04 1077.91C1474.32 1077.05 1474.9 1076.48 1475.75 1076.2L1493.81 1071.91C1494.67 1071.62 1495.81 1071.91 1496.1 1073.05 1496.67 1073.91 1496.67 1075.05 1495.81 1075.63L1473.46 1097.93C1473.18 1098.5 1472.6 1098.5 1471.74 1098.5L856.793 1098.5C855.645 1098.5 854.5 1097.64 854.5 1096.21L854.5 917.788C854.5 916.646 855.645 915.5 856.793 915.5L1494.09 915.5C1495.53 915.5 1496.39 916.646 1496.39 917.788L1496.39 1073.91 1491.8 1073.91 1491.8 917.788 1494.09 920.076 856.793 920.076 859.086 917.788 859.086 1096.21 856.793 1093.92 1471.74 1093.92 1470.31 1094.78 1492.66 1072.48 1494.67 1076.2 1476.9 1080.77 1478.62 1079.06 1474.04 1096.79Z" stroke="#000000" stroke-width="0.286549" stroke-linejoin="round" stroke-miterlimit="10" fill-rule="evenodd"/><text font-family="MS PGothic,MS PGothic_MSFontService,sans-serif" font-weight="700" font-size="72" transform="matrix(1 0 0 1 898.823 1037)">電荷密度ファイル<tspan font-size="58" x="174.653" y="912">状態密度グラフ作成</tspan><tspan font-size="58" x="880.646" y="905">バンド構造グラフ作成</tspan></text><path d="M1708.5 1180.79 1692.4 1189.07 1683.77 1172.79 1700.16 1164.5 1708.5 1180.79ZM1676 1197.64 1659.61 1205.93 1650.99 1189.64 1667.38 1181.36 1676 1197.64ZM1643.22 1214.22 1626.83 1222.79 1618.49 1206.5 1634.88 1197.93 1643.22 1214.22ZM1610.44 1231.07 1594.05 1239.36 1585.71 1223.07 1602.1 1214.79 1610.44 1231.07ZM1577.66 1247.93 1561.55 1256.21 1552.92 1239.93 1569.31 1231.64 1577.66 1247.93ZM1571.33 1271.64 1509.5 1272.5 1546.02 1222.79 1571.33 1271.64Z" stroke="#000000" stroke-width="0.286549" stroke-linejoin="round" stroke-miterlimit="10" fill-rule="evenodd"/><path d="M1303.5 1389.83 1291.46 1403.3 1277.69 1391.26 1290.02 1377.5 1303.5 1389.83ZM1279.12 1417.06 1266.79 1430.82 1253.32 1418.49 1265.36 1405.02 1279.12 1417.06ZM1254.75 1444.58 1242.42 1458.05 1228.65 1446.01 1240.99 1432.25 1254.75 1444.58ZM1230.09 1471.81 1218.04 1485.57 1204.28 1473.24 1216.61 1459.48 1230.09 1471.81ZM1205.71 1499.04 1193.38 1512.8 1179.91 1500.48 1191.95 1487 1205.71 1499.04ZM1181.34 1526.56 1169.01 1540.04 1155.24 1528 1167.57 1514.24 1181.34 1526.56ZM1156.68 1553.8 1144.63 1567.56 1130.87 1555.23 1143.2 1541.76 1156.68 1553.8ZM1132.3 1581.32 1119.97 1594.79 1106.49 1582.75 1118.54 1568.99 1132.3 1581.32ZM1107.93 1608.55 1107.07 1609.41 1093.3 1597.08 1094.16 1596.22 1107.93 1608.55ZM1126.85 1614.85 1069.5 1637.5 1085.85 1578.16 1126.85 1614.85Z" stroke="#000000" stroke-width="0.286549" stroke-linejoin="round" stroke-miterlimit="10" fill-rule="evenodd"/><path d="M1303.38 1375.5 1319.43 1384.38 1310.83 1400.42 1294.5 1391.83 1303.38 1375.5ZM1335.48 1392.97 1351.81 1401.57 1343.21 1417.61 1326.88 1409.02 1335.48 1392.97ZM1367.86 1410.16 1384.2 1419.05 1375.31 1435.09 1359.26 1426.49 1367.86 1410.16ZM1400.25 1427.64 1416.29 1436.24 1407.7 1452.28 1391.65 1443.68 1400.25 1427.64ZM1432.63 1444.83 1448.68 1453.71 1440.08 1469.76 1424.03 1461.16 1432.63 1444.83ZM1465.01 1462.31 1481.06 1470.9 1472.46 1486.95 1456.13 1478.35 1465.01 1462.31ZM1497.11 1479.5 1513.44 1488.38 1504.56 1504.42 1488.51 1495.83 1497.11 1479.5ZM1529.49 1496.97 1545.83 1505.57 1536.94 1521.61 1520.89 1513.02 1529.49 1496.97ZM1561.87 1514.16 1577.92 1523.05 1569.32 1539.09 1553.28 1530.49 1561.87 1514.16ZM1594.26 1531.64 1610.3 1540.23 1601.71 1556.56 1585.37 1547.68 1594.26 1531.64ZM1626.64 1548.83 1642.69 1557.71 1634.09 1573.75 1617.76 1565.16 1626.64 1548.83ZM1658.73 1566.31 1675.07 1574.9 1666.19 1591.23 1650.14 1582.35 1658.73 1566.31ZM1691.12 1583.5 1707.45 1592.38 1698.57 1608.42 1682.52 1599.83 1691.12 1583.5ZM1723.5 1600.97 1734.39 1606.7 1725.79 1623.03 1714.91 1617.02 1723.5 1600.97ZM1734.96 1586.36 1770.5 1636.5 1708.89 1634.78 1734.96 1586.36Z" stroke="#000000" stroke-width="0.286549" stroke-linejoin="round" stroke-miterlimit="10" fill-rule="evenodd"/><path d="M2337 849 2979 849 2979 1009.13 2956.07 1032 2337 1032Z" fill="#FFFFCC" fill-rule="evenodd"/><path d="M2956 1032 2960.6 1013.6 2979 1009Z" fill="#CDCDA4" fill-rule="evenodd"/><path d="M2954.15 1031.92 2958.73 1013.58C2958.73 1012.72 2959.59 1011.86 2960.45 1011.86L2978.81 1007.27C2979.67 1006.99 2980.81 1007.27 2981.1 1008.42 2981.67 1009.28 2981.67 1010.43 2980.81 1011L2957.87 1033.93C2957.59 1034.5 2957.01 1034.5 2956.15 1034.5L2336.79 1034.5C2335.65 1034.5 2334.5 1033.64 2334.5 1032.21L2334.5 848.793C2334.5 847.647 2335.65 846.5 2336.79 846.5L2979.09 846.5C2980.53 846.5 2981.39 847.647 2981.39 848.793L2981.39 1009.28 2976.8 1009.28 2976.8 848.793 2979.09 851.086 2336.79 851.086 2339.09 848.793 2339.09 1032.21 2336.79 1029.91 2956.15 1029.91 2954.72 1030.77 2977.66 1007.85 2979.67 1011.57 2961.31 1016.16 2963.04 1014.44 2958.45 1032.78Z" stroke="#000000" stroke-width="0.286549" stroke-linejoin="round" stroke-miterlimit="10" fill-rule="evenodd"/><text font-family="MS PGothic,MS PGothic_MSFontService,sans-serif" font-weight="700" font-size="72" transform="matrix(1 0 0 1 2382.33 969)">電荷密度ファイル</text></g></svg>