<svg width="1911" height="1067" xmlns="http://www.w3.org/2000/svg" xmlns:xlink="http://www.w3.org/1999/xlink" xml:space="preserve" overflow="hidden"><g transform="translate(-546 -332)"><rect x="548.5" y="334.5" width="1193" height="203" stroke="#000000" stroke-width="4.58333" stroke-miterlimit="8" fill="#FFFFCC"/><text fill="#FF0000" font-family="MS Gothic,MS Gothic_MSFontService,sans-serif" font-weight="700" font-size="46" transform="matrix(1 0 0 1 961.27 394)">入力データの準備</text><text font-family="MS Gothic,MS Gothic_MSFontService,sans-serif" font-weight="700" font-size="46" transform="matrix(1 0 0 1 732.103 449)">入力パラメーターファイルの作成・編集</text><text font-family="MS Gothic,MS Gothic_MSFontService,sans-serif" font-weight="700" font-size="46" transform="matrix(1 0 0 1 823.77 504)">擬ポテンシャルファイルの用意</text><rect x="548.5" y="654.5" width="1193" height="99" stroke="#000000" stroke-width="4.58333" stroke-miterlimit="8" fill="#FFFFCC"/><text fill="#FF0000" font-family="MS Gothic,MS Gothic_MSFontService,sans-serif" font-weight="700" font-size="46" transform="matrix(1 0 0 1 1030.02 714)">計算の実行</text><rect x="548.5" y="872.5" width="1193" height="149" stroke="#000000" stroke-width="4.58333" stroke-miterlimit="8" fill="#FFFFCC"/><text fill="#FF0000" font-family="MS Gothic,MS Gothic_MSFontService,sans-serif" font-weight="700" font-size="46" transform="matrix(1 0 0 1 984.075 932)">計算結果の確認</text><text font-family="MS Gothic,MS Gothic_MSFontService,sans-serif" font-weight="700" font-size="46" transform="matrix(1 0 0 1 892.408 987)">SCF </text><text font-family="MS Gothic,MS Gothic_MSFontService,sans-serif" font-weight="700" font-size="46" transform="matrix(1 0 0 1 984.075 987)">計算の収束状況など</text><rect x="548.5" y="1146.5" width="1193" height="148" stroke="#000000" stroke-width="4.58333" stroke-miterlimit="8" fill="#FFFFCC"/><text fill="#FF0000" font-family="MS Gothic,MS Gothic_MSFontService,sans-serif" font-weight="700" font-size="46" transform="matrix(1 0 0 1 938.241 1207)">結果の解析、可視化</text><text font-family="MS Gothic,MS Gothic_MSFontService,sans-serif" font-weight="700" font-size="46" transform="matrix(1 0 0 1 869.491 1262)">各種物理量の計算、可視化</text><path d="M1163.08 536.5 1163.08 630.168 1153.92 630.168 1153.92 536.5ZM1172.25 625.585 1158.5 653.085 1144.75 625.585Z"/><path d="M1163.08 753.5 1163.08 847.168 1153.92 847.168 1153.92 753.5ZM1172.25 842.584 1158.5 870.084 1144.75 842.585Z"/><path d="M1163.08 1021.5 1163.08 1115.17 1153.92 1115.17 1153.92 1021.5ZM1172.25 1110.58 1158.5 1138.08 1144.75 1110.58Z"/><path d="M0-4.58333 9.16667-4.58333 9.16667 4.58333 0 4.58333ZM18.3333-4.58333 27.5-4.58333 27.5 4.58333 18.3333 4.58333ZM36.6667-4.58333 45.8333-4.58333 45.8333 4.58333 36.6667 4.58333ZM55-4.58333 64.1667-4.58333 64.1667 4.58333 55 4.58333ZM73.3333-4.58333 82.5-4.58333 82.5 4.58333 73.3333 4.58333ZM87.0837 9.16631 87.0837 18.333 77.917 18.333 77.917 9.16631ZM87.0837 27.4996 87.0837 36.6663 77.917 36.6663 77.917 27.4996ZM87.0837 45.833 87.0837 54.9996 77.917 54.9996 77.917 45.833ZM87.0837 64.1663 87.0837 73.333 77.917 73.333 77.917 64.1663ZM87.0837 82.4996 87.0837 91.6663 77.917 91.6663 77.917 82.4996ZM87.0837 100.833 87.0837 110 77.917 110 77.917 100.833ZM87.0837 119.166 87.0837 128.333 77.917 128.333 77.917 119.166ZM87.0837 137.5 87.0837 146.666 77.917 146.666 77.917 137.5ZM87.0837 155.833 87.0837 165 77.917 165 77.917 155.833ZM87.0837 174.166 87.0837 183.333 77.917 183.333 77.917 174.166ZM87.0837 192.5 87.0837 201.666 77.917 201.666 77.917 192.5ZM87.0837 210.833 87.0837 220 77.917 220 77.917 210.833ZM87.0837 229.166 87.0837 238.333 77.917 238.333 77.917 229.166ZM87.0837 247.5 87.0837 256.666 77.917 256.666 77.917 247.5ZM87.0837 265.833 87.0837 275 77.917 275 77.917 265.833ZM87.0837 284.166 87.0837 293.333 77.917 293.333 77.917 284.166ZM87.0837 302.5 87.0837 311.666 77.917 311.666 77.917 302.5ZM87.0837 320.833 87.0837 330 77.917 330 77.917 320.833ZM87.0837 339.166 87.0837 348.333 77.917 348.333 77.917 339.166ZM87.0837 357.5 87.0837 366.666 77.917 366.666 77.917 357.5ZM87.0837 375.833 87.0837 385 77.917 385 77.917 375.833ZM87.0837 394.166 87.0837 403.333 77.917 403.333 77.917 394.166ZM87.0837 412.5 87.0837 421.666 77.917 421.666 77.917 412.5ZM87.0837 430.833 87.0837 440 77.917 440 77.917 430.833ZM87.0837 449.166 87.0837 458.333 77.917 458.333 77.917 449.166ZM87.0837 467.5 87.0837 476.666 77.917 476.666 77.917 467.5ZM87.0837 485.833 87.0837 495 77.917 495 77.917 485.833ZM87.0837 504.166 87.0837 515.096 79.6796 515.096 79.6796 505.929 82.5004 505.929 77.917 510.512 77.917 504.166ZM70.513 515.096 61.3463 515.096 61.3463 505.929 70.513 505.929ZM52.1796 515.096 43.013 515.096 43.013 505.929 52.1796 505.929ZM33.8463 515.096 24.6796 515.096 24.6796 505.929 33.8463 505.929ZM27.5004 524.262 0.000360892 510.512 27.5004 496.762Z" transform="matrix(1 0 0 -1 1741.5 947.012)"/><text font-family="MS Gothic,MS Gothic_MSFontService,sans-serif" font-weight="700" font-size="46" transform="matrix(1 0 0 1 1878.93 684)">入力データの検討・再計算</text><text font-family="MS Gothic,MS Gothic_MSFontService,sans-serif" font-weight="700" font-size="46" transform="matrix(1 0 0 1 1878.93 739)">継続計算</text><text font-family="MS Gothic,MS Gothic_MSFontService,sans-serif" font-weight="700" font-size="46" transform="matrix(1 0 0 1 1523.88 596)">3.2 </text><text font-family="MS Gothic,MS Gothic_MSFontService,sans-serif" font-weight="700" font-size="46" transform="matrix(1 0 0 1 1615.55 596)">節</text><text font-family="MS Gothic,MS Gothic_MSFontService,sans-serif" font-weight="700" font-size="46" transform="matrix(1 0 0 1 1523.88 827)">3.3 </text><text font-family="MS Gothic,MS Gothic_MSFontService,sans-serif" font-weight="700" font-size="46" transform="matrix(1 0 0 1 1615.55 827)">節</text><text font-family="MS Gothic,MS Gothic_MSFontService,sans-serif" font-weight="700" font-size="46" transform="matrix(1 0 0 1 1523.88 1090)">3.4 </text><text font-family="MS Gothic,MS Gothic_MSFontService,sans-serif" font-weight="700" font-size="46" transform="matrix(1 0 0 1 1615.55 1090)">節</text><text font-family="MS Gothic,MS Gothic_MSFontService,sans-serif" font-weight="700" font-size="46" transform="matrix(1 0 0 1 1523.88 1363)">3.5 </text><text font-family="MS Gothic,MS Gothic_MSFontService,sans-serif" font-weight="700" font-size="46" transform="matrix(1 0 0 1 1615.55 1363)">節</text></g></svg>