<svg width="825" height="1156" xmlns="http://www.w3.org/2000/svg" xmlns:xlink="http://www.w3.org/1999/xlink" overflow="hidden"><defs><clipPath id="clip0"><rect x="1786" y="658" width="825" height="1156"/></clipPath></defs><g clip-path="url(#clip0)" transform="translate(-1786 -658)"><path d="M1786.5 658.5 2610.5 658.5 2610.5 1813.5 1786.5 1813.5Z" stroke="#000000" stroke-width="0.350066" stroke-linecap="round" stroke-linejoin="round" stroke-miterlimit="10" fill="none" fill-rule="evenodd"/><path d="M1930 1750 1944 1750" stroke="#000000" stroke-width="2.4501" stroke-linecap="round" stroke-linejoin="round" stroke-miterlimit="10" fill="none" fill-rule="evenodd"/><path d="M2556 1750 2541 1750" stroke="#000000" stroke-width="2.4501" stroke-linecap="round" stroke-linejoin="round" stroke-miterlimit="10" fill="none" fill-rule="evenodd"/><path d="M1866.5 1753.5 1866.5 1751.5 1874.5 1751.5 1874.5 1753.5 1866.5 1753.5Z" stroke="#000000" stroke-width="0.350066" stroke-linecap="round" stroke-linejoin="round" stroke-miterlimit="10" fill-rule="evenodd"/><path d="M1887.5 1760.5 1884.83 1760.5 1884.83 1742.73 1883.5 1743.77 1882.17 1744.47 1880.83 1745.51 1879.5 1746.21 1879.5 1743.42 1881.5 1742.03 1883.5 1740.64 1884.83 1739.24 1885.83 1737.5 1887.5 1737.5 1887.5 1760.5Z" stroke="#000000" stroke-width="0.350066" stroke-linecap="round" stroke-linejoin="round" stroke-miterlimit="10" fill-rule="evenodd"/><path d="M1894.5 1754.23 1897.64 1753.88 1897.99 1755.27 1898.34 1755.97 1899.04 1757.01 1899.73 1757.36 1900.78 1757.71 1901.83 1758.06 1903.22 1757.71 1904.27 1757.36 1905.31 1756.32 1906.01 1755.27 1906.36 1754.23 1906.71 1752.48 1906.36 1751.09 1906.01 1750.04 1905.31 1749 1904.62 1748.3 1903.22 1747.6 1901.83 1747.6 1900.43 1747.6 1899.38 1748.3 1898.69 1748.65 1897.99 1749.69 1894.85 1749.35 1897.29 1737.5 1908.1 1737.5 1908.1 1740.63 1899.73 1740.63 1898.69 1746.56 1899.73 1745.51 1901.13 1745.16 1902.52 1744.82 1904.62 1745.16 1906.01 1745.86 1907.41 1746.91 1908.45 1748.3 1909.15 1749.35 1909.5 1750.74 1909.5 1752.48 1909.5 1754.23 1908.8 1756.32 1907.76 1757.71 1905.31 1759.8 1901.83 1760.5 1899.73 1760.5 1898.34 1759.8 1896.94 1758.76 1895.55 1757.71 1894.85 1755.97 1894.5 1754.23Z" stroke="#000000" stroke-width="0.350066" stroke-linecap="round" stroke-linejoin="round" stroke-miterlimit="10" fill-rule="evenodd"/><path d="M1930 1539 1944 1539" stroke="#000000" stroke-width="2.4501" stroke-linecap="round" stroke-linejoin="round" stroke-miterlimit="10" fill="none" fill-rule="evenodd"/><path d="M2556 1539 2541 1539" stroke="#000000" stroke-width="2.4501" stroke-linecap="round" stroke-linejoin="round" stroke-miterlimit="10" fill="none" fill-rule="evenodd"/><path d="M1866.5 1543.5 1866.5 1540.5 1874.5 1540.5 1874.5 1543.5 1866.5 1543.5Z" stroke="#000000" stroke-width="0.350066" stroke-linecap="round" stroke-linejoin="round" stroke-miterlimit="10" fill-rule="evenodd"/><path d="M1887.5 1550.5 1884.83 1550.5 1884.83 1532.72 1883.5 1533.77 1882.17 1534.47 1880.83 1535.51 1879.5 1536.21 1879.5 1533.42 1881.5 1532.03 1883.5 1530.63 1884.83 1529.24 1885.83 1527.5 1887.5 1527.5 1887.5 1550.5Z" stroke="#000000" stroke-width="0.350066" stroke-linecap="round" stroke-linejoin="round" stroke-miterlimit="10" fill-rule="evenodd"/><path d="M1894.5 1539.17 1894.85 1535.39 1895.55 1532.65 1895.9 1530.93 1896.94 1529.9 1897.99 1528.87 1899.04 1528.18 1900.43 1527.84 1902.17 1527.5 1903.92 1527.84 1905.31 1528.18 1906.71 1529.22 1907.76 1530.59 1908.45 1531.96 1909.15 1533.68 1909.15 1535.39 1909.5 1537.11 1909.5 1539.17 1909.5 1542.6 1908.8 1545.69 1908.1 1547.07 1907.41 1548.44 1906.36 1549.47 1904.97 1550.16 1903.57 1550.5 1902.17 1550.5 1900.43 1550.5 1899.04 1550.16 1897.99 1549.47 1896.94 1548.44 1895.55 1546.03 1894.85 1542.95 1894.5 1539.17ZM1897.64 1539.17 1897.99 1543.63 1898.69 1546.38 1899.73 1547.07 1900.78 1547.75 1902.17 1547.75 1903.22 1547.75 1904.27 1547.07 1905.31 1546.38 1906.36 1543.63 1906.71 1539.17 1906.36 1534.71 1905.31 1531.96 1904.27 1530.93 1903.22 1530.24 1902.17 1530.24 1900.78 1530.24 1899.73 1530.93 1899.04 1531.62 1897.99 1534.71 1897.64 1539.17Z" stroke="#000000" stroke-width="0.350066" stroke-linecap="round" stroke-linejoin="round" stroke-miterlimit="10" fill-rule="evenodd"/><path d="M1930 1328 1944 1328" stroke="#000000" stroke-width="2.4501" stroke-linecap="round" stroke-linejoin="round" stroke-miterlimit="10" fill="none" fill-rule="evenodd"/><path d="M2556 1328 2541 1328" stroke="#000000" stroke-width="2.4501" stroke-linecap="round" stroke-linejoin="round" stroke-miterlimit="10" fill="none" fill-rule="evenodd"/><path d="M1883.5 1332.5 1883.5 1329.5 1892.5 1329.5 1892.5 1332.5 1883.5 1332.5Z" stroke="#000000" stroke-width="0.350066" stroke-linecap="round" stroke-linejoin="round" stroke-miterlimit="10" fill-rule="evenodd"/><path d="M1894.5 1333.13 1897.64 1332.78 1897.99 1334.2 1898.34 1335.25 1899.04 1335.96 1899.73 1336.32 1900.78 1336.67 1901.83 1337.02 1903.22 1336.67 1904.27 1336.32 1905.31 1335.61 1906.01 1334.2 1906.36 1333.13 1906.71 1331.36 1906.36 1329.95 1906.01 1328.89 1905.31 1327.82 1904.62 1327.12 1903.22 1326.76 1901.83 1326.41 1900.43 1326.76 1899.38 1327.12 1898.69 1327.82 1897.99 1328.53 1894.85 1328.18 1897.29 1316.5 1908.1 1316.5 1908.1 1319.33 1899.73 1319.33 1898.69 1325.35 1899.73 1324.29 1901.13 1323.93 1902.52 1323.93 1904.62 1323.93 1906.01 1324.64 1907.41 1326.05 1908.45 1327.12 1909.15 1328.18 1909.5 1329.6 1909.5 1331.36 1909.5 1333.49 1908.8 1335.25 1907.76 1336.67 1905.31 1338.8 1901.83 1339.5 1899.73 1339.5 1898.34 1338.8 1896.94 1337.73 1895.55 1336.67 1894.85 1334.9 1894.5 1333.13Z" stroke="#000000" stroke-width="0.350066" stroke-linecap="round" stroke-linejoin="round" stroke-miterlimit="10" fill-rule="evenodd"/><path d="M1930 1118 1944 1118" stroke="#000000" stroke-width="2.4501" stroke-linecap="round" stroke-linejoin="round" stroke-miterlimit="10" fill="none" fill-rule="evenodd"/><path d="M2556 1118 2541 1118" stroke="#000000" stroke-width="2.4501" stroke-linecap="round" stroke-linejoin="round" stroke-miterlimit="10" fill="none" fill-rule="evenodd"/><path d="M1894.5 1117.68 1894.85 1113.74 1895.55 1110.87 1895.9 1109.44 1896.94 1108.01 1897.99 1106.93 1899.04 1106.22 1900.43 1105.86 1902.17 1105.5 1903.92 1105.86 1905.31 1106.58 1906.71 1107.29 1907.76 1108.72 1908.45 1110.16 1909.15 1111.95 1909.15 1113.74 1909.5 1115.53 1909.5 1117.68 1909.5 1121.26 1908.8 1124.48 1908.1 1125.92 1907.41 1127.35 1906.36 1128.43 1904.97 1129.14 1903.57 1129.5 1902.17 1129.5 1900.43 1129.5 1899.04 1129.14 1897.99 1128.43 1896.94 1127.35 1895.55 1124.84 1894.85 1121.62 1894.5 1117.68ZM1897.64 1117.68 1897.99 1122.34 1898.69 1125.2 1899.73 1126.28 1900.78 1126.63 1902.17 1126.99 1903.22 1126.63 1904.27 1126.28 1905.31 1125.2 1906.36 1122.34 1906.71 1117.68 1906.36 1113.02 1905.31 1110.16 1904.27 1109.08 1903.22 1108.72 1902.17 1108.37 1900.78 1108.72 1899.73 1109.08 1899.04 1110.16 1897.99 1113.02 1897.64 1117.68Z" stroke="#000000" stroke-width="0.350066" stroke-linecap="round" stroke-linejoin="round" stroke-miterlimit="10" fill-rule="evenodd"/><path d="M1930 907 1944 907" stroke="#000000" stroke-width="2.4501" stroke-linecap="round" stroke-linejoin="round" stroke-miterlimit="10" fill="none" fill-rule="evenodd"/><path d="M2556 907 2541 907" stroke="#000000" stroke-width="2.4501" stroke-linecap="round" stroke-linejoin="round" stroke-miterlimit="10" fill="none" fill-rule="evenodd"/><path d="M1894.5 911.879 1897.64 911.879 1897.99 912.924 1898.34 913.97 1899.04 914.667 1899.73 915.364 1900.78 915.712 1901.83 915.712 1903.22 915.364 1904.27 915.015 1905.31 914.319 1906.01 913.273 1906.36 911.879 1906.71 910.485 1906.36 909.091 1906.01 907.697 1905.31 906.652 1904.62 905.955 1903.22 905.606 1901.83 905.258 1900.43 905.606 1899.38 905.955 1898.69 906.652 1897.99 907.349 1894.85 907 1897.29 895.5 1908.1 895.5 1908.1 898.288 1899.73 898.288 1898.69 904.212 1899.73 903.515 1901.13 902.818 1902.52 902.818 1904.62 902.818 1906.01 903.515 1907.41 904.909 1908.45 905.955 1909.15 907.349 1909.5 908.743 1909.5 910.137 1909.5 912.228 1908.8 913.97 1907.76 915.712 1905.31 917.803 1901.83 918.5 1899.73 918.152 1898.34 917.455 1896.94 916.758 1895.55 915.364 1894.85 913.97 1894.5 911.879Z" stroke="#000000" stroke-width="0.350066" stroke-linecap="round" stroke-linejoin="round" stroke-miterlimit="10" fill-rule="evenodd"/><path d="M1930 697 1944 697" stroke="#000000" stroke-width="2.4501" stroke-linecap="round" stroke-linejoin="round" stroke-miterlimit="10" fill="none" fill-rule="evenodd"/><path d="M2556 697 2541 697" stroke="#000000" stroke-width="2.4501" stroke-linecap="round" stroke-linejoin="round" stroke-miterlimit="10" fill="none" fill-rule="evenodd"/><path d="M1887.5 708.5 1884.83 708.5 1884.83 690.379 1883.5 691.424 1882.17 692.47 1880.83 693.167 1879.5 693.864 1879.5 691.076 1881.5 690.03 1883.5 688.288 1884.83 686.894 1885.83 685.5 1887.5 685.5 1887.5 708.5Z" stroke="#000000" stroke-width="0.350066" stroke-linecap="round" stroke-linejoin="round" stroke-miterlimit="10" fill-rule="evenodd"/><path d="M1894.5 696.828 1894.85 693.396 1895.55 690.306 1895.9 688.933 1896.94 687.56 1897.99 686.53 1899.04 685.843 1900.43 685.5 1902.17 685.5 1903.92 685.5 1905.31 686.186 1906.71 686.873 1907.76 688.246 1908.45 689.619 1909.15 691.679 1909.15 693.052 1909.5 694.769 1909.5 696.828 1909.5 700.605 1908.8 703.351 1908.1 704.724 1907.41 706.097 1906.36 707.127 1904.97 707.814 1903.57 708.157 1902.17 708.5 1900.43 708.157 1899.04 707.814 1897.99 707.127 1896.94 706.097 1895.55 703.694 1894.85 700.605 1894.5 696.828ZM1897.64 696.828 1897.99 701.291 1898.69 704.037 1899.73 705.068 1900.78 705.41 1902.17 705.754 1903.22 705.41 1904.27 705.068 1905.31 704.037 1906.36 701.291 1906.71 696.828 1906.36 692.366 1905.31 689.619 1904.27 688.933 1903.22 688.246 1902.17 687.903 1900.78 688.246 1899.73 688.59 1899.04 689.619 1897.99 692.366 1897.64 696.828Z" stroke="#000000" stroke-width="0.350066" stroke-linecap="round" stroke-linejoin="round" stroke-miterlimit="10" fill-rule="evenodd"/><path d="M2556 1750 2556 1735" stroke="#000000" stroke-width="2.4501" stroke-linecap="round" stroke-linejoin="round" stroke-miterlimit="10" fill="none" fill-rule="evenodd"/><path d="M2556 697 2556 711" stroke="#000000" stroke-width="2.4501" stroke-linecap="round" stroke-linejoin="round" stroke-miterlimit="10" fill="none" fill-rule="evenodd"/><path d="M2553.5 1792.5 2553.5 1769.5 2556.32 1769.5 2556.32 1780.3 2567.57 1769.5 2571.8 1769.5 2561.94 1778.91 2572.5 1792.5 2568.98 1792.5 2559.83 1781 2556.32 1784.49 2556.32 1792.5 2553.5 1792.5Z" stroke="#000000" stroke-width="0.350066" stroke-linecap="round" stroke-linejoin="round" stroke-miterlimit="10" fill-rule="evenodd"/><path d="M2491 1750 2491 1735" stroke="#000000" stroke-width="2.4501" stroke-linecap="round" stroke-linejoin="round" stroke-miterlimit="10" fill="none" fill-rule="evenodd"/><path d="M2491 697 2491 711" stroke="#000000" stroke-width="2.4501" stroke-linecap="round" stroke-linejoin="round" stroke-miterlimit="10" fill="none" fill-rule="evenodd"/><path d="M2487.3 1792.5 2481.5 1769.5 2484.23 1769.5 2487.98 1784.49 2489 1789.36 2489.34 1787.62 2489.68 1786.58 2490.02 1785.53 2490.02 1785.18 2494.46 1769.5 2498.55 1769.5 2501.61 1781 2504 1789.36 2504.34 1787.27 2505.02 1784.49 2508.77 1769.5 2511.5 1769.5 2505.71 1792.5 2502.63 1792.5 2497.18 1774.73 2496.84 1773.68 2496.5 1772.64 2496.5 1772.29 2496.16 1774.03 2495.82 1775.08 2490.71 1792.5 2487.3 1792.5Z" stroke="#000000" stroke-width="0.350066" stroke-linecap="round" stroke-linejoin="round" stroke-miterlimit="10" fill-rule="evenodd"/><path d="M2400 1750 2400 1735" stroke="#000000" stroke-width="2.4501" stroke-linecap="round" stroke-linejoin="round" stroke-miterlimit="10" fill="none" fill-rule="evenodd"/><path d="M2400 697 2400 711" stroke="#000000" stroke-width="2.4501" stroke-linecap="round" stroke-linejoin="round" stroke-miterlimit="10" fill="none" fill-rule="evenodd"/><path d="M2394.5 1792.5 2403.25 1779.96 2395.9 1769.5 2399.4 1769.5 2403.6 1775.42 2404.3 1776.47 2404.65 1777.17 2405 1777.52 2405.7 1776.47 2406.75 1775.08 2410.6 1769.5 2414.45 1769.5 2406.75 1779.96 2415.5 1792.5 2412 1792.5 2406.4 1784.14 2405.7 1783.44 2405 1782.74 2404.3 1783.79 2403.95 1784.49 2398.35 1792.5 2394.5 1792.5Z" stroke="#000000" stroke-width="0.350066" stroke-linecap="round" stroke-linejoin="round" stroke-miterlimit="10" fill-rule="evenodd"/><path d="M2217 1750 2217 1735" stroke="#000000" stroke-width="2.4501" stroke-linecap="round" stroke-linejoin="round" stroke-miterlimit="10" fill="none" fill-rule="evenodd"/><path d="M2217 697 2217 711" stroke="#000000" stroke-width="2.4501" stroke-linecap="round" stroke-linejoin="round" stroke-miterlimit="10" fill="none" fill-rule="evenodd"/><path d="M2231.5 1771.5 2231.5 1775.63 2230.79 1775.63 2230.44 1774.6 2230.09 1773.91 2229.74 1773.22 2229.03 1772.88 2227.97 1772.53 2226.56 1772.53 2219.5 1772.53 2219.5 1789.4 2219.85 1790.44 2220.2 1791.12 2220.91 1791.81 2221.97 1791.81 2223.03 1791.81 2223.03 1792.5 2213.5 1792.5 2213.5 1791.81 2214.2 1791.81 2215.26 1791.81 2215.97 1791.12 2216.32 1790.44 2216.68 1789.4 2216.68 1774.25 2216.32 1773.22 2215.97 1772.53 2215.26 1772.19 2214.2 1772.19 2213.5 1772.19 2213.5 1771.5 2231.5 1771.5Z" stroke="#000000" stroke-width="0.350066" stroke-linecap="round" stroke-linejoin="round" stroke-miterlimit="10" fill-rule="evenodd"/><path d="M2059 1750 2059 1735" stroke="#000000" stroke-width="2.4501" stroke-linecap="round" stroke-linejoin="round" stroke-miterlimit="10" fill="none" fill-rule="evenodd"/><path d="M2059 697 2059 711" stroke="#000000" stroke-width="2.4501" stroke-linecap="round" stroke-linejoin="round" stroke-miterlimit="10" fill="none" fill-rule="evenodd"/><path d="M2057.5 1792.5 2057.5 1769.5 2060.79 1769.5 2060.79 1789.71 2072.5 1789.71 2072.5 1792.5 2057.5 1792.5Z" stroke="#000000" stroke-width="0.350066" stroke-linecap="round" stroke-linejoin="round" stroke-miterlimit="10" fill-rule="evenodd"/><path d="M1930 1750 1930 1735" stroke="#000000" stroke-width="2.4501" stroke-linecap="round" stroke-linejoin="round" stroke-miterlimit="10" fill="none" fill-rule="evenodd"/><path d="M1930 697 1930 711" stroke="#000000" stroke-width="2.4501" stroke-linecap="round" stroke-linejoin="round" stroke-miterlimit="10" fill="none" fill-rule="evenodd"/><path d="M1925.77 1792.5 1919.5 1769.5 1922.63 1769.5 1926.47 1784.49 1927.51 1789.36 1927.86 1787.62 1928.21 1786.58 1928.56 1785.53 1928.56 1785.18 1933.08 1769.5 1936.92 1769.5 1940.4 1781 1942.84 1789.36 1943.19 1787.27 1943.88 1784.49 1947.37 1769.5 1950.5 1769.5 1944.23 1792.5 1941.44 1792.5 1935.87 1774.73 1935.52 1773.68 1935.17 1772.64 1935.17 1772.29 1934.48 1774.03 1934.13 1775.08 1929.25 1792.5 1925.77 1792.5Z" stroke="#000000" stroke-width="0.350066" stroke-linecap="round" stroke-linejoin="round" stroke-miterlimit="10" fill-rule="evenodd"/><path d="M1930 1750 2556 1750 2556 697 1930 697 1930 1750" stroke="#000000" stroke-width="2.4501" stroke-linecap="round" stroke-linejoin="round" stroke-miterlimit="10" fill="none" fill-rule="evenodd"/><path d="M1828.5 1306.5 1805.5 1306.5 1805.5 1289.24 1807.94 1289.24 1807.94 1303.56 1814.91 1303.56 1814.91 1290.34 1817.7 1290.34 1817.7 1303.56 1825.71 1303.56 1825.71 1288.5 1828.5 1288.5 1828.5 1306.5Z" stroke="#000000" stroke-width="0.350066" stroke-linecap="round" stroke-linejoin="round" stroke-miterlimit="10" fill-rule="evenodd"/><path d="M1828.5 1285.5 1811.85 1285.5 1811.85 1282.34 1814.28 1282.34 1812.89 1281.64 1812.19 1280.58 1811.5 1279.18 1811.5 1277.77 1811.5 1276.36 1812.19 1274.96 1812.54 1274.26 1813.58 1273.2 1814.28 1272.85 1815.66 1272.5 1816.7 1272.5 1818.09 1272.5 1828.5 1272.5 1828.5 1275.31 1818.44 1275.31 1817.05 1275.66 1816.01 1275.66 1815.32 1276.01 1814.62 1276.72 1814.28 1277.77 1814.28 1278.47 1814.28 1279.53 1814.62 1280.58 1815.32 1281.28 1816.01 1281.98 1817.05 1282.34 1818.09 1282.34 1819.48 1282.34 1828.5 1282.34 1828.5 1285.5Z" stroke="#000000" stroke-width="0.350066" stroke-linecap="round" stroke-linejoin="round" stroke-miterlimit="10" fill-rule="evenodd"/><path d="M1823.74 1256.57 1824.1 1253.84 1825.9 1254.18 1826.98 1255.2 1828.06 1256.22 1828.78 1257.59 1829.14 1258.95 1829.5 1261 1828.78 1264.07 1826.98 1266.45 1824.46 1268.16 1820.5 1268.5 1816.9 1268.16 1814.02 1266.45 1812.22 1264.07 1811.5 1261 1811.5 1259.29 1812.22 1257.93 1812.94 1256.91 1813.66 1255.55 1816.54 1254.18 1820.5 1253.5 1821.22 1253.5 1821.22 1265.77 1822.66 1265.43 1824.1 1264.75 1825.18 1264.07 1825.9 1263.04 1826.62 1262.02 1826.62 1260.66 1826.62 1259.29 1825.9 1258.27 1825.18 1257.25 1823.74 1256.57ZM1818.34 1265.77 1818.34 1256.57 1817.26 1256.57 1816.18 1257.25 1815.82 1257.59 1814.74 1258.61 1814.38 1259.64 1814.38 1261 1814.38 1262.36 1814.74 1263.39 1815.46 1264.07 1816.18 1265.09 1817.26 1265.43 1818.34 1265.77Z" stroke="#000000" stroke-width="0.350066" stroke-linecap="round" stroke-linejoin="round" stroke-miterlimit="10" fill-rule="evenodd"/><path d="M1828.5 1249.5 1811.85 1249.5 1811.85 1246.94 1814.28 1246.94 1812.89 1246.3 1811.85 1245.34 1811.5 1244.7 1811.5 1244.06 1811.85 1242.78 1812.19 1241.5 1814.97 1242.46 1814.28 1243.1 1814.28 1244.06 1814.28 1244.7 1814.62 1245.34 1815.32 1245.98 1816.36 1246.3 1817.74 1246.62 1819.48 1246.62 1828.5 1246.62 1828.5 1249.5Z" stroke="#000000" stroke-width="0.350066" stroke-linecap="round" stroke-linejoin="round" stroke-miterlimit="10" fill-rule="evenodd"/><path d="M1829.85 1240.13 1830.21 1237.21 1831.27 1236.84 1831.97 1236.11 1832.32 1235.38 1832.68 1234.28 1832.68 1233.18 1832.68 1232.09 1832.32 1230.99 1831.97 1230.26 1831.27 1229.53 1829.85 1228.79 1829.15 1228.79 1828.09 1228.79 1826.68 1228.79 1827.74 1229.89 1828.44 1231.72 1828.79 1233.18 1828.44 1235.02 1828.09 1236.11 1827.38 1237.57 1826.32 1238.67 1823.5 1240.13 1820.32 1240.5 1817.85 1240.13 1815.74 1239.77 1814.32 1239.04 1813.26 1238.31 1812.56 1237.21 1811.85 1236.11 1811.5 1234.65 1811.5 1233.55 1811.5 1232.09 1812.21 1230.62 1812.91 1229.53 1813.97 1228.79 1811.85 1228.79 1811.85 1225.5 1826.32 1225.5 1828.79 1225.5 1830.56 1225.87 1831.97 1226.23 1833.03 1226.97 1833.74 1227.7 1834.44 1228.79 1835.15 1230.26 1835.15 1231.72 1835.5 1233.18 1835.15 1235.38 1834.79 1236.84 1834.09 1238.31 1833.38 1239.04 1832.32 1239.77 1831.27 1240.13 1829.85 1240.13ZM1819.97 1237.21 1821.74 1237.21 1823.5 1236.84 1824.56 1236.11 1825.26 1235.38 1825.97 1234.28 1825.97 1233.18 1825.97 1231.72 1825.26 1230.99 1824.56 1229.89 1823.5 1229.16 1822.09 1228.79 1819.97 1228.79 1818.21 1228.79 1816.79 1229.16 1815.74 1229.89 1814.68 1230.99 1814.32 1232.09 1814.32 1233.18 1814.32 1234.28 1814.68 1235.38 1815.74 1236.11 1816.79 1236.84 1818.21 1237.21 1819.97 1237.21Z" stroke="#000000" stroke-width="0.350066" stroke-linecap="round" stroke-linejoin="round" stroke-miterlimit="10" fill-rule="evenodd"/><path d="M1835.16 1222.1 1832.41 1222.45 1832.75 1221.41 1832.75 1220.71 1832.75 1220.01 1832.41 1219.31 1832.07 1218.62 1831.72 1218.27 1831.38 1218.27 1830.69 1217.92 1829.66 1217.57 1828.98 1217.22 1812.5 1223.5 1812.5 1220.36 1821.43 1217.22 1824.86 1215.83 1823.49 1215.48 1822.11 1214.78 1812.5 1211.64 1812.5 1208.5 1829.32 1214.43 1831.04 1215.13 1832.07 1215.48 1832.75 1215.83 1834.13 1216.87 1834.81 1217.57 1835.16 1218.97 1835.5 1220.01 1835.5 1221.06 1835.16 1222.1Z" stroke="#000000" stroke-width="0.350066" stroke-linecap="round" stroke-linejoin="round" stroke-miterlimit="10" fill-rule="evenodd"/><path d="M1835.5 1191.41 1832.29 1193.32 1828.71 1194.91 1824.43 1196.18 1820.5 1196.5 1816.93 1196.18 1813.36 1195.23 1809.43 1193.64 1805.5 1191.41 1805.5 1189.5 1807.29 1190.46 1809.07 1191.41 1810.14 1191.73 1812.29 1192.68 1814.43 1193 1820.5 1193.64 1828 1192.68 1835.5 1189.5 1835.5 1191.41Z" stroke="#000000" stroke-width="0.350066" stroke-linecap="round" stroke-linejoin="round" stroke-miterlimit="10" fill-rule="evenodd"/><path d="M1823.74 1174.77 1824.1 1171.86 1825.9 1172.23 1826.98 1173.32 1828.06 1174.41 1828.78 1175.86 1829.14 1177.32 1829.5 1179.5 1828.78 1182.77 1826.98 1185.32 1824.46 1187.14 1820.5 1187.5 1816.9 1187.14 1814.02 1185.32 1812.22 1182.77 1811.5 1179.5 1811.5 1177.68 1812.22 1176.23 1812.94 1175.14 1813.66 1173.68 1816.54 1172.23 1820.5 1171.5 1821.22 1171.5 1821.22 1184.59 1822.66 1184.23 1824.1 1183.87 1825.18 1182.77 1825.9 1181.68 1826.62 1180.59 1826.62 1179.14 1826.62 1177.68 1825.9 1176.59 1825.18 1175.5 1823.74 1174.77ZM1818.34 1184.59 1818.34 1174.77 1817.26 1175.14 1816.18 1175.5 1815.82 1175.86 1814.74 1176.96 1814.38 1178.05 1814.38 1179.5 1814.38 1180.96 1814.74 1182.04 1815.46 1182.77 1816.18 1183.87 1817.26 1184.23 1818.34 1184.59Z" stroke="#000000" stroke-width="0.350066" stroke-linecap="round" stroke-linejoin="round" stroke-miterlimit="10" fill-rule="evenodd"/><path d="M1828.5 1160.76 1805.5 1170.5 1805.5 1167.26 1821.88 1160.76 1823.62 1160.04 1825.71 1159.32 1821.88 1158.24 1805.5 1151.74 1805.5 1148.5 1828.5 1157.52 1828.5 1160.76Z" stroke="#000000" stroke-width="0.350066" stroke-linecap="round" stroke-linejoin="round" stroke-miterlimit="10" fill-rule="evenodd"/><path d="M1835.5 1146.32 1835.5 1148.5 1828 1144.86 1820.5 1143.41 1814.43 1144.14 1812.29 1144.86 1810.14 1145.59 1809.07 1146.32 1807.29 1147.05 1805.5 1148.5 1805.5 1146.32 1809.43 1143.41 1813.36 1141.59 1816.93 1140.5 1820.5 1140.5 1824.43 1140.86 1828.71 1141.96 1832.29 1144.14 1835.5 1146.32Z" stroke="#000000" stroke-width="0.350066" stroke-linecap="round" stroke-linejoin="round" stroke-miterlimit="10" fill-rule="evenodd"/><path d="M2059 1750 2059 697" stroke="#000000" stroke-width="2.4501" stroke-linecap="round" stroke-linejoin="round" stroke-miterlimit="10" fill="none" fill-rule="evenodd"/><path d="M2217 1750 2217 697" stroke="#000000" stroke-width="2.4501" stroke-linecap="round" stroke-linejoin="round" stroke-miterlimit="10" fill="none" fill-rule="evenodd"/><path d="M2400 1750 2400 697" stroke="#000000" stroke-width="2.4501" stroke-linecap="round" stroke-linejoin="round" stroke-miterlimit="10" fill="none" fill-rule="evenodd"/><path d="M2491 1750 2491 697" stroke="#000000" stroke-width="2.4501" stroke-linecap="round" stroke-linejoin="round" stroke-miterlimit="10" fill="none" fill-rule="evenodd"/><path d="M1930.5 1118.5 1932.5 1118.5" stroke="#000000" stroke-width="0.700131" stroke-linecap="round" stroke-linejoin="round" stroke-miterlimit="10" fill="none" fill-rule="evenodd"/><path d="M1937.5 1118.5 1939.5 1118.5" stroke="#000000" stroke-width="0.700131" stroke-linecap="round" stroke-linejoin="round" stroke-miterlimit="10" fill="none" fill-rule="evenodd"/><path d="M1944.5 1118.5 1946.5 1118.5" stroke="#000000" stroke-width="0.700131" stroke-linecap="round" stroke-linejoin="round" stroke-miterlimit="10" fill="none" fill-rule="evenodd"/><path d="M1951.5 1118.5 1953.5 1118.5" stroke="#000000" stroke-width="0.700131" stroke-linecap="round" stroke-linejoin="round" stroke-miterlimit="10" fill="none" fill-rule="evenodd"/><path d="M1957.5 1118.5 1960.5 1118.5" stroke="#000000" stroke-width="0.700131" stroke-linecap="round" stroke-linejoin="round" stroke-miterlimit="10" fill="none" fill-rule="evenodd"/><path d="M1964.5 1118.5 1967.5 1118.5" stroke="#000000" stroke-width="0.700131" stroke-linecap="round" stroke-linejoin="round" stroke-miterlimit="10" fill="none" fill-rule="evenodd"/><path d="M1971.5 1118.5 1973.5 1118.5" stroke="#000000" stroke-width="0.700131" stroke-linecap="round" stroke-linejoin="round" stroke-miterlimit="10" fill="none" fill-rule="evenodd"/><path d="M1978.5 1118.5 1980.5 1118.5" stroke="#000000" stroke-width="0.700131" stroke-linecap="round" stroke-linejoin="round" stroke-miterlimit="10" fill="none" fill-rule="evenodd"/><path d="M1985.5 1118.5 1987.5 1118.5" stroke="#000000" stroke-width="0.700131" stroke-linecap="round" stroke-linejoin="round" stroke-miterlimit="10" fill="none" fill-rule="evenodd"/><path d="M1992.5 1118.5 1994.5 1118.5" stroke="#000000" stroke-width="0.700131" stroke-linecap="round" stroke-linejoin="round" stroke-miterlimit="10" fill="none" fill-rule="evenodd"/><path d="M1999.5 1118.5 2001.5 1118.5" stroke="#000000" stroke-width="0.700131" stroke-linecap="round" stroke-linejoin="round" stroke-miterlimit="10" fill="none" fill-rule="evenodd"/><path d="M2006.5 1118.5 2008.5 1118.5" stroke="#000000" stroke-width="0.700131" stroke-linecap="round" stroke-linejoin="round" stroke-miterlimit="10" fill="none" fill-rule="evenodd"/><path d="M2013.5 1118.5 2015.5 1118.5" stroke="#000000" stroke-width="0.700131" stroke-linecap="round" stroke-linejoin="round" stroke-miterlimit="10" fill="none" fill-rule="evenodd"/><path d="M2019.5 1118.5 2022.5 1118.5" stroke="#000000" stroke-width="0.700131" stroke-linecap="round" stroke-linejoin="round" stroke-miterlimit="10" fill="none" fill-rule="evenodd"/><path d="M2026.5 1118.5 2028.5 1118.5" stroke="#000000" stroke-width="0.700131" stroke-linecap="round" stroke-linejoin="round" stroke-miterlimit="10" fill="none" fill-rule="evenodd"/><path d="M2033.5 1118.5 2035.5 1118.5" stroke="#000000" stroke-width="0.700131" stroke-linecap="round" stroke-linejoin="round" stroke-miterlimit="10" fill="none" fill-rule="evenodd"/><path d="M2040.5 1118.5 2042.5 1118.5" stroke="#000000" stroke-width="0.700131" stroke-linecap="round" stroke-linejoin="round" stroke-miterlimit="10" fill="none" fill-rule="evenodd"/><path d="M2047.5 1118.5 2049.5 1118.5" stroke="#000000" stroke-width="0.700131" stroke-linecap="round" stroke-linejoin="round" stroke-miterlimit="10" fill="none" fill-rule="evenodd"/><path d="M2054.5 1118.5 2056.5 1118.5" stroke="#000000" stroke-width="0.700131" stroke-linecap="round" stroke-linejoin="round" stroke-miterlimit="10" fill="none" fill-rule="evenodd"/><path d="M2061.5 1118.5 2063.5 1118.5" stroke="#000000" stroke-width="0.700131" stroke-linecap="round" stroke-linejoin="round" stroke-miterlimit="10" fill="none" fill-rule="evenodd"/><path d="M2068.5 1118.5 2070.5 1118.5" stroke="#000000" stroke-width="0.700131" stroke-linecap="round" stroke-linejoin="round" stroke-miterlimit="10" fill="none" fill-rule="evenodd"/><path d="M2074.5 1118.5 2077.5 1118.5" stroke="#000000" stroke-width="0.700131" stroke-linecap="round" stroke-linejoin="round" stroke-miterlimit="10" fill="none" fill-rule="evenodd"/><path d="M2081.5 1118.5 2084.5 1118.5" stroke="#000000" stroke-width="0.700131" stroke-linecap="round" stroke-linejoin="round" stroke-miterlimit="10" fill="none" fill-rule="evenodd"/><path d="M2088.5 1118.5 2090.5 1118.5" stroke="#000000" stroke-width="0.700131" stroke-linecap="round" stroke-linejoin="round" stroke-miterlimit="10" fill="none" fill-rule="evenodd"/><path d="M2095.5 1118.5 2097.5 1118.5" stroke="#000000" stroke-width="0.700131" stroke-linecap="round" stroke-linejoin="round" stroke-miterlimit="10" fill="none" fill-rule="evenodd"/><path d="M2102.5 1118.5 2104.5 1118.5" stroke="#000000" stroke-width="0.700131" stroke-linecap="round" stroke-linejoin="round" stroke-miterlimit="10" fill="none" fill-rule="evenodd"/><path d="M2109.5 1118.5 2111.5 1118.5" stroke="#000000" stroke-width="0.700131" stroke-linecap="round" stroke-linejoin="round" stroke-miterlimit="10" fill="none" fill-rule="evenodd"/><path d="M2116.5 1118.5 2118.5 1118.5" stroke="#000000" stroke-width="0.700131" stroke-linecap="round" stroke-linejoin="round" stroke-miterlimit="10" fill="none" fill-rule="evenodd"/><path d="M2123.5 1118.5 2125.5 1118.5" stroke="#000000" stroke-width="0.700131" stroke-linecap="round" stroke-linejoin="round" stroke-miterlimit="10" fill="none" fill-rule="evenodd"/><path d="M2130.5 1118.5 2132.5 1118.5" stroke="#000000" stroke-width="0.700131" stroke-linecap="round" stroke-linejoin="round" stroke-miterlimit="10" fill="none" fill-rule="evenodd"/><path d="M2136.5 1118.5 2139.5 1118.5" stroke="#000000" stroke-width="0.700131" stroke-linecap="round" stroke-linejoin="round" stroke-miterlimit="10" fill="none" fill-rule="evenodd"/><path d="M2143.5 1118.5 2145.5 1118.5" stroke="#000000" stroke-width="0.700131" stroke-linecap="round" stroke-linejoin="round" stroke-miterlimit="10" fill="none" fill-rule="evenodd"/><path d="M2150.5 1118.5 2152.5 1118.5" stroke="#000000" stroke-width="0.700131" stroke-linecap="round" stroke-linejoin="round" stroke-miterlimit="10" fill="none" fill-rule="evenodd"/><path d="M2157.5 1118.5 2159.5 1118.5" stroke="#000000" stroke-width="0.700131" stroke-linecap="round" stroke-linejoin="round" stroke-miterlimit="10" fill="none" fill-rule="evenodd"/><path d="M2164.5 1118.5 2166.5 1118.5" stroke="#000000" stroke-width="0.700131" stroke-linecap="round" stroke-linejoin="round" stroke-miterlimit="10" fill="none" fill-rule="evenodd"/><path d="M2170.5 1118.5 2173.5 1118.5" stroke="#000000" stroke-width="0.700131" stroke-linecap="round" stroke-linejoin="round" stroke-miterlimit="10" fill="none" fill-rule="evenodd"/><path d="M2177.5 1118.5 2180.5 1118.5" stroke="#000000" stroke-width="0.700131" stroke-linecap="round" stroke-linejoin="round" stroke-miterlimit="10" fill="none" fill-rule="evenodd"/><path d="M2184.5 1118.5 2187.5 1118.5" stroke="#000000" stroke-width="0.700131" stroke-linecap="round" stroke-linejoin="round" stroke-miterlimit="10" fill="none" fill-rule="evenodd"/><path d="M2191.5 1118.5 2194.5 1118.5" stroke="#000000" stroke-width="0.700131" stroke-linecap="round" stroke-linejoin="round" stroke-miterlimit="10" fill="none" fill-rule="evenodd"/><path d="M2198.5 1118.5 2201.5 1118.5" stroke="#000000" stroke-width="0.700131" stroke-linecap="round" stroke-linejoin="round" stroke-miterlimit="10" fill="none" fill-rule="evenodd"/><path d="M2205.5 1118.5 2207.5 1118.5" stroke="#000000" stroke-width="0.700131" stroke-linecap="round" stroke-linejoin="round" stroke-miterlimit="10" fill="none" fill-rule="evenodd"/><path d="M2212.5 1118.5 2214.5 1118.5" stroke="#000000" stroke-width="0.700131" stroke-linecap="round" stroke-linejoin="round" stroke-miterlimit="10" fill="none" fill-rule="evenodd"/><path d="M2219.5 1118.5 2221.5 1118.5" stroke="#000000" stroke-width="0.700131" stroke-linecap="round" stroke-linejoin="round" stroke-miterlimit="10" fill="none" fill-rule="evenodd"/><path d="M2226.5 1118.5 2228.5 1118.5" stroke="#000000" stroke-width="0.700131" stroke-linecap="round" stroke-linejoin="round" stroke-miterlimit="10" fill="none" fill-rule="evenodd"/><path d="M2232.5 1118.5 2235.5 1118.5" stroke="#000000" stroke-width="0.700131" stroke-linecap="round" stroke-linejoin="round" stroke-miterlimit="10" fill="none" fill-rule="evenodd"/><path d="M2239.5 1118.5 2242.5 1118.5" stroke="#000000" stroke-width="0.700131" stroke-linecap="round" stroke-linejoin="round" stroke-miterlimit="10" fill="none" fill-rule="evenodd"/><path d="M2246.5 1118.5 2249.5 1118.5" stroke="#000000" stroke-width="0.700131" stroke-linecap="round" stroke-linejoin="round" stroke-miterlimit="10" fill="none" fill-rule="evenodd"/><path d="M2253.5 1118.5 2256.5 1118.5" stroke="#000000" stroke-width="0.700131" stroke-linecap="round" stroke-linejoin="round" stroke-miterlimit="10" fill="none" fill-rule="evenodd"/><path d="M2260.5 1118.5 2262.5 1118.5" stroke="#000000" stroke-width="0.700131" stroke-linecap="round" stroke-linejoin="round" stroke-miterlimit="10" fill="none" fill-rule="evenodd"/><path d="M2267.5 1118.5 2269.5 1118.5" stroke="#000000" stroke-width="0.700131" stroke-linecap="round" stroke-linejoin="round" stroke-miterlimit="10" fill="none" fill-rule="evenodd"/><path d="M2274.5 1118.5 2276.5 1118.5" stroke="#000000" stroke-width="0.700131" stroke-linecap="round" stroke-linejoin="round" stroke-miterlimit="10" fill="none" fill-rule="evenodd"/><path d="M2281.5 1118.5 2283.5 1118.5" stroke="#000000" stroke-width="0.700131" stroke-linecap="round" stroke-linejoin="round" stroke-miterlimit="10" fill="none" fill-rule="evenodd"/><path d="M2287.5 1118.5 2290.5 1118.5" stroke="#000000" stroke-width="0.700131" stroke-linecap="round" stroke-linejoin="round" stroke-miterlimit="10" fill="none" fill-rule="evenodd"/><path d="M2294.5 1118.5 2297.5 1118.5" stroke="#000000" stroke-width="0.700131" stroke-linecap="round" stroke-linejoin="round" stroke-miterlimit="10" fill="none" fill-rule="evenodd"/><path d="M2301.5 1118.5 2303.5 1118.5" stroke="#000000" stroke-width="0.700131" stroke-linecap="round" stroke-linejoin="round" stroke-miterlimit="10" fill="none" fill-rule="evenodd"/><path d="M2308.5 1118.5 2310.5 1118.5" stroke="#000000" stroke-width="0.700131" stroke-linecap="round" stroke-linejoin="round" stroke-miterlimit="10" fill="none" fill-rule="evenodd"/><path d="M2315.5 1118.5 2317.5 1118.5" stroke="#000000" stroke-width="0.700131" stroke-linecap="round" stroke-linejoin="round" stroke-miterlimit="10" fill="none" fill-rule="evenodd"/><path d="M2322.5 1118.5 2324.5 1118.5" stroke="#000000" stroke-width="0.700131" stroke-linecap="round" stroke-linejoin="round" stroke-miterlimit="10" fill="none" fill-rule="evenodd"/><path d="M2329.5 1118.5 2331.5 1118.5" stroke="#000000" stroke-width="0.700131" stroke-linecap="round" stroke-linejoin="round" stroke-miterlimit="10" fill="none" fill-rule="evenodd"/><path d="M2336.5 1118.5 2338.5 1118.5" stroke="#000000" stroke-width="0.700131" stroke-linecap="round" stroke-linejoin="round" stroke-miterlimit="10" fill="none" fill-rule="evenodd"/><path d="M2342.5 1118.5 2345.5 1118.5" stroke="#000000" stroke-width="0.700131" stroke-linecap="round" stroke-linejoin="round" stroke-miterlimit="10" fill="none" fill-rule="evenodd"/><path d="M2349.5 1118.5 2352.5 1118.5" stroke="#000000" stroke-width="0.700131" stroke-linecap="round" stroke-linejoin="round" stroke-miterlimit="10" fill="none" fill-rule="evenodd"/><path d="M2356.5 1118.5 2358.5 1118.5" stroke="#000000" stroke-width="0.700131" stroke-linecap="round" stroke-linejoin="round" stroke-miterlimit="10" fill="none" fill-rule="evenodd"/><path d="M2363.5 1118.5 2365.5 1118.5" stroke="#000000" stroke-width="0.700131" stroke-linecap="round" stroke-linejoin="round" stroke-miterlimit="10" fill="none" fill-rule="evenodd"/><path d="M2370.5 1118.5 2372.5 1118.5" stroke="#000000" stroke-width="0.700131" stroke-linecap="round" stroke-linejoin="round" stroke-miterlimit="10" fill="none" fill-rule="evenodd"/><path d="M2377.5 1118.5 2379.5 1118.5" stroke="#000000" stroke-width="0.700131" stroke-linecap="round" stroke-linejoin="round" stroke-miterlimit="10" fill="none" fill-rule="evenodd"/><path d="M2384.5 1118.5 2386.5 1118.5" stroke="#000000" stroke-width="0.700131" stroke-linecap="round" stroke-linejoin="round" stroke-miterlimit="10" fill="none" fill-rule="evenodd"/><path d="M2391.5 1118.5 2393.5 1118.5" stroke="#000000" stroke-width="0.700131" stroke-linecap="round" stroke-linejoin="round" stroke-miterlimit="10" fill="none" fill-rule="evenodd"/><path d="M2398.5 1118.5 2400.5 1118.5" stroke="#000000" stroke-width="0.700131" stroke-linecap="round" stroke-linejoin="round" stroke-miterlimit="10" fill="none" fill-rule="evenodd"/><path d="M2404.5 1118.5 2407.5 1118.5" stroke="#000000" stroke-width="0.700131" stroke-linecap="round" stroke-linejoin="round" stroke-miterlimit="10" fill="none" fill-rule="evenodd"/><path d="M2411.5 1118.5 2413.5 1118.5" stroke="#000000" stroke-width="0.700131" stroke-linecap="round" stroke-linejoin="round" stroke-miterlimit="10" fill="none" fill-rule="evenodd"/><path d="M2418.5 1118.5 2420.5 1118.5" stroke="#000000" stroke-width="0.700131" stroke-linecap="round" stroke-linejoin="round" stroke-miterlimit="10" fill="none" fill-rule="evenodd"/><path d="M2425.5 1118.5 2427.5 1118.5" stroke="#000000" stroke-width="0.700131" stroke-linecap="round" stroke-linejoin="round" stroke-miterlimit="10" fill="none" fill-rule="evenodd"/><path d="M2432.5 1118.5 2434.5 1118.5" stroke="#000000" stroke-width="0.700131" stroke-linecap="round" stroke-linejoin="round" stroke-miterlimit="10" fill="none" fill-rule="evenodd"/><path d="M2439.5 1118.5 2441.5 1118.5" stroke="#000000" stroke-width="0.700131" stroke-linecap="round" stroke-linejoin="round" stroke-miterlimit="10" fill="none" fill-rule="evenodd"/><path d="M2446.5 1118.5 2448.5 1118.5" stroke="#000000" stroke-width="0.700131" stroke-linecap="round" stroke-linejoin="round" stroke-miterlimit="10" fill="none" fill-rule="evenodd"/><path d="M2453.5 1118.5 2455.5 1118.5" stroke="#000000" stroke-width="0.700131" stroke-linecap="round" stroke-linejoin="round" stroke-miterlimit="10" fill="none" fill-rule="evenodd"/><path d="M2459.5 1118.5 2462.5 1118.5" stroke="#000000" stroke-width="0.700131" stroke-linecap="round" stroke-linejoin="round" stroke-miterlimit="10" fill="none" fill-rule="evenodd"/><path d="M2466.5 1118.5 2469.5 1118.5" stroke="#000000" stroke-width="0.700131" stroke-linecap="round" stroke-linejoin="round" stroke-miterlimit="10" fill="none" fill-rule="evenodd"/><path d="M2473.5 1118.5 2475.5 1118.5" stroke="#000000" stroke-width="0.700131" stroke-linecap="round" stroke-linejoin="round" stroke-miterlimit="10" fill="none" fill-rule="evenodd"/><path d="M2480.5 1118.5 2482.5 1118.5" stroke="#000000" stroke-width="0.700131" stroke-linecap="round" stroke-linejoin="round" stroke-miterlimit="10" fill="none" fill-rule="evenodd"/><path d="M2487.5 1118.5 2489.5 1118.5" stroke="#000000" stroke-width="0.700131" stroke-linecap="round" stroke-linejoin="round" stroke-miterlimit="10" fill="none" fill-rule="evenodd"/><path d="M2494.5 1118.5 2496.5 1118.5" stroke="#000000" stroke-width="0.700131" stroke-linecap="round" stroke-linejoin="round" stroke-miterlimit="10" fill="none" fill-rule="evenodd"/><path d="M2501.5 1118.5 2503.5 1118.5" stroke="#000000" stroke-width="0.700131" stroke-linecap="round" stroke-linejoin="round" stroke-miterlimit="10" fill="none" fill-rule="evenodd"/><path d="M2508.5 1118.5 2510.5 1118.5" stroke="#000000" stroke-width="0.700131" stroke-linecap="round" stroke-linejoin="round" stroke-miterlimit="10" fill="none" fill-rule="evenodd"/><path d="M2515.5 1118.5 2517.5 1118.5" stroke="#000000" stroke-width="0.700131" stroke-linecap="round" stroke-linejoin="round" stroke-miterlimit="10" fill="none" fill-rule="evenodd"/><path d="M2521.5 1118.5 2524.5 1118.5" stroke="#000000" stroke-width="0.700131" stroke-linecap="round" stroke-linejoin="round" stroke-miterlimit="10" fill="none" fill-rule="evenodd"/><path d="M2528.5 1118.5 2530.5 1118.5" stroke="#000000" stroke-width="0.700131" stroke-linecap="round" stroke-linejoin="round" stroke-miterlimit="10" fill="none" fill-rule="evenodd"/><path d="M2535.5 1118.5 2537.5 1118.5" stroke="#000000" stroke-width="0.700131" stroke-linecap="round" stroke-linejoin="round" stroke-miterlimit="10" fill="none" fill-rule="evenodd"/><path d="M2542.5 1118.5 2544.5 1118.5" stroke="#000000" stroke-width="0.700131" stroke-linecap="round" stroke-linejoin="round" stroke-miterlimit="10" fill="none" fill-rule="evenodd"/><path d="M2549.5 1118.5 2551.5 1118.5" stroke="#000000" stroke-width="0.700131" stroke-linecap="round" stroke-linejoin="round" stroke-miterlimit="10" fill="none" fill-rule="evenodd"/><path d="M2555.5 1118.5 2556.5 1118.5" stroke="#000000" stroke-width="0.700131" stroke-linecap="round" stroke-linejoin="round" stroke-miterlimit="10" fill="none" fill-rule="evenodd"/><path d="M1930.5 1438.5 1939.6 1448.27 1949.05 1457.7 1958.14 1466.77 1967.24 1475.5 1976.69 1483.87 1985.79 1491.2 1995.23 1497.83 2004.33 1503.77 2013.43 1508.65 2022.88 1512.84 2031.98 1515.98 2041.07 1518.42 2050.17 1519.82 2059.62 1520.17 2068.37 1521.92 2077.11 1526.8 2086.21 1533.78 2094.61 1542.16 2103.71 1550.88 2112.46 1559.61 2121.2 1567.99 2129.95 1576.02 2138.7 1583.34 2147.45 1589.97 2156.55 1595.91 2164.94 1601.14 2173.69 1605.68 2182.79 1609.52 2191.54 1612.31 2200.29 1614.41 2209.03 1615.8 2217.78 1616.5 2226.88 1615.8 2235.98 1614.41 2245.43 1612.31 2254.52 1609.17 2263.62 1604.98 2272.37 1600.1 2281.82 1594.16 2290.92 1587.53 2300.01 1579.85 2309.11 1571.47 2318.21 1562.05 2327.65 1552.28 2336.4 1541.46 2345.5 1529.6 2354.95 1517.03 2364.05 1504.12 2373.14 1490.16 2382.24 1475.85 2391.34 1460.84 2400.44 1445.13 2409.54 1444.78 2418.64 1444.43 2427.73 1443.74 2437.18 1442.69 2446.28 1441.64 2455.38 1440.94 2464.47 1439.55 2473.57 1439.2 2482.67 1438.5 2491.77 1438.5 2500.86 1444.78 2510.31 1450.02 2519.41 1454.55 2528.86 1458.05 2537.96 1460.14 2547.4 1461.89 2556.5 1462.23" stroke="#FF0000" stroke-width="0.700131" stroke-linecap="round" stroke-linejoin="round" stroke-miterlimit="10" fill="none" fill-rule="evenodd"/><path d="M1930.5 1437.85 1939.6 1428.41 1949.05 1419.67 1958.14 1411.97 1967.24 1406.38 1976.69 1402.53 1985.79 1400.78 1995.23 1400.78 2004.33 1401.48 2013.43 1402.88 2022.88 1404.27 2031.98 1405.67 2041.07 1406.72 2050.17 1407.42 2059.62 1407.77 2068.37 1405.32 2077.11 1397.98 2086.21 1386.79 2094.61 1373.14 2103.71 1357.4 2112.46 1340.26 2121.2 1321.72 2129.95 1302.14 2138.7 1281.85 2147.45 1260.86 2156.55 1239.53 2164.94 1217.84 2173.69 1196.15 2182.79 1174.47 2191.54 1154.53 2200.29 1136.69 2209.03 1123.4 2217.78 1118.5 2226.88 1121.65 2235.98 1130.39 2245.43 1143.33 2254.52 1158.38 2263.62 1175.16 2272.37 1192.66 2281.82 1210.49 2290.92 1228.68 2300.01 1247.22 2309.11 1266.11 2318.21 1284.65 2327.65 1303.19 2336.4 1321.72 2345.5 1340.26 2354.95 1358.45 2364.05 1376.29 2373.14 1393.78 2382.24 1411.27 2391.34 1428.06 2400.44 1444.5 2409.54 1444.15 2418.64 1443.8 2427.73 1443.1 2437.18 1442.05 2446.28 1441 2455.38 1440.3 2464.47 1438.91 2473.57 1438.2 2482.67 1437.85 2491.77 1437.85 2500.86 1431.91 2510.31 1427.01 2519.41 1423.86 2528.86 1421.76 2537.96 1420.37 2547.4 1420.02 2556.5 1419.67" stroke="#FF0000" stroke-width="0.700131" stroke-linecap="round" stroke-linejoin="round" stroke-miterlimit="10" fill="none" fill-rule="evenodd"/><path d="M1930.5 1277.31 1939.6 1283.26 1949.05 1287.46 1958.14 1288.85 1967.24 1287.11 1976.69 1281.86 1985.79 1272.76 1995.23 1261.22 2004.33 1247.23 2013.43 1231.49 2022.88 1215.05 2031.98 1198.6 2041.07 1183.56 2050.17 1172.37 2059.62 1168.17 2068.37 1167.82 2077.11 1167.12 2086.21 1166.07 2094.61 1164.32 2103.71 1162.58 2112.46 1159.78 2121.2 1156.98 2129.95 1153.48 2138.7 1149.63 2147.45 1145.78 2156.55 1141.59 2164.94 1137.04 2173.69 1132.49 2182.79 1128.3 2191.54 1124.45 2200.29 1121.3 2209.03 1119.2 2217.78 1118.5 2226.88 1120.25 2235.98 1125.5 2245.43 1133.19 2254.52 1141.94 2263.62 1151.73 2272.37 1161.17 2281.82 1170.62 2290.92 1179.71 2300.01 1188.11 2309.11 1196.16 2318.21 1203.85 2327.65 1210.5 2336.4 1216.45 2345.5 1221.69 2354.95 1226.24 2364.05 1229.74 2373.14 1232.89 2382.24 1234.64 2391.34 1236.03 2400.44 1236.03 2409.54 1237.78 2418.64 1241.28 2427.73 1246.53 2437.18 1252.83 2446.28 1259.12 2455.38 1265.07 2464.47 1269.96 2473.57 1273.81 2482.67 1276.26 2491.77 1277.31 2500.86 1281.86 2510.31 1285.71 2519.41 1289.21 2528.86 1292 2537.96 1294.1 2547.4 1295.15 2556.5 1295.5" stroke="#FF0000" stroke-width="0.700131" stroke-linecap="round" stroke-linejoin="round" stroke-miterlimit="10" fill="none" fill-rule="evenodd"/><path d="M1930.5 1277.5 1939.6 1269.78 1949.05 1260.3 1958.14 1250.47 1967.24 1239.95 1976.69 1229.06 1985.79 1218.18 1995.23 1207.65 2004.33 1197.83 2013.43 1189.4 2022.88 1182.03 2031.98 1176.06 2041.07 1171.85 2050.17 1169.04 2059.62 1168.34 2068.37 1167.99 2077.11 1167.29 2086.21 1166.23 2094.61 1164.48 2103.71 1162.73 2112.46 1159.92 2121.2 1157.11 2129.95 1153.6 2138.7 1149.74 2147.45 1145.88 2156.55 1141.67 2164.94 1137.1 2173.69 1132.54 2182.79 1128.33 2191.54 1124.47 2200.29 1121.31 2209.03 1119.2 2217.78 1118.5 2226.88 1120.25 2235.98 1125.52 2245.43 1133.24 2254.52 1142.02 2263.62 1151.84 2272.37 1161.32 2281.82 1170.8 2290.92 1179.92 2300.01 1188.35 2309.11 1196.42 2318.21 1204.14 2327.65 1210.81 2336.4 1216.78 2345.5 1222.04 2354.95 1226.61 2364.05 1230.12 2373.14 1233.27 2382.24 1235.03 2391.34 1236.43 2400.44 1236.43 2409.54 1238.19 2418.64 1241.7 2427.73 1246.97 2437.18 1253.28 2446.28 1259.6 2455.38 1265.57 2464.47 1270.48 2473.57 1274.34 2482.67 1276.8 2491.77 1277.5 2500.86 1271.18 2510.31 1262.41 2519.41 1251.88 2528.86 1240.29 2537.96 1229.77 2547.4 1222.04 2556.5 1219.23" stroke="#FF0000" stroke-width="0.700131" stroke-linecap="round" stroke-linejoin="round" stroke-miterlimit="10" fill="none" fill-rule="evenodd"/><path d="M1930.5 937.5 1939.6 946.25 1949.05 955.7 1958.14 964.1 1967.24 971.45 1976.69 977.4 1985.79 981.95 1995.23 990.35 2004.33 999.1 2013.43 1008.2 2022.88 1018 2031.98 1029.55 2041.07 1041.8 2050.17 1051.95 2059.62 1055.8 2068.37 1055.45 2077.11 1054.75 2086.21 1053.35 2094.61 1051.6 2103.71 1049.15 2112.46 1046.35 2121.2 1043.2 2129.95 1039.35 2138.7 1035.15 2147.45 1030.6 2156.55 1026.05 2164.94 1021.5 2173.69 1016.95 2182.79 1012.75 2191.54 1009.95 2200.29 1008.2 2209.03 1008.9 2217.78 1009.95 2226.88 1011 2235.98 1014.15 2245.43 1019.4 2254.52 1025.7 2263.62 1032.7 2272.37 1040.4 2281.82 1047.75 2290.92 1055.45 2300.01 1062.45 2309.11 1069.1 2318.21 1075.05 2327.65 1079.95 2336.4 1084.5 2345.5 1087.65 2354.95 1090.1 2364.05 1091.5 2373.14 1091.5 2382.24 1091.15 2391.34 1089.05 2400.44 1085.55 2409.54 1083.1 2418.64 1076.1 2427.73 1065.25 2437.18 1050.55 2446.28 1033.75 2455.38 1015.2 2464.47 994.9 2473.57 973.2 2482.67 951.5 2491.77 937.5 2500.86 956.75 2510.31 982.65 2519.41 1007.85 2528.86 1029.9 2537.96 1048.45 2547.4 1061.05 2556.5 1065.6" stroke="#FF0000" stroke-width="0.700131" stroke-linecap="round" stroke-linejoin="round" stroke-miterlimit="10" fill="none" fill-rule="evenodd"/><path d="M1930.5 938.241 1939.6 936.5 1949.05 944.159 1958.14 953.907 1967.24 963.654 1976.69 973.402 1985.79 982.105 1995.23 985.238 2004.33 986.631 2013.43 986.631 2022.88 984.89 2031.98 982.453 2041.07 979.668 2050.17 977.579 2059.62 976.883 2068.37 976.535 2077.11 975.839 2086.21 974.794 2094.61 973.402 2103.71 971.661 2112.46 970.617 2121.2 969.572 2129.95 969.921 2138.7 971.313 2147.45 974.098 2156.55 978.276 2164.94 983.846 2173.69 989.764 2182.79 995.682 2191.54 1001.6 2200.29 1006.47 2209.03 1009.26 2217.78 1010.3 2226.88 1007.87 2235.98 1000.9 2245.43 990.46 2254.52 977.928 2263.62 963.654 2272.37 947.988 2281.82 944.507 2290.92 956.343 2300.01 970.617 2309.11 985.934 2318.21 1000.9 2327.65 1014.83 2336.4 1028.06 2345.5 1040.24 2354.95 1051.04 2364.05 1060.44 2373.14 1068.79 2382.24 1075.75 2391.34 1081.32 2400.44 1085.5 2409.54 1083.06 2418.64 1076.1 2427.73 1065.31 2437.18 1050.69 2446.28 1033.98 2455.38 1015.52 2464.47 995.334 2473.57 973.75 2482.67 952.166 2491.77 938.241 2500.86 936.5 2510.31 937.893 2519.41 939.981 2528.86 942.07 2537.96 943.811 2547.4 944.855 2556.5 944.855" stroke="#FF0000" stroke-width="0.700131" stroke-linecap="round" stroke-linejoin="round" stroke-miterlimit="10" fill="none" fill-rule="evenodd"/><path d="M1930.5 910.909 1939.6 912.662 1949.05 902.843 1958.14 889.166 1967.24 873.736 1976.69 856.904 1985.79 844.279 1995.23 871.632 2004.33 898.284 2013.43 922.481 2022.88 942.821 2031.98 958.601 2041.07 969.122 2050.17 975.083 2059.62 976.836 2068.37 976.486 2077.11 975.785 2086.21 974.732 2094.61 973.33 2103.71 971.577 2112.46 970.525 2121.2 969.472 2129.95 969.823 2138.7 971.226 2147.45 974.031 2156.55 978.239 2164.94 983.85 2173.69 989.812 2182.79 995.773 2191.54 1001.73 2200.29 1006.64 2209.03 1009.45 2217.78 1010.5 2226.88 1008.05 2235.98 1001.03 2245.43 990.513 2254.52 977.889 2263.62 963.511 2272.37 947.73 2281.82 931.248 2290.92 914.065 2300.01 896.531 2309.11 878.295 2318.21 860.06 2327.65 841.123 2336.4 822.186 2345.5 802.899 2354.95 783.611 2364.05 764.324 2373.14 745.036 2382.24 725.749 2391.34 708.917 2400.44 700.5 2409.54 704.708 2418.64 718.034 2427.73 739.776 2437.18 765.025 2446.28 791.677 2455.38 818.68 2464.47 845.331 2473.57 871.282 2482.67 895.479 2491.77 910.909 2500.86 901.089 2510.31 886.711 2519.41 870.229 2528.86 852.696 2537.96 835.161 2547.4 817.628 2556.5 807.107" stroke="#FF0000" stroke-width="0.700131" stroke-linecap="round" stroke-linejoin="round" stroke-miterlimit="10" fill="none" fill-rule="evenodd"/><path d="M1930.5 911.014 1939.6 900.137 1949.05 886.804 1958.14 872.42 1967.24 857.333 1976.69 841.895 1985.79 837.685 1995.23 820.142 2004.33 800.494 2013.43 784.355 2022.88 778.39 2031.98 780.495 2041.07 786.109 2050.17 791.372 2059.62 793.477 2068.37 793.126 2077.11 791.723 2086.21 790.319 2094.61 788.565 2103.71 787.863 2112.46 790.67 2121.2 800.845 2129.95 816.633 2138.7 835.58 2147.45 855.579 2156.55 876.279 2164.94 897.33 2173.69 918.381 2182.79 938.731 2191.54 958.028 2200.29 974.168 2209.03 983.992 2217.78 987.5 2226.88 983.992 2235.98 975.571 2245.43 963.993 2254.52 951.713 2263.62 941.889 2272.37 938.731 2281.82 931.363 2290.92 914.172 2300.01 896.629 2309.11 878.384 2318.21 860.14 2327.65 841.193 2336.4 822.247 2345.5 802.95 2354.95 783.653 2364.05 764.356 2373.14 745.059 2382.24 725.762 2391.34 708.921 2400.44 700.5 2409.54 704.71 2418.64 718.043 2427.73 739.796 2437.18 765.057 2446.28 791.723 2455.38 818.739 2464.47 845.404 2473.57 871.367 2482.67 895.576 2491.77 911.014 2500.86 901.19 2510.31 882.244 2519.41 861.192 2528.86 839.439 2537.96 816.984 2547.4 794.88 2556.5 784.706" stroke="#FF0000" stroke-width="0.700131" stroke-linecap="round" stroke-linejoin="round" stroke-miterlimit="10" fill="none" fill-rule="evenodd"/><path d="M1930 1750 2556 1750 2556 697 1930 697 1930 1750" stroke="#000000" stroke-width="2.4501" stroke-linecap="round" stroke-linejoin="round" stroke-miterlimit="10" fill="none" fill-rule="evenodd"/></g></svg>