<svg width="1651" height="1158" xmlns="http://www.w3.org/2000/svg" xmlns:xlink="http://www.w3.org/1999/xlink" overflow="hidden"><defs><clipPath id="clip0"><rect x="1373" y="658" width="1651" height="1158"/></clipPath></defs><g clip-path="url(#clip0)" transform="translate(-1373 -658)"><path d="M1373.5 658.5 3023.5 658.5 3023.5 1813.5 1373.5 1813.5Z" stroke="#000000" stroke-width="0.499836" stroke-linecap="round" stroke-linejoin="round" stroke-miterlimit="10" fill="none" fill-rule="evenodd"/><path d="M1537 1717 1551 1717" stroke="#000000" stroke-width="2.4999" stroke-linecap="round" stroke-linejoin="round" stroke-miterlimit="10" fill="none" fill-rule="evenodd"/><path d="M2969 1717 2954 1717" stroke="#000000" stroke-width="2.4999" stroke-linecap="round" stroke-linejoin="round" stroke-miterlimit="10" fill="none" fill-rule="evenodd"/><path d="M1501.5 1716.76 1501.5 1714.31 1502 1712.35 1502.5 1710.39 1503 1708.93 1504 1707.46 1505 1706.48 1506 1705.99 1507.5 1705.5 1509 1705.5 1511 1705.5 1512.5 1705.99 1513.5 1706.97 1514.5 1708.44 1515.5 1709.9 1516 1711.37 1516.5 1713.82 1516.5 1716.76 1516.5 1719.2 1516 1721.65 1515.5 1723.12 1515 1725.08 1514 1726.05 1513 1727.03 1512 1727.52 1510.5 1728.01 1509 1728.5 1507 1728.01 1505 1727.52 1504 1726.05 1502 1722.14 1501.5 1716.76ZM1504.5 1716.76 1504.5 1719.2 1505 1721.16 1505 1723.12 1506 1724.1 1506.5 1725.08 1508 1725.56 1509 1725.56 1510 1725.56 1511.5 1725.08 1512 1724.1 1513 1723.12 1513 1721.16 1513.5 1719.2 1513.5 1716.76 1513.5 1714.31 1513 1712.35 1513 1710.88 1512.5 1709.9 1511.5 1708.93 1510.5 1708.44 1509 1707.95 1508 1707.95 1506.5 1708.93 1506 1709.42 1505.5 1710.88 1505 1712.35 1504.5 1714.31 1504.5 1716.76Z" stroke="#000000" stroke-width="0.499836" stroke-linecap="round" stroke-linejoin="round" stroke-miterlimit="10" fill-rule="evenodd"/><path d="M1537 1547 1551 1547" stroke="#000000" stroke-width="2.4999" stroke-linecap="round" stroke-linejoin="round" stroke-miterlimit="10" fill="none" fill-rule="evenodd"/><path d="M2969 1547 2954 1547" stroke="#000000" stroke-width="2.4999" stroke-linecap="round" stroke-linejoin="round" stroke-miterlimit="10" fill="none" fill-rule="evenodd"/><path d="M1475.5 1547 1475.5 1544.5 1475.5 1542.5 1476 1540.5 1477 1539 1477.5 1537.5 1478.5 1536.5 1480 1536 1481 1535.5 1483 1535.5 1484.5 1535.5 1486 1536 1487.5 1537 1488.5 1538 1489 1540 1490 1541.5 1490 1544 1490.5 1547 1490 1549.5 1490 1552 1489.5 1553.5 1489 1555 1488 1556.5 1487 1557.5 1486 1558 1484.5 1558.5 1483 1558.5 1480.5 1558.5 1479 1558 1477.5 1556.5 1476 1552.5 1475.5 1547ZM1478.5 1547 1478.5 1549.5 1478.5 1551.5 1479 1553.5 1479.5 1554.5 1480.5 1555.5 1481.5 1556 1483 1556 1484 1556 1485 1555.5 1486 1554.5 1486.5 1553 1487 1551.5 1487 1549.5 1487.5 1547 1487 1544.5 1487 1542.5 1486.5 1541 1486 1540 1485 1539 1484 1538 1483 1538 1481.5 1538 1480.5 1538.5 1479.5 1539.5 1479 1541 1478.5 1542.5 1478.5 1544.5 1478.5 1547Z" stroke="#000000" stroke-width="0.499836" stroke-linecap="round" stroke-linejoin="round" stroke-miterlimit="10" fill-rule="evenodd"/><path d="M1494.5 1558.5 1494.5 1555.5 1497.5 1555.5 1497.5 1558.5 1494.5 1558.5Z" stroke="#000000" stroke-width="0.499836" stroke-linecap="round" stroke-linejoin="round" stroke-miterlimit="10" fill-rule="evenodd"/><path d="M1501.5 1552.5 1504.5 1552 1505 1554 1506 1555 1507 1556 1509 1556 1510 1556 1511.5 1555.5 1512.5 1554.5 1513 1553.5 1513.5 1552 1513.5 1550.5 1513.5 1549.5 1513 1548 1512.5 1547 1511.5 1546.5 1510.5 1546 1509 1545.5 1507.5 1546 1506.5 1546.5 1505.5 1547 1505 1547.5 1502 1547.5 1504 1535.5 1515 1535.5 1515 1538.5 1506.5 1538.5 1505.5 1544.5 1507.5 1543.5 1509.5 1543 1511.5 1543.5 1513 1544 1514.5 1545 1515.5 1546.5 1516.5 1548.5 1516.5 1550.5 1516.5 1552.5 1515.5 1554.5 1514.5 1556 1513 1557.5 1511 1558.5 1509 1558.5 1507 1558.5 1505 1558 1503.5 1557 1502.5 1555.5 1502 1554 1501.5 1552.5Z" stroke="#000000" stroke-width="0.499836" stroke-linecap="round" stroke-linejoin="round" stroke-miterlimit="10" fill-rule="evenodd"/><path d="M1537 1377 1551 1377" stroke="#000000" stroke-width="2.4999" stroke-linecap="round" stroke-linejoin="round" stroke-miterlimit="10" fill="none" fill-rule="evenodd"/><path d="M2969 1377 2954 1377" stroke="#000000" stroke-width="2.4999" stroke-linecap="round" stroke-linejoin="round" stroke-miterlimit="10" fill="none" fill-rule="evenodd"/><path d="M1512.5 1388.5 1509.32 1388.5 1509.32 1370.5 1507.74 1371.5 1506.68 1372.5 1505.09 1373 1503.5 1374 1503.5 1371 1505.62 1370 1507.74 1368.5 1509.32 1367 1510.38 1365.5 1512.5 1365.5 1512.5 1388.5Z" stroke="#000000" stroke-width="0.499836" stroke-linecap="round" stroke-linejoin="round" stroke-miterlimit="10" fill-rule="evenodd"/><path d="M1537 1207 1551 1207" stroke="#000000" stroke-width="2.4999" stroke-linecap="round" stroke-linejoin="round" stroke-miterlimit="10" fill="none" fill-rule="evenodd"/><path d="M2969 1207 2954 1207" stroke="#000000" stroke-width="2.4999" stroke-linecap="round" stroke-linejoin="round" stroke-miterlimit="10" fill="none" fill-rule="evenodd"/><path d="M1485.5 1218.5 1482.5 1218.5 1482.5 1200.5 1481.5 1201.5 1480 1202.5 1478.5 1203 1477.5 1204 1477.5 1201 1479.5 1200 1481.5 1198.5 1482.5 1197 1483.5 1195.5 1485.5 1195.5 1485.5 1218.5Z" stroke="#000000" stroke-width="0.499836" stroke-linecap="round" stroke-linejoin="round" stroke-miterlimit="10" fill-rule="evenodd"/><path d="M1494.5 1218.5 1494.5 1215.5 1497.5 1215.5 1497.5 1218.5 1494.5 1218.5Z" stroke="#000000" stroke-width="0.499836" stroke-linecap="round" stroke-linejoin="round" stroke-miterlimit="10" fill-rule="evenodd"/><path d="M1501.5 1212.5 1504.5 1212 1505 1213.5 1506 1215 1507 1215.5 1509 1216 1510 1216 1511.5 1215.5 1512.5 1214.5 1513 1213.5 1513.5 1212 1513.5 1210.5 1513.5 1209 1513 1208 1512.5 1207 1511.5 1206 1510.5 1206 1509 1205.5 1507.5 1206 1506.5 1206 1505.5 1207 1505 1207.5 1502 1207.5 1504 1195.5 1515 1195.5 1515 1198.5 1506.5 1198.5 1505.5 1204.5 1507.5 1203.5 1509.5 1203 1511.5 1203 1513 1204 1514.5 1205 1515.5 1206.5 1516.5 1208.5 1516.5 1210.5 1516.5 1212.5 1515.5 1214 1514.5 1216 1513 1217.5 1511 1218.5 1509 1218.5 1507 1218.5 1505 1218 1503.5 1217 1502.5 1215.5 1502 1214 1501.5 1212.5Z" stroke="#000000" stroke-width="0.499836" stroke-linecap="round" stroke-linejoin="round" stroke-miterlimit="10" fill-rule="evenodd"/><path d="M1537 1037 1551 1037" stroke="#000000" stroke-width="2.4999" stroke-linecap="round" stroke-linejoin="round" stroke-miterlimit="10" fill="none" fill-rule="evenodd"/><path d="M2969 1037 2954 1037" stroke="#000000" stroke-width="2.4999" stroke-linecap="round" stroke-linejoin="round" stroke-miterlimit="10" fill="none" fill-rule="evenodd"/><path d="M1516.5 1045.44 1516.5 1048.5 1501.5 1048.5 1502 1045.95 1502.5 1044.41 1503.5 1042.88 1505 1041.35 1507 1039.31 1509.5 1037.27 1511 1035.73 1512 1034.71 1513 1032.67 1513.5 1031.14 1513 1029.6 1512 1028.58 1511 1027.56 1509.5 1027.56 1507.5 1027.56 1506 1028.58 1505.5 1029.6 1505 1031.65 1502 1031.14 1502.5 1029.1 1503 1027.56 1504 1026.54 1505.5 1025.52 1507.5 1025.01 1509.5 1024.5 1511.5 1025.01 1513 1025.52 1514.5 1026.54 1515.5 1028.07 1516 1029.6 1516.5 1031.14 1516 1032.67 1516 1034.2 1515 1035.22 1514 1036.76 1513 1037.78 1512 1039.31 1510 1040.84 1508.5 1041.86 1507.5 1042.88 1507 1043.9 1505.5 1045.44 1516.5 1045.44Z" stroke="#000000" stroke-width="0.499836" stroke-linecap="round" stroke-linejoin="round" stroke-miterlimit="10" fill-rule="evenodd"/><path d="M1537 867 1551 867" stroke="#000000" stroke-width="2.4999" stroke-linecap="round" stroke-linejoin="round" stroke-miterlimit="10" fill="none" fill-rule="evenodd"/><path d="M2969 867 2954 867" stroke="#000000" stroke-width="2.4999" stroke-linecap="round" stroke-linejoin="round" stroke-miterlimit="10" fill="none" fill-rule="evenodd"/><path d="M1489.5 874.5 1489.5 877.5 1474.5 877.5 1474.5 875.5 1475.5 874 1476.5 872.5 1478 871 1480 869 1482 867 1484 865.5 1485 864.5 1486 862.5 1486 861 1486 859.5 1485 858.5 1483.5 857.5 1482 857.5 1480.5 857.5 1479 858.5 1478 859.5 1478 861.5 1475 861 1475 859 1476 857.5 1477 856.5 1478.5 855.5 1480 855 1482 854.5 1484 855 1486 855.5 1487 856.5 1488.5 858 1489 859.5 1489 861 1489 862.5 1488.5 863.5 1488 865 1487 866.5 1486 867.5 1484.5 869 1483 870.5 1481.5 871.5 1480 872.5 1479.5 873.501 1478.5 874.5 1489.5 874.5Z" stroke="#000000" stroke-width="0.499836" stroke-linecap="round" stroke-linejoin="round" stroke-miterlimit="10" fill-rule="evenodd"/><path d="M1494.5 877.5 1494.5 874.5 1497.5 874.5 1497.5 877.5 1494.5 877.5Z" stroke="#000000" stroke-width="0.499836" stroke-linecap="round" stroke-linejoin="round" stroke-miterlimit="10" fill-rule="evenodd"/><path d="M1501.5 872 1504.5 872 1505 873.501 1506 875.001 1507 875.5 1509 876.001 1510 875.5 1511.5 875.001 1512.5 874.501 1513 873.501 1513.5 872 1513.5 870.5 1513.5 869.001 1513 868.001 1512.5 867 1511.5 866 1510.5 865.5 1509 865.5 1507.5 865.5 1506.5 866 1505.5 866.5 1505 867.5 1502 867 1504 855.5 1515 855.5 1515 858.5 1506.5 858.5 1505.5 864.5 1507.5 863.5 1509.5 863.001 1511.5 863.001 1513 864 1514.5 865 1515.5 866.5 1516.5 868.501 1516.5 870.5 1516.5 872.501 1515.5 874.001 1514.5 876.001 1513 877.5 1511 878.5 1509 878.5 1507 878.5 1505 878.001 1503.5 877.001 1502.5 875.5 1502 874.001 1501.5 872Z" stroke="#000000" stroke-width="0.499836" stroke-linecap="round" stroke-linejoin="round" stroke-miterlimit="10" fill-rule="evenodd"/><path d="M1537 697 1551 697" stroke="#000000" stroke-width="2.4999" stroke-linecap="round" stroke-linejoin="round" stroke-miterlimit="10" fill="none" fill-rule="evenodd"/><path d="M2969 697 2954 697" stroke="#000000" stroke-width="2.4999" stroke-linecap="round" stroke-linejoin="round" stroke-miterlimit="10" fill="none" fill-rule="evenodd"/><path d="M1501.5 701.862 1504.5 701.862 1505 703.394 1506 704.926 1507.5 705.436 1509 705.947 1510 705.436 1511.5 705.436 1512.5 704.415 1513 702.883 1513.5 700.841 1513 699.308 1512.5 697.777 1511 696.755 1509 696.755 1508.5 696.755 1507 696.755 1507.5 694.202 1508 694.202 1509.5 694.202 1511 693.181 1511.5 692.67 1512 691.649 1512 690.627 1512 689.606 1511 688.074 1510 687.564 1508.5 687.564 1507.5 687.564 1506 688.074 1505.5 689.606 1505 691.138 1502 690.627 1502.5 689.096 1503 687.564 1504 686.032 1505.5 685.521 1507 685.01 1508.5 684.5 1510.5 685.01 1512 685.521 1513.5 686.543 1514.5 687.564 1515 689.096 1515 690.627 1515 692.16 1514.5 693.181 1513.5 694.202 1512 695.224 1514 695.734 1515.5 697.266 1516 698.798 1516.5 700.841 1516.5 702.883 1515.5 704.926 1514.5 706.458 1513 707.479 1511 708.5 1509 708.5 1507 708.5 1505 707.989 1504 706.968 1502.5 705.436 1502 703.904 1501.5 701.862Z" stroke="#000000" stroke-width="0.499836" stroke-linecap="round" stroke-linejoin="round" stroke-miterlimit="10" fill-rule="evenodd"/><path d="M1537 1717 1537 1703" stroke="#000000" stroke-width="2.4999" stroke-linecap="round" stroke-linejoin="round" stroke-miterlimit="10" fill="none" fill-rule="evenodd"/><path d="M1537 697 1537 711" stroke="#000000" stroke-width="2.4999" stroke-linecap="round" stroke-linejoin="round" stroke-miterlimit="10" fill="none" fill-rule="evenodd"/><path d="M1515.5 1753.5 1515.5 1750.5 1524.5 1750.5 1524.5 1753.5 1515.5 1753.5Z" stroke="#000000" stroke-width="0.499836" stroke-linecap="round" stroke-linejoin="round" stroke-miterlimit="10" fill-rule="evenodd"/><path d="M1536.5 1760.5 1533.68 1760.5 1533.68 1742.5 1532.74 1743.5 1531.32 1744.5 1529.91 1745.5 1528.5 1746 1528.5 1743 1530.38 1742 1532.26 1740.5 1533.68 1739 1534.62 1737.5 1536.5 1737.5 1536.5 1760.5Z" stroke="#000000" stroke-width="0.499836" stroke-linecap="round" stroke-linejoin="round" stroke-miterlimit="10" fill-rule="evenodd"/><path d="M1544.5 1754 1547.5 1753.5 1548 1755.5 1548.5 1756.5 1550 1757.5 1551.5 1757.5 1553 1757.5 1554 1757 1555 1756 1556 1755 1556 1754 1556.5 1752.5 1556 1751 1556 1749.5 1555 1748.5 1554.5 1748 1553 1747.5 1551.5 1747.5 1550.5 1747.5 1549 1748 1548.5 1748.5 1547.5 1749.5 1544.5 1749 1547 1737.5 1558 1737.5 1558 1740.5 1549.5 1740.5 1548.5 1746 1550.5 1745 1552.5 1744.5 1554.5 1745 1556 1745.5 1557.5 1747 1558.5 1748.5 1559 1750 1559.5 1752 1559 1754 1558.5 1756 1557.5 1757.5 1556 1759 1554 1760 1551.5 1760.5 1549.5 1760 1548 1759.5 1546.5 1758.5 1545.5 1757.5 1544.5 1756 1544.5 1754Z" stroke="#000000" stroke-width="0.499836" stroke-linecap="round" stroke-linejoin="round" stroke-miterlimit="10" fill-rule="evenodd"/><path d="M1823 1717 1823 1703" stroke="#000000" stroke-width="2.4999" stroke-linecap="round" stroke-linejoin="round" stroke-miterlimit="10" fill="none" fill-rule="evenodd"/><path d="M1823 697 1823 711" stroke="#000000" stroke-width="2.4999" stroke-linecap="round" stroke-linejoin="round" stroke-miterlimit="10" fill="none" fill-rule="evenodd"/><path d="M1801.5 1753.5 1801.5 1750.5 1810.5 1750.5 1810.5 1753.5 1801.5 1753.5Z" stroke="#000000" stroke-width="0.499836" stroke-linecap="round" stroke-linejoin="round" stroke-miterlimit="10" fill-rule="evenodd"/><path d="M1823.5 1760.5 1820.32 1760.5 1820.32 1742.5 1819.26 1743.5 1817.68 1744.5 1816.09 1745.5 1814.5 1746 1814.5 1743 1816.62 1742 1818.74 1740.5 1820.32 1739 1821.38 1737.5 1823.5 1737.5 1823.5 1760.5Z" stroke="#000000" stroke-width="0.499836" stroke-linecap="round" stroke-linejoin="round" stroke-miterlimit="10" fill-rule="evenodd"/><path d="M1830.5 1748.76 1830.5 1746.31 1830.5 1744.35 1831 1742.39 1832 1740.93 1832.5 1739.46 1833.5 1738.48 1835 1737.99 1836 1737.5 1838 1737.5 1839.5 1737.5 1841 1737.99 1842.5 1738.97 1843.5 1740.44 1844 1741.91 1845 1743.86 1845 1745.82 1845.5 1748.76 1845 1751.2 1845 1753.65 1844.5 1755.61 1844 1757.08 1843 1758.05 1842 1759.03 1841 1760.01 1839.5 1760.01 1838 1760.5 1835.5 1760.01 1834 1759.52 1832.5 1758.05 1831 1754.63 1830.5 1748.76ZM1833.5 1748.76 1833.5 1751.2 1833.5 1753.65 1834 1755.12 1834.5 1756.1 1835.5 1757.08 1836.5 1757.56 1838 1757.56 1839 1757.56 1840 1757.08 1841 1756.1 1841.5 1755.12 1842 1753.65 1842 1751.2 1842.5 1748.76 1842 1746.31 1842 1744.35 1841.5 1742.88 1841 1741.91 1840 1740.93 1839 1740.44 1838 1739.95 1836.5 1740.44 1835.5 1740.93 1834.5 1741.42 1834 1742.88 1833.5 1744.35 1833.5 1746.31 1833.5 1748.76Z" stroke="#000000" stroke-width="0.499836" stroke-linecap="round" stroke-linejoin="round" stroke-miterlimit="10" fill-rule="evenodd"/><path d="M2110 1717 2110 1703" stroke="#000000" stroke-width="2.4999" stroke-linecap="round" stroke-linejoin="round" stroke-miterlimit="10" fill="none" fill-rule="evenodd"/><path d="M2110 697 2110 711" stroke="#000000" stroke-width="2.4999" stroke-linecap="round" stroke-linejoin="round" stroke-miterlimit="10" fill="none" fill-rule="evenodd"/><path d="M2096.5 1753.5 2096.5 1750.5 2105.5 1750.5 2105.5 1753.5 2096.5 1753.5Z" stroke="#000000" stroke-width="0.499836" stroke-linecap="round" stroke-linejoin="round" stroke-miterlimit="10" fill-rule="evenodd"/><path d="M2107.5 1754 2110.5 1753.5 2111 1755.5 2112 1756.5 2113.5 1757.5 2115 1757.5 2116.5 1757.5 2117.5 1757 2118.5 1756 2119 1755 2119.5 1754 2119.5 1752.5 2119.5 1751 2119 1749.5 2118.5 1748.5 2117.5 1748 2116.5 1747.5 2115 1747.5 2113.5 1747.5 2112.5 1748 2111.5 1748.5 2111 1749.5 2108 1749 2110.5 1737.5 2121.5 1737.5 2121.5 1740.5 2113 1740.5 2111.5 1746 2113.5 1745 2116 1744.5 2117.5 1745 2119.5 1745.5 2120.5 1747 2122 1748.5 2122.5 1750 2122.5 1752 2122.5 1754 2122 1756 2121 1757.5 2119.5 1759 2117.5 1760 2115 1760.5 2113 1760 2111.5 1759.5 2110 1758.5 2109 1757.5 2108 1756 2107.5 1754Z" stroke="#000000" stroke-width="0.499836" stroke-linecap="round" stroke-linejoin="round" stroke-miterlimit="10" fill-rule="evenodd"/><path d="M2396 1717 2396 1703" stroke="#000000" stroke-width="2.4999" stroke-linecap="round" stroke-linejoin="round" stroke-miterlimit="10" fill="none" fill-rule="evenodd"/><path d="M2396 697 2396 711" stroke="#000000" stroke-width="2.4999" stroke-linecap="round" stroke-linejoin="round" stroke-miterlimit="10" fill="none" fill-rule="evenodd"/><path d="M2393.5 1748.76 2393.5 1746.31 2393.5 1744.35 2394 1742.39 2395 1740.93 2395.5 1739.46 2396.5 1738.48 2398 1737.99 2399 1737.5 2401 1737.5 2402.5 1737.5 2404 1737.99 2405.5 1738.97 2406.5 1740.44 2407 1741.91 2408 1743.86 2408 1745.82 2408.5 1748.76 2408 1751.2 2408 1753.65 2407.5 1755.61 2407 1757.08 2406 1758.05 2405 1759.03 2404 1760.01 2402.5 1760.01 2401 1760.5 2398.5 1760.01 2397 1759.52 2395.5 1758.05 2394 1754.63 2393.5 1748.76ZM2396.5 1748.76 2396.5 1751.2 2396.5 1753.65 2397 1755.12 2397.5 1756.1 2398.5 1757.08 2399.5 1757.56 2401 1757.56 2402 1757.56 2403 1757.08 2404 1756.1 2404.5 1755.12 2405 1753.65 2405 1751.2 2405.5 1748.76 2405 1746.31 2405 1744.35 2404.5 1742.88 2404 1741.91 2403 1740.93 2402 1740.44 2401 1739.95 2399.5 1740.44 2398.5 1740.93 2397.5 1741.42 2397 1742.88 2396.5 1744.35 2396.5 1746.31 2396.5 1748.76Z" stroke="#000000" stroke-width="0.499836" stroke-linecap="round" stroke-linejoin="round" stroke-miterlimit="10" fill-rule="evenodd"/><path d="M2682 1717 2682 1703" stroke="#000000" stroke-width="2.4999" stroke-linecap="round" stroke-linejoin="round" stroke-miterlimit="10" fill="none" fill-rule="evenodd"/><path d="M2682 697 2682 711" stroke="#000000" stroke-width="2.4999" stroke-linecap="round" stroke-linejoin="round" stroke-miterlimit="10" fill="none" fill-rule="evenodd"/><path d="M2679.5 1754 2682.5 1753.5 2683 1755.5 2684 1756.5 2685 1757.5 2687 1757.5 2688 1757.5 2689.5 1757 2690.5 1756 2691 1755 2691.5 1754 2691.5 1752.5 2691.5 1751 2691 1749.5 2690.5 1748.5 2689.5 1748 2688.5 1747.5 2687 1747.5 2685.5 1747.5 2684.5 1748 2683.5 1748.5 2683 1749.5 2680 1749 2682 1737.5 2693 1737.5 2693 1740.5 2684.5 1740.5 2683.5 1746 2685.5 1745 2687.5 1744.5 2689.5 1745 2691 1745.5 2692.5 1747 2693.5 1748.5 2694.5 1750 2694.5 1752 2694.5 1754 2693.5 1756 2692.5 1757.5 2691 1759 2689 1760 2687 1760.5 2685 1760 2683 1759.5 2681.5 1758.5 2680.5 1757.5 2680 1756 2679.5 1754Z" stroke="#000000" stroke-width="0.499836" stroke-linecap="round" stroke-linejoin="round" stroke-miterlimit="10" fill-rule="evenodd"/><path d="M2969 1717 2969 1703" stroke="#000000" stroke-width="2.4999" stroke-linecap="round" stroke-linejoin="round" stroke-miterlimit="10" fill="none" fill-rule="evenodd"/><path d="M2969 697 2969 711" stroke="#000000" stroke-width="2.4999" stroke-linecap="round" stroke-linejoin="round" stroke-miterlimit="10" fill="none" fill-rule="evenodd"/><path d="M2967.5 1760.5 2964.68 1760.5 2964.68 1742.5 2963.73 1743.5 2962.32 1744.5 2960.91 1745.5 2959.5 1746 2959.5 1743 2961.38 1742 2963.27 1740.5 2964.68 1739 2965.62 1737.5 2967.5 1737.5 2967.5 1760.5Z" stroke="#000000" stroke-width="0.499836" stroke-linecap="round" stroke-linejoin="round" stroke-miterlimit="10" fill-rule="evenodd"/><path d="M2975.5 1748.76 2975.5 1746.31 2975.5 1744.35 2976 1742.39 2977 1740.93 2977.5 1739.46 2978.5 1738.48 2980 1737.99 2981 1737.5 2983 1737.5 2984.5 1737.5 2986 1737.99 2987.5 1738.97 2988.5 1740.44 2989 1741.91 2990 1743.86 2990 1745.82 2990.5 1748.76 2990.5 1751.2 2990 1753.65 2989.5 1755.61 2989 1757.08 2988 1758.05 2987 1759.03 2986 1760.01 2984.5 1760.01 2983 1760.5 2981 1760.01 2979 1759.52 2977.5 1758.05 2976 1754.63 2975.5 1748.76ZM2978.5 1748.76 2978.5 1751.2 2978.5 1753.65 2979 1755.12 2979.5 1756.1 2980.5 1757.08 2981.5 1757.56 2983 1757.56 2984 1757.56 2985 1757.08 2986 1756.1 2986.5 1755.12 2987 1753.65 2987.5 1751.2 2987.5 1748.76 2987.5 1746.31 2987 1744.35 2986.5 1742.88 2986 1741.91 2985 1740.93 2984 1740.44 2983 1739.95 2981.5 1740.44 2980.5 1740.93 2979.5 1741.42 2979 1742.88 2978.5 1744.35 2978.5 1746.31 2978.5 1748.76Z" stroke="#000000" stroke-width="0.499836" stroke-linecap="round" stroke-linejoin="round" stroke-miterlimit="10" fill-rule="evenodd"/><path d="M1537 1717 2969 1717 2969 697 1537 697 1537 1717" stroke="#000000" stroke-width="2.4999" stroke-linecap="round" stroke-linejoin="round" stroke-miterlimit="10" fill="none" fill-rule="evenodd"/><path d="M1416.5 1321.5 1393.5 1321.5 1393.5 1313.5 1393.99 1311 1393.99 1309.5 1394.48 1307.5 1395.46 1306 1397.42 1304.5 1399.37 1303.5 1401.82 1303 1404.76 1302.5 1407.2 1302.5 1409.65 1303 1411.12 1304 1412.59 1304.5 1414.05 1305.5 1414.54 1306.5 1415.52 1308 1416.01 1309.5 1416.01 1311 1416.5 1313 1416.5 1321.5ZM1413.56 1318 1413.56 1313.5 1413.56 1311.5 1413.07 1310 1412.59 1308.5 1412.1 1308 1410.63 1307 1409.16 1306 1407.2 1305.5 1404.76 1305.5 1402.8 1305.5 1400.84 1306 1399.37 1306.5 1397.9 1308 1396.93 1309.5 1396.44 1311 1396.44 1313.5 1396.44 1318 1413.56 1318Z" stroke="#000000" stroke-width="0.499836" stroke-linecap="round" stroke-linejoin="round" stroke-miterlimit="10" fill-rule="evenodd"/><path d="M1405.24 1299.5 1400.35 1298.99 1396.44 1296.43 1394.97 1294.9 1393.99 1292.85 1393.5 1290.8 1393.5 1288.76 1393.5 1286.71 1393.99 1284.66 1394.97 1282.61 1395.95 1281.08 1397.42 1280.06 1398.88 1279.03 1400.84 1278.01 1402.8 1277.5 1405.24 1277.5 1407.2 1277.5 1409.16 1278.01 1411.12 1279.03 1412.59 1280.06 1414.05 1281.08 1415.03 1283.13 1416.5 1285.69 1416.5 1288.76 1416.5 1290.8 1416.01 1292.85 1415.03 1294.39 1414.05 1295.92 1412.59 1297.45 1411.12 1298.48 1408.18 1299.5 1405.24 1299.5ZM1405.24 1296.43 1407.69 1296.43 1410.14 1295.41 1411.61 1294.39 1413.07 1292.85 1413.56 1290.8 1414.05 1288.76 1413.56 1286.2 1413.07 1284.66 1411.61 1282.61 1409.65 1281.59 1407.69 1280.57 1405.24 1280.57 1402.31 1280.57 1400.35 1281.59 1398.39 1282.61 1396.93 1284.15 1396.44 1286.2 1395.95 1288.76 1396.44 1290.8 1396.93 1292.34 1398.39 1294.39 1399.37 1295.41 1400.84 1295.92 1402.8 1296.43 1405.24 1296.43Z" stroke="#000000" stroke-width="0.499836" stroke-linecap="round" stroke-linejoin="round" stroke-miterlimit="10" fill-rule="evenodd"/><path d="M1408.67 1274.5 1408.67 1271.5 1410.14 1271.5 1411.61 1270.5 1412.59 1270 1413.07 1268.5 1414.05 1267 1414.05 1265 1414.05 1263.5 1413.56 1262 1412.59 1261 1412.1 1260 1411.12 1259.5 1410.14 1259.5 1409.16 1259.5 1408.18 1260 1407.69 1261 1407.2 1262 1406.71 1263 1406.22 1264.5 1405.73 1266 1405.24 1268.5 1404.27 1270.5 1403.78 1272 1402.31 1273 1400.84 1273.5 1399.37 1273.5 1397.9 1273.5 1396.44 1272.5 1394.97 1271.5 1393.99 1270 1393.5 1268 1393.5 1265.5 1393.5 1263.5 1393.99 1261.5 1395.46 1259.5 1396.44 1258.5 1398.39 1257.5 1400.35 1257.5 1400.35 1260.5 1398.88 1260.5 1397.9 1261 1396.93 1262 1396.44 1263 1395.95 1264 1395.95 1265.5 1395.95 1267 1396.44 1268.5 1396.93 1269.5 1397.9 1270.5 1399.37 1270.5 1400.35 1270.5 1401.33 1270 1401.82 1269 1402.31 1267.5 1402.8 1265.5 1403.29 1263.5 1403.78 1261.5 1404.27 1260.5 1405.24 1259 1406.71 1257.5 1408.18 1257 1410.14 1256.5 1411.61 1257 1413.07 1257.5 1414.54 1259 1415.52 1260.5 1416.5 1262.5 1416.5 1265 1416.5 1268 1415.52 1270 1414.54 1272 1412.59 1273.5 1410.63 1274.5 1408.67 1274.5Z" stroke="#000000" stroke-width="0.499836" stroke-linecap="round" stroke-linejoin="round" stroke-miterlimit="10" fill-rule="evenodd"/><path d="M1422.5 1237.5 1419.55 1240 1416.11 1241.5 1412.18 1243 1408.25 1243.5 1404.81 1243 1401.36 1242 1397.43 1240.5 1393.5 1237.5 1393.5 1235.5 1395.47 1237 1396.94 1237.5 1398.42 1238 1400.38 1239 1402.35 1239.5 1405.3 1240 1408.25 1240.5 1415.62 1239 1422.5 1235.5 1422.5 1237.5Z" stroke="#000000" stroke-width="0.499836" stroke-linecap="round" stroke-linejoin="round" stroke-miterlimit="10" fill-rule="evenodd"/><path d="M1411.64 1233.5 1411.16 1230.61 1412.13 1230.61 1413.1 1229.65 1414.07 1228.2 1414.07 1226.76 1414.07 1225.32 1413.1 1224.35 1412.61 1223.39 1411.64 1223.39 1411.16 1223.87 1410.19 1224.35 1410.19 1225.32 1409.7 1227.24 1408.73 1229.17 1408.24 1231.09 1407.76 1232.05 1406.79 1232.54 1405.81 1233.02 1404.36 1233.5 1403.39 1233.02 1402.41 1233.02 1401.44 1232.54 1400.96 1231.57 1400.47 1231.09 1399.99 1230.13 1399.99 1228.68 1399.5 1227.72 1399.99 1225.8 1400.47 1224.35 1400.96 1223.39 1401.93 1222.43 1402.9 1221.95 1404.36 1221.46 1404.84 1224.35 1403.87 1224.84 1402.9 1225.32 1402.41 1226.28 1402.41 1227.24 1402.41 1228.68 1402.9 1229.65 1403.39 1230.13 1404.36 1230.61 1404.84 1230.13 1405.81 1229.17 1405.81 1228.68 1406.3 1227.24 1406.79 1224.84 1407.76 1223.39 1408.24 1221.95 1409.21 1221.46 1410.19 1220.5 1411.64 1220.5 1412.61 1220.5 1414.07 1221.46 1415.04 1222.43 1416.01 1223.39 1416.5 1225.32 1416.5 1226.76 1416.5 1228.68 1416.01 1230.13 1415.53 1231.57 1414.07 1232.54 1413.1 1233.02 1411.64 1233.5Z" stroke="#000000" stroke-width="0.499836" stroke-linecap="round" stroke-linejoin="round" stroke-miterlimit="10" fill-rule="evenodd"/><path d="M1414.06 1211 1416.5 1210.5 1416.5 1211.5 1416.5 1212.5 1416.5 1214 1416.01 1215 1415.52 1215.5 1415.03 1216 1414.06 1216.5 1413.08 1216.5 1411.61 1216.5 1402.32 1216.5 1402.32 1218.5 1399.88 1218.5 1399.88 1216.5 1395.97 1216.5 1394.5 1213.5 1399.88 1213.5 1399.88 1211 1402.32 1211 1402.32 1213.5 1411.61 1213.5 1412.59 1213.5 1413.08 1213.5 1413.57 1213 1414.06 1212 1414.06 1211Z" stroke="#000000" stroke-width="0.499836" stroke-linecap="round" stroke-linejoin="round" stroke-miterlimit="10" fill-rule="evenodd"/><path d="M1414.56 1197.5 1415.53 1199 1416.01 1200 1416.5 1201.5 1416.5 1203 1416.5 1204.5 1416.01 1206 1415.53 1207 1414.56 1207.5 1413.1 1208 1412.13 1208.5 1410.67 1208 1409.7 1208 1408.73 1207 1408.24 1206.5 1407.76 1205.5 1407.27 1204.5 1407.27 1203.5 1406.79 1202.5 1406.3 1199.5 1405.81 1197.5 1405.33 1197.5 1403.87 1198 1403.39 1198.5 1402.41 1199.5 1402.41 1201 1402.41 1202.5 1402.9 1203.5 1403.87 1204.5 1404.84 1205 1404.84 1208 1402.9 1207.5 1401.93 1206.5 1400.96 1205.5 1400.47 1204.5 1399.99 1202.5 1399.5 1200.5 1399.99 1198.5 1399.99 1197 1400.96 1196 1401.44 1195.5 1402.41 1194.5 1403.39 1194.5 1404.36 1194.5 1405.81 1194.5 1409.21 1194.5 1411.16 1194 1413.1 1194 1414.07 1194 1416.5 1193.5 1416.5 1196.5 1415.53 1197 1414.56 1197.5ZM1408.73 1197.5 1409.21 1199.5 1409.21 1201.5 1409.7 1203 1409.7 1204 1410.19 1204.5 1410.67 1205 1411.64 1205.5 1412.61 1205 1413.59 1204.5 1414.07 1203.5 1414.07 1202.5 1414.07 1201 1413.59 1199.5 1412.61 1198.5 1411.64 1198 1410.67 1197.5 1409.21 1197.5 1408.73 1197.5Z" stroke="#000000" stroke-width="0.499836" stroke-linecap="round" stroke-linejoin="round" stroke-miterlimit="10" fill-rule="evenodd"/><path d="M1414.06 1183.97 1416.5 1183.5 1416.5 1184.91 1416.5 1185.85 1416.5 1186.79 1416.01 1187.73 1415.52 1188.68 1415.03 1189.14 1414.06 1189.14 1413.08 1189.14 1411.61 1189.14 1402.32 1189.14 1402.32 1191.5 1399.88 1191.5 1399.88 1189.14 1395.97 1189.14 1394.5 1186.32 1399.88 1186.32 1399.88 1183.97 1402.32 1183.97 1402.32 1186.32 1411.61 1186.32 1412.59 1186.32 1413.08 1186.32 1413.57 1185.85 1414.06 1184.91 1414.06 1183.97Z" stroke="#000000" stroke-width="0.499836" stroke-linecap="round" stroke-linejoin="round" stroke-miterlimit="10" fill-rule="evenodd"/><path d="M1411.64 1169.6 1411.64 1166.5 1413.1 1167.01 1414.56 1168.05 1415.53 1169.08 1416.01 1170.63 1416.5 1172.18 1416.5 1174.24 1416.5 1176.3 1415.53 1178.37 1414.56 1179.92 1412.61 1181.47 1410.67 1181.98 1408.24 1182.5 1405.81 1181.98 1403.87 1181.47 1401.93 1179.92 1400.96 1178.37 1399.99 1176.82 1399.5 1174.24 1399.99 1172.18 1400.47 1170.11 1401.93 1168.57 1403.39 1167.53 1405.81 1167.01 1408.24 1166.5 1408.73 1166.5 1408.73 1179.4 1410.19 1178.89 1411.64 1178.37 1412.61 1177.86 1413.59 1176.82 1414.07 1175.28 1414.07 1174.24 1414.07 1172.69 1413.59 1171.66 1412.61 1170.63 1411.64 1169.6ZM1406.3 1179.4 1406.3 1169.6 1404.84 1170.11 1403.87 1170.63 1402.9 1171.66 1402.41 1173.21 1402.41 1174.24 1402.41 1176.3 1403.39 1177.86 1404.84 1178.89 1406.3 1179.4Z" stroke="#000000" stroke-width="0.499836" stroke-linecap="round" stroke-linejoin="round" stroke-miterlimit="10" fill-rule="evenodd"/><path d="M1411.64 1164.5 1411.16 1161.39 1412.13 1161.39 1413.1 1160.35 1414.07 1158.8 1414.07 1157.24 1414.07 1155.69 1413.1 1154.65 1412.61 1153.61 1411.64 1153.61 1411.16 1154.13 1410.19 1154.65 1410.19 1155.69 1409.7 1157.76 1408.73 1159.83 1408.24 1161.91 1407.76 1162.94 1406.79 1163.46 1405.81 1163.98 1404.36 1164.5 1403.39 1163.98 1402.41 1163.98 1401.44 1163.46 1400.96 1162.43 1400.47 1161.39 1399.99 1160.87 1399.99 1159.31 1399.5 1158.28 1399.99 1156.2 1400.47 1154.65 1400.96 1153.61 1401.93 1152.57 1402.9 1152.06 1404.36 1151.54 1404.84 1154.65 1403.87 1155.17 1402.9 1155.69 1402.41 1156.72 1402.41 1157.76 1402.41 1159.31 1402.9 1160.35 1403.39 1160.87 1404.36 1161.39 1404.84 1160.87 1405.81 1159.83 1405.81 1159.31 1406.3 1157.76 1406.79 1155.17 1407.76 1153.61 1408.24 1152.06 1409.21 1151.54 1410.19 1150.5 1411.64 1150.5 1412.61 1150.5 1414.07 1151.54 1415.04 1152.57 1416.01 1153.61 1416.5 1155.69 1416.5 1157.24 1416.5 1159.31 1416.01 1160.87 1415.53 1162.43 1414.07 1163.46 1413.1 1163.98 1411.64 1164.5Z" stroke="#000000" stroke-width="0.499836" stroke-linecap="round" stroke-linejoin="round" stroke-miterlimit="10" fill-rule="evenodd"/><path d="M1416.5 1149.5 1393.5 1143 1393.5 1140.5 1416.5 1147 1416.5 1149.5Z" stroke="#000000" stroke-width="0.499836" stroke-linecap="round" stroke-linejoin="round" stroke-miterlimit="10" fill-rule="evenodd"/><path d="M1411.64 1127.11 1411.64 1124.01 1413.1 1124.53 1414.56 1125.57 1415.53 1126.59 1416.01 1128.14 1416.5 1129.69 1416.5 1131.24 1416.5 1133.82 1415.53 1135.89 1414.56 1137.44 1412.61 1138.47 1410.67 1139.5 1408.24 1139.5 1405.81 1139.5 1403.87 1138.47 1401.93 1137.44 1400.96 1135.89 1399.99 1133.82 1399.5 1131.76 1399.99 1129.18 1400.47 1127.63 1401.93 1126.08 1403.39 1124.53 1405.81 1124.01 1408.24 1123.5 1408.73 1124.01 1408.73 1136.4 1410.19 1136.4 1411.64 1135.89 1412.61 1134.86 1413.59 1133.82 1414.07 1132.79 1414.07 1131.24 1414.07 1129.69 1413.59 1128.66 1412.61 1127.63 1411.64 1127.11ZM1406.3 1136.4 1406.3 1126.59 1404.84 1127.11 1403.87 1128.14 1402.9 1129.18 1402.41 1130.21 1402.41 1131.76 1402.41 1133.3 1403.39 1134.86 1404.84 1135.89 1406.3 1136.4Z" stroke="#000000" stroke-width="0.499836" stroke-linecap="round" stroke-linejoin="round" stroke-miterlimit="10" fill-rule="evenodd"/><path d="M1416.5 1113.22 1393.5 1122.5 1393.5 1119.08 1409.65 1113.22 1411.61 1112.24 1413.56 1111.76 1409.65 1110.78 1393.5 1104.43 1393.5 1101.5 1416.5 1110.29 1416.5 1113.22Z" stroke="#000000" stroke-width="0.499836" stroke-linecap="round" stroke-linejoin="round" stroke-miterlimit="10" fill-rule="evenodd"/><path d="M1422.5 1098.37 1422.5 1100.5 1415.62 1096.77 1408.25 1095.7 1405.3 1095.7 1402.35 1096.23 1400.38 1096.77 1398.42 1097.83 1396.94 1098.37 1395.47 1099.43 1393.5 1100.5 1393.5 1098.37 1397.43 1095.7 1401.36 1093.56 1404.81 1092.5 1408.25 1092.5 1412.18 1092.5 1416.11 1094.1 1419.55 1096.23 1422.5 1098.37Z" stroke="#000000" stroke-width="0.499836" stroke-linecap="round" stroke-linejoin="round" stroke-miterlimit="10" fill-rule="evenodd"/><path d="M2170.5 1808.5 2170.5 1785.5 2187 1785.5 2187 1788.5 2173.5 1788.5 2173.5 1795.5 2186 1795.5 2186 1798 2173.5 1798 2173.5 1806 2187.5 1806 2187.5 1808.5 2170.5 1808.5Z" stroke="#000000" stroke-width="0.499836" stroke-linecap="round" stroke-linejoin="round" stroke-miterlimit="10" fill-rule="evenodd"/><path d="M2191.5 1808.5 2191.5 1792 2194.5 1792 2194.5 1794.5 2196 1793 2197.5 1792 2199.5 1791.5 2200.5 1792 2202 1792 2203 1793 2203.5 1793.5 2204 1794.5 2204.5 1795.5 2204.5 1796.5 2204.5 1798.5 2204.5 1808.5 2201.5 1808.5 2201.5 1798.5 2201.5 1797 2201.5 1796 2201 1795.5 2200 1795 2199.5 1794.5 2198 1794.5 2197 1794.5 2195.5 1795.5 2195 1796.5 2194.5 1798 2194.5 1799.5 2194.5 1808.5 2191.5 1808.5Z" stroke="#000000" stroke-width="0.499836" stroke-linecap="round" stroke-linejoin="round" stroke-miterlimit="10" fill-rule="evenodd"/><path d="M2220.6 1803.16 2223.01 1803.64 2222.53 1805.1 2222.05 1806.07 2220.6 1807.04 2219.63 1808.02 2217.69 1808.5 2216.24 1808.5 2213.82 1808.02 2211.89 1807.53 2210.43 1806.07 2209.47 1804.62 2208.5 1802.67 2208.5 1800.24 2208.5 1797.81 2209.47 1795.38 2210.43 1793.93 2211.89 1792.47 2213.82 1791.98 2215.76 1791.5 2218.18 1791.98 2219.63 1792.47 2221.08 1793.93 2222.53 1795.38 2223.01 1797.33 2223.5 1799.76 2223.5 1800.73 2211.4 1800.73 2211.4 1802.19 2211.89 1803.64 2212.85 1804.62 2213.82 1805.1 2214.79 1805.59 2216.24 1806.07 2217.69 1805.59 2218.66 1805.1 2219.63 1804.62 2220.6 1803.16ZM2211.4 1798.3 2220.6 1798.3 2220.11 1796.84 2219.15 1795.38 2218.18 1794.9 2217.21 1794.41 2215.76 1794.41 2214.3 1794.41 2212.85 1795.38 2211.89 1796.36 2211.4 1798.3Z" stroke="#000000" stroke-width="0.499836" stroke-linecap="round" stroke-linejoin="round" stroke-miterlimit="10" fill-rule="evenodd"/><path d="M2227.5 1808.5 2227.5 1792 2229.85 1792 2229.85 1794.5 2230.79 1793 2231.73 1792 2232.2 1791.5 2233.15 1791.5 2234.56 1792 2235.5 1792.5 2235.03 1795 2234.09 1794.5 2233.15 1794.5 2232.2 1794.5 2231.73 1795 2231.27 1795.5 2230.79 1796.5 2230.32 1798 2230.32 1800 2230.32 1808.5 2227.5 1808.5Z" stroke="#000000" stroke-width="0.499836" stroke-linecap="round" stroke-linejoin="round" stroke-miterlimit="10" fill-rule="evenodd"/><path d="M2236.5 1810 2239.5 1810.5 2240 1811.5 2240.5 1812 2241.5 1812.5 2243.5 1812.5 2245 1812.5 2246 1812 2247 1811 2247.5 1810 2247.5 1808.5 2247.5 1806.5 2246.5 1808 2245 1808.5 2243.5 1808.5 2241 1808.5 2239.5 1807.5 2238 1806 2237 1804.5 2236.5 1802.5 2236.5 1800 2236.5 1798 2237 1796 2238 1794 2239.5 1792.5 2241 1792 2243 1791.5 2245 1792 2246.5 1792.5 2247.5 1794 2247.5 1792 2250.5 1792 2250.5 1806.5 2250.5 1808.5 2250.5 1810.5 2250 1812 2249 1813.5 2247.5 1814.5 2245.5 1815 2243 1815.5 2241.5 1815 2240 1815 2238.5 1814 2237.5 1813 2237 1811.5 2236.5 1810ZM2239.5 1800 2239.5 1802 2240 1803.5 2240.5 1804.5 2241.5 1805.5 2242.5 1806 2243.5 1806 2245 1805.5 2246.5 1804.5 2247 1803.5 2247.5 1802 2247.5 1800 2247.5 1798.5 2247 1797 2246.5 1796 2245 1794.5 2243.5 1794.5 2242 1794.5 2240.5 1795.5 2240 1797 2239.5 1798.5 2239.5 1800Z" stroke="#000000" stroke-width="0.499836" stroke-linecap="round" stroke-linejoin="round" stroke-miterlimit="10" fill-rule="evenodd"/><path d="M2255 1814.99 2254.5 1812.44 2256.5 1812.44 2257 1812.44 2257.5 1812.44 2258.5 1811.42 2259 1810.4 2259.5 1809.37 2259.5 1808.35 2253.5 1791.5 2256.5 1791.5 2260 1800.69 2261 1804.27 2261.5 1803.24 2262 1801.2 2265.5 1791.5 2268.5 1791.5 2262.5 1808.86 2262 1810.4 2261.5 1811.93 2261 1812.95 2260.5 1813.97 2259.5 1814.48 2258 1814.99 2257 1815.5 2256 1815.5 2255 1814.99Z" stroke="#000000" stroke-width="0.499836" stroke-linecap="round" stroke-linejoin="round" stroke-miterlimit="10" fill-rule="evenodd"/><path d="M2285.63 1814.5 2283.77 1811.55 2281.9 1808.11 2280.5 1804.18 2280.5 1800.25 2280.5 1796.31 2281.43 1793.36 2283.3 1789.43 2285.63 1785.5 2287.5 1785.5 2286.57 1787.47 2285.63 1788.94 2285.17 1789.92 2284.23 1792.38 2283.77 1794.35 2283.3 1797.3 2283.3 1800.25 2284.23 1807.13 2287.5 1814.5 2285.63 1814.5Z" stroke="#000000" stroke-width="0.499836" stroke-linecap="round" stroke-linejoin="round" stroke-miterlimit="10" fill-rule="evenodd"/><path d="M2302.4 1803.16 2304.98 1803.64 2304.47 1805.1 2303.95 1806.07 2302.4 1807.04 2301.37 1808.02 2299.3 1808.5 2297.76 1808.5 2295.18 1808.02 2293.11 1807.53 2291.57 1806.07 2290.53 1804.62 2289.5 1802.67 2289.5 1800.24 2289.5 1797.81 2290.53 1795.38 2291.57 1793.93 2293.11 1792.47 2295.18 1791.98 2297.76 1791.5 2299.82 1791.98 2301.37 1792.47 2302.92 1793.93 2304.47 1795.38 2304.98 1797.33 2305.5 1799.76 2305.5 1800.73 2292.59 1800.73 2292.59 1802.19 2293.11 1803.64 2294.14 1804.62 2295.18 1805.1 2296.21 1805.59 2297.76 1806.07 2299.3 1805.59 2300.34 1805.1 2301.37 1804.62 2302.4 1803.16ZM2292.59 1798.3 2302.4 1798.3 2301.89 1796.84 2301.37 1795.38 2300.34 1794.9 2298.79 1794.41 2297.24 1794.41 2295.69 1794.41 2294.14 1795.38 2293.11 1796.36 2292.59 1798.3Z" stroke="#000000" stroke-width="0.499836" stroke-linecap="round" stroke-linejoin="round" stroke-miterlimit="10" fill-rule="evenodd"/><path d="M2315.71 1808.5 2306.5 1785.5 2309.57 1785.5 2316.22 1802 2316.73 1804 2317.25 1806 2318.78 1802 2324.92 1785.5 2328.5 1785.5 2319.29 1808.5 2315.71 1808.5Z" stroke="#000000" stroke-width="0.499836" stroke-linecap="round" stroke-linejoin="round" stroke-miterlimit="10" fill-rule="evenodd"/><path d="M2330.5 1814.5 2328.5 1814.5 2332 1807.13 2333 1800.25 2333 1797.3 2332.5 1794.35 2332 1792.38 2331 1789.92 2330.5 1788.94 2329.5 1787.47 2328.5 1785.5 2330.5 1785.5 2333 1789.43 2335 1793.36 2336 1796.31 2336.5 1800.25 2336 1804.18 2334.5 1808.11 2333 1811.55 2330.5 1814.5Z" stroke="#000000" stroke-width="0.499836" stroke-linecap="round" stroke-linejoin="round" stroke-miterlimit="10" fill-rule="evenodd"/><path d="M2396.5 1717.5 2396.5 1715.5" stroke="#000000" stroke-width="0.499836" stroke-linecap="round" stroke-linejoin="round" stroke-miterlimit="10" fill="none" fill-rule="evenodd"/><path d="M2396.5 1710.5 2396.5 1708.5" stroke="#000000" stroke-width="0.499836" stroke-linecap="round" stroke-linejoin="round" stroke-miterlimit="10" fill="none" fill-rule="evenodd"/><path d="M2396.5 1703.5 2396.5 1701.5" stroke="#000000" stroke-width="0.499836" stroke-linecap="round" stroke-linejoin="round" stroke-miterlimit="10" fill="none" fill-rule="evenodd"/><path d="M2396.5 1696.5 2396.5 1694.5" stroke="#000000" stroke-width="0.499836" stroke-linecap="round" stroke-linejoin="round" stroke-miterlimit="10" fill="none" fill-rule="evenodd"/><path d="M2396.5 1690.5 2396.5 1687.5" stroke="#000000" stroke-width="0.499836" stroke-linecap="round" stroke-linejoin="round" stroke-miterlimit="10" fill="none" fill-rule="evenodd"/><path d="M2396.5 1683.5 2396.5 1680.5" stroke="#000000" stroke-width="0.499836" stroke-linecap="round" stroke-linejoin="round" stroke-miterlimit="10" fill="none" fill-rule="evenodd"/><path d="M2396.5 1676.5 2396.5 1673.5" stroke="#000000" stroke-width="0.499836" stroke-linecap="round" stroke-linejoin="round" stroke-miterlimit="10" fill="none" fill-rule="evenodd"/><path d="M2396.5 1669.5 2396.5 1667.5" stroke="#000000" stroke-width="0.499836" stroke-linecap="round" stroke-linejoin="round" stroke-miterlimit="10" fill="none" fill-rule="evenodd"/><path d="M2396.5 1662.5 2396.5 1660.5" stroke="#000000" stroke-width="0.499836" stroke-linecap="round" stroke-linejoin="round" stroke-miterlimit="10" fill="none" fill-rule="evenodd"/><path d="M2396.5 1655.5 2396.5 1653.5" stroke="#000000" stroke-width="0.499836" stroke-linecap="round" stroke-linejoin="round" stroke-miterlimit="10" fill="none" fill-rule="evenodd"/><path d="M2396.5 1648.5 2396.5 1646.5" stroke="#000000" stroke-width="0.499836" stroke-linecap="round" stroke-linejoin="round" stroke-miterlimit="10" fill="none" fill-rule="evenodd"/><path d="M2396.5 1641.5 2396.5 1639.5" stroke="#000000" stroke-width="0.499836" stroke-linecap="round" stroke-linejoin="round" stroke-miterlimit="10" fill="none" fill-rule="evenodd"/><path d="M2396.5 1635.5 2396.5 1632.5" stroke="#000000" stroke-width="0.499836" stroke-linecap="round" stroke-linejoin="round" stroke-miterlimit="10" fill="none" fill-rule="evenodd"/><path d="M2396.5 1628.5 2396.5 1625.5" stroke="#000000" stroke-width="0.499836" stroke-linecap="round" stroke-linejoin="round" stroke-miterlimit="10" fill="none" fill-rule="evenodd"/><path d="M2396.5 1621.5 2396.5 1618.5" stroke="#000000" stroke-width="0.499836" stroke-linecap="round" stroke-linejoin="round" stroke-miterlimit="10" fill="none" fill-rule="evenodd"/><path d="M2396.5 1614.5 2396.5 1612.5" stroke="#000000" stroke-width="0.499836" stroke-linecap="round" stroke-linejoin="round" stroke-miterlimit="10" fill="none" fill-rule="evenodd"/><path d="M2396.5 1607.5 2396.5 1605.5" stroke="#000000" stroke-width="0.499836" stroke-linecap="round" stroke-linejoin="round" stroke-miterlimit="10" fill="none" fill-rule="evenodd"/><path d="M2396.5 1600.5 2396.5 1598.5" stroke="#000000" stroke-width="0.499836" stroke-linecap="round" stroke-linejoin="round" stroke-miterlimit="10" fill="none" fill-rule="evenodd"/><path d="M2396.5 1593.5 2396.5 1591.5" stroke="#000000" stroke-width="0.499836" stroke-linecap="round" stroke-linejoin="round" stroke-miterlimit="10" fill="none" fill-rule="evenodd"/><path d="M2396.5 1586.5 2396.5 1584.5" stroke="#000000" stroke-width="0.499836" stroke-linecap="round" stroke-linejoin="round" stroke-miterlimit="10" fill="none" fill-rule="evenodd"/><path d="M2396.5 1580.5 2396.5 1577.5" stroke="#000000" stroke-width="0.499836" stroke-linecap="round" stroke-linejoin="round" stroke-miterlimit="10" fill="none" fill-rule="evenodd"/><path d="M2396.5 1573.5 2396.5 1570.5" stroke="#000000" stroke-width="0.499836" stroke-linecap="round" stroke-linejoin="round" stroke-miterlimit="10" fill="none" fill-rule="evenodd"/><path d="M2396.5 1566.5 2396.5 1563.5" stroke="#000000" stroke-width="0.499836" stroke-linecap="round" stroke-linejoin="round" stroke-miterlimit="10" fill="none" fill-rule="evenodd"/><path d="M2396.5 1559.5 2396.5 1557.5" stroke="#000000" stroke-width="0.499836" stroke-linecap="round" stroke-linejoin="round" stroke-miterlimit="10" fill="none" fill-rule="evenodd"/><path d="M2396.5 1552.5 2396.5 1550.5" stroke="#000000" stroke-width="0.499836" stroke-linecap="round" stroke-linejoin="round" stroke-miterlimit="10" fill="none" fill-rule="evenodd"/><path d="M2396.5 1545.5 2396.5 1543.5" stroke="#000000" stroke-width="0.499836" stroke-linecap="round" stroke-linejoin="round" stroke-miterlimit="10" fill="none" fill-rule="evenodd"/><path d="M2396.5 1538.5 2396.5 1536.5" stroke="#000000" stroke-width="0.499836" stroke-linecap="round" stroke-linejoin="round" stroke-miterlimit="10" fill="none" fill-rule="evenodd"/><path d="M2396.5 1531.5 2396.5 1529.5" stroke="#000000" stroke-width="0.499836" stroke-linecap="round" stroke-linejoin="round" stroke-miterlimit="10" fill="none" fill-rule="evenodd"/><path d="M2396.5 1525.5 2396.5 1522.5" stroke="#000000" stroke-width="0.499836" stroke-linecap="round" stroke-linejoin="round" stroke-miterlimit="10" fill="none" fill-rule="evenodd"/><path d="M2396.5 1518.5 2396.5 1515.5" stroke="#000000" stroke-width="0.499836" stroke-linecap="round" stroke-linejoin="round" stroke-miterlimit="10" fill="none" fill-rule="evenodd"/><path d="M2396.5 1511.5 2396.5 1508.5" stroke="#000000" stroke-width="0.499836" stroke-linecap="round" stroke-linejoin="round" stroke-miterlimit="10" fill="none" fill-rule="evenodd"/><path d="M2396.5 1504.5 2396.5 1502.5" stroke="#000000" stroke-width="0.499836" stroke-linecap="round" stroke-linejoin="round" stroke-miterlimit="10" fill="none" fill-rule="evenodd"/><path d="M2396.5 1497.5 2396.5 1495.5" stroke="#000000" stroke-width="0.499836" stroke-linecap="round" stroke-linejoin="round" stroke-miterlimit="10" fill="none" fill-rule="evenodd"/><path d="M2396.5 1490.5 2396.5 1488.5" stroke="#000000" stroke-width="0.499836" stroke-linecap="round" stroke-linejoin="round" stroke-miterlimit="10" fill="none" fill-rule="evenodd"/><path d="M2396.5 1483.5 2396.5 1481.5" stroke="#000000" stroke-width="0.499836" stroke-linecap="round" stroke-linejoin="round" stroke-miterlimit="10" fill="none" fill-rule="evenodd"/><path d="M2396.5 1476.5 2396.5 1474.5" stroke="#000000" stroke-width="0.499836" stroke-linecap="round" stroke-linejoin="round" stroke-miterlimit="10" fill="none" fill-rule="evenodd"/><path d="M2396.5 1470.5 2396.5 1467.5" stroke="#000000" stroke-width="0.499836" stroke-linecap="round" stroke-linejoin="round" stroke-miterlimit="10" fill="none" fill-rule="evenodd"/><path d="M2396.5 1463.5 2396.5 1460.5" stroke="#000000" stroke-width="0.499836" stroke-linecap="round" stroke-linejoin="round" stroke-miterlimit="10" fill="none" fill-rule="evenodd"/><path d="M2396.5 1456.5 2396.5 1453.5" stroke="#000000" stroke-width="0.499836" stroke-linecap="round" stroke-linejoin="round" stroke-miterlimit="10" fill="none" fill-rule="evenodd"/><path d="M2396.5 1449.5 2396.5 1447.5" stroke="#000000" stroke-width="0.499836" stroke-linecap="round" stroke-linejoin="round" stroke-miterlimit="10" fill="none" fill-rule="evenodd"/><path d="M2396.5 1442.5 2396.5 1440.5" stroke="#000000" stroke-width="0.499836" stroke-linecap="round" stroke-linejoin="round" stroke-miterlimit="10" fill="none" fill-rule="evenodd"/><path d="M2396.5 1435.5 2396.5 1433.5" stroke="#000000" stroke-width="0.499836" stroke-linecap="round" stroke-linejoin="round" stroke-miterlimit="10" fill="none" fill-rule="evenodd"/><path d="M2396.5 1428.5 2396.5 1426.5" stroke="#000000" stroke-width="0.499836" stroke-linecap="round" stroke-linejoin="round" stroke-miterlimit="10" fill="none" fill-rule="evenodd"/><path d="M2396.5 1421.5 2396.5 1419.5" stroke="#000000" stroke-width="0.499836" stroke-linecap="round" stroke-linejoin="round" stroke-miterlimit="10" fill="none" fill-rule="evenodd"/><path d="M2396.5 1415.5 2396.5 1412.5" stroke="#000000" stroke-width="0.499836" stroke-linecap="round" stroke-linejoin="round" stroke-miterlimit="10" fill="none" fill-rule="evenodd"/><path d="M2396.5 1408.5 2396.5 1405.5" stroke="#000000" stroke-width="0.499836" stroke-linecap="round" stroke-linejoin="round" stroke-miterlimit="10" fill="none" fill-rule="evenodd"/><path d="M2396.5 1401.5 2396.5 1398.5" stroke="#000000" stroke-width="0.499836" stroke-linecap="round" stroke-linejoin="round" stroke-miterlimit="10" fill="none" fill-rule="evenodd"/><path d="M2396.5 1394.5 2396.5 1392.5" stroke="#000000" stroke-width="0.499836" stroke-linecap="round" stroke-linejoin="round" stroke-miterlimit="10" fill="none" fill-rule="evenodd"/><path d="M2396.5 1387.5 2396.5 1385.5" stroke="#000000" stroke-width="0.499836" stroke-linecap="round" stroke-linejoin="round" stroke-miterlimit="10" fill="none" fill-rule="evenodd"/><path d="M2396.5 1380.5 2396.5 1378.5" stroke="#000000" stroke-width="0.499836" stroke-linecap="round" stroke-linejoin="round" stroke-miterlimit="10" fill="none" fill-rule="evenodd"/><path d="M2396.5 1373.5 2396.5 1371.5" stroke="#000000" stroke-width="0.499836" stroke-linecap="round" stroke-linejoin="round" stroke-miterlimit="10" fill="none" fill-rule="evenodd"/><path d="M2396.5 1366.5 2396.5 1364.5" stroke="#000000" stroke-width="0.499836" stroke-linecap="round" stroke-linejoin="round" stroke-miterlimit="10" fill="none" fill-rule="evenodd"/><path d="M2396.5 1360.5 2396.5 1357.5" stroke="#000000" stroke-width="0.499836" stroke-linecap="round" stroke-linejoin="round" stroke-miterlimit="10" fill="none" fill-rule="evenodd"/><path d="M2396.5 1353.5 2396.5 1350.5" stroke="#000000" stroke-width="0.499836" stroke-linecap="round" stroke-linejoin="round" stroke-miterlimit="10" fill="none" fill-rule="evenodd"/><path d="M2396.5 1346.5 2396.5 1343.5" stroke="#000000" stroke-width="0.499836" stroke-linecap="round" stroke-linejoin="round" stroke-miterlimit="10" fill="none" fill-rule="evenodd"/><path d="M2396.5 1339.5 2396.5 1337.5" stroke="#000000" stroke-width="0.499836" stroke-linecap="round" stroke-linejoin="round" stroke-miterlimit="10" fill="none" fill-rule="evenodd"/><path d="M2396.5 1332.5 2396.5 1330.5" stroke="#000000" stroke-width="0.499836" stroke-linecap="round" stroke-linejoin="round" stroke-miterlimit="10" fill="none" fill-rule="evenodd"/><path d="M2396.5 1325.5 2396.5 1323.5" stroke="#000000" stroke-width="0.499836" stroke-linecap="round" stroke-linejoin="round" stroke-miterlimit="10" fill="none" fill-rule="evenodd"/><path d="M2396.5 1318.5 2396.5 1316.5" stroke="#000000" stroke-width="0.499836" stroke-linecap="round" stroke-linejoin="round" stroke-miterlimit="10" fill="none" fill-rule="evenodd"/><path d="M2396.5 1311.5 2396.5 1309.5" stroke="#000000" stroke-width="0.499836" stroke-linecap="round" stroke-linejoin="round" stroke-miterlimit="10" fill="none" fill-rule="evenodd"/><path d="M2396.5 1305.5 2396.5 1302.5" stroke="#000000" stroke-width="0.499836" stroke-linecap="round" stroke-linejoin="round" stroke-miterlimit="10" fill="none" fill-rule="evenodd"/><path d="M2396.5 1298.5 2396.5 1295.5" stroke="#000000" stroke-width="0.499836" stroke-linecap="round" stroke-linejoin="round" stroke-miterlimit="10" fill="none" fill-rule="evenodd"/><path d="M2396.5 1291.5 2396.5 1288.5" stroke="#000000" stroke-width="0.499836" stroke-linecap="round" stroke-linejoin="round" stroke-miterlimit="10" fill="none" fill-rule="evenodd"/><path d="M2396.5 1284.5 2396.5 1282.5" stroke="#000000" stroke-width="0.499836" stroke-linecap="round" stroke-linejoin="round" stroke-miterlimit="10" fill="none" fill-rule="evenodd"/><path d="M2396.5 1277.5 2396.5 1275.5" stroke="#000000" stroke-width="0.499836" stroke-linecap="round" stroke-linejoin="round" stroke-miterlimit="10" fill="none" fill-rule="evenodd"/><path d="M2396.5 1270.5 2396.5 1268.5" stroke="#000000" stroke-width="0.499836" stroke-linecap="round" stroke-linejoin="round" stroke-miterlimit="10" fill="none" fill-rule="evenodd"/><path d="M2396.5 1263.5 2396.5 1261.5" stroke="#000000" stroke-width="0.499836" stroke-linecap="round" stroke-linejoin="round" stroke-miterlimit="10" fill="none" fill-rule="evenodd"/><path d="M2396.5 1256.5 2396.5 1254.5" stroke="#000000" stroke-width="0.499836" stroke-linecap="round" stroke-linejoin="round" stroke-miterlimit="10" fill="none" fill-rule="evenodd"/><path d="M2396.5 1250.5 2396.5 1247.5" stroke="#000000" stroke-width="0.499836" stroke-linecap="round" stroke-linejoin="round" stroke-miterlimit="10" fill="none" fill-rule="evenodd"/><path d="M2396.5 1243.5 2396.5 1240.5" stroke="#000000" stroke-width="0.499836" stroke-linecap="round" stroke-linejoin="round" stroke-miterlimit="10" fill="none" fill-rule="evenodd"/><path d="M2396.5 1236.5 2396.5 1233.5" stroke="#000000" stroke-width="0.499836" stroke-linecap="round" stroke-linejoin="round" stroke-miterlimit="10" fill="none" fill-rule="evenodd"/><path d="M2396.5 1229.5 2396.5 1227.5" stroke="#000000" stroke-width="0.499836" stroke-linecap="round" stroke-linejoin="round" stroke-miterlimit="10" fill="none" fill-rule="evenodd"/><path d="M2396.5 1222.5 2396.5 1220.5" stroke="#000000" stroke-width="0.499836" stroke-linecap="round" stroke-linejoin="round" stroke-miterlimit="10" fill="none" fill-rule="evenodd"/><path d="M2396.5 1215.5 2396.5 1213.5" stroke="#000000" stroke-width="0.499836" stroke-linecap="round" stroke-linejoin="round" stroke-miterlimit="10" fill="none" fill-rule="evenodd"/><path d="M2396.5 1208.5 2396.5 1206.5" stroke="#000000" stroke-width="0.499836" stroke-linecap="round" stroke-linejoin="round" stroke-miterlimit="10" fill="none" fill-rule="evenodd"/><path d="M2396.5 1201.5 2396.5 1199.5" stroke="#000000" stroke-width="0.499836" stroke-linecap="round" stroke-linejoin="round" stroke-miterlimit="10" fill="none" fill-rule="evenodd"/><path d="M2396.5 1195.5 2396.5 1192.5" stroke="#000000" stroke-width="0.499836" stroke-linecap="round" stroke-linejoin="round" stroke-miterlimit="10" fill="none" fill-rule="evenodd"/><path d="M2396.5 1188.5 2396.5 1185.5" stroke="#000000" stroke-width="0.499836" stroke-linecap="round" stroke-linejoin="round" stroke-miterlimit="10" fill="none" fill-rule="evenodd"/><path d="M2396.5 1181.5 2396.5 1178.5" stroke="#000000" stroke-width="0.499836" stroke-linecap="round" stroke-linejoin="round" stroke-miterlimit="10" fill="none" fill-rule="evenodd"/><path d="M2396.5 1174.5 2396.5 1172.5" stroke="#000000" stroke-width="0.499836" stroke-linecap="round" stroke-linejoin="round" stroke-miterlimit="10" fill="none" fill-rule="evenodd"/><path d="M2396.5 1167.5 2396.5 1165.5" stroke="#000000" stroke-width="0.499836" stroke-linecap="round" stroke-linejoin="round" stroke-miterlimit="10" fill="none" fill-rule="evenodd"/><path d="M2396.5 1160.5 2396.5 1158.5" stroke="#000000" stroke-width="0.499836" stroke-linecap="round" stroke-linejoin="round" stroke-miterlimit="10" fill="none" fill-rule="evenodd"/><path d="M2396.5 1153.5 2396.5 1151.5" stroke="#000000" stroke-width="0.499836" stroke-linecap="round" stroke-linejoin="round" stroke-miterlimit="10" fill="none" fill-rule="evenodd"/><path d="M2396.5 1146.5 2396.5 1144.5" stroke="#000000" stroke-width="0.499836" stroke-linecap="round" stroke-linejoin="round" stroke-miterlimit="10" fill="none" fill-rule="evenodd"/><path d="M2396.5 1140.5 2396.5 1137.5" stroke="#000000" stroke-width="0.499836" stroke-linecap="round" stroke-linejoin="round" stroke-miterlimit="10" fill="none" fill-rule="evenodd"/><path d="M2396.5 1133.5 2396.5 1130.5" stroke="#000000" stroke-width="0.499836" stroke-linecap="round" stroke-linejoin="round" stroke-miterlimit="10" fill="none" fill-rule="evenodd"/><path d="M2396.5 1126.5 2396.5 1123.5" stroke="#000000" stroke-width="0.499836" stroke-linecap="round" stroke-linejoin="round" stroke-miterlimit="10" fill="none" fill-rule="evenodd"/><path d="M2396.5 1119.5 2396.5 1117.5" stroke="#000000" stroke-width="0.499836" stroke-linecap="round" stroke-linejoin="round" stroke-miterlimit="10" fill="none" fill-rule="evenodd"/><path d="M2396.5 1112.5 2396.5 1110.5" stroke="#000000" stroke-width="0.499836" stroke-linecap="round" stroke-linejoin="round" stroke-miterlimit="10" fill="none" fill-rule="evenodd"/><path d="M2396.5 1105.5 2396.5 1103.5" stroke="#000000" stroke-width="0.499836" stroke-linecap="round" stroke-linejoin="round" stroke-miterlimit="10" fill="none" fill-rule="evenodd"/><path d="M2396.5 1098.5 2396.5 1096.5" stroke="#000000" stroke-width="0.499836" stroke-linecap="round" stroke-linejoin="round" stroke-miterlimit="10" fill="none" fill-rule="evenodd"/><path d="M2396.5 1091.5 2396.5 1089.5" stroke="#000000" stroke-width="0.499836" stroke-linecap="round" stroke-linejoin="round" stroke-miterlimit="10" fill="none" fill-rule="evenodd"/><path d="M2396.5 1085.5 2396.5 1082.5" stroke="#000000" stroke-width="0.499836" stroke-linecap="round" stroke-linejoin="round" stroke-miterlimit="10" fill="none" fill-rule="evenodd"/><path d="M2396.5 1078.5 2396.5 1075.5" stroke="#000000" stroke-width="0.499836" stroke-linecap="round" stroke-linejoin="round" stroke-miterlimit="10" fill="none" fill-rule="evenodd"/><path d="M2396.5 1071.5 2396.5 1068.5" stroke="#000000" stroke-width="0.499836" stroke-linecap="round" stroke-linejoin="round" stroke-miterlimit="10" fill="none" fill-rule="evenodd"/><path d="M2396.5 1064.5 2396.5 1062.5" stroke="#000000" stroke-width="0.499836" stroke-linecap="round" stroke-linejoin="round" stroke-miterlimit="10" fill="none" fill-rule="evenodd"/><path d="M2396.5 1057.5 2396.5 1055.5" stroke="#000000" stroke-width="0.499836" stroke-linecap="round" stroke-linejoin="round" stroke-miterlimit="10" fill="none" fill-rule="evenodd"/><path d="M2396.5 1050.5 2396.5 1048.5" stroke="#000000" stroke-width="0.499836" stroke-linecap="round" stroke-linejoin="round" stroke-miterlimit="10" fill="none" fill-rule="evenodd"/><path d="M2396.5 1043.5 2396.5 1041.5" stroke="#000000" stroke-width="0.499836" stroke-linecap="round" stroke-linejoin="round" stroke-miterlimit="10" fill="none" fill-rule="evenodd"/><path d="M2396.5 1036.5 2396.5 1034.5" stroke="#000000" stroke-width="0.499836" stroke-linecap="round" stroke-linejoin="round" stroke-miterlimit="10" fill="none" fill-rule="evenodd"/><path d="M2396.5 1030.5 2396.5 1027.5" stroke="#000000" stroke-width="0.499836" stroke-linecap="round" stroke-linejoin="round" stroke-miterlimit="10" fill="none" fill-rule="evenodd"/><path d="M2396.5 1023.5 2396.5 1020.5" stroke="#000000" stroke-width="0.499836" stroke-linecap="round" stroke-linejoin="round" stroke-miterlimit="10" fill="none" fill-rule="evenodd"/><path d="M2396.5 1016.5 2396.5 1013.5" stroke="#000000" stroke-width="0.499836" stroke-linecap="round" stroke-linejoin="round" stroke-miterlimit="10" fill="none" fill-rule="evenodd"/><path d="M2396.5 1009.5 2396.5 1007.5" stroke="#000000" stroke-width="0.499836" stroke-linecap="round" stroke-linejoin="round" stroke-miterlimit="10" fill="none" fill-rule="evenodd"/><path d="M2396.5 1002.5 2396.5 1000.5" stroke="#000000" stroke-width="0.499836" stroke-linecap="round" stroke-linejoin="round" stroke-miterlimit="10" fill="none" fill-rule="evenodd"/><path d="M2396.5 995.5 2396.5 993.5" stroke="#000000" stroke-width="0.499836" stroke-linecap="round" stroke-linejoin="round" stroke-miterlimit="10" fill="none" fill-rule="evenodd"/><path d="M2396.5 988.5 2396.5 986.5" stroke="#000000" stroke-width="0.499836" stroke-linecap="round" stroke-linejoin="round" stroke-miterlimit="10" fill="none" fill-rule="evenodd"/><path d="M2396.5 981.5 2396.5 979.5" stroke="#000000" stroke-width="0.499836" stroke-linecap="round" stroke-linejoin="round" stroke-miterlimit="10" fill="none" fill-rule="evenodd"/><path d="M2396.5 974.5 2396.5 972.5" stroke="#000000" stroke-width="0.499836" stroke-linecap="round" stroke-linejoin="round" stroke-miterlimit="10" fill="none" fill-rule="evenodd"/><path d="M2396.5 968.5 2396.5 965.5" stroke="#000000" stroke-width="0.499836" stroke-linecap="round" stroke-linejoin="round" stroke-miterlimit="10" fill="none" fill-rule="evenodd"/><path d="M2396.5 961.5 2396.5 958.5" stroke="#000000" stroke-width="0.499836" stroke-linecap="round" stroke-linejoin="round" stroke-miterlimit="10" fill="none" fill-rule="evenodd"/><path d="M2396.5 954.5 2396.5 952.5" stroke="#000000" stroke-width="0.499836" stroke-linecap="round" stroke-linejoin="round" stroke-miterlimit="10" fill="none" fill-rule="evenodd"/><path d="M2396.5 947.5 2396.5 945.5" stroke="#000000" stroke-width="0.499836" stroke-linecap="round" stroke-linejoin="round" stroke-miterlimit="10" fill="none" fill-rule="evenodd"/><path d="M2396.5 940.5 2396.5 938.5" stroke="#000000" stroke-width="0.499836" stroke-linecap="round" stroke-linejoin="round" stroke-miterlimit="10" fill="none" fill-rule="evenodd"/><path d="M2396.5 933.5 2396.5 931.5" stroke="#000000" stroke-width="0.499836" stroke-linecap="round" stroke-linejoin="round" stroke-miterlimit="10" fill="none" fill-rule="evenodd"/><path d="M2396.5 926.5 2396.5 924.5" stroke="#000000" stroke-width="0.499836" stroke-linecap="round" stroke-linejoin="round" stroke-miterlimit="10" fill="none" fill-rule="evenodd"/><path d="M2396.5 919.5 2396.5 917.5" stroke="#000000" stroke-width="0.499836" stroke-linecap="round" stroke-linejoin="round" stroke-miterlimit="10" fill="none" fill-rule="evenodd"/><path d="M2396.5 913.5 2396.5 910.5" stroke="#000000" stroke-width="0.499836" stroke-linecap="round" stroke-linejoin="round" stroke-miterlimit="10" fill="none" fill-rule="evenodd"/><path d="M2396.5 906.5 2396.5 903.5" stroke="#000000" stroke-width="0.499836" stroke-linecap="round" stroke-linejoin="round" stroke-miterlimit="10" fill="none" fill-rule="evenodd"/><path d="M2396.5 899.5 2396.5 897.5" stroke="#000000" stroke-width="0.499836" stroke-linecap="round" stroke-linejoin="round" stroke-miterlimit="10" fill="none" fill-rule="evenodd"/><path d="M2396.5 892.5 2396.5 890.5" stroke="#000000" stroke-width="0.499836" stroke-linecap="round" stroke-linejoin="round" stroke-miterlimit="10" fill="none" fill-rule="evenodd"/><path d="M2396.5 885.5 2396.5 883.5" stroke="#000000" stroke-width="0.499836" stroke-linecap="round" stroke-linejoin="round" stroke-miterlimit="10" fill="none" fill-rule="evenodd"/><path d="M2396.5 878.5 2396.5 876.5" stroke="#000000" stroke-width="0.499836" stroke-linecap="round" stroke-linejoin="round" stroke-miterlimit="10" fill="none" fill-rule="evenodd"/><path d="M2396.5 871.5 2396.5 869.5" stroke="#000000" stroke-width="0.499836" stroke-linecap="round" stroke-linejoin="round" stroke-miterlimit="10" fill="none" fill-rule="evenodd"/><path d="M2396.5 864.5 2396.5 862.5" stroke="#000000" stroke-width="0.499836" stroke-linecap="round" stroke-linejoin="round" stroke-miterlimit="10" fill="none" fill-rule="evenodd"/><path d="M2396.5 858.5 2396.5 855.5" stroke="#000000" stroke-width="0.499836" stroke-linecap="round" stroke-linejoin="round" stroke-miterlimit="10" fill="none" fill-rule="evenodd"/><path d="M2396.5 851.5 2396.5 848.5" stroke="#000000" stroke-width="0.499836" stroke-linecap="round" stroke-linejoin="round" stroke-miterlimit="10" fill="none" fill-rule="evenodd"/><path d="M2396.5 844.5 2396.5 842.5" stroke="#000000" stroke-width="0.499836" stroke-linecap="round" stroke-linejoin="round" stroke-miterlimit="10" fill="none" fill-rule="evenodd"/><path d="M2396.5 837.5 2396.5 835.5" stroke="#000000" stroke-width="0.499836" stroke-linecap="round" stroke-linejoin="round" stroke-miterlimit="10" fill="none" fill-rule="evenodd"/><path d="M2396.5 830.5 2396.5 828.5" stroke="#000000" stroke-width="0.499836" stroke-linecap="round" stroke-linejoin="round" stroke-miterlimit="10" fill="none" fill-rule="evenodd"/><path d="M2396.5 823.5 2396.5 821.5" stroke="#000000" stroke-width="0.499836" stroke-linecap="round" stroke-linejoin="round" stroke-miterlimit="10" fill="none" fill-rule="evenodd"/><path d="M2396.5 816.5 2396.5 814.5" stroke="#000000" stroke-width="0.499836" stroke-linecap="round" stroke-linejoin="round" stroke-miterlimit="10" fill="none" fill-rule="evenodd"/><path d="M2396.5 809.5 2396.5 807.5" stroke="#000000" stroke-width="0.499836" stroke-linecap="round" stroke-linejoin="round" stroke-miterlimit="10" fill="none" fill-rule="evenodd"/><path d="M2396.5 803.5 2396.5 800.5" stroke="#000000" stroke-width="0.499836" stroke-linecap="round" stroke-linejoin="round" stroke-miterlimit="10" fill="none" fill-rule="evenodd"/><path d="M2396.5 796.5 2396.5 793.5" stroke="#000000" stroke-width="0.499836" stroke-linecap="round" stroke-linejoin="round" stroke-miterlimit="10" fill="none" fill-rule="evenodd"/><path d="M2396.5 789.5 2396.5 787.5" stroke="#000000" stroke-width="0.499836" stroke-linecap="round" stroke-linejoin="round" stroke-miterlimit="10" fill="none" fill-rule="evenodd"/><path d="M2396.5 782.5 2396.5 780.5" stroke="#000000" stroke-width="0.499836" stroke-linecap="round" stroke-linejoin="round" stroke-miterlimit="10" fill="none" fill-rule="evenodd"/><path d="M2396.5 775.5 2396.5 773.5" stroke="#000000" stroke-width="0.499836" stroke-linecap="round" stroke-linejoin="round" stroke-miterlimit="10" fill="none" fill-rule="evenodd"/><path d="M2396.5 768.5 2396.5 766.5" stroke="#000000" stroke-width="0.499836" stroke-linecap="round" stroke-linejoin="round" stroke-miterlimit="10" fill="none" fill-rule="evenodd"/><path d="M2396.5 761.5 2396.5 759.5" stroke="#000000" stroke-width="0.499836" stroke-linecap="round" stroke-linejoin="round" stroke-miterlimit="10" fill="none" fill-rule="evenodd"/><path d="M2396.5 754.5 2396.5 752.5" stroke="#000000" stroke-width="0.499836" stroke-linecap="round" stroke-linejoin="round" stroke-miterlimit="10" fill="none" fill-rule="evenodd"/><path d="M2396.5 748.5 2396.5 745.5" stroke="#000000" stroke-width="0.499836" stroke-linecap="round" stroke-linejoin="round" stroke-miterlimit="10" fill="none" fill-rule="evenodd"/><path d="M2396.5 741.5 2396.5 738.5" stroke="#000000" stroke-width="0.499836" stroke-linecap="round" stroke-linejoin="round" stroke-miterlimit="10" fill="none" fill-rule="evenodd"/><path d="M2396.5 734.5 2396.5 732.5" stroke="#000000" stroke-width="0.499836" stroke-linecap="round" stroke-linejoin="round" stroke-miterlimit="10" fill="none" fill-rule="evenodd"/><path d="M2396.5 727.5 2396.5 725.5" stroke="#000000" stroke-width="0.499836" stroke-linecap="round" stroke-linejoin="round" stroke-miterlimit="10" fill="none" fill-rule="evenodd"/><path d="M2396.5 720.5 2396.5 718.5" stroke="#000000" stroke-width="0.499836" stroke-linecap="round" stroke-linejoin="round" stroke-miterlimit="10" fill="none" fill-rule="evenodd"/><path d="M2396.5 713.5 2396.5 711.5" stroke="#000000" stroke-width="0.499836" stroke-linecap="round" stroke-linejoin="round" stroke-miterlimit="10" fill="none" fill-rule="evenodd"/><path d="M2396.5 706.5 2396.5 704.5" stroke="#000000" stroke-width="0.499836" stroke-linecap="round" stroke-linejoin="round" stroke-miterlimit="10" fill="none" fill-rule="evenodd"/><path d="M2396.5 699.5 2396.5 697.5" stroke="#000000" stroke-width="0.499836" stroke-linecap="round" stroke-linejoin="round" stroke-miterlimit="10" fill="none" fill-rule="evenodd"/><path d="M1705.5 1717.5 1718 1717.5 1719.5 1716.5 1721 1712 1722.5 1703.5 1724 1690.5 1725.5 1674.5 1727.5 1675.5 1729 1675.5 1730.5 1671.5 1732 1667.5 1735 1658.5 1736.5 1654 1738 1649.5 1739.5 1645 1741.5 1641.5 1743 1639.5 1744.5 1637.5 1746 1637 1747.5 1635 1750.5 1630 1752.5 1627.5 1753.5 1624.5 1758.5 1616.5 1760 1613.5 1761.5 1610.5 1764.5 1604.5 1766.5 1604 1768 1602.5 1769.5 1600.5 1771 1598.5 1772.5 1596.5 1774 1594.5 1775.5 1593 1777 1591 1778.5 1589 1780.5 1587 1783.5 1582.5 1785 1580 1786.5 1577.5 1788 1575 1789.5 1573 1791.5 1570.5 1792.5 1568 1794 1565.5 1796 1563 1797.5 1560.5 1799 1558.5 1800.5 1557 1802 1555 1803.5 1553 1805 1551 1807 1548.5 1808 1546 1810 1544 1811.5 1541.5 1814.5 1536 1816 1533.5 1819 1528 1821 1525 1822.5 1522 1824 1518.5 1825.5 1515 1827 1511.5 1828.5 1508 1830 1504 1831.5 1500 1833 1496 1835 1492 1836.5 1487.5 1838 1483 1839.5 1477.5 1841 1472 1842.5 1466.5 1844 1458.5 1846 1443 1847 1421 1849 1393 1850.5 1365.5 1852 1380.5 1853.5 1418 1855 1420.5 1856.5 1421 1858 1422 1860 1423 1861.5 1423.5 1863 1424 1864.5 1425.5 1866 1429.5 1867.5 1436.5" stroke="#FF0000" stroke-width="1.00003" stroke-linecap="round" stroke-linejoin="round" stroke-miterlimit="10" fill="none" fill-rule="evenodd"/><path d="M1867.5 1436.5 1869 1446 1870.5 1454 1872 1455 1874 1453 1875.5 1451.5 1877 1450.5 1878.5 1451 1880 1453 1881.5 1456 1883 1460 1885 1464.5 1886 1469 1887.5 1474 1889.5 1480 1891 1486.5 1892.5 1491 1894 1494 1895.5 1497 1897 1500 1898.5 1503 1900.5 1505.5 1901.5 1508 1903.5 1510.5 1905 1512.5 1906.5 1515 1908 1517.5 1909.5 1520 1911 1523.5 1912.5 1526.5 1914.5 1528.5 1916 1530.5 1917.5 1533.5 1919 1535 1920.5 1513 1922 1527 1923.5 1540 1925 1552.5 1926.5 1563.5 1928.5 1573.5 1930 1584 1931.5 1594 1933 1603.5 1934.5 1613 1936 1622.5 1937.5 1631.5 1939.5 1640 1940.5 1648.5 1942.5 1656.5 1944 1664.5 1945.5 1672 1947 1679 1948.5 1685.5 1950 1692.5 1951.5 1698 1953.5 1703.5 1955 1707.5 1956.5 1709 1958 1709.5 1959.5 1708.5 1961 1705 1962.5 1699.5 1964 1693.5 1965.5 1687.5 1967.5 1681 1969 1674.5 1970.5 1667.5 1972 1660 1973.5 1652.5 1975 1645 1976.5 1637 1978.5 1628.5 1979.5 1620.5 1981 1611.5 1983 1603 1984.5 1594 1986 1585 1987.5 1575.5 1989 1566 1990.5 1556 1992 1546 1994 1536 1995 1520.5 1997 1510.5 1998.5 1508 2000 1497.5 2001.5 1490 2003 1484 2004.5 1478 2006 1466 2008 1447 2009.5 1420.5 2011 1303.5 2012.5 1214 2014 1113 2015.5 1083.5 2017 1130 2018.5 1192.5 2020 1247 2022 1293.5 2023.5 1332 2025 1363 2026.5 1388 2028 1408.5 2029.5 1424" stroke="#FF0000" stroke-width="1.00003" stroke-linecap="round" stroke-linejoin="round" stroke-miterlimit="10" fill="none" fill-rule="evenodd"/><path d="M2029.5 1424 2031 1435.5 2033 1445.5 2034 1454.5 2036 1462.5 2037.5 1469.5 2039 1475.5 2040.5 1481 2042 1486 2043.5 1491 2045 1496 2047 1500.5 2048.5 1505 2050 1509 2051.5 1513 2053 1517 2054.5 1521 2056 1525 2057.5 1529 2059 1532.5 2061 1536.5 2064 1544 2065.5 1547.5 2067 1551 2068.5 1554.5 2070 1557.5 2072 1560.5 2073 1565 2074.5 1569.5 2076.5 1573.5 2078 1576.5 2079.5 1579.5 2081 1581.5 2082.5 1583 2084 1584.5 2085.5 1586 2087.5 1587.5 2088.5 1589 2090.5 1590.5 2093.5 1593.5 2095 1595 2096.5 1596.5 2098 1598 2099.5 1599 2101.5 1600.5 2103 1602 2104.5 1603.5 2106 1605 2107.5 1606.5 2109 1608 2110.5 1609.5 2112 1611 2113.5 1612.5 2115.5 1614 2117 1615.5 2118.5 1617 2120 1618.5 2121.5 1619.5 2123 1621 2124.5 1625.5 2126.5 1629.5 2127.5 1631.5 2129.5 1633 2131 1634.5 2134 1637.5 2135.5 1638.5 2137 1639.5 2138.5 1640.5 2140.5 1641.5 2142 1642 2143.5 1643 2145 1643.5 2148 1645 2149.5 1645.5 2151 1646 2152.5 1646.5 2154.5 1627 2156 1560.5 2157.5 1480 2159 1491 2160.5 1463.5 2162 1431.5 2163.5 1394.5 2165.5 1361.5 2166.5 1331.5 2168 1301.5 2170 1272 2171.5 1243.5 2173 1218.5 2174.5 1211.5 2176 1214 2177.5 1258.5 2179 1303 2181 1336 2182.5 1352.5 2184 1363 2185.5 1366.5 2187 1368 2188.5 1369 2190 1370.5 2191.5 1371.5" stroke="#FF0000" stroke-width="1.00003" stroke-linecap="round" stroke-linejoin="round" stroke-miterlimit="10" fill="none" fill-rule="evenodd"/><path d="M2191.5 1371.78 2193 1372.78 2195.01 1372.78 2196.51 1372.28 2198.02 1371.28 2199.52 1369.28 2201.03 1366.78 2202.53 1364.27 2204.04 1362.77 2206.04 1360.77 2207.05 1358.27 2209.05 1355.76 2210.56 1352.76 2212.06 1296.7 2213.57 1267.16 2215.07 1323.23 2216.57 1324.23 2218.08 1319.72 2220.09 1313.71 2221.59 1306.71 2223.1 1298.2 2224.6 1288.69 2226.11 1278.17 2227.61 1266.16 2229.12 1201.59 2230.62 1216.6 2232.12 1228.62 2234.13 1225.11 2235.64 1212.6 2237.14 1201.59 2238.64 1183.07 2240.15 1154.03 2241.65 1127.5 2243.16 1174.55 2245.16 1196.58 2246.17 1198.08 2248.17 1201.09 2249.68 1204.09 2251.18 1207.59 2252.69 1210.6 2254.19 1214.1 2257.2 1220.61 2259.21 1222.11 2260.71 1219.11 2261.71 1219.11 2263.72 1220.61 2265.22 1222.11 2266.73 1224.61 2268.23 1226.61 2269.74 1229.62 2271.25 1232.62 2272.75 1235.63 2274.76 1238.63 2276.26 1241.63 2277.77 1245.14 2279.27 1248.14 2280.78 1250.64 2282.28 1251.64 2283.78 1251.64 2285.29 1255.15 2286.79 1258.15 2288.8 1260.15 2290.3 1260.65 2291.81 1260.65 2293.31 1260.15 2294.82 1258.65 2296.32 1257.65 2297.83 1257.65 2299.83 1258.65 2300.84 1261.16 2302.84 1264.66 2304.35 1268.16 2305.85 1271.67 2307.36 1275.67 2308.86 1280.18 2310.36 1284.18 2311.87 1288.69 2313.88 1293.69 2315.38 1295.69 2316.88 1294.19 2318.39 1294.69 2319.89 1297.7 2321.4 1302.7 2322.9 1310.71 2324.41 1321.73 2325.91 1335.74 2327.92 1356.77 2329.43 1387.8 2330.93 1415.83 2332.43 1434.35 2333.94 1444.37 2335.44 1453.38 2336.95 1461.39 2338.95 1468.39 2339.96 1476.9 2341.96 1489.42 2343.47 1501.93 2344.97 1514.45 2346.48 1523.46 2347.98 1530.97 2349.49 1538.97 2350.99 1547.48 2353 1554.99 2354.5 1562.5" stroke="#FF0000" stroke-width="1.00003" stroke-linecap="round" stroke-linejoin="round" stroke-miterlimit="10" fill="none" fill-rule="evenodd"/><path d="M2354.5 1562.16 2355.5 1569.16 2357.5 1576.15 2359 1582.64 2360.5 1589.63 2362 1595.63 2363.5 1602.12 2365 1607.62 2366.5 1614.11 2370 1626.6 2371.5 1632.59 2373 1638.08 2374.5 1643.08 2376 1647.57 2377.5 1651.57 2379 1655.07 2380.5 1658.06 2382.5 1660.56 2384 1662.56 2385.5 1670.55 2387 1695.02 2388.5 1701.52 2390 1707.01 2391.5 1711.5 2393.5 1714.5 2394.5 1716.5 2396.5 1717.5 2432.5 1717.5 2433.5 1717 2435.5 1714 2437 1709.01 2438.5 1701.52 2440 1692.03 2441.5 1681.54 2443 1673.55 2444.5 1668.55 2446.5 1667.05 2448 1661.56 2449 1655.07 2451 1648.08 2452.5 1641.58 2454 1635.09 2455.5 1629.09 2457 1622.6 2458.5 1616.61 2460 1610.61 2463.5 1597.13 2465 1591.14 2466.5 1584.64 2468 1578.65 2469.5 1572.65 2471 1566.16 2472.5 1560.17 2474 1553.68 2476 1546.68 2477.5 1539.69 2479 1532.2 2480.5 1524.21 2482 1515.71 2483.5 1506.72 2485 1496.74 2487 1485.25 2488 1472.26 2490 1461.27 2491.5 1452.28 2493 1443.29 2494.5 1434.8 2496 1426.81 2497.5 1418.82 2499 1410.83 2501 1402.83 2502.5 1394.35 2504 1384.85 2505.5 1371.87 2507 1357.88 2508.5 1343.4 2510 1327.42 2511.5 1309.94 2513 1291.45 2515 1272.48 2516.5 1249.5" stroke="#FF0000" stroke-width="1.00003" stroke-linecap="round" stroke-linejoin="round" stroke-miterlimit="10" fill="none" fill-rule="evenodd"/><path d="M2516.5 1249 2518 1219.5 2519.5 1196.5 2521 1180 2522.5 1164 2524 1144 2526 1118.5 2527 1093 2529 1070.5 2530.5 1049.5 2532 1033.5 2533.5 1023 2535 1015 2536.5 1009 2538 1006 2540 1007 2541.5 1014.5 2542.5 1045 2544.5 1068 2546 1090 2547.5 1114.5 2549 1143.5 2550.5 1189.5 2552 1263.5 2553.5 1352.5 2555.5 1388 2557 1415 2558.5 1436.5 2560 1451 2561.5 1456 2563 1460.5 2564.5 1465.5 2566 1470 2567.5 1474 2569.5 1477.5 2571 1479.5 2572.5 1481 2574 1481.5 2575.5 1481 2577 1475.5 2578.5 1464 2580.5 1445 2581.5 1419 2583.5 1386.5 2585 1346 2586.5 1260 2588 930 2589.5 804 2591 792.5 2592.5 792.5 2594.5 818 2596 802 2597.5 807 2599 843 2600.5 903 2602 963.5 2603.5 1005.5 2605 1032.5 2606.5 1059.5 2608.5 1076.5 2610 1081 2611.5 1077 2613 1106.5 2614.5 1152 2616 1173 2617.5 1193 2619.5 1207.5 2620.5 1219.5 2622.5 1231 2624 1240.5 2625.5 1247.5 2627 1254.5 2628.5 1262 2630 1270.5 2631.5 1279.5 2633.5 1287.5 2635 1296.5 2636 1306.5 2638 1316.5 2639.5 1327.5 2641 1339.5 2642.5 1352 2644.5 1364.5 2645.5 1376.5 2647 1380 2649 1380 2650.5 1378 2652 1375 2653.5 1370 2655 1363.5 2656.5 1354.5 2658 1345 2660 1341.5 2661 1339.5 2663 1336.5 2664.5 1330.5 2666 1312.5 2667.5 1264 2669 1225 2670.5 1201.5 2672 1186 2674 1174 2675.5 1171 2677 1186.5 2678.5 1216.5" stroke="#FF0000" stroke-width="1.00003" stroke-linecap="round" stroke-linejoin="round" stroke-miterlimit="10" fill="none" fill-rule="evenodd"/><path d="M2678.5 1217 2680 1239.5 2681.5 1259.5 2683 1276 2684.5 1285.5 2686 1294 2688 1305 2689.5 1322.5 2691 1334.5 2692.5 1332.5 2694 1331 2695.5 1332 2697 1331.5 2699 1330.5 2700 1328 2702 1326 2703.5 1329 2705 1338.5 2706.5 1350 2708 1351.5 2709.5 1337.5 2711 1335.5 2713 1340.5 2714.5 1345 2716 1349 2717.5 1353 2719 1357 2720.5 1360.5 2722 1365 2723.5 1370 2725 1375 2727 1379 2728.5 1352.5 2730 1339 2731.5 1353.5 2733 1384 2734.5 1349.5 2736 1350 2738 1364 2739 1374.5 2740.5 1382 2742.5 1387.5 2744 1391.5 2745.5 1395.5 2747 1398 2748.5 1400.5 2750 1401.5 2751.5 1402.5 2753.5 1401.5 2754.5 1399.5 2756.5 1395.5 2758 1388 2759.5 1378 2761 1366.5 2762.5 1352 2764 1334.5 2765.5 1315 2767.5 1293 2769 1269.5 2770.5 1250.5 2772 1234 2773.5 1218.5 2775 1204.5 2776.5 1199.5 2778 1191 2779.5 1148.5 2781.5 1164 2783 1182.5 2784.5 1200.5 2786 1219 2787.5 1236 2789 1251 2790.5 1263 2792.5 1273.5 2793.5 1283.5 2795.5 1293 2797 1302.5 2798.5 1311.5 2800 1319.5 2801.5 1327.5 2803 1335.5 2804.5 1342 2806.5 1348 2808 1353.5 2809.5 1358 2811 1362.5 2812.5 1366 2814 1369.5 2815.5 1372.5 2817 1374.5 2818.5 1376.5 2820.5 1378 2823.5 1378 2825 1378 2826.5 1378.5 2828 1379 2829.5 1379.5 2831.5 1377.5 2832.5 1373.5 2834.5 1366.5 2836 1356.5 2837.5 1343.5 2839 1319.5 2840.5 1203.5" stroke="#FF0000" stroke-width="1.00003" stroke-linecap="round" stroke-linejoin="round" stroke-miterlimit="10" fill="none" fill-rule="evenodd"/><path d="M2840.5 1203.5 2842 1165.5 2843.5 1181 2845.5 1215.5 2847 1255.5 2848 1291 2850 1308.5 2851.5 1320 2853 1326.5 2854.5 1327.5 2856 1325.5 2857.5 1322 2859 1318.5 2861 1315 2862.5 1311.5 2864 1308 2865.5 1304.5 2867 1301 2868.5 1298 2870 1294.5 2871.5 1291.5 2873 1287.5 2875 1277 2876.5 1258.5 2878 1246 2879.5 1245 2881 1245.5 2882.5 1248 2884 1252 2886 1257.5 2887 1265.5 2889 1275 2890.5 1286 2892 1297.5 2893.5 1310.5 2895 1323.5 2896.5 1333 2898 1334 2900 1333.5 2901.5 1332.5 2903 1327.5 2904.5 1319.5 2906 1317.5 2907.5 1333.5 2909 1354.5 2910.5 1362 2912 1365 2914 1366.5 2915.5 1367.5 2917 1367 2918.5 1365 2920 1361 2921.5 1356.5 2923 1351 2925 1344 2926 1334.5 2928 1319 2929.5 1300 2931 1284 2932.5 1274.5 2934 1271.5 2935.5 1275 2937 1285 2939 1299.5 2940.5 1310.5 2941.5 1314 2943.5 1314 2945 1313.5 2946.5 1313 2948 1312 2949.5 1310.5 2951 1308.5 2952.5 1306.5 2954.5 1304 2956 1301.5 2957.5 1298.5 2959 1295 2960.5 1291.5 2962 1287.5 2963.5 1283.5 2965 1281 2966.5 1282.5 2968.5 1283.5 2969.5 1283.5" stroke="#FF0000" stroke-width="1.00003" stroke-linecap="round" stroke-linejoin="round" stroke-miterlimit="10" fill="none" fill-rule="evenodd"/><path d="M1537 1717 2969 1717 2969 697 1537 697 1537 1717" stroke="#000000" stroke-width="2.4999" stroke-linecap="round" stroke-linejoin="round" stroke-miterlimit="10" fill="none" fill-rule="evenodd"/></g></svg>