<svg width="3446" height="2492" xmlns="http://www.w3.org/2000/svg" xmlns:xlink="http://www.w3.org/1999/xlink" overflow="hidden"><defs><clipPath id="clip0"><rect x="448" y="-10" width="3446" height="2492"/></clipPath></defs><g clip-path="url(#clip0)" transform="translate(-448 10)"><path d="M460.612 1.83832 460.612 436.839 2147.61 436.839 2147.61 1.83832 460.612 1.83832Z" fill="#FFFFCC" fill-rule="evenodd"/><path d="M461.112 2.33778 461.112 438.338 2149.11 438.338 2149.11 2.33778Z" stroke="#000000" stroke-width="5.16617" stroke-linecap="round" stroke-miterlimit="8" fill="none" fill-rule="evenodd"/><text fill="#FF0000" font-family="MS PGothic,MS PGothic_MSFontService,sans-serif" font-weight="700" font-size="108" transform="matrix(1 0 0 1 881.382 180)">入力データの準備<tspan fill="#000000" font-size="98" x="-295.085" y="130">入力パラメータ・ファイルの作成・編集</tspan><tspan fill="#000000" font-size="98" x="-185.15" y="249">擬ポテンシャル・ファイルの用意</tspan></text><path d="M449.612 765.837 449.612 952.838 2158.61 952.838 2158.61 765.837 449.612 765.837Z" fill="#FFFFCC" fill-rule="evenodd"/><path d="M451.112 767.338 451.112 953.339 2159.11 953.339 2159.11 767.338Z" stroke="#000000" stroke-width="5.16617" stroke-linecap="round" stroke-miterlimit="8" fill="none" fill-rule="evenodd"/><text fill="#FF0000" font-family="MS PGothic,MS PGothic_MSFontService,sans-serif" font-weight="700" font-size="108" transform="matrix(1 0 0 1 1029.34 945)">計算の実行</text><path d="M457.612 1282.84 457.612 1586.84 2152.61 1586.84 2152.61 1282.84 457.612 1282.84Z" fill="#FFFFCC" fill-rule="evenodd"/><path d="M458.112 1284.34 458.112 1588.34 2153.11 1588.34 2153.11 1284.34Z" stroke="#000000" stroke-width="5.16617" stroke-linecap="round" stroke-miterlimit="8" fill="none" fill-rule="evenodd"/><text fill="#FF0000" font-family="MS PGothic,MS PGothic_MSFontService,sans-serif" font-weight="700" font-size="108" transform="matrix(1 0 0 1 919.416 1461)">計算結果の確認<tspan fill="#000000" font-family="Arial,Arial_MSFontService,sans-serif" font-size="98" x="-134.73" y="87">SCF</tspan><tspan fill="#000000" font-size="98" x="61.5643" y="101">計算の収束状況など</tspan></text><path d="M457.612 1915.84 457.612 2219.84 2152.61 2219.84 2152.61 1915.84 457.612 1915.84Z" fill="#FFFFCC" fill-rule="evenodd"/><path d="M458.112 1917.34 458.112 2220.34 2153.11 2220.34 2153.11 1917.34Z" stroke="#000000" stroke-width="5.16617" stroke-linecap="round" stroke-miterlimit="8" fill="none" fill-rule="evenodd"/><text fill="#FF0000" font-family="MS PGothic,MS PGothic_MSFontService,sans-serif" font-weight="700" font-size="108" transform="matrix(1 0 0 1 715.45 2094)">計算結果の解析、可視化<tspan fill="#000000" font-size="98" x="3.82758" y="117">各種物理量の計算、可視化</tspan></text><path d="M1315.38 438.338 1316.11 715.673 1295.11 715.673 1294.38 438.442 1315.38 438.338ZM1337.11 705.237 1305.82 767.338 1274.11 705.444 1337.11 705.237Z" stroke="#000000" stroke-width="0.826444" stroke-linejoin="bevel" stroke-miterlimit="10" fill-rule="evenodd"/><path d="M1316.78 953.338 1316.78 1232.49 1296.45 1232.49 1296.45 953.338 1316.78 953.338ZM1337.12 1222.13 1306.62 1284.34 1276.12 1222.13 1337.12 1222.13Z" stroke="#000000" stroke-width="0.826444" stroke-linejoin="bevel" stroke-miterlimit="10" fill-rule="evenodd"/><path d="M1316.78 1588.34 1316.78 1865.81 1296.45 1865.81 1296.45 1588.34 1316.78 1588.34ZM1337.12 1855.49 1306.62 1917.34 1276.12 1855.49 1337.12 1855.49Z" stroke="#000000" stroke-width="0.826444" stroke-linejoin="bevel" stroke-miterlimit="10" fill-rule="evenodd"/><text font-family="Arial,Arial_MSFontService,sans-serif" font-weight="700" font-size="125" transform="matrix(1 0 0 1 1841.03 583)">3<tspan font-size="125" x="69.3229" y="0">.2</tspan></text><text font-family="MS Gothic,MS Gothic_MSFontService,sans-serif" font-weight="700" font-size="125" transform="translate(2014.05 583)">節</text><text font-family="Arial,Arial_MSFontService,sans-serif" font-weight="700" font-size="125" transform="matrix(1 0 0 1 1841.85 1104)">3<tspan font-size="125" x="69.323" y="0">.3</tspan></text><text font-family="MS Gothic,MS Gothic_MSFontService,sans-serif" font-weight="700" font-size="125" transform="translate(2014.87 1104)">節</text><text font-family="Arial,Arial_MSFontService,sans-serif" font-weight="700" font-size="125" transform="matrix(1 0 0 1 1850.95 1771)">3<tspan font-size="125" x="69.3229" y="0">.4</tspan></text><text font-family="MS Gothic,MS Gothic_MSFontService,sans-serif" font-weight="700" font-size="125" transform="translate(2023.97 1771)">節</text><text font-family="Arial,Arial_MSFontService,sans-serif" font-weight="700" font-size="125" transform="matrix(1 0 0 1 1850.95 2379)">3<tspan font-size="125" x="69.3229" y="0">.5</tspan></text><text font-family="MS Gothic,MS Gothic_MSFontService,sans-serif" font-weight="700" font-size="125" transform="translate(2023.97 2379)">節</text><path d="M2153.45 1425.67 2174.13 1425.67 2174.13 1446.34 2153.45 1446.34 2153.45 1425.67ZM2194.81 1425.67 2215.49 1425.67 2215.49 1446.34 2194.81 1446.34 2194.81 1425.67ZM2236.15 1425.67 2256.85 1425.67 2256.85 1446.34 2236.15 1446.34 2236.15 1425.67ZM2277.51 1425.67 2298.19 1425.67 2298.19 1446.34 2277.51 1446.34 2277.51 1425.67ZM2318.87 1425.67 2339.54 1425.67 2339.54 1446.34 2318.87 1446.34 2318.87 1425.67ZM2360.22 1425.67 2380.9 1425.67 2380.9 1446.34 2360.22 1446.34 2360.22 1425.67ZM2401.58 1425.67 2422.24 1425.67 2422.24 1446.34 2401.58 1446.34 2401.58 1425.67ZM2442.94 1425.67 2463.6 1425.67 2463.6 1446.34 2442.94 1446.34 2442.94 1425.67ZM2484.28 1425.67 2504.95 1425.67 2504.95 1446.34 2484.28 1446.34 2484.28 1425.67ZM2525.63 1425.67 2546.31 1425.67 2546.31 1446.34 2525.63 1446.34 2525.63 1425.67ZM2566.99 1425.67 2587.67 1425.67 2587.67 1446.34 2566.99 1446.34 2566.99 1425.67ZM2608.33 1425.67 2629.01 1425.67 2629.01 1446.34 2608.33 1446.34 2608.33 1425.67ZM2649.69 1425.67 2670.37 1425.67 2670.37 1446.34 2649.69 1446.34 2649.69 1425.67ZM2669.43 1424.74 2669.43 1404.09 2690.11 1404.09 2690.11 1424.74 2669.43 1424.74ZM2669.43 1383.43 2669.43 1362.76 2690.11 1362.76 2690.11 1383.43 2669.43 1383.43ZM2669.43 1342.1 2669.43 1321.43 2690.11 1321.43 2690.11 1342.1 2669.43 1342.1ZM2669.43 1300.77 2669.43 1280.1 2690.11 1280.1 2690.11 1300.77 2669.43 1300.77ZM2669.43 1259.44 2669.43 1238.79 2690.11 1238.79 2690.11 1259.44 2669.43 1259.44ZM2669.43 1218.13 2669.43 1197.46 2690.11 1197.46 2690.11 1218.13 2669.43 1218.13ZM2669.43 1176.8 2669.43 1156.13 2690.11 1156.13 2690.11 1176.8 2669.43 1176.8ZM2669.43 1135.48 2669.43 1114.8 2690.11 1114.8 2690.11 1135.48 2669.43 1135.48ZM2669.43 1094.15 2669.43 1073.49 2690.11 1073.49 2690.11 1094.15 2669.43 1094.15ZM2669.43 1052.82 2669.43 1032.16 2690.11 1032.16 2690.11 1052.82 2669.43 1052.82ZM2669.43 1011.49 2669.43 990.829 2690.11 990.829 2690.11 1011.49 2669.43 1011.49ZM2669.43 970.18 2669.43 949.516 2690.11 949.516 2690.11 970.18 2669.43 970.18ZM2669.43 928.851 2669.43 908.186 2690.11 908.186 2690.11 928.851 2669.43 928.851ZM2669.43 887.521 2669.43 866.857 2690.11 866.857 2690.11 887.521 2669.43 887.521ZM2669.43 846.192 2669.43 825.536 2690.11 825.536 2690.11 846.192 2669.43 846.192ZM2669.43 804.874 2669.43 784.21 2690.11 784.21 2690.11 804.874 2669.43 804.874ZM2669.43 763.548 2669.43 742.888 2690.11 742.888 2690.11 763.548 2669.43 763.548ZM2669.43 722.222 2669.43 701.56 2690.11 701.56 2690.11 722.222 2669.43 722.222ZM2669.43 680.9 2669.43 660.234 2690.11 660.234 2690.11 680.9 2669.43 680.9ZM2669.43 639.574 2669.43 618.912 2690.11 618.912 2690.11 639.574 2669.43 639.574ZM2669.43 598.246 2669.43 577.586 2690.11 577.586 2690.11 598.246 2669.43 598.246ZM2669.43 556.924 2669.43 536.258 2690.11 536.258 2690.11 556.924 2669.43 556.924ZM2669.43 515.598 2669.43 494.936 2690.11 494.936 2690.11 515.598 2669.43 515.598ZM2669.43 474.275 2669.43 453.611 2690.11 453.611 2690.11 474.275 2669.43 474.275ZM2669.43 432.948 2669.43 412.287 2690.11 412.287 2690.11 432.948 2669.43 432.948ZM2669.43 391.623 2669.43 370.962 2690.11 370.962 2690.11 391.623 2669.43 391.623ZM2669.43 350.298 2669.43 329.637 2690.11 329.637 2690.11 350.298 2669.43 350.298ZM2669.43 308.974 2669.43 288.311 2690.11 288.311 2690.11 308.974 2669.43 308.974ZM2669.43 267.649 2669.43 246.986 2690.11 246.986 2690.11 267.649 2669.43 267.649ZM2669.43 226.324 2669.43 220.332 2679.77 230.663 2665.2 230.663 2665.2 210.001 2690.11 210.001 2690.11 226.324 2669.43 226.324ZM2644.52 230.663 2623.84 230.663 2623.84 210.001 2644.52 210.001 2644.52 230.663ZM2603.18 230.663 2582.5 230.663 2582.5 210.001 2603.18 210.001 2603.18 230.663ZM2561.82 230.663 2541.14 230.663 2541.14 210.001 2561.82 210.001 2561.82 230.663ZM2520.46 230.663 2499.79 230.663 2499.79 210.001 2520.46 210.001 2520.46 230.663ZM2479.11 230.663 2458.43 230.663 2458.43 210.001 2479.11 210.001 2479.11 230.663ZM2437.75 230.663 2417.07 230.663 2417.07 210.001 2437.75 210.001 2437.75 230.663ZM2396.41 230.663 2375.73 230.663 2375.73 210.001 2396.41 210.001 2396.41 230.663ZM2355.05 230.663 2334.37 230.663 2334.37 210.001 2355.05 210.001 2355.05 230.663ZM2313.7 230.663 2293.02 230.663 2293.02 210.001 2313.7 210.001 2313.7 230.663ZM2272.34 230.663 2251.68 230.663 2251.68 210.001 2272.34 210.001 2272.34 230.663ZM2230.98 230.663 2210.32 230.663 2210.32 210.001 2230.98 210.001 2230.98 230.663ZM2211.15 251.326 2149.11 220.332 2211.15 189.338 2211.15 251.326Z" stroke="#000000" stroke-width="0.826444" stroke-linejoin="bevel" stroke-miterlimit="10" fill-rule="evenodd"/><text font-family="MS PGothic,MS PGothic_MSFontService,sans-serif" font-weight="700" font-size="98" transform="matrix(1 0 0 1 2739.51 773)">入力データの検討・再計算<tspan font-size="98" x="0" y="115">継続計算</tspan></text><path d="M460.612 1.83832 460.612 436.839 2147.61 436.839 2147.61 1.83832 460.612 1.83832Z" fill="#FFFFCC" fill-rule="evenodd"/><path d="M461.112 2.33778 461.112 438.338 2149.11 438.338 2149.11 2.33778Z" stroke="#000000" stroke-width="5.16617" stroke-linecap="round" stroke-miterlimit="8" fill="none" fill-rule="evenodd"/><text fill="#FF0000" font-family="MS PGothic,MS PGothic_MSFontService,sans-serif" font-weight="700" font-size="108" transform="matrix(1 0 0 1 857.598 135)">入力データの準備<tspan fill="#000000" font-size="98" x="-295.085" y="130">入力パラメータ・ファイルの作成・編集</tspan><tspan fill="#000000" font-size="98" x="-185.15" y="249">擬ポテンシャル・ファイルの用意</tspan></text><path d="M449.612 765.837 449.612 952.838 2158.61 952.838 2158.61 765.837 449.612 765.837Z" fill="#FFFFCC" fill-rule="evenodd"/><path d="M451.112 767.338 451.112 953.339 2159.11 953.339 2159.11 767.338Z" stroke="#000000" stroke-width="5.16617" stroke-linecap="round" stroke-miterlimit="8" fill="none" fill-rule="evenodd"/><text fill="#FF0000" font-family="MS PGothic,MS PGothic_MSFontService,sans-serif" font-weight="700" font-size="108" transform="matrix(1 0 0 1 1029.34 912)">計算の実行</text><path d="M457.612 1282.84 457.612 1586.84 2152.61 1586.84 2152.61 1282.84 457.612 1282.84Z" fill="#FFFFCC" fill-rule="evenodd"/><path d="M458.112 1284.34 458.112 1588.34 2153.11 1588.34 2153.11 1284.34Z" stroke="#000000" stroke-width="5.16617" stroke-linecap="round" stroke-miterlimit="8" fill="none" fill-rule="evenodd"/><text fill="#FF0000" font-family="MS PGothic,MS PGothic_MSFontService,sans-serif" font-weight="700" font-size="108" transform="matrix(1 0 0 1 919.416 1435)">計算結果の確認<tspan fill="#000000" font-family="Arial,Arial_MSFontService,sans-serif" font-size="98" x="-134.73" y="101">SCF</tspan><tspan fill="#000000" font-size="98" x="61.5643" y="100">計算の収束状況など</tspan></text><path d="M457.612 1915.84 457.612 2219.84 2152.61 2219.84 2152.61 1915.84 457.612 1915.84Z" fill="#FFFFCC" fill-rule="evenodd"/><path d="M458.112 1917.34 458.112 2220.34 2153.11 2220.34 2153.11 1917.34Z" stroke="#000000" stroke-width="5.16617" stroke-linecap="round" stroke-miterlimit="8" fill="none" fill-rule="evenodd"/><text fill="#FF0000" font-family="MS PGothic,MS PGothic_MSFontService,sans-serif" font-weight="700" font-size="108" transform="matrix(1 0 0 1 715.45 2064)">計算結果の解析、可視化<tspan fill="#000000" font-size="98" x="3.82758" y="117">各種物理量の計算、可視化</tspan></text><path d="M1315.38 438.338 1316.11 715.673 1295.11 715.673 1294.38 438.442 1315.38 438.338ZM1337.11 705.237 1305.82 767.338 1274.11 705.444 1337.11 705.237Z" stroke="#000000" stroke-width="0.826444" stroke-linejoin="bevel" stroke-miterlimit="10" fill-rule="evenodd"/><path d="M1316.78 953.338 1316.78 1232.49 1296.45 1232.49 1296.45 953.338 1316.78 953.338ZM1337.12 1222.13 1306.62 1284.34 1276.12 1222.13 1337.12 1222.13Z" stroke="#000000" stroke-width="0.826444" stroke-linejoin="bevel" stroke-miterlimit="10" fill-rule="evenodd"/><path d="M1316.78 1588.34 1316.78 1865.81 1296.45 1865.81 1296.45 1588.34 1316.78 1588.34ZM1337.12 1855.49 1306.62 1917.34 1276.12 1855.49 1337.12 1855.49Z" stroke="#000000" stroke-width="0.826444" stroke-linejoin="bevel" stroke-miterlimit="10" fill-rule="evenodd"/><path d="M2153.45 1425.67 2174.13 1425.67 2174.13 1446.34 2153.45 1446.34 2153.45 1425.67ZM2194.81 1425.67 2215.49 1425.67 2215.49 1446.34 2194.81 1446.34 2194.81 1425.67ZM2236.15 1425.67 2256.85 1425.67 2256.85 1446.34 2236.15 1446.34 2236.15 1425.67ZM2277.51 1425.67 2298.19 1425.67 2298.19 1446.34 2277.51 1446.34 2277.51 1425.67ZM2318.87 1425.67 2339.54 1425.67 2339.54 1446.34 2318.87 1446.34 2318.87 1425.67ZM2360.22 1425.67 2380.9 1425.67 2380.9 1446.34 2360.22 1446.34 2360.22 1425.67ZM2401.58 1425.67 2422.24 1425.67 2422.24 1446.34 2401.58 1446.34 2401.58 1425.67ZM2442.94 1425.67 2463.6 1425.67 2463.6 1446.34 2442.94 1446.34 2442.94 1425.67ZM2484.28 1425.67 2504.95 1425.67 2504.95 1446.34 2484.28 1446.34 2484.28 1425.67ZM2525.63 1425.67 2546.31 1425.67 2546.31 1446.34 2525.63 1446.34 2525.63 1425.67ZM2566.99 1425.67 2587.67 1425.67 2587.67 1446.34 2566.99 1446.34 2566.99 1425.67ZM2608.33 1425.67 2629.01 1425.67 2629.01 1446.34 2608.33 1446.34 2608.33 1425.67ZM2649.69 1425.67 2670.37 1425.67 2670.37 1446.34 2649.69 1446.34 2649.69 1425.67ZM2669.43 1424.74 2669.43 1404.09 2690.11 1404.09 2690.11 1424.74 2669.43 1424.74ZM2669.43 1383.43 2669.43 1362.76 2690.11 1362.76 2690.11 1383.43 2669.43 1383.43ZM2669.43 1342.1 2669.43 1321.43 2690.11 1321.43 2690.11 1342.1 2669.43 1342.1ZM2669.43 1300.77 2669.43 1280.1 2690.11 1280.1 2690.11 1300.77 2669.43 1300.77ZM2669.43 1259.44 2669.43 1238.79 2690.11 1238.79 2690.11 1259.44 2669.43 1259.44ZM2669.43 1218.13 2669.43 1197.46 2690.11 1197.46 2690.11 1218.13 2669.43 1218.13ZM2669.43 1176.8 2669.43 1156.13 2690.11 1156.13 2690.11 1176.8 2669.43 1176.8ZM2669.43 1135.48 2669.43 1114.8 2690.11 1114.8 2690.11 1135.48 2669.43 1135.48ZM2669.43 1094.15 2669.43 1073.49 2690.11 1073.49 2690.11 1094.15 2669.43 1094.15ZM2669.43 1052.82 2669.43 1032.16 2690.11 1032.16 2690.11 1052.82 2669.43 1052.82ZM2669.43 1011.49 2669.43 990.829 2690.11 990.829 2690.11 1011.49 2669.43 1011.49ZM2669.43 970.18 2669.43 949.516 2690.11 949.516 2690.11 970.18 2669.43 970.18ZM2669.43 928.851 2669.43 908.186 2690.11 908.186 2690.11 928.851 2669.43 928.851ZM2669.43 887.521 2669.43 866.857 2690.11 866.857 2690.11 887.521 2669.43 887.521ZM2669.43 846.192 2669.43 825.536 2690.11 825.536 2690.11 846.192 2669.43 846.192ZM2669.43 804.874 2669.43 784.21 2690.11 784.21 2690.11 804.874 2669.43 804.874ZM2669.43 763.548 2669.43 742.888 2690.11 742.888 2690.11 763.548 2669.43 763.548ZM2669.43 722.222 2669.43 701.56 2690.11 701.56 2690.11 722.222 2669.43 722.222ZM2669.43 680.9 2669.43 660.234 2690.11 660.234 2690.11 680.9 2669.43 680.9ZM2669.43 639.574 2669.43 618.912 2690.11 618.912 2690.11 639.574 2669.43 639.574ZM2669.43 598.246 2669.43 577.586 2690.11 577.586 2690.11 598.246 2669.43 598.246ZM2669.43 556.924 2669.43 536.258 2690.11 536.258 2690.11 556.924 2669.43 556.924ZM2669.43 515.598 2669.43 494.936 2690.11 494.936 2690.11 515.598 2669.43 515.598ZM2669.43 474.275 2669.43 453.611 2690.11 453.611 2690.11 474.275 2669.43 474.275ZM2669.43 432.948 2669.43 412.287 2690.11 412.287 2690.11 432.948 2669.43 432.948ZM2669.43 391.623 2669.43 370.962 2690.11 370.962 2690.11 391.623 2669.43 391.623ZM2669.43 350.298 2669.43 329.637 2690.11 329.637 2690.11 350.298 2669.43 350.298ZM2669.43 308.974 2669.43 288.311 2690.11 288.311 2690.11 308.974 2669.43 308.974ZM2669.43 267.649 2669.43 246.986 2690.11 246.986 2690.11 267.649 2669.43 267.649ZM2669.43 226.324 2669.43 220.332 2679.77 230.663 2665.2 230.663 2665.2 210.001 2690.11 210.001 2690.11 226.324 2669.43 226.324ZM2644.52 230.663 2623.84 230.663 2623.84 210.001 2644.52 210.001 2644.52 230.663ZM2603.18 230.663 2582.5 230.663 2582.5 210.001 2603.18 210.001 2603.18 230.663ZM2561.82 230.663 2541.14 230.663 2541.14 210.001 2561.82 210.001 2561.82 230.663ZM2520.46 230.663 2499.79 230.663 2499.79 210.001 2520.46 210.001 2520.46 230.663ZM2479.11 230.663 2458.43 230.663 2458.43 210.001 2479.11 210.001 2479.11 230.663ZM2437.75 230.663 2417.07 230.663 2417.07 210.001 2437.75 210.001 2437.75 230.663ZM2396.41 230.663 2375.73 230.663 2375.73 210.001 2396.41 210.001 2396.41 230.663ZM2355.05 230.663 2334.37 230.663 2334.37 210.001 2355.05 210.001 2355.05 230.663ZM2313.7 230.663 2293.02 230.663 2293.02 210.001 2313.7 210.001 2313.7 230.663ZM2272.34 230.663 2251.68 230.663 2251.68 210.001 2272.34 210.001 2272.34 230.663ZM2230.98 230.663 2210.32 230.663 2210.32 210.001 2230.98 210.001 2230.98 230.663ZM2211.15 251.326 2149.11 220.332 2211.15 189.338 2211.15 251.326Z" stroke="#000000" stroke-width="0.826444" stroke-linejoin="bevel" stroke-miterlimit="10" fill-rule="evenodd"/><text font-family="MS PGothic,MS PGothic_MSFontService,sans-serif" font-weight="700" font-size="98" transform="matrix(1 0 0 1 2739.51 773)">入力データの検討・再計算<tspan font-size="98" x="0" y="115">継続計算</tspan></text></g></svg>