<svg width="2435" height="1042" xmlns="http://www.w3.org/2000/svg" xmlns:xlink="http://www.w3.org/1999/xlink" xml:space="preserve" overflow="hidden"><g transform="translate(-97 -494)"><g><g><g><path d="M167.909 876.48 186.584 876.48M1192.75 876.48 1174.08 876.48" stroke="#000000" stroke-width="2.075" fill="none" transform="matrix(1 0 0 1.04618 96.9999 494)"/><text font-family="Arial,Arial_MSFontService,sans-serif" font-weight="400" font-size="12" transform="matrix(2.075 0 0 2.17083 197.7 1419)">0</text><text font-family="Arial,Arial_MSFontService,sans-serif" font-weight="400" font-size="12" transform="matrix(2.075 0 0 2.17083 212.225 1419)">.</text><text font-family="Arial,Arial_MSFontService,sans-serif" font-weight="400" font-size="12" transform="matrix(2.075 0 0 2.17083 218.45 1419)">09</text><path d="M167.909 708.654 186.584 708.654M1192.75 708.654 1174.08 708.654" stroke="#000000" stroke-width="2.075" fill="none" transform="matrix(1 0 0 1.04618 96.9999 494)"/><text font-family="Arial,Arial_MSFontService,sans-serif" font-weight="400" font-size="12" transform="matrix(2.075 0 0 2.17083 212.225 1244)">0</text><text font-family="Arial,Arial_MSFontService,sans-serif" font-weight="400" font-size="12" transform="matrix(2.075 0 0 2.17083 226.75 1244)">.</text><text font-family="Arial,Arial_MSFontService,sans-serif" font-weight="400" font-size="12" transform="matrix(2.075 0 0 2.17083 232.975 1244)">1</text><path d="M167.909 540.828 186.584 540.828M1192.75 540.828 1174.08 540.828" stroke="#000000" stroke-width="2.075" fill="none" transform="matrix(1 0 0 1.04618 96.9999 494)"/><text font-family="Arial,Arial_MSFontService,sans-serif" font-weight="400" font-size="12" transform="matrix(2.075 0 0 2.17083 199.775 1068)">0</text><text font-family="Arial,Arial_MSFontService,sans-serif" font-weight="400" font-size="12" transform="matrix(2.075 0 0 2.17083 214.3 1068)">.</text><text font-family="Arial,Arial_MSFontService,sans-serif" font-weight="400" font-size="12" transform="matrix(2.075 0 0 2.17083 220.525 1068)">11</text><path d="M167.909 373.023 186.584 373.023M1192.75 373.023 1174.08 373.023" stroke="#000000" stroke-width="2.075" fill="none" transform="matrix(1 0 0 1.04618 96.9999 494)"/><text font-family="Arial,Arial_MSFontService,sans-serif" font-weight="400" font-size="12" transform="matrix(2.075 0 0 2.17083 197.7 893)">0</text><text font-family="Arial,Arial_MSFontService,sans-serif" font-weight="400" font-size="12" transform="matrix(2.075 0 0 2.17083 212.225 893)">.</text><text font-family="Arial,Arial_MSFontService,sans-serif" font-weight="400" font-size="12" transform="matrix(2.075 0 0 2.17083 218.45 893)">12</text><path d="M167.909 205.197 186.584 205.197M1192.75 205.197 1174.08 205.197" stroke="#000000" stroke-width="2.075" fill="none" transform="matrix(1 0 0 1.04618 96.9999 494)"/><text font-family="Arial,Arial_MSFontService,sans-serif" font-weight="400" font-size="12" transform="matrix(2.075 0 0 2.17083 197.7 717)">0</text><text font-family="Arial,Arial_MSFontService,sans-serif" font-weight="400" font-size="12" transform="matrix(2.075 0 0 2.17083 212.225 717)">.</text><text font-family="Arial,Arial_MSFontService,sans-serif" font-weight="400" font-size="12" transform="matrix(2.075 0 0 2.17083 218.45 717)">13</text><path d="M167.909 37.3708 186.584 37.3708M1192.75 37.3708 1174.08 37.3708" stroke="#000000" stroke-width="2.075" fill="none" transform="matrix(1 0 0 1.04618 96.9999 494)"/><text font-family="Arial,Arial_MSFontService,sans-serif" font-weight="400" font-size="12" transform="matrix(2.075 0 0 2.17083 197.7 542)">0</text><text font-family="Arial,Arial_MSFontService,sans-serif" font-weight="400" font-size="12" transform="matrix(2.075 0 0 2.17083 212.225 542)">.</text><text font-family="Arial,Arial_MSFontService,sans-serif" font-weight="400" font-size="12" transform="matrix(2.075 0 0 2.17083 218.45 542)">14</text><path d="M167.909 876.48 167.909 857.805M167.909 37.3708 167.909 56.0458" stroke="#000000" stroke-width="2.075" fill="none" transform="matrix(1 0 0 1.04618 96.9999 494)"/><text font-family="Arial,Arial_MSFontService,sans-serif" font-weight="400" font-size="12" transform="matrix(2.075 0 0 2.17083 257.646 1459)">0</text><path d="M338.723 876.48 338.723 857.805M338.723 37.3708 338.723 56.0458" stroke="#000000" stroke-width="2.075" fill="none" transform="matrix(1 0 0 1.04618 96.9999 494)"/><text font-family="Arial,Arial_MSFontService,sans-serif" font-weight="400" font-size="12" transform="matrix(2.075 0 0 2.17083 428.46 1459)">1</text><path d="M509.516 876.48 509.516 857.805M509.516 37.3708 509.516 56.0458" stroke="#000000" stroke-width="2.075" fill="none" transform="matrix(1 0 0 1.04618 96.9999 494)"/><text font-family="Arial,Arial_MSFontService,sans-serif" font-weight="400" font-size="12" transform="matrix(2.075 0 0 2.17083 599.254 1459)">2</text><path d="M680.33 876.48 680.33 857.805M680.33 37.3708 680.33 56.0458" stroke="#000000" stroke-width="2.075" fill="none" transform="matrix(1 0 0 1.04618 96.9999 494)"/><text font-family="Arial,Arial_MSFontService,sans-serif" font-weight="400" font-size="12" transform="matrix(2.075 0 0 2.17083 770.068 1459)">3</text><path d="M851.144 876.48 851.144 857.805M851.144 37.3708 851.144 56.0458" stroke="#000000" stroke-width="2.075" fill="none" transform="matrix(1 0 0 1.04618 96.9999 494)"/><text font-family="Arial,Arial_MSFontService,sans-serif" font-weight="400" font-size="12" transform="matrix(2.075 0 0 2.17083 940.882 1459)">4</text><path d="M1021.94 876.48 1021.94 857.805M1021.94 37.3708 1021.94 56.0458" stroke="#000000" stroke-width="2.075" fill="none" transform="matrix(1 0 0 1.04618 96.9999 494)"/><text font-family="Arial,Arial_MSFontService,sans-serif" font-weight="400" font-size="12" transform="matrix(2.075 0 0 2.17083 1111.68 1459)">5</text><path d="M1192.75 876.48 1192.75 857.805M1192.75 37.3708 1192.75 56.0458" stroke="#000000" stroke-width="2.075" fill="none" transform="matrix(1 0 0 1.04618 96.9999 494)"/><text font-family="Arial,Arial_MSFontService,sans-serif" font-weight="400" font-size="12" transform="matrix(2.075 0 0 2.17083 1282.49 1459)">6</text><path d="M167.909 37.3708 167.909 876.48 1192.75 876.48 1192.75 37.3708 167.909 37.3708Z" stroke="#000000" stroke-width="2.075" fill="none" transform="matrix(1 0 0 1.04618 96.9999 494)"/><text font-family="Arial,Arial_MSFontService,sans-serif" font-weight="400" font-size="12" transform="matrix(-3.81171e-16 -2.17083 2.075 -3.98776e-16 136.798 1006)">alpha</text><text font-family="Arial,Arial_MSFontService,sans-serif" font-weight="400" font-size="12" transform="matrix(2.075 0 0 2.17083 731.68 1517)">iteration</text><path d="M167.909 99.4548 338.723 515.658 509.516 670.059 680.33 723.76 851.144 740.547 1021.94 743.908 1192.75 745.589" stroke="#9400D3" stroke-width="2.075" fill="none" transform="matrix(1 0 0 1.04618 96.9999 494)"/><path d="M9.3375 0C9.3375 5.15696 5.15696 9.3375-2.07334e-15 9.3375-5.15696 9.3375-9.3375 5.15696-9.3375 1.03667e-15-9.3375-5.15696-5.15696-9.3375-1.03667e-15-9.3375 5.15696-9.3375 9.3375-5.15696 9.3375 0Z" stroke="#9400D3" stroke-width="2.07293" fill="none" transform="matrix(1 0 0 1.04618 264.909 598.048)"/><path d="M9.3375 0C9.3375 5.15696 5.15696 9.3375-2.07334e-15 9.3375-5.15696 9.3375-9.3375 5.15696-9.3375 1.03667e-15-9.3375-5.15696-5.15696-9.3375-1.03667e-15-9.3375 5.15696-9.3375 9.3375-5.15696 9.3375 0Z" stroke="#9400D3" stroke-width="2.07293" fill="none" transform="matrix(1 0 0 1.04618 435.723 1033.47)"/><path d="M9.3375 0C9.3375 5.15696 5.15696 9.3375-2.07334e-15 9.3375-5.15696 9.3375-9.3375 5.15696-9.3375 1.03667e-15-9.3375-5.15696-5.15696-9.3375-1.03667e-15-9.3375 5.15696-9.3375 9.3375-5.15696 9.3375 0Z" stroke="#9400D3" stroke-width="2.07293" fill="none" transform="matrix(1 0 0 1.04618 606.516 1195.01)"/><path d="M9.3375 0C9.3375 5.15696 5.15696 9.3375-2.07334e-15 9.3375-5.15696 9.3375-9.3375 5.15696-9.3375 1.03667e-15-9.3375-5.15696-5.15696-9.3375-1.03667e-15-9.3375 5.15696-9.3375 9.3375-5.15696 9.3375 0Z" stroke="#9400D3" stroke-width="2.07293" fill="none" transform="matrix(1 0 0 1.04618 777.33 1251.19)"/><path d="M9.3375 0C9.3375 5.15696 5.15696 9.3375-2.07334e-15 9.3375-5.15696 9.3375-9.3375 5.15696-9.3375 1.03667e-15-9.3375-5.15696-5.15696-9.3375-1.03667e-15-9.3375 5.15696-9.3375 9.3375-5.15696 9.3375 0Z" stroke="#9400D3" stroke-width="2.07293" fill="none" transform="matrix(1 0 0 1.04618 948.144 1268.75)"/><path d="M9.3375 0C9.3375 5.15696 5.15696 9.3375-2.07334e-15 9.3375-5.15696 9.3375-9.3375 5.15696-9.3375 1.03667e-15-9.3375-5.15696-5.15696-9.3375-1.03667e-15-9.3375 5.15696-9.3375 9.3375-5.15696 9.3375 0Z" stroke="#9400D3" stroke-width="2.07293" fill="none" transform="matrix(1 0 0 1.04618 1118.94 1272.27)"/><path d="M9.3375 0C9.3375 5.15696 5.15696 9.3375-2.07334e-15 9.3375-5.15696 9.3375-9.3375 5.15696-9.3375 1.03667e-15-9.3375-5.15696-5.15696-9.3375-1.03667e-15-9.3375 5.15696-9.3375 9.3375-5.15696 9.3375 0Z" stroke="#9400D3" stroke-width="2.07293" fill="none" transform="matrix(1 0 0 1.04618 1289.75 1274.02)"/><path d="M167.909 37.3708 167.909 876.48 1192.75 876.48 1192.75 37.3708 167.909 37.3708Z" stroke="#000000" stroke-width="2.075" fill="none" transform="matrix(1 0 0 1.04618 96.9999 494)"/></g></g></g><text font-family="Yu Gothic,Yu Gothic_MSFontService,sans-serif" font-weight="400" font-size="83" transform="matrix(1 0 0 1 393.487 713)">α</text><text font-family="Yu Gothic,Yu Gothic_MSFontService,sans-serif" font-weight="400" font-size="83" transform="matrix(1 0 0 1 475.987 713)">の値</text><text font-family="Yu Gothic,Yu Gothic_MSFontService,sans-serif" font-weight="400" font-size="83" transform="matrix(1 0 0 1 1568.4 713)">誘電率</text><g><g><g><path d="M150.5 876.48 169.175 876.48M1192.75 876.48 1174.08 876.48" stroke="#000000" stroke-width="2.075" fill="none" transform="matrix(1 0 0 1.04618 1287 494)"/><text font-family="Arial,Arial_MSFontService,sans-serif" font-weight="400" font-size="12" transform="matrix(2.075 0 0 2.17083 1384.82 1419)">7</text><text font-family="Arial,Arial_MSFontService,sans-serif" font-weight="400" font-size="12" transform="matrix(2.075 0 0 2.17083 1399.34 1419)">.</text><text font-family="Arial,Arial_MSFontService,sans-serif" font-weight="400" font-size="12" transform="matrix(2.075 0 0 2.17083 1405.57 1419)">0</text><path d="M150.5 756.607 169.175 756.607M1192.75 756.607 1174.08 756.607" stroke="#000000" stroke-width="2.075" fill="none" transform="matrix(1 0 0 1.04618 1287 494)"/><text font-family="Arial,Arial_MSFontService,sans-serif" font-weight="400" font-size="12" transform="matrix(2.075 0 0 2.17083 1384.82 1294)">7</text><text font-family="Arial,Arial_MSFontService,sans-serif" font-weight="400" font-size="12" transform="matrix(2.075 0 0 2.17083 1399.34 1294)">.</text><text font-family="Arial,Arial_MSFontService,sans-serif" font-weight="400" font-size="12" transform="matrix(2.075 0 0 2.17083 1405.57 1294)">5</text><path d="M150.5 636.734 169.175 636.734M1192.75 636.734 1174.08 636.734" stroke="#000000" stroke-width="2.075" fill="none" transform="matrix(1 0 0 1.04618 1287 494)"/><text font-family="Arial,Arial_MSFontService,sans-serif" font-weight="400" font-size="12" transform="matrix(2.075 0 0 2.17083 1384.82 1169)">8</text><text font-family="Arial,Arial_MSFontService,sans-serif" font-weight="400" font-size="12" transform="matrix(2.075 0 0 2.17083 1399.34 1169)">.</text><text font-family="Arial,Arial_MSFontService,sans-serif" font-weight="400" font-size="12" transform="matrix(2.075 0 0 2.17083 1405.57 1169)">0</text><path d="M150.5 516.862 169.175 516.862M1192.75 516.862 1174.08 516.862" stroke="#000000" stroke-width="2.075" fill="none" transform="matrix(1 0 0 1.04618 1287 494)"/><text font-family="Arial,Arial_MSFontService,sans-serif" font-weight="400" font-size="12" transform="matrix(2.075 0 0 2.17083 1384.82 1043)">8</text><text font-family="Arial,Arial_MSFontService,sans-serif" font-weight="400" font-size="12" transform="matrix(2.075 0 0 2.17083 1399.34 1043)">.</text><text font-family="Arial,Arial_MSFontService,sans-serif" font-weight="400" font-size="12" transform="matrix(2.075 0 0 2.17083 1405.57 1043)">5</text><path d="M150.5 396.989 169.175 396.989M1192.75 396.989 1174.08 396.989" stroke="#000000" stroke-width="2.075" fill="none" transform="matrix(1 0 0 1.04618 1287 494)"/><text font-family="Arial,Arial_MSFontService,sans-serif" font-weight="400" font-size="12" transform="matrix(2.075 0 0 2.17083 1384.82 918)">9</text><text font-family="Arial,Arial_MSFontService,sans-serif" font-weight="400" font-size="12" transform="matrix(2.075 0 0 2.17083 1399.34 918)">.</text><text font-family="Arial,Arial_MSFontService,sans-serif" font-weight="400" font-size="12" transform="matrix(2.075 0 0 2.17083 1405.57 918)">0</text><path d="M150.5 277.116 169.175 277.116M1192.75 277.116 1174.08 277.116" stroke="#000000" stroke-width="2.075" fill="none" transform="matrix(1 0 0 1.04618 1287 494)"/><text font-family="Arial,Arial_MSFontService,sans-serif" font-weight="400" font-size="12" transform="matrix(2.075 0 0 2.17083 1384.82 792)">9</text><text font-family="Arial,Arial_MSFontService,sans-serif" font-weight="400" font-size="12" transform="matrix(2.075 0 0 2.17083 1399.34 792)">.</text><text font-family="Arial,Arial_MSFontService,sans-serif" font-weight="400" font-size="12" transform="matrix(2.075 0 0 2.17083 1405.57 792)">5</text><path d="M150.5 157.243 169.175 157.243M1192.75 157.243 1174.08 157.243" stroke="#000000" stroke-width="2.075" fill="none" transform="matrix(1 0 0 1.04618 1287 494)"/><text font-family="Arial,Arial_MSFontService,sans-serif" font-weight="400" font-size="12" transform="matrix(2.075 0 0 2.17083 1370.29 667)">10</text><text font-family="Arial,Arial_MSFontService,sans-serif" font-weight="400" font-size="12" transform="matrix(2.075 0 0 2.17083 1399.34 667)">.</text><text font-family="Arial,Arial_MSFontService,sans-serif" font-weight="400" font-size="12" transform="matrix(2.075 0 0 2.17083 1405.57 667)">0</text><path d="M150.5 37.3708 169.175 37.3708M1192.75 37.3708 1174.08 37.3708" stroke="#000000" stroke-width="2.075" fill="none" transform="matrix(1 0 0 1.04618 1287 494)"/><text font-family="Arial,Arial_MSFontService,sans-serif" font-weight="400" font-size="12" transform="matrix(2.075 0 0 2.17083 1370.29 542)">10</text><text font-family="Arial,Arial_MSFontService,sans-serif" font-weight="400" font-size="12" transform="matrix(2.075 0 0 2.17083 1399.34 542)">.</text><text font-family="Arial,Arial_MSFontService,sans-serif" font-weight="400" font-size="12" transform="matrix(2.075 0 0 2.17083 1405.57 542)">5</text><path d="M150.5 876.48 150.5 857.805M150.5 37.3708 150.5 56.0458" stroke="#000000" stroke-width="2.075" fill="none" transform="matrix(1 0 0 1.04618 1287 494)"/><text font-family="Arial,Arial_MSFontService,sans-serif" font-weight="400" font-size="12" transform="matrix(2.075 0 0 2.17083 1430.24 1459)">0</text><path d="M324.219 876.48 324.219 857.805M324.219 37.3708 324.219 56.0458" stroke="#000000" stroke-width="2.075" fill="none" transform="matrix(1 0 0 1.04618 1287 494)"/><text font-family="Arial,Arial_MSFontService,sans-serif" font-weight="400" font-size="12" transform="matrix(2.075 0 0 2.17083 1603.96 1459)">1</text><path d="M497.917 876.48 497.917 857.805M497.917 37.3708 497.917 56.0458" stroke="#000000" stroke-width="2.075" fill="none" transform="matrix(1 0 0 1.04618 1287 494)"/><text font-family="Arial,Arial_MSFontService,sans-serif" font-weight="400" font-size="12" transform="matrix(2.075 0 0 2.17083 1777.65 1459)">2</text><path d="M671.636 876.48 671.636 857.805M671.636 37.3708 671.636 56.0458" stroke="#000000" stroke-width="2.075" fill="none" transform="matrix(1 0 0 1.04618 1287 494)"/><text font-family="Arial,Arial_MSFontService,sans-serif" font-weight="400" font-size="12" transform="matrix(2.075 0 0 2.17083 1951.37 1459)">3</text><path d="M845.334 876.48 845.334 857.805M845.334 37.3708 845.334 56.0458" stroke="#000000" stroke-width="2.075" fill="none" transform="matrix(1 0 0 1.04618 1287 494)"/><text font-family="Arial,Arial_MSFontService,sans-serif" font-weight="400" font-size="12" transform="matrix(2.075 0 0 2.17083 2125.07 1459)">4</text><path d="M1019.05 876.48 1019.05 857.805M1019.05 37.3708 1019.05 56.0458" stroke="#000000" stroke-width="2.075" fill="none" transform="matrix(1 0 0 1.04618 1287 494)"/><text font-family="Arial,Arial_MSFontService,sans-serif" font-weight="400" font-size="12" transform="matrix(2.075 0 0 2.17083 2298.79 1459)">5</text><path d="M1192.75 876.48 1192.75 857.805M1192.75 37.3708 1192.75 56.0458" stroke="#000000" stroke-width="2.075" fill="none" transform="matrix(1 0 0 1.04618 1287 494)"/><text font-family="Arial,Arial_MSFontService,sans-serif" font-weight="400" font-size="12" transform="matrix(2.075 0 0 2.17083 2472.49 1459)">6</text><path d="M150.5 37.3708 150.5 876.48 1192.75 876.48 1192.75 37.3708 150.5 37.3708Z" stroke="#000000" stroke-width="2.075" fill="none" transform="matrix(1 0 0 1.04618 1287 494)"/><text font-family="Symbol,Symbol_MSFontService,sans-serif" font-weight="400" font-size="12" transform="matrix(-3.81171e-16 -2.17083 2.075 -3.98776e-16 1326.8 983)">e</text><text font-family="Arial,Arial_MSFontService,sans-serif" font-weight="400" font-size="10" transform="matrix(-3.81171e-16 -2.17083 2.075 -3.98776e-16 1334.27 974)">0</text><text font-family="Arial,Arial_MSFontService,sans-serif" font-weight="400" font-size="12" transform="matrix(2.075 0 0 2.17083 1912.97 1517)">iteration</text><path d="M150.5 795.7 324.219 404.583 497.917 212.107 671.636 134.751 845.334 111.428 1019.05 105.431 1192.75 103.563" stroke="#9400D3" stroke-width="2.075" fill="none" transform="matrix(1 0 0 1.04618 1287 494)"/><path d="M9.3375 0C9.3375 5.15696 5.15696 9.3375-2.07334e-15 9.3375-5.15696 9.3375-9.3375 5.15696-9.3375 1.03667e-15-9.3375-5.15696-5.15696-9.3375-1.03667e-15-9.3375 5.15696-9.3375 9.3375-5.15696 9.3375 0Z" stroke="#9400D3" stroke-width="2.07293" fill="none" transform="matrix(1 0 0 1.04618 1437.5 1326.45)"/><path d="M9.3375 0C9.3375 5.15696 5.15696 9.3375-2.07334e-15 9.3375-5.15696 9.3375-9.3375 5.15696-9.3375 1.03667e-15-9.3375-5.15696-5.15696-9.3375-1.03667e-15-9.3375 5.15696-9.3375 9.3375-5.15696 9.3375 0Z" stroke="#9400D3" stroke-width="2.07293" fill="none" transform="matrix(1 0 0 1.04618 1611.22 917.269)"/><path d="M9.3375 0C9.3375 5.15696 5.15696 9.3375-2.07334e-15 9.3375-5.15696 9.3375-9.3375 5.15696-9.3375 1.03667e-15-9.3375-5.15696-5.15696-9.3375-1.03667e-15-9.3375 5.15696-9.3375 9.3375-5.15696 9.3375 0Z" stroke="#9400D3" stroke-width="2.07293" fill="none" transform="matrix(1 0 0 1.04618 1784.92 715.903)"/><path d="M9.3375 0C9.3375 5.15696 5.15696 9.3375-2.07334e-15 9.3375-5.15696 9.3375-9.3375 5.15696-9.3375 1.03667e-15-9.3375-5.15696-5.15696-9.3375-1.03667e-15-9.3375 5.15696-9.3375 9.3375-5.15696 9.3375 0Z" stroke="#9400D3" stroke-width="2.07293" fill="none" transform="matrix(1 0 0 1.04618 1958.64 634.974)"/><path d="M9.3375 0C9.3375 5.15696 5.15696 9.3375-2.07334e-15 9.3375-5.15696 9.3375-9.3375 5.15696-9.3375 1.03667e-15-9.3375-5.15696-5.15696-9.3375-1.03667e-15-9.3375 5.15696-9.3375 9.3375-5.15696 9.3375 0Z" stroke="#9400D3" stroke-width="2.07293" fill="none" transform="matrix(1 0 0 1.04618 2132.33 610.574)"/><path d="M9.3375 0C9.3375 5.15696 5.15696 9.3375-2.07334e-15 9.3375-5.15696 9.3375-9.3375 5.15696-9.3375 1.03667e-15-9.3375-5.15696-5.15696-9.3375-1.03667e-15-9.3375 5.15696-9.3375 9.3375-5.15696 9.3375 0Z" stroke="#9400D3" stroke-width="2.07293" fill="none" transform="matrix(1 0 0 1.04618 2306.05 604.3)"/><path d="M9.3375 0C9.3375 5.15696 5.15696 9.3375-2.07334e-15 9.3375-5.15696 9.3375-9.3375 5.15696-9.3375 1.03667e-15-9.3375-5.15696-5.15696-9.3375-1.03667e-15-9.3375 5.15696-9.3375 9.3375-5.15696 9.3375 0Z" stroke="#9400D3" stroke-width="2.07293" fill="none" transform="matrix(1 0 0 1.04618 2479.75 602.346)"/><path d="M150.5 37.3708 150.5 876.48 1192.75 876.48 1192.75 37.3708 150.5 37.3708Z" stroke="#000000" stroke-width="2.075" fill="none" transform="matrix(1 0 0 1.04618 1287 494)"/></g></g></g></g></svg>