<?xml version="1.0" encoding="UTF-8" standalone="no"?>
<svg
   xmlns:dc="http://purl.org/dc/elements/1.1/"
   xmlns:cc="http://creativecommons.org/ns#"
   xmlns:rdf="http://www.w3.org/1999/02/22-rdf-syntax-ns#"
   xmlns:svg="http://www.w3.org/2000/svg"
   xmlns="http://www.w3.org/2000/svg"
   xmlns:sodipodi="http://sodipodi.sourceforge.net/DTD/sodipodi-0.dtd"
   xmlns:inkscape="http://www.inkscape.org/namespaces/inkscape"
   version="1.0"
   width="159.74001mm"
   height="115.37mm"
   id="svg153"
   sodipodi:docname="image155.svg"
   inkscape:version="1.0.2-2 (e86c870879, 2021-01-15)">
  <metadata
     id="metadata157">
    <rdf:RDF>
      <cc:Work
         rdf:about="">
        <dc:format>image/svg+xml</dc:format>
        <dc:type
           rdf:resource="http://purl.org/dc/dcmitype/StillImage" />
        <dc:title></dc:title>
      </cc:Work>
    </rdf:RDF>
  </metadata>
  <sodipodi:namedview
     pagecolor="#ffffff"
     bordercolor="#666666"
     borderopacity="1"
     objecttolerance="10"
     gridtolerance="10"
     guidetolerance="10"
     inkscape:pageopacity="0"
     inkscape:pageshadow="2"
     inkscape:window-width="1858"
     inkscape:window-height="1057"
     id="namedview155"
     showgrid="false"
     inkscape:zoom="2.0410779"
     inkscape:cx="301.87088"
     inkscape:cy="218.02205"
     inkscape:window-x="-8"
     inkscape:window-y="-8"
     inkscape:window-maximized="1"
     inkscape:current-layer="svg153" />
  <defs
     id="defs3">
    <pattern
       id="EMFhbasepattern"
       patternUnits="userSpaceOnUse"
       width="6"
       height="6"
       x="0"
       y="0" />
  </defs>
  <path
     style="fill:none;stroke:#000000;stroke-width:0.088860892px;stroke-linecap:round;stroke-linejoin:round;stroke-miterlimit:4;stroke-dasharray:none;stroke-opacity:1;"
     d="  M 66.201365,387.70007   L 71.71074,387.70007   M 594.03507,387.70007   L 588.43683,387.70007  "
     id="path5" />
  <text
     xml:space="preserve"
     style="font-size:16.000000px;font-style:normal;font-variant:normal;font-weight:400;font-stretch:Normal;line-height:125.000000%;letter-spacing:0px;word-spacing:0px;fill:#000000;fill-opacity:1;stroke:none;font-family:Helvetica;text-align:start;text-anchor:start;"
     transform="matrix(1.000000,-0.000000,0.000000,1.000000,34.300304,393.120588)"
     x="0.000000"
     y="0.000000"
     id="text11"><tspan
       sodipodi:role="line"
       x="0.000000"
       y="0.000000"
       id="tspan9"><tspan
         dx="0.000000"
         dy="0.000000"
         style="fill:#000000;font-size:16.000000px;font-style:normal;font-variant:normal;font-weight:400;font-stretch:Normal;font-family:Helvetica;"
         id="tspan7">0.0</tspan></tspan></text>
  <path
     style="fill:none;stroke:#000000;stroke-width:0.088860892px;stroke-linecap:round;stroke-linejoin:round;stroke-miterlimit:4;stroke-dasharray:none;stroke-opacity:1;"
     d="  M 66.201365,340.51494   L 71.71074,340.51494   M 594.03507,340.51494   L 588.43683,340.51494  "
     id="path13" />
  <text
     xml:space="preserve"
     style="font-size:16.000000px;font-style:normal;font-variant:normal;font-weight:400;font-stretch:Normal;line-height:125.000000%;letter-spacing:0px;word-spacing:0px;fill:#000000;fill-opacity:1;stroke:none;font-family:Helvetica;text-align:start;text-anchor:start;"
     transform="matrix(1.000000,-0.000000,0.000000,1.000000,34.300304,345.935454)"
     x="0.000000"
     y="0.000000"
     id="text19"><tspan
       sodipodi:role="line"
       x="0.000000"
       y="0.000000"
       id="tspan17"><tspan
         dx="0.000000"
         dy="0.000000"
         style="fill:#000000;font-size:16.000000px;font-style:normal;font-variant:normal;font-weight:400;font-stretch:Normal;font-family:Helvetica;"
         id="tspan15">0.2</tspan></tspan></text>
  <path
     style="fill:none;stroke:#000000;stroke-width:0.088860892px;stroke-linecap:round;stroke-linejoin:round;stroke-miterlimit:4;stroke-dasharray:none;stroke-opacity:1;"
     d="  M 66.201365,293.41867   L 71.71074,293.41867   M 594.03507,293.41867   L 588.43683,293.41867  "
     id="path21" />
  <text
     xml:space="preserve"
     style="font-size:16.000000px;font-style:normal;font-variant:normal;font-weight:400;font-stretch:Normal;line-height:125.000000%;letter-spacing:0px;word-spacing:0px;fill:#000000;fill-opacity:1;stroke:none;font-family:Helvetica;text-align:start;text-anchor:start;"
     transform="matrix(1.000000,-0.000000,0.000000,1.000000,34.300304,298.750320)"
     x="0.000000"
     y="0.000000"
     id="text27"><tspan
       sodipodi:role="line"
       x="0.000000"
       y="0.000000"
       id="tspan25"><tspan
         dx="0.000000"
         dy="0.000000"
         style="fill:#000000;font-size:16.000000px;font-style:normal;font-variant:normal;font-weight:400;font-stretch:Normal;font-family:Helvetica;"
         id="tspan23">0.4</tspan></tspan></text>
  <path
     style="fill:none;stroke:#000000;stroke-width:0.088860892px;stroke-linecap:round;stroke-linejoin:round;stroke-miterlimit:4;stroke-dasharray:none;stroke-opacity:1;"
     d="  M 66.201365,246.23353   L 71.71074,246.23353   M 594.03507,246.23353   L 588.43683,246.23353  "
     id="path29" />
  <text
     xml:space="preserve"
     style="font-size:16.000000px;font-style:normal;font-variant:normal;font-weight:400;font-stretch:Normal;line-height:125.000000%;letter-spacing:0px;word-spacing:0px;fill:#000000;fill-opacity:1;stroke:none;font-family:Helvetica;text-align:start;text-anchor:start;"
     transform="matrix(1.000000,-0.000000,0.000000,1.000000,34.300304,251.565186)"
     x="0.000000"
     y="0.000000"
     id="text35"><tspan
       sodipodi:role="line"
       x="0.000000"
       y="0.000000"
       id="tspan33"><tspan
         dx="0.000000"
         dy="0.000000"
         style="fill:#000000;font-size:16.000000px;font-style:normal;font-variant:normal;font-weight:400;font-stretch:Normal;font-family:Helvetica;"
         id="tspan31">0.6</tspan></tspan></text>
  <path
     style="fill:none;stroke:#000000;stroke-width:0.088860892px;stroke-linecap:round;stroke-linejoin:round;stroke-miterlimit:4;stroke-dasharray:none;stroke-opacity:1;"
     d="  M 66.201365,199.0484   L 71.71074,199.0484   M 594.03507,199.0484   L 588.43683,199.0484  "
     id="path37" />
  <text
     xml:space="preserve"
     style="font-size:16.000000px;font-style:normal;font-variant:normal;font-weight:400;font-stretch:Normal;line-height:125.000000%;letter-spacing:0px;word-spacing:0px;fill:#000000;fill-opacity:1;stroke:none;font-family:Helvetica;text-align:start;text-anchor:start;"
     transform="matrix(1.000000,-0.000000,0.000000,1.000000,34.300304,204.380052)"
     x="0.000000"
     y="0.000000"
     id="text43"><tspan
       sodipodi:role="line"
       x="0.000000"
       y="0.000000"
       id="tspan41"><tspan
         dx="0.000000"
         dy="0.000000"
         style="fill:#000000;font-size:16.000000px;font-style:normal;font-variant:normal;font-weight:400;font-stretch:Normal;font-family:Helvetica;"
         id="tspan39">0.8</tspan></tspan></text>
  <path
     style="fill:none;stroke:#000000;stroke-width:0.088860892px;stroke-linecap:round;stroke-linejoin:round;stroke-miterlimit:4;stroke-dasharray:none;stroke-opacity:1;"
     d="  M 66.201365,151.7744   L 71.71074,151.7744   M 594.03507,151.7744   L 588.43683,151.7744  "
     id="path45" />
  <text
     xml:space="preserve"
     style="font-size:16.000000px;font-style:normal;font-variant:normal;font-weight:400;font-stretch:Normal;line-height:125.000000%;letter-spacing:0px;word-spacing:0px;fill:#000000;fill-opacity:1;stroke:none;font-family:Helvetica;text-align:start;text-anchor:start;"
     transform="matrix(1.000000,-0.000000,0.000000,1.000000,34.300304,157.194919)"
     x="0.000000"
     y="0.000000"
     id="text51"><tspan
       sodipodi:role="line"
       x="0.000000"
       y="0.000000"
       id="tspan49"><tspan
         dx="0.000000"
         dy="0.000000"
         style="fill:#000000;font-size:16.000000px;font-style:normal;font-variant:normal;font-weight:400;font-stretch:Normal;font-family:Helvetica;"
         id="tspan47">1.0</tspan></tspan></text>
  <path
     style="fill:none;stroke:#000000;stroke-width:0.088860892px;stroke-linecap:round;stroke-linejoin:round;stroke-miterlimit:4;stroke-dasharray:none;stroke-opacity:1;"
     d="  M 66.201365,104.58927   L 71.71074,104.58927   M 594.03507,104.58927   L 588.43683,104.58927  "
     id="path53" />
  <text
     xml:space="preserve"
     style="font-size:16.000000px;font-style:normal;font-variant:normal;font-weight:400;font-stretch:Normal;line-height:125.000000%;letter-spacing:0px;word-spacing:0px;fill:#000000;fill-opacity:1;stroke:none;font-family:Helvetica;text-align:start;text-anchor:start;"
     transform="matrix(1.000000,-0.000000,0.000000,1.000000,34.300304,110.009785)"
     x="0.000000"
     y="0.000000"
     id="text59"><tspan
       sodipodi:role="line"
       x="0.000000"
       y="0.000000"
       id="tspan57"><tspan
         dx="0.000000"
         dy="0.000000"
         style="fill:#000000;font-size:16.000000px;font-style:normal;font-variant:normal;font-weight:400;font-stretch:Normal;font-family:Helvetica;"
         id="tspan55">1.2</tspan></tspan></text>
  <path
     style="fill:none;stroke:#000000;stroke-width:0.088860892px;stroke-linecap:round;stroke-linejoin:round;stroke-miterlimit:4;stroke-dasharray:none;stroke-opacity:1;"
     d="  M 66.201365,57.492997   L 71.71074,57.492997   M 594.03507,57.492997   L 588.43683,57.492997  "
     id="path61" />
  <text
     xml:space="preserve"
     style="font-size:16.000000px;font-style:normal;font-variant:normal;font-weight:400;font-stretch:Normal;line-height:125.000000%;letter-spacing:0px;word-spacing:0px;fill:#000000;fill-opacity:1;stroke:none;font-family:Helvetica;text-align:start;text-anchor:start;"
     transform="matrix(1.000000,-0.000000,0.000000,1.000000,34.300304,62.824651)"
     x="0.000000"
     y="0.000000"
     id="text67"><tspan
       sodipodi:role="line"
       x="0.000000"
       y="0.000000"
       id="tspan65"><tspan
         dx="0.000000"
         dy="0.000000"
         style="fill:#000000;font-size:16.000000px;font-style:normal;font-variant:normal;font-weight:400;font-stretch:Normal;font-family:Helvetica;"
         id="tspan63">1.4</tspan></tspan></text>
  <path
     style="fill:none;stroke:#000000;stroke-width:0.088860892px;stroke-linecap:round;stroke-linejoin:round;stroke-miterlimit:4;stroke-dasharray:none;stroke-opacity:1;"
     d="  M 66.201365,10.307864   L 71.71074,10.307864   M 594.03507,10.307864   L 588.43683,10.307864  "
     id="path69" />
  <text
     xml:space="preserve"
     style="font-size:16.000000px;font-style:normal;font-variant:normal;font-weight:400;font-stretch:Normal;line-height:125.000000%;letter-spacing:0px;word-spacing:0px;fill:#000000;fill-opacity:1;stroke:none;font-family:Helvetica;text-align:start;text-anchor:start;"
     transform="matrix(1.000000,-0.000000,0.000000,1.000000,34.300304,15.639517)"
     x="0.000000"
     y="0.000000"
     id="text75"><tspan
       sodipodi:role="line"
       x="0.000000"
       y="0.000000"
       id="tspan73"><tspan
         dx="0.000000"
         dy="0.000000"
         style="fill:#000000;font-size:16.000000px;font-style:normal;font-variant:normal;font-weight:400;font-stretch:Normal;font-family:Helvetica;"
         id="tspan71">1.6</tspan></tspan></text>
  <path
     style="fill:none;stroke:#000000;stroke-width:0.088860892px;stroke-linecap:round;stroke-linejoin:round;stroke-miterlimit:4;stroke-dasharray:none;stroke-opacity:1;"
     d="  M 66.201365,387.70007   L 66.201365,382.1907   M 66.201365,10.307864   L 66.201365,15.817239  "
     id="path77" />
  <text
     xml:space="preserve"
     style="font-size:16.000000px;font-style:normal;font-variant:normal;font-weight:400;font-stretch:Normal;line-height:125.000000%;letter-spacing:0px;word-spacing:0px;fill:#000000;fill-opacity:1;stroke:none;font-family:Helvetica;text-align:start;text-anchor:start;"
     transform="matrix(1.000000,-0.000000,0.000000,1.000000,59.447937,409.115549)"
     x="0.000000"
     y="0.000000"
     id="text83"><tspan
       sodipodi:role="line"
       x="0.000000"
       y="0.000000"
       id="tspan81"><tspan
         dx="0.000000"
         dy="0.000000"
         style="fill:#000000;font-size:16.000000px;font-style:normal;font-variant:normal;font-weight:400;font-stretch:Normal;font-family:Helvetica;"
         id="tspan79"> 0</tspan></tspan></text>
  <path
     style="fill:none;stroke:#000000;stroke-width:0.088860892px;stroke-linecap:round;stroke-linejoin:round;stroke-miterlimit:4;stroke-dasharray:none;stroke-opacity:1;"
     d="  M 154.17365,387.70007   L 154.17365,382.1907   M 154.17365,10.307864   L 154.17365,15.817239  "
     id="path85" />
  <text
     xml:space="preserve"
     style="font-size:16.000000px;font-style:normal;font-variant:normal;font-weight:400;font-stretch:Normal;line-height:125.000000%;letter-spacing:0px;word-spacing:0px;fill:#000000;fill-opacity:1;stroke:none;font-family:Helvetica;text-align:start;text-anchor:start;"
     transform="matrix(1.000000,-0.000000,0.000000,1.000000,147.420220,409.115549)"
     x="0.000000"
     y="0.000000"
     id="text91"><tspan
       sodipodi:role="line"
       x="0.000000"
       y="0.000000"
       id="tspan89"><tspan
         dx="0.000000"
         dy="0.000000"
         style="fill:#000000;font-size:16.000000px;font-style:normal;font-variant:normal;font-weight:400;font-stretch:Normal;font-family:Helvetica;"
         id="tspan87"> 5</tspan></tspan></text>
  <path
     style="fill:none;stroke:#000000;stroke-width:0.088860892px;stroke-linecap:round;stroke-linejoin:round;stroke-miterlimit:4;stroke-dasharray:none;stroke-opacity:1;"
     d="  M 242.14593,387.70007   L 242.14593,382.1907   M 242.14593,10.307864   L 242.14593,15.817239  "
     id="path93" />
  <text
     xml:space="preserve"
     style="font-size:16.000000px;font-style:normal;font-variant:normal;font-weight:400;font-stretch:Normal;line-height:125.000000%;letter-spacing:0px;word-spacing:0px;fill:#000000;fill-opacity:1;stroke:none;font-family:Helvetica;text-align:start;text-anchor:start;"
     transform="matrix(1.000000,-0.000000,0.000000,1.000000,230.949459,409.115549)"
     x="0.000000"
     y="0.000000"
     id="text99"><tspan
       sodipodi:role="line"
       x="0.000000"
       y="0.000000"
       id="tspan97"><tspan
         dx="0.000000"
         dy="0.000000"
         style="fill:#000000;font-size:16.000000px;font-style:normal;font-variant:normal;font-weight:400;font-stretch:Normal;font-family:Helvetica;"
         id="tspan95"> 10</tspan></tspan></text>
  <path
     style="fill:none;stroke:#000000;stroke-width:0.088860892px;stroke-linecap:round;stroke-linejoin:round;stroke-miterlimit:4;stroke-dasharray:none;stroke-opacity:1;"
     d="  M 330.11822,387.70007   L 330.11822,382.1907   M 330.11822,10.307864   L 330.11822,15.817239  "
     id="path101" />
  <text
     xml:space="preserve"
     style="font-size:16.000000px;font-style:normal;font-variant:normal;font-weight:400;font-stretch:Normal;line-height:125.000000%;letter-spacing:0px;word-spacing:0px;fill:#000000;fill-opacity:1;stroke:none;font-family:Helvetica;text-align:start;text-anchor:start;"
     transform="matrix(1.000000,-0.000000,0.000000,1.000000,318.921743,409.115549)"
     x="0.000000"
     y="0.000000"
     id="text107"><tspan
       sodipodi:role="line"
       x="0.000000"
       y="0.000000"
       id="tspan105"><tspan
         dx="0.000000"
         dy="0.000000"
         style="fill:#000000;font-size:16.000000px;font-style:normal;font-variant:normal;font-weight:400;font-stretch:Normal;font-family:Helvetica;"
         id="tspan103"> 15</tspan></tspan></text>
  <path
     style="fill:none;stroke:#000000;stroke-width:0.088860892px;stroke-linecap:round;stroke-linejoin:round;stroke-miterlimit:4;stroke-dasharray:none;stroke-opacity:1;"
     d="  M 418.0905,387.70007   L 418.0905,382.1907   M 418.0905,10.307864   L 418.0905,15.817239  "
     id="path109" />
  <text
     xml:space="preserve"
     style="font-size:16.000000px;font-style:normal;font-variant:normal;font-weight:400;font-stretch:Normal;line-height:125.000000%;letter-spacing:0px;word-spacing:0px;fill:#000000;fill-opacity:1;stroke:none;font-family:Helvetica;text-align:start;text-anchor:start;"
     transform="matrix(1.000000,-0.000000,0.000000,1.000000,406.894026,409.115549)"
     x="0.000000"
     y="0.000000"
     id="text115"><tspan
       sodipodi:role="line"
       x="0.000000"
       y="0.000000"
       id="tspan113"><tspan
         dx="0.000000"
         dy="0.000000"
         style="fill:#000000;font-size:16.000000px;font-style:normal;font-variant:normal;font-weight:400;font-stretch:Normal;font-family:Helvetica;"
         id="tspan111"> 20</tspan></tspan></text>
  <path
     style="fill:none;stroke:#000000;stroke-width:0.088860892px;stroke-linecap:round;stroke-linejoin:round;stroke-miterlimit:4;stroke-dasharray:none;stroke-opacity:1;"
     d="  M 506.06278,387.70007   L 506.06278,382.1907   M 506.06278,10.307864   L 506.06278,15.817239  "
     id="path117" />
  <text
     xml:space="preserve"
     style="font-size:16.000000px;font-style:normal;font-variant:normal;font-weight:400;font-stretch:Normal;line-height:125.000000%;letter-spacing:0px;word-spacing:0px;fill:#000000;fill-opacity:1;stroke:none;font-family:Helvetica;text-align:start;text-anchor:start;"
     transform="matrix(1.000000,-0.000000,0.000000,1.000000,494.866310,409.115549)"
     x="0.000000"
     y="0.000000"
     id="text123"><tspan
       sodipodi:role="line"
       x="0.000000"
       y="0.000000"
       id="tspan121"><tspan
         dx="0.000000"
         dy="0.000000"
         style="fill:#000000;font-size:16.000000px;font-style:normal;font-variant:normal;font-weight:400;font-stretch:Normal;font-family:Helvetica;"
         id="tspan119"> 25</tspan></tspan></text>
  <path
     style="fill:none;stroke:#000000;stroke-width:0.088860892px;stroke-linecap:round;stroke-linejoin:round;stroke-miterlimit:4;stroke-dasharray:none;stroke-opacity:1;"
     d="  M 594.03507,387.70007   L 594.03507,382.1907   M 594.03507,10.307864   L 594.03507,15.817239  "
     id="path125" />
  <text
     xml:space="preserve"
     style="font-size:16.000000px;font-style:normal;font-variant:normal;font-weight:400;font-stretch:Normal;line-height:125.000000%;letter-spacing:0px;word-spacing:0px;fill:#000000;fill-opacity:1;stroke:none;font-family:Helvetica;text-align:start;text-anchor:start;"
     transform="matrix(1.000000,-0.000000,0.000000,1.000000,582.838593,409.115549)"
     x="0.000000"
     y="0.000000"
     id="text131"><tspan
       sodipodi:role="line"
       x="0.000000"
       y="0.000000"
       id="tspan129"><tspan
         dx="0.000000"
         dy="0.000000"
         style="fill:#000000;font-size:16.000000px;font-style:normal;font-variant:normal;font-weight:400;font-stretch:Normal;font-family:Helvetica;"
         id="tspan127"> 30</tspan></tspan></text>
  <path
     style="fill:none;stroke:#000000;stroke-width:0.088860892px;stroke-linecap:round;stroke-linejoin:round;stroke-miterlimit:4;stroke-dasharray:none;stroke-opacity:1;"
     d="  M 66.201365,10.307864   L 66.201365,387.70007   L 594.03507,387.70007   L 594.03507,10.307864   L 66.201365,10.307864  "
     id="path133" />
  <text
     xml:space="preserve"
     style="font-size:16.000000px;font-style:normal;font-variant:normal;font-weight:400;font-stretch:Normal;line-height:125.000000%;letter-spacing:0px;word-spacing:0px;fill:#000000;fill-opacity:1;stroke:none;font-family:Helvetica;text-align:start;text-anchor:start;"
     transform="matrix(0.000000,-1.000000,1.000000,0.000000,15.550656,283.910551)"
     x="0.000000"
     y="0.000000"
     id="text139"><tspan
       sodipodi:role="line"
       x="0.000000"
       y="0.000000"
       id="tspan137"><tspan
         dx="0.000000"
         dy="0.000000"
         style="fill:#000000;font-size:16.000000px;font-style:normal;font-variant:normal;font-weight:400;font-stretch:Normal;font-family:Helvetica;"
         id="tspan135">potential difference (eV)</tspan></tspan></text>
  <text
     xml:space="preserve"
     style="font-size:16.000000px;font-style:normal;font-variant:normal;font-weight:400;font-stretch:Normal;line-height:125.000000%;letter-spacing:0px;word-spacing:0px;fill:#000000;fill-opacity:1;stroke:none;font-family:Helvetica;text-align:start;text-anchor:start;"
     transform="matrix(1.000000,-0.000000,0.000000,1.000000,227.217302,433.107990)"
     x="0.000000"
     y="0.000000"
     id="text145"><tspan
       sodipodi:role="line"
       x="0.000000"
       y="0.000000"
       id="tspan143"><tspan
         dx="0.000000"
         dy="0.000000"
         style="fill:#000000;font-size:16.000000px;font-style:normal;font-variant:normal;font-weight:400;font-stretch:Normal;font-family:Helvetica;"
         id="tspan141">distance along the c-axis (Å)</tspan></tspan></text>
  <path
     style="fill:none;stroke:#ff0000;stroke-width:0.088860892px;stroke-linecap:round;stroke-linejoin:round;stroke-miterlimit:4;stroke-dasharray:none;stroke-opacity:1;"
     d="  M 68.956052,206.60157   L 71.71074,205.89069   L 74.376567,206.42385   L 77.131255,205.89069   L 79.974803,206.33499   L 82.729491,206.15727   L 85.484178,206.33499   L 88.150005,206.24613   L 90.815832,206.15727   L 93.57052,206.33499   L 96.414068,205.89069   L 99.168756,206.42385   L 101.92344,205.80183   L 104.58927,206.60157   L 107.34396,205.80183   L 110.18751,206.60157   L 112.94219,205.80183   L 115.69688,206.60157   L 118.36271,205.80183   L 121.1174,206.60157   L 123.96094,205.89069   L 126.71563,206.42385   L 129.47032,205.97955   L 132.13615,206.33499   L 134.80197,206.15727   L 137.55666,206.15727   L 140.40021,206.33499   L 143.1549,205.89069   L 145.90959,206.42385   L 148.57541,205.89069   L 151.3301,206.69044   L 154.17365,205.71297   L 156.92834,206.69044   L 159.68302,205.53524   L 162.34885,206.7793   L 165.10354,205.53524   L 167.94709,206.60157   L 170.70177,205.71297   L 173.45646,206.42385   L 176.12229,205.89069   L 178.78812,206.33499   L 181.5428,206.15727   L 184.38635,206.24613   L 187.14104,206.33499   L 189.89573,205.80183   L 192.56155,206.33499   L 195.31624,205.44638   L 198.15979,206.69044   L 200.91448,205.35752   L 203.66917,207.13474   L 206.33499,205.71297   L 209.08968,208.37879   L 211.93323,207.93449   L 214.68792,212.11095   L 217.4426,213.355   L 220.10843,218.86438   L 222.77426,221.70793   L 225.52894,226.68414   L 228.37249,229.2611   L 231.12718,232.10465   L 233.88187,234.32617   L 236.5477,235.57023   L 239.30238,240.10213   L 242.14593,240.99074   L 244.90062,248.54392   L 247.65531,248.8105   L 250.32113,260.00697   L 253.07582,257.43001   L 255.91937,272.98066   L 258.67406,264.36115   L 261.42875,293.86297   L 264.09457,306.39236   L 266.7604,274.31357   L 269.51509,297.95057   L 272.35864,293.86297   L 275.11332,302.30476   L 277.86801,304.34856   L 280.53384,308.88046   L 283.28852,313.23465   L 286.13207,316.07819   L 288.88676,321.23213   L 291.64145,323.18707   L 294.30728,328.87416   L 297.06196,330.65138   L 299.90551,336.33848   L 302.6602,338.64886   L 305.41489,344.78026   L 308.08071,348.06812   L 310.74654,354.28838   L 313.50123,358.73142   L 316.34478,364.59624   L 319.09946,369.39473   L 321.85415,374.10436   L 324.51998,362.55244   L 327.27467,324.34226   L 330.11822,268.8042   L 332.8729,201.00334   L 335.62759,122.80575   L 338.29342,66.290226   L 341.0481,30.390425   L 343.89165,18.038761   L 346.64634,22.304084   L 349.40103,24.88105   L 352.06686,28.524346   L 354.73268,30.479286  "
     id="path147" />
  <path
     style="fill:none;stroke:#ff0000;stroke-width:0.088860892px;stroke-linecap:round;stroke-linejoin:round;stroke-miterlimit:4;stroke-dasharray:none;stroke-opacity:1;"
     d="  M 354.73268,30.479286   L 357.48737,32.167643   L 360.33092,33.056252   L 363.08561,33.856   L 365.84029,38.032462   L 368.50612,64.868451   L 371.26081,75.087454   L 374.10436,81.396577   L 376.85904,88.416588   L 379.61373,92.681911   L 382.27956,98.813312   L 385.03425,102.36775   L 387.8778,108.05485   L 390.63248,111.25384   L 393.38717,116.58549   L 396.053,120.13993   L 398.71882,124.58297   L 401.47351,130.35893   L 404.31706,136.13489   L 407.07175,137.55666   L 409.82644,145.28756   L 412.49226,149.01972   L 415.24695,155.23998   L 418.0905,159.77188   L 420.84519,165.28126   L 423.59987,169.45772   L 426.2657,172.9233   L 429.02039,176.21115   L 431.86394,177.89951   L 434.61862,180.56533   L 437.37331,182.25369   L 440.03914,186.34129   L 442.70497,189.00712   L 445.45965,194.33877   L 448.3032,197.36004   L 451.05789,201.44764   L 453.81258,202.86942   L 456.4784,205.35752   L 459.23309,205.44638   L 462.07664,206.33499   L 464.83133,206.15727   L 467.58602,206.42385   L 470.25184,206.33499   L 473.00653,206.33499   L 475.85008,206.33499   L 478.60477,205.89069   L 481.35945,206.33499   L 484.02528,205.89069   L 486.69111,206.60157   L 489.4458,205.89069   L 492.28934,206.69044   L 495.04403,205.89069   L 497.79872,206.69044   L 500.46455,205.89069   L 503.21923,206.60157   L 506.06278,205.89069   L 508.81747,206.42385   L 511.57216,205.97955   L 514.23798,206.33499   L 516.99267,206.15727   L 519.83622,206.15727   L 522.59091,206.33499   L 525.3456,205.97955   L 528.01142,206.42385   L 530.67725,205.89069   L 533.43194,206.42385   L 536.27549,205.89069   L 539.03017,206.60157   L 541.78486,205.89069   L 544.45069,206.60157   L 547.20538,205.89069   L 550.04892,206.60157   L 552.80361,205.89069   L 555.5583,206.42385   L 558.22413,205.97955   L 560.97881,206.33499   L 563.82236,206.15727   L 566.57705,206.33499   L 569.33174,206.33499   L 571.99756,205.97955   L 574.66339,206.33499   L 577.41808,205.89069   L 580.26163,206.42385   L 583.01631,205.89069   L 585.771,206.60157   L 588.43683,205.80183   L 591.19152,206.60157   L 594.03507,205.80183  "
     id="path149" />
  <path
     style="fill:none;stroke:#000000;stroke-width:0.088860892px;stroke-linecap:round;stroke-linejoin:round;stroke-miterlimit:4;stroke-dasharray:none;stroke-opacity:1;"
     d="  M 66.201365,10.307864   L 66.201365,387.70007   L 594.03507,387.70007   L 594.03507,10.307864   L 66.201365,10.307864  "
     id="path151" />
</svg>
