<?xml version="1.0" encoding="UTF-8" standalone="no"?>
<svg
   xmlns:dc="http://purl.org/dc/elements/1.1/"
   xmlns:cc="http://creativecommons.org/ns#"
   xmlns:rdf="http://www.w3.org/1999/02/22-rdf-syntax-ns#"
   xmlns:svg="http://www.w3.org/2000/svg"
   xmlns="http://www.w3.org/2000/svg"
   xmlns:sodipodi="http://sodipodi.sourceforge.net/DTD/sodipodi-0.dtd"
   xmlns:inkscape="http://www.inkscape.org/namespaces/inkscape"
   version="1.0"
   width="159.74001mm"
   height="115.37mm"
   id="svg179"
   sodipodi:docname="image157.svg"
   inkscape:version="1.0.2-2 (e86c870879, 2021-01-15)">
  <metadata
     id="metadata183">
    <rdf:RDF>
      <cc:Work
         rdf:about="">
        <dc:format>image/svg+xml</dc:format>
        <dc:type
           rdf:resource="http://purl.org/dc/dcmitype/StillImage" />
        <dc:title></dc:title>
      </cc:Work>
    </rdf:RDF>
  </metadata>
  <sodipodi:namedview
     pagecolor="#ffffff"
     bordercolor="#666666"
     borderopacity="1"
     objecttolerance="10"
     gridtolerance="10"
     guidetolerance="10"
     inkscape:pageopacity="0"
     inkscape:pageshadow="2"
     inkscape:window-width="1858"
     inkscape:window-height="1057"
     id="namedview181"
     showgrid="false"
     inkscape:zoom="2.0410779"
     inkscape:cx="301.87088"
     inkscape:cy="218.02205"
     inkscape:window-x="-8"
     inkscape:window-y="-8"
     inkscape:window-maximized="1"
     inkscape:current-layer="svg179" />
  <defs
     id="defs3">
    <pattern
       id="EMFhbasepattern"
       patternUnits="userSpaceOnUse"
       width="6"
       height="6"
       x="0"
       y="0" />
  </defs>
  <path
     style="fill:none;stroke:#000000;stroke-width:0.088860892px;stroke-linecap:round;stroke-linejoin:round;stroke-miterlimit:4;stroke-dasharray:none;stroke-opacity:1;"
     d="  M 75.70948,387.70007   L 81.396577,387.70007   M 594.03507,387.70007   L 588.43683,387.70007  "
     id="path5" />
  <text
     xml:space="preserve"
     style="font-size:16.000000px;font-style:normal;font-variant:normal;font-weight:400;font-stretch:Normal;line-height:125.000000%;letter-spacing:0px;word-spacing:0px;fill:#000000;fill-opacity:1;stroke:none;font-family:Helvetica;text-align:start;text-anchor:start;"
     transform="matrix(1.000000,-0.000000,0.000000,1.000000,34.566887,393.120588)"
     x="0.000000"
     y="0.000000"
     id="text11"><tspan
       sodipodi:role="line"
       x="0.000000"
       y="0.000000"
       id="tspan9"><tspan
         dx="0.000000"
         dy="0.000000"
         style="fill:#000000;font-size:16.000000px;font-style:normal;font-variant:normal;font-weight:400;font-stretch:Normal;font-family:Helvetica;"
         id="tspan7">-2.5</tspan></tspan></text>
  <path
     style="fill:none;stroke:#000000;stroke-width:0.088860892px;stroke-linecap:round;stroke-linejoin:round;stroke-miterlimit:4;stroke-dasharray:none;stroke-opacity:1;"
     d="  M 75.70948,324.87542   L 81.396577,324.87542   M 594.03507,324.87542   L 588.43683,324.87542  "
     id="path13" />
  <text
     xml:space="preserve"
     style="font-size:16.000000px;font-style:normal;font-variant:normal;font-weight:400;font-stretch:Normal;line-height:125.000000%;letter-spacing:0px;word-spacing:0px;fill:#000000;fill-opacity:1;stroke:none;font-family:Helvetica;text-align:start;text-anchor:start;"
     transform="matrix(1.000000,-0.000000,0.000000,1.000000,34.566887,330.207076)"
     x="0.000000"
     y="0.000000"
     id="text19"><tspan
       sodipodi:role="line"
       x="0.000000"
       y="0.000000"
       id="tspan17"><tspan
         dx="0.000000"
         dy="0.000000"
         style="fill:#000000;font-size:16.000000px;font-style:normal;font-variant:normal;font-weight:400;font-stretch:Normal;font-family:Helvetica;"
         id="tspan15">-2.0</tspan></tspan></text>
  <path
     style="fill:none;stroke:#000000;stroke-width:0.088860892px;stroke-linecap:round;stroke-linejoin:round;stroke-miterlimit:4;stroke-dasharray:none;stroke-opacity:1;"
     d="  M 75.70948,261.87305   L 81.396577,261.87305   M 594.03507,261.87305   L 588.43683,261.87305  "
     id="path21" />
  <text
     xml:space="preserve"
     style="font-size:16.000000px;font-style:normal;font-variant:normal;font-weight:400;font-stretch:Normal;line-height:125.000000%;letter-spacing:0px;word-spacing:0px;fill:#000000;fill-opacity:1;stroke:none;font-family:Helvetica;text-align:start;text-anchor:start;"
     transform="matrix(1.000000,-0.000000,0.000000,1.000000,34.566887,267.293564)"
     x="0.000000"
     y="0.000000"
     id="text27"><tspan
       sodipodi:role="line"
       x="0.000000"
       y="0.000000"
       id="tspan25"><tspan
         dx="0.000000"
         dy="0.000000"
         style="fill:#000000;font-size:16.000000px;font-style:normal;font-variant:normal;font-weight:400;font-stretch:Normal;font-family:Helvetica;"
         id="tspan23">-1.5</tspan></tspan></text>
  <path
     style="fill:none;stroke:#000000;stroke-width:0.088860892px;stroke-linecap:round;stroke-linejoin:round;stroke-miterlimit:4;stroke-dasharray:none;stroke-opacity:1;"
     d="  M 75.70948,199.0484   L 81.396577,199.0484   M 594.03507,199.0484   L 588.43683,199.0484  "
     id="path29" />
  <text
     xml:space="preserve"
     style="font-size:16.000000px;font-style:normal;font-variant:normal;font-weight:400;font-stretch:Normal;line-height:125.000000%;letter-spacing:0px;word-spacing:0px;fill:#000000;fill-opacity:1;stroke:none;font-family:Helvetica;text-align:start;text-anchor:start;"
     transform="matrix(1.000000,-0.000000,0.000000,1.000000,34.566887,204.380052)"
     x="0.000000"
     y="0.000000"
     id="text35"><tspan
       sodipodi:role="line"
       x="0.000000"
       y="0.000000"
       id="tspan33"><tspan
         dx="0.000000"
         dy="0.000000"
         style="fill:#000000;font-size:16.000000px;font-style:normal;font-variant:normal;font-weight:400;font-stretch:Normal;font-family:Helvetica;"
         id="tspan31">-1.0</tspan></tspan></text>
  <path
     style="fill:none;stroke:#000000;stroke-width:0.088860892px;stroke-linecap:round;stroke-linejoin:round;stroke-miterlimit:4;stroke-dasharray:none;stroke-opacity:1;"
     d="  M 75.70948,136.13489   L 81.396577,136.13489   M 594.03507,136.13489   L 588.43683,136.13489  "
     id="path37" />
  <text
     xml:space="preserve"
     style="font-size:16.000000px;font-style:normal;font-variant:normal;font-weight:400;font-stretch:Normal;line-height:125.000000%;letter-spacing:0px;word-spacing:0px;fill:#000000;fill-opacity:1;stroke:none;font-family:Helvetica;text-align:start;text-anchor:start;"
     transform="matrix(1.000000,-0.000000,0.000000,1.000000,34.566887,141.466541)"
     x="0.000000"
     y="0.000000"
     id="text43"><tspan
       sodipodi:role="line"
       x="0.000000"
       y="0.000000"
       id="tspan41"><tspan
         dx="0.000000"
         dy="0.000000"
         style="fill:#000000;font-size:16.000000px;font-style:normal;font-variant:normal;font-weight:400;font-stretch:Normal;font-family:Helvetica;"
         id="tspan39">-0.5</tspan></tspan></text>
  <path
     style="fill:none;stroke:#000000;stroke-width:0.088860892px;stroke-linecap:round;stroke-linejoin:round;stroke-miterlimit:4;stroke-dasharray:none;stroke-opacity:1;"
     d="  M 75.70948,73.132514   L 81.396577,73.132514   M 594.03507,73.132514   L 588.43683,73.132514  "
     id="path45" />
  <text
     xml:space="preserve"
     style="font-size:16.000000px;font-style:normal;font-variant:normal;font-weight:400;font-stretch:Normal;line-height:125.000000%;letter-spacing:0px;word-spacing:0px;fill:#000000;fill-opacity:1;stroke:none;font-family:Helvetica;text-align:start;text-anchor:start;"
     transform="matrix(1.000000,-0.000000,0.000000,1.000000,43.897281,78.553029)"
     x="0.000000"
     y="0.000000"
     id="text51"><tspan
       sodipodi:role="line"
       x="0.000000"
       y="0.000000"
       id="tspan49"><tspan
         dx="0.000000"
         dy="0.000000"
         style="fill:#000000;font-size:16.000000px;font-style:normal;font-variant:normal;font-weight:400;font-stretch:Normal;font-family:Helvetica;"
         id="tspan47">0.0</tspan></tspan></text>
  <path
     style="fill:none;stroke:#000000;stroke-width:0.088860892px;stroke-linecap:round;stroke-linejoin:round;stroke-miterlimit:4;stroke-dasharray:none;stroke-opacity:1;"
     d="  M 75.70948,10.307864   L 81.396577,10.307864   M 594.03507,10.307864   L 588.43683,10.307864  "
     id="path53" />
  <text
     xml:space="preserve"
     style="font-size:16.000000px;font-style:normal;font-variant:normal;font-weight:400;font-stretch:Normal;line-height:125.000000%;letter-spacing:0px;word-spacing:0px;fill:#000000;fill-opacity:1;stroke:none;font-family:Helvetica;text-align:start;text-anchor:start;"
     transform="matrix(1.000000,-0.000000,0.000000,1.000000,43.897281,15.639517)"
     x="0.000000"
     y="0.000000"
     id="text59"><tspan
       sodipodi:role="line"
       x="0.000000"
       y="0.000000"
       id="tspan57"><tspan
         dx="0.000000"
         dy="0.000000"
         style="fill:#000000;font-size:16.000000px;font-style:normal;font-variant:normal;font-weight:400;font-stretch:Normal;font-family:Helvetica;"
         id="tspan55">0.5</tspan></tspan></text>
  <path
     style="fill:none;stroke:#000000;stroke-width:0.088860892px;stroke-linecap:round;stroke-linejoin:round;stroke-miterlimit:4;stroke-dasharray:none;stroke-opacity:1;"
     d="  M 75.70948,387.70007   L 75.70948,382.1907   M 75.70948,10.307864   L 75.70948,15.817239  "
     id="path61" />
  <text
     xml:space="preserve"
     style="font-size:16.000000px;font-style:normal;font-variant:normal;font-weight:400;font-stretch:Normal;line-height:125.000000%;letter-spacing:0px;word-spacing:0px;fill:#000000;fill-opacity:1;stroke:none;font-family:Helvetica;text-align:start;text-anchor:start;"
     transform="matrix(1.000000,-0.000000,0.000000,1.000000,69.044913,409.115549)"
     x="0.000000"
     y="0.000000"
     id="text67"><tspan
       sodipodi:role="line"
       x="0.000000"
       y="0.000000"
       id="tspan65"><tspan
         dx="0.000000"
         dy="0.000000"
         style="fill:#000000;font-size:16.000000px;font-style:normal;font-variant:normal;font-weight:400;font-stretch:Normal;font-family:Helvetica;"
         id="tspan63"> 0</tspan></tspan></text>
  <path
     style="fill:none;stroke:#000000;stroke-width:0.088860892px;stroke-linecap:round;stroke-linejoin:round;stroke-miterlimit:4;stroke-dasharray:none;stroke-opacity:1;"
     d="  M 140.57793,387.70007   L 140.57793,382.1907   M 140.57793,10.307864   L 140.57793,15.817239  "
     id="path69" />
  <text
     xml:space="preserve"
     style="font-size:16.000000px;font-style:normal;font-variant:normal;font-weight:400;font-stretch:Normal;line-height:125.000000%;letter-spacing:0px;word-spacing:0px;fill:#000000;fill-opacity:1;stroke:none;font-family:Helvetica;text-align:start;text-anchor:start;"
     transform="matrix(1.000000,-0.000000,0.000000,1.000000,133.824504,409.115549)"
     x="0.000000"
     y="0.000000"
     id="text75"><tspan
       sodipodi:role="line"
       x="0.000000"
       y="0.000000"
       id="tspan73"><tspan
         dx="0.000000"
         dy="0.000000"
         style="fill:#000000;font-size:16.000000px;font-style:normal;font-variant:normal;font-weight:400;font-stretch:Normal;font-family:Helvetica;"
         id="tspan71"> 2</tspan></tspan></text>
  <path
     style="fill:none;stroke:#000000;stroke-width:0.088860892px;stroke-linecap:round;stroke-linejoin:round;stroke-miterlimit:4;stroke-dasharray:none;stroke-opacity:1;"
     d="  M 205.35752,387.70007   L 205.35752,382.1907   M 205.35752,10.307864   L 205.35752,15.817239  "
     id="path77" />
  <text
     xml:space="preserve"
     style="font-size:16.000000px;font-style:normal;font-variant:normal;font-weight:400;font-stretch:Normal;line-height:125.000000%;letter-spacing:0px;word-spacing:0px;fill:#000000;fill-opacity:1;stroke:none;font-family:Helvetica;text-align:start;text-anchor:start;"
     transform="matrix(1.000000,-0.000000,0.000000,1.000000,198.604094,409.115549)"
     x="0.000000"
     y="0.000000"
     id="text83"><tspan
       sodipodi:role="line"
       x="0.000000"
       y="0.000000"
       id="tspan81"><tspan
         dx="0.000000"
         dy="0.000000"
         style="fill:#000000;font-size:16.000000px;font-style:normal;font-variant:normal;font-weight:400;font-stretch:Normal;font-family:Helvetica;"
         id="tspan79"> 4</tspan></tspan></text>
  <path
     style="fill:none;stroke:#000000;stroke-width:0.088860892px;stroke-linecap:round;stroke-linejoin:round;stroke-miterlimit:4;stroke-dasharray:none;stroke-opacity:1;"
     d="  M 270.13711,387.70007   L 270.13711,382.1907   M 270.13711,10.307864   L 270.13711,15.817239  "
     id="path85" />
  <text
     xml:space="preserve"
     style="font-size:16.000000px;font-style:normal;font-variant:normal;font-weight:400;font-stretch:Normal;line-height:125.000000%;letter-spacing:0px;word-spacing:0px;fill:#000000;fill-opacity:1;stroke:none;font-family:Helvetica;text-align:start;text-anchor:start;"
     transform="matrix(1.000000,-0.000000,0.000000,1.000000,263.383685,409.115549)"
     x="0.000000"
     y="0.000000"
     id="text91"><tspan
       sodipodi:role="line"
       x="0.000000"
       y="0.000000"
       id="tspan89"><tspan
         dx="0.000000"
         dy="0.000000"
         style="fill:#000000;font-size:16.000000px;font-style:normal;font-variant:normal;font-weight:400;font-stretch:Normal;font-family:Helvetica;"
         id="tspan87"> 6</tspan></tspan></text>
  <path
     style="fill:none;stroke:#000000;stroke-width:0.088860892px;stroke-linecap:round;stroke-linejoin:round;stroke-miterlimit:4;stroke-dasharray:none;stroke-opacity:1;"
     d="  M 334.82784,387.70007   L 334.82784,382.1907   M 334.82784,10.307864   L 334.82784,15.817239  "
     id="path93" />
  <text
     xml:space="preserve"
     style="font-size:16.000000px;font-style:normal;font-variant:normal;font-weight:400;font-stretch:Normal;line-height:125.000000%;letter-spacing:0px;word-spacing:0px;fill:#000000;fill-opacity:1;stroke:none;font-family:Helvetica;text-align:start;text-anchor:start;"
     transform="matrix(1.000000,-0.000000,0.000000,1.000000,328.163276,409.115549)"
     x="0.000000"
     y="0.000000"
     id="text99"><tspan
       sodipodi:role="line"
       x="0.000000"
       y="0.000000"
       id="tspan97"><tspan
         dx="0.000000"
         dy="0.000000"
         style="fill:#000000;font-size:16.000000px;font-style:normal;font-variant:normal;font-weight:400;font-stretch:Normal;font-family:Helvetica;"
         id="tspan95"> 8</tspan></tspan></text>
  <path
     style="fill:none;stroke:#000000;stroke-width:0.088860892px;stroke-linecap:round;stroke-linejoin:round;stroke-miterlimit:4;stroke-dasharray:none;stroke-opacity:1;"
     d="  M 399.60743,387.70007   L 399.60743,382.1907   M 399.60743,10.307864   L 399.60743,15.817239  "
     id="path101" />
  <text
     xml:space="preserve"
     style="font-size:16.000000px;font-style:normal;font-variant:normal;font-weight:400;font-stretch:Normal;line-height:125.000000%;letter-spacing:0px;word-spacing:0px;fill:#000000;fill-opacity:1;stroke:none;font-family:Helvetica;text-align:start;text-anchor:start;"
     transform="matrix(1.000000,-0.000000,0.000000,1.000000,388.499822,409.115549)"
     x="0.000000"
     y="0.000000"
     id="text107"><tspan
       sodipodi:role="line"
       x="0.000000"
       y="0.000000"
       id="tspan105"><tspan
         dx="0.000000"
         dy="0.000000"
         style="fill:#000000;font-size:16.000000px;font-style:normal;font-variant:normal;font-weight:400;font-stretch:Normal;font-family:Helvetica;"
         id="tspan103"> 10</tspan></tspan></text>
  <path
     style="fill:none;stroke:#000000;stroke-width:0.088860892px;stroke-linecap:round;stroke-linejoin:round;stroke-miterlimit:4;stroke-dasharray:none;stroke-opacity:1;"
     d="  M 464.47588,387.70007   L 464.47588,382.1907   M 464.47588,10.307864   L 464.47588,15.817239  "
     id="path109" />
  <text
     xml:space="preserve"
     style="font-size:16.000000px;font-style:normal;font-variant:normal;font-weight:400;font-stretch:Normal;line-height:125.000000%;letter-spacing:0px;word-spacing:0px;fill:#000000;fill-opacity:1;stroke:none;font-family:Helvetica;text-align:start;text-anchor:start;"
     transform="matrix(1.000000,-0.000000,0.000000,1.000000,453.279412,409.115549)"
     x="0.000000"
     y="0.000000"
     id="text115"><tspan
       sodipodi:role="line"
       x="0.000000"
       y="0.000000"
       id="tspan113"><tspan
         dx="0.000000"
         dy="0.000000"
         style="fill:#000000;font-size:16.000000px;font-style:normal;font-variant:normal;font-weight:400;font-stretch:Normal;font-family:Helvetica;"
         id="tspan111"> 12</tspan></tspan></text>
  <path
     style="fill:none;stroke:#000000;stroke-width:0.088860892px;stroke-linecap:round;stroke-linejoin:round;stroke-miterlimit:4;stroke-dasharray:none;stroke-opacity:1;"
     d="  M 529.25548,387.70007   L 529.25548,382.1907   M 529.25548,10.307864   L 529.25548,15.817239  "
     id="path117" />
  <text
     xml:space="preserve"
     style="font-size:16.000000px;font-style:normal;font-variant:normal;font-weight:400;font-stretch:Normal;line-height:125.000000%;letter-spacing:0px;word-spacing:0px;fill:#000000;fill-opacity:1;stroke:none;font-family:Helvetica;text-align:start;text-anchor:start;"
     transform="matrix(1.000000,-0.000000,0.000000,1.000000,518.059003,409.115549)"
     x="0.000000"
     y="0.000000"
     id="text123"><tspan
       sodipodi:role="line"
       x="0.000000"
       y="0.000000"
       id="tspan121"><tspan
         dx="0.000000"
         dy="0.000000"
         style="fill:#000000;font-size:16.000000px;font-style:normal;font-variant:normal;font-weight:400;font-stretch:Normal;font-family:Helvetica;"
         id="tspan119"> 14</tspan></tspan></text>
  <path
     style="fill:none;stroke:#000000;stroke-width:0.088860892px;stroke-linecap:round;stroke-linejoin:round;stroke-miterlimit:4;stroke-dasharray:none;stroke-opacity:1;"
     d="  M 594.03507,387.70007   L 594.03507,382.1907   M 594.03507,10.307864   L 594.03507,15.817239  "
     id="path125" />
  <text
     xml:space="preserve"
     style="font-size:16.000000px;font-style:normal;font-variant:normal;font-weight:400;font-stretch:Normal;line-height:125.000000%;letter-spacing:0px;word-spacing:0px;fill:#000000;fill-opacity:1;stroke:none;font-family:Helvetica;text-align:start;text-anchor:start;"
     transform="matrix(1.000000,-0.000000,0.000000,1.000000,582.838593,409.115549)"
     x="0.000000"
     y="0.000000"
     id="text131"><tspan
       sodipodi:role="line"
       x="0.000000"
       y="0.000000"
       id="tspan129"><tspan
         dx="0.000000"
         dy="0.000000"
         style="fill:#000000;font-size:16.000000px;font-style:normal;font-variant:normal;font-weight:400;font-stretch:Normal;font-family:Helvetica;"
         id="tspan127"> 16</tspan></tspan></text>
  <path
     style="fill:none;stroke:#000000;stroke-width:0.088860892px;stroke-linecap:round;stroke-linejoin:round;stroke-miterlimit:4;stroke-dasharray:none;stroke-opacity:1;"
     d="  M 75.70948,10.307864   L 75.70948,387.70007   L 594.03507,387.70007   L 594.03507,10.307864   L 75.70948,10.307864  "
     id="path133" />
  <text
     xml:space="preserve"
     style="font-size:16.000000px;font-style:normal;font-variant:normal;font-weight:400;font-stretch:Normal;line-height:125.000000%;letter-spacing:0px;word-spacing:0px;fill:#000000;fill-opacity:1;stroke:none;font-family:Helvetica;text-align:start;text-anchor:start;"
     transform="matrix(0.000000,-1.000000,1.000000,0.000000,15.550656,246.588976)"
     x="0.000000"
     y="0.000000"
     id="text139"><tspan
       sodipodi:role="line"
       x="0.000000"
       y="0.000000"
       id="tspan137"><tspan
         dx="0.000000"
         dy="0.000000"
         style="fill:#000000;font-size:16.000000px;font-style:normal;font-variant:normal;font-weight:400;font-stretch:Normal;font-family:Helvetica;"
         id="tspan135">potential (eV)</tspan></tspan></text>
  <text
     xml:space="preserve"
     style="font-size:16.000000px;font-style:normal;font-variant:normal;font-weight:400;font-stretch:Normal;line-height:125.000000%;letter-spacing:0px;word-spacing:0px;fill:#000000;fill-opacity:1;stroke:none;font-family:Helvetica;text-align:start;text-anchor:start;"
     transform="matrix(1.000000,-0.000000,0.000000,1.000000,232.015790,433.107990)"
     x="0.000000"
     y="0.000000"
     id="text145"><tspan
       sodipodi:role="line"
       x="0.000000"
       y="0.000000"
       id="tspan143"><tspan
         dx="0.000000"
         dy="0.000000"
         style="fill:#000000;font-size:16.000000px;font-style:normal;font-variant:normal;font-weight:400;font-stretch:Normal;font-family:Helvetica;"
         id="tspan141">distance along the c-axis (Å)</tspan></tspan></text>
  <text
     xml:space="preserve"
     style="font-size:16.000000px;font-style:normal;font-variant:normal;font-weight:400;font-stretch:Normal;line-height:125.000000%;letter-spacing:0px;word-spacing:0px;fill:#000000;fill-opacity:1;stroke:none;font-family:Helvetica;text-align:start;text-anchor:start;"
     transform="matrix(1.000000,-0.000000,0.000000,1.000000,232.015790,433.107990)"
     x="196.738016"
     y="-403.872756"
     id="text151"><tspan
       sodipodi:role="line"
       x="196.738016"
       y="-403.872756"
       id="tspan149"><tspan
         dx="0.000000"
         dy="0.000000"
         style="fill:#000000;font-size:16.000000px;font-style:normal;font-variant:normal;font-weight:400;font-stretch:Normal;font-family:Helvetica;"
         id="tspan147">no correction</tspan></tspan></text>
  <path
     style="fill:none;stroke:#ff0000;stroke-width:0.088860892px;stroke-linecap:round;stroke-linejoin:round;stroke-miterlimit:4;stroke-dasharray:none;stroke-opacity:1;"
     d="  M 530.76611,23.814719   L 574.75225,23.814719   M 79.263916,348.95672   L 82.818352,354.64382   L 86.461648,351.17825   L 90.016084,339.98177   L 93.57052,327.00808   L 97.124955,315.72275   L 100.67939,305.05944   L 104.23383,290.30854   L 107.96598,272.53636   L 111.52042,254.14215   L 115.07486,238.23605   L 118.62929,224.99578   L 122.18373,213.53272   L 125.82702,203.5803   L 129.38146,194.78308   L 132.9359,186.7856   L 136.49033,179.67672   L 140.04477,172.9233   L 143.68806,166.43645   L 147.2425,160.39391   L 150.79693,154.79567   L 154.35137,149.46402   L 157.90581,144.39895   L 161.46024,139.5116   L 165.01468,135.06856   L 168.56911,130.62551   L 172.12355,126.62677   L 175.67798,123.1612   L 179.23242,119.69562   L 182.87572,116.23005   L 186.43015,114.18625   L 189.98459,111.25384   L 193.53902,109.2989   L 197.09346,106.89965   L 200.6479,105.56674   L 204.38005,103.25636   L 207.93449,101.92344   L 211.48892,100.41281   L 215.04336,99.257617   L 218.5978,98.191286   L 222.24109,97.302677   L 225.79553,96.414068   L 229.34996,95.61432   L 232.9044,94.814572   L 236.45883,94.014824   L 240.01327,93.57052   L 243.65657,92.948493   L 247.211,92.237606   L 250.76544,91.348997   L 254.31987,91.260136   L 257.87431,90.371528   L 261.42875,89.927223   L 264.98318,89.394058   L 268.53762,88.683171   L 272.09205,88.061144   L 275.64649,87.61684   L 279.28978,86.817092   L 282.84422,86.461648   L 286.39866,86.017344   L 289.95309,85.573039   L 293.50753,84.862152   L 297.06196,84.59557   L 300.79412,83.706961   L 304.34856,83.351517   L 307.90299,82.64063   L 311.45743,82.374047   L 315.01186,81.485438   L 318.65516,81.396577   L 322.2096,80.507969   L 325.76403,80.152525   L 329.31847,79.530499   L 332.8729,79.263916   L 336.42734,79.70822   L 340.07064,78.908472   L 343.62507,77.931003   L 347.17951,77.308976   L 350.73394,76.598089   L 354.28838,76.598089   L 357.84281,75.70948   L 361.39725,75.265176   L 364.95169,74.376567   L 368.50612,74.376567   L 372.06056,73.576819   L 375.61499,73.310236   L 379.25829,72.599349   L 382.81272,72.421627   L 386.36716,71.71074   L 389.9216,71.177575   L 393.47603,70.377827   L 397.20819,70.200105   L 400.76262,69.489218   L 404.31706,69.044913   L 407.8715,68.68947   L 411.42593,68.156304   L 415.06923,67.623139   L 418.62366,67.623139   L 422.1781,66.645669   L 425.73254,66.379087   L 429.28697,65.579339   L 432.84141,65.490478   L 436.4847,64.957312   L 440.03914,64.601869   L 443.59357,63.71326  "
     id="path153" />
  <path
     style="fill:none;stroke:#ff0000;stroke-width:0.088860892px;stroke-linecap:round;stroke-linejoin:round;stroke-miterlimit:4;stroke-dasharray:none;stroke-opacity:1;"
     d="  M 443.59357,63.71326   L 447.14801,63.802121   L 450.70245,63.268955   L 454.25688,63.091234   L 457.81132,62.380346   L 461.36575,62.202625   L 464.92019,62.291486   L 468.47462,62.202625   L 472.02906,62.646929   L 475.67236,62.380346   L 479.22679,63.091234   L 482.78123,63.535538   L 486.33566,64.424147   L 489.8901,65.135034   L 493.62226,66.379087   L 497.17669,67.356556   L 500.73113,68.867192   L 504.28556,70.644409   L 507.84,73.043654   L 511.39444,75.265176   L 515.03773,77.931003   L 518.59217,81.041134   L 522.1466,84.68443   L 525.70104,88.238866   L 529.25548,92.415328   L 532.89877,96.236346   L 536.45321,100.41281   L 540.00764,105.12244   L 543.56208,110.72067   L 547.11651,116.14119   L 550.67095,122.27259   L 554.22539,129.02602   L 557.77982,137.0235   L 561.33426,146.17617   L 564.88869,156.83948   L 568.44313,169.90203   L 572.08643,185.98585   L 575.64086,205.80183   L 579.1953,232.99326   L 582.74973,267.91559   L 586.30417,303.72653   L 590.03633,331.62885  "
     id="path155" />
  <text
     xml:space="preserve"
     style="font-size:16.000000px;font-style:normal;font-variant:normal;font-weight:400;font-stretch:Normal;line-height:125.000000%;letter-spacing:0px;word-spacing:0px;fill:#000000;fill-opacity:1;stroke:none;font-family:Helvetica;text-align:start;text-anchor:start;"
     transform="matrix(1.000000,-0.000000,0.000000,1.000000,403.872756,45.230194)"
     x="0.000000"
     y="0.000000"
     id="text161"><tspan
       sodipodi:role="line"
       x="0.000000"
       y="0.000000"
       id="tspan159"><tspan
         dx="0.000000"
         dy="0.000000"
         style="fill:#000000;font-size:16.000000px;font-style:normal;font-variant:normal;font-weight:400;font-stretch:Normal;font-family:Helvetica;"
         id="tspan157">dipole correction</tspan></tspan></text>
  <path
     style="fill:none;stroke:#00ff00;stroke-width:0.088860892px;stroke-linecap:round;stroke-linejoin:round;stroke-miterlimit:4;stroke-dasharray:none;stroke-opacity:1;"
     d="  M 530.76611,39.80968   L 574.75225,39.80968   M 79.263916,349.31217   L 82.818352,355.53243   L 86.461648,352.51116   L 90.016084,341.84785   L 93.57052,329.40733   L 97.124955,318.74402   L 100.67939,308.52502   L 104.23383,294.21841   L 107.96598,276.9794   L 111.52042,259.11836   L 115.07486,243.65657   L 118.62929,231.12718   L 122.18373,220.10843   L 125.82702,210.77804   L 129.38146,202.33625   L 132.9359,195.04966   L 136.49033,188.20737   L 140.04477,182.16483   L 143.68806,176.12229   L 147.2425,170.79064   L 150.79693,165.54784   L 154.35137,160.92708   L 157.90581,156.12859   L 161.46024,152.04099   L 165.01468,147.95339   L 168.56911,144.13237   L 172.12355,140.48907   L 175.67798,137.82324   L 179.23242,134.62425   L 182.87572,131.95843   L 186.43015,130.00349   L 189.98459,128.04855   L 193.53902,126.27133   L 197.09346,124.67183   L 200.6479,123.6055   L 204.38005,122.18373   L 207.93449,121.02854   L 211.48892,120.22879   L 215.04336,119.25132   L 218.5978,119.0736   L 222.24109,118.36271   L 225.79553,118.36271   L 229.34996,117.74068   L 232.9044,117.82954   L 236.45883,117.11866   L 240.01327,117.56296   L 243.65657,117.0298   L 247.211,117.38524   L 250.76544,116.49663   L 254.31987,117.4741   L 257.87431,116.58549   L 261.42875,117.11866   L 264.98318,116.40777   L 268.53762,117.0298   L 272.09205,116.14119   L 275.64649,117.0298   L 279.28978,115.96346   L 282.84422,117.0298   L 286.39866,116.05233   L 289.95309,117.29638   L 293.50753,115.69688   L 297.06196,117.29638   L 300.79412,115.60802   L 304.34856,117.29638   L 307.90299,115.25258   L 311.45743,117.4741   L 315.01186,114.80827   L 318.65516,117.9184   L 322.2096,114.00852   L 325.76403,118.71815   L 329.31847,112.14245   L 332.8729,122.89461   L 336.42734,79.352777   L 340.07064,34.478026   L 343.62507,44.430446   L 347.17951,37.943601   L 350.73394,42.386646   L 354.28838,39.365375   L 357.84281,41.85348   L 361.39725,39.365375   L 364.95169,41.142593   L 368.50612,39.80968   L 372.06056,41.320315   L 375.61499,39.987402   L 379.25829,41.053732   L 382.81272,40.165123   L 386.36716,41.053732   L 389.9216,40.076262   L 393.47603,40.87601   L 397.20819,40.165123   L 400.76262,40.87601   L 404.31706,40.165123   L 407.8715,41.142593   L 411.42593,40.431706   L 415.06923,40.964871   L 418.62366,40.87601   L 422.1781,41.053732   L 425.73254,40.698289   L 429.28697,41.053732   L 432.84141,41.053732   L 436.4847,41.498037   L 440.03914,41.142593   L 443.59357,41.498037  "
     id="path163" />
  <path
     style="fill:none;stroke:#00ff00;stroke-width:0.088860892px;stroke-linecap:round;stroke-linejoin:round;stroke-miterlimit:4;stroke-dasharray:none;stroke-opacity:1;"
     d="  M 443.59357,41.498037   L 447.14801,41.498037   L 450.70245,41.942341   L 454.25688,41.85348   L 457.81132,42.208924   L 461.36575,41.942341   L 464.92019,42.919811   L 468.47462,43.097533   L 472.02906,44.430446   L 475.67236,44.519307   L 479.22679,45.941081   L 482.78123,46.474247   L 486.33566,48.429186   L 489.8901,49.495517   L 493.62226,51.272735   L 497.17669,52.694509   L 500.73113,54.916031   L 504.28556,57.048693   L 507.84,60.247685   L 511.39444,62.824651   L 515.03773,66.290226   L 518.59217,69.844661   L 522.1466,74.198845   L 525.70104,78.197585   L 529.25548,82.818352   L 532.89877,87.261396   L 536.45321,92.059885   L 540.00764,97.391538   L 543.56208,103.34522   L 547.11651,109.38776   L 550.67095,116.14119   L 554.22539,123.33892   L 557.77982,132.13615   L 561.33426,141.5554   L 564.88869,152.9296   L 568.44313,166.43645   L 572.08643,183.23116   L 575.64086,203.49144   L 579.1953,231.21604   L 582.74973,266.67154   L 586.30417,303.1045   L 590.03633,331.45113  "
     id="path165" />
  <text
     xml:space="preserve"
     style="font-size:16.000000px;font-style:normal;font-variant:normal;font-weight:400;font-stretch:Normal;line-height:125.000000%;letter-spacing:0px;word-spacing:0px;fill:#000000;fill-opacity:1;stroke:none;font-family:Helvetica;text-align:start;text-anchor:start;"
     transform="matrix(1.000000,-0.000000,0.000000,1.000000,491.045291,61.225155)"
     x="0.000000"
     y="0.000000"
     id="text171"><tspan
       sodipodi:role="line"
       x="0.000000"
       y="0.000000"
       id="tspan169"><tspan
         dx="0.000000"
         dy="0.000000"
         style="fill:#000000;font-size:16.000000px;font-style:normal;font-variant:normal;font-weight:400;font-stretch:Normal;font-family:Helvetica;"
         id="tspan167">esm</tspan></tspan></text>
  <path
     style="fill:none;stroke:#0000ff;stroke-width:0.088860892px;stroke-linecap:round;stroke-linejoin:round;stroke-miterlimit:4;stroke-dasharray:none;stroke-opacity:1;"
     d="  M 530.76611,55.80464   L 574.75225,55.80464   M 79.263916,355.62129   L 82.818352,361.39725   L 86.461648,358.64256   L 90.016084,347.71267   L 93.57052,335.27215   L 97.124955,324.51998   L 100.67939,314.30098   L 104.23383,300.08323   L 107.96598,282.75536   L 111.52042,264.80546   L 115.07486,249.43252   L 118.62929,236.81428   L 122.18373,225.79553   L 125.82702,216.19855   L 129.38146,208.02335   L 132.9359,200.55903   L 136.49033,193.71675   L 140.04477,187.58534   L 143.68806,181.72052   L 147.2425,176.12229   L 150.79693,171.14608   L 154.35137,166.25873   L 157.90581,161.5491   L 161.46024,157.10606   L 165.01468,153.3739   L 168.56911,149.37516   L 172.12355,145.82072   L 175.67798,142.79945   L 179.23242,139.77818   L 182.87572,137.11236   L 186.43015,135.51286   L 189.98459,133.11362   L 193.53902,131.69184   L 197.09346,129.91462   L 200.6479,129.02602   L 204.38005,127.2488   L 207.93449,126.44905   L 211.48892,125.47158   L 215.04336,124.93841   L 218.5978,124.40525   L 222.24109,123.96094   L 225.79553,123.6055   L 229.34996,123.25006   L 232.9044,123.07234   L 236.45883,123.07234   L 240.01327,123.07234   L 243.65657,122.80575   L 247.211,122.80575   L 250.76544,122.71689   L 254.31987,123.1612   L 257.87431,122.80575   L 261.42875,122.80575   L 264.98318,122.89461   L 268.53762,123.07234   L 272.09205,122.89461   L 275.64649,123.1612   L 279.28978,123.07234   L 282.84422,123.25006   L 286.39866,123.51664   L 289.95309,123.6055   L 293.50753,123.69436   L 297.06196,123.78322   L 300.79412,123.69436   L 304.34856,124.13867   L 307.90299,123.96094   L 311.45743,124.22753   L 315.01186,124.13867   L 318.65516,124.58297   L 322.2096,124.22753   L 325.76403,121.38398   L 329.31847,112.67561   L 332.8729,100.94597   L 336.42734,87.705701   L 340.07064,73.932262   L 343.62507,61.136294   L 347.17951,52.605648   L 350.73394,49.051213   L 354.28838,49.7621   L 357.84281,49.584378   L 361.39725,49.495517   L 364.95169,49.317795   L 368.50612,49.7621   L 372.06056,49.406656   L 375.61499,49.584378   L 379.25829,49.495517   L 382.81272,49.850961   L 386.36716,49.495517   L 389.9216,49.495517   L 393.47603,49.140073   L 397.20819,49.495517   L 400.76262,49.317795   L 404.31706,49.317795   L 407.8715,49.584378   L 411.42593,49.495517   L 415.06923,49.495517   L 418.62366,49.850961   L 422.1781,49.495517   L 425.73254,49.850961   L 429.28697,49.495517   L 432.84141,49.939822   L 436.4847,49.939822   L 440.03914,49.939822   L 443.59357,49.7621  "
     id="path173" />
  <path
     style="fill:none;stroke:#0000ff;stroke-width:0.088860892px;stroke-linecap:round;stroke-linejoin:round;stroke-miterlimit:4;stroke-dasharray:none;stroke-opacity:1;"
     d="  M 443.59357,49.7621   L 447.14801,50.384126   L 450.70245,50.206404   L 454.25688,50.384126   L 457.81132,50.384126   L 461.36575,50.650709   L 464.92019,51.183874   L 468.47462,51.539318   L 472.02906,52.427927   L 475.67236,52.694509   L 479.22679,53.938562   L 482.78123,54.649449   L 486.33566,56.160084   L 489.8901,57.404136   L 493.62226,58.825911   L 497.17669,60.514268   L 500.73113,62.291486   L 504.28556,64.601869   L 507.84,67.534278   L 511.39444,70.022383   L 515.03773,73.310236   L 518.59217,76.953533   L 522.1466,81.041134   L 525.70104,85.039874   L 529.25548,89.57178   L 532.89877,94.014824   L 536.45321,98.724451   L 540.00764,104.0561   L 543.56208,109.92092   L 547.11651,116.05233   L 550.67095,122.62803   L 554.22539,129.91462   L 557.77982,138.44527   L 561.33426,148.04225   L 564.88869,159.23872   L 568.44313,172.83444   L 572.08643,189.54028   L 575.64086,209.88943   L 579.1953,237.4363   L 582.74973,272.8918   L 586.30417,309.41363   L 590.03633,337.40481  "
     id="path175" />
  <path
     style="fill:none;stroke:#000000;stroke-width:0.088860892px;stroke-linecap:round;stroke-linejoin:round;stroke-miterlimit:4;stroke-dasharray:none;stroke-opacity:1;"
     d="  M 75.70948,10.307864   L 75.70948,387.70007   L 594.03507,387.70007   L 594.03507,10.307864   L 75.70948,10.307864  "
     id="path177" />
</svg>
