<?xml version="1.0" encoding="UTF-8" standalone="no"?>
<svg
   xmlns:dc="http://purl.org/dc/elements/1.1/"
   xmlns:cc="http://creativecommons.org/ns#"
   xmlns:rdf="http://www.w3.org/1999/02/22-rdf-syntax-ns#"
   xmlns:svg="http://www.w3.org/2000/svg"
   xmlns="http://www.w3.org/2000/svg"
   xmlns:sodipodi="http://sodipodi.sourceforge.net/DTD/sodipodi-0.dtd"
   xmlns:inkscape="http://www.inkscape.org/namespaces/inkscape"
   version="1.0"
   width="159.38mm"
   height="115.37mm"
   id="svg151"
   sodipodi:docname="image158.svg"
   inkscape:version="1.0.2-2 (e86c870879, 2021-01-15)">
  <metadata
     id="metadata155">
    <rdf:RDF>
      <cc:Work
         rdf:about="">
        <dc:format>image/svg+xml</dc:format>
        <dc:type
           rdf:resource="http://purl.org/dc/dcmitype/StillImage" />
        <dc:title></dc:title>
      </cc:Work>
    </rdf:RDF>
  </metadata>
  <sodipodi:namedview
     pagecolor="#ffffff"
     bordercolor="#666666"
     borderopacity="1"
     objecttolerance="10"
     gridtolerance="10"
     guidetolerance="10"
     inkscape:pageopacity="0"
     inkscape:pageshadow="2"
     inkscape:window-width="1858"
     inkscape:window-height="1057"
     id="namedview153"
     showgrid="false"
     inkscape:zoom="2.0410779"
     inkscape:cx="301.19056"
     inkscape:cy="218.02205"
     inkscape:window-x="-8"
     inkscape:window-y="-8"
     inkscape:window-maximized="1"
     inkscape:current-layer="svg151" />
  <defs
     id="defs3">
    <pattern
       id="EMFhbasepattern"
       patternUnits="userSpaceOnUse"
       width="6"
       height="6"
       x="0"
       y="0" />
  </defs>
  <path
     style="fill:none;stroke:#000000;stroke-width:0.088860892px;stroke-linecap:round;stroke-linejoin:round;stroke-miterlimit:4;stroke-dasharray:none;stroke-opacity:1;"
     d="  M 75.70948,387.70007   L 81.396577,387.70007   M 594.03507,387.70007   L 588.43683,387.70007  "
     id="path5" />
  <text
     xml:space="preserve"
     style="font-size:16.000000px;font-style:normal;font-variant:normal;font-weight:400;font-stretch:Normal;line-height:125.000000%;letter-spacing:0px;word-spacing:0px;fill:#000000;fill-opacity:1;stroke:none;font-family:Helvetica;text-align:start;text-anchor:start;"
     transform="matrix(1.000000,-0.000000,0.000000,1.000000,34.566887,393.120588)"
     x="0.000000"
     y="0.000000"
     id="text11"><tspan
       sodipodi:role="line"
       x="0.000000"
       y="0.000000"
       id="tspan9"><tspan
         dx="0.000000"
         dy="0.000000"
         style="fill:#000000;font-size:16.000000px;font-style:normal;font-variant:normal;font-weight:400;font-stretch:Normal;font-family:Helvetica;"
         id="tspan7">-0.4</tspan></tspan></text>
  <path
     style="fill:none;stroke:#000000;stroke-width:0.088860892px;stroke-linecap:round;stroke-linejoin:round;stroke-miterlimit:4;stroke-dasharray:none;stroke-opacity:1;"
     d="  M 75.70948,340.51494   L 81.396577,340.51494   M 594.03507,340.51494   L 588.43683,340.51494  "
     id="path13" />
  <text
     xml:space="preserve"
     style="font-size:16.000000px;font-style:normal;font-variant:normal;font-weight:400;font-stretch:Normal;line-height:125.000000%;letter-spacing:0px;word-spacing:0px;fill:#000000;fill-opacity:1;stroke:none;font-family:Helvetica;text-align:start;text-anchor:start;"
     transform="matrix(1.000000,-0.000000,0.000000,1.000000,34.566887,345.935454)"
     x="0.000000"
     y="0.000000"
     id="text19"><tspan
       sodipodi:role="line"
       x="0.000000"
       y="0.000000"
       id="tspan17"><tspan
         dx="0.000000"
         dy="0.000000"
         style="fill:#000000;font-size:16.000000px;font-style:normal;font-variant:normal;font-weight:400;font-stretch:Normal;font-family:Helvetica;"
         id="tspan15">-0.3</tspan></tspan></text>
  <path
     style="fill:none;stroke:#000000;stroke-width:0.088860892px;stroke-linecap:round;stroke-linejoin:round;stroke-miterlimit:4;stroke-dasharray:none;stroke-opacity:1;"
     d="  M 75.70948,293.41867   L 81.396577,293.41867   M 594.03507,293.41867   L 588.43683,293.41867  "
     id="path21" />
  <text
     xml:space="preserve"
     style="font-size:16.000000px;font-style:normal;font-variant:normal;font-weight:400;font-stretch:Normal;line-height:125.000000%;letter-spacing:0px;word-spacing:0px;fill:#000000;fill-opacity:1;stroke:none;font-family:Helvetica;text-align:start;text-anchor:start;"
     transform="matrix(1.000000,-0.000000,0.000000,1.000000,34.566887,298.750320)"
     x="0.000000"
     y="0.000000"
     id="text27"><tspan
       sodipodi:role="line"
       x="0.000000"
       y="0.000000"
       id="tspan25"><tspan
         dx="0.000000"
         dy="0.000000"
         style="fill:#000000;font-size:16.000000px;font-style:normal;font-variant:normal;font-weight:400;font-stretch:Normal;font-family:Helvetica;"
         id="tspan23">-0.2</tspan></tspan></text>
  <path
     style="fill:none;stroke:#000000;stroke-width:0.088860892px;stroke-linecap:round;stroke-linejoin:round;stroke-miterlimit:4;stroke-dasharray:none;stroke-opacity:1;"
     d="  M 75.70948,246.23353   L 81.396577,246.23353   M 594.03507,246.23353   L 588.43683,246.23353  "
     id="path29" />
  <text
     xml:space="preserve"
     style="font-size:16.000000px;font-style:normal;font-variant:normal;font-weight:400;font-stretch:Normal;line-height:125.000000%;letter-spacing:0px;word-spacing:0px;fill:#000000;fill-opacity:1;stroke:none;font-family:Helvetica;text-align:start;text-anchor:start;"
     transform="matrix(1.000000,-0.000000,0.000000,1.000000,34.566887,251.565186)"
     x="0.000000"
     y="0.000000"
     id="text35"><tspan
       sodipodi:role="line"
       x="0.000000"
       y="0.000000"
       id="tspan33"><tspan
         dx="0.000000"
         dy="0.000000"
         style="fill:#000000;font-size:16.000000px;font-style:normal;font-variant:normal;font-weight:400;font-stretch:Normal;font-family:Helvetica;"
         id="tspan31">-0.1</tspan></tspan></text>
  <path
     style="fill:none;stroke:#000000;stroke-width:0.088860892px;stroke-linecap:round;stroke-linejoin:round;stroke-miterlimit:4;stroke-dasharray:none;stroke-opacity:1;"
     d="  M 75.70948,199.0484   L 81.396577,199.0484   M 594.03507,199.0484   L 588.43683,199.0484  "
     id="path37" />
  <text
     xml:space="preserve"
     style="font-size:16.000000px;font-style:normal;font-variant:normal;font-weight:400;font-stretch:Normal;line-height:125.000000%;letter-spacing:0px;word-spacing:0px;fill:#000000;fill-opacity:1;stroke:none;font-family:Helvetica;text-align:start;text-anchor:start;"
     transform="matrix(1.000000,-0.000000,0.000000,1.000000,43.897281,204.380052)"
     x="0.000000"
     y="0.000000"
     id="text43"><tspan
       sodipodi:role="line"
       x="0.000000"
       y="0.000000"
       id="tspan41"><tspan
         dx="0.000000"
         dy="0.000000"
         style="fill:#000000;font-size:16.000000px;font-style:normal;font-variant:normal;font-weight:400;font-stretch:Normal;font-family:Helvetica;"
         id="tspan39">0.0</tspan></tspan></text>
  <path
     style="fill:none;stroke:#000000;stroke-width:0.088860892px;stroke-linecap:round;stroke-linejoin:round;stroke-miterlimit:4;stroke-dasharray:none;stroke-opacity:1;"
     d="  M 75.70948,151.7744   L 81.396577,151.7744   M 594.03507,151.7744   L 588.43683,151.7744  "
     id="path45" />
  <text
     xml:space="preserve"
     style="font-size:16.000000px;font-style:normal;font-variant:normal;font-weight:400;font-stretch:Normal;line-height:125.000000%;letter-spacing:0px;word-spacing:0px;fill:#000000;fill-opacity:1;stroke:none;font-family:Helvetica;text-align:start;text-anchor:start;"
     transform="matrix(1.000000,-0.000000,0.000000,1.000000,43.897281,157.194919)"
     x="0.000000"
     y="0.000000"
     id="text51"><tspan
       sodipodi:role="line"
       x="0.000000"
       y="0.000000"
       id="tspan49"><tspan
         dx="0.000000"
         dy="0.000000"
         style="fill:#000000;font-size:16.000000px;font-style:normal;font-variant:normal;font-weight:400;font-stretch:Normal;font-family:Helvetica;"
         id="tspan47">0.1</tspan></tspan></text>
  <path
     style="fill:none;stroke:#000000;stroke-width:0.088860892px;stroke-linecap:round;stroke-linejoin:round;stroke-miterlimit:4;stroke-dasharray:none;stroke-opacity:1;"
     d="  M 75.70948,104.58927   L 81.396577,104.58927   M 594.03507,104.58927   L 588.43683,104.58927  "
     id="path53" />
  <text
     xml:space="preserve"
     style="font-size:16.000000px;font-style:normal;font-variant:normal;font-weight:400;font-stretch:Normal;line-height:125.000000%;letter-spacing:0px;word-spacing:0px;fill:#000000;fill-opacity:1;stroke:none;font-family:Helvetica;text-align:start;text-anchor:start;"
     transform="matrix(1.000000,-0.000000,0.000000,1.000000,43.897281,110.009785)"
     x="0.000000"
     y="0.000000"
     id="text59"><tspan
       sodipodi:role="line"
       x="0.000000"
       y="0.000000"
       id="tspan57"><tspan
         dx="0.000000"
         dy="0.000000"
         style="fill:#000000;font-size:16.000000px;font-style:normal;font-variant:normal;font-weight:400;font-stretch:Normal;font-family:Helvetica;"
         id="tspan55">0.2</tspan></tspan></text>
  <path
     style="fill:none;stroke:#000000;stroke-width:0.088860892px;stroke-linecap:round;stroke-linejoin:round;stroke-miterlimit:4;stroke-dasharray:none;stroke-opacity:1;"
     d="  M 75.70948,57.492997   L 81.396577,57.492997   M 594.03507,57.492997   L 588.43683,57.492997  "
     id="path61" />
  <text
     xml:space="preserve"
     style="font-size:16.000000px;font-style:normal;font-variant:normal;font-weight:400;font-stretch:Normal;line-height:125.000000%;letter-spacing:0px;word-spacing:0px;fill:#000000;fill-opacity:1;stroke:none;font-family:Helvetica;text-align:start;text-anchor:start;"
     transform="matrix(1.000000,-0.000000,0.000000,1.000000,43.897281,62.824651)"
     x="0.000000"
     y="0.000000"
     id="text67"><tspan
       sodipodi:role="line"
       x="0.000000"
       y="0.000000"
       id="tspan65"><tspan
         dx="0.000000"
         dy="0.000000"
         style="fill:#000000;font-size:16.000000px;font-style:normal;font-variant:normal;font-weight:400;font-stretch:Normal;font-family:Helvetica;"
         id="tspan63">0.3</tspan></tspan></text>
  <path
     style="fill:none;stroke:#000000;stroke-width:0.088860892px;stroke-linecap:round;stroke-linejoin:round;stroke-miterlimit:4;stroke-dasharray:none;stroke-opacity:1;"
     d="  M 75.70948,10.307864   L 81.396577,10.307864   M 594.03507,10.307864   L 588.43683,10.307864  "
     id="path69" />
  <text
     xml:space="preserve"
     style="font-size:16.000000px;font-style:normal;font-variant:normal;font-weight:400;font-stretch:Normal;line-height:125.000000%;letter-spacing:0px;word-spacing:0px;fill:#000000;fill-opacity:1;stroke:none;font-family:Helvetica;text-align:start;text-anchor:start;"
     transform="matrix(1.000000,-0.000000,0.000000,1.000000,43.897281,15.639517)"
     x="0.000000"
     y="0.000000"
     id="text75"><tspan
       sodipodi:role="line"
       x="0.000000"
       y="0.000000"
       id="tspan73"><tspan
         dx="0.000000"
         dy="0.000000"
         style="fill:#000000;font-size:16.000000px;font-style:normal;font-variant:normal;font-weight:400;font-stretch:Normal;font-family:Helvetica;"
         id="tspan71">0.4</tspan></tspan></text>
  <path
     style="fill:none;stroke:#000000;stroke-width:0.088860892px;stroke-linecap:round;stroke-linejoin:round;stroke-miterlimit:4;stroke-dasharray:none;stroke-opacity:1;"
     d="  M 75.70948,387.70007   L 75.70948,382.1907   M 75.70948,10.307864   L 75.70948,15.817239  "
     id="path77" />
  <text
     xml:space="preserve"
     style="font-size:16.000000px;font-style:normal;font-variant:normal;font-weight:400;font-stretch:Normal;line-height:125.000000%;letter-spacing:0px;word-spacing:0px;fill:#000000;fill-opacity:1;stroke:none;font-family:Helvetica;text-align:start;text-anchor:start;"
     transform="matrix(1.000000,-0.000000,0.000000,1.000000,71.266436,409.115549)"
     x="0.000000"
     y="0.000000"
     id="text83"><tspan
       sodipodi:role="line"
       x="0.000000"
       y="0.000000"
       id="tspan81"><tspan
         dx="0.000000"
         dy="0.000000"
         style="fill:#000000;font-size:16.000000px;font-style:normal;font-variant:normal;font-weight:400;font-stretch:Normal;font-family:Helvetica;"
         id="tspan79">0</tspan></tspan></text>
  <path
     style="fill:none;stroke:#000000;stroke-width:0.088860892px;stroke-linecap:round;stroke-linejoin:round;stroke-miterlimit:4;stroke-dasharray:none;stroke-opacity:1;"
     d="  M 162.17113,387.70007   L 162.17113,382.1907   M 162.17113,10.307864   L 162.17113,15.817239  "
     id="path85" />
  <text
     xml:space="preserve"
     style="font-size:16.000000px;font-style:normal;font-variant:normal;font-weight:400;font-stretch:Normal;line-height:125.000000%;letter-spacing:0px;word-spacing:0px;fill:#000000;fill-opacity:1;stroke:none;font-family:Helvetica;text-align:start;text-anchor:start;"
     transform="matrix(1.000000,-0.000000,0.000000,1.000000,157.639223,409.115549)"
     x="0.000000"
     y="0.000000"
     id="text91"><tspan
       sodipodi:role="line"
       x="0.000000"
       y="0.000000"
       id="tspan89"><tspan
         dx="0.000000"
         dy="0.000000"
         style="fill:#000000;font-size:16.000000px;font-style:normal;font-variant:normal;font-weight:400;font-stretch:Normal;font-family:Helvetica;"
         id="tspan87">5</tspan></tspan></text>
  <path
     style="fill:none;stroke:#000000;stroke-width:0.088860892px;stroke-linecap:round;stroke-linejoin:round;stroke-miterlimit:4;stroke-dasharray:none;stroke-opacity:1;"
     d="  M 248.54392,387.70007   L 248.54392,382.1907   M 248.54392,10.307864   L 248.54392,15.817239  "
     id="path93" />
  <text
     xml:space="preserve"
     style="font-size:16.000000px;font-style:normal;font-variant:normal;font-weight:400;font-stretch:Normal;line-height:125.000000%;letter-spacing:0px;word-spacing:0px;fill:#000000;fill-opacity:1;stroke:none;font-family:Helvetica;text-align:start;text-anchor:start;"
     transform="matrix(1.000000,-0.000000,0.000000,1.000000,239.568966,409.115549)"
     x="0.000000"
     y="0.000000"
     id="text99"><tspan
       sodipodi:role="line"
       x="0.000000"
       y="0.000000"
       id="tspan97"><tspan
         dx="0.000000"
         dy="0.000000"
         style="fill:#000000;font-size:16.000000px;font-style:normal;font-variant:normal;font-weight:400;font-stretch:Normal;font-family:Helvetica;"
         id="tspan95">10</tspan></tspan></text>
  <path
     style="fill:none;stroke:#000000;stroke-width:0.088860892px;stroke-linecap:round;stroke-linejoin:round;stroke-miterlimit:4;stroke-dasharray:none;stroke-opacity:1;"
     d="  M 334.82784,387.70007   L 334.82784,382.1907   M 334.82784,10.307864   L 334.82784,15.817239  "
     id="path101" />
  <text
     xml:space="preserve"
     style="font-size:16.000000px;font-style:normal;font-variant:normal;font-weight:400;font-stretch:Normal;line-height:125.000000%;letter-spacing:0px;word-spacing:0px;fill:#000000;fill-opacity:1;stroke:none;font-family:Helvetica;text-align:start;text-anchor:start;"
     transform="matrix(1.000000,-0.000000,0.000000,1.000000,325.941753,409.115549)"
     x="0.000000"
     y="0.000000"
     id="text107"><tspan
       sodipodi:role="line"
       x="0.000000"
       y="0.000000"
       id="tspan105"><tspan
         dx="0.000000"
         dy="0.000000"
         style="fill:#000000;font-size:16.000000px;font-style:normal;font-variant:normal;font-weight:400;font-stretch:Normal;font-family:Helvetica;"
         id="tspan103">15</tspan></tspan></text>
  <path
     style="fill:none;stroke:#000000;stroke-width:0.088860892px;stroke-linecap:round;stroke-linejoin:round;stroke-miterlimit:4;stroke-dasharray:none;stroke-opacity:1;"
     d="  M 421.28949,387.70007   L 421.28949,382.1907   M 421.28949,10.307864   L 421.28949,15.817239  "
     id="path109" />
  <text
     xml:space="preserve"
     style="font-size:16.000000px;font-style:normal;font-variant:normal;font-weight:400;font-stretch:Normal;line-height:125.000000%;letter-spacing:0px;word-spacing:0px;fill:#000000;fill-opacity:1;stroke:none;font-family:Helvetica;text-align:start;text-anchor:start;"
     transform="matrix(1.000000,-0.000000,0.000000,1.000000,412.314541,409.115549)"
     x="0.000000"
     y="0.000000"
     id="text115"><tspan
       sodipodi:role="line"
       x="0.000000"
       y="0.000000"
       id="tspan113"><tspan
         dx="0.000000"
         dy="0.000000"
         style="fill:#000000;font-size:16.000000px;font-style:normal;font-variant:normal;font-weight:400;font-stretch:Normal;font-family:Helvetica;"
         id="tspan111">20</tspan></tspan></text>
  <path
     style="fill:none;stroke:#000000;stroke-width:0.088860892px;stroke-linecap:round;stroke-linejoin:round;stroke-miterlimit:4;stroke-dasharray:none;stroke-opacity:1;"
     d="  M 507.57342,387.70007   L 507.57342,382.1907   M 507.57342,10.307864   L 507.57342,15.817239  "
     id="path117" />
  <text
     xml:space="preserve"
     style="font-size:16.000000px;font-style:normal;font-variant:normal;font-weight:400;font-stretch:Normal;line-height:125.000000%;letter-spacing:0px;word-spacing:0px;fill:#000000;fill-opacity:1;stroke:none;font-family:Helvetica;text-align:start;text-anchor:start;"
     transform="matrix(1.000000,-0.000000,0.000000,1.000000,498.687328,409.115549)"
     x="0.000000"
     y="0.000000"
     id="text123"><tspan
       sodipodi:role="line"
       x="0.000000"
       y="0.000000"
       id="tspan121"><tspan
         dx="0.000000"
         dy="0.000000"
         style="fill:#000000;font-size:16.000000px;font-style:normal;font-variant:normal;font-weight:400;font-stretch:Normal;font-family:Helvetica;"
         id="tspan119">25</tspan></tspan></text>
  <path
     style="fill:none;stroke:#000000;stroke-width:0.088860892px;stroke-linecap:round;stroke-linejoin:round;stroke-miterlimit:4;stroke-dasharray:none;stroke-opacity:1;"
     d="  M 594.03507,387.70007   L 594.03507,382.1907   M 594.03507,10.307864   L 594.03507,15.817239  "
     id="path125" />
  <text
     xml:space="preserve"
     style="font-size:16.000000px;font-style:normal;font-variant:normal;font-weight:400;font-stretch:Normal;line-height:125.000000%;letter-spacing:0px;word-spacing:0px;fill:#000000;fill-opacity:1;stroke:none;font-family:Helvetica;text-align:start;text-anchor:start;"
     transform="matrix(1.000000,-0.000000,0.000000,1.000000,585.060115,409.115549)"
     x="0.000000"
     y="0.000000"
     id="text131"><tspan
       sodipodi:role="line"
       x="0.000000"
       y="0.000000"
       id="tspan129"><tspan
         dx="0.000000"
         dy="0.000000"
         style="fill:#000000;font-size:16.000000px;font-style:normal;font-variant:normal;font-weight:400;font-stretch:Normal;font-family:Helvetica;"
         id="tspan127">30</tspan></tspan></text>
  <path
     style="fill:none;stroke:#000000;stroke-width:0.088860892px;stroke-linecap:round;stroke-linejoin:round;stroke-miterlimit:4;stroke-dasharray:none;stroke-opacity:1;"
     d="  M 75.70948,10.307864   L 75.70948,387.70007   L 594.03507,387.70007   L 594.03507,10.307864   L 75.70948,10.307864  "
     id="path133" />
  <text
     xml:space="preserve"
     style="font-size:16.000000px;font-style:normal;font-variant:normal;font-weight:400;font-stretch:Normal;line-height:125.000000%;letter-spacing:0px;word-spacing:0px;fill:#000000;fill-opacity:1;stroke:none;font-family:Helvetica;text-align:start;text-anchor:start;"
     transform="matrix(0.000000,-1.000000,1.000000,0.000000,15.550656,259.473806)"
     x="0.000000"
     y="0.000000"
     id="text139"><tspan
       sodipodi:role="line"
       x="0.000000"
       y="0.000000"
       id="tspan137"><tspan
         dx="0.000000"
         dy="0.000000"
         style="fill:#000000;font-size:16.000000px;font-style:normal;font-variant:normal;font-weight:400;font-stretch:Normal;font-family:Helvetica;"
         id="tspan135">potential diff (eV)</tspan></tspan></text>
  <text
     xml:space="preserve"
     style="font-size:16.000000px;font-style:normal;font-variant:normal;font-weight:400;font-stretch:Normal;line-height:125.000000%;letter-spacing:0px;word-spacing:0px;fill:#000000;fill-opacity:1;stroke:none;font-family:Helvetica;text-align:start;text-anchor:start;"
     transform="matrix(1.000000,-0.000000,0.000000,1.000000,232.015790,433.107990)"
     x="0.000000"
     y="0.000000"
     id="text145"><tspan
       sodipodi:role="line"
       x="0.000000"
       y="0.000000"
       id="tspan143"><tspan
         dx="0.000000"
         dy="0.000000"
         style="fill:#000000;font-size:16.000000px;font-style:normal;font-variant:normal;font-weight:400;font-stretch:Normal;font-family:Helvetica;"
         id="tspan141">distance along the c-axis (Å)</tspan></tspan></text>
  <path
     style="fill:none;stroke:#ff0000;stroke-width:0.088860892px;stroke-linecap:round;stroke-linejoin:round;stroke-miterlimit:4;stroke-dasharray:none;stroke-opacity:1;"
     d="  M 78.375307,199.22612   L 81.129995,198.87068   L 83.795822,199.13726   L 86.63937,199.13726   L 89.305197,198.87068   L 91.971024,199.22612   L 94.725711,198.78182   L 97.391538,199.4927   L 100.05736,198.69296   L 102.81205,199.58156   L 105.47788,198.60409   L 108.14371,199.67043   L 110.80953,198.69296   L 113.47536,199.58156   L 116.23005,198.69296   L 118.89587,199.4927   L 121.5617,198.78182   L 124.40525,199.31498   L 127.07108,198.87068   L 129.82576,199.22612   L 132.49159,199.13726   L 135.15742,198.87068   L 137.9121,199.22612   L 140.57793,198.78182   L 143.24376,199.4927   L 145.90959,198.69296   L 148.57541,199.67043   L 151.3301,198.60409   L 153.99593,199.67043   L 156.66175,198.42637   L 159.5053,199.58156   L 162.17113,198.60409   L 164.83696,199.58156   L 167.59164,198.78182   L 170.25747,199.31498   L 173.01216,198.87068   L 175.67798,199.22612   L 178.34381,199.13726   L 181.00964,199.0484   L 183.67546,199.22612   L 186.34129,198.78182   L 189.09598,199.4927   L 191.76181,198.42637   L 194.60535,199.67043   L 197.27118,198.60409   L 199.93701,200.02587   L 202.6917,198.60409   L 205.35752,199.93701   L 208.02335,198.42637   L 210.77804,199.67043   L 213.44386,198.24865   L 216.10969,198.42637   L 218.77552,196.47143   L 221.44134,194.87194   L 224.19603,192.11725   L 226.86186,188.65167   L 229.52769,185.45268   L 232.37123,181.72052   L 235.03706,180.03217   L 237.79175,176.65545   L 240.45757,176.56659   L 243.1234,173.01216   L 245.87809,172.39013   L 248.54392,167.32506   L 251.20974,165.90329   L 253.87557,159.68302   L 256.5414,157.4615   L 259.29608,150.79693   L 261.96191,148.57541   L 264.62774,141.46654   L 267.47129,140.57793   L 270.13711,136.22375   L 272.80294,129.55918   L 275.55763,128.13741   L 278.22345,122.62803   L 280.97814,121.1174   L 283.64397,115.07486   L 286.3098,115.07486   L 288.97562,107.96598   L 291.64145,108.41029   L 294.30728,101.39028   L 297.06196,102.27889   L 299.72779,94.725711   L 302.57134,94.725711   L 305.23717,86.728231   L 307.90299,85.306457   L 310.65768,77.753281   L 313.32351,73.932262   L 315.98933,67.356556   L 318.74402,61.136294   L 321.40985,59.270215   L 324.07567,49.495517   L 326.7415,55.093753   L 329.40733,39.098793   L 332.16202,59.803381   L 334.82784,19.727118   L 337.49367,199.67043   L 340.33722,381.65753   L 343.00304,347.17951   L 345.75773,381.21323   L 348.42356,371.61625   L 351.08939,371.17195   L 353.84407,351.44483   L 356.5099,343.00304   L 359.17573,333.40607   L 361.84155,324.51998   L 364.50738,320.78782   L 367.26207,311.72401   L 369.9279,311.72401   L 372.59372,301.86045   L 375.43727,303.72653   L 378.1031,294.75158   L 380.76892,297.06196   L 383.52361,288.17587   L 386.18944,290.13081   L 388.94413,282.57764   L 391.60995,282.57764   L 394.27578,277.33485   L 396.94161,273.51383   L 399.60743,273.95813   L 402.27326,258.40748   L 405.02795,281.51131   L 407.69377,270.31483   L 410.53732,248.98822   L 413.20315,254.23101   L 415.86898,243.30112   L 418.62366,243.1234   L 421.28949,236.10339   L 423.95532,233.43756   L 426.71001,229.43882   L 429.37583,226.32869   L 432.04166,224.64034   L 434.70749,221.70793   L 437.37331,221.5302   L 440.128,217.70919   L 442.79383,216.90944   L 445.45965,211.75551   L 448.3032,209.97829   L 450.96903,205.00208   L 453.72372,204.02461   L 456.38954,200.82562   L 459.05537,200.55903   L 461.81006,199.22612   L 464.47588,199.22612   L 467.14171,199.13726   L 469.80754,198.78182   L 472.47336,199.22612   L 475.22805,198.42637   L 477.89388,199.58156   L 480.55971,198.60409   L 483.40325,199.67043   L 486.06908,198.42637   L 488.73491,199.67043   L 491.4896,198.42637   L 494.15542,199.67043   L 496.91011,198.42637   L 499.57594,199.4927   L 502.24176,198.69296   L 504.90759,199.22612   L 507.57342,198.87068   L 510.23924,199.13726   L 512.99393,199.13726   L 515.65976,198.87068   L 518.50331,199.31498   L 521.16913,198.69296   L 523.83496,199.4927   L 526.58965,198.60409   L 529.25548,199.58156   L 531.9213,198.42637   L 534.67599,199.67043   L 537.34182,198.60409   L 540.00764,199.58156   L 542.67347,198.69296   L 545.3393,199.4927   L 548.09398,198.78182   L 550.75981,199.22612   L 553.42564,198.87068   L 556.26919,199.13726   L 558.93501,199.22612   L 561.6897,198.78182   L 564.35553,199.22612   L 567.02135,198.78182   L 569.77604,199.4927   L 572.44187,198.69296   L 575.1077,199.58156   L 577.77352,198.60409   L 580.43935,199.67043   L 583.19404,198.60409   L 585.85986,199.58156   L 588.52569,198.69296   L 591.36924,199.4927   L 594.03507,198.78182  "
     id="path147" />
  <path
     style="fill:none;stroke:#000000;stroke-width:0.088860892px;stroke-linecap:round;stroke-linejoin:round;stroke-miterlimit:4;stroke-dasharray:none;stroke-opacity:1;"
     d="  M 75.70948,10.307864   L 75.70948,387.70007   L 594.03507,387.70007   L 594.03507,10.307864   L 75.70948,10.307864  "
     id="path149" />
</svg>
