<?xml version="1.0" encoding="UTF-8" standalone="no"?>
<svg
   xmlns:dc="http://purl.org/dc/elements/1.1/"
   xmlns:cc="http://creativecommons.org/ns#"
   xmlns:rdf="http://www.w3.org/1999/02/22-rdf-syntax-ns#"
   xmlns:svg="http://www.w3.org/2000/svg"
   xmlns="http://www.w3.org/2000/svg"
   xmlns:sodipodi="http://sodipodi.sourceforge.net/DTD/sodipodi-0.dtd"
   xmlns:inkscape="http://www.inkscape.org/namespaces/inkscape"
   version="1.0"
   width="161.14999mm"
   height="115.37mm"
   id="svg195"
   sodipodi:docname="image109.svg"
   inkscape:version="1.0.2-2 (e86c870879, 2021-01-15)">
  <metadata
     id="metadata199">
    <rdf:RDF>
      <cc:Work
         rdf:about="">
        <dc:format>image/svg+xml</dc:format>
        <dc:type
           rdf:resource="http://purl.org/dc/dcmitype/StillImage" />
        <dc:title></dc:title>
      </cc:Work>
    </rdf:RDF>
  </metadata>
  <sodipodi:namedview
     pagecolor="#ffffff"
     bordercolor="#666666"
     borderopacity="1"
     objecttolerance="10"
     gridtolerance="10"
     guidetolerance="10"
     inkscape:pageopacity="0"
     inkscape:pageshadow="2"
     inkscape:window-width="1858"
     inkscape:window-height="1057"
     id="namedview197"
     showgrid="false"
     inkscape:zoom="2.0410779"
     inkscape:cx="304.53542"
     inkscape:cy="218.02205"
     inkscape:window-x="-8"
     inkscape:window-y="-8"
     inkscape:window-maximized="1"
     inkscape:current-layer="svg195" />
  <defs
     id="defs3">
    <pattern
       id="EMFhbasepattern"
       patternUnits="userSpaceOnUse"
       width="6"
       height="6"
       x="0"
       y="0" />
  </defs>
  <path
     style="fill:none;stroke:#000000;stroke-width:0.088860892px;stroke-linecap:round;stroke-linejoin:round;stroke-miterlimit:4;stroke-dasharray:none;stroke-opacity:1;"
     d="  M 66.912252,387.70007   L 72.599349,387.70007   M 609.14142,387.70007   L 603.54318,387.70007  "
     id="path5" />
  <text
     xml:space="preserve"
     style="font-size:16.000000px;font-style:normal;font-variant:normal;font-weight:400;font-stretch:Normal;line-height:125.000000%;letter-spacing:0px;word-spacing:0px;fill:#000000;fill-opacity:1;stroke:none;font-family:Helvetica;text-align:start;text-anchor:start;"
     transform="matrix(1.000000,-0.000000,0.000000,1.000000,35.100052,393.120588)"
     x="0.000000"
     y="0.000000"
     id="text11"><tspan
       sodipodi:role="line"
       x="0.000000"
       y="0.000000"
       id="tspan9"><tspan
         dx="0.000000"
         dy="0.000000"
         style="fill:#000000;font-size:16.000000px;font-style:normal;font-variant:normal;font-weight:400;font-stretch:Normal;font-family:Helvetica;"
         id="tspan7">0.0</tspan></tspan></text>
  <path
     style="fill:none;stroke:#000000;stroke-width:0.088860892px;stroke-linecap:round;stroke-linejoin:round;stroke-miterlimit:4;stroke-dasharray:none;stroke-opacity:1;"
     d="  M 66.912252,324.87542   L 72.599349,324.87542   M 609.14142,324.87542   L 603.54318,324.87542  "
     id="path13" />
  <text
     xml:space="preserve"
     style="font-size:16.000000px;font-style:normal;font-variant:normal;font-weight:400;font-stretch:Normal;line-height:125.000000%;letter-spacing:0px;word-spacing:0px;fill:#000000;fill-opacity:1;stroke:none;font-family:Helvetica;text-align:start;text-anchor:start;"
     transform="matrix(1.000000,-0.000000,0.000000,1.000000,35.100052,330.207076)"
     x="0.000000"
     y="0.000000"
     id="text19"><tspan
       sodipodi:role="line"
       x="0.000000"
       y="0.000000"
       id="tspan17"><tspan
         dx="0.000000"
         dy="0.000000"
         style="fill:#000000;font-size:16.000000px;font-style:normal;font-variant:normal;font-weight:400;font-stretch:Normal;font-family:Helvetica;"
         id="tspan15">0.5</tspan></tspan></text>
  <path
     style="fill:none;stroke:#000000;stroke-width:0.088860892px;stroke-linecap:round;stroke-linejoin:round;stroke-miterlimit:4;stroke-dasharray:none;stroke-opacity:1;"
     d="  M 66.912252,261.87305   L 72.599349,261.87305   M 609.14142,261.87305   L 603.54318,261.87305  "
     id="path21" />
  <text
     xml:space="preserve"
     style="font-size:16.000000px;font-style:normal;font-variant:normal;font-weight:400;font-stretch:Normal;line-height:125.000000%;letter-spacing:0px;word-spacing:0px;fill:#000000;fill-opacity:1;stroke:none;font-family:Helvetica;text-align:start;text-anchor:start;"
     transform="matrix(1.000000,-0.000000,0.000000,1.000000,35.100052,267.293564)"
     x="0.000000"
     y="0.000000"
     id="text27"><tspan
       sodipodi:role="line"
       x="0.000000"
       y="0.000000"
       id="tspan25"><tspan
         dx="0.000000"
         dy="0.000000"
         style="fill:#000000;font-size:16.000000px;font-style:normal;font-variant:normal;font-weight:400;font-stretch:Normal;font-family:Helvetica;"
         id="tspan23">1.0</tspan></tspan></text>
  <path
     style="fill:none;stroke:#000000;stroke-width:0.088860892px;stroke-linecap:round;stroke-linejoin:round;stroke-miterlimit:4;stroke-dasharray:none;stroke-opacity:1;"
     d="  M 66.912252,199.0484   L 72.599349,199.0484   M 609.14142,199.0484   L 603.54318,199.0484  "
     id="path29" />
  <text
     xml:space="preserve"
     style="font-size:16.000000px;font-style:normal;font-variant:normal;font-weight:400;font-stretch:Normal;line-height:125.000000%;letter-spacing:0px;word-spacing:0px;fill:#000000;fill-opacity:1;stroke:none;font-family:Helvetica;text-align:start;text-anchor:start;"
     transform="matrix(1.000000,-0.000000,0.000000,1.000000,35.100052,204.380052)"
     x="0.000000"
     y="0.000000"
     id="text35"><tspan
       sodipodi:role="line"
       x="0.000000"
       y="0.000000"
       id="tspan33"><tspan
         dx="0.000000"
         dy="0.000000"
         style="fill:#000000;font-size:16.000000px;font-style:normal;font-variant:normal;font-weight:400;font-stretch:Normal;font-family:Helvetica;"
         id="tspan31">1.5</tspan></tspan></text>
  <path
     style="fill:none;stroke:#000000;stroke-width:0.088860892px;stroke-linecap:round;stroke-linejoin:round;stroke-miterlimit:4;stroke-dasharray:none;stroke-opacity:1;"
     d="  M 66.912252,136.13489   L 72.599349,136.13489   M 609.14142,136.13489   L 603.54318,136.13489  "
     id="path37" />
  <text
     xml:space="preserve"
     style="font-size:16.000000px;font-style:normal;font-variant:normal;font-weight:400;font-stretch:Normal;line-height:125.000000%;letter-spacing:0px;word-spacing:0px;fill:#000000;fill-opacity:1;stroke:none;font-family:Helvetica;text-align:start;text-anchor:start;"
     transform="matrix(1.000000,-0.000000,0.000000,1.000000,35.100052,141.555402)"
     x="0.000000"
     y="0.000000"
     id="text43"><tspan
       sodipodi:role="line"
       x="0.000000"
       y="0.000000"
       id="tspan41"><tspan
         dx="0.000000"
         dy="0.000000"
         style="fill:#000000;font-size:16.000000px;font-style:normal;font-variant:normal;font-weight:400;font-stretch:Normal;font-family:Helvetica;"
         id="tspan39">2.0</tspan></tspan></text>
  <path
     style="fill:none;stroke:#000000;stroke-width:0.088860892px;stroke-linecap:round;stroke-linejoin:round;stroke-miterlimit:4;stroke-dasharray:none;stroke-opacity:1;"
     d="  M 66.912252,73.310236   L 72.599349,73.310236   M 609.14142,73.310236   L 603.54318,73.310236  "
     id="path45" />
  <text
     xml:space="preserve"
     style="font-size:16.000000px;font-style:normal;font-variant:normal;font-weight:400;font-stretch:Normal;line-height:125.000000%;letter-spacing:0px;word-spacing:0px;fill:#000000;fill-opacity:1;stroke:none;font-family:Helvetica;text-align:start;text-anchor:start;"
     transform="matrix(1.000000,-0.000000,0.000000,1.000000,35.100052,78.641890)"
     x="0.000000"
     y="0.000000"
     id="text51"><tspan
       sodipodi:role="line"
       x="0.000000"
       y="0.000000"
       id="tspan49"><tspan
         dx="0.000000"
         dy="0.000000"
         style="fill:#000000;font-size:16.000000px;font-style:normal;font-variant:normal;font-weight:400;font-stretch:Normal;font-family:Helvetica;"
         id="tspan47">2.5</tspan></tspan></text>
  <path
     style="fill:none;stroke:#000000;stroke-width:0.088860892px;stroke-linecap:round;stroke-linejoin:round;stroke-miterlimit:4;stroke-dasharray:none;stroke-opacity:1;"
     d="  M 66.912252,10.396724   L 72.599349,10.396724   M 609.14142,10.396724   L 603.54318,10.396724  "
     id="path53" />
  <text
     xml:space="preserve"
     style="font-size:16.000000px;font-style:normal;font-variant:normal;font-weight:400;font-stretch:Normal;line-height:125.000000%;letter-spacing:0px;word-spacing:0px;fill:#000000;fill-opacity:1;stroke:none;font-family:Helvetica;text-align:start;text-anchor:start;"
     transform="matrix(1.000000,-0.000000,0.000000,1.000000,35.100052,15.728378)"
     x="0.000000"
     y="0.000000"
     id="text59"><tspan
       sodipodi:role="line"
       x="0.000000"
       y="0.000000"
       id="tspan57"><tspan
         dx="0.000000"
         dy="0.000000"
         style="fill:#000000;font-size:16.000000px;font-style:normal;font-variant:normal;font-weight:400;font-stretch:Normal;font-family:Helvetica;"
         id="tspan55">3.0</tspan></tspan></text>
  <path
     style="fill:none;stroke:#000000;stroke-width:0.088860892px;stroke-linecap:round;stroke-linejoin:round;stroke-miterlimit:4;stroke-dasharray:none;stroke-opacity:1;"
     d="  M 66.912252,387.70007   L 66.912252,382.1907   M 66.912252,10.396724   L 66.912252,15.994961  "
     id="path61" />
  <text
     xml:space="preserve"
     style="font-size:16.000000px;font-style:normal;font-variant:normal;font-weight:400;font-stretch:Normal;line-height:125.000000%;letter-spacing:0px;word-spacing:0px;fill:#000000;fill-opacity:1;stroke:none;font-family:Helvetica;text-align:start;text-anchor:start;"
     transform="matrix(1.000000,-0.000000,0.000000,1.000000,55.360336,409.115549)"
     x="0.000000"
     y="0.000000"
     id="text67"><tspan
       sodipodi:role="line"
       x="0.000000"
       y="0.000000"
       id="tspan65"><tspan
         dx="0.000000"
         dy="0.000000"
         style="fill:#000000;font-size:16.000000px;font-style:normal;font-variant:normal;font-weight:400;font-stretch:Normal;font-family:Helvetica;"
         id="tspan63">-15</tspan></tspan></text>
  <path
     style="fill:none;stroke:#000000;stroke-width:0.088860892px;stroke-linecap:round;stroke-linejoin:round;stroke-miterlimit:4;stroke-dasharray:none;stroke-opacity:1;"
     d="  M 167.32506,387.70007   L 167.32506,382.1907   M 167.32506,10.396724   L 167.32506,15.994961  "
     id="path69" />
  <text
     xml:space="preserve"
     style="font-size:16.000000px;font-style:normal;font-variant:normal;font-weight:400;font-stretch:Normal;line-height:125.000000%;letter-spacing:0px;word-spacing:0px;fill:#000000;fill-opacity:1;stroke:none;font-family:Helvetica;text-align:start;text-anchor:start;"
     transform="matrix(1.000000,-0.000000,0.000000,1.000000,155.773144,409.115549)"
     x="0.000000"
     y="0.000000"
     id="text75"><tspan
       sodipodi:role="line"
       x="0.000000"
       y="0.000000"
       id="tspan73"><tspan
         dx="0.000000"
         dy="0.000000"
         style="fill:#000000;font-size:16.000000px;font-style:normal;font-variant:normal;font-weight:400;font-stretch:Normal;font-family:Helvetica;"
         id="tspan71">-10</tspan></tspan></text>
  <path
     style="fill:none;stroke:#000000;stroke-width:0.088860892px;stroke-linecap:round;stroke-linejoin:round;stroke-miterlimit:4;stroke-dasharray:none;stroke-opacity:1;"
     d="  M 267.73787,387.70007   L 267.73787,382.1907   M 267.73787,10.396724   L 267.73787,15.994961  "
     id="path77" />
  <text
     xml:space="preserve"
     style="font-size:16.000000px;font-style:normal;font-variant:normal;font-weight:400;font-stretch:Normal;line-height:125.000000%;letter-spacing:0px;word-spacing:0px;fill:#000000;fill-opacity:1;stroke:none;font-family:Helvetica;text-align:start;text-anchor:start;"
     transform="matrix(1.000000,-0.000000,0.000000,1.000000,260.717858,409.115549)"
     x="0.000000"
     y="0.000000"
     id="text83"><tspan
       sodipodi:role="line"
       x="0.000000"
       y="0.000000"
       id="tspan81"><tspan
         dx="0.000000"
         dy="0.000000"
         style="fill:#000000;font-size:16.000000px;font-style:normal;font-variant:normal;font-weight:400;font-stretch:Normal;font-family:Helvetica;"
         id="tspan79">-5</tspan></tspan></text>
  <path
     style="fill:none;stroke:#000000;stroke-width:0.088860892px;stroke-linecap:round;stroke-linejoin:round;stroke-miterlimit:4;stroke-dasharray:none;stroke-opacity:1;"
     d="  M 368.06182,387.70007   L 368.06182,382.1907   M 368.06182,10.396724   L 368.06182,15.994961  "
     id="path85" />
  <text
     xml:space="preserve"
     style="font-size:16.000000px;font-style:normal;font-variant:normal;font-weight:400;font-stretch:Normal;line-height:125.000000%;letter-spacing:0px;word-spacing:0px;fill:#000000;fill-opacity:1;stroke:none;font-family:Helvetica;text-align:start;text-anchor:start;"
     transform="matrix(1.000000,-0.000000,0.000000,1.000000,361.397249,409.115549)"
     x="0.000000"
     y="0.000000"
     id="text91"><tspan
       sodipodi:role="line"
       x="0.000000"
       y="0.000000"
       id="tspan89"><tspan
         dx="0.000000"
         dy="0.000000"
         style="fill:#000000;font-size:16.000000px;font-style:normal;font-variant:normal;font-weight:400;font-stretch:Normal;font-family:Helvetica;"
         id="tspan87"> 0</tspan></tspan></text>
  <path
     style="fill:none;stroke:#000000;stroke-width:0.088860892px;stroke-linecap:round;stroke-linejoin:round;stroke-miterlimit:4;stroke-dasharray:none;stroke-opacity:1;"
     d="  M 468.47462,387.70007   L 468.47462,382.1907   M 468.47462,10.396724   L 468.47462,15.994961  "
     id="path93" />
  <text
     xml:space="preserve"
     style="font-size:16.000000px;font-style:normal;font-variant:normal;font-weight:400;font-stretch:Normal;line-height:125.000000%;letter-spacing:0px;word-spacing:0px;fill:#000000;fill-opacity:1;stroke:none;font-family:Helvetica;text-align:start;text-anchor:start;"
     transform="matrix(1.000000,-0.000000,0.000000,1.000000,461.810058,409.115549)"
     x="0.000000"
     y="0.000000"
     id="text99"><tspan
       sodipodi:role="line"
       x="0.000000"
       y="0.000000"
       id="tspan97"><tspan
         dx="0.000000"
         dy="0.000000"
         style="fill:#000000;font-size:16.000000px;font-style:normal;font-variant:normal;font-weight:400;font-stretch:Normal;font-family:Helvetica;"
         id="tspan95"> 5</tspan></tspan></text>
  <path
     style="fill:none;stroke:#000000;stroke-width:0.088860892px;stroke-linecap:round;stroke-linejoin:round;stroke-miterlimit:4;stroke-dasharray:none;stroke-opacity:1;"
     d="  M 568.88743,387.70007   L 568.88743,382.1907   M 568.88743,10.396724   L 568.88743,15.994961  "
     id="path101" />
  <text
     xml:space="preserve"
     style="font-size:16.000000px;font-style:normal;font-variant:normal;font-weight:400;font-stretch:Normal;line-height:125.000000%;letter-spacing:0px;word-spacing:0px;fill:#000000;fill-opacity:1;stroke:none;font-family:Helvetica;text-align:start;text-anchor:start;"
     transform="matrix(1.000000,-0.000000,0.000000,1.000000,557.779822,409.115549)"
     x="0.000000"
     y="0.000000"
     id="text107"><tspan
       sodipodi:role="line"
       x="0.000000"
       y="0.000000"
       id="tspan105"><tspan
         dx="0.000000"
         dy="0.000000"
         style="fill:#000000;font-size:16.000000px;font-style:normal;font-variant:normal;font-weight:400;font-stretch:Normal;font-family:Helvetica;"
         id="tspan103"> 10</tspan></tspan></text>
  <path
     style="fill:none;stroke:#000000;stroke-width:0.088860892px;stroke-linecap:round;stroke-linejoin:round;stroke-miterlimit:4;stroke-dasharray:none;stroke-opacity:1;"
     d="  M 66.912252,10.396724   L 66.912252,387.70007   L 609.14142,387.70007   L 609.14142,10.396724   L 66.912252,10.396724  "
     id="path109" />
  <text
     xml:space="preserve"
     style="font-size:16.000000px;font-style:normal;font-variant:normal;font-weight:400;font-stretch:Normal;line-height:125.000000%;letter-spacing:0px;word-spacing:0px;fill:#000000;fill-opacity:1;stroke:none;font-family:Helvetica;text-align:start;text-anchor:start;"
     transform="matrix(0.000000,-1.000000,1.000000,0.000000,16.350404,257.341144)"
     x="0.000000"
     y="0.000000"
     id="text115"><tspan
       sodipodi:role="line"
       x="0.000000"
       y="0.000000"
       id="tspan113"><tspan
         dx="0.000000"
         dy="0.000000"
         style="fill:#000000;font-size:16.000000px;font-style:normal;font-variant:normal;font-weight:400;font-stretch:Normal;font-family:Helvetica;"
         id="tspan111">DOS (states/eV)</tspan></tspan></text>
  <text
     xml:space="preserve"
     style="font-size:16.000000px;font-style:normal;font-variant:normal;font-weight:400;font-stretch:Normal;line-height:125.000000%;letter-spacing:0px;word-spacing:0px;fill:#000000;fill-opacity:1;stroke:none;font-family:Helvetica;text-align:start;text-anchor:start;"
     transform="matrix(1.000000,-0.000000,0.000000,1.000000,296.173354,433.107990)"
     x="0.000000"
     y="0.000000"
     id="text121"><tspan
       sodipodi:role="line"
       x="0.000000"
       y="0.000000"
       id="tspan119"><tspan
         dx="0.000000"
         dy="0.000000"
         style="fill:#000000;font-size:16.000000px;font-style:normal;font-variant:normal;font-weight:400;font-stretch:Normal;font-family:Helvetica;"
         id="tspan117">energy (eV)</tspan></tspan></text>
  <text
     xml:space="preserve"
     style="font-size:16.000000px;font-style:normal;font-variant:normal;font-weight:400;font-stretch:Normal;line-height:125.000000%;letter-spacing:0px;word-spacing:0px;fill:#000000;fill-opacity:1;stroke:none;font-family:Helvetica;text-align:start;text-anchor:start;"
     transform="matrix(1.000000,-0.000000,0.000000,1.000000,296.173354,433.107990)"
     x="208.201071"
     y="-403.783895"
     id="text127"><tspan
       sodipodi:role="line"
       x="208.201071"
       y="-403.783895"
       id="tspan125"><tspan
         dx="0.000000"
         dy="0.000000"
         style="fill:#000000;font-size:16.000000px;font-style:normal;font-variant:normal;font-weight:400;font-stretch:Normal;font-family:Helvetica;"
         id="tspan123">PBE</tspan></tspan></text>
  <path
     style="fill:none;stroke:#ff0000;stroke-width:0.088860892px;stroke-linecap:round;stroke-linejoin:round;stroke-miterlimit:4;stroke-dasharray:none;stroke-opacity:1;"
     d="  M 545.87246,23.992441   L 589.8586,23.992441   M 128.04855,387.70007   L 128.58171,387.70007   L 129.02602,387.70007   L 129.7369,387.70007   L 130.27007,387.70007   L 130.80323,387.70007   L 131.24754,387.61121   L 131.7807,387.16691   L 132.40273,386.7226   L 132.9359,386.10058   L 133.46906,385.30083   L 134.00223,384.14564   L 134.62425,383.07931   L 135.15742,381.83525   L 135.69058,380.32462   L 136.13489,378.63626   L 136.66805,376.85904   L 137.37894,374.72638   L 137.9121,372.06056   L 138.35641,369.75017   L 138.88957,367.52865   L 139.5116,365.39599   L 140.04477,363.61877   L 140.57793,362.10814   L 141.1111,360.5975   L 141.73312,359.53117   L 142.26629,358.5537   L 142.79945,357.75395   L 143.24376,357.39851   L 143.77692,357.22079   L 144.48781,356.77648   L 145.02098,356.33218   L 145.46528,355.62129   L 145.99845,354.99927   L 146.62047,354.11066   L 147.15364,353.04433   L 147.6868,352.06686   L 148.21997,350.73394   L 148.84199,349.48989   L 149.37516,348.3347   L 149.90833,347.09065   L 150.35263,345.75773   L 150.8858,344.42482   L 151.50782,343.09191   L 152.12985,341.75899   L 152.57415,340.42608   L 153.10732,339.0043   L 153.72934,337.67139   L 154.26251,336.42734   L 154.79567,335.27215   L 155.32884,334.38354   L 155.95087,333.67265   L 156.48403,332.96176   L 157.0172,332.51746   L 157.4615,332.07315   L 157.99467,331.89543   L 158.61669,331.62885   L 159.23872,331.27341   L 159.68302,330.8291   L 160.21619,330.29594   L 160.83822,329.49619   L 161.37138,328.60758   L 161.90455,327.63011   L 162.34885,326.65264   L 163.05974,325.49745   L 163.5929,324.51998   L 164.12607,323.54251   L 164.57037,322.29846   L 165.10354,321.23213   L 165.72556,319.98807   L 166.25873,318.74402   L 166.7919,317.41111   L 167.32506,316.07819   L 167.94709,314.74528   L 168.48025,313.23465   L 169.01342,311.63515   L 169.45772,310.21338   L 170.16861,308.52502   L 170.70177,307.01438   L 171.23494,305.32603   L 171.67924,303.54881   L 172.21241,301.77159   L 172.83444,299.72779   L 173.3676,297.68399   L 173.90077,295.19588   L 174.43393,292.4412   L 175.05596,289.41993   L 175.58912,287.10954   L 176.12229,284.97688   L 176.56659,283.02194   L 177.09976,281.24472   L 177.81065,279.55637   L 178.34381,277.95687   L 178.78812,276.5351   L 179.32128,275.29104   L 179.94331,274.31357   L 180.47647,273.69155   L 181.00964,273.24724   L 181.5428,272.98066   L 182.16483,273.06952   L 182.69799,273.42497   L 183.23116,274.13585   L 183.67546,275.02446  "
     id="path129" />
  <path
     style="fill:none;stroke:#ff0000;stroke-width:0.088860892px;stroke-linecap:round;stroke-linejoin:round;stroke-miterlimit:4;stroke-dasharray:none;stroke-opacity:1;"
     d="  M 183.67546,275.02446   L 184.20863,276.09079   L 184.91952,277.06826   L 185.45268,278.22345   L 185.89699,279.20092   L 186.43015,280.08953   L 187.05218,280.53384   L 187.58534,280.53384   L 188.11851,279.91181   L 188.65167,278.75662   L 189.2737,278.31231   L 189.80687,282.39992   L 190.34003,286.7541   L 190.78434,290.75284   L 191.3175,294.30728   L 191.93953,297.50627   L 192.56155,300.34982   L 193.00586,302.74906   L 193.53902,304.61514   L 194.16105,306.3035   L 194.69422,308.52502   L 195.22738,310.56882   L 195.76055,312.52376   L 196.38257,314.38984   L 196.91574,316.34478   L 197.4489,318.29972   L 197.89321,320.07693   L 198.42637,321.85415   L 199.0484,323.63137   L 199.67043,325.40859   L 200.11473,327.09694   L 200.6479,328.7853   L 201.26992,330.29594   L 201.80309,331.98429   L 202.33625,333.49493   L 202.78056,335.09443   L 203.49144,336.5162   L 204.02461,337.93797   L 204.55777,339.44861   L 205.00208,340.78152   L 205.53524,342.11444   L 206.15727,343.44735   L 206.69044,344.60254   L 207.2236,345.93545   L 207.75677,347.53495   L 208.37879,348.95672   L 208.91196,350.73394   L 209.44512,352.51116   L 209.88943,354.28838   L 210.60031,356.33218   L 211.13348,358.37598   L 211.66665,360.5975   L 212.11095,362.99675   L 212.64412,365.39599   L 213.26614,367.88409   L 213.79931,370.3722   L 214.33247,373.21575   L 214.86564,375.88157   L 215.48766,377.92538   L 216.02083,379.61373   L 216.55399,380.05804   L 216.9983,379.43601   L 217.53146,377.92538   L 218.24235,375.88157   L 218.77552,372.94917   L 219.21982,370.19448   L 219.75299,367.43979   L 220.37501,364.59624   L 220.90818,362.10814   L 221.44134,359.62003   L 221.97451,357.04307   L 222.59654,354.73268   L 223.1297,352.51116   L 223.66287,350.28964   L 224.10717,348.15698   L 224.64034,346.20204   L 225.35122,344.15824   L 225.88439,342.29216   L 226.32869,340.51494   L 226.86186,338.82658   L 227.48388,337.04936   L 228.01705,335.18329   L 228.55022,333.05062   L 229.08338,330.74024   L 229.70541,328.16328   L 230.23857,325.05314   L 230.77174,321.40985   L 231.21604,316.9668   L 231.74921,312.07945   L 232.37123,306.3035   L 232.99326,300.08323   L 233.43756,293.24094   L 233.97073,284.35486   L 234.59276,268.8042   L 235.12592,254.40873   L 235.65909,242.41251   L 236.19225,232.9044   L 236.81428,225.70667   L 237.34744,220.6416   L 237.88061,218.24235   L 238.32491,217.88691   L 238.85808,220.10843   L 239.4801,224.55148   L 240.10213,230.68288   L 240.54644,237.34744  "
     id="path131" />
  <path
     style="fill:none;stroke:#ff0000;stroke-width:0.088860892px;stroke-linecap:round;stroke-linejoin:round;stroke-miterlimit:4;stroke-dasharray:none;stroke-opacity:1;"
     d="  M 240.54644,237.34744   L 241.0796,244.63404   L 241.70163,252.18721   L 242.23479,257.78545   L 242.76796,262.31735   L 243.21226,266.84926   L 243.92315,271.20344   L 244.45631,275.20218   L 244.98948,279.20092   L 245.43378,283.02194   L 245.96695,286.57638   L 246.58898,289.95309   L 247.12214,293.32981   L 247.65531,296.43994   L 248.18847,299.28349   L 248.8105,302.12703   L 249.34366,304.61514   L 249.87683,307.10324   L 250.32113,309.41363   L 251.03202,311.45743   L 251.56519,313.32351   L 252.09835,315.18959   L 252.54266,316.9668   L 253.07582,318.74402   L 253.69785,320.52124   L 254.23101,322.29846   L 254.76418,324.07567   L 255.29734,325.76403   L 255.91937,327.18581   L 256.45254,328.7853   L 256.9857,330.20708   L 257.43001,331.62885   L 257.96317,332.8729   L 258.67406,333.93923   L 259.20722,335.18329   L 259.65153,336.0719   L 260.18469,337.04936   L 260.80672,337.93797   L 261.33988,338.82658   L 261.87305,339.62633   L 262.40622,340.51494   L 263.02824,341.22583   L 263.56141,341.84785   L 264.09457,342.6476   L 264.53888,343.26963   L 265.07204,344.06938   L 265.78293,344.60254   L 266.31609,345.40229   L 266.7604,345.93545   L 267.29356,346.64634   L 267.91559,347.26837   L 268.44876,347.97925   L 268.98192,348.51242   L 269.51509,349.04559   L 270.13711,349.75647   L 270.67028,350.28964   L 271.20344,350.8228   L 271.64775,351.53369   L 272.18091,352.06686   L 272.80294,352.60002   L 273.42497,353.22205   L 273.86927,353.75521   L 274.40244,354.28838   L 275.02446,354.73268   L 275.55763,355.26585   L 276.09079,355.71015   L 276.62396,356.33218   L 277.24598,356.86534   L 277.77915,357.30965   L 278.31231,357.75395   L 278.75662,358.28712   L 279.28978,358.73142   L 279.91181,359.17573   L 280.53384,359.62003   L 280.97814,360.06434   L 281.51131,358.73142   L 282.13333,350.73394   L 282.6665,334.65012   L 283.19966,322.74276   L 283.64397,317.67769   L 284.35486,312.4349   L 284.88802,307.1921   L 285.42119,301.86045   L 285.86549,296.61766   L 286.39866,291.28601   L 287.02068,286.13207   L 287.64271,280.88928   L 288.08701,275.55763   L 288.62018,270.31483   L 289.2422,264.98318   L 289.77537,259.65153   L 290.30854,254.40873   L 290.75284,249.43252   L 291.46373,244.90062   L 291.99689,240.6353   L 292.53006,236.992   L 292.97436,233.88187   L 293.50753,231.57149   L 294.12955,229.70541   L 294.66272,228.55022   L 295.19588,228.10591   L 295.72905,228.10591   L 296.35108,228.99452   L 296.88424,230.41629   L 297.41741,231.74921  "
     id="path133" />
  <path
     style="fill:none;stroke:#ff0000;stroke-width:0.088860892px;stroke-linecap:round;stroke-linejoin:round;stroke-miterlimit:4;stroke-dasharray:none;stroke-opacity:1;"
     d="  M 297.41741,231.74921   L 297.86171,226.32869   L 298.39488,210.60031   L 299.10576,188.11851   L 299.63893,202.15853   L 300.08323,226.41755   L 300.6164,233.43756   L 301.23843,232.9044   L 301.77159,232.19351   L 302.30476,231.57149   L 302.83792,230.77174   L 303.45995,229.88313   L 303.99311,228.99452   L 304.52628,227.92819   L 304.97058,226.773   L 305.50375,225.70667   L 306.21464,224.46261   L 306.7478,223.1297   L 307.1921,221.70793   L 307.72527,220.10843   L 308.3473,218.68666   L 308.88046,216.9983   L 309.41363,215.22108   L 309.94679,213.44386   L 310.56882,211.66665   L 311.10198,209.88943   L 311.63515,208.11221   L 312.07945,206.33499   L 312.61262,205.97955   L 313.23465,205.00208   L 313.85667,203.22486   L 314.30098,200.82562   L 314.83414,197.27118   L 315.45617,192.917   L 315.98933,186.25243   L 316.5225,177.27748   L 317.05566,170.79064   L 317.67769,167.2362   L 318.21086,166.16987   L 318.74402,167.6805   L 319.18833,170.61291   L 319.72149,173.54532   L 320.34352,176.92204   L 320.96554,180.47647   L 321.40985,184.20863   L 321.94301,188.38509   L 322.56504,192.65041   L 323.0982,197.27118   L 323.63137,202.24739   L 324.07567,207.75677   L 324.78656,209.88943   L 325.31973,210.15601   L 325.85289,210.33373   L 326.2972,210.77804   L 326.83036,211.22234   L 327.45239,211.66665   L 328.07441,212.37753   L 328.51872,213.08842   L 329.05188,213.97703   L 329.67391,214.86564   L 330.20708,216.10969   L 330.74024,217.4426   L 331.18455,218.86438   L 331.89543,220.55273   L 332.4286,221.88565   L 332.96176,223.30742   L 333.40607,224.90692   L 333.93923,226.59528   L 334.56126,228.46135   L 335.09443,230.32743   L 335.62759,231.66035   L 336.16076,224.46261   L 336.78278,215.13222   L 337.31595,206.33499   L 337.84911,198.15979   L 338.29342,190.60661   L 338.82658,183.5866   L 339.53747,186.69673   L 340.07064,202.60283   L 340.51494,217.79805   L 341.0481,231.92693   L 341.67013,242.59024   L 342.2033,252.98696   L 342.73646,279.0232   L 343.26963,295.64019   L 343.89165,301.68273   L 344.42482,305.05944   L 344.95798,308.52502   L 345.40229,311.99059   L 345.93545,315.18959   L 346.64634,318.29972   L 347.17951,321.40985   L 347.62381,324.51998   L 348.15698,327.54125   L 348.779,330.3848   L 349.31217,333.22835   L 349.84533,335.98303   L 350.3785,338.64886   L 351.00052,341.22583   L 351.53369,343.62507   L 352.06686,345.40229   L 352.51116,345.40229   L 353.04433,344.86912   L 353.75521,344.51368   L 354.28838,344.60254  "
     id="path135" />
  <path
     style="fill:none;stroke:#ff0000;stroke-width:0.088860892px;stroke-linecap:round;stroke-linejoin:round;stroke-miterlimit:4;stroke-dasharray:none;stroke-opacity:1;"
     d="  M 354.28838,344.60254   L 354.73268,344.95798   L 355.26585,345.66887   L 355.88787,346.55748   L 356.42104,347.71267   L 356.9542,349.31217   L 357.48737,351.17825   L 358.1094,353.31091   L 358.64256,355.62129   L 359.17573,358.37598   L 359.62003,361.39725   L 360.1532,364.86282   L 360.77522,368.50612   L 361.39725,372.416   L 361.84155,376.59246   L 362.37472,380.85778   L 362.99675,382.635   L 363.52991,383.61247   L 364.06308,384.50108   L 364.50738,385.38969   L 365.21827,386.10058   L 365.75143,386.63374   L 366.2846,387.07805   L 366.7289,387.43349   L 367.26207,387.61121   L 367.88409,387.70007   L 368.50612,387.70007   L 368.95043,387.70007   L 369.48359,387.70007   L 370.10562,387.70007   L 370.63878,387.70007   L 371.17195,387.70007   L 371.61625,387.70007   L 372.32714,387.70007   L 372.8603,387.70007   L 373.39347,387.70007   L 373.83777,387.70007   L 374.37094,387.70007   L 374.99297,387.70007   L 375.52613,387.70007   L 376.0593,387.70007   L 376.59246,387.70007   L 377.21449,387.70007   L 377.74765,387.70007   L 378.28082,387.70007   L 378.72512,387.70007   L 379.25829,387.70007   L 379.96918,387.70007   L 380.50234,387.70007   L 380.94665,387.70007   L 381.47981,387.70007   L 382.10184,387.70007   L 382.635,387.70007   L 383.16817,387.61121   L 383.70133,387.25577   L 384.32336,386.7226   L 384.85652,386.10058   L 385.38969,385.21197   L 385.83399,384.05678   L 386.36716,383.07931   L 387.07805,381.83525   L 387.61121,380.50234   L 388.05552,379.25829   L 388.58868,377.92538   L 389.21071,376.59246   L 389.74387,375.17069   L 390.27704,373.74891   L 390.8102,372.14942   L 391.43223,370.72764   L 391.9654,369.03929   L 392.49856,367.43979   L 392.94287,365.75143   L 393.47603,363.97422   L 394.18692,362.197   L 394.72008,360.41978   L 395.16439,358.5537   L 395.69755,356.5099   L 396.31958,354.64382   L 396.85275,352.51116   L 397.38591,350.20078   L 397.91908,347.62381   L 398.5411,344.95798   L 399.07427,342.2033   L 399.60743,339.18203   L 400.05174,336.0719   L 400.5849,332.60632   L 401.20693,329.05188   L 401.82896,325.40859   L 402.27326,321.32099   L 402.80643,316.61136   L 403.42845,311.45743   L 403.96162,305.77033   L 404.49478,299.55007   L 404.93909,292.8855   L 405.64997,285.86549   L 406.18314,278.31231   L 406.7163,270.58142   L 407.16061,262.31735   L 407.69377,253.87557   L 408.3158,244.90062   L 408.93783,235.57023   L 409.38213,227.66161   L 409.9153,233.88187   L 410.53732,239.56897   L 411.07049,234.41503  "
     id="path137" />
  <path
     style="fill:none;stroke:#ff0000;stroke-width:0.088860892px;stroke-linecap:round;stroke-linejoin:round;stroke-miterlimit:4;stroke-dasharray:none;stroke-opacity:1;"
     d="  M 411.07049,234.41503   L 411.60365,225.88439   L 412.04796,216.10969   L 412.75885,205.35752   L 413.29201,193.3613   L 413.82518,180.12103   L 414.26948,165.90329   L 414.80265,150.44149   L 415.42467,133.91336   L 415.95784,114.63055   L 416.491,95.170016   L 417.02417,79.70822   L 417.64619,68.156304   L 418.17936,60.69199   L 418.71252,62.824651   L 419.15683,99.790782   L 419.86772,133.91336   L 420.40088,146.44275   L 420.93405,156.48403   L 421.37835,166.16987   L 421.91152,175.50026   L 422.53354,184.47521   L 423.06671,193.00586   L 423.59987,201.35878   L 424.13304,209.2674   L 424.75507,216.82058   L 425.28823,223.92945   L 425.8214,230.59402   L 426.2657,236.90314   L 426.79887,242.76796   L 427.50975,248.18847   L 428.04292,253.43127   L 428.48722,259.0295   L 429.02039,268.89306   L 429.64241,278.5789   L 430.17558,287.10954   L 430.70875,294.30728   L 431.24191,299.19462   L 431.86394,300.52754   L 432.3971,299.63893   L 432.93027,297.41741   L 433.37457,291.90803   L 433.90774,281.33359   L 434.61862,269.69281   L 435.15179,257.78545   L 435.59609,245.52265   L 436.12926,233.3487   L 436.75129,220.81932   L 437.28445,208.11221   L 437.81762,187.49648   L 438.35078,160.39391   L 438.97281,137.4678   L 439.50597,118.89587   L 440.03914,104.14497   L 440.48344,91.171276   L 441.01661,79.175055   L 441.63864,68.067444   L 442.26066,57.937302   L 442.70497,48.873491   L 443.23813,10.841029   L 443.86016,67.267696   L 444.39332,120.58423   L 444.92649,132.84703   L 445.37079,143.77692   L 446.08168,153.55162   L 446.61485,162.25999   L 447.14801,169.45772   L 447.59231,175.76685   L 448.12548,181.80939   L 448.74751,185.45268   L 449.36953,186.7856   L 449.81384,188.11851   L 450.347,189.36256   L 450.96903,190.60661   L 451.50219,191.76181   L 452.03536,193.00586   L 452.47966,194.24991   L 453.19055,195.31624   L 453.72372,196.56029   L 454.25688,197.80435   L 454.70119,198.78182   L 455.23435,199.13726   L 455.85638,199.67043   L 456.38954,200.55903   L 456.92271,201.44764   L 457.45587,202.78056   L 458.0779,206.42385   L 458.61107,212.99956   L 459.14423,222.24109   L 459.58854,234.23731   L 460.29942,246.7667   L 460.83259,258.22975   L 461.36575,270.13711   L 461.81006,281.86675   L 462.34322,292.08575   L 462.96525,298.83918   L 463.49841,303.99311   L 464.03158,307.63641   L 464.56475,309.76907   L 465.18677,310.30224   L 465.71994,309.76907   L 466.2531,308.96932   L 466.69741,308.43616   L 467.23057,307.63641   L 467.94146,307.10324  "
     id="path139" />
  <path
     style="fill:none;stroke:#ff0000;stroke-width:0.088860892px;stroke-linecap:round;stroke-linejoin:round;stroke-miterlimit:4;stroke-dasharray:none;stroke-opacity:1;"
     d="  M 467.94146,307.10324   L 468.47462,306.3035   L 468.91893,305.77033   L 469.45209,305.05944   L 470.07412,304.52628   L 470.60729,303.90425   L 471.14045,303.19336   L 471.67362,302.57134   L 472.29564,301.23843   L 472.82881,299.46121   L 473.36197,297.06196   L 473.80628,294.21841   L 474.33944,290.75284   L 475.05033,286.39866   L 475.5835,278.40118   L 476.0278,267.73787   L 476.56097,262.6728   L 477.18299,258.5852   L 477.71616,254.85304   L 478.24932,251.74291   L 478.78249,248.98822   L 479.40451,246.7667   L 479.93768,244.90062   L 480.47085,138.17869   L 480.91515,149.01972   L 481.44831,194.33877   L 482.07034,194.60535   L 482.69237,195.58282   L 483.13667,197.27118   L 483.66984,199.58156   L 484.29186,202.6917   L 484.82503,206.60157   L 485.35819,211.13348   L 485.89136,216.55399   L 486.51339,224.81806   L 487.04655,233.43756   L 487.57972,241.25732   L 488.02402,248.36619   L 488.55719,254.76418   L 489.17921,260.629   L 489.80124,265.07204   L 490.24554,266.40496   L 490.77871,267.2047   L 491.40073,267.64901   L 491.9339,267.91559   L 492.46707,267.91559   L 492.91137,267.64901   L 493.62226,267.64901   L 494.15542,267.56015   L 494.68859,267.29356   L 495.13289,267.2047   L 495.66606,267.11584   L 496.28808,267.02698   L 496.82125,266.7604   L 497.35441,266.67154   L 497.88758,266.58268   L 498.50961,266.31609   L 499.04277,266.22723   L 499.57594,265.96065   L 500.02024,265.87179   L 500.73113,265.78293   L 501.26429,265.51635   L 501.79746,265.42749   L 502.24176,265.24976   L 502.77493,264.98318   L 503.39696,264.89432   L 503.93012,264.62774   L 504.46329,264.53888   L 504.99645,264.36115   L 505.61848,264.09457   L 506.15164,264.00571   L 506.68481,263.65027   L 507.12911,263.56141   L 507.66228,263.47255   L 508.37317,263.20596   L 508.90633,263.20596   L 509.35064,263.20596   L 509.8838,263.20596   L 510.50583,263.20596   L 511.03899,263.20596   L 511.57216,263.29482   L 512.10532,263.47255   L 512.72735,263.29482   L 513.26051,261.0733   L 513.79368,259.0295   L 514.23798,257.34114   L 514.77115,256.09709   L 515.48204,255.29734   L 516.0152,255.11962   L 516.45951,255.56393   L 516.99267,257.07456   L 517.6147,258.76292   L 518.14786,260.54014   L 518.68103,262.31735   L 519.21419,264.09457   L 519.83622,266.13837   L 520.36939,268.09331   L 520.90255,270.22597   L 521.34686,272.35864   L 521.88002,274.58016   L 522.50205,276.9794   L 523.12407,279.20092   L 523.56838,281.77789   L 524.10154,284.44372   L 524.72357,287.99815  "
     id="path141" />
  <path
     style="fill:none;stroke:#ff0000;stroke-width:0.088860892px;stroke-linecap:round;stroke-linejoin:round;stroke-miterlimit:4;stroke-dasharray:none;stroke-opacity:1;"
     d="  M 524.72357,287.99815   L 525.25673,292.4412   L 525.7899,297.86171   L 526.32307,304.43742   L 526.94509,311.72401   L 527.47826,320.1658   L 528.01142,329.67391   L 528.45573,338.73772   L 528.98889,338.20456   L 529.61092,328.96302   L 530.23294,316.9668   L 530.67725,302.12703   L 531.21041,293.50753   L 531.83244,333.67265   L 532.36561,345.93545   L 532.89877,355.62129   L 533.34308,362.99675   L 534.05396,367.97296   L 534.58713,370.63878   L 535.12029,371.26081   L 535.5646,371.88283   L 536.09776,372.32714   L 536.71979,372.8603   L 537.25296,373.30461   L 537.78612,373.83777   L 538.31929,374.28208   L 538.94131,374.72638   L 539.47448,375.17069   L 540.00764,375.61499   L 540.45195,376.0593   L 541.16283,376.41474   L 541.696,376.85904   L 542.22917,377.21449   L 542.67347,377.65879   L 543.20664,377.92538   L 543.82866,378.36968   L 544.36183,378.72512   L 544.89499,379.16943   L 545.42816,379.52487   L 546.05018,379.88031   L 546.58335,380.1469   L 547.11651,380.50234   L 547.56082,380.85778   L 548.09398,381.21323   L 548.80487,381.47981   L 549.33804,381.83525   L 549.78234,382.10184   L 550.31551,382.36842   L 550.93753,382.72386   L 551.4707,382.99045   L 552.00386,383.16817   L 552.53703,383.52361   L 553.15906,383.70133   L 553.69222,383.96792   L 554.22539,384.14564   L 554.66969,384.50108   L 555.20286,384.58994   L 555.91374,384.94539   L 556.44691,385.03425   L 556.89121,385.30083   L 557.42438,385.38969   L 558.0464,385.65627   L 558.57957,385.83399   L 559.11273,385.92286   L 559.6459,386.18944   L 560.26793,386.2783   L 560.80109,386.36716   L 561.33426,386.63374   L 561.77856,386.7226   L 562.31173,386.81146   L 562.93375,386.98919   L 563.55578,387.07805   L 564.00008,387.16691   L 564.53325,387.16691   L 565.15528,387.25577   L 565.68844,387.43349   L 566.22161,387.52235   L 566.75477,387.61121   L 567.3768,387.61121   L 567.90996,387.61121   L 568.44313,387.61121   L 568.88743,387.61121   L 569.4206,387.70007   L 570.04262,387.70007   L 570.66465,387.70007   L 571.10896,387.70007   L 571.64212,387.70007   L 572.26415,387.70007   L 572.79731,387.70007   L 573.33048,387.70007  "
     id="path143" />
  <text
     xml:space="preserve"
     style="font-size:16.000000px;font-style:normal;font-variant:normal;font-weight:400;font-stretch:Normal;line-height:125.000000%;letter-spacing:0px;word-spacing:0px;fill:#000000;fill-opacity:1;stroke:none;font-family:Helvetica;text-align:start;text-anchor:start;"
     transform="matrix(1.000000,-0.000000,0.000000,1.000000,495.399475,45.319055)"
     x="0.000000"
     y="0.000000"
     id="text149"><tspan
       sodipodi:role="line"
       x="0.000000"
       y="0.000000"
       id="tspan147"><tspan
         dx="0.000000"
         dy="0.000000"
         style="fill:#000000;font-size:16.000000px;font-style:normal;font-variant:normal;font-weight:400;font-stretch:Normal;font-family:Helvetica;"
         id="tspan145">PBE0</tspan></tspan></text>
  <path
     style="fill:none;stroke:#00ff00;stroke-width:0.088860892px;stroke-linecap:round;stroke-linejoin:round;stroke-miterlimit:4;stroke-dasharray:none;stroke-opacity:1;"
     d="  M 545.87246,39.987402   L 589.8586,39.987402   M 99.168756,387.70007   L 99.701921,387.70007   L 100.14623,387.70007   L 100.67939,387.70007   L 101.30142,387.70007   L 101.83458,387.70007   L 102.36775,387.70007   L 102.90091,387.61121   L 103.52294,387.61121   L 104.0561,387.52235   L 104.58927,387.25577   L 105.03357,387.16691   L 105.56674,386.98919   L 106.18877,386.7226   L 106.81079,386.54488   L 107.2551,386.2783   L 107.78826,385.92286   L 108.41029,385.65627   L 108.94345,385.38969   L 109.47662,384.94539   L 109.92092,384.50108   L 110.63181,384.05678   L 111.16498,383.61247   L 111.69814,383.16817   L 112.14245,382.72386   L 112.67561,382.1907   L 113.29764,381.65753   L 113.91966,380.94665   L 114.36397,380.41348   L 114.89713,379.70259   L 115.51916,379.08057   L 116.05233,378.36968   L 116.58549,377.03677   L 117.0298,374.28208   L 117.74068,371.17195   L 118.27385,367.88409   L 118.80701,364.15194   L 119.25132,360.33092   L 119.78448,356.0656   L 120.40651,351.62255   L 120.93967,347.17951   L 121.47284,345.49115   L 122.00601,347.62381   L 122.62803,353.39977   L 123.1612,355.53243   L 123.69436,355.26585   L 124.13867,355.08813   L 124.67183,354.73268   L 125.38272,354.28838   L 125.91588,353.84407   L 126.36019,353.39977   L 126.89335,352.77774   L 127.51538,352.06686   L 128.04855,351.53369   L 128.58171,351.00052   L 129.11488,350.28964   L 129.7369,349.84533   L 130.27007,349.22331   L 130.80323,348.60128   L 131.24754,348.06812   L 131.7807,347.53495   L 132.49159,347.00178   L 133.02476,346.37976   L 133.46906,345.84659   L 134.00223,345.40229   L 134.62425,344.95798   L 135.15742,344.42482   L 135.69058,343.89165   L 136.22375,343.44735   L 136.84577,342.82532   L 137.37894,342.38102   L 137.9121,341.93671   L 138.35641,341.40355   L 138.88957,340.95924   L 139.60046,340.42608   L 140.13363,339.09317   L 140.57793,337.49367   L 141.1111,336.16076   L 141.73312,334.82784   L 142.26629,333.49493   L 142.79945,332.4286   L 143.33262,331.18455   L 143.95465,330.20708   L 144.48781,329.05188   L 145.02098,328.51872   L 145.46528,327.89669   L 145.99845,327.18581   L 146.62047,326.2972   L 147.2425,325.31973   L 147.6868,324.07567   L 148.21997,322.74276   L 148.84199,321.40985   L 149.37516,319.98807   L 149.90833,318.29972   L 150.35263,316.5225   L 151.06352,314.74528   L 151.59668,312.8792   L 152.12985,310.74654   L 152.57415,308.61388   L 153.10732,306.39236   L 153.72934,304.08197   L 154.35137,301.68273   L 154.79567,299.10576  "
     id="path151" />
  <path
     style="fill:none;stroke:#00ff00;stroke-width:0.088860892px;stroke-linecap:round;stroke-linejoin:round;stroke-miterlimit:4;stroke-dasharray:none;stroke-opacity:1;"
     d="  M 154.79567,299.10576   L 155.32884,296.43994   L 155.95087,293.86297   L 156.48403,291.64145   L 157.0172,289.86423   L 157.4615,288.62018   L 158.17239,287.90929   L 158.70555,287.1984   L 159.23872,286.3098   L 159.68302,285.51005   L 160.21619,284.97688   L 160.83822,284.88802   L 161.37138,284.88802   L 161.90455,285.06574   L 162.43771,285.68777   L 163.05974,286.57638   L 163.5929,287.90929   L 164.12607,289.33107   L 164.57037,290.75284   L 165.28126,292.08575   L 165.81443,293.41867   L 166.34759,294.57386   L 166.7919,295.64019   L 167.32506,296.79538   L 167.94709,297.68399   L 168.48025,298.21715   L 169.01342,298.75032   L 169.54658,299.19462   L 170.16861,299.63893   L 170.70177,300.08323   L 171.23494,300.43868   L 171.67924,300.79412   L 172.21241,301.0607   L 172.9233,301.41615   L 173.45646,301.77159   L 173.90077,301.86045   L 174.43393,303.45995   L 175.05596,305.85919   L 175.58912,307.99185   L 176.12229,309.94679   L 176.65545,311.72401   L 177.27748,313.32351   L 177.81065,314.74528   L 178.34381,315.90047   L 178.78812,316.78908   L 179.32128,317.49997   L 180.03217,318.5663   L 180.56533,319.89921   L 181.00964,321.23213   L 181.5428,322.56504   L 182.16483,323.72023   L 182.69799,325.05314   L 183.23116,326.38606   L 183.76433,327.71897   L 184.38635,328.96302   L 184.91952,330.29594   L 185.45268,331.62885   L 185.89699,332.96176   L 186.43015,334.29468   L 187.05218,335.53873   L 187.6742,336.87164   L 188.11851,338.1157   L 188.65167,339.44861   L 189.2737,340.6038   L 189.80687,341.84785   L 190.34003,343.18077   L 190.8732,344.51368   L 191.49522,345.75773   L 192.02839,347.00178   L 192.56155,348.3347   L 193.00586,349.48989   L 193.53902,350.73394   L 194.16105,352.15572   L 194.78308,353.93293   L 195.22738,356.0656   L 195.76055,358.28712   L 196.38257,360.50864   L 196.91574,362.6413   L 197.4489,364.77396   L 197.89321,366.81776   L 198.60409,368.95043   L 199.13726,371.08309   L 199.67043,373.03803   L 200.11473,374.81524   L 200.6479,376.14816   L 201.26992,377.21449   L 201.80309,377.83651   L 202.33625,378.1031   L 202.86942,377.83651   L 203.49144,377.39221   L 204.02461,376.5036   L 204.55777,375.17069   L 205.00208,373.30461   L 205.71297,371.43853   L 206.24613,369.66131   L 206.7793,367.97296   L 207.2236,366.19574   L 207.75677,364.50738   L 208.37879,362.81902   L 208.91196,361.30839   L 209.44512,359.62003   L 209.97829,358.19826   L 210.60031,356.59876   L 211.13348,355.17699   L 211.66665,353.84407  "
     id="path153" />
  <path
     style="fill:none;stroke:#00ff00;stroke-width:0.088860892px;stroke-linecap:round;stroke-linejoin:round;stroke-miterlimit:4;stroke-dasharray:none;stroke-opacity:1;"
     d="  M 211.66665,353.84407   L 212.11095,352.4223   L 212.64412,351.00052   L 213.355,349.40103   L 213.88817,347.97925   L 214.33247,346.37976   L 214.86564,344.86912   L 215.48766,343.18077   L 216.02083,341.49241   L 216.55399,339.71519   L 217.08716,337.84911   L 217.70919,335.62759   L 218.24235,333.05062   L 218.77552,330.29594   L 219.21982,327.18581   L 219.75299,323.89795   L 220.46387,320.1658   L 220.99704,316.16706   L 221.44134,312.07945   L 221.97451,307.63641   L 222.59654,302.74906   L 223.1297,297.77285   L 223.66287,292.4412   L 224.19603,286.7541   L 224.81806,272.00319   L 225.35122,251.47633   L 225.88439,238.76922   L 226.32869,233.97073   L 226.86186,234.59276   L 227.48388,236.01453   L 228.10591,237.88061   L 228.55022,240.36871   L 229.08338,243.21226   L 229.70541,246.67784   L 230.23857,250.58772   L 230.77174,255.03076   L 231.3049,259.74039   L 231.92693,264.62774   L 232.46009,269.69281   L 232.99326,274.84674   L 233.43756,279.20092   L 233.97073,282.75536   L 234.59276,286.3098   L 235.21478,289.68651   L 235.65909,292.97436   L 236.19225,296.08449   L 236.81428,299.19462   L 237.34744,302.12703   L 237.88061,304.97058   L 238.32491,307.63641   L 239.0358,310.30224   L 239.56897,312.8792   L 240.10213,315.27845   L 240.54644,317.67769   L 241.0796,319.98807   L 241.70163,322.12073   L 242.23479,324.07567   L 242.76796,325.94175   L 243.30112,327.89669   L 243.92315,329.49619   L 244.45631,331.18455   L 244.98948,332.51746   L 245.43378,333.76151   L 246.14467,334.73898   L 246.67784,335.62759   L 247.211,336.42734   L 247.65531,337.22709   L 248.18847,337.84911   L 248.8105,338.73772   L 249.34366,339.44861   L 249.87683,340.07064   L 250.40999,340.87038   L 251.03202,341.40355   L 251.56519,342.2033   L 252.09835,342.73646   L 252.54266,343.44735   L 253.07582,344.06938   L 253.78671,344.60254   L 254.31987,345.22457   L 254.76418,345.84659   L 255.29734,346.2909   L 255.91937,346.82406   L 256.45254,347.44609   L 256.9857,347.97925   L 257.51887,348.51242   L 258.14089,348.95672   L 258.67406,349.40103   L 259.20722,349.84533   L 259.65153,350.28964   L 260.18469,350.73394   L 260.89558,351.17825   L 261.42875,351.62255   L 261.87305,352.06686   L 262.40622,352.51116   L 263.02824,352.95546   L 263.56141,353.39977   L 264.09457,353.84407   L 264.62774,354.28838   L 265.24976,354.73268   L 265.78293,355.17699   L 266.31609,355.62129   L 266.7604,356.0656   L 267.29356,356.42104   L 267.91559,356.86534   L 268.53762,357.22079  "
     id="path155" />
  <path
     style="fill:none;stroke:#00ff00;stroke-width:0.088860892px;stroke-linecap:round;stroke-linejoin:round;stroke-miterlimit:4;stroke-dasharray:none;stroke-opacity:1;"
     d="  M 268.53762,357.22079   L 268.98192,357.66509   L 269.51509,357.93167   L 270.13711,358.28712   L 270.67028,358.73142   L 271.20344,359.17573   L 271.73661,359.53117   L 272.35864,359.88661   L 272.8918,360.1532   L 273.42497,360.50864   L 273.86927,360.95294   L 274.40244,361.30839   L 275.02446,361.66383   L 275.64649,361.93041   L 276.09079,362.28586   L 276.62396,362.6413   L 277.24598,362.99675   L 277.77915,363.26333   L 278.31231,363.61877   L 278.75662,359.53117   L 279.46751,341.75899   L 280.00067,309.05818   L 280.53384,295.64019   L 280.97814,304.61514   L 281.51131,297.06196   L 282.13333,289.41993   L 282.6665,282.84422   L 283.19966,277.24598   L 283.73283,272.4475   L 284.35486,268.18217   L 284.88802,264.53888   L 285.42119,261.42875   L 285.86549,258.76292   L 286.57638,256.5414   L 287.10954,254.85304   L 287.64271,253.78671   L 288.08701,252.98696   L 288.62018,252.80924   L 289.2422,252.98696   L 289.77537,252.98696   L 290.30854,252.98696   L 290.8417,252.98696   L 291.46373,252.80924   L 291.99689,252.54266   L 292.53006,252.09835   L 292.97436,251.56519   L 293.50753,250.8543   L 294.21841,250.23227   L 294.75158,249.34366   L 295.19588,248.36619   L 295.72905,247.29986   L 296.35108,246.14467   L 296.88424,244.90062   L 297.41741,243.56771   L 297.95057,241.96821   L 298.5726,235.03706   L 299.10576,230.14971   L 299.63893,234.32617   L 300.08323,242.85682   L 300.6164,248.98822   L 301.32729,252.18721   L 301.86045,252.98696   L 302.30476,252.18721   L 302.83792,251.56519   L 303.45995,250.67658   L 303.99311,249.87683   L 304.52628,248.89936   L 305.05944,248.01075   L 305.68147,247.03328   L 306.21464,245.87809   L 306.7478,244.98948   L 307.1921,243.74543   L 307.72527,242.76796   L 308.3473,241.43504   L 308.96932,240.36871   L 309.41363,239.12466   L 309.94679,237.79175   L 310.56882,236.5477   L 311.10198,235.12592   L 311.63515,233.79301   L 312.16831,232.19351   L 312.79034,230.77174   L 313.32351,229.88313   L 313.85667,228.10591   L 314.30098,221.44134   L 314.83414,209.97829   L 315.45617,196.11599   L 316.07819,184.83066   L 316.5225,176.47773   L 317.05566,175.23368   L 317.67769,177.09976   L 318.21086,179.0547   L 318.74402,182.25369   L 319.18833,186.7856   L 319.89921,191.58408   L 320.43238,196.11599   L 320.96554,200.11473   L 321.40985,203.49144   L 321.94301,206.42385   L 322.56504,209.2674   L 323.18707,211.66665   L 323.63137,213.88817   L 324.16454,215.66539   L 324.78656,217.26488   L 325.31973,218.5978  "
     id="path157" />
  <path
     style="fill:none;stroke:#00ff00;stroke-width:0.088860892px;stroke-linecap:round;stroke-linejoin:round;stroke-miterlimit:4;stroke-dasharray:none;stroke-opacity:1;"
     d="  M 325.31973,218.5978   L 325.85289,219.66413   L 326.2972,220.55273   L 327.00808,221.26362   L 327.54125,221.70793   L 328.07441,222.32995   L 328.51872,223.04084   L 329.05188,223.75173   L 329.67391,224.64034   L 330.20708,225.79553   L 330.74024,226.773   L 331.27341,228.01705   L 331.89543,229.34996   L 332.4286,230.77174   L 332.96176,232.10465   L 333.40607,233.79301   L 333.93923,235.48136   L 334.65012,237.25858   L 335.18329,239.12466   L 335.62759,241.0796   L 336.16076,243.21226   L 336.78278,244.98948   L 337.31595,245.87809   L 337.84911,245.43378   L 338.38228,242.41251   L 339.0043,229.79427   L 339.53747,216.10969   L 340.07064,206.42385   L 340.51494,201.26992   L 341.0481,200.47017   L 341.75899,204.11347   L 342.29216,212.11095   L 342.73646,224.64034   L 343.26963,241.0796   L 343.89165,257.78545   L 344.42482,274.58016   L 344.95798,291.64145   L 345.49115,307.10324   L 346.11318,312.8792   L 346.64634,317.23339   L 347.17951,321.0544   L 347.62381,324.60884   L 348.15698,327.71897   L 348.779,330.3848   L 349.40103,332.60632   L 349.84533,334.65012   L 350.3785,336.42734   L 351.00052,338.20456   L 351.53369,339.89291   L 352.06686,341.40355   L 352.60002,343.09191   L 353.22205,344.51368   L 353.75521,345.93545   L 354.28838,347.44609   L 354.73268,348.779   L 355.26585,349.93419   L 355.88787,351.17825   L 356.5099,352.4223   L 356.9542,353.22205   L 357.48737,352.77774   L 358.1094,352.33344   L 358.64256,352.06686   L 359.17573,352.15572   L 359.62003,352.51116   L 360.33092,353.22205   L 360.86408,354.11066   L 361.39725,355.17699   L 361.84155,356.59876   L 362.37472,358.37598   L 362.99675,360.41978   L 363.61877,362.6413   L 364.06308,365.04055   L 364.59624,367.88409   L 365.21827,370.99423   L 365.75143,374.28208   L 366.2846,377.74765   L 366.7289,380.94665   L 367.43979,384.05678   L 367.97296,386.7226   L 368.50612,387.70007   L 368.95043,387.70007   L 369.48359,387.70007   L 370.10562,387.70007   L 370.63878,387.70007   L 371.17195,387.70007   L 371.70511,387.70007   L 372.32714,387.70007   L 372.8603,387.70007   L 373.39347,387.70007   L 373.83777,387.70007   L 374.37094,387.70007   L 375.08183,387.70007   L 375.61499,387.70007   L 376.0593,387.70007   L 376.59246,387.70007   L 377.21449,387.70007   L 377.74765,387.70007   L 378.28082,387.70007   L 378.81398,387.70007   L 379.43601,387.70007   L 379.96918,387.70007   L 380.50234,387.70007   L 380.94665,387.70007   L 381.47981,387.70007   L 382.1907,387.70007  "
     id="path159" />
  <path
     style="fill:none;stroke:#00ff00;stroke-width:0.088860892px;stroke-linecap:round;stroke-linejoin:round;stroke-miterlimit:4;stroke-dasharray:none;stroke-opacity:1;"
     d="  M 382.1907,387.70007   L 382.72386,387.70007   L 383.16817,387.70007   L 383.70133,387.70007   L 384.32336,387.70007   L 384.85652,387.70007   L 385.38969,387.70007   L 385.92286,387.70007   L 386.54488,387.70007   L 387.07805,387.70007   L 387.61121,387.70007   L 388.05552,387.70007   L 388.58868,387.70007   L 389.29957,387.70007   L 389.83273,387.70007   L 390.27704,387.70007   L 390.8102,387.70007   L 391.43223,387.70007   L 391.9654,387.70007   L 392.49856,387.70007   L 393.03173,387.70007   L 393.65375,387.70007   L 394.18692,387.70007   L 394.72008,387.70007   L 395.16439,387.70007   L 395.69755,387.70007   L 396.31958,387.70007   L 396.94161,387.70007   L 397.38591,387.70007   L 397.91908,387.70007   L 398.5411,387.70007   L 399.07427,387.70007   L 399.60743,387.70007   L 400.05174,387.70007   L 400.76262,387.70007   L 401.29579,387.70007   L 401.82896,387.70007   L 402.27326,387.70007   L 402.80643,387.70007   L 403.42845,387.70007   L 404.05048,387.70007   L 404.49478,387.70007   L 405.02795,387.70007   L 405.64997,387.70007   L 406.18314,387.70007   L 406.7163,387.70007   L 407.16061,387.70007   L 407.8715,387.61121   L 408.40466,387.43349   L 408.93783,386.98919   L 409.38213,386.36716   L 409.9153,385.65627   L 410.53732,384.76766   L 411.07049,383.70133   L 411.60365,382.72386   L 412.13682,381.65753   L 412.75885,380.50234   L 413.29201,379.43601   L 413.82518,378.19196   L 414.26948,376.94791   L 414.80265,375.61499   L 415.51353,374.28208   L 416.0467,372.94917   L 416.491,371.61625   L 417.02417,370.19448   L 417.64619,368.7727   L 418.17936,367.17321   L 418.71252,365.66257   L 419.24569,364.06308   L 419.86772,362.55244   L 420.40088,360.86408   L 420.93405,359.17573   L 421.37835,357.39851   L 421.91152,355.62129   L 422.6224,353.75521   L 423.15557,351.62255   L 423.59987,349.40103   L 424.13304,347.00178   L 424.75507,344.51368   L 425.28823,341.84785   L 425.8214,339.0043   L 426.35456,336.0719   L 426.97659,332.8729   L 427.50975,329.67391   L 428.04292,326.20834   L 428.48722,322.29846   L 429.02039,318.12199   L 429.73128,313.41237   L 430.26444,308.3473   L 430.70875,302.74906   L 431.24191,296.88424   L 431.86394,290.3974   L 432.3971,283.64397   L 432.93027,276.5351   L 433.46343,268.98192   L 434.08546,260.98444   L 434.61862,252.63152   L 435.15179,244.81176   L 435.59609,250.14341   L 436.12926,258.40748   L 436.75129,258.76292   L 437.37331,252.98696   L 437.81762,247.03328   L 438.35078,240.54644   L 438.97281,233.52643  "
     id="path161" />
  <path
     style="fill:none;stroke:#00ff00;stroke-width:0.088860892px;stroke-linecap:round;stroke-linejoin:round;stroke-miterlimit:4;stroke-dasharray:none;stroke-opacity:1;"
     d="  M 438.97281,233.52643   L 439.50597,226.15097   L 440.03914,216.9983   L 440.48344,205.80183   L 441.19433,192.56155   L 441.7275,177.36634   L 442.26066,160.12733   L 442.70497,140.57793   L 443.23813,123.1612   L 443.86016,109.2989   L 444.48218,97.480399   L 444.92649,87.527979   L 445.45965,84.68443   L 446.08168,99.701921   L 446.61485,117.4741   L 447.14801,137.4678   L 447.59231,154.70681   L 448.3032,164.57037   L 448.83637,173.01216   L 449.36953,181.0985   L 449.81384,189.00712   L 450.347,196.56029   L 450.96903,204.02461   L 451.50219,211.13348   L 452.03536,217.88691   L 452.56852,224.19603   L 453.19055,230.32743   L 453.72372,236.19225   L 454.25688,241.87935   L 454.70119,247.12214   L 455.41207,252.09835   L 455.94524,257.87431   L 456.4784,267.91559   L 456.92271,277.42371   L 457.45587,286.3098   L 458.0779,294.12955   L 458.61107,301.0607   L 459.14423,307.28097   L 459.6774,312.52376   L 460.29942,316.87794   L 460.83259,316.5225   L 461.36575,311.27971   L 461.81006,304.08197   L 462.34322,294.30728   L 463.05411,283.91055   L 463.58728,272.98066   L 464.03158,261.96191   L 464.56475,251.03202   L 465.18677,235.65909   L 465.71994,217.4426   L 466.2531,200.20359   L 466.78627,184.03091   L 467.40829,168.56911   L 467.94146,153.8182   L 468.47462,139.77818   L 468.91893,126.44905   L 469.45209,113.91966   L 470.16298,101.92344   L 470.69615,90.815832   L 471.14045,80.507969   L 471.67362,69.933522   L 472.29564,56.693249   L 472.82881,87.705701   L 473.36197,136.57919   L 473.89514,146.35389   L 474.51717,154.61795   L 475.05033,162.17113   L 475.5835,169.10228   L 476.0278,175.58912   L 476.56097,181.27622   L 477.18299,186.34129   L 477.80502,191.13978   L 478.24932,195.93827   L 478.78249,200.11473   L 479.40451,202.78056   L 479.93768,203.75803   L 480.47085,204.82436   L 480.91515,205.71297   L 481.62604,206.60157   L 482.1592,207.49018   L 482.69237,208.20107   L 483.13667,209.00082   L 483.66984,209.80057   L 484.29186,210.33373   L 484.91389,210.77804   L 485.35819,211.13348   L 485.89136,211.04462   L 486.51339,211.22234   L 487.04655,212.99956   L 487.57972,216.37627   L 488.02402,221.26362   L 488.73491,227.66161   L 489.26807,235.65909   L 489.80124,245.07834   L 490.24554,256.18595   L 490.77871,267.56015   L 491.40073,276.09079   L 491.9339,284.17713   L 492.46707,292.08575   L 493.00023,297.86171   L 493.62226,301.94931   L 494.15542,305.68147   L 494.68859,308.61388   L 495.13289,311.19085   L 495.84378,313.05692  "
     id="path163" />
  <path
     style="fill:none;stroke:#00ff00;stroke-width:0.088860892px;stroke-linecap:round;stroke-linejoin:round;stroke-miterlimit:4;stroke-dasharray:none;stroke-opacity:1;"
     d="  M 495.84378,313.05692   L 496.37694,314.38984   L 496.91011,315.18959   L 497.35441,315.54503   L 497.88758,315.18959   L 498.50961,314.65642   L 499.04277,314.12325   L 499.57594,313.50123   L 500.1091,312.96806   L 500.73113,312.52376   L 501.26429,311.99059   L 501.79746,311.54629   L 502.24176,311.01312   L 502.77493,310.3911   L 503.48582,309.94679   L 504.01898,309.41363   L 504.46329,308.61388   L 504.99645,307.10324   L 505.61848,304.43742   L 506.15164,300.17209   L 506.68481,294.30728   L 507.21797,287.02068   L 507.84,279.11206   L 508.37317,275.02446   L 508.90633,271.64775   L 509.35064,268.62648   L 509.8838,265.87179   L 510.59469,263.56141   L 511.12785,261.42875   L 511.57216,259.65153   L 512.10532,256.18595   L 512.72735,145.99845   L 513.26051,168.8357   L 513.79368,210.42259   L 514.32685,210.77804   L 514.94887,211.66665   L 515.48204,212.9107   L 516.0152,214.42133   L 516.45951,216.55399   L 516.99267,219.13096   L 517.6147,222.15223   L 518.23672,225.44008   L 518.68103,229.43882   L 519.21419,234.14845   L 519.83622,241.96821   L 520.36939,248.54392   L 520.90255,254.58646   L 521.43572,260.09583   L 522.05774,265.42749   L 522.59091,270.13711   L 523.12407,273.78041   L 523.56838,274.66902   L 524.10154,275.20218   L 524.72357,275.55763   L 525.3456,275.64649   L 525.7899,275.46877   L 526.32307,275.20218   L 526.94509,274.84674   L 527.47826,274.66902   L 528.01142,274.31357   L 528.45573,274.13585   L 529.16661,273.86927   L 529.69978,273.51383   L 530.23294,273.42497   L 530.67725,273.06952   L 531.21041,272.8918   L 531.83244,272.53636   L 532.36561,272.35864   L 532.89877,272.09205   L 533.43194,271.91433   L 534.05396,271.64775   L 534.58713,271.47003   L 535.12029,271.20344   L 535.5646,270.848   L 536.27549,270.75914   L 536.80865,270.4037   L 537.34182,270.22597   L 537.78612,269.95939   L 538.31929,269.78167   L 538.94131,269.51509   L 539.47448,269.33736   L 540.00764,269.07078   L 540.54081,268.89306   L 541.16283,268.62648   L 541.696,268.53762   L 542.22917,268.3599   L 542.67347,268.18217   L 543.20664,268.09331   L 543.91752,268.09331   L 544.45069,268.09331   L 544.89499,268.09331   L 545.42816,268.09331   L 546.05018,268.09331   L 546.58335,268.3599   L 547.11651,267.56015   L 547.64968,264.36115   L 548.27171,261.69533   L 548.80487,259.91811   L 549.33804,258.76292   L 549.78234,259.56267   L 550.31551,260.98444   L 551.02639,262.40622   L 551.55956,264.00571   L 552.00386,265.42749   L 552.53703,267.02698  "
     id="path165" />
  <path
     style="fill:none;stroke:#00ff00;stroke-width:0.088860892px;stroke-linecap:round;stroke-linejoin:round;stroke-miterlimit:4;stroke-dasharray:none;stroke-opacity:1;"
     d="  M 552.53703,267.02698   L 553.15906,268.53762   L 553.69222,270.13711   L 554.22539,271.64775   L 554.75855,273.3361   L 555.38058,275.02446   L 555.91374,277.06826   L 556.44691,279.64523   L 556.89121,282.6665   L 557.42438,286.13207   L 558.0464,289.86423   L 558.66843,294.12955   L 559.11273,298.75032   L 559.6459,303.90425   L 560.26793,309.41363   L 560.80109,315.18959   L 561.33426,321.67643   L 561.86742,328.42986   L 562.48945,334.73898   L 563.02261,337.93797   L 563.55578,340.51494   L 564.00008,343.09191   L 564.53325,345.40229   L 565.15528,344.15824   L 565.7773,338.29342   L 566.22161,331.89543   L 566.75477,324.78656   L 567.3768,316.9668   L 567.90996,308.7916   L 568.44313,320.6101   L 568.88743,349.04559   L 569.59832,360.95294   L 570.13149,368.50612   L 570.66465,371.52739   L 571.10896,372.06056   L 571.64212,372.50486   L 572.26415,372.94917   L 572.79731,373.39347   L 573.33048,373.74891   L 573.86364,374.19322   L 574.48567,374.54866   L 575.01883,374.99297   L 575.552,375.25955   L 575.9963,375.61499   L 576.70719,376.0593   L 577.24036,376.41474   L 577.77352,376.77018   L 578.21783,377.03677   L 578.75099,377.39221   L 579.37302,377.83651   L 579.90618,378.19196   L 580.43935,378.5474   L 580.97251,378.72512   L 581.59454,379.16943   L 582.12771,379.43601   L 582.66087,379.70259   L 583.10518,380.05804   L 583.63834,380.41348   L 584.34923,380.5912   L 584.88239,380.94665   L 585.3267,381.21323   L 585.85986,381.39095   L 586.48189,381.74639   L 587.01506,381.92412   L 587.54822,382.27956   L 588.08139,382.54614   L 588.70341,382.72386   L 589.23658,382.99045   L 589.76974,383.16817   L 590.21405,383.43475   L 590.74721,383.61247   L 591.4581,383.87906   L 591.99127,384.05678   L 592.43557,384.32336   L 592.96873,384.50108   L 593.59076,384.58994   L 594.12393,384.85652   L 594.65709,384.94539   L 595.19026,385.21197   L 595.81228,385.38969   L 596.34545,385.47855   L 596.87861,385.74513   L 597.32292,385.83399   L 597.85608,385.92286   L 598.47811,386.18944   L 599.10014,386.2783   L 599.54444,386.36716   L 600.07761,386.54488   L 600.69963,386.63374   L 601.2328,386.7226   L 601.76596,386.81146   L 602.29913,386.98919   L 602.92115,387.07805   L 603.45432,387.16691   L 603.98749,387.16691   L 604.43179,387.25577   L 604.96496,387.43349   L 605.58698,387.43349   L 606.20901,387.52235   L 606.65331,387.61121   L 607.18648,387.61121   L 607.8085,387.61121   L 608.34167,387.61121   L 608.87483,387.61121   L 609.14142,387.61121  "
     id="path167" />
  <text
     xml:space="preserve"
     style="font-size:16.000000px;font-style:normal;font-variant:normal;font-weight:400;font-stretch:Normal;line-height:125.000000%;letter-spacing:0px;word-spacing:0px;fill:#000000;fill-opacity:1;stroke:none;font-family:Helvetica;text-align:start;text-anchor:start;"
     transform="matrix(1.000000,-0.000000,0.000000,1.000000,485.624777,61.314016)"
     x="0.000000"
     y="0.000000"
     id="text173"><tspan
       sodipodi:role="line"
       x="0.000000"
       y="0.000000"
       id="tspan171"><tspan
         dx="0.000000"
         dy="0.000000"
         style="fill:#000000;font-size:16.000000px;font-style:normal;font-variant:normal;font-weight:400;font-stretch:Normal;font-family:Helvetica;"
         id="tspan169">HSE06</tspan></tspan></text>
  <path
     style="fill:none;stroke:#0000ff;stroke-width:0.088860892px;stroke-linecap:round;stroke-linejoin:round;stroke-miterlimit:4;stroke-dasharray:none;stroke-opacity:1;"
     d="  M 545.87246,55.982362   L 589.8586,55.982362   M 102.36775,387.70007   L 102.90091,387.70007   L 103.52294,387.70007   L 104.14497,387.70007   L 104.58927,387.70007   L 105.12244,387.70007   L 105.74446,387.61121   L 106.27763,387.25577   L 106.81079,386.98919   L 107.2551,386.36716   L 107.96598,385.74513   L 108.49915,384.94539   L 109.03231,384.05678   L 109.47662,383.07931   L 110.00978,381.83525   L 110.63181,380.50234   L 111.16498,379.16943   L 111.69814,377.48107   L 112.23131,375.70385   L 112.85333,373.48233   L 113.3865,371.61625   L 113.91966,369.75017   L 114.36397,368.06182   L 114.89713,366.55118   L 115.60802,365.04055   L 116.14119,363.88535   L 116.58549,362.81902   L 117.11866,361.93041   L 117.74068,361.21953   L 118.27385,360.5975   L 118.80701,360.50864   L 119.34018,360.33092   L 119.9622,360.06434   L 120.49537,359.62003   L 121.02854,359.17573   L 121.47284,358.64256   L 122.00601,357.93167   L 122.71689,357.39851   L 123.25006,356.5099   L 123.69436,355.62129   L 124.22753,354.73268   L 124.84955,353.75521   L 125.38272,352.60002   L 125.91588,351.62255   L 126.44905,350.64508   L 127.07108,349.48989   L 127.60424,348.51242   L 128.13741,347.44609   L 128.58171,346.2909   L 129.11488,345.31343   L 129.82576,344.06938   L 130.35893,343.09191   L 130.80323,342.11444   L 131.3364,341.0481   L 131.95843,340.33722   L 132.49159,339.62633   L 133.02476,339.09317   L 133.55792,338.56   L 134.17995,338.20456   L 134.71311,337.84911   L 135.24628,337.67139   L 135.69058,337.40481   L 136.22375,337.22709   L 136.84577,336.9605   L 137.4678,336.5162   L 137.9121,335.98303   L 138.44527,335.27215   L 139.0673,334.65012   L 139.60046,333.85037   L 140.13363,332.96176   L 140.57793,332.07315   L 141.28882,331.18455   L 141.82198,330.3848   L 142.35515,329.49619   L 142.79945,328.60758   L 143.33262,327.63011   L 143.95465,326.7415   L 144.57667,325.67517   L 145.02098,324.51998   L 145.55414,323.54251   L 146.17617,322.29846   L 146.70933,321.23213   L 147.2425,320.07693   L 147.6868,318.74402   L 148.39769,317.49997   L 148.93086,316.16706   L 149.46402,314.83414   L 149.90833,313.41237   L 150.44149,312.07945   L 151.06352,310.65768   L 151.59668,309.05818   L 152.12985,307.45869   L 152.66301,305.41489   L 153.28504,303.28223   L 153.8182,300.97184   L 154.35137,298.75032   L 154.79567,296.9731   L 155.50656,295.19588   L 156.03973,293.68525   L 156.57289,292.08575   L 157.0172,290.75284   L 157.55036,289.41993   L 158.17239,288.3536  "
     id="path175" />
  <path
     style="fill:none;stroke:#0000ff;stroke-width:0.088860892px;stroke-linecap:round;stroke-linejoin:round;stroke-miterlimit:4;stroke-dasharray:none;stroke-opacity:1;"
     d="  M 158.17239,288.3536   L 158.70555,287.1984   L 159.23872,286.3098   L 159.77188,285.68777   L 160.39391,285.06574   L 160.92708,284.88802   L 161.46024,284.62144   L 161.90455,284.79916   L 162.43771,284.97688   L 163.1486,285.42119   L 163.68176,286.13207   L 164.12607,287.02068   L 164.65923,287.90929   L 165.28126,288.62018   L 165.81443,289.50879   L 166.34759,290.30854   L 166.88076,291.19714   L 167.50278,291.55259   L 168.03595,291.55259   L 168.56911,291.19714   L 169.01342,290.3974   L 169.54658,289.33107   L 170.25747,290.3974   L 170.79064,294.21841   L 171.23494,297.68399   L 171.7681,300.88298   L 172.39013,303.72653   L 172.9233,306.3035   L 173.45646,308.61388   L 173.98963,310.74654   L 174.61165,312.4349   L 175.14482,313.85667   L 175.67798,315.27845   L 176.12229,316.9668   L 176.65545,318.65516   L 177.27748,320.1658   L 177.89951,321.85415   L 178.34381,323.27593   L 178.87698,324.96428   L 179.499,326.2972   L 180.03217,327.89669   L 180.56533,329.31847   L 181.0985,330.74024   L 181.72052,332.07315   L 182.25369,333.40607   L 182.78686,334.73898   L 183.23116,336.0719   L 183.76433,337.40481   L 184.38635,338.73772   L 185.00838,339.89291   L 185.45268,341.0481   L 185.98585,342.29216   L 186.60787,343.44735   L 187.14104,344.51368   L 187.6742,345.66887   L 188.11851,346.7352   L 188.8294,347.71267   L 189.36256,348.86786   L 189.89573,349.84533   L 190.34003,351.00052   L 190.8732,352.15572   L 191.49522,353.39977   L 192.02839,354.82154   L 192.56155,356.33218   L 193.09472,357.84281   L 193.71675,359.44231   L 194.24991,360.95294   L 194.78308,362.73016   L 195.22738,364.50738   L 195.93827,366.37346   L 196.47143,368.41726   L 197.0046,370.3722   L 197.4489,372.50486   L 197.98207,374.72638   L 198.60409,376.94791   L 199.13726,378.72512   L 199.67043,380.1469   L 200.20359,380.94665   L 200.82562,380.76892   L 201.35878,380.05804   L 201.89195,378.63626   L 202.33625,376.77018   L 202.86942,374.37094   L 203.5803,372.06056   L 204.11347,369.83903   L 204.55777,367.70637   L 205.09094,365.75143   L 205.71297,363.61877   L 206.24613,361.66383   L 206.7793,359.70889   L 207.31246,357.84281   L 207.93449,356.0656   L 208.46765,354.37724   L 209.00082,352.77774   L 209.44512,351.17825   L 209.97829,349.48989   L 210.68918,348.06812   L 211.22234,346.64634   L 211.66665,345.31343   L 212.19981,343.98051   L 212.82184,342.55874   L 213.355,340.95924   L 213.88817,339.27089   L 214.42133,337.49367   L 215.04336,335.62759  "
     id="path177" />
  <path
     style="fill:none;stroke:#0000ff;stroke-width:0.088860892px;stroke-linecap:round;stroke-linejoin:round;stroke-miterlimit:4;stroke-dasharray:none;stroke-opacity:1;"
     d="  M 215.04336,335.62759   L 215.57652,333.40607   L 216.10969,331.00682   L 216.55399,328.07441   L 217.08716,324.51998   L 217.70919,320.78782   L 218.33121,316.43364   L 218.77552,311.63515   L 219.30868,306.39236   L 219.93071,300.79412   L 220.46387,291.64145   L 220.99704,279.0232   L 221.5302,267.91559   L 222.15223,258.40748   L 222.6854,250.76544   L 223.21856,244.81176   L 223.66287,240.45757   L 224.19603,237.79175   L 224.81806,236.90314   L 225.44008,237.52517   L 225.88439,240.10213   L 226.41755,244.10087   L 227.03958,248.54392   L 227.57275,253.52013   L 228.10591,259.20722   L 228.55022,265.33862   L 229.2611,270.67028   L 229.79427,274.40244   L 230.32743,278.13459   L 230.77174,281.51131   L 231.3049,284.97688   L 231.92693,288.08701   L 232.46009,291.19714   L 232.99326,294.30728   L 233.52643,297.06196   L 234.14845,299.90551   L 234.68162,302.57134   L 235.21478,304.97058   L 235.65909,307.45869   L 236.36997,309.76907   L 236.90314,311.90173   L 237.4363,313.85667   L 237.88061,315.72275   L 238.41377,317.67769   L 239.0358,319.18833   L 239.56897,320.87668   L 240.10213,322.29846   L 240.6353,323.72023   L 241.25732,325.23087   L 241.79049,326.65264   L 242.32365,328.07441   L 242.76796,329.40733   L 243.30112,330.74024   L 244.01201,332.07315   L 244.54518,333.31721   L 244.98948,334.56126   L 245.52265,335.62759   L 246.14467,336.87164   L 246.67784,337.84911   L 247.211,338.82658   L 247.74417,339.71519   L 248.36619,340.6038   L 248.89936,341.49241   L 249.43252,342.29216   L 249.87683,343.09191   L 250.40999,343.62507   L 251.12088,344.42482   L 251.65405,344.95798   L 252.09835,345.66887   L 252.63152,346.2909   L 253.25354,346.7352   L 253.78671,347.44609   L 254.31987,347.97925   L 254.85304,348.51242   L 255.47507,348.95672   L 256.00823,349.48989   L 256.5414,350.11192   L 256.9857,350.64508   L 257.51887,351.08939   L 258.14089,351.62255   L 258.76292,352.06686   L 259.20722,352.51116   L 259.74039,353.04433   L 260.36241,353.48863   L 260.89558,353.93293   L 261.42875,354.55496   L 261.96191,354.99927   L 262.58394,355.44357   L 263.1171,355.88787   L 263.65027,356.33218   L 264.09457,356.77648   L 264.62774,357.22079   L 265.24976,357.66509   L 265.87179,357.93167   L 266.31609,358.37598   L 266.84926,358.82028   L 267.47129,359.17573   L 268.00445,359.62003   L 268.53762,360.06434   L 268.98192,360.41978   L 269.69281,360.86408   L 270.22597,361.21953   L 270.75914,361.48611   L 271.20344,361.84155   L 271.73661,362.28586  "
     id="path179" />
  <path
     style="fill:none;stroke:#0000ff;stroke-width:0.088860892px;stroke-linecap:round;stroke-linejoin:round;stroke-miterlimit:4;stroke-dasharray:none;stroke-opacity:1;"
     d="  M 271.73661,362.28586   L 272.35864,362.6413   L 272.8918,362.99675   L 273.42497,363.17447   L 273.95813,363.26333   L 274.58016,359.62003   L 275.11332,350.20078   L 275.64649,335.89417   L 276.09079,328.7853   L 276.80168,324.43112   L 277.33485,320.07693   L 277.86801,315.63389   L 278.31231,311.27971   L 278.84548,307.01438   L 279.46751,302.6602   L 280.00067,298.30602   L 280.53384,293.86297   L 281.067,289.50879   L 281.68903,285.24346   L 282.22219,280.88928   L 282.75536,276.5351   L 283.19966,272.09205   L 283.73283,267.64901   L 284.44372,263.47255   L 284.97688,259.56267   L 285.42119,256.00823   L 285.95435,252.80924   L 286.57638,249.87683   L 287.10954,247.29986   L 287.64271,245.43378   L 288.17587,243.92315   L 288.7979,242.85682   L 289.33107,242.32365   L 289.86423,242.32365   L 290.30854,242.76796   L 290.8417,243.74543   L 291.55259,245.34492   L 292.08575,244.54518   L 292.53006,234.23731   L 293.06322,212.82184   L 293.68525,202.86942   L 294.21841,224.55148   L 294.75158,242.85682   L 295.28475,245.25606   L 295.90677,244.81176   L 296.43994,244.18973   L 296.9731,243.65657   L 297.41741,243.1234   L 297.95057,242.32365   L 298.5726,241.70163   L 299.19462,240.90188   L 299.63893,240.01327   L 300.17209,239.12466   L 300.79412,238.14719   L 301.32729,236.992   L 301.86045,236.01453   L 302.39362,234.77048   L 303.01564,233.52643   L 303.54881,232.37123   L 304.08197,231.03832   L 304.52628,229.52769   L 305.05944,228.10591   L 305.68147,226.773   L 306.3035,225.44008   L 306.7478,224.10717   L 307.28097,222.6854   L 307.90299,221.88565   L 308.43616,221.88565   L 308.96932,221.0859   L 309.41363,219.21982   L 310.12451,216.55399   L 310.65768,213.355   L 311.19085,209.80057   L 311.63515,205.71297   L 312.16831,196.82688   L 312.79034,189.00712   L 313.41237,184.56407   L 313.85667,183.5866   L 314.38984,185.45268   L 315.01186,188.20737   L 315.54503,191.05092   L 316.07819,193.71675   L 316.5225,196.56029   L 317.23339,199.58156   L 317.76655,202.6917   L 318.29972,205.97955   L 318.74402,209.44512   L 319.27719,212.99956   L 319.89921,216.64286   L 320.43238,220.19729   L 320.96554,223.30742   L 321.49871,223.92945   L 322.12073,223.92945   L 322.6539,224.10717   L 323.18707,224.19603   L 323.63137,224.55148   L 324.16454,224.99578   L 324.87542,225.44008   L 325.40859,225.88439   L 325.85289,226.41755   L 326.38606,227.2173   L 327.00808,228.01705   L 327.54125,228.90566   L 328.07441,229.88313   L 328.60758,231.21604  "
     id="path181" />
  <path
     style="fill:none;stroke:#0000ff;stroke-width:0.088860892px;stroke-linecap:round;stroke-linejoin:round;stroke-miterlimit:4;stroke-dasharray:none;stroke-opacity:1;"
     d="  M 328.60758,231.21604   L 329.22961,232.54896   L 329.76277,234.14845   L 330.29594,235.48136   L 330.74024,236.81428   L 331.27341,238.32491   L 331.98429,239.74669   L 332.51746,241.43504   L 332.96176,242.76796   L 333.49493,237.88061   L 334.11696,230.32743   L 334.65012,223.21856   L 335.18329,216.64286   L 335.71645,210.68918   L 336.33848,205.09094   L 336.87164,200.11473   L 337.40481,197.89321   L 337.84911,212.02209   L 338.38228,227.75047   L 339.0043,241.87935   L 339.62633,251.65405   L 340.07064,263.65027   L 340.6038,288.44246   L 341.22583,301.86045   L 341.75899,305.85919   L 342.29216,308.96932   L 342.82532,311.72401   L 343.44735,314.65642   L 343.98051,317.41111   L 344.51368,320.07693   L 344.95798,322.74276   L 345.49115,325.40859   L 346.11318,328.07441   L 346.7352,330.56252   L 347.17951,332.96176   L 347.71267,335.44987   L 348.3347,337.84911   L 348.86786,340.07064   L 349.40103,342.29216   L 349.84533,344.51368   L 350.55622,346.7352   L 351.08939,348.779   L 351.62255,349.22331   L 352.06686,348.51242   L 352.60002,347.97925   L 353.22205,347.62381   L 353.84407,347.62381   L 354.28838,348.06812   L 354.82154,348.51242   L 355.44357,349.40103   L 355.97673,350.55622   L 356.5099,351.88913   L 356.9542,353.48863   L 357.66509,355.44357   L 358.19826,357.66509   L 358.73142,360.06434   L 359.17573,362.73016   L 359.70889,365.84029   L 360.33092,369.03929   L 360.86408,372.59372   L 361.39725,376.5036   L 361.93041,380.50234   L 362.55244,382.54614   L 363.08561,383.52361   L 363.61877,384.32336   L 364.06308,385.03425   L 364.59624,385.83399   L 365.30713,386.2783   L 365.84029,386.81146   L 366.2846,387.16691   L 366.81776,387.52235   L 367.43979,387.61121   L 367.97296,387.70007   L 368.50612,387.70007   L 369.03929,387.70007   L 369.66131,387.70007   L 370.19448,387.70007   L 370.72764,387.70007   L 371.17195,387.70007   L 371.70511,387.70007   L 372.416,387.70007   L 372.94917,387.70007   L 373.39347,387.70007   L 373.92664,387.70007   L 374.54866,387.70007   L 375.08183,387.70007   L 375.61499,387.70007   L 376.14816,387.70007   L 376.77018,387.70007   L 377.30335,387.70007   L 377.83651,387.70007   L 378.28082,387.70007   L 378.81398,387.70007   L 379.52487,387.70007   L 380.05804,387.70007   L 380.50234,387.70007   L 381.03551,387.70007   L 381.65753,387.70007   L 382.1907,387.70007   L 382.72386,387.70007   L 383.25703,387.70007   L 383.87906,387.70007   L 384.41222,387.70007   L 384.94539,387.70007   L 385.38969,387.70007  "
     id="path183" />
  <path
     style="fill:none;stroke:#0000ff;stroke-width:0.088860892px;stroke-linecap:round;stroke-linejoin:round;stroke-miterlimit:4;stroke-dasharray:none;stroke-opacity:1;"
     d="  M 385.38969,387.70007   L 385.92286,387.70007   L 386.54488,387.70007   L 387.16691,387.70007   L 387.61121,387.70007   L 388.14438,387.70007   L 388.7664,387.70007   L 389.29957,387.70007   L 389.83273,387.70007   L 390.27704,387.70007   L 390.98793,387.70007   L 391.52109,387.70007   L 392.05426,387.70007   L 392.49856,387.70007   L 393.03173,387.70007   L 393.65375,387.70007   L 394.27578,387.70007   L 394.72008,387.70007   L 395.25325,387.70007   L 395.87528,387.61121   L 396.40844,387.43349   L 396.94161,386.98919   L 397.38591,386.36716   L 398.0968,385.65627   L 398.62996,384.76766   L 399.16313,383.70133   L 399.60743,382.72386   L 400.1406,381.65753   L 400.76262,380.50234   L 401.29579,379.43601   L 401.82896,378.19196   L 402.36212,376.94791   L 402.98415,375.61499   L 403.51731,374.28208   L 404.05048,372.94917   L 404.49478,371.61625   L 405.02795,370.28334   L 405.73883,368.7727   L 406.272,367.17321   L 406.7163,365.75143   L 407.24947,364.06308   L 407.8715,362.55244   L 408.40466,360.95294   L 408.93783,359.17573   L 409.47099,357.48737   L 410.09302,355.71015   L 410.62618,353.84407   L 411.15935,351.71141   L 411.60365,349.40103   L 412.13682,347.17951   L 412.84771,344.51368   L 413.38087,341.84785   L 413.82518,339.18203   L 414.35834,336.0719   L 414.98037,332.96176   L 415.51353,329.85163   L 416.0467,326.2972   L 416.57986,322.38732   L 417.20189,318.21086   L 417.73506,313.41237   L 418.26822,308.43616   L 418.71252,302.83792   L 419.24569,296.9731   L 419.95658,290.75284   L 420.48974,284.08827   L 420.93405,277.06826   L 421.46721,269.87053   L 422.08924,262.22849   L 422.6224,254.23101   L 423.15557,245.87809   L 423.68873,244.01201   L 424.31076,253.43127   L 424.84393,257.51887   L 425.37709,252.09835   L 425.8214,245.87809   L 426.35456,239.30238   L 426.97659,232.19351   L 427.59861,224.10717   L 428.04292,214.24361   L 428.57608,202.60283   L 429.19811,189.09598   L 429.73128,173.98963   L 430.26444,157.10606   L 430.70875,138.62299   L 431.41963,122.36145   L 431.9528,109.03231   L 432.48596,98.013564   L 432.93027,89.127475   L 433.46343,83.6181   L 434.08546,97.391538   L 434.70749,118.71815   L 435.15179,141.82198   L 435.68496,157.55036   L 436.30698,166.25873   L 436.84015,174.43393   L 437.37331,182.43141   L 437.81762,190.25117   L 438.5285,197.71549   L 439.06167,205.00208   L 439.59483,211.93323   L 440.03914,218.5978   L 440.5723,224.99578   L 441.19433,231.03832   L 441.7275,236.81428   L 442.26066,242.32365  "
     id="path185" />
  <path
     style="fill:none;stroke:#0000ff;stroke-width:0.088860892px;stroke-linecap:round;stroke-linejoin:round;stroke-miterlimit:4;stroke-dasharray:none;stroke-opacity:1;"
     d="  M 442.26066,242.32365   L 442.79383,247.56645   L 443.41585,252.54266   L 443.94902,257.87431   L 444.48218,267.47129   L 444.92649,277.06826   L 445.63738,285.95435   L 446.17054,293.86297   L 446.70371,300.97184   L 447.14801,307.1921   L 447.68118,312.52376   L 448.3032,316.9668   L 448.83637,316.61136   L 449.36953,311.01312   L 449.9027,303.63767   L 450.52472,293.41867   L 451.05789,282.6665   L 451.59106,271.64775   L 452.03536,260.54014   L 452.56852,249.2548   L 453.27941,234.32617   L 453.81258,215.13222   L 454.25688,197.09346   L 454.79005,180.12103   L 455.41207,164.39265   L 455.94524,149.46402   L 456.4784,135.69058   L 457.01157,122.89461   L 457.6336,111.16498   L 458.16676,100.23509   L 458.69993,90.282667   L 459.14423,81.041134   L 459.6774,72.066184   L 460.38828,60.603129   L 460.92145,85.128735   L 461.36575,131.7807   L 461.89892,143.1549   L 462.52094,151.24124   L 463.05411,158.88328   L 463.58728,165.90329   L 464.12044,172.21241   L 464.74247,177.98837   L 465.27563,183.1423   L 465.8088,188.20737   L 466.2531,193.09472   L 466.78627,197.4489   L 467.40829,200.02587   L 468.03032,201.00334   L 468.47462,201.98081   L 469.00779,203.04714   L 469.62982,204.02461   L 470.16298,204.91322   L 470.69615,205.80183   L 471.14045,206.60157   L 471.85134,207.2236   L 472.3845,207.57904   L 472.91767,207.75677   L 473.36197,207.66791   L 473.89514,207.93449   L 474.51717,209.44512   L 475.13919,212.55525   L 475.5835,217.4426   L 476.11666,223.75173   L 476.73869,231.66035   L 477.27185,241.25732   L 477.80502,252.4538   L 478.24932,264.45002   L 478.96021,273.86927   L 479.49338,282.31106   L 480.02654,290.3974   L 480.47085,296.61766   L 481.00401,300.97184   L 481.62604,304.79286   L 482.1592,307.99185   L 482.69237,310.65768   L 483.22553,312.52376   L 483.84756,313.94553   L 484.38072,314.74528   L 484.91389,315.10072   L 485.35819,314.74528   L 486.06908,314.21212   L 486.60225,313.67895   L 487.13541,313.05692   L 487.57972,312.52376   L 488.11288,312.07945   L 488.73491,311.54629   L 489.26807,311.01312   L 489.80124,310.3911   L 490.3344,309.94679   L 490.95643,309.41363   L 491.4896,308.96932   L 492.02276,308.08071   L 492.46707,306.39236   L 493.00023,303.63767   L 493.71112,299.28349   L 494.24428,293.68525   L 494.68859,286.3098   L 495.22175,278.40118   L 495.84378,274.22471   L 496.37694,270.75914   L 496.91011,267.73787   L 497.44328,264.98318   L 498.0653,262.58394   L 498.59847,260.45128   L 499.13163,258.5852  "
     id="path187" />
  <path
     style="fill:none;stroke:#0000ff;stroke-width:0.088860892px;stroke-linecap:round;stroke-linejoin:round;stroke-miterlimit:4;stroke-dasharray:none;stroke-opacity:1;"
     d="  M 499.13163,258.5852   L 499.57594,256.45254   L 500.1091,156.66175   L 500.81999,156.48403   L 501.35315,208.37879   L 501.79746,208.91196   L 502.33062,209.88943   L 502.95265,211.3112   L 503.48582,213.26614   L 504.01898,215.57652   L 504.55215,218.33121   L 505.17417,221.44134   L 505.70734,224.99578   L 506.2405,228.99452   L 506.68481,234.85934   L 507.21797,242.23479   L 507.84,248.63278   L 508.46203,254.76418   L 508.90633,260.36241   L 509.4395,265.42749   L 510.06152,270.13711   L 510.59469,273.24724   L 511.12785,273.95813   L 511.66102,274.58016   L 512.28304,274.75788   L 512.81621,274.75788   L 513.34938,274.75788   L 513.79368,274.40244   L 514.32685,274.22471   L 514.94887,273.86927   L 515.5709,273.69155   L 516.0152,273.42497   L 516.54837,273.06952   L 517.17039,272.8918   L 517.70356,272.62522   L 518.23672,272.4475   L 518.68103,272.09205   L 519.39192,271.91433   L 519.92508,271.64775   L 520.45825,271.47003   L 520.90255,271.20344   L 521.43572,271.02572   L 522.05774,270.75914   L 522.59091,270.58142   L 523.12407,270.31483   L 523.65724,269.95939   L 524.27927,269.87053   L 524.81243,269.51509   L 525.3456,269.42623   L 525.7899,269.07078   L 526.50079,268.98192   L 527.03395,268.62648   L 527.56712,268.53762   L 528.01142,268.3599   L 528.54459,268.09331   L 529.16661,267.91559   L 529.69978,267.73787   L 530.23294,267.64901   L 530.76611,267.64901   L 531.38814,267.56015   L 531.9213,267.56015   L 532.45447,267.64901   L 532.89877,267.64901   L 533.43194,267.64901   L 534.14282,267.91559   L 534.67599,265.69407   L 535.12029,262.6728   L 535.65346,260.36241   L 536.27549,258.85178   L 536.80865,258.5852   L 537.34182,259.74039   L 537.87498,261.33988   L 538.49701,262.76166   L 539.03017,264.36115   L 539.56334,265.87179   L 540.00764,267.56015   L 540.54081,269.07078   L 541.2517,270.75914   L 541.78486,272.4475   L 542.22917,274.13585   L 542.76233,275.91307   L 543.38436,277.95687   L 543.91752,280.53384   L 544.45069,283.46625   L 544.98385,286.84296   L 545.60588,290.75284   L 546.13904,295.01816   L 546.67221,299.63893   L 547.11651,304.88172   L 547.64968,310.3911   L 548.27171,316.5225   L 548.89373,323.00934   L 549.33804,329.85163   L 549.8712,336.0719   L 550.49323,339.0043   L 551.02639,341.67013   L 551.55956,344.06938   L 552.09272,345.75773   L 552.71475,340.95924   L 553.24792,334.38354   L 553.78108,327.18581   L 554.22539,319.18833   L 554.75855,310.3911   L 555.38058,309.41363   L 556.0026,343.00304  "
     id="path189" />
  <path
     style="fill:none;stroke:#0000ff;stroke-width:0.088860892px;stroke-linecap:round;stroke-linejoin:round;stroke-miterlimit:4;stroke-dasharray:none;stroke-opacity:1;"
     d="  M 556.0026,343.00304   L 556.44691,356.9542   L 556.98007,365.92915   L 557.6021,370.72764   L 558.13527,371.88283   L 558.66843,372.32714   L 559.11273,372.77144   L 559.82362,373.21575   L 560.35679,373.48233   L 560.88995,373.92664   L 561.33426,374.28208   L 561.86742,374.72638   L 562.48945,375.17069   L 563.02261,375.52613   L 563.55578,375.88157   L 564.08894,376.14816   L 564.71097,376.59246   L 565.24414,376.94791   L 565.7773,377.39221   L 566.22161,377.65879   L 566.93249,377.92538   L 567.46566,378.28082   L 567.99882,378.72512   L 568.44313,378.99171   L 568.97629,379.25829   L 569.59832,379.61373   L 570.13149,379.96918   L 570.66465,380.1469   L 571.19782,380.50234   L 571.81984,380.85778   L 572.35301,381.03551   L 572.88617,381.39095   L 573.33048,381.65753   L 573.86364,381.83525   L 574.57453,382.1907   L 575.1077,382.36842   L 575.552,382.635   L 576.08517,382.81272   L 576.70719,383.16817   L 577.24036,383.25703   L 577.77352,383.61247   L 578.30669,383.70133   L 578.92871,384.05678   L 579.46188,384.14564   L 579.99504,384.41222   L 580.43935,384.50108   L 580.97251,384.85652   L 581.6834,384.94539   L 582.21657,385.21197   L 582.66087,385.38969   L 583.19404,385.38969   L 583.81606,385.65627   L 584.34923,385.83399   L 584.88239,385.92286   L 585.41556,386.10058   L 586.03759,386.2783   L 586.57075,386.2783   L 587.10392,386.54488   L 587.54822,386.63374   L 588.08139,386.7226   L 588.70341,386.7226   L 589.32544,386.98919   L 589.76974,387.07805   L 590.30291,387.16691   L 590.92493,387.16691   L 591.4581,387.16691   L 591.99127,387.25577   L 592.52443,387.43349   L 593.14646,387.52235   L 593.67962,387.52235   L 594.21279,387.61121   L 594.65709,387.61121   L 595.19026,387.61121   L 595.81228,387.61121   L 596.43431,387.61121   L 596.87861,387.70007   L 597.41178,387.70007   L 598.03381,387.70007   L 598.56697,387.70007   L 599.10014,387.70007   L 599.54444,387.70007   L 600.25533,387.70007   L 600.78849,387.70007  "
     id="path191" />
  <path
     style="fill:none;stroke:#000000;stroke-width:0.088860892px;stroke-linecap:round;stroke-linejoin:round;stroke-miterlimit:4;stroke-dasharray:none;stroke-opacity:1;"
     d="  M 66.912252,10.396724   L 66.912252,387.70007   L 609.14142,387.70007   L 609.14142,10.396724   L 66.912252,10.396724  "
     id="path193" />
</svg>
