<?xml version="1.0" encoding="UTF-8" standalone="no"?>
<svg
   xmlns:dc="http://purl.org/dc/elements/1.1/"
   xmlns:cc="http://creativecommons.org/ns#"
   xmlns:rdf="http://www.w3.org/1999/02/22-rdf-syntax-ns#"
   xmlns:svg="http://www.w3.org/2000/svg"
   xmlns="http://www.w3.org/2000/svg"
   xmlns:sodipodi="http://sodipodi.sourceforge.net/DTD/sodipodi-0.dtd"
   xmlns:inkscape="http://www.inkscape.org/namespaces/inkscape"
   version="1.0"
   width="41.592499mm"
   height="58.208333mm"
   id="svg167"
   sodipodi:docname="image17.svg"
   inkscape:version="1.0.1 (3bc2e813f5, 2020-09-07)">
  <metadata
     id="metadata171">
    <rdf:RDF>
      <cc:Work
         rdf:about="">
        <dc:format>image/svg+xml</dc:format>
        <dc:type
           rdf:resource="http://purl.org/dc/dcmitype/StillImage" />
        <dc:title></dc:title>
      </cc:Work>
    </rdf:RDF>
  </metadata>
  <sodipodi:namedview
     pagecolor="#ffffff"
     bordercolor="#666666"
     borderopacity="1"
     objecttolerance="10"
     gridtolerance="10"
     guidetolerance="10"
     inkscape:pageopacity="0"
     inkscape:pageshadow="2"
     inkscape:window-width="1858"
     inkscape:window-height="1057"
     id="namedview169"
     showgrid="false"
     inkscape:zoom="4.0454546"
     inkscape:cx="78.599998"
     inkscape:cy="110"
     inkscape:window-x="-8"
     inkscape:window-y="-8"
     inkscape:window-maximized="1"
     inkscape:current-layer="svg167" />
  <defs
     id="defs3">
    <pattern
       id="WMFhbasepattern"
       patternUnits="userSpaceOnUse"
       width="6"
       height="6"
       x="0"
       y="0" />
  </defs>
  <path
     style="fill:none;stroke:#000000;stroke-width:0.06666667px;stroke-linecap:round;stroke-linejoin:round;stroke-miterlimit:4;stroke-dasharray:none;stroke-opacity:1;"
     d="  M 0,0   L 157.06667,0   L 157.06667,219.93333   L 0,219.93333   z "
     id="path5" />
  <path
     style="fill:none;stroke:#000000;stroke-width:0.46666667px;stroke-linecap:round;stroke-linejoin:round;stroke-miterlimit:4;stroke-dasharray:none;stroke-opacity:1;"
     d="  M 27.466667,196.66667   L 30.2,196.66667  "
     id="path7" />
  <path
     style="fill:none;stroke:#000000;stroke-width:0.46666667px;stroke-linecap:round;stroke-linejoin:round;stroke-miterlimit:4;stroke-dasharray:none;stroke-opacity:1;"
     d="  M 146.73333,196.66667   L 143.93333,196.66667  "
     id="path9" />
  <path
     style="fill:#000000;fill-rule:nonzero;fill-opacity:1;stroke:#000000;stroke-width:0.06666667px;stroke-linecap:round;stroke-linejoin:round;stroke-miterlimit:4;stroke-dasharray:none;stroke-opacity:1;"
     d="  M 15.2,197.33333   L 15.2,196.86667   L 16.866667,196.86667   L 16.866667,197.33333   L 15.2,197.33333  z   "
     id="path11" />
  <path
     style="fill:#000000;fill-rule:nonzero;fill-opacity:1;stroke:#000000;stroke-width:0.06666667px;stroke-linecap:round;stroke-linejoin:round;stroke-miterlimit:4;stroke-dasharray:none;stroke-opacity:1;"
     d="  M 19.266667,198.66667   L 18.733333,198.66667   L 18.733333,195.26667   L 18.466667,195.46667   L 18.2,195.6   L 17.933333,195.8   L 17.666667,195.93333   L 17.666667,195.4   L 18.066667,195.13333   L 18.466667,194.86667   L 18.733333,194.6   L 18.933333,194.26667   L 19.266667,194.26667   L 19.266667,198.66667  z   "
     id="path13" />
  <path
     style="fill:#000000;fill-rule:nonzero;fill-opacity:1;stroke:#000000;stroke-width:0.06666667px;stroke-linecap:round;stroke-linejoin:round;stroke-miterlimit:4;stroke-dasharray:none;stroke-opacity:1;"
     d="  M 23.466667,198.13333   L 23.466667,198.66667   L 20.6,198.66667   L 20.6,198.46667   L 20.666667,198.26667   L 20.8,198   L 21,197.66667   L 21.133333,197.46667   L 21.4,197.26667   L 21.666667,197.06667   L 22,196.73333   L 22.266667,196.53333   L 22.466667,196.26667   L 22.6,196.13333   L 22.8,195.8   L 22.866667,195.53333   L 22.8,195.33333   L 22.733333,195.13333   L 22.6,195   L 22.466667,194.86667   L 22.266667,194.8   L 22.066667,194.8   L 21.8,194.8   L 21.666667,194.86667   L 21.466667,195   L 21.333333,195.13333   L 21.266667,195.33333   L 21.266667,195.53333   L 20.666667,195.53333   L 20.733333,195.13333   L 20.866667,194.86667   L 21.066667,194.6   L 21.333333,194.4   L 21.666667,194.33333   L 22.066667,194.26667   L 22.333333,194.33333   L 22.6,194.4   L 22.866667,194.46667   L 23.066667,194.66667   L 23.266667,194.86667   L 23.4,195.2   L 23.4,195.53333   L 23.4,195.73333   L 23.333333,196   L 23.2,196.26667   L 23,196.53333   L 22.8,196.73333   L 22.533333,197   L 22.2,197.33333   L 21.933333,197.53333   L 21.733333,197.73333   L 21.6,197.8   L 21.333333,198.13333   L 23.466667,198.13333  z   "
     id="path15" />
  <path
     style="fill:none;stroke:#000000;stroke-width:0.46666667px;stroke-linecap:round;stroke-linejoin:round;stroke-miterlimit:4;stroke-dasharray:none;stroke-opacity:1;"
     d="  M 27.466667,174.4   L 30.2,174.4  "
     id="path17" />
  <path
     style="fill:none;stroke:#000000;stroke-width:0.46666667px;stroke-linecap:round;stroke-linejoin:round;stroke-miterlimit:4;stroke-dasharray:none;stroke-opacity:1;"
     d="  M 146.73333,174.4   L 143.93333,174.4  "
     id="path19" />
  <path
     style="fill:#000000;fill-rule:nonzero;fill-opacity:1;stroke:#000000;stroke-width:0.06666667px;stroke-linecap:round;stroke-linejoin:round;stroke-miterlimit:4;stroke-dasharray:none;stroke-opacity:1;"
     d="  M 15.2,175.06667   L 15.2,174.6   L 16.866667,174.6   L 16.866667,175.06667   L 15.2,175.06667  z   "
     id="path21" />
  <path
     style="fill:#000000;fill-rule:nonzero;fill-opacity:1;stroke:#000000;stroke-width:0.06666667px;stroke-linecap:round;stroke-linejoin:round;stroke-miterlimit:4;stroke-dasharray:none;stroke-opacity:1;"
     d="  M 19.266667,176.4   L 18.733333,176.4   L 18.733333,173   L 18.466667,173.2   L 18.2,173.4   L 17.933333,173.53333   L 17.666667,173.66667   L 17.666667,173.13333   L 18.066667,172.86667   L 18.466667,172.6   L 18.733333,172.33333   L 18.933333,172   L 19.266667,172   L 19.266667,176.4  z   "
     id="path23" />
  <path
     style="fill:#000000;fill-rule:nonzero;fill-opacity:1;stroke:#000000;stroke-width:0.06666667px;stroke-linecap:round;stroke-linejoin:round;stroke-miterlimit:4;stroke-dasharray:none;stroke-opacity:1;"
     d="  M 20.666667,174.26667   L 20.733333,173.53333   L 20.866667,173   L 20.933333,172.73333   L 21.133333,172.46667   L 21.333333,172.26667   L 21.533333,172.13333   L 21.8,172.06667   L 22.133333,172   L 22.466667,172.06667   L 22.733333,172.2   L 23,172.33333   L 23.2,172.6   L 23.333333,172.86667   L 23.466667,173.2   L 23.466667,173.53333   L 23.533333,173.86667   L 23.533333,174.26667   L 23.533333,174.93333   L 23.4,175.53333   L 23.266667,175.8   L 23.133333,176.06667   L 22.933333,176.26667   L 22.666667,176.4   L 22.4,176.46667   L 22.133333,176.46667   L 21.8,176.46667   L 21.533333,176.4   L 21.333333,176.26667   L 21.133333,176.06667   L 20.866667,175.6   L 20.733333,175   L 20.666667,174.26667  z    M 21.266667,174.26667   L 21.333333,175.13333   L 21.466667,175.66667   L 21.666667,175.8   L 21.866667,175.93333   L 22.133333,176   L 22.333333,175.93333   L 22.533333,175.8   L 22.733333,175.66667   L 22.933333,175.13333   L 23,174.26667   L 22.933333,173.4   L 22.733333,172.86667   L 22.533333,172.66667   L 22.333333,172.6   L 22.133333,172.53333   L 21.866667,172.6   L 21.666667,172.66667   L 21.533333,172.86667   L 21.333333,173.4   L 21.266667,174.26667  z   "
     id="path25" />
  <path
     style="fill:none;stroke:#000000;stroke-width:0.46666667px;stroke-linecap:round;stroke-linejoin:round;stroke-miterlimit:4;stroke-dasharray:none;stroke-opacity:1;"
     d="  M 27.466667,152.06667   L 30.2,152.06667  "
     id="path27" />
  <path
     style="fill:none;stroke:#000000;stroke-width:0.46666667px;stroke-linecap:round;stroke-linejoin:round;stroke-miterlimit:4;stroke-dasharray:none;stroke-opacity:1;"
     d="  M 146.73333,152.06667   L 143.93333,152.06667  "
     id="path29" />
  <path
     style="fill:#000000;fill-rule:nonzero;fill-opacity:1;stroke:#000000;stroke-width:0.06666667px;stroke-linecap:round;stroke-linejoin:round;stroke-miterlimit:4;stroke-dasharray:none;stroke-opacity:1;"
     d="  M 18.6,152.8   L 18.6,152.26667   L 20.2,152.26667   L 20.2,152.8   L 18.6,152.8  z   "
     id="path31" />
  <path
     style="fill:#000000;fill-rule:nonzero;fill-opacity:1;stroke:#000000;stroke-width:0.06666667px;stroke-linecap:round;stroke-linejoin:round;stroke-miterlimit:4;stroke-dasharray:none;stroke-opacity:1;"
     d="  M 21.466667,151.66667   L 21.266667,151.6   L 21.133333,151.46667   L 21,151.33333   L 20.866667,151.13333   L 20.8,150.8   L 20.866667,150.53333   L 20.933333,150.26667   L 21.133333,150.06667   L 21.4,149.86667   L 21.733333,149.73333   L 22.066667,149.73333   L 22.4,149.73333   L 22.733333,149.86667   L 23,150.06667   L 23.2,150.26667   L 23.333333,150.53333   L 23.333333,150.8   L 23.333333,151.13333   L 23.2,151.33333   L 23.066667,151.46667   L 22.866667,151.6   L 22.666667,151.66667   L 22.933333,151.8   L 23.133333,151.93333   L 23.266667,152.13333   L 23.4,152.33333   L 23.466667,152.53333   L 23.466667,152.8   L 23.466667,153.2   L 23.333333,153.53333   L 23.066667,153.8   L 22.866667,153.93333   L 22.666667,154.06667   L 22.4,154.13333   L 22.066667,154.2   L 21.8,154.13333   L 21.533333,154.06667   L 21.266667,153.93333   L 21.066667,153.8   L 20.866667,153.53333   L 20.733333,153.2   L 20.666667,152.8   L 20.666667,152.53333   L 20.8,152.26667   L 20.866667,152.06667   L 21.066667,151.93333   L 21.266667,151.8   L 21.466667,151.66667  z    M 21.4,150.8   L 21.4,151   L 21.466667,151.13333   L 21.533333,151.26667   L 21.666667,151.4   L 21.866667,151.4   L 22.066667,151.46667   L 22.266667,151.4   L 22.466667,151.4   L 22.6,151.26667   L 22.733333,151.06667   L 22.8,150.86667   L 22.733333,150.66667   L 22.666667,150.53333   L 22.6,150.4   L 22.466667,150.33333   L 22.266667,150.26667   L 22.066667,150.26667   L 21.866667,150.26667   L 21.666667,150.33333   L 21.533333,150.4   L 21.4,150.6   L 21.4,150.8  z    M 21.266667,152.8   L 21.266667,153   L 21.333333,153.26667   L 21.466667,153.4   L 21.666667,153.53333   L 21.866667,153.66667   L 22.066667,153.66667   L 22.333333,153.66667   L 22.533333,153.53333   L 22.666667,153.4   L 22.8,153.26667   L 22.866667,153.06667   L 22.933333,152.8   L 22.866667,152.6   L 22.8,152.4   L 22.666667,152.2   L 22.533333,152.06667   L 22.333333,152   L 22.066667,151.93333   L 21.8,152   L 21.6,152.06667   L 21.466667,152.2   L 21.333333,152.4   L 21.266667,152.6   L 21.266667,152.8  z   "
     id="path33" />
  <path
     style="fill:none;stroke:#000000;stroke-width:0.46666667px;stroke-linecap:round;stroke-linejoin:round;stroke-miterlimit:4;stroke-dasharray:none;stroke-opacity:1;"
     d="  M 27.466667,129.8   L 30.2,129.8  "
     id="path35" />
  <path
     style="fill:none;stroke:#000000;stroke-width:0.46666667px;stroke-linecap:round;stroke-linejoin:round;stroke-miterlimit:4;stroke-dasharray:none;stroke-opacity:1;"
     d="  M 146.73333,129.8   L 143.93333,129.8  "
     id="path37" />
  <path
     style="fill:#000000;fill-rule:nonzero;fill-opacity:1;stroke:#000000;stroke-width:0.06666667px;stroke-linecap:round;stroke-linejoin:round;stroke-miterlimit:4;stroke-dasharray:none;stroke-opacity:1;"
     d="  M 18.6,130.53333   L 18.6,130   L 20.2,130   L 20.2,130.53333   L 18.6,130.53333  z   "
     id="path39" />
  <path
     style="fill:#000000;fill-rule:nonzero;fill-opacity:1;stroke:#000000;stroke-width:0.06666667px;stroke-linecap:round;stroke-linejoin:round;stroke-miterlimit:4;stroke-dasharray:none;stroke-opacity:1;"
     d="  M 23.466667,128.6   L 22.933333,128.66667   L 22.8,128.4   L 22.733333,128.2   L 22.533333,128.06667   L 22.4,128   L 22.2,128   L 21.933333,128   L 21.666667,128.13333   L 21.466667,128.33333   L 21.333333,128.6   L 21.266667,128.86667   L 21.2,129.2   L 21.2,129.6   L 21.4,129.33333   L 21.666667,129.13333   L 21.933333,129   L 22.266667,129   L 22.6,129.06667   L 22.866667,129.2   L 23.133333,129.4   L 23.333333,129.6   L 23.466667,129.86667   L 23.533333,130.13333   L 23.533333,130.4   L 23.466667,130.8   L 23.333333,131.2   L 23.2,131.4   L 23.066667,131.6   L 22.866667,131.73333   L 22.666667,131.86667   L 22.4,131.86667   L 22.133333,131.93333   L 21.533333,131.8   L 21.066667,131.4   L 20.8,131   L 20.666667,130.46667   L 20.6,129.8   L 20.666667,129.06667   L 20.8,128.4   L 21.066667,127.93333   L 21.6,127.6   L 22.2,127.46667   L 22.533333,127.46667   L 22.8,127.6   L 23.066667,127.8   L 23.266667,128   L 23.4,128.26667   L 23.466667,128.6  z    M 21.2,130.4   L 21.2,130.66667   L 21.333333,130.93333   L 21.466667,131.13333   L 21.6,131.26667   L 21.866667,131.4   L 22.133333,131.4   L 22.333333,131.4   L 22.533333,131.26667   L 22.733333,131.13333   L 22.866667,130.93333   L 22.933333,130.73333   L 23,130.46667   L 22.933333,130.13333   L 22.866667,129.93333   L 22.733333,129.73333   L 22.533333,129.6   L 22.333333,129.53333   L 22.066667,129.53333   L 21.866667,129.53333   L 21.666667,129.6   L 21.466667,129.73333   L 21.333333,129.93333   L 21.2,130.13333   L 21.2,130.4  z   "
     id="path41" />
  <path
     style="fill:none;stroke:#000000;stroke-width:0.46666667px;stroke-linecap:round;stroke-linejoin:round;stroke-miterlimit:4;stroke-dasharray:none;stroke-opacity:1;"
     d="  M 27.466667,107.53333   L 30.2,107.53333  "
     id="path43" />
  <path
     style="fill:none;stroke:#000000;stroke-width:0.46666667px;stroke-linecap:round;stroke-linejoin:round;stroke-miterlimit:4;stroke-dasharray:none;stroke-opacity:1;"
     d="  M 146.73333,107.53333   L 143.93333,107.53333  "
     id="path45" />
  <path
     style="fill:#000000;fill-rule:nonzero;fill-opacity:1;stroke:#000000;stroke-width:0.06666667px;stroke-linecap:round;stroke-linejoin:round;stroke-miterlimit:4;stroke-dasharray:none;stroke-opacity:1;"
     d="  M 18.6,108.26667   L 18.6,107.73333   L 20.2,107.73333   L 20.2,108.26667   L 18.6,108.26667  z   "
     id="path47" />
  <path
     style="fill:#000000;fill-rule:nonzero;fill-opacity:1;stroke:#000000;stroke-width:0.06666667px;stroke-linecap:round;stroke-linejoin:round;stroke-miterlimit:4;stroke-dasharray:none;stroke-opacity:1;"
     d="  M 22.466667,109.6   L 22.466667,108.6   L 20.466667,108.6   L 20.466667,108   L 22.6,105.26667   L 23,105.26667   L 23,108   L 23.533333,108   L 23.533333,108.6   L 23,108.6   L 23,109.6   L 22.466667,109.6  z    M 22.466667,108   L 22.466667,106.33333   L 21.2,108   L 22.466667,108  z   "
     id="path49" />
  <path
     style="fill:none;stroke:#000000;stroke-width:0.46666667px;stroke-linecap:round;stroke-linejoin:round;stroke-miterlimit:4;stroke-dasharray:none;stroke-opacity:1;"
     d="  M 27.466667,85.266667   L 30.2,85.266667  "
     id="path51" />
  <path
     style="fill:none;stroke:#000000;stroke-width:0.46666667px;stroke-linecap:round;stroke-linejoin:round;stroke-miterlimit:4;stroke-dasharray:none;stroke-opacity:1;"
     d="  M 146.73333,85.266667   L 143.93333,85.266667  "
     id="path53" />
  <path
     style="fill:#000000;fill-rule:nonzero;fill-opacity:1;stroke:#000000;stroke-width:0.06666667px;stroke-linecap:round;stroke-linejoin:round;stroke-miterlimit:4;stroke-dasharray:none;stroke-opacity:1;"
     d="  M 18.6,86   L 18.6,85.466667   L 20.2,85.466667   L 20.2,86   L 18.6,86  z   "
     id="path55" />
  <path
     style="fill:#000000;fill-rule:nonzero;fill-opacity:1;stroke:#000000;stroke-width:0.06666667px;stroke-linecap:round;stroke-linejoin:round;stroke-miterlimit:4;stroke-dasharray:none;stroke-opacity:1;"
     d="  M 23.466667,86.733333   L 23.466667,87.333333   L 20.6,87.333333   L 20.6,87.133333   L 20.666667,86.933333   L 20.8,86.666667   L 21,86.333333   L 21.133333,86.133333   L 21.4,85.933333   L 21.666667,85.666667   L 22,85.4   L 22.266667,85.133333   L 22.466667,84.933333   L 22.6,84.8   L 22.8,84.466667   L 22.866667,84.133333   L 22.8,83.933333   L 22.733333,83.8   L 22.6,83.666667   L 22.466667,83.533333   L 22.266667,83.466667   L 22.066667,83.466667   L 21.8,83.466667   L 21.666667,83.533333   L 21.466667,83.666667   L 21.333333,83.8   L 21.266667,84   L 21.266667,84.2   L 20.666667,84.133333   L 20.733333,83.8   L 20.866667,83.466667   L 21.066667,83.266667   L 21.333333,83.066667   L 21.666667,83   L 22.066667,82.933333   L 22.333333,82.933333   L 22.6,83   L 22.866667,83.133333   L 23.066667,83.266667   L 23.266667,83.533333   L 23.4,83.8   L 23.4,84.133333   L 23.4,84.4   L 23.333333,84.666667   L 23.2,84.933333   L 23,85.2   L 22.8,85.4   L 22.533333,85.666667   L 22.2,85.933333   L 21.933333,86.2   L 21.733333,86.333333   L 21.6,86.466667   L 21.333333,86.733333   L 23.466667,86.733333  z   "
     id="path57" />
  <path
     style="fill:none;stroke:#000000;stroke-width:0.46666667px;stroke-linecap:round;stroke-linejoin:round;stroke-miterlimit:4;stroke-dasharray:none;stroke-opacity:1;"
     d="  M 27.466667,63   L 30.2,63  "
     id="path59" />
  <path
     style="fill:none;stroke:#000000;stroke-width:0.46666667px;stroke-linecap:round;stroke-linejoin:round;stroke-miterlimit:4;stroke-dasharray:none;stroke-opacity:1;"
     d="  M 146.73333,63   L 143.93333,63  "
     id="path61" />
  <path
     style="fill:#000000;fill-rule:nonzero;fill-opacity:1;stroke:#000000;stroke-width:0.06666667px;stroke-linecap:round;stroke-linejoin:round;stroke-miterlimit:4;stroke-dasharray:none;stroke-opacity:1;"
     d="  M 20.666667,62.933333   L 20.733333,62.2   L 20.866667,61.666667   L 20.933333,61.333333   L 21.133333,61.133333   L 21.333333,60.933333   L 21.533333,60.8   L 21.8,60.733333   L 22.133333,60.666667   L 22.466667,60.733333   L 22.733333,60.8   L 23,61   L 23.2,61.2   L 23.333333,61.533333   L 23.466667,61.866667   L 23.466667,62.133333   L 23.533333,62.533333   L 23.533333,62.933333   L 23.533333,63.6   L 23.4,64.133333   L 23.266667,64.466667   L 23.133333,64.733333   L 22.933333,64.866667   L 22.666667,65   L 22.4,65.133333   L 22.133333,65.133333   L 21.8,65.133333   L 21.533333,65   L 21.333333,64.866667   L 21.133333,64.733333   L 20.866667,64.266667   L 20.733333,63.666667   L 20.666667,62.933333  z    M 21.266667,62.933333   L 21.333333,63.8   L 21.466667,64.266667   L 21.666667,64.466667   L 21.866667,64.6   L 22.133333,64.6   L 22.333333,64.6   L 22.533333,64.466667   L 22.733333,64.266667   L 22.933333,63.8   L 23,62.933333   L 22.933333,62.066667   L 22.733333,61.533333   L 22.533333,61.333333   L 22.333333,61.2   L 22.133333,61.2   L 21.866667,61.2   L 21.666667,61.333333   L 21.533333,61.466667   L 21.333333,62.066667   L 21.266667,62.933333  z   "
     id="path63" />
  <path
     style="fill:none;stroke:#000000;stroke-width:0.46666667px;stroke-linecap:round;stroke-linejoin:round;stroke-miterlimit:4;stroke-dasharray:none;stroke-opacity:1;"
     d="  M 27.466667,40.733333   L 30.2,40.733333  "
     id="path65" />
  <path
     style="fill:none;stroke:#000000;stroke-width:0.46666667px;stroke-linecap:round;stroke-linejoin:round;stroke-miterlimit:4;stroke-dasharray:none;stroke-opacity:1;"
     d="  M 146.73333,40.733333   L 143.93333,40.733333  "
     id="path67" />
  <path
     style="fill:#000000;fill-rule:nonzero;fill-opacity:1;stroke:#000000;stroke-width:0.06666667px;stroke-linecap:round;stroke-linejoin:round;stroke-miterlimit:4;stroke-dasharray:none;stroke-opacity:1;"
     d="  M 23.466667,42.2   L 23.466667,42.733333   L 20.6,42.733333   L 20.6,42.533333   L 20.666667,42.4   L 20.8,42.066667   L 21,41.8   L 21.133333,41.533333   L 21.4,41.333333   L 21.666667,41.133333   L 22,40.866667   L 22.266667,40.6   L 22.466667,40.4   L 22.6,40.2   L 22.8,39.866667   L 22.866667,39.6   L 22.8,39.4   L 22.733333,39.2   L 22.6,39.066667   L 22.466667,39   L 22.266667,38.933333   L 22.066667,38.866667   L 21.8,38.933333   L 21.666667,39   L 21.466667,39.066667   L 21.333333,39.266667   L 21.266667,39.4   L 21.266667,39.666667   L 20.666667,39.6   L 20.733333,39.2   L 20.866667,38.933333   L 21.066667,38.666667   L 21.333333,38.533333   L 21.666667,38.4   L 22.066667,38.4   L 22.333333,38.4   L 22.6,38.466667   L 22.866667,38.6   L 23.066667,38.733333   L 23.266667,39   L 23.4,39.266667   L 23.4,39.6   L 23.4,39.866667   L 23.333333,40.066667   L 23.2,40.333333   L 23,40.6   L 22.8,40.866667   L 22.533333,41.066667   L 22.2,41.4   L 21.933333,41.6   L 21.733333,41.8   L 21.6,41.933333   L 21.333333,42.2   L 23.466667,42.2  z   "
     id="path69" />
  <path
     style="fill:none;stroke:#000000;stroke-width:0.46666667px;stroke-linecap:round;stroke-linejoin:round;stroke-miterlimit:4;stroke-dasharray:none;stroke-opacity:1;"
     d="  M 27.466667,18.466667   L 30.2,18.466667  "
     id="path71" />
  <path
     style="fill:none;stroke:#000000;stroke-width:0.46666667px;stroke-linecap:round;stroke-linejoin:round;stroke-miterlimit:4;stroke-dasharray:none;stroke-opacity:1;"
     d="  M 146.73333,18.466667   L 143.93333,18.466667  "
     id="path73" />
  <path
     style="fill:#000000;fill-rule:nonzero;fill-opacity:1;stroke:#000000;stroke-width:0.06666667px;stroke-linecap:round;stroke-linejoin:round;stroke-miterlimit:4;stroke-dasharray:none;stroke-opacity:1;"
     d="  M 22.466667,20.533333   L 22.466667,19.466667   L 20.466667,19.466667   L 20.466667,18.933333   L 22.6,16.2   L 23,16.2   L 23,18.933333   L 23.533333,18.933333   L 23.533333,19.466667   L 23,19.466667   L 23,20.533333   L 22.466667,20.533333  z    M 22.466667,18.933333   L 22.466667,17.266667   L 21.2,18.933333   L 22.466667,18.933333  z   "
     id="path75" />
  <path
     style="fill:none;stroke:#000000;stroke-width:0.46666667px;stroke-linecap:round;stroke-linejoin:round;stroke-miterlimit:4;stroke-dasharray:none;stroke-opacity:1;"
     d="  M 146.73333,207.8   L 146.73333,205  "
     id="path77" />
  <path
     style="fill:none;stroke:#000000;stroke-width:0.46666667px;stroke-linecap:round;stroke-linejoin:round;stroke-miterlimit:4;stroke-dasharray:none;stroke-opacity:1;"
     d="  M 146.73333,7.3333333   L 146.73333,10.066667  "
     id="path79" />
  <path
     style="fill:#000000;fill-rule:nonzero;fill-opacity:1;stroke:#000000;stroke-width:0.06666667px;stroke-linecap:round;stroke-linejoin:round;stroke-miterlimit:4;stroke-dasharray:none;stroke-opacity:1;"
     d="  M 145.53333,215.93333   L 147.2,213.53333   L 145.8,211.53333   L 146.46667,211.53333   L 147.26667,212.66667   L 147.4,212.86667   L 147.46667,213   L 147.53333,213.06667   L 147.66667,212.86667   L 147.8,212.6   L 148.6,211.53333   L 149.26667,211.53333   L 147.86667,213.53333   L 149.53333,215.93333   L 148.86667,215.93333   L 147.8,214.33333   L 147.66667,214.2   L 147.53333,214.06667   L 147.4,214.26667   L 147.33333,214.4   L 146.26667,215.93333   L 145.53333,215.93333  z   "
     id="path81" />
  <path
     style="fill:none;stroke:#000000;stroke-width:0.46666667px;stroke-linecap:round;stroke-linejoin:round;stroke-miterlimit:4;stroke-dasharray:none;stroke-opacity:1;"
     d="  M 131.8,207.8   L 131.8,205  "
     id="path83" />
  <path
     style="fill:none;stroke:#000000;stroke-width:0.46666667px;stroke-linecap:round;stroke-linejoin:round;stroke-miterlimit:4;stroke-dasharray:none;stroke-opacity:1;"
     d="  M 131.8,7.3333333   L 131.8,10.066667  "
     id="path85" />
  <path
     style="fill:#000000;fill-rule:nonzero;fill-opacity:1;stroke:#000000;stroke-width:0.06666667px;stroke-linecap:round;stroke-linejoin:round;stroke-miterlimit:4;stroke-dasharray:none;stroke-opacity:1;"
     d="  M 133.8,211.53333   L 134.4,211.53333   L 134.4,214.06667   L 134.33333,214.46667   L 134.33333,214.8   L 134.2,215.13333   L 134.13333,215.33333   L 133.93333,215.6   L 133.73333,215.73333   L 133.4,215.86667   L 133.06667,215.93333   L 132.73333,216   L 132.33333,216   L 132,215.86667   L 131.73333,215.8   L 131.46667,215.6   L 131.33333,215.4   L 131.2,215.13333   L 131.06667,214.66667   L 131,214.06667   L 131,211.53333   L 131.6,211.53333   L 131.6,214   L 131.6,214.4   L 131.6,214.66667   L 131.66667,214.86667   L 131.73333,215   L 131.86667,215.13333   L 132.06667,215.26667   L 132.33333,215.4   L 132.66667,215.4   L 132.93333,215.4   L 133.2,215.33333   L 133.4,215.26667   L 133.53333,215.13333   L 133.73333,214.73333   L 133.8,214   L 133.8,211.53333  z   "
     id="path87" />
  <path
     style="fill:none;stroke:#000000;stroke-width:0.46666667px;stroke-linecap:round;stroke-linejoin:round;stroke-miterlimit:4;stroke-dasharray:none;stroke-opacity:1;"
     d="  M 106.06667,207.8   L 106.06667,205  "
     id="path89" />
  <path
     style="fill:none;stroke:#000000;stroke-width:0.46666667px;stroke-linecap:round;stroke-linejoin:round;stroke-miterlimit:4;stroke-dasharray:none;stroke-opacity:1;"
     d="  M 106.06667,7.3333333   L 106.06667,10.066667  "
     id="path91" />
  <path
     style="fill:#000000;fill-rule:nonzero;fill-opacity:1;stroke:#000000;stroke-width:0.06666667px;stroke-linecap:round;stroke-linejoin:round;stroke-miterlimit:4;stroke-dasharray:none;stroke-opacity:1;"
     d="  M 105.73333,215.93333   L 105.73333,211.53333   L 106.26667,211.53333   L 106.26667,215.4   L 108.4,215.4   L 108.4,215.93333   L 105.73333,215.93333  z   "
     id="path93" />
  <path
     style="fill:none;stroke:#000000;stroke-width:0.46666667px;stroke-linecap:round;stroke-linejoin:round;stroke-miterlimit:4;stroke-dasharray:none;stroke-opacity:1;"
     d="  M 69.6,207.8   L 69.6,205  "
     id="path95" />
  <path
     style="fill:none;stroke:#000000;stroke-width:0.46666667px;stroke-linecap:round;stroke-linejoin:round;stroke-miterlimit:4;stroke-dasharray:none;stroke-opacity:1;"
     d="  M 69.6,7.3333333   L 69.6,10.066667  "
     id="path97" />
  <path
     style="fill:#000000;fill-rule:nonzero;fill-opacity:1;stroke:#000000;stroke-width:0.06666667px;stroke-linecap:round;stroke-linejoin:round;stroke-miterlimit:4;stroke-dasharray:none;stroke-opacity:1;"
     d="  M 72.066667,211.86667   L 72.066667,212.66667   L 72,212.66667   L 71.933333,212.46667   L 71.866667,212.33333   L 71.8,212.2   L 71.666667,212.13333   L 71.466667,212.06667   L 71.2,212.06667   L 69.866667,212.06667   L 69.866667,215.33333   L 69.866667,215.53333   L 70,215.66667   L 70.133333,215.8   L 70.333333,215.8   L 70.533333,215.8   L 70.533333,215.93333   L 68.733333,215.93333   L 68.733333,215.8   L 68.8,215.8   L 69.066667,215.8   L 69.2,215.66667   L 69.266667,215.53333   L 69.266667,215.33333   L 69.266667,212.4   L 69.266667,212.2   L 69.2,212.06667   L 69.066667,212   L 68.8,212   L 68.733333,212   L 68.733333,211.86667   L 72.066667,211.86667  z   "
     id="path99" />
  <path
     style="fill:none;stroke:#000000;stroke-width:0.46666667px;stroke-linecap:round;stroke-linejoin:round;stroke-miterlimit:4;stroke-dasharray:none;stroke-opacity:1;"
     d="  M 27.466667,207.8   L 27.466667,205  "
     id="path101" />
  <path
     style="fill:none;stroke:#000000;stroke-width:0.46666667px;stroke-linecap:round;stroke-linejoin:round;stroke-miterlimit:4;stroke-dasharray:none;stroke-opacity:1;"
     d="  M 27.466667,7.3333333   L 27.466667,10.066667  "
     id="path103" />
  <path
     style="fill:#000000;fill-rule:nonzero;fill-opacity:1;stroke:#000000;stroke-width:0.06666667px;stroke-linecap:round;stroke-linejoin:round;stroke-miterlimit:4;stroke-dasharray:none;stroke-opacity:1;"
     d="  M 26.266667,215.93333   L 27.933333,213.53333   L 26.533333,211.53333   L 27.2,211.53333   L 28,212.66667   L 28.133333,212.86667   L 28.2,213   L 28.266667,213.06667   L 28.4,212.86667   L 28.6,212.6   L 29.333333,211.53333   L 30.066667,211.53333   L 28.666667,213.53333   L 30.266667,215.93333   L 29.6,215.93333   L 28.533333,214.33333   L 28.4,214.2   L 28.266667,214.06667   L 28.133333,214.26667   L 28.066667,214.4   L 27,215.93333   L 26.266667,215.93333  z   "
     id="path105" />
  <path
     style="fill:none;stroke:#000000;stroke-width:0.46666667px;stroke-linecap:round;stroke-linejoin:round;stroke-miterlimit:4;stroke-dasharray:none;stroke-opacity:1;"
     d="  M 27.466667,207.8   L 146.73333,207.8   L 146.73333,7.3333333   L 27.466667,7.3333333   L 27.466667,207.8  "
     id="path107" />
  <path
     style="fill:#000000;fill-rule:nonzero;fill-opacity:1;stroke:#000000;stroke-width:0.06666667px;stroke-linecap:round;stroke-linejoin:round;stroke-miterlimit:4;stroke-dasharray:none;stroke-opacity:1;"
     d="  M 8.1333333,123.26667   L 3.7333333,123.26667   L 3.7333333,120.13333   L 4.2,120.13333   L 4.2,122.73333   L 5.5333333,122.73333   L 5.5333333,120.33333   L 6.0666667,120.33333   L 6.0666667,122.73333   L 7.6,122.73333   L 7.6,120   L 8.1333333,120   L 8.1333333,123.26667  z   "
     id="path109" />
  <path
     style="fill:#000000;fill-rule:nonzero;fill-opacity:1;stroke:#000000;stroke-width:0.06666667px;stroke-linecap:round;stroke-linejoin:round;stroke-miterlimit:4;stroke-dasharray:none;stroke-opacity:1;"
     d="  M 8.1333333,119.26667   L 4.9333333,119.26667   L 4.9333333,118.66667   L 5.4,118.66667   L 5.1333333,118.53333   L 5,118.33333   L 4.8666667,118.06667   L 4.8666667,117.8   L 4.8666667,117.53333   L 5,117.26667   L 5.0666667,117.13333   L 5.2666667,116.93333   L 5.4,116.86667   L 5.6666667,116.8   L 5.8666667,116.8   L 6.1333333,116.8   L 8.1333333,116.8   L 8.1333333,117.33333   L 6.2,117.33333   L 5.9333333,117.4   L 5.7333333,117.4   L 5.6,117.46667   L 5.4666667,117.6   L 5.4,117.8   L 5.4,117.93333   L 5.4,118.13333   L 5.4666667,118.33333   L 5.6,118.46667   L 5.7333333,118.6   L 5.9333333,118.66667   L 6.1333333,118.66667   L 6.4,118.66667   L 8.1333333,118.66667   L 8.1333333,119.26667  z   "
     id="path111" />
  <path
     style="fill:#000000;fill-rule:nonzero;fill-opacity:1;stroke:#000000;stroke-width:0.06666667px;stroke-linecap:round;stroke-linejoin:round;stroke-miterlimit:4;stroke-dasharray:none;stroke-opacity:1;"
     d="  M 7.1333333,113.8   L 7.2,113.26667   L 7.5333333,113.33333   L 7.7333333,113.53333   L 7.9333333,113.73333   L 8.0666667,114   L 8.1333333,114.26667   L 8.2,114.66667   L 8.0666667,115.26667   L 7.7333333,115.73333   L 7.2666667,116.06667   L 6.5333333,116.13333   L 5.8666667,116.06667   L 5.3333333,115.73333   L 5,115.26667   L 4.8666667,114.66667   L 4.8666667,114.33333   L 5,114.06667   L 5.1333333,113.86667   L 5.2666667,113.6   L 5.8,113.33333   L 6.5333333,113.2   L 6.6666667,113.2   L 6.6666667,115.6   L 6.9333333,115.53333   L 7.2,115.4   L 7.4,115.26667   L 7.5333333,115.06667   L 7.6666667,114.86667   L 7.6666667,114.6   L 7.6666667,114.33333   L 7.5333333,114.13333   L 7.4,113.93333   L 7.1333333,113.8  z    M 6.1333333,115.6   L 6.1333333,113.8   L 5.9333333,113.8   L 5.7333333,113.93333   L 5.6666667,114   L 5.4666667,114.2   L 5.4,114.4   L 5.4,114.66667   L 5.4,114.93333   L 5.4666667,115.13333   L 5.6,115.26667   L 5.7333333,115.46667   L 5.9333333,115.53333   L 6.1333333,115.6  z   "
     id="path113" />
  <path
     style="fill:#000000;fill-rule:nonzero;fill-opacity:1;stroke:#000000;stroke-width:0.06666667px;stroke-linecap:round;stroke-linejoin:round;stroke-miterlimit:4;stroke-dasharray:none;stroke-opacity:1;"
     d="  M 8.1333333,112.53333   L 4.9333333,112.53333   L 4.9333333,112   L 5.4,112   L 5.1333333,111.86667   L 4.9333333,111.66667   L 4.8666667,111.53333   L 4.8666667,111.4   L 4.9333333,111.13333   L 5,110.86667   L 5.5333333,111.06667   L 5.4,111.2   L 5.4,111.4   L 5.4,111.53333   L 5.4666667,111.66667   L 5.6,111.8   L 5.8,111.86667   L 6.0666667,111.93333   L 6.4,111.93333   L 8.1333333,111.93333   L 8.1333333,112.53333  z   "
     id="path115" />
  <path
     style="fill:#000000;fill-rule:nonzero;fill-opacity:1;stroke:#000000;stroke-width:0.06666667px;stroke-linecap:round;stroke-linejoin:round;stroke-miterlimit:4;stroke-dasharray:none;stroke-opacity:1;"
     d="  M 8.3333333,110.66667   L 8.4,110.13333   L 8.6,110.06667   L 8.7333333,109.93333   L 8.8,109.8   L 8.8666667,109.6   L 8.8666667,109.4   L 8.8666667,109.2   L 8.8,109   L 8.7333333,108.86667   L 8.6,108.73333   L 8.3333333,108.6   L 8.2,108.6   L 8,108.6   L 7.7333333,108.6   L 7.9333333,108.8   L 8.0666667,109.13333   L 8.1333333,109.4   L 8.0666667,109.73333   L 8,109.93333   L 7.8666667,110.2   L 7.6666667,110.4   L 7.1333333,110.66667   L 6.5333333,110.73333   L 6.0666667,110.66667   L 5.6666667,110.6   L 5.4,110.46667   L 5.2,110.33333   L 5.0666667,110.13333   L 4.9333333,109.93333   L 4.8666667,109.66667   L 4.8666667,109.46667   L 4.8666667,109.2   L 5,108.93333   L 5.1333333,108.73333   L 5.3333333,108.6   L 4.9333333,108.6   L 4.9333333,108   L 7.6666667,108   L 8.1333333,108   L 8.4666667,108.06667   L 8.7333333,108.13333   L 8.9333333,108.26667   L 9.0666667,108.4   L 9.2,108.6   L 9.3333333,108.86667   L 9.3333333,109.13333   L 9.4,109.4   L 9.3333333,109.8   L 9.2666667,110.06667   L 9.1333333,110.33333   L 9,110.46667   L 8.8,110.6   L 8.6,110.66667   L 8.3333333,110.66667  z    M 6.4666667,110.13333   L 6.8,110.13333   L 7.1333333,110.06667   L 7.3333333,109.93333   L 7.4666667,109.8   L 7.6,109.6   L 7.6,109.4   L 7.6,109.13333   L 7.4666667,109   L 7.3333333,108.8   L 7.1333333,108.66667   L 6.8666667,108.6   L 6.4666667,108.6   L 6.1333333,108.6   L 5.8666667,108.66667   L 5.6666667,108.8   L 5.4666667,109   L 5.4,109.2   L 5.4,109.4   L 5.4,109.6   L 5.4666667,109.8   L 5.6666667,109.93333   L 5.8666667,110.06667   L 6.1333333,110.13333   L 6.4666667,110.13333  z   "
     id="path117" />
  <path
     style="fill:#000000;fill-rule:nonzero;fill-opacity:1;stroke:#000000;stroke-width:0.06666667px;stroke-linecap:round;stroke-linejoin:round;stroke-miterlimit:4;stroke-dasharray:none;stroke-opacity:1;"
     d="  M 9.3333333,107.2   L 8.8,107.26667   L 8.8666667,107.06667   L 8.8666667,106.93333   L 8.8666667,106.8   L 8.8,106.66667   L 8.7333333,106.53333   L 8.6666667,106.46667   L 8.6,106.46667   L 8.4666667,106.4   L 8.2666667,106.33333   L 8.1333333,106.26667   L 4.9333333,107.46667   L 4.9333333,106.86667   L 6.6666667,106.26667   L 7.3333333,106   L 7.0666667,105.93333   L 6.8,105.8   L 4.9333333,105.2   L 4.9333333,104.6   L 8.2,105.73333   L 8.5333333,105.86667   L 8.7333333,105.93333   L 8.8666667,106   L 9.1333333,106.2   L 9.2666667,106.33333   L 9.3333333,106.6   L 9.4,106.8   L 9.4,107   L 9.3333333,107.2  z   "
     id="path119" />
  <path
     style="fill:#000000;fill-rule:nonzero;fill-opacity:1;stroke:#000000;stroke-width:0.06666667px;stroke-linecap:round;stroke-linejoin:round;stroke-miterlimit:4;stroke-dasharray:none;stroke-opacity:1;"
     d="  M 9.3333333,101.4   L 8.7333333,101.8   L 8.0666667,102.13333   L 7.2666667,102.4   L 6.5333333,102.46667   L 5.8666667,102.4   L 5.2,102.2   L 4.4666667,101.86667   L 3.7333333,101.4   L 3.7333333,101   L 4.0666667,101.2   L 4.4,101.4   L 4.6,101.46667   L 5,101.66667   L 5.4,101.73333   L 6.5333333,101.86667   L 7.9333333,101.66667   L 9.3333333,101   L 9.3333333,101.4  z   "
     id="path121" />
  <path
     style="fill:#000000;fill-rule:nonzero;fill-opacity:1;stroke:#000000;stroke-width:0.06666667px;stroke-linecap:round;stroke-linejoin:round;stroke-miterlimit:4;stroke-dasharray:none;stroke-opacity:1;"
     d="  M 7.1333333,98.266667   L 7.2,97.733333   L 7.5333333,97.8   L 7.7333333,98   L 7.9333333,98.2   L 8.0666667,98.466667   L 8.1333333,98.733333   L 8.2,99.133333   L 8.0666667,99.733333   L 7.7333333,100.2   L 7.2666667,100.53333   L 6.5333333,100.6   L 5.8666667,100.53333   L 5.3333333,100.2   L 5,99.733333   L 4.8666667,99.133333   L 4.8666667,98.8   L 5,98.533333   L 5.1333333,98.333333   L 5.2666667,98.066667   L 5.8,97.8   L 6.5333333,97.666667   L 6.6666667,97.666667   L 6.6666667,100.06667   L 6.9333333,100   L 7.2,99.933333   L 7.4,99.733333   L 7.5333333,99.533333   L 7.6666667,99.333333   L 7.6666667,99.066667   L 7.6666667,98.8   L 7.5333333,98.6   L 7.4,98.4   L 7.1333333,98.266667  z    M 6.1333333,100.06667   L 6.1333333,98.266667   L 5.9333333,98.333333   L 5.7333333,98.4   L 5.6666667,98.466667   L 5.4666667,98.666667   L 5.4,98.866667   L 5.4,99.133333   L 5.4,99.4   L 5.4666667,99.6   L 5.6,99.733333   L 5.7333333,99.933333   L 5.9333333,100   L 6.1333333,100.06667  z   "
     id="path123" />
  <path
     style="fill:#000000;fill-rule:nonzero;fill-opacity:1;stroke:#000000;stroke-width:0.06666667px;stroke-linecap:round;stroke-linejoin:round;stroke-miterlimit:4;stroke-dasharray:none;stroke-opacity:1;"
     d="  M 8.1333333,95.6   L 3.7333333,97.4   L 3.7333333,96.8   L 6.8666667,95.6   L 7.2,95.466667   L 7.6,95.333333   L 6.8666667,95.133333   L 3.7333333,93.933333   L 3.7333333,93.333333   L 8.1333333,95   L 8.1333333,95.6  z   "
     id="path125" />
  <path
     style="fill:#000000;fill-rule:nonzero;fill-opacity:1;stroke:#000000;stroke-width:0.06666667px;stroke-linecap:round;stroke-linejoin:round;stroke-miterlimit:4;stroke-dasharray:none;stroke-opacity:1;"
     d="  M 9.3333333,92.8   L 9.3333333,93.2   L 7.9333333,92.533333   L 6.5333333,92.266667   L 5.4,92.4   L 5,92.533333   L 4.6,92.666667   L 4.4,92.8   L 4.0666667,92.933333   L 3.7333333,93.2   L 3.7333333,92.8   L 4.4666667,92.266667   L 5.2,91.933333   L 5.8666667,91.733333   L 6.5333333,91.733333   L 7.2666667,91.8   L 8.0666667,92   L 8.7333333,92.4   L 9.3333333,92.8  z   "
     id="path127" />
  <path
     style="fill:none;stroke:#000000;stroke-width:0.46666667px;stroke-linecap:round;stroke-linejoin:round;stroke-miterlimit:4;stroke-dasharray:none;stroke-opacity:1;"
     d="  M 69.6,207.8   L 69.6,7.3333333  "
     id="path129" />
  <path
     style="fill:none;stroke:#000000;stroke-width:0.46666667px;stroke-linecap:round;stroke-linejoin:round;stroke-miterlimit:4;stroke-dasharray:none;stroke-opacity:1;"
     d="  M 106.06667,207.8   L 106.06667,7.3333333  "
     id="path131" />
  <path
     style="fill:none;stroke:#000000;stroke-width:0.46666667px;stroke-linecap:round;stroke-linejoin:round;stroke-miterlimit:4;stroke-dasharray:none;stroke-opacity:1;"
     d="  M 131.8,207.8   L 131.8,7.3333333  "
     id="path133" />
  <path
     style="fill:none;stroke:#ff0000;stroke-width:0.13333334px;stroke-linecap:round;stroke-linejoin:round;stroke-miterlimit:4;stroke-dasharray:none;stroke-opacity:1;"
     d="  M 27.466667,150.06667   L 28.266667,151.8   L 29.133333,153.46667   L 30,155.13333   L 30.8,156.8   L 31.666667,158.4   L 32.533333,160   L 33.333333,161.53333   L 34.2,163.06667   L 35.066667,164.53333   L 35.866667,166.06667   L 36.733333,167.46667   L 37.6,168.86667   L 38.4,170.26667   L 39.266667,171.6   L 40.066667,172.93333   L 40.933333,174.2   L 41.8,175.46667   L 42.6,176.66667   L 43.466667,177.86667   L 44.333333,179   L 45.133333,180.13333   L 46,181.26667   L 46.866667,182.26667   L 47.666667,183.26667   L 48.533333,184.26667   L 49.4,185.2   L 50.2,186.06667   L 51.066667,186.93333   L 51.933333,187.8   L 52.733333,188.6   L 53.533333,189.33333   L 54.4,190   L 55.266667,190.73333   L 56.066667,191.33333   L 56.933333,191.93333   L 57.8,192.53333   L 58.6,193   L 59.466667,193.53333   L 60.266667,193.93333   L 61.133333,194.4   L 62,194.8   L 62.8,195.06667   L 63.666667,195.4   L 64.533333,195.66667   L 65.333333,195.86667   L 66.2,196.06667   L 67.066667,196.2   L 67.866667,196.26667   L 68.733333,196.26667   L 70.4,196.26667   L 71.266667,196.26667   L 72.133333,196.2   L 72.933333,196.06667   L 73.8,195.8   L 74.666667,195.6   L 75.533333,195.4   L 76.333333,195.06667   L 77.2,194.73333   L 78.066667,194.4   L 78.866667,193.93333   L 79.733333,193.53333   L 80.6,193   L 81.466667,192.46667   L 82.266667,191.86667   L 83.133333,191.26667   L 84,190.66667   L 84.8,190   L 85.666667,189.26667   L 86.533333,188.53333   L 87.4,187.8   L 88.2,186.93333   L 89.066667,186.13333   L 89.933333,185.26667   L 90.733333,184.4   L 91.6,183.46667   L 92.466667,182.53333   L 93.333333,181.53333   L 94.133333,180.6   L 95.066667,179.6   L 95.866667,178.6   L 96.666667,177.6   L 97.533333,176.6   L 98.4,175.66667   L 99.266667,174.66667   L 100.06667,173.8   L 101,172.93333   L 101.8,172.2   L 102.6,171.53333   L 103.53333,170.93333   L 104.33333,170.53333   L 105.2,170.26667   L 106.06667,170.2   L 106.93333,170.13333   L 107.8,170.13333   L 108.6,170   L 109.46667,169.86667   L 110.33333,169.66667   L 111.2,169.46667   L 112.06667,169.2   L 112.93333,168.86667   L 113.73333,168.53333   L 114.6,168.2   L 115.53333,167.73333  "
     id="path135" />
  <path
     style="fill:none;stroke:#ff0000;stroke-width:0.13333334px;stroke-linecap:round;stroke-linejoin:round;stroke-miterlimit:4;stroke-dasharray:none;stroke-opacity:1;"
     d="  M 115.53333,167.73333   L 116.33333,167.33333   L 117.2,166.8   L 118.06667,166.26667   L 118.93333,165.66667   L 119.8,165.06667   L 121.53333,163.8   L 122.33333,163.06667   L 123.2,162.26667   L 124.13333,161.53333   L 124.93333,160.73333   L 125.8,159.86667   L 126.66667,159.06667   L 127.53333,158.2   L 128.4,157.33333   L 130.13333,155.8   L 130.93333,155.13333   L 131.8,154.6   L 132.73333,153.93333   L 133.6,153.33333   L 134.46667,152.73333   L 135.33333,152.26667   L 136.2,151.86667   L 137.06667,151.53333   L 137.93333,151.2   L 138.8,150.93333   L 139.66667,150.73333   L 140.6,150.53333   L 141.46667,150.4   L 142.33333,150.26667   L 143.2,150.13333   L 144.06667,150.13333   L 145,150.13333   L 145.86667,150.13333   L 146.73333,150.06667  "
     id="path137" />
  <path
     style="fill:none;stroke:#ff0000;stroke-width:0.13333334px;stroke-linecap:round;stroke-linejoin:round;stroke-miterlimit:4;stroke-dasharray:none;stroke-opacity:1;"
     d="  M 27.466667,150.06667   L 28.266667,148.4   L 29.133333,146.6   L 30,144.8   L 31.666667,141.13333   L 32.533333,139.33333   L 33.333333,137.46667   L 34.2,135.6   L 35.066667,133.73333   L 35.866667,131.8   L 36.733333,129.93333   L 37.6,128   L 38.4,126   L 39.266667,124.06667   L 40.066667,122.13333   L 40.933333,120.2   L 41.8,118.2   L 42.6,116.2   L 43.466667,114.26667   L 44.333333,112.2   L 45.133333,110.26667   L 46,108.26667   L 46.866667,106.26667   L 47.666667,104.26667   L 48.533333,102.26667   L 49.4,100.26667   L 50.2,98.333333   L 51.066667,96.266667   L 51.933333,94.333333   L 52.733333,92.333333   L 53.533333,90.4   L 54.4,88.4   L 55.266667,86.466667   L 56.066667,84.533333   L 56.933333,82.6   L 57.8,80.733333   L 58.6,78.933333   L 59.466667,77.066667   L 60.266667,75.333333   L 61.133333,73.6   L 62,71.933333   L 62.8,70.333333   L 63.666667,68.866667   L 64.533333,67.466667   L 65.333333,66.2   L 66.2,65.133333   L 67.066667,64.2   L 67.866667,63.533333   L 68.733333,63.133333   L 69.6,63   L 70.4,63.266667   L 71.266667,64   L 72.133333,65.066667   L 72.933333,66.6   L 73.8,68.266667   L 74.666667,70.266667   L 75.533333,72.333333   L 76.333333,74.533333   L 77.2,76.8   L 78.066667,79.2   L 78.866667,81.6   L 79.733333,84   L 80.6,86.4   L 81.466667,88.866667   L 82.266667,91.333333   L 83.133333,93.733333   L 84,96.2   L 84.8,98.6   L 85.666667,101   L 86.533333,103.4   L 87.4,105.73333   L 88.2,108.06667   L 89.066667,110.33333   L 89.933333,112.6   L 90.733333,114.86667   L 91.6,117   L 92.466667,119.13333   L 93.333333,121.26667   L 94.133333,123.26667   L 95.066667,125.26667   L 95.866667,127.13333   L 96.666667,129   L 97.533333,130.8   L 98.4,132.46667   L 99.266667,134   L 100.06667,135.46667   L 101,136.8   L 101.8,138   L 102.6,139   L 103.53333,139.8   L 104.33333,140.4   L 105.2,140.8   L 106.06667,140.86667   L 106.93333,140.93333   L 107.8,140.86667   L 108.6,140.8   L 109.46667,140.73333   L 110.33333,140.66667   L 111.2,140.53333   L 112.06667,140.4   L 112.93333,140.26667   L 113.73333,140.06667   L 114.6,139.93333   L 115.53333,139.73333  "
     id="path139" />
  <path
     style="fill:none;stroke:#ff0000;stroke-width:0.13333334px;stroke-linecap:round;stroke-linejoin:round;stroke-miterlimit:4;stroke-dasharray:none;stroke-opacity:1;"
     d="  M 115.53333,139.73333   L 116.33333,139.53333   L 118.06667,139.2   L 118.93333,139.06667   L 119.8,138.93333   L 120.66667,138.8   L 121.53333,138.73333   L 122.33333,138.73333   L 123.2,138.86667   L 124.13333,139   L 124.93333,139.2   L 125.8,139.53333   L 126.66667,139.93333   L 127.53333,140.46667   L 128.4,141.06667   L 129.26667,141.66667   L 130.13333,142.33333   L 130.93333,143   L 131.8,143.53333   L 132.73333,144.26667   L 133.6,144.93333   L 134.46667,145.6   L 135.33333,146.2   L 136.2,146.8   L 137.06667,147.33333   L 137.93333,147.8   L 138.8,148.2   L 139.66667,148.6   L 140.6,148.93333   L 141.46667,149.26667   L 142.33333,149.53333   L 143.2,149.8   L 144.06667,149.86667   L 145,150   L 145.86667,150.06667   L 146.73333,150.06667  "
     id="path141" />
  <path
     style="fill:none;stroke:#ff0000;stroke-width:0.13333334px;stroke-linecap:round;stroke-linejoin:round;stroke-miterlimit:4;stroke-dasharray:none;stroke-opacity:1;"
     d="  M 27.466667,94.866667   L 28.266667,94.866667   L 29.133333,94.866667   L 30,94.733333   L 30.8,94.666667   L 31.666667,94.466667   L 32.533333,94.266667   L 34.2,93.733333   L 35.066667,93.466667   L 35.866667,93.133333   L 36.733333,92.733333   L 37.6,92.333333   L 38.4,91.933333   L 39.266667,91.466667   L 40.066667,91   L 40.933333,90.466667   L 41.8,89.866667   L 42.6,89.266667   L 43.466667,88.6   L 44.333333,87.933333   L 45.133333,87.266667   L 46,86.533333   L 46.866667,85.8   L 47.666667,85   L 48.533333,84.133333   L 49.4,83.333333   L 50.2,82.466667   L 51.066667,81.533333   L 51.933333,80.6   L 53.533333,78.733333   L 54.4,77.666667   L 55.266667,76.666667   L 56.066667,75.666667   L 56.933333,74.666667   L 57.8,73.6   L 58.6,72.533333   L 59.466667,71.533333   L 60.266667,70.466667   L 61.133333,69.466667   L 62,68.466667   L 62.8,67.533333   L 63.666667,66.6   L 64.533333,65.8   L 65.333333,65   L 66.2,64.333333   L 67.066667,63.8   L 67.866667,63.333333   L 68.733333,63.133333   L 69.6,63   L 70.4,63   L 71.266667,63.133333   L 72.133333,63.333333   L 72.933333,63.533333   L 73.8,63.866667   L 74.666667,64.133333   L 75.533333,64.533333   L 76.333333,65   L 77.2,65.4   L 78.066667,65.933333   L 78.866667,66.4   L 79.733333,66.866667   L 80.6,67.4   L 81.466667,67.866667   L 82.266667,68.4   L 83.133333,68.933333   L 84,69.4   L 84.8,69.866667   L 85.666667,70.333333   L 86.533333,70.866667   L 87.4,71.333333   L 88.2,71.733333   L 89.066667,72.133333   L 89.933333,72.6   L 90.733333,73   L 91.6,73.333333   L 92.466667,73.666667   L 93.333333,74   L 94.133333,74.333333   L 95.066667,74.6   L 95.866667,74.866667   L 96.666667,75.133333   L 97.533333,75.333333   L 98.4,75.533333   L 99.266667,75.733333   L 100.06667,75.933333   L 101,76.066667   L 101.8,76.2   L 102.6,76.266667   L 103.53333,76.333333   L 104.33333,76.4   L 105.2,76.4   L 106.06667,76.4   L 106.93333,76.666667   L 107.8,77.2   L 108.6,78.133333   L 109.46667,79.333333   L 110.33333,80.8   L 111.2,82.4   L 112.06667,84.066667   L 112.93333,85.933333   L 113.73333,87.733333   L 114.6,89.6   L 115.53333,91.533333  "
     id="path143" />
  <path
     style="fill:none;stroke:#ff0000;stroke-width:0.13333334px;stroke-linecap:round;stroke-linejoin:round;stroke-miterlimit:4;stroke-dasharray:none;stroke-opacity:1;"
     d="  M 115.53333,91.533333   L 116.33333,93.4   L 117.2,95.266667   L 118.06667,97.133333   L 118.93333,98.933333   L 119.8,100.73333   L 120.66667,102.33333   L 121.53333,103.86667   L 122.33333,105.4   L 123.2,106.73333   L 124.13333,107.93333   L 124.93333,108.93333   L 125.8,109.8   L 126.66667,110.6   L 127.53333,111.06667   L 128.4,111.46667   L 129.26667,111.66667   L 130.13333,111.66667   L 130.93333,111.53333   L 131.8,111.26667   L 132.73333,110.66667   L 133.6,109.86667   L 134.46667,109   L 135.33333,108   L 136.2,106.93333   L 137.06667,105.73333   L 137.93333,104.46667   L 138.8,103.26667   L 139.66667,101.93333   L 140.6,100.6   L 141.46667,99.333333   L 142.33333,98.2   L 143.2,97.066667   L 144.06667,96.2   L 145,95.533333   L 145.86667,95.066667   L 146.73333,94.866667  "
     id="path145" />
  <path
     style="fill:none;stroke:#ff0000;stroke-width:0.13333334px;stroke-linecap:round;stroke-linejoin:round;stroke-miterlimit:4;stroke-dasharray:none;stroke-opacity:1;"
     d="  M 27.466667,94.866667   L 28.266667,94.866667   L 29.133333,94.866667   L 30,94.733333   L 30.8,94.666667   L 31.666667,94.466667   L 32.533333,94.266667   L 34.2,93.733333   L 35.066667,93.466667   L 35.866667,93.133333   L 36.733333,92.733333   L 37.6,92.333333   L 38.4,91.933333   L 39.266667,91.466667   L 40.066667,91   L 40.933333,90.466667   L 41.8,89.866667   L 42.6,89.266667   L 43.466667,88.6   L 44.333333,87.933333   L 45.133333,87.266667   L 46,86.533333   L 46.866667,85.8   L 47.666667,85   L 48.533333,84.133333   L 49.4,83.333333   L 50.2,82.466667   L 51.066667,81.533333   L 51.933333,80.6   L 53.533333,78.733333   L 54.4,77.666667   L 55.266667,76.666667   L 56.066667,75.666667   L 56.933333,74.666667   L 57.8,73.6   L 58.6,72.533333   L 59.466667,71.533333   L 60.266667,70.466667   L 61.133333,69.466667   L 62,68.466667   L 62.8,67.533333   L 63.666667,66.6   L 64.533333,65.8   L 65.333333,65   L 66.2,64.333333   L 67.066667,63.8   L 67.866667,63.333333   L 68.733333,63.133333   L 69.6,63   L 70.4,63   L 71.266667,63.133333   L 72.133333,63.333333   L 72.933333,63.533333   L 73.8,63.866667   L 74.666667,64.133333   L 75.533333,64.533333   L 76.333333,65   L 77.2,65.4   L 78.066667,65.933333   L 78.866667,66.4   L 79.733333,66.866667   L 80.6,67.4   L 81.466667,67.866667   L 82.266667,68.4   L 83.133333,68.933333   L 84,69.4   L 84.8,69.866667   L 85.666667,70.333333   L 86.533333,70.866667   L 87.4,71.333333   L 88.2,71.733333   L 89.066667,72.133333   L 89.933333,72.6   L 90.733333,73   L 91.6,73.333333   L 92.466667,73.666667   L 93.333333,74   L 94.133333,74.333333   L 95.066667,74.6   L 95.866667,74.866667   L 96.666667,75.133333   L 97.533333,75.333333   L 98.4,75.533333   L 99.266667,75.733333   L 100.06667,75.933333   L 101,76.066667   L 101.8,76.2   L 102.6,76.266667   L 103.53333,76.333333   L 104.33333,76.4   L 105.2,76.4   L 106.06667,76.4   L 106.93333,76.466667   L 107.8,76.533333   L 108.6,76.8   L 109.46667,77.066667   L 110.33333,77.333333   L 111.2,77.733333   L 112.06667,78.2   L 112.93333,78.6   L 113.73333,79.133333   L 114.6,79.733333   L 115.53333,80.266667  "
     id="path147" />
  <path
     style="fill:none;stroke:#ff0000;stroke-width:0.13333334px;stroke-linecap:round;stroke-linejoin:round;stroke-miterlimit:4;stroke-dasharray:none;stroke-opacity:1;"
     d="  M 115.53333,80.266667   L 116.33333,80.866667   L 117.2,81.466667   L 118.06667,82.066667   L 118.93333,82.666667   L 119.8,83.266667   L 121.53333,84.533333   L 122.33333,85.066667   L 123.2,85.666667   L 124.13333,86.2   L 124.93333,86.733333   L 125.8,87.266667   L 126.66667,87.733333   L 127.53333,88.2   L 128.4,88.666667   L 129.26667,89.066667   L 130.13333,89.466667   L 130.93333,89.8   L 131.8,90.133333   L 132.73333,90.666667   L 133.6,91.2   L 134.46667,91.6   L 135.33333,92.066667   L 136.2,92.466667   L 137.06667,92.866667   L 137.93333,93.266667   L 138.8,93.533333   L 139.66667,93.8   L 140.6,94.066667   L 141.46667,94.266667   L 142.33333,94.533333   L 143.2,94.666667   L 144.06667,94.733333   L 145,94.866667   L 145.86667,94.866667   L 146.73333,94.866667  "
     id="path149" />
  <path
     style="fill:none;stroke:#ff0000;stroke-width:0.13333334px;stroke-linecap:round;stroke-linejoin:round;stroke-miterlimit:4;stroke-dasharray:none;stroke-opacity:1;"
     d="  M 27.466667,55.666667   L 28.266667,56.066667   L 29.133333,56.333333   L 30,56.666667   L 30.8,56.866667   L 31.666667,57.066667   L 32.533333,57.133333   L 33.333333,57.2   L 35.066667,57.2   L 35.866667,57.133333   L 36.733333,57   L 37.6,56.866667   L 38.4,56.666667   L 39.266667,56.4   L 40.066667,56.066667   L 40.933333,55.8   L 41.8,55.4   L 42.6,54.933333   L 43.466667,54.466667   L 44.333333,53.933333   L 45.133333,53.4   L 46,52.866667   L 46.866667,52.266667   L 47.666667,51.666667   L 48.533333,50.933333   L 49.4,50.266667   L 50.2,49.533333   L 51.066667,48.733333   L 51.933333,48   L 52.733333,47.2   L 53.533333,46.4   L 54.4,45.533333   L 55.266667,44.666667   L 56.066667,43.8   L 56.933333,43   L 57.8,42.133333   L 58.6,41.266667   L 59.466667,40.466667   L 60.266667,39.666667   L 61.133333,38.866667   L 62,38.133333   L 62.8,37.466667   L 63.666667,36.8   L 64.533333,36.2   L 65.333333,35.733333   L 66.2,35.266667   L 67.066667,34.933333   L 67.866667,34.666667   L 68.733333,34.466667   L 69.6,34.466667   L 70.4,34.4   L 71.266667,34.266667   L 72.133333,34.066667   L 72.933333,33.933333   L 73.8,33.933333   L 74.666667,34.133333   L 75.533333,34.333333   L 76.333333,34.666667   L 77.2,35.066667   L 78.066667,35.466667   L 78.866667,35.933333   L 79.733333,36.4   L 80.6,36.866667   L 81.466667,37.4   L 82.266667,37.933333   L 83.133333,38.466667   L 84,39   L 84.8,39.533333   L 85.666667,40   L 86.533333,40.533333   L 87.4,41   L 88.2,41.533333   L 89.066667,42   L 89.933333,42.4   L 90.733333,42.866667   L 91.6,43.266667   L 92.466667,43.666667   L 93.333333,43.933333   L 94.133333,44.333333   L 95.066667,44.6   L 95.866667,44.933333   L 96.666667,45.2   L 97.533333,45.466667   L 98.4,45.733333   L 99.266667,45.866667   L 100.06667,46.066667   L 101,46.2   L 101.8,46.333333   L 102.6,46.466667   L 103.53333,46.6   L 104.33333,46.6   L 105.2,46.666667   L 106.06667,46.6   L 106.93333,46.466667   L 107.8,45.933333   L 108.6,45.133333   L 109.46667,44.066667   L 110.33333,42.866667   L 111.2,41.666667   L 112.06667,40.533333   L 112.93333,39.666667   L 113.73333,39.066667   L 114.6,38.8   L 115.53333,38.866667  "
     id="path151" />
  <path
     style="fill:none;stroke:#ff0000;stroke-width:0.13333334px;stroke-linecap:round;stroke-linejoin:round;stroke-miterlimit:4;stroke-dasharray:none;stroke-opacity:1;"
     d="  M 115.53333,38.866667   L 116.33333,39.133333   L 117.2,39.6   L 118.06667,40.2   L 118.93333,40.866667   L 119.8,41.6   L 121.53333,43.066667   L 122.33333,43.8   L 123.2,44.533333   L 124.13333,45.266667   L 124.93333,45.933333   L 126.66667,47.2   L 127.53333,47.8   L 128.4,48.333333   L 129.26667,48.866667   L 130.13333,49.333333   L 130.93333,49.733333   L 131.8,50.133333   L 132.73333,50.733333   L 133.6,51.333333   L 134.46667,51.866667   L 135.33333,52.4   L 136.2,52.866667   L 137.06667,53.266667   L 137.93333,53.666667   L 138.8,54.066667   L 139.66667,54.4   L 140.6,54.666667   L 141.46667,54.933333   L 142.33333,55.2   L 143.2,55.333333   L 144.06667,55.466667   L 145,55.6   L 145.86667,55.666667   L 146.73333,55.666667  "
     id="path153" />
  <path
     style="fill:none;stroke:#ff0000;stroke-width:0.13333334px;stroke-linecap:round;stroke-linejoin:round;stroke-miterlimit:4;stroke-dasharray:none;stroke-opacity:1;"
     d="  M 27.466667,55.666667   L 28.266667,55.266667   L 29.133333,54.8   L 30,54.2   L 30.8,53.666667   L 31.666667,53   L 32.533333,52.266667   L 34.2,50.733333   L 35.066667,49.8   L 35.866667,48.866667   L 36.733333,47.866667   L 37.6,46.866667   L 38.4,45.8   L 39.266667,44.6   L 40.066667,43.466667   L 40.933333,42.2   L 41.8,40.866667   L 42.6,39.533333   L 43.466667,38   L 44.333333,36.533333   L 45.133333,35   L 46,33.466667   L 46.866667,31.8   L 47.666667,30.2   L 48.533333,28.533333   L 49.4,26.866667   L 50.2,25.2   L 51.066667,23.533333   L 51.933333,21.866667   L 52.733333,20.266667   L 53.533333,18.8   L 54.4,17.533333   L 55.266667,16.4   L 56.066667,15.8   L 56.933333,17.533333   L 57.8,19.266667   L 58.6,20.933333   L 59.466667,22.6   L 60.266667,24.133333   L 61.133333,25.666667   L 62,27.133333   L 62.8,28.466667   L 63.666667,29.733333   L 64.533333,30.933333   L 65.333333,31.933333   L 66.2,32.8   L 67.066667,33.533333   L 67.866667,34.066667   L 68.733333,34.333333   L 69.6,34.466667   L 70.4,34.4   L 71.266667,34.266667   L 72.133333,34   L 72.933333,33.666667   L 73.8,33.266667   L 74.666667,32.8   L 75.533333,32.2   L 76.333333,31.6   L 77.2,30.933333   L 78.066667,30.266667   L 78.866667,29.6   L 79.733333,28.866667   L 80.6,28.133333   L 81.466667,27.466667   L 82.266667,26.866667   L 83.133333,26.2   L 84,25.6   L 84.8,25.133333   L 85.666667,24.733333   L 86.533333,24.333333   L 87.4,24   L 88.2,23.8   L 89.066667,23.666667   L 89.933333,23.533333   L 91.6,23.533333   L 92.466667,23.6   L 93.333333,23.733333   L 94.133333,23.8   L 95.066667,24   L 95.866667,24.133333   L 96.666667,24.333333   L 97.533333,24.466667   L 98.4,24.733333   L 99.266667,24.866667   L 100.06667,25   L 101,25.133333   L 101.8,25.266667   L 102.6,25.333333   L 103.53333,25.466667   L 104.33333,25.533333   L 105.2,25.6   L 106.06667,25.533333   L 106.93333,25.6   L 107.8,25.733333   L 108.6,25.933333   L 109.46667,26.133333   L 110.33333,26.333333   L 111.2,26.4   L 112.06667,26.333333   L 112.93333,25.933333   L 113.73333,25.2   L 114.6,24.066667   L 115.53333,22.6  "
     id="path155" />
  <path
     style="fill:none;stroke:#ff0000;stroke-width:0.13333334px;stroke-linecap:round;stroke-linejoin:round;stroke-miterlimit:4;stroke-dasharray:none;stroke-opacity:1;"
     d="  M 115.53333,22.6   L 116.33333,20.8   L 117.2,18.866667   L 118.06667,16.666667   L 118.93333,14.4   L 119.8,12.066667   L 120.66667,9.6666667   L 121.46667,7.3333333  "
     id="path157" />
  <path
     style="fill:none;stroke:#ff0000;stroke-width:0.13333334px;stroke-linecap:round;stroke-linejoin:round;stroke-miterlimit:4;stroke-dasharray:none;stroke-opacity:1;"
     d="  M 127.46667,7.3333333   L 127.53333,7.4666667   L 128.4,9.4666667   L 129.26667,11.466667   L 130.13333,13.466667   L 130.93333,15.466667   L 131.8,17.333333   L 132.73333,20.6   L 133.6,23.8   L 134.46667,27   L 135.33333,30.133333   L 136.2,33.133333   L 137.06667,36.066667   L 137.93333,38.866667   L 138.8,41.533333   L 139.66667,44.066667   L 140.6,46.466667   L 141.46667,48.733333   L 142.33333,50.666667   L 143.2,52.4   L 144.06667,53.8   L 145,54.8   L 145.86667,55.466667   L 146.73333,55.666667  "
     id="path159" />
  <path
     style="fill:none;stroke:#ff0000;stroke-width:0.13333334px;stroke-linecap:round;stroke-linejoin:round;stroke-miterlimit:4;stroke-dasharray:none;stroke-opacity:1;"
     d="  M 52.2,7.3333333   L 52.733333,8.5333333   L 53.533333,10.4   L 54.4,12.2   L 55.266667,14.066667   L 56.066667,15.8   L 56.933333,17.533333   L 57.8,19.266667   L 58.6,20.933333   L 59.466667,22.6   L 60.266667,24.133333   L 61.133333,25.666667   L 62,27.133333   L 62.8,28.466667   L 63.666667,29.733333   L 64.533333,30.933333   L 65.333333,31.933333   L 66.2,32.8   L 67.066667,33.533333   L 67.866667,34.066667   L 68.733333,34.333333   L 69.6,34.466667   L 70.4,34.4   L 71.266667,34.2   L 72.133333,34   L 72.933333,33.666667   L 73.8,33.266667   L 74.666667,32.8   L 75.533333,32.2   L 76.333333,31.6   L 77.2,30.933333   L 78.066667,30.266667   L 78.866667,29.6   L 79.733333,28.866667   L 80.6,28.133333   L 81.466667,27.466667   L 82.266667,26.866667   L 83.133333,26.2   L 84,25.6   L 84.8,25.133333   L 85.666667,24.733333   L 86.533333,24.333333   L 87.4,24   L 88.2,23.8   L 89.066667,23.666667   L 89.933333,23.533333   L 91.6,23.533333   L 92.466667,23.6   L 93.333333,23.733333   L 94.133333,23.8   L 95.066667,24   L 95.866667,24.133333   L 96.666667,24.333333   L 97.533333,24.466667   L 98.4,24.733333   L 99.266667,24.866667   L 100.06667,25   L 101,25.133333   L 101.8,25.266667   L 102.6,25.333333   L 103.53333,25.466667   L 104.33333,25.533333   L 105.2,25.6   L 106.06667,25.533333   L 106.93333,25.533333   L 107.8,25.266667   L 108.6,24.866667   L 109.46667,24.333333   L 110.33333,23.666667   L 111.2,22.8   L 112.06667,21.866667   L 112.93333,20.8   L 113.73333,19.533333   L 114.6,18.266667   L 115.53333,16.8   L 116.33333,15.266667   L 117.2,13.666667   L 118.06667,11.933333   L 118.93333,10.2   L 119.8,8.2666667   L 120.2,7.3333333  "
     id="path161" />
  <path
     style="fill:none;stroke:#ff0000;stroke-width:0.13333334px;stroke-linecap:round;stroke-linejoin:round;stroke-miterlimit:4;stroke-dasharray:none;stroke-opacity:1;"
     d="  M 52.2,7.3333333   L 52.733333,8.5333333   L 53.533333,10.4   L 54.4,12.2   L 55.266667,14.066667   L 56.066667,15.666667   L 56.933333,15.2   L 57.8,15.2   L 58.6,15.533333   L 59.466667,16.266667   L 60.266667,17.2   L 61.133333,18.333333   L 62,19.6   L 62.8,20.933333   L 63.666667,22.2   L 64.533333,23.466667   L 65.333333,24.6   L 66.2,25.6   L 67.066667,26.466667   L 67.866667,27.133333   L 68.733333,27.466667   L 69.6,27.6   L 70.4,27.466667   L 71.266667,27.066667   L 72.133333,26.333333   L 72.933333,25.2   L 73.8,23.8   L 74.666667,22.2   L 75.533333,20.266667   L 76.333333,18.266667   L 77.2,16.2   L 78.066667,14   L 78.866667,11.8   L 79.733333,9.5333333   L 80.533333,7.3333333  "
     id="path163" />
  <path
     style="fill:none;stroke:#000000;stroke-width:0.46666667px;stroke-linecap:round;stroke-linejoin:round;stroke-miterlimit:4;stroke-dasharray:none;stroke-opacity:1;"
     d="  M 27.466667,207.8   L 146.73333,207.8   L 146.73333,7.3333333   L 27.466667,7.3333333   L 27.466667,207.8  "
     id="path165" />
</svg>
