<?xml version="1.0" encoding="UTF-8" standalone="no"?>
<svg
   xmlns:dc="http://purl.org/dc/elements/1.1/"
   xmlns:cc="http://creativecommons.org/ns#"
   xmlns:rdf="http://www.w3.org/1999/02/22-rdf-syntax-ns#"
   xmlns:svg="http://www.w3.org/2000/svg"
   xmlns="http://www.w3.org/2000/svg"
   xmlns:sodipodi="http://sodipodi.sourceforge.net/DTD/sodipodi-0.dtd"
   xmlns:inkscape="http://www.inkscape.org/namespaces/inkscape"
   version="1.0"
   width="58.225972mm"
   height="40.763472mm"
   id="svg175"
   sodipodi:docname="image20.svg"
   inkscape:version="1.0.1 (3bc2e813f5, 2020-09-07)">
  <metadata
     id="metadata179">
    <rdf:RDF>
      <cc:Work
         rdf:about="">
        <dc:format>image/svg+xml</dc:format>
        <dc:type
           rdf:resource="http://purl.org/dc/dcmitype/StillImage" />
        <dc:title></dc:title>
      </cc:Work>
    </rdf:RDF>
  </metadata>
  <sodipodi:namedview
     pagecolor="#ffffff"
     bordercolor="#666666"
     borderopacity="1"
     objecttolerance="10"
     gridtolerance="10"
     guidetolerance="10"
     inkscape:pageopacity="0"
     inkscape:pageshadow="2"
     inkscape:window-width="1858"
     inkscape:window-height="1057"
     id="namedview177"
     showgrid="false"
     inkscape:zoom="5.7767199"
     inkscape:cx="110.03333"
     inkscape:cy="77.033336"
     inkscape:window-x="-8"
     inkscape:window-y="-8"
     inkscape:window-maximized="1"
     inkscape:current-layer="svg175" />
  <defs
     id="defs3">
    <pattern
       id="WMFhbasepattern"
       patternUnits="userSpaceOnUse"
       width="6"
       height="6"
       x="0"
       y="0" />
  </defs>
  <path
     style="fill:none;stroke:#000000;stroke-width:0.06666667px;stroke-linecap:round;stroke-linejoin:round;stroke-miterlimit:4;stroke-dasharray:none;stroke-opacity:1;"
     d="  M 0,0   L 219.93333,0   L 219.93333,154   L 0,154   z "
     id="path5" />
  <path
     style="fill:none;stroke:#000000;stroke-width:0.33333334px;stroke-linecap:round;stroke-linejoin:round;stroke-miterlimit:4;stroke-dasharray:none;stroke-opacity:1;"
     d="  M 37.4,145.2   L 39.333333,145.2  "
     id="path7" />
  <path
     style="fill:none;stroke:#000000;stroke-width:0.33333334px;stroke-linecap:round;stroke-linejoin:round;stroke-miterlimit:4;stroke-dasharray:none;stroke-opacity:1;"
     d="  M 207.53333,145.2   L 205.6,145.2  "
     id="path9" />
  <path
     style="fill:#000000;fill-rule:nonzero;fill-opacity:1;stroke:#000000;stroke-width:0.06666667px;stroke-linecap:round;stroke-linejoin:round;stroke-miterlimit:4;stroke-dasharray:none;stroke-opacity:1;"
     d="  M 29.266667,145.06667   L 29.333333,144.2   L 29.466667,143.53333   L 29.6,143.2   L 29.8,142.86667   L 30,142.66667   L 30.266667,142.53333   L 30.6,142.4   L 31,142.4   L 31.4,142.4   L 31.733333,142.53333   L 31.933333,142.66667   L 32.133333,142.86667   L 32.266667,143   L 32.466667,143.4   L 32.6,143.8   L 32.666667,144.33333   L 32.666667,145.06667   L 32.666667,145.86667   L 32.533333,146.53333   L 32.333333,146.93333   L 32.133333,147.2   L 31.933333,147.4   L 31.666667,147.6   L 31.333333,147.66667   L 31,147.73333   L 30.266667,147.6   L 29.8,147.2   L 29.466667,146.66667   L 29.333333,145.93333   L 29.266667,145.06667  z    M 29.933333,145.06667   L 30,145.8   L 30.066667,146.33333   L 30.266667,146.73333   L 30.466667,146.93333   L 30.666667,147.06667   L 31,147.13333   L 31.266667,147.06667   L 31.466667,146.93333   L 31.733333,146.73333   L 31.866667,146.33333   L 32,145.8   L 32,145.06667   L 32,144.33333   L 31.866667,143.73333   L 31.733333,143.4   L 31.533333,143.13333   L 31.266667,143   L 31,143   L 30.666667,143   L 30.466667,143.13333   L 30.266667,143.33333   L 30.066667,143.73333   L 30,144.33333   L 29.933333,145.06667  z   "
     id="path11" />
  <path
     style="fill:none;stroke:#000000;stroke-width:0.33333334px;stroke-linecap:round;stroke-linejoin:round;stroke-miterlimit:4;stroke-dasharray:none;stroke-opacity:1;"
     d="  M 37.4,128   L 39.333333,128  "
     id="path13" />
  <path
     style="fill:none;stroke:#000000;stroke-width:0.33333334px;stroke-linecap:round;stroke-linejoin:round;stroke-miterlimit:4;stroke-dasharray:none;stroke-opacity:1;"
     d="  M 207.53333,128   L 205.6,128  "
     id="path15" />
  <path
     style="fill:#000000;fill-rule:nonzero;fill-opacity:1;stroke:#000000;stroke-width:0.06666667px;stroke-linecap:round;stroke-linejoin:round;stroke-miterlimit:4;stroke-dasharray:none;stroke-opacity:1;"
     d="  M 23.533333,130.46667   L 22.866667,130.46667   L 22.866667,126.33333   L 22.6,126.6   L 22.266667,126.8   L 21.933333,127   L 21.6,127.13333   L 21.6,126.53333   L 22.133333,126.26667   L 22.533333,125.93333   L 22.866667,125.53333   L 23.066667,125.2   L 23.533333,125.2   L 23.533333,130.46667  z   "
     id="path17" />
  <path
     style="fill:#000000;fill-rule:nonzero;fill-opacity:1;stroke:#000000;stroke-width:0.06666667px;stroke-linecap:round;stroke-linejoin:round;stroke-miterlimit:4;stroke-dasharray:none;stroke-opacity:1;"
     d="  M 25.2,127.86667   L 25.266667,127.06667   L 25.4,126.33333   L 25.533333,126   L 25.733333,125.73333   L 26,125.46667   L 26.266667,125.33333   L 26.533333,125.26667   L 26.933333,125.2   L 27.333333,125.26667   L 27.666667,125.4   L 27.933333,125.53333   L 28.066667,125.66667   L 28.2,125.86667   L 28.4,126.2   L 28.533333,126.66667   L 28.6,127.2   L 28.666667,127.86667   L 28.6,128.73333   L 28.466667,129.4   L 28.333333,129.73333   L 28.133333,130   L 27.866667,130.26667   L 27.6,130.4   L 27.266667,130.53333   L 26.933333,130.53333   L 26.266667,130.4   L 25.733333,130.06667   L 25.466667,129.46667   L 25.266667,128.8   L 25.2,127.86667  z    M 25.866667,127.86667   L 25.933333,128.6   L 26,129.2   L 26.2,129.53333   L 26.4,129.73333   L 26.666667,129.86667   L 26.933333,129.93333   L 27.2,129.86667   L 27.466667,129.73333   L 27.666667,129.53333   L 27.8,129.2   L 27.933333,128.6   L 27.933333,127.86667   L 27.933333,127.13333   L 27.8,126.6   L 27.666667,126.2   L 27.466667,126   L 27.2,125.86667   L 26.933333,125.8   L 26.666667,125.86667   L 26.4,126   L 26.2,126.2   L 26,126.6   L 25.933333,127.13333   L 25.866667,127.86667  z   "
     id="path19" />
  <path
     style="fill:#000000;fill-rule:nonzero;fill-opacity:1;stroke:#000000;stroke-width:0.06666667px;stroke-linecap:round;stroke-linejoin:round;stroke-miterlimit:4;stroke-dasharray:none;stroke-opacity:1;"
     d="  M 29.266667,127.86667   L 29.333333,127.06667   L 29.466667,126.33333   L 29.6,126   L 29.8,125.73333   L 30,125.46667   L 30.266667,125.33333   L 30.6,125.26667   L 31,125.2   L 31.4,125.26667   L 31.733333,125.4   L 31.933333,125.53333   L 32.133333,125.66667   L 32.266667,125.86667   L 32.466667,126.2   L 32.6,126.66667   L 32.666667,127.2   L 32.666667,127.86667   L 32.666667,128.73333   L 32.533333,129.4   L 32.333333,129.73333   L 32.133333,130   L 31.933333,130.26667   L 31.666667,130.4   L 31.333333,130.53333   L 31,130.53333   L 30.266667,130.4   L 29.8,130.06667   L 29.466667,129.46667   L 29.333333,128.8   L 29.266667,127.86667  z    M 29.933333,127.86667   L 30,128.6   L 30.066667,129.2   L 30.266667,129.53333   L 30.466667,129.73333   L 30.666667,129.86667   L 31,129.93333   L 31.266667,129.86667   L 31.466667,129.73333   L 31.733333,129.53333   L 31.866667,129.2   L 32,128.6   L 32,127.86667   L 32,127.13333   L 31.866667,126.6   L 31.733333,126.2   L 31.533333,126   L 31.266667,125.86667   L 31,125.8   L 30.666667,125.86667   L 30.466667,126   L 30.266667,126.2   L 30.066667,126.6   L 30,127.13333   L 29.933333,127.86667  z   "
     id="path21" />
  <path
     style="fill:none;stroke:#000000;stroke-width:0.33333334px;stroke-linecap:round;stroke-linejoin:round;stroke-miterlimit:4;stroke-dasharray:none;stroke-opacity:1;"
     d="  M 37.4,110.8   L 39.333333,110.8  "
     id="path23" />
  <path
     style="fill:none;stroke:#000000;stroke-width:0.33333334px;stroke-linecap:round;stroke-linejoin:round;stroke-miterlimit:4;stroke-dasharray:none;stroke-opacity:1;"
     d="  M 207.53333,110.8   L 205.6,110.8  "
     id="path25" />
  <path
     style="fill:#000000;fill-rule:nonzero;fill-opacity:1;stroke:#000000;stroke-width:0.06666667px;stroke-linecap:round;stroke-linejoin:round;stroke-miterlimit:4;stroke-dasharray:none;stroke-opacity:1;"
     d="  M 24.533333,112.6   L 24.533333,113.26667   L 21.066667,113.26667   L 21.066667,113   L 21.133333,112.8   L 21.333333,112.4   L 21.533333,112.06667   L 21.733333,111.8   L 22,111.6   L 22.333333,111.26667   L 23.066667,110.66667   L 23.466667,110.2   L 23.666667,109.93333   L 23.733333,109.66667   L 23.733333,109.46667   L 23.733333,109.2   L 23.666667,109   L 23.466667,108.86667   L 23.333333,108.73333   L 23.066667,108.66667   L 22.8,108.6   L 22.533333,108.66667   L 22.333333,108.73333   L 22.133333,108.86667   L 22,109.06667   L 21.866667,109.26667   L 21.866667,109.53333   L 21.133333,109.46667   L 21.333333,108.8   L 21.666667,108.4   L 22.2,108.06667   L 22.866667,108   L 23.533333,108.13333   L 24,108.4   L 24.2,108.66667   L 24.333333,108.86667   L 24.4,109.13333   L 24.466667,109.46667   L 24.4,109.73333   L 24.333333,110.06667   L 24.2,110.4   L 23.933333,110.73333   L 23.8,110.86667   L 23.6,111.06667   L 23.333333,111.33333   L 23,111.6   L 22.733333,111.8   L 22.533333,112   L 22.333333,112.13333   L 22.266667,112.26667   L 22,112.6   L 24.533333,112.6  z   "
     id="path27" />
  <path
     style="fill:#000000;fill-rule:nonzero;fill-opacity:1;stroke:#000000;stroke-width:0.06666667px;stroke-linecap:round;stroke-linejoin:round;stroke-miterlimit:4;stroke-dasharray:none;stroke-opacity:1;"
     d="  M 25.2,110.66667   L 25.266667,109.8   L 25.4,109.13333   L 25.533333,108.8   L 25.733333,108.53333   L 26,108.26667   L 26.266667,108.13333   L 26.533333,108   L 26.933333,108   L 27.333333,108.06667   L 27.666667,108.2   L 27.933333,108.26667   L 28.066667,108.46667   L 28.2,108.66667   L 28.4,109   L 28.533333,109.46667   L 28.6,110   L 28.666667,110.66667   L 28.6,111.53333   L 28.466667,112.2   L 28.333333,112.53333   L 28.133333,112.8   L 27.866667,113.06667   L 27.6,113.2   L 27.266667,113.33333   L 26.933333,113.33333   L 26.266667,113.2   L 25.733333,112.86667   L 25.466667,112.26667   L 25.266667,111.6   L 25.2,110.66667  z    M 25.866667,110.66667   L 25.933333,111.4   L 26,112   L 26.2,112.33333   L 26.4,112.53333   L 26.666667,112.66667   L 26.933333,112.73333   L 27.2,112.66667   L 27.466667,112.53333   L 27.666667,112.33333   L 27.8,112   L 27.933333,111.4   L 27.933333,110.66667   L 27.933333,109.93333   L 27.8,109.4   L 27.666667,109   L 27.466667,108.8   L 27.2,108.66667   L 26.933333,108.6   L 26.666667,108.66667   L 26.4,108.8   L 26.2,109   L 26,109.33333   L 25.933333,109.93333   L 25.866667,110.66667  z   "
     id="path29" />
  <path
     style="fill:#000000;fill-rule:nonzero;fill-opacity:1;stroke:#000000;stroke-width:0.06666667px;stroke-linecap:round;stroke-linejoin:round;stroke-miterlimit:4;stroke-dasharray:none;stroke-opacity:1;"
     d="  M 29.266667,110.66667   L 29.333333,109.8   L 29.466667,109.13333   L 29.6,108.8   L 29.8,108.53333   L 30,108.26667   L 30.266667,108.13333   L 30.6,108   L 31,108   L 31.4,108.06667   L 31.733333,108.2   L 31.933333,108.26667   L 32.133333,108.46667   L 32.266667,108.66667   L 32.466667,109   L 32.6,109.46667   L 32.666667,110   L 32.666667,110.66667   L 32.666667,111.53333   L 32.533333,112.2   L 32.333333,112.53333   L 32.133333,112.8   L 31.933333,113.06667   L 31.666667,113.2   L 31.333333,113.33333   L 31,113.33333   L 30.266667,113.2   L 29.8,112.86667   L 29.466667,112.26667   L 29.333333,111.6   L 29.266667,110.66667  z    M 29.933333,110.66667   L 30,111.4   L 30.066667,112   L 30.266667,112.33333   L 30.466667,112.53333   L 30.666667,112.66667   L 31,112.73333   L 31.266667,112.66667   L 31.466667,112.53333   L 31.733333,112.33333   L 31.866667,112   L 32,111.4   L 32,110.66667   L 32,109.93333   L 31.866667,109.4   L 31.733333,109   L 31.533333,108.8   L 31.266667,108.66667   L 31,108.6   L 30.666667,108.66667   L 30.466667,108.8   L 30.266667,109   L 30.066667,109.33333   L 30,109.93333   L 29.933333,110.66667  z   "
     id="path31" />
  <path
     style="fill:none;stroke:#000000;stroke-width:0.33333334px;stroke-linecap:round;stroke-linejoin:round;stroke-miterlimit:4;stroke-dasharray:none;stroke-opacity:1;"
     d="  M 37.4,93.666667   L 39.333333,93.666667  "
     id="path33" />
  <path
     style="fill:none;stroke:#000000;stroke-width:0.33333334px;stroke-linecap:round;stroke-linejoin:round;stroke-miterlimit:4;stroke-dasharray:none;stroke-opacity:1;"
     d="  M 207.53333,93.666667   L 205.6,93.666667  "
     id="path35" />
  <path
     style="fill:#000000;fill-rule:nonzero;fill-opacity:1;stroke:#000000;stroke-width:0.06666667px;stroke-linecap:round;stroke-linejoin:round;stroke-miterlimit:4;stroke-dasharray:none;stroke-opacity:1;"
     d="  M 21.133333,94.733333   L 21.866667,94.666667   L 21.933333,94.933333   L 22.066667,95.2   L 22.2,95.333333   L 22.4,95.466667   L 22.6,95.533333   L 22.866667,95.533333   L 23.133333,95.533333   L 23.4,95.4   L 23.6,95.266667   L 23.8,95.066667   L 23.866667,94.8   L 23.933333,94.466667   L 23.866667,94.2   L 23.8,94   L 23.6,93.8   L 23.4,93.6   L 23.2,93.533333   L 22.933333,93.533333   L 22.733333,93.533333   L 22.466667,93.6   L 22.533333,92.933333   L 22.6,93   L 22.866667,92.933333   L 23.066667,92.866667   L 23.333333,92.8   L 23.466667,92.6   L 23.6,92.4   L 23.6,92.2   L 23.6,92   L 23.533333,91.8   L 23.4,91.666667   L 23.2,91.533333   L 23,91.466667   L 22.8,91.466667   L 22.6,91.466667   L 22.4,91.533333   L 22.2,91.666667   L 22.066667,91.8   L 22,92   L 21.933333,92.266667   L 21.266667,92.2   L 21.333333,91.8   L 21.533333,91.466667   L 21.733333,91.2   L 22.066667,91   L 22.4,90.866667   L 22.8,90.8   L 23.2,90.866667   L 23.533333,91   L 23.8,91.133333   L 23.933333,91.333333   L 24.133333,91.466667   L 24.266667,91.8   L 24.266667,92.133333   L 24.266667,92.466667   L 24.133333,92.733333   L 24,92.933333   L 23.8,93.066667   L 23.6,93.2   L 23.866667,93.266667   L 24.133333,93.466667   L 24.333333,93.666667   L 24.466667,93.866667   L 24.533333,94.2   L 24.6,94.533333   L 24.466667,95.133333   L 24.066667,95.666667   L 23.533333,96.066667   L 22.8,96.2   L 22.2,96.066667   L 21.666667,95.8   L 21.466667,95.533333   L 21.333333,95.333333   L 21.2,95   L 21.133333,94.733333  z   "
     id="path37" />
  <path
     style="fill:#000000;fill-rule:nonzero;fill-opacity:1;stroke:#000000;stroke-width:0.06666667px;stroke-linecap:round;stroke-linejoin:round;stroke-miterlimit:4;stroke-dasharray:none;stroke-opacity:1;"
     d="  M 25.2,93.533333   L 25.266667,92.666667   L 25.4,92   L 25.533333,91.6   L 25.733333,91.333333   L 26,91.133333   L 26.266667,90.933333   L 26.533333,90.866667   L 26.933333,90.8   L 27.333333,90.866667   L 27.666667,91   L 27.933333,91.133333   L 28.066667,91.266667   L 28.2,91.466667   L 28.4,91.866667   L 28.533333,92.266667   L 28.6,92.8   L 28.666667,93.533333   L 28.6,94.333333   L 28.466667,95   L 28.333333,95.333333   L 28.133333,95.666667   L 27.866667,95.866667   L 27.6,96.066667   L 27.266667,96.133333   L 26.933333,96.2   L 26.266667,96.066667   L 25.733333,95.666667   L 25.466667,95.133333   L 25.266667,94.4   L 25.2,93.533333  z    M 25.866667,93.466667   L 25.933333,94.266667   L 26,94.8   L 26.2,95.2   L 26.4,95.4   L 26.666667,95.533333   L 26.933333,95.533333   L 27.2,95.533333   L 27.466667,95.4   L 27.666667,95.2   L 27.8,94.8   L 27.933333,94.266667   L 27.933333,93.466667   L 27.933333,92.733333   L 27.8,92.2   L 27.666667,91.866667   L 27.466667,91.6   L 27.2,91.466667   L 26.933333,91.466667   L 26.666667,91.466667   L 26.4,91.6   L 26.2,91.8   L 26,92.2   L 25.933333,92.733333   L 25.866667,93.466667  z   "
     id="path39" />
  <path
     style="fill:#000000;fill-rule:nonzero;fill-opacity:1;stroke:#000000;stroke-width:0.06666667px;stroke-linecap:round;stroke-linejoin:round;stroke-miterlimit:4;stroke-dasharray:none;stroke-opacity:1;"
     d="  M 29.266667,93.533333   L 29.333333,92.666667   L 29.466667,92   L 29.6,91.6   L 29.8,91.333333   L 30,91.133333   L 30.266667,90.933333   L 30.6,90.866667   L 31,90.8   L 31.4,90.866667   L 31.733333,91   L 31.933333,91.133333   L 32.133333,91.266667   L 32.266667,91.466667   L 32.466667,91.866667   L 32.6,92.266667   L 32.666667,92.8   L 32.666667,93.533333   L 32.666667,94.333333   L 32.533333,95   L 32.333333,95.333333   L 32.133333,95.666667   L 31.933333,95.866667   L 31.666667,96.066667   L 31.333333,96.133333   L 31,96.2   L 30.266667,96.066667   L 29.8,95.666667   L 29.466667,95.133333   L 29.333333,94.4   L 29.266667,93.533333  z    M 29.933333,93.466667   L 30,94.266667   L 30.066667,94.8   L 30.266667,95.2   L 30.466667,95.4   L 30.666667,95.533333   L 31,95.533333   L 31.266667,95.533333   L 31.466667,95.4   L 31.733333,95.2   L 31.866667,94.8   L 32,94.266667   L 32,93.466667   L 32,92.733333   L 31.866667,92.2   L 31.733333,91.866667   L 31.533333,91.6   L 31.266667,91.466667   L 31,91.466667   L 30.666667,91.466667   L 30.466667,91.6   L 30.266667,91.8   L 30.066667,92.2   L 30,92.733333   L 29.933333,93.466667  z   "
     id="path41" />
  <path
     style="fill:none;stroke:#000000;stroke-width:0.33333334px;stroke-linecap:round;stroke-linejoin:round;stroke-miterlimit:4;stroke-dasharray:none;stroke-opacity:1;"
     d="  M 37.4,76.466667   L 39.333333,76.466667  "
     id="path43" />
  <path
     style="fill:none;stroke:#000000;stroke-width:0.33333334px;stroke-linecap:round;stroke-linejoin:round;stroke-miterlimit:4;stroke-dasharray:none;stroke-opacity:1;"
     d="  M 207.53333,76.466667   L 205.6,76.466667  "
     id="path45" />
  <path
     style="fill:#000000;fill-rule:nonzero;fill-opacity:1;stroke:#000000;stroke-width:0.06666667px;stroke-linecap:round;stroke-linejoin:round;stroke-miterlimit:4;stroke-dasharray:none;stroke-opacity:1;"
     d="  M 23.266667,78.866667   L 23.266667,77.666667   L 20.933333,77.666667   L 20.933333,76.933333   L 23.466667,73.666667   L 24,73.666667   L 24,76.933333   L 24.6,76.933333   L 24.6,77.666667   L 24,77.666667   L 24,78.866667   L 23.266667,78.866667  z    M 23.266667,76.933333   L 23.266667,75   L 21.8,76.933333   L 23.266667,76.933333  z   "
     id="path47" />
  <path
     style="fill:#000000;fill-rule:nonzero;fill-opacity:1;stroke:#000000;stroke-width:0.06666667px;stroke-linecap:round;stroke-linejoin:round;stroke-miterlimit:4;stroke-dasharray:none;stroke-opacity:1;"
     d="  M 25.2,76.266667   L 25.266667,75.466667   L 25.4,74.8   L 25.533333,74.4   L 25.733333,74.133333   L 26,73.933333   L 26.266667,73.733333   L 26.533333,73.666667   L 26.933333,73.6   L 27.333333,73.666667   L 27.666667,73.8   L 27.933333,73.933333   L 28.066667,74.066667   L 28.2,74.266667   L 28.4,74.666667   L 28.533333,75.066667   L 28.6,75.6   L 28.666667,76.266667   L 28.6,77.133333   L 28.466667,77.8   L 28.333333,78.133333   L 28.133333,78.466667   L 27.866667,78.666667   L 27.6,78.866667   L 27.266667,78.933333   L 26.933333,79   L 26.266667,78.866667   L 25.733333,78.466667   L 25.466667,77.933333   L 25.266667,77.2   L 25.2,76.266667  z    M 25.866667,76.266667   L 25.933333,77.066667   L 26,77.6   L 26.2,78   L 26.4,78.2   L 26.666667,78.333333   L 26.933333,78.333333   L 27.2,78.333333   L 27.466667,78.2   L 27.666667,77.933333   L 27.8,77.6   L 27.933333,77.066667   L 27.933333,76.266667   L 27.933333,75.533333   L 27.8,75   L 27.666667,74.666667   L 27.466667,74.4   L 27.2,74.266667   L 26.933333,74.266667   L 26.666667,74.266667   L 26.4,74.4   L 26.2,74.6   L 26,75   L 25.933333,75.533333   L 25.866667,76.266667  z   "
     id="path49" />
  <path
     style="fill:#000000;fill-rule:nonzero;fill-opacity:1;stroke:#000000;stroke-width:0.06666667px;stroke-linecap:round;stroke-linejoin:round;stroke-miterlimit:4;stroke-dasharray:none;stroke-opacity:1;"
     d="  M 29.266667,76.266667   L 29.333333,75.466667   L 29.466667,74.8   L 29.6,74.4   L 29.8,74.133333   L 30,73.933333   L 30.266667,73.733333   L 30.6,73.666667   L 31,73.6   L 31.4,73.666667   L 31.733333,73.8   L 31.933333,73.933333   L 32.133333,74.066667   L 32.266667,74.266667   L 32.466667,74.666667   L 32.6,75.066667   L 32.666667,75.6   L 32.666667,76.266667   L 32.666667,77.133333   L 32.533333,77.8   L 32.333333,78.133333   L 32.133333,78.466667   L 31.933333,78.666667   L 31.666667,78.866667   L 31.333333,78.933333   L 31,79   L 30.266667,78.866667   L 29.8,78.466667   L 29.466667,77.933333   L 29.333333,77.2   L 29.266667,76.266667  z    M 29.933333,76.266667   L 30,77.066667   L 30.066667,77.6   L 30.266667,78   L 30.466667,78.2   L 30.666667,78.333333   L 31,78.333333   L 31.266667,78.333333   L 31.466667,78.2   L 31.733333,77.933333   L 31.866667,77.6   L 32,77.066667   L 32,76.266667   L 32,75.533333   L 31.866667,75   L 31.733333,74.666667   L 31.533333,74.4   L 31.266667,74.266667   L 31,74.266667   L 30.666667,74.266667   L 30.466667,74.4   L 30.266667,74.6   L 30.066667,75   L 30,75.533333   L 29.933333,76.266667  z   "
     id="path51" />
  <path
     style="fill:none;stroke:#000000;stroke-width:0.33333334px;stroke-linecap:round;stroke-linejoin:round;stroke-miterlimit:4;stroke-dasharray:none;stroke-opacity:1;"
     d="  M 37.4,59.266667   L 39.333333,59.266667  "
     id="path53" />
  <path
     style="fill:none;stroke:#000000;stroke-width:0.33333334px;stroke-linecap:round;stroke-linejoin:round;stroke-miterlimit:4;stroke-dasharray:none;stroke-opacity:1;"
     d="  M 207.53333,59.266667   L 205.6,59.266667  "
     id="path55" />
  <path
     style="fill:#000000;fill-rule:nonzero;fill-opacity:1;stroke:#000000;stroke-width:0.06666667px;stroke-linecap:round;stroke-linejoin:round;stroke-miterlimit:4;stroke-dasharray:none;stroke-opacity:1;"
     d="  M 21.133333,60.333333   L 21.866667,60.266667   L 21.933333,60.533333   L 22,60.8   L 22.2,60.933333   L 22.333333,61.066667   L 22.6,61.133333   L 22.8,61.2   L 23.133333,61.133333   L 23.4,61.066667   L 23.6,60.866667   L 23.8,60.6   L 23.866667,60.333333   L 23.933333,59.933333   L 23.866667,59.6   L 23.8,59.333333   L 23.666667,59.133333   L 23.466667,58.933333   L 23.133333,58.866667   L 22.866667,58.8   L 22.533333,58.866667   L 22.266667,58.933333   L 22.066667,59.066667   L 21.933333,59.266667   L 21.266667,59.2   L 21.8,56.533333   L 24.266667,56.533333   L 24.266667,57.2   L 22.333333,57.2   L 22.066667,58.533333   L 22.4,58.333333   L 22.666667,58.266667   L 23,58.2   L 23.666667,58.333333   L 24.133333,58.666667   L 24.466667,59.266667   L 24.6,59.933333   L 24.466667,60.6   L 24.2,61.133333   L 23.6,61.666667   L 22.8,61.8   L 22.2,61.666667   L 21.666667,61.4   L 21.466667,61.2   L 21.333333,60.933333   L 21.2,60.666667   L 21.133333,60.333333  z   "
     id="path57" />
  <path
     style="fill:#000000;fill-rule:nonzero;fill-opacity:1;stroke:#000000;stroke-width:0.06666667px;stroke-linecap:round;stroke-linejoin:round;stroke-miterlimit:4;stroke-dasharray:none;stroke-opacity:1;"
     d="  M 25.2,59.133333   L 25.266667,58.266667   L 25.4,57.6   L 25.533333,57.266667   L 25.733333,56.933333   L 26,56.733333   L 26.266667,56.6   L 26.533333,56.466667   L 26.933333,56.466667   L 27.333333,56.466667   L 27.666667,56.6   L 27.933333,56.733333   L 28.066667,56.933333   L 28.2,57.133333   L 28.4,57.466667   L 28.533333,57.866667   L 28.6,58.4   L 28.666667,59.133333   L 28.6,59.933333   L 28.466667,60.666667   L 28.333333,61   L 28.133333,61.266667   L 27.866667,61.533333   L 27.6,61.666667   L 27.266667,61.733333   L 26.933333,61.8   L 26.266667,61.666667   L 25.733333,61.266667   L 25.466667,60.733333   L 25.266667,60   L 25.2,59.133333  z    M 25.866667,59.133333   L 25.933333,59.866667   L 26,60.466667   L 26.2,60.8   L 26.4,61   L 26.666667,61.133333   L 26.933333,61.2   L 27.2,61.133333   L 27.466667,61   L 27.666667,60.8   L 27.8,60.466667   L 27.933333,59.866667   L 27.933333,59.133333   L 27.933333,58.4   L 27.8,57.866667   L 27.666667,57.466667   L 27.466667,57.266667   L 27.2,57.133333   L 26.933333,57.066667   L 26.666667,57.133333   L 26.4,57.2   L 26.2,57.4   L 26,57.8   L 25.933333,58.4   L 25.866667,59.133333  z   "
     id="path59" />
  <path
     style="fill:#000000;fill-rule:nonzero;fill-opacity:1;stroke:#000000;stroke-width:0.06666667px;stroke-linecap:round;stroke-linejoin:round;stroke-miterlimit:4;stroke-dasharray:none;stroke-opacity:1;"
     d="  M 29.266667,59.133333   L 29.333333,58.266667   L 29.466667,57.6   L 29.6,57.266667   L 29.8,56.933333   L 30,56.733333   L 30.266667,56.6   L 30.6,56.466667   L 31,56.466667   L 31.4,56.466667   L 31.733333,56.6   L 31.933333,56.733333   L 32.133333,56.933333   L 32.266667,57.133333   L 32.466667,57.466667   L 32.6,57.866667   L 32.666667,58.4   L 32.666667,59.133333   L 32.666667,59.933333   L 32.533333,60.666667   L 32.333333,61   L 32.133333,61.266667   L 31.933333,61.533333   L 31.666667,61.666667   L 31.333333,61.733333   L 31,61.8   L 30.266667,61.666667   L 29.8,61.266667   L 29.466667,60.733333   L 29.333333,60   L 29.266667,59.133333  z    M 29.933333,59.133333   L 30,59.866667   L 30.066667,60.466667   L 30.266667,60.8   L 30.466667,61   L 30.666667,61.133333   L 31,61.2   L 31.266667,61.133333   L 31.466667,61   L 31.733333,60.8   L 31.866667,60.466667   L 32,59.866667   L 32,59.133333   L 32,58.4   L 31.866667,57.866667   L 31.733333,57.466667   L 31.533333,57.266667   L 31.266667,57.133333   L 31,57.066667   L 30.666667,57.133333   L 30.466667,57.2   L 30.266667,57.4   L 30.066667,57.8   L 30,58.4   L 29.933333,59.133333  z   "
     id="path61" />
  <path
     style="fill:none;stroke:#000000;stroke-width:0.33333334px;stroke-linecap:round;stroke-linejoin:round;stroke-miterlimit:4;stroke-dasharray:none;stroke-opacity:1;"
     d="  M 37.4,42.066667   L 39.333333,42.066667  "
     id="path63" />
  <path
     style="fill:none;stroke:#000000;stroke-width:0.33333334px;stroke-linecap:round;stroke-linejoin:round;stroke-miterlimit:4;stroke-dasharray:none;stroke-opacity:1;"
     d="  M 207.53333,42.066667   L 205.6,42.066667  "
     id="path65" />
  <path
     style="fill:#000000;fill-rule:nonzero;fill-opacity:1;stroke:#000000;stroke-width:0.06666667px;stroke-linecap:round;stroke-linejoin:round;stroke-miterlimit:4;stroke-dasharray:none;stroke-opacity:1;"
     d="  M 24.533333,40.6   L 23.8,40.666667   L 23.8,40.466667   L 23.666667,40.266667   L 23.6,40.133333   L 23.4,40   L 23.2,39.866667   L 22.933333,39.866667   L 22.666667,39.866667   L 22.4,40   L 22.2,40.2   L 22.066667,40.4   L 21.933333,40.6   L 21.8,41.066667   L 21.8,41.8   L 21.933333,41.533333   L 22.133333,41.4   L 22.333333,41.266667   L 22.666667,41.133333   L 23.066667,41.066667   L 23.666667,41.2   L 24.133333,41.533333   L 24.466667,42.133333   L 24.6,42.8   L 24.6,43.133333   L 24.533333,43.4   L 24.4,43.733333   L 24.2,44   L 24,44.2   L 23.8,44.4   L 23.533333,44.466667   L 23.266667,44.6   L 22.933333,44.6   L 22.2,44.466667   L 21.6,44   L 21.333333,43.533333   L 21.133333,42.866667   L 21.066667,42.066667   L 21.133333,41.133333   L 21.333333,40.4   L 21.666667,39.866667   L 22.266667,39.4   L 23,39.266667   L 23.4,39.266667   L 23.733333,39.4   L 24.066667,39.6   L 24.2,39.8   L 24.333333,40.066667   L 24.466667,40.333333   L 24.533333,40.6  z    M 21.8,42.8   L 21.8,43.066667   L 21.933333,43.4   L 22.066667,43.666667   L 22.333333,43.8   L 22.6,43.933333   L 22.866667,44   L 23.2,43.933333   L 23.4,43.866667   L 23.6,43.666667   L 23.8,43.466667   L 23.866667,43.133333   L 23.933333,42.8   L 23.866667,42.466667   L 23.8,42.2   L 23.6,42   L 23.4,41.8   L 23.133333,41.733333   L 22.866667,41.666667   L 22.6,41.733333   L 22.333333,41.8   L 22.066667,42   L 21.933333,42.2   L 21.8,42.466667   L 21.8,42.8  z   "
     id="path67" />
  <path
     style="fill:#000000;fill-rule:nonzero;fill-opacity:1;stroke:#000000;stroke-width:0.06666667px;stroke-linecap:round;stroke-linejoin:round;stroke-miterlimit:4;stroke-dasharray:none;stroke-opacity:1;"
     d="  M 25.2,41.933333   L 25.266667,41.066667   L 25.4,40.4   L 25.533333,40.066667   L 25.733333,39.733333   L 26,39.533333   L 26.266667,39.4   L 26.533333,39.266667   L 26.933333,39.266667   L 27.333333,39.266667   L 27.666667,39.4   L 27.933333,39.533333   L 28.066667,39.733333   L 28.2,39.933333   L 28.4,40.266667   L 28.533333,40.666667   L 28.6,41.2   L 28.666667,41.933333   L 28.6,42.733333   L 28.466667,43.4   L 28.333333,43.8   L 28.133333,44.066667   L 27.866667,44.333333   L 27.6,44.466667   L 27.266667,44.533333   L 26.933333,44.6   L 26.266667,44.466667   L 25.733333,44.066667   L 25.466667,43.533333   L 25.266667,42.8   L 25.2,41.933333  z    M 25.866667,41.933333   L 25.933333,42.666667   L 26,43.266667   L 26.2,43.6   L 26.4,43.8   L 26.666667,43.933333   L 26.933333,44   L 27.2,43.933333   L 27.466667,43.8   L 27.666667,43.6   L 27.8,43.2   L 27.933333,42.666667   L 27.933333,41.933333   L 27.933333,41.2   L 27.8,40.666667   L 27.666667,40.266667   L 27.466667,40.066667   L 27.2,39.933333   L 26.933333,39.866667   L 26.666667,39.866667   L 26.4,40   L 26.2,40.2   L 26,40.6   L 25.933333,41.2   L 25.866667,41.933333  z   "
     id="path69" />
  <path
     style="fill:#000000;fill-rule:nonzero;fill-opacity:1;stroke:#000000;stroke-width:0.06666667px;stroke-linecap:round;stroke-linejoin:round;stroke-miterlimit:4;stroke-dasharray:none;stroke-opacity:1;"
     d="  M 29.266667,41.933333   L 29.333333,41.066667   L 29.466667,40.4   L 29.6,40.066667   L 29.8,39.733333   L 30,39.533333   L 30.266667,39.4   L 30.6,39.266667   L 31,39.266667   L 31.4,39.266667   L 31.733333,39.4   L 31.933333,39.533333   L 32.133333,39.733333   L 32.266667,39.933333   L 32.466667,40.266667   L 32.6,40.666667   L 32.666667,41.2   L 32.666667,41.933333   L 32.666667,42.733333   L 32.533333,43.4   L 32.333333,43.8   L 32.133333,44.066667   L 31.933333,44.333333   L 31.666667,44.466667   L 31.333333,44.533333   L 31,44.6   L 30.266667,44.466667   L 29.8,44.066667   L 29.466667,43.533333   L 29.333333,42.8   L 29.266667,41.933333  z    M 29.933333,41.933333   L 30,42.666667   L 30.066667,43.266667   L 30.266667,43.6   L 30.466667,43.8   L 30.666667,43.933333   L 31,44   L 31.266667,43.933333   L 31.466667,43.8   L 31.733333,43.6   L 31.866667,43.2   L 32,42.666667   L 32,41.933333   L 32,41.2   L 31.866667,40.666667   L 31.733333,40.266667   L 31.533333,40.066667   L 31.266667,39.933333   L 31,39.866667   L 30.666667,39.866667   L 30.466667,40   L 30.266667,40.2   L 30.066667,40.6   L 30,41.2   L 29.933333,41.933333  z   "
     id="path71" />
  <path
     style="fill:none;stroke:#000000;stroke-width:0.33333334px;stroke-linecap:round;stroke-linejoin:round;stroke-miterlimit:4;stroke-dasharray:none;stroke-opacity:1;"
     d="  M 37.4,24.933333   L 39.333333,24.933333  "
     id="path73" />
  <path
     style="fill:none;stroke:#000000;stroke-width:0.33333334px;stroke-linecap:round;stroke-linejoin:round;stroke-miterlimit:4;stroke-dasharray:none;stroke-opacity:1;"
     d="  M 207.53333,24.933333   L 205.6,24.933333  "
     id="path75" />
  <path
     style="fill:#000000;fill-rule:nonzero;fill-opacity:1;stroke:#000000;stroke-width:0.06666667px;stroke-linecap:round;stroke-linejoin:round;stroke-miterlimit:4;stroke-dasharray:none;stroke-opacity:1;"
     d="  M 21.266667,22.866667   L 21.266667,22.133333   L 24.6,22.133333   L 24.6,22.733333   L 24.133333,23.333333   L 23.666667,24.133333   L 22.933333,25.933333   L 22.666667,27.333333   L 22,27.333333   L 22.066667,26.666667   L 22.266667,25.866667   L 22.533333,25   L 22.933333,24.2   L 23.4,23.466667   L 23.933333,22.866667   L 21.266667,22.866667  z   "
     id="path77" />
  <path
     style="fill:#000000;fill-rule:nonzero;fill-opacity:1;stroke:#000000;stroke-width:0.06666667px;stroke-linecap:round;stroke-linejoin:round;stroke-miterlimit:4;stroke-dasharray:none;stroke-opacity:1;"
     d="  M 25.2,24.733333   L 25.266667,23.933333   L 25.4,23.266667   L 25.533333,22.866667   L 25.733333,22.6   L 26,22.333333   L 26.266667,22.2   L 26.533333,22.133333   L 26.933333,22.066667   L 27.333333,22.133333   L 27.666667,22.266667   L 27.933333,22.4   L 28.066667,22.533333   L 28.2,22.733333   L 28.4,23.066667   L 28.533333,23.533333   L 28.6,24.066667   L 28.666667,24.733333   L 28.6,25.6   L 28.466667,26.266667   L 28.333333,26.6   L 28.133333,26.933333   L 27.866667,27.133333   L 27.6,27.266667   L 27.266667,27.4   L 26.933333,27.4   L 26.266667,27.266667   L 25.733333,26.933333   L 25.466667,26.4   L 25.266667,25.666667   L 25.2,24.733333  z    M 25.866667,24.733333   L 25.933333,25.533333   L 26,26.066667   L 26.2,26.4   L 26.4,26.666667   L 26.666667,26.8   L 26.933333,26.8   L 27.2,26.8   L 27.466667,26.666667   L 27.666667,26.4   L 27.8,26.066667   L 27.933333,25.533333   L 27.933333,24.733333   L 27.933333,24   L 27.8,23.466667   L 27.666667,23.066667   L 27.466667,22.866667   L 27.2,22.733333   L 26.933333,22.666667   L 26.666667,22.733333   L 26.4,22.866667   L 26.2,23.066667   L 26,23.466667   L 25.933333,24   L 25.866667,24.733333  z   "
     id="path79" />
  <path
     style="fill:#000000;fill-rule:nonzero;fill-opacity:1;stroke:#000000;stroke-width:0.06666667px;stroke-linecap:round;stroke-linejoin:round;stroke-miterlimit:4;stroke-dasharray:none;stroke-opacity:1;"
     d="  M 29.266667,24.733333   L 29.333333,23.933333   L 29.466667,23.266667   L 29.6,22.866667   L 29.8,22.6   L 30,22.333333   L 30.266667,22.2   L 30.6,22.133333   L 31,22.066667   L 31.4,22.133333   L 31.733333,22.266667   L 31.933333,22.4   L 32.133333,22.533333   L 32.266667,22.733333   L 32.466667,23.066667   L 32.6,23.533333   L 32.666667,24.066667   L 32.666667,24.733333   L 32.666667,25.6   L 32.533333,26.266667   L 32.333333,26.6   L 32.133333,26.933333   L 31.933333,27.133333   L 31.666667,27.266667   L 31.333333,27.4   L 31,27.4   L 30.266667,27.266667   L 29.8,26.933333   L 29.466667,26.4   L 29.333333,25.666667   L 29.266667,24.733333  z    M 29.933333,24.733333   L 30,25.533333   L 30.066667,26.066667   L 30.266667,26.4   L 30.466667,26.666667   L 30.666667,26.8   L 31,26.8   L 31.266667,26.8   L 31.466667,26.666667   L 31.733333,26.4   L 31.866667,26.066667   L 32,25.533333   L 32,24.733333   L 32,24   L 31.866667,23.466667   L 31.733333,23.066667   L 31.533333,22.866667   L 31.266667,22.733333   L 31,22.666667   L 30.666667,22.733333   L 30.466667,22.866667   L 30.266667,23.066667   L 30.066667,23.466667   L 30,24   L 29.933333,24.733333  z   "
     id="path81" />
  <path
     style="fill:none;stroke:#000000;stroke-width:0.33333334px;stroke-linecap:round;stroke-linejoin:round;stroke-miterlimit:4;stroke-dasharray:none;stroke-opacity:1;"
     d="  M 37.4,145.2   L 207.53333,145.2   L 207.53333,22   L 37.4,22   L 37.4,145.2  "
     id="path83" />
  <path
     style="fill:#000000;fill-rule:nonzero;fill-opacity:1;stroke:#000000;stroke-width:0.06666667px;stroke-linecap:round;stroke-linejoin:round;stroke-miterlimit:4;stroke-dasharray:none;stroke-opacity:1;"
     d="  M 10.533333,111.26667   L 5.2666667,111.26667   L 5.2666667,107.73333   L 5.8666667,107.73333   L 5.8666667,110.53333   L 7.5333333,110.53333   L 7.5333333,108.2   L 8.1333333,108.2   L 8.1333333,110.53333   L 10.533333,110.53333   L 10.533333,111.26667  z   "
     id="path85" />
  <path
     style="fill:#000000;fill-rule:nonzero;fill-opacity:1;stroke:#000000;stroke-width:0.06666667px;stroke-linecap:round;stroke-linejoin:round;stroke-miterlimit:4;stroke-dasharray:none;stroke-opacity:1;"
     d="  M 10.533333,106.8   L 6.6666667,106.8   L 6.6666667,106.2   L 7.2,106.2   L 7,106.06667   L 6.8666667,105.93333   L 6.7333333,105.8   L 6.6666667,105.66667   L 6.6,105.46667   L 6.6666667,105.13333   L 6.8,104.86667   L 7.4,105.06667   L 7.2666667,105.26667   L 7.2,105.46667   L 7.2666667,105.66667   L 7.3333333,105.8   L 7.5333333,105.93333   L 7.7333333,106.06667   L 8.0666667,106.13333   L 8.4666667,106.13333   L 10.533333,106.13333   L 10.533333,106.8  z   "
     id="path87" />
  <path
     style="fill:#000000;fill-rule:nonzero;fill-opacity:1;stroke:#000000;stroke-width:0.06666667px;stroke-linecap:round;stroke-linejoin:round;stroke-miterlimit:4;stroke-dasharray:none;stroke-opacity:1;"
     d="  M 9.3333333,101.86667   L 9.4666667,101.2   L 9.8,101.33333   L 10.066667,101.53333   L 10.266667,101.8   L 10.533333,102.26667   L 10.6,102.86667   L 10.466667,103.6   L 10.066667,104.2   L 9.4666667,104.53333   L 8.6666667,104.66667   L 7.8,104.53333   L 7.1333333,104.2   L 6.7333333,103.6   L 6.6,102.93333   L 6.7333333,102.2   L 7.1333333,101.66667   L 7.7333333,101.26667   L 8.6,101.2   L 8.7333333,101.2   L 8.7333333,104   L 9.1333333,103.93333   L 9.4,103.8   L 9.6666667,103.66667   L 9.8666667,103.4   L 9.9333333,103.13333   L 10,102.86667   L 9.9333333,102.53333   L 9.8,102.26667   L 9.7333333,102.13333   L 9.5333333,102   L 9.3333333,101.86667  z    M 8.1333333,104   L 8.1333333,101.86667   L 7.8666667,101.93333   L 7.6666667,102   L 7.5333333,102.13333   L 7.3333333,102.33333   L 7.2666667,102.6   L 7.2,102.93333   L 7.2666667,103.2   L 7.3333333,103.46667   L 7.4666667,103.66667   L 7.6666667,103.8   L 7.8666667,103.93333   L 8.1333333,104  z   "
     id="path89" />
  <path
     style="fill:#000000;fill-rule:nonzero;fill-opacity:1;stroke:#000000;stroke-width:0.06666667px;stroke-linecap:round;stroke-linejoin:round;stroke-miterlimit:4;stroke-dasharray:none;stroke-opacity:1;"
     d="  M 11.933333,98.066667   L 10,98.066667   L 10.266667,98.2   L 10.4,98.466667   L 10.533333,98.733333   L 10.6,99   L 10.466667,99.6   L 10.066667,100.13333   L 9.4,100.53333   L 8.5333333,100.66667   L 8.2,100.6   L 7.8666667,100.53333   L 7.5333333,100.46667   L 7.2666667,100.26667   L 7,100.13333   L 6.8666667,99.866667   L 6.7333333,99.666667   L 6.6666667,99.4   L 6.6,99.066667   L 6.6666667,98.8   L 6.8,98.466667   L 7,98.266667   L 7.3333333,98.066667   L 6.6666667,98.066667   L 6.6666667,97.333333   L 11.933333,97.333333   L 11.933333,98.066667  z    M 8.6,99.933333   L 8.9333333,99.933333   L 9.2,99.866667   L 9.4666667,99.8   L 9.6,99.666667   L 9.8,99.466667   L 9.9333333,99.2   L 10,99   L 9.9333333,98.733333   L 9.8,98.533333   L 9.6666667,98.333333   L 9.4666667,98.2   L 9.2666667,98.133333   L 9,98.066667   L 8.6666667,98.066667   L 8,98.133333   L 7.6,98.333333   L 7.4,98.533333   L 7.2666667,98.733333   L 7.2,99   L 7.2666667,99.266667   L 7.4,99.466667   L 7.5333333,99.666667   L 7.7333333,99.8   L 8,99.866667   L 8.2666667,99.933333   L 8.6,99.933333  z   "
     id="path91" />
  <path
     style="fill:#000000;fill-rule:nonzero;fill-opacity:1;stroke:#000000;stroke-width:0.06666667px;stroke-linecap:round;stroke-linejoin:round;stroke-miterlimit:4;stroke-dasharray:none;stroke-opacity:1;"
     d="  M 10.533333,94   L 9.8666667,94   L 10.4,94.466667   L 10.6,95.066667   L 10.533333,95.4   L 10.466667,95.666667   L 10.333333,95.866667   L 10.133333,96.066667   L 9.9333333,96.2   L 9.6666667,96.266667   L 9.4,96.266667   L 9.0666667,96.266667   L 6.6666667,96.266667   L 6.6666667,95.6   L 8.8,95.6   L 9.0666667,95.6   L 9.2666667,95.6   L 9.4666667,95.533333   L 9.6666667,95.466667   L 9.8666667,95.333333   L 9.9333333,95.133333   L 10,94.866667   L 9.9333333,94.666667   L 9.8,94.4   L 9.6666667,94.2   L 9.4,94.066667   L 9.2666667,94   L 9,94   L 8.6666667,94   L 6.6666667,94   L 6.6666667,93.333333   L 10.533333,93.333333   L 10.533333,94  z   "
     id="path93" />
  <path
     style="fill:#000000;fill-rule:nonzero;fill-opacity:1;stroke:#000000;stroke-width:0.06666667px;stroke-linecap:round;stroke-linejoin:round;stroke-miterlimit:4;stroke-dasharray:none;stroke-opacity:1;"
     d="  M 9.3333333,89.733333   L 9.4666667,89.066667   L 9.8,89.2   L 10.066667,89.4   L 10.266667,89.6   L 10.533333,90.133333   L 10.6,90.733333   L 10.466667,91.466667   L 10.066667,92.066667   L 9.4666667,92.4   L 8.6666667,92.533333   L 7.8,92.4   L 7.1333333,92.066667   L 6.7333333,91.466667   L 6.6,90.733333   L 6.7333333,90.066667   L 7.1333333,89.533333   L 7.7333333,89.133333   L 8.6,89   L 8.7333333,89   L 8.7333333,91.866667   L 9.1333333,91.8   L 9.4,91.666667   L 9.6666667,91.466667   L 9.8666667,91.266667   L 9.9333333,91   L 10,90.733333   L 9.9333333,90.4   L 9.8,90.133333   L 9.7333333,89.933333   L 9.5333333,89.8   L 9.3333333,89.733333  z    M 8.1333333,91.866667   L 8.1333333,89.733333   L 7.8666667,89.733333   L 7.6666667,89.866667   L 7.5333333,89.933333   L 7.3333333,90.2   L 7.2666667,90.466667   L 7.2,90.733333   L 7.2666667,91.066667   L 7.3333333,91.266667   L 7.4666667,91.533333   L 7.6666667,91.666667   L 7.8666667,91.8   L 8.1333333,91.866667  z   "
     id="path95" />
  <path
     style="fill:#000000;fill-rule:nonzero;fill-opacity:1;stroke:#000000;stroke-width:0.06666667px;stroke-linecap:round;stroke-linejoin:round;stroke-miterlimit:4;stroke-dasharray:none;stroke-opacity:1;"
     d="  M 10.533333,88.2   L 6.6666667,88.2   L 6.6666667,87.466667   L 7.2,87.466667   L 6.8,87   L 6.6,86.4   L 6.6666667,86.066667   L 6.7333333,85.8   L 6.8666667,85.6   L 7.0666667,85.4   L 7.2666667,85.333333   L 7.5333333,85.266667   L 7.6666667,85.2   L 7.8666667,85.2   L 8.2,85.2   L 10.533333,85.2   L 10.533333,85.866667   L 8.2,85.866667   L 7.8666667,85.933333   L 7.6666667,85.933333   L 7.4666667,86.066667   L 7.3333333,86.2   L 7.2666667,86.4   L 7.2,86.6   L 7.2666667,86.8   L 7.3333333,87.066667   L 7.4666667,87.2   L 7.6666667,87.333333   L 7.8666667,87.4   L 8.1333333,87.466667   L 8.4666667,87.466667   L 10.533333,87.466667   L 10.533333,88.2  z   "
     id="path97" />
  <path
     style="fill:#000000;fill-rule:nonzero;fill-opacity:1;stroke:#000000;stroke-width:0.06666667px;stroke-linecap:round;stroke-linejoin:round;stroke-miterlimit:4;stroke-dasharray:none;stroke-opacity:1;"
     d="  M 9.1333333,81.8   L 9.2,81.066667   L 9.5333333,81.133333   L 9.8,81.266667   L 10,81.4   L 10.2,81.6   L 10.4,81.933333   L 10.533333,82.266667   L 10.6,82.666667   L 10.466667,83.333333   L 10.066667,83.866667   L 9.4666667,84.266667   L 8.6,84.333333   L 8.0666667,84.333333   L 7.5333333,84.133333   L 7.2666667,84   L 7,83.8   L 6.8666667,83.533333   L 6.7333333,83.266667   L 6.6666667,83   L 6.6,82.666667   L 6.6666667,82.266667   L 6.7333333,81.933333   L 6.9333333,81.666667   L 7.2,81.4   L 7.4666667,81.266667   L 7.8666667,81.133333   L 7.9333333,81.866667   L 7.7333333,81.933333   L 7.5333333,82   L 7.4,82.133333   L 7.2666667,82.4   L 7.2,82.666667   L 7.2666667,82.933333   L 7.4,83.2   L 7.5333333,83.4   L 7.7333333,83.533333   L 8,83.6   L 8.2666667,83.666667   L 8.6,83.666667   L 8.9333333,83.666667   L 9.2,83.6   L 9.4666667,83.533333   L 9.6666667,83.4   L 9.8,83.2   L 9.9333333,82.933333   L 10,82.666667   L 9.9333333,82.466667   L 9.8666667,82.266667   L 9.8,82.066667   L 9.6,81.933333   L 9.4,81.8   L 9.1333333,81.8  z   "
     id="path99" />
  <path
     style="fill:#000000;fill-rule:nonzero;fill-opacity:1;stroke:#000000;stroke-width:0.06666667px;stroke-linecap:round;stroke-linejoin:round;stroke-miterlimit:4;stroke-dasharray:none;stroke-opacity:1;"
     d="  M 11.933333,80.533333   L 11.4,80.6   L 11.4,80.4   L 11.4,80.266667   L 11.4,80.066667   L 11.333333,79.933333   L 11.266667,79.8   L 11.133333,79.733333   L 11.066667,79.666667   L 10.866667,79.6   L 10.666667,79.533333   L 10.6,79.533333   L 10.533333,79.466667   L 6.6666667,80.933333   L 6.6666667,80.2   L 8.8,79.466667   L 9.2,79.266667   L 9.6,79.2   L 9.2666667,79.066667   L 8.9333333,78.933333   L 6.6666667,78.2   L 6.6666667,77.466667   L 10.6,78.8   L 11,78.933333   L 11.266667,79.066667   L 11.466667,79.133333   L 11.733333,79.333333   L 11.866667,79.6   L 12,79.8   L 12.066667,80.133333   L 12,80.333333   L 11.933333,80.533333  z   "
     id="path101" />
  <path
     style="fill:#000000;fill-rule:nonzero;fill-opacity:1;stroke:#000000;stroke-width:0.06666667px;stroke-linecap:round;stroke-linejoin:round;stroke-miterlimit:4;stroke-dasharray:none;stroke-opacity:1;"
     d="  M 11.933333,73.6   L 11.266667,74.066667   L 10.4,74.533333   L 9.5333333,74.8   L 8.6,74.866667   L 7.8,74.8   L 7,74.6   L 6.1333333,74.2   L 5.2666667,73.6   L 5.2666667,73.133333   L 5.6,73.333333   L 5.8666667,73.466667   L 6.0666667,73.6   L 6.2666667,73.733333   L 6.8,73.933333   L 7.2666667,74.066667   L 8.6,74.2   L 9.7333333,74.066667   L 10.866667,73.733333   L 11.933333,73.133333   L 11.933333,73.6  z   "
     id="path103" />
  <path
     style="fill:#000000;fill-rule:nonzero;fill-opacity:1;stroke:#000000;stroke-width:0.06666667px;stroke-linecap:round;stroke-linejoin:round;stroke-miterlimit:4;stroke-dasharray:none;stroke-opacity:1;"
     d="  M 9.1333333,70   L 9.2,69.333333   L 9.5333333,69.4   L 9.8,69.466667   L 10,69.666667   L 10.2,69.866667   L 10.4,70.133333   L 10.533333,70.466667   L 10.6,70.866667   L 10.466667,71.6   L 10.066667,72.133333   L 9.4666667,72.466667   L 8.6,72.6   L 8.0666667,72.533333   L 7.5333333,72.4   L 7.2666667,72.266667   L 7,72.066667   L 6.8666667,71.8   L 6.7333333,71.533333   L 6.6666667,71.2   L 6.6,70.866667   L 6.6666667,70.533333   L 6.7333333,70.2   L 6.9333333,69.866667   L 7.2,69.666667   L 7.4666667,69.466667   L 7.8666667,69.4   L 7.9333333,70.066667   L 7.7333333,70.133333   L 7.5333333,70.266667   L 7.4,70.4   L 7.2666667,70.6   L 7.2,70.866667   L 7.2666667,71.2   L 7.4,71.4   L 7.5333333,71.6   L 7.7333333,71.733333   L 8,71.866667   L 8.2666667,71.866667   L 8.6,71.933333   L 8.9333333,71.866667   L 9.2,71.866667   L 9.4666667,71.733333   L 9.6666667,71.666667   L 9.8,71.4   L 9.9333333,71.2   L 10,70.933333   L 9.9333333,70.666667   L 9.8666667,70.466667   L 9.8,70.333333   L 9.6,70.2   L 9.4,70.066667   L 9.1333333,70  z   "
     id="path105" />
  <path
     style="fill:#000000;fill-rule:nonzero;fill-opacity:1;stroke:#000000;stroke-width:0.06666667px;stroke-linecap:round;stroke-linejoin:round;stroke-miterlimit:4;stroke-dasharray:none;stroke-opacity:1;"
     d="  M 10.533333,68.8   L 6.6666667,68.8   L 6.6666667,68.066667   L 7.2666667,68.066667   L 7,67.866667   L 6.8,67.6   L 6.6666667,67.333333   L 6.6,66.933333   L 6.6666667,66.733333   L 6.6666667,66.466667   L 6.8,66.266667   L 6.9333333,66.133333   L 7.1333333,66   L 7.3333333,65.933333   L 6.8,65.4   L 6.6,64.733333   L 6.6666667,64.333333   L 6.7333333,64.066667   L 6.9333333,63.8   L 7.1333333,63.666667   L 7.3333333,63.6   L 7.6,63.533333   L 7.8666667,63.533333   L 10.533333,63.533333   L 10.533333,64.2   L 8.1333333,64.2   L 7.9333333,64.2   L 7.7333333,64.2   L 7.6,64.266667   L 7.4666667,64.333333   L 7.3333333,64.466667   L 7.2666667,64.666667   L 7.2,64.866667   L 7.2666667,65.133333   L 7.3333333,65.333333   L 7.4666667,65.533333   L 7.7333333,65.666667   L 8,65.8   L 8.3333333,65.8   L 10.533333,65.8   L 10.533333,66.466667   L 8.0666667,66.466667   L 7.8,66.533333   L 7.6,66.533333   L 7.4666667,66.666667   L 7.3333333,66.8   L 7.2666667,66.933333   L 7.2,67.133333   L 7.2666667,67.4   L 7.4,67.666667   L 7.5333333,67.866667   L 7.8,68   L 8,68.066667   L 8.2666667,68.066667   L 8.5333333,68.066667   L 10.533333,68.066667   L 10.533333,68.8  z   "
     id="path107" />
  <path
     style="fill:#000000;fill-rule:nonzero;fill-opacity:1;stroke:#000000;stroke-width:0.06666667px;stroke-linecap:round;stroke-linejoin:round;stroke-miterlimit:4;stroke-dasharray:none;stroke-opacity:1;"
     d="  M 5.5333333,62.8   L 5.0666667,62.8   L 5.0666667,61.2   L 5.5333333,61.2   L 5.5333333,62.8  z   "
     id="path109" />
  <path
     style="fill:#000000;fill-rule:nonzero;fill-opacity:1;stroke:#000000;stroke-width:0.06666667px;stroke-linecap:round;stroke-linejoin:round;stroke-miterlimit:4;stroke-dasharray:none;stroke-opacity:1;"
     d="  M 6.8666667,58.866667   L 6.8666667,59.4   L 3.5333333,59.4   L 3.7333333,59.666667   L 3.9333333,59.866667   L 4.0666667,60.133333   L 4.2,60.4   L 3.6666667,60.4   L 3.4666667,60   L 3.2,59.666667   L 2.9333333,59.4   L 2.6,59.266667   L 2.6,58.866667   L 6.8666667,58.866667  z   "
     id="path111" />
  <path
     style="fill:#000000;fill-rule:nonzero;fill-opacity:1;stroke:#000000;stroke-width:0.06666667px;stroke-linecap:round;stroke-linejoin:round;stroke-miterlimit:4;stroke-dasharray:none;stroke-opacity:1;"
     d="  M 11.933333,57.066667   L 11.933333,57.533333   L 10.866667,56.933333   L 9.7333333,56.6   L 8.6,56.466667   L 7.2666667,56.666667   L 6.8,56.8   L 6.2666667,57   L 6.1333333,57.066667   L 5.8666667,57.2   L 5.6,57.333333   L 5.2666667,57.533333   L 5.2666667,57.066667   L 6.1333333,56.466667   L 7,56.066667   L 7.8,55.866667   L 8.6,55.8   L 9.5333333,55.866667   L 10.4,56.2   L 11.266667,56.6   L 11.933333,57.066667  z   "
     id="path113" />
  <path
     style="fill:#000000;fill-rule:nonzero;fill-opacity:1;stroke:#000000;stroke-width:0.06666667px;stroke-linecap:round;stroke-linejoin:round;stroke-miterlimit:4;stroke-dasharray:none;stroke-opacity:1;"
     d="  M 92.8,13.466667   L 90.666667,8.2   L 91.4,8.2   L 92.866667,11.933333   L 93,12.4   L 93.133333,12.8   L 93.4,11.933333   L 94.866667,8.2   L 95.6,8.2   L 93.533333,13.466667   L 92.8,13.466667  z   "
     id="path115" />
  <path
     style="fill:#000000;fill-rule:nonzero;fill-opacity:1;stroke:#000000;stroke-width:0.06666667px;stroke-linecap:round;stroke-linejoin:round;stroke-miterlimit:4;stroke-dasharray:none;stroke-opacity:1;"
     d="  M 96.066667,8.8666667   L 96.066667,8.2   L 96.733333,8.2   L 96.733333,8.8666667   L 96.066667,8.8666667  z    M 96.066667,13.466667   L 96.066667,9.6   L 96.733333,9.6   L 96.733333,13.466667   L 96.066667,13.466667  z   "
     id="path117" />
  <path
     style="fill:#000000;fill-rule:nonzero;fill-opacity:1;stroke:#000000;stroke-width:0.06666667px;stroke-linecap:round;stroke-linejoin:round;stroke-miterlimit:4;stroke-dasharray:none;stroke-opacity:1;"
     d="  M 98.266667,13.466667   L 97.6,13.466667   L 97.6,8.2   L 98.266667,8.2   L 98.266667,10.133333   L 98.533333,9.8666667   L 98.733333,9.6666667   L 99,9.6   L 99.333333,9.5333333   L 99.666667,9.6   L 99.933333,9.6666667   L 100.26667,9.8666667   L 100.46667,10.066667   L 100.66667,10.4   L 100.8,10.733333   L 100.86667,11.066667   L 100.86667,11.466667   L 100.8,12.333333   L 100.4,13   L 99.933333,13.4   L 99.333333,13.533333   L 99,13.466667   L 98.733333,13.333333   L 98.466667,13.133333   L 98.266667,12.866667   L 98.266667,13.466667  z    M 98.266667,11.533333   L 98.333333,11.866667   L 98.333333,12.2   L 98.466667,12.466667   L 98.6,12.666667   L 98.8,12.8   L 99,12.866667   L 99.2,12.933333   L 99.466667,12.866667   L 99.733333,12.733333   L 99.933333,12.533333   L 100.06667,12.4   L 100.13333,12.133333   L 100.2,11.866667   L 100.2,11.533333   L 100.2,11.2   L 100.13333,10.933333   L 100.06667,10.666667   L 99.933333,10.466667   L 99.733333,10.333333   L 99.533333,10.2   L 99.266667,10.133333   L 99,10.2   L 98.8,10.333333   L 98.6,10.533333   L 98.4,10.8   L 98.333333,11.133333   L 98.266667,11.533333  z   "
     id="path119" />
  <path
     style="fill:#000000;fill-rule:nonzero;fill-opacity:1;stroke:#000000;stroke-width:0.06666667px;stroke-linecap:round;stroke-linejoin:round;stroke-miterlimit:4;stroke-dasharray:none;stroke-opacity:1;"
     d="  M 101.73333,13.466667   L 101.73333,9.6   L 102.33333,9.6   L 102.33333,10.133333   L 102.46667,9.9333333   L 102.6,9.8   L 102.73333,9.6666667   L 102.93333,9.6   L 103.06667,9.5333333   L 103.4,9.6   L 103.73333,9.7333333   L 103.53333,10.333333   L 103.26667,10.2   L 103.06667,10.133333   L 102.86667,10.2   L 102.73333,10.266667   L 102.6,10.466667   L 102.53333,10.666667   L 102.46667,11   L 102.4,11.4   L 102.4,13.466667   L 101.73333,13.466667  z   "
     id="path121" />
  <path
     style="fill:#000000;fill-rule:nonzero;fill-opacity:1;stroke:#000000;stroke-width:0.06666667px;stroke-linecap:round;stroke-linejoin:round;stroke-miterlimit:4;stroke-dasharray:none;stroke-opacity:1;"
     d="  M 106.46667,13   L 106.13333,13.266667   L 105.8,13.4   L 105.46667,13.466667   L 105.13333,13.533333   L 104.8,13.466667   L 104.46667,13.4   L 104.26667,13.2   L 104.06667,13   L 104,12.733333   L 103.93333,12.4   L 104,12.133333   L 104.06667,11.933333   L 104.2,11.666667   L 104.4,11.533333   L 104.6,11.4   L 104.8,11.333333   L 105,11.266667   L 105.33333,11.2   L 105.73333,11.133333   L 106.13333,11.066667   L 106.4,11   L 106.4,10.933333   L 106.4,10.866667   L 106.4,10.666667   L 106.33333,10.466667   L 106.2,10.333333   L 106.06667,10.266667   L 105.86667,10.2   L 105.6,10.133333   L 105.33333,10.2   L 105.13333,10.2   L 105,10.266667   L 104.86667,10.4   L 104.8,10.533333   L 104.73333,10.8   L 104,10.666667   L 104.13333,10.333333   L 104.26667,10.066667   L 104.46667,9.9333333   L 104.6,9.8   L 104.86667,9.6666667   L 105.26667,9.6   L 105.73333,9.5333333   L 106,9.5333333   L 106.26667,9.6   L 106.46667,9.6666667   L 106.73333,9.8   L 106.93333,9.9333333   L 107.06667,10.133333   L 107.13333,10.4   L 107.13333,10.533333   L 107.13333,10.733333   L 107.13333,10.933333   L 107.13333,11.8   L 107.13333,12.466667   L 107.2,12.933333   L 107.26667,13.2   L 107.4,13.466667   L 106.66667,13.466667   L 106.53333,13.2   L 106.46667,13  z    M 106.4,11.6   L 106.13333,11.666667   L 105.8,11.733333   L 105.46667,11.8   L 105.13333,11.866667   L 104.93333,11.933333   L 104.8,12   L 104.73333,12.133333   L 104.66667,12.266667   L 104.6,12.4   L 104.66667,12.6   L 104.8,12.733333   L 104.93333,12.866667   L 105.13333,12.866667   L 105.33333,12.933333   L 105.6,12.866667   L 105.93333,12.733333   L 106.13333,12.6   L 106.26667,12.333333   L 106.33333,12.2   L 106.4,12   L 106.4,11.8   L 106.4,11.6  z   "
     id="path123" />
  <path
     style="fill:#000000;fill-rule:nonzero;fill-opacity:1;stroke:#000000;stroke-width:0.06666667px;stroke-linecap:round;stroke-linejoin:round;stroke-miterlimit:4;stroke-dasharray:none;stroke-opacity:1;"
     d="  M 109.6,12.866667   L 109.66667,13.466667   L 109.4,13.533333   L 109.2,13.533333   L 108.86667,13.466667   L 108.66667,13.4   L 108.46667,13.266667   L 108.4,13.133333   L 108.33333,12.933333   L 108.33333,12.733333   L 108.26667,12.4   L 108.26667,10.266667   L 107.86667,10.266667   L 107.86667,9.6   L 108.26667,9.6   L 108.26667,8.6666667   L 109,8.2666667   L 109,9.6   L 109.6,9.6   L 109.6,10.266667   L 109,10.266667   L 109,12.4   L 109,12.6   L 109,12.733333   L 109.06667,12.8   L 109.13333,12.866667   L 109.2,12.866667   L 109.33333,12.933333   L 109.46667,12.933333   L 109.6,12.866667  z   "
     id="path125" />
  <path
     style="fill:#000000;fill-rule:nonzero;fill-opacity:1;stroke:#000000;stroke-width:0.06666667px;stroke-linecap:round;stroke-linejoin:round;stroke-miterlimit:4;stroke-dasharray:none;stroke-opacity:1;"
     d="  M 110.26667,8.8666667   L 110.26667,8.2   L 111,8.2   L 111,8.8666667   L 110.26667,8.8666667  z    M 110.26667,13.466667   L 110.26667,9.6   L 111,9.6   L 111,13.466667   L 110.26667,13.466667  z   "
     id="path127" />
  <path
     style="fill:#000000;fill-rule:nonzero;fill-opacity:1;stroke:#000000;stroke-width:0.06666667px;stroke-linecap:round;stroke-linejoin:round;stroke-miterlimit:4;stroke-dasharray:none;stroke-opacity:1;"
     d="  M 111.66667,11.533333   L 111.73333,10.866667   L 111.93333,10.4   L 112.2,10   L 112.73333,9.6666667   L 113.4,9.5333333   L 114.06667,9.6666667   L 114.6,10.066667   L 115,10.666667   L 115.06667,11.466667   L 115.06667,12.133333   L 114.86667,12.666667   L 114.73333,12.866667   L 114.53333,13.133333   L 114.26667,13.266667   L 114,13.4   L 113.66667,13.466667   L 113.4,13.533333   L 112.66667,13.4   L 112.13333,13   L 111.8,12.4   L 111.66667,11.533333  z    M 112.33333,11.533333   L 112.33333,11.866667   L 112.4,12.133333   L 112.53333,12.4   L 112.66667,12.533333   L 112.86667,12.733333   L 113.06667,12.866667   L 113.4,12.933333   L 113.66667,12.866667   L 113.93333,12.733333   L 114.13333,12.533333   L 114.26667,12.4   L 114.33333,12.133333   L 114.4,11.866667   L 114.4,11.533333   L 114.4,11.2   L 114.33333,10.933333   L 114.26667,10.666667   L 114.13333,10.533333   L 113.86667,10.333333   L 113.66667,10.2   L 113.4,10.133333   L 113.06667,10.2   L 112.86667,10.333333   L 112.66667,10.533333   L 112.53333,10.666667   L 112.4,10.933333   L 112.33333,11.2   L 112.33333,11.533333  z   "
     id="path129" />
  <path
     style="fill:#000000;fill-rule:nonzero;fill-opacity:1;stroke:#000000;stroke-width:0.06666667px;stroke-linecap:round;stroke-linejoin:round;stroke-miterlimit:4;stroke-dasharray:none;stroke-opacity:1;"
     d="  M 115.93333,13.466667   L 115.93333,9.6   L 116.6,9.6   L 116.6,10.133333   L 117.06667,9.7333333   L 117.73333,9.5333333   L 118,9.6   L 118.33333,9.6666667   L 118.53333,9.8   L 118.66667,10   L 118.8,10.2   L 118.86667,10.466667   L 118.93333,10.6   L 118.93333,10.8   L 118.93333,11.133333   L 118.93333,13.466667   L 118.2,13.466667   L 118.2,11.133333   L 118.2,10.8   L 118.13333,10.6   L 118.06667,10.4   L 117.93333,10.266667   L 117.73333,10.2   L 117.53333,10.133333   L 117.26667,10.2   L 117.06667,10.266667   L 116.86667,10.4   L 116.8,10.6   L 116.66667,10.8   L 116.66667,11.066667   L 116.6,11.4   L 116.6,13.466667   L 115.93333,13.466667  z   "
     id="path131" />
  <path
     style="fill:#000000;fill-rule:nonzero;fill-opacity:1;stroke:#000000;stroke-width:0.06666667px;stroke-linecap:round;stroke-linejoin:round;stroke-miterlimit:4;stroke-dasharray:none;stroke-opacity:1;"
     d="  M 122.26667,13   L 121.93333,13.266667   L 121.6,13.4   L 121.26667,13.466667   L 120.93333,13.533333   L 120.6,13.466667   L 120.33333,13.4   L 120.06667,13.2   L 119.86667,13   L 119.8,12.733333   L 119.73333,12.4   L 119.8,12.133333   L 119.86667,11.933333   L 120,11.666667   L 120.2,11.533333   L 120.4,11.4   L 120.6,11.333333   L 120.8,11.266667   L 121.13333,11.2   L 121.6,11.133333   L 121.93333,11.066667   L 122.2,11   L 122.2,10.933333   L 122.2,10.866667   L 122.2,10.666667   L 122.13333,10.466667   L 122.06667,10.333333   L 121.86667,10.266667   L 121.66667,10.2   L 121.4,10.133333   L 121.13333,10.2   L 120.93333,10.2   L 120.8,10.266667   L 120.66667,10.4   L 120.6,10.533333   L 120.53333,10.8   L 119.8,10.666667   L 119.93333,10.333333   L 120.13333,10.066667   L 120.26667,9.9333333   L 120.46667,9.8   L 120.66667,9.6666667   L 121.06667,9.6   L 121.53333,9.5333333   L 121.8,9.5333333   L 122.06667,9.6   L 122.26667,9.6666667   L 122.53333,9.8   L 122.73333,9.9333333   L 122.86667,10.133333   L 122.93333,10.4   L 122.93333,10.533333   L 122.93333,10.733333   L 122.93333,10.933333   L 122.93333,11.8   L 123,12.466667   L 123,12.933333   L 123.06667,13.2   L 123.2,13.466667   L 122.53333,13.466667   L 122.33333,13.2   L 122.26667,13  z    M 122.2,11.6   L 121.93333,11.666667   L 121.66667,11.733333   L 121.26667,11.8   L 120.93333,11.866667   L 120.73333,11.933333   L 120.6,12   L 120.53333,12.133333   L 120.46667,12.266667   L 120.46667,12.4   L 120.46667,12.6   L 120.6,12.733333   L 120.73333,12.866667   L 120.93333,12.866667   L 121.13333,12.933333   L 121.46667,12.866667   L 121.73333,12.733333   L 121.93333,12.6   L 122.13333,12.333333   L 122.13333,12.2   L 122.2,12   L 122.2,11.8   L 122.2,11.6  z   "
     id="path133" />
  <path
     style="fill:#000000;fill-rule:nonzero;fill-opacity:1;stroke:#000000;stroke-width:0.06666667px;stroke-linecap:round;stroke-linejoin:round;stroke-miterlimit:4;stroke-dasharray:none;stroke-opacity:1;"
     d="  M 124,13.466667   L 124,8.2   L 124.73333,8.2   L 124.73333,13.466667   L 124,13.466667  z   "
     id="path135" />
  <path
     style="fill:#000000;fill-rule:nonzero;fill-opacity:1;stroke:#000000;stroke-width:0.06666667px;stroke-linecap:round;stroke-linejoin:round;stroke-miterlimit:4;stroke-dasharray:none;stroke-opacity:1;"
     d="  M 127.13333,13.466667   L 129.2,8.2   L 129.93333,8.2   L 132,13.466667   L 131.26667,13.466667   L 130.66667,11.866667   L 128.46667,11.866667   L 127.86667,13.466667   L 127.13333,13.466667  z    M 128.66667,11.2   L 130.46667,11.2   L 129.93333,9.8   L 129.8,9.4   L 129.66667,9.0666667   L 129.6,8.8   L 129.2,9.7333333   L 128.66667,11.2  z   "
     id="path137" />
  <path
     style="fill:#000000;fill-rule:nonzero;fill-opacity:1;stroke:#000000;stroke-width:0.06666667px;stroke-linecap:round;stroke-linejoin:round;stroke-miterlimit:4;stroke-dasharray:none;stroke-opacity:1;"
     d="  M 132.6,13.466667   L 132.6,9.6   L 133.26667,9.6   L 133.26667,10.133333   L 133.73333,9.7333333   L 134.4,9.5333333   L 134.66667,9.6   L 134.93333,9.6666667   L 135.2,9.8   L 135.33333,10   L 135.46667,10.2   L 135.53333,10.466667   L 135.53333,10.6   L 135.53333,10.8   L 135.6,11.133333   L 135.6,13.466667   L 134.86667,13.466667   L 134.86667,11.133333   L 134.86667,10.8   L 134.8,10.6   L 134.73333,10.4   L 134.6,10.266667   L 134.4,10.2   L 134.2,10.133333   L 133.93333,10.2   L 133.73333,10.266667   L 133.53333,10.4   L 133.4,10.6   L 133.33333,10.8   L 133.26667,11.066667   L 133.26667,11.4   L 133.26667,13.466667   L 132.6,13.466667  z   "
     id="path139" />
  <path
     style="fill:#000000;fill-rule:nonzero;fill-opacity:1;stroke:#000000;stroke-width:0.06666667px;stroke-linecap:round;stroke-linejoin:round;stroke-miterlimit:4;stroke-dasharray:none;stroke-opacity:1;"
     d="  M 138.93333,13   L 138.6,13.266667   L 138.26667,13.4   L 137.93333,13.466667   L 137.6,13.533333   L 137.26667,13.466667   L 136.93333,13.4   L 136.73333,13.2   L 136.53333,13   L 136.46667,12.733333   L 136.4,12.4   L 136.46667,12.133333   L 136.53333,11.933333   L 136.66667,11.666667   L 136.8,11.533333   L 137.06667,11.4   L 137.26667,11.333333   L 137.46667,11.266667   L 137.8,11.2   L 138.2,11.133333   L 138.6,11.066667   L 138.86667,11   L 138.86667,10.933333   L 138.86667,10.866667   L 138.86667,10.666667   L 138.8,10.466667   L 138.66667,10.333333   L 138.53333,10.266667   L 138.33333,10.2   L 138.06667,10.133333   L 137.8,10.2   L 137.6,10.2   L 137.46667,10.266667   L 137.33333,10.4   L 137.26667,10.533333   L 137.2,10.8   L 136.46667,10.666667   L 136.6,10.333333   L 136.73333,10.066667   L 136.93333,9.9333333   L 137.06667,9.8   L 137.33333,9.6666667   L 137.73333,9.6   L 138.2,9.5333333   L 138.46667,9.5333333   L 138.73333,9.6   L 138.93333,9.6666667   L 139.2,9.8   L 139.4,9.9333333   L 139.53333,10.133333   L 139.6,10.4   L 139.6,10.533333   L 139.6,10.733333   L 139.6,10.933333   L 139.6,11.8   L 139.6,12.466667   L 139.66667,12.933333   L 139.73333,13.2   L 139.86667,13.466667   L 139.13333,13.466667   L 139,13.2   L 138.93333,13  z    M 138.86667,11.6   L 138.6,11.666667   L 138.26667,11.733333   L 137.93333,11.8   L 137.6,11.866667   L 137.4,11.933333   L 137.26667,12   L 137.2,12.133333   L 137.13333,12.266667   L 137.06667,12.4   L 137.13333,12.6   L 137.26667,12.733333   L 137.4,12.866667   L 137.6,12.866667   L 137.8,12.933333   L 138.06667,12.866667   L 138.4,12.733333   L 138.6,12.6   L 138.73333,12.333333   L 138.8,12.2   L 138.86667,12   L 138.86667,11.8   L 138.86667,11.6  z   "
     id="path141" />
  <path
     style="fill:#000000;fill-rule:nonzero;fill-opacity:1;stroke:#000000;stroke-width:0.06666667px;stroke-linecap:round;stroke-linejoin:round;stroke-miterlimit:4;stroke-dasharray:none;stroke-opacity:1;"
     d="  M 140.66667,13.466667   L 140.66667,8.2   L 141.4,8.2   L 141.4,13.466667   L 140.66667,13.466667  z   "
     id="path143" />
  <path
     style="fill:#000000;fill-rule:nonzero;fill-opacity:1;stroke:#000000;stroke-width:0.06666667px;stroke-linecap:round;stroke-linejoin:round;stroke-miterlimit:4;stroke-dasharray:none;stroke-opacity:1;"
     d="  M 142.2,14.866667   L 142.13333,14.333333   L 142.33333,14.333333   L 142.46667,14.333333   L 142.66667,14.333333   L 142.8,14.266667   L 142.93333,14.2   L 143.06667,14.066667   L 143.06667,14   L 143.13333,13.8   L 143.2,13.6   L 143.26667,13.533333   L 143.26667,13.466667   L 141.8,9.6   L 142.53333,9.6   L 143.33333,11.733333   L 143.46667,12.133333   L 143.6,12.533333   L 143.66667,12.2   L 143.8,11.866667   L 144.6,9.6   L 145.33333,9.6   L 144,13.533333   L 143.8,13.933333   L 143.66667,14.2   L 143.6,14.4   L 143.4,14.666667   L 143.2,14.8   L 142.93333,14.933333   L 142.66667,15   L 142.46667,14.933333   L 142.2,14.866667  z   "
     id="path145" />
  <path
     style="fill:#000000;fill-rule:nonzero;fill-opacity:1;stroke:#000000;stroke-width:0.06666667px;stroke-linecap:round;stroke-linejoin:round;stroke-miterlimit:4;stroke-dasharray:none;stroke-opacity:1;"
     d="  M 145.6,12.266667   L 146.26667,12.2   L 146.33333,12.4   L 146.4,12.6   L 146.53333,12.733333   L 146.73333,12.8   L 146.93333,12.866667   L 147.2,12.933333   L 147.46667,12.866667   L 147.66667,12.866667   L 147.8,12.733333   L 148,12.6   L 148,12.4   L 148,12.266667   L 147.93333,12.133333   L 147.8,12.066667   L 147.6,12   L 147.4,11.933333   L 147.13333,11.866667   L 146.73333,11.733333   L 146.46667,11.666667   L 146.26667,11.533333   L 146,11.4   L 145.8,11.2   L 145.66667,10.933333   L 145.66667,10.666667   L 145.66667,10.4   L 145.73333,10.2   L 145.86667,10   L 146.06667,9.8   L 146.26667,9.7333333   L 146.46667,9.6   L 146.73333,9.6   L 147,9.5333333   L 147.4,9.6   L 147.8,9.6666667   L 148.06667,9.8   L 148.26667,10   L 148.4,10.266667   L 148.46667,10.6   L 147.8,10.666667   L 147.73333,10.466667   L 147.6,10.333333   L 147.46667,10.2   L 147.26667,10.2   L 147.06667,10.133333   L 146.8,10.2   L 146.66667,10.2   L 146.53333,10.266667   L 146.4,10.4   L 146.33333,10.6   L 146.33333,10.666667   L 146.4,10.8   L 146.46667,10.866667   L 146.6,10.933333   L 146.73333,11   L 146.86667,11   L 147.13333,11.066667   L 147.46667,11.2   L 147.8,11.333333   L 148.06667,11.4   L 148.33333,11.533333   L 148.53333,11.733333   L 148.6,11.933333   L 148.66667,12.066667   L 148.73333,12.266667   L 148.66667,12.6   L 148.53333,12.933333   L 148.4,13.066667   L 148.2,13.266667   L 148,13.333333   L 147.6,13.466667   L 147.2,13.533333   L 146.53333,13.466667   L 146.06667,13.2   L 145.86667,13   L 145.66667,12.666667   L 145.6,12.266667  z   "
     id="path147" />
  <path
     style="fill:#000000;fill-rule:nonzero;fill-opacity:1;stroke:#000000;stroke-width:0.06666667px;stroke-linecap:round;stroke-linejoin:round;stroke-miterlimit:4;stroke-dasharray:none;stroke-opacity:1;"
     d="  M 149.53333,8.8666667   L 149.53333,8.2   L 150.26667,8.2   L 150.26667,8.8666667   L 149.53333,8.8666667  z    M 149.53333,13.466667   L 149.53333,9.6   L 150.26667,9.6   L 150.26667,13.466667   L 149.53333,13.466667  z   "
     id="path149" />
  <path
     style="fill:#000000;fill-rule:nonzero;fill-opacity:1;stroke:#000000;stroke-width:0.06666667px;stroke-linecap:round;stroke-linejoin:round;stroke-miterlimit:4;stroke-dasharray:none;stroke-opacity:1;"
     d="  M 150.86667,12.266667   L 151.53333,12.2   L 151.6,12.4   L 151.66667,12.6   L 151.8,12.733333   L 152,12.8   L 152.2,12.866667   L 152.46667,12.933333   L 152.73333,12.866667   L 152.93333,12.866667   L 153.06667,12.733333   L 153.26667,12.6   L 153.26667,12.4   L 153.26667,12.266667   L 153.2,12.133333   L 153.06667,12.066667   L 152.86667,12   L 152.66667,11.933333   L 152.4,11.866667   L 152.06667,11.733333   L 151.73333,11.666667   L 151.53333,11.533333   L 151.26667,11.4   L 151.06667,11.2   L 150.93333,10.933333   L 150.93333,10.666667   L 150.93333,10.4   L 151.06667,10.2   L 151.2,10   L 151.33333,9.8   L 151.53333,9.7333333   L 151.73333,9.6   L 152,9.6   L 152.26667,9.5333333   L 152.66667,9.6   L 153.06667,9.6666667   L 153.33333,9.8   L 153.53333,10   L 153.66667,10.266667   L 153.73333,10.6   L 153.06667,10.666667   L 153,10.466667   L 152.86667,10.333333   L 152.73333,10.2   L 152.53333,10.2   L 152.33333,10.133333   L 152.06667,10.2   L 151.93333,10.2   L 151.8,10.266667   L 151.66667,10.4   L 151.6,10.6   L 151.6,10.666667   L 151.66667,10.8   L 151.8,10.866667   L 151.86667,10.933333   L 152,11   L 152.13333,11   L 152.4,11.066667   L 152.73333,11.2   L 153.06667,11.333333   L 153.33333,11.4   L 153.6,11.533333   L 153.8,11.733333   L 153.86667,11.933333   L 153.93333,12.066667   L 154,12.266667   L 153.93333,12.6   L 153.8,12.933333   L 153.66667,13.066667   L 153.46667,13.266667   L 153.26667,13.333333   L 152.86667,13.466667   L 152.46667,13.533333   L 151.8,13.466667   L 151.33333,13.2   L 151.13333,13   L 150.93333,12.666667   L 150.86667,12.266667  z   "
     id="path151" />
  <path
     style="fill:#000000;fill-rule:nonzero;fill-opacity:1;stroke:#000000;stroke-width:0.06666667px;stroke-linecap:round;stroke-linejoin:round;stroke-miterlimit:4;stroke-dasharray:none;stroke-opacity:1;"
     d="  M 70.066667,58.8   L 69.4,58.8   L 69.4,54.733333   L 69.133333,54.933333   L 68.8,55.133333   L 68.466667,55.333333   L 68.133333,55.466667   L 68.133333,54.866667   L 68.666667,54.6   L 69.066667,54.266667   L 69.4,53.866667   L 69.6,53.533333   L 70.066667,53.533333   L 70.066667,58.8  z   "
     id="path153" />
  <path
     style="fill:#000000;fill-rule:nonzero;fill-opacity:1;stroke:#000000;stroke-width:0.06666667px;stroke-linecap:round;stroke-linejoin:round;stroke-miterlimit:4;stroke-dasharray:none;stroke-opacity:1;"
     d="  M 156.8,57.466667   L 157.46667,57.4   L 157.53333,57.666667   L 157.66667,57.866667   L 157.8,58.066667   L 158,58.2   L 158.2,58.266667   L 158.46667,58.266667   L 158.8,58.266667   L 159.06667,58.133333   L 159.26667,57.933333   L 159.46667,57.666667   L 159.53333,57.4   L 159.53333,57.066667   L 159.53333,56.733333   L 159.46667,56.466667   L 159.26667,56.2   L 159.06667,56.066667   L 158.8,55.933333   L 158.46667,55.933333   L 158.2,55.933333   L 157.93333,56.066667   L 157.73333,56.2   L 157.6,56.4   L 156.86667,56.266667   L 157.4,53.6   L 159.93333,53.6   L 159.93333,54.333333   L 158,54.333333   L 157.73333,55.666667   L 158,55.466667   L 158.33333,55.333333   L 158.66667,55.333333   L 159.26667,55.4   L 159.8,55.8   L 160.13333,56.333333   L 160.26667,57   L 160.13333,57.666667   L 159.86667,58.266667   L 159.26667,58.733333   L 158.46667,58.866667   L 157.86667,58.8   L 157.33333,58.466667   L 157.13333,58.266667   L 157,58.066667   L 156.86667,57.733333   L 156.8,57.466667  z   "
     id="path155" />
  <path
     style="fill:#000000;fill-rule:nonzero;fill-opacity:1;stroke:#000000;stroke-width:0.06666667px;stroke-linecap:round;stroke-linejoin:round;stroke-miterlimit:4;stroke-dasharray:none;stroke-opacity:1;"
     d="  M 163.2,58.8   L 162.53333,58.8   L 162.53333,54.733333   L 162.26667,54.933333   L 161.93333,55.133333   L 161.6,55.333333   L 161.33333,55.466667   L 161.33333,54.866667   L 161.8,54.6   L 162.2,54.266667   L 162.53333,53.866667   L 162.8,53.533333   L 163.2,53.533333   L 163.2,58.8  z   "
     id="path157" />
  <path
     style="fill:#000000;fill-rule:nonzero;fill-opacity:1;stroke:#000000;stroke-width:0.06666667px;stroke-linecap:round;stroke-linejoin:round;stroke-miterlimit:4;stroke-dasharray:none;stroke-opacity:1;"
     d="  M 165,54.333333   L 165,53.6   L 168.33333,53.6   L 168.33333,54.2   L 167.86667,54.8   L 167.4,55.6   L 166.66667,57.4   L 166.46667,58.8   L 165.73333,58.8   L 165.8,58.133333   L 166,57.333333   L 166.26667,56.466667   L 166.66667,55.666667   L 167.13333,54.933333   L 167.66667,54.333333   L 165,54.333333  z   "
     id="path159" />
  <path
     style="fill:#000000;fill-rule:nonzero;fill-opacity:1;stroke:#000000;stroke-width:0.06666667px;stroke-linecap:round;stroke-linejoin:round;stroke-miterlimit:4;stroke-dasharray:none;stroke-opacity:1;"
     d="  M 73.333333,41.6   L 73.333333,36.933333   L 71.6,36.933333   L 71.6,36.333333   L 75.8,36.333333   L 75.8,36.933333   L 74.066667,36.933333   L 74.066667,41.6   L 73.333333,41.6  z   "
     id="path161" />
  <path
     style="fill:#000000;fill-rule:nonzero;fill-opacity:1;stroke:#000000;stroke-width:0.06666667px;stroke-linecap:round;stroke-linejoin:round;stroke-miterlimit:4;stroke-dasharray:none;stroke-opacity:1;"
     d="  M 79.6,40.933333   L 79.6,41.6   L 76.2,41.6   L 76.2,41.4   L 76.266667,41.133333   L 76.4,40.8   L 76.6,40.4   L 76.866667,40.2   L 77.133333,39.933333   L 77.466667,39.666667   L 78.133333,39   L 78.6,38.533333   L 78.733333,38.266667   L 78.8,38.066667   L 78.866667,37.8   L 78.8,37.6   L 78.733333,37.4   L 78.6,37.2   L 78.4,37.066667   L 78.2,37   L 77.933333,36.933333   L 77.666667,37   L 77.4,37.066667   L 77.2,37.2   L 77.066667,37.4   L 77,37.6   L 76.933333,37.866667   L 76.266667,37.8   L 76.4,37.2   L 76.733333,36.733333   L 77.266667,36.466667   L 77.933333,36.333333   L 78.6,36.466667   L 79.133333,36.733333   L 79.266667,37   L 79.4,37.2   L 79.533333,37.533333   L 79.533333,37.8   L 79.533333,38.133333   L 79.4,38.4   L 79.266667,38.733333   L 79,39.066667   L 78.866667,39.266667   L 78.666667,39.466667   L 78.4,39.666667   L 78.066667,39.933333   L 77.8,40.2   L 77.6,40.333333   L 77.466667,40.466667   L 77.333333,40.6   L 77.066667,40.933333   L 79.6,40.933333  z   "
     id="path163" />
  <path
     style="fill:#000000;fill-rule:nonzero;fill-opacity:1;stroke:#000000;stroke-width:0.06666667px;stroke-linecap:round;stroke-linejoin:round;stroke-miterlimit:4;stroke-dasharray:none;stroke-opacity:1;"
     d="  M 80.266667,41.933333   L 81,42   L 81,42.133333   L 81.066667,42.266667   L 81.2,42.4   L 81.333333,42.466667   L 81.6,42.533333   L 81.8,42.533333   L 82.066667,42.533333   L 82.266667,42.466667   L 82.466667,42.4   L 82.6,42.266667   L 82.733333,42.066667   L 82.8,41.933333   L 82.8,41.733333   L 82.8,41.466667   L 82.8,41.133333   L 82.6,41.333333   L 82.333333,41.533333   L 82.066667,41.6   L 81.8,41.6   L 81.133333,41.466667   L 80.666667,41.066667   L 80.333333,40.4   L 80.2,39.666667   L 80.266667,39.333333   L 80.333333,39   L 80.4,38.666667   L 80.533333,38.4   L 80.733333,38.133333   L 80.933333,38   L 81.2,37.8   L 81.466667,37.733333   L 81.8,37.733333   L 82.066667,37.733333   L 82.333333,37.866667   L 82.6,38   L 82.8,38.266667   L 82.8,37.8   L 83.533333,37.8   L 83.533333,41.066667   L 83.466667,41.866667   L 83.333333,42.333333   L 83.2,42.6   L 83,42.8   L 82.733333,42.933333   L 82.466667,43.066667   L 82.133333,43.133333   L 81.8,43.133333   L 81.2,43.066667   L 80.733333,42.866667   L 80.533333,42.666667   L 80.4,42.466667   L 80.333333,42.2   L 80.266667,41.933333  z    M 80.933333,39.666667   L 80.933333,40   L 81,40.266667   L 81.066667,40.466667   L 81.2,40.666667   L 81.4,40.866667   L 81.6,41   L 81.866667,41   L 82.133333,41   L 82.333333,40.866667   L 82.533333,40.666667   L 82.666667,40.466667   L 82.733333,40.266667   L 82.8,40   L 82.8,39.666667   L 82.8,39.333333   L 82.733333,39.066667   L 82.666667,38.866667   L 82.533333,38.666667   L 82.333333,38.466667   L 82.133333,38.4   L 81.866667,38.333333   L 81.6,38.4   L 81.4,38.466667   L 81.2,38.666667   L 81.066667,38.933333   L 80.933333,39.266667   L 80.933333,39.666667  z   "
     id="path165" />
  <path
     style="fill:#000000;fill-rule:nonzero;fill-opacity:1;stroke:#000000;stroke-width:0.06666667px;stroke-linecap:round;stroke-linejoin:round;stroke-miterlimit:4;stroke-dasharray:none;stroke-opacity:1;"
     d="  M 86.733333,41.6   L 86.733333,36.333333   L 89,36.333333   L 89.4,36.333333   L 89.733333,36.4   L 90,36.466667   L 90.2,36.6   L 90.4,36.8   L 90.533333,37   L 90.666667,37.2   L 90.733333,37.466667   L 90.733333,37.733333   L 90.733333,38.133333   L 90.6,38.4   L 90.4,38.666667   L 90,39   L 89.333333,39.2   L 89.6,39.333333   L 89.733333,39.466667   L 90,39.8   L 90.266667,40.133333   L 91.133333,41.6   L 90.333333,41.6   L 89.666667,40.466667   L 89.466667,40.2   L 89.333333,39.933333   L 89.2,39.733333   L 89,39.533333   L 88.866667,39.4   L 88.533333,39.266667   L 88.4,39.266667   L 88.2,39.266667   L 87.4,39.266667   L 87.4,41.6   L 86.733333,41.6  z    M 87.4,38.666667   L 88.866667,38.666667   L 89.133333,38.6   L 89.333333,38.6   L 89.533333,38.533333   L 89.8,38.4   L 89.933333,38.266667   L 90.066667,38   L 90.066667,37.8   L 90.066667,37.533333   L 89.933333,37.333333   L 89.8,37.2   L 89.6,37.066667   L 89.333333,37   L 89,36.933333   L 87.4,36.933333   L 87.4,38.666667  z   "
     id="path167" />
  <path
     style="fill:none;stroke:#ff0000;stroke-width:0.60000002px;stroke-linecap:round;stroke-linejoin:round;stroke-miterlimit:4;stroke-dasharray:none;stroke-opacity:1;"
     d="  M 71.466667,56.4   L 156.53333,56.4  "
     id="path169" />
  <path
     style="fill:none;stroke:#ff0000;stroke-width:0.13333334px;stroke-linecap:round;stroke-linejoin:round;stroke-miterlimit:4;stroke-dasharray:none;stroke-opacity:1;"
     d="  M 37.4,145.2   L 207.53333,145.2  "
     id="path171" />
  <path
     style="fill:none;stroke:#000000;stroke-width:0.33333334px;stroke-linecap:round;stroke-linejoin:round;stroke-miterlimit:4;stroke-dasharray:none;stroke-opacity:1;"
     d="  M 37.4,145.2   L 207.53333,145.2   L 207.53333,22   L 37.4,22   L 37.4,145.2  "
     id="path173" />
</svg>
